<svg width="17" height="19" viewBox="0 0 17 19" fill="none" xmlns="http://www.w3.org/2000/svg">
<path d="M7.52184 13.8947C6.23047 13.8931 4.96857 13.5136 3.89563 12.8042C2.82268 12.0947 1.98687 11.0872 1.49381 9.90901C1.00075 8.73077 0.872593 7.43468 1.12553 6.18455C1.37846 4.93442 2.00113 3.78638 2.91484 2.88551C3.82856 1.98465 4.99229 1.37141 6.25897 1.12329C7.52564 0.875179 8.8384 1.00333 10.0313 1.49156C11.2242 1.97978 12.2438 2.80616 12.961 3.86624C13.6783 4.92632 14.0611 6.17253 14.0611 7.44735C14.059 9.15804 13.369 10.7979 12.1429 12.0068C10.9168 13.2157 9.25474 13.8947 7.52184 13.8947ZM7.52184 1.46401C6.3211 1.46401 5.14734 1.81561 4.14908 2.47433C3.15082 3.13304 2.37291 4.06926 1.91378 5.16453C1.45466 6.25981 1.33495 7.46491 1.5698 8.62737C1.80465 9.78982 2.38352 10.8574 3.23314 11.695C4.08277 12.5326 5.16498 13.1026 6.34285 13.3328C7.52071 13.5631 8.7413 13.4433 9.85017 12.9886C10.959 12.5338 11.9064 11.7646 12.5723 10.7783C13.2382 9.79189 13.5927 8.6327 13.5911 7.44735C13.5889 5.85972 12.9485 4.33786 11.8105 3.216C10.6726 2.09414 9.13008 1.46401 7.52184 1.46401Z" fill="black"/>
<path d="M7.52184 13.8947C6.23047 13.8931 4.96857 13.5136 3.89563 12.8042C2.82268 12.0947 1.98687 11.0872 1.49381 9.90901C1.00075 8.73077 0.872593 7.43468 1.12553 6.18455C1.37846 4.93442 2.00113 3.78638 2.91484 2.88551C3.82856 1.98465 4.99229 1.37141 6.25897 1.12329C7.52564 0.875179 8.8384 1.00333 10.0313 1.49156C11.2242 1.97978 12.2438 2.80616 12.961 3.86624C13.6783 4.92632 14.0611 6.17253 14.0611 7.44735C14.059 9.15804 13.369 10.7979 12.1429 12.0068C10.9168 13.2157 9.25474 13.8947 7.52184 13.8947V13.8947ZM7.52184 1.46401C6.3211 1.46401 5.14734 1.81561 4.14908 2.47433C3.15082 3.13304 2.37291 4.06926 1.91378 5.16453C1.45466 6.25981 1.33495 7.46491 1.5698 8.62737C1.80465 9.78982 2.38352 10.8574 3.23314 11.695C4.08277 12.5326 5.16498 13.1026 6.34285 13.3328C7.52071 13.5631 8.7413 13.4433 9.85017 12.9886C10.959 12.5338 11.9064 11.7646 12.5723 10.7783C13.2382 9.79189 13.5927 8.6327 13.5911 7.44735C13.5889 5.85972 12.9485 4.33786 11.8105 3.216C10.6726 2.09414 9.13008 1.46401 7.52184 1.46401V1.46401Z" stroke="black" stroke-miterlimit="10"/>
<path d="M15.7517 17.9976C15.6828 17.9949 15.6177 17.9657 15.5703 17.9162L11.0266 12.6411C10.9955 12.5928 10.9832 12.535 10.992 12.4785C11.0008 12.422 11.0301 12.3705 11.0745 12.3337C11.1188 12.2969 11.1752 12.2772 11.2331 12.2784C11.2911 12.2795 11.3466 12.3014 11.3894 12.3399L15.9331 17.615C15.9755 17.6589 15.9991 17.7172 15.9991 17.7778C15.9991 17.8384 15.9755 17.8967 15.9331 17.9406C15.8929 17.9777 15.8398 17.9981 15.7847 17.9976" fill="black"/>
<path d="M15.7517 17.9976C15.6828 17.9949 15.6177 17.9657 15.5703 17.9162L11.0266 12.6411C10.9955 12.5928 10.9832 12.535 10.992 12.4785C11.0008 12.422 11.0301 12.3705 11.0745 12.3337C11.1188 12.2969 11.1752 12.2772 11.2331 12.2784C11.2911 12.2795 11.3466 12.3014 11.3894 12.3399L15.9331 17.615C15.9755 17.6589 15.9991 17.7172 15.9991 17.7778C15.9991 17.8384 15.9755 17.8967 15.9331 17.9406C15.9094 17.9632 15.8807 17.9802 15.8492 17.9901C15.8177 17.9999 15.7844 18.0025 15.7517 17.9976V17.9976Z" stroke="black" stroke-miterlimit="10"/>
</svg>
