<svg width="20" height="20" viewBox="0 0 20 20" fill="none" xmlns="http://www.w3.org/2000/svg">
<g clip-path="url(#clip0)">
<path d="M19.07 4.55776L12.9989 0.501246H12.7619L6.78191 4.48484L0.85666 0.501246C0.816795 0.477114 0.771083 0.464355 0.724482 0.464355C0.677881 0.464355 0.632169 0.477114 0.592303 0.501246C0.553964 0.522177 0.521408 0.552281 0.497547 0.588868C0.473686 0.625456 0.459263 0.667385 0.455566 0.710909V15.205C0.456539 15.247 0.467863 15.2881 0.488536 15.3247C0.509208 15.3612 0.538589 15.3922 0.574071 15.4146L6.64517 19.4985H6.70898H6.78191L12.853 15.4967L18.7874 19.4803C18.8274 19.5088 18.875 19.5247 18.9241 19.5259C18.9658 19.538 19.0101 19.538 19.0517 19.5259C19.0933 19.5041 19.128 19.4713 19.1521 19.4311C19.1762 19.3909 19.1888 19.3448 19.1885 19.298V4.79477C19.1923 4.74821 19.1833 4.70148 19.1624 4.65969C19.1415 4.61789 19.1095 4.58264 19.07 4.55776ZM0.975165 1.20316L6.52667 4.93151V18.7966L0.975165 15.0591V1.20316ZM7.04627 4.93151L12.5978 1.20316V15.0591L7.04627 18.7966V4.93151ZM18.6689 18.7966L13.1174 15.0591V1.20316L18.6689 4.93151V18.7966Z" fill="#333333"/>
<path d="M19.07 4.55776L12.9989 0.501246H12.7619L6.78191 4.48484L0.85666 0.501246C0.816795 0.477114 0.771083 0.464355 0.724482 0.464355C0.677881 0.464355 0.632169 0.477114 0.592303 0.501246C0.553964 0.522177 0.521408 0.552281 0.497547 0.588868C0.473686 0.625456 0.459263 0.667385 0.455566 0.710909V15.205C0.456539 15.247 0.467863 15.2881 0.488536 15.3247C0.509208 15.3612 0.538589 15.3922 0.574071 15.4146L6.64517 19.4985H6.70899H6.78191L12.853 15.4967L18.7874 19.4803C18.8274 19.5088 18.875 19.5247 18.9241 19.5259C18.9658 19.538 19.0101 19.538 19.0517 19.5259C19.0933 19.5041 19.128 19.4713 19.1521 19.4311C19.1762 19.3909 19.1888 19.3448 19.1885 19.298V4.79477C19.1923 4.74821 19.1833 4.70148 19.1624 4.65969C19.1415 4.61789 19.1095 4.58264 19.07 4.55776ZM0.975165 1.20316L6.52667 4.93151V18.7966L0.975165 15.0591V1.20316ZM7.04627 4.93151L12.5978 1.20316V15.0591L7.04627 18.7966V4.93151ZM18.6689 18.7966L13.1174 15.0591V1.20316L18.6689 4.93151V18.7966Z" stroke="#333333" stroke-miterlimit="10"/>
</g>
<defs>
<clipPath id="clip0">
<rect width="19.6445" height="20" fill="white"/>
</clipPath>
</defs>
</svg>
