<?xml version="1.0" encoding="UTF-8"?> <svg xmlns="http://www.w3.org/2000/svg" width="365" height="152" viewBox="0 0 365 152" fill="none"> <path d="M18.3594 60.9844C32.5918 60.9844 42.0254 48.1465 42.0254 30.5508C42.0254 12.873 32.8789 0.0351562 18.0312 0.0351562C14.2578 0.0351562 10.0742 0.609375 3.22461 4.95703L2.36328 19.3945H2.97852C5.80859 7.91016 8.92578 1.59375 18.6875 1.59375C29.3105 1.59375 35.1348 13.4473 35.3809 29.4023H20.3691L16.8418 21.6504H16.2676V38.6309H16.8418L20.3691 30.9199H35.3809C35.3398 47.5723 29.1875 59.4668 18.1133 59.4668C8.88477 59.4668 5.39844 51.8379 2.97852 41.625H2.36328L3.22461 56.0625C9.91016 60.3281 14.2988 60.9844 18.3594 60.9844ZM84.5996 56.9648L65.8555 26.6543L80.252 7.45898L88.7422 7.33594H89.1934L89.2344 0.978516H88.4551C83.1641 0.978516 81.1953 3.43945 77.627 8.11523L62.2871 28.1309H58.2676V4.01367L64.748 1.79883V0.978516H45.8398V1.79883L52.2793 4.01367V57.0059L45.8398 59.1797V60H64.748V59.1797L58.2676 56.9648V29.7715H60.8926L79.4316 60H90.752V58.7695L84.5996 56.9648ZM111.711 60.9844C125.369 60.9844 134.475 48.8027 134.475 30.5918C134.475 12.2988 125.369 0.0351562 111.711 0.0351562C98.0938 0.0351562 88.9883 12.2578 88.9883 30.5918C88.9883 48.8438 98.0938 60.9844 111.711 60.9844ZM111.711 59.4668C102.072 59.4668 95.6738 47.9004 95.6738 30.5918C95.6738 13.2012 102.072 1.59375 111.711 1.59375C121.432 1.59375 127.83 13.2422 127.83 30.5918C127.83 47.8594 121.432 59.4668 111.711 59.4668ZM189.312 72.8379H189.6V58.4824H182.75V4.01367L188.943 1.79883V0.978516H170.773V1.79883L176.844 4.01367V58.4824H150.307V4.01367L156.459 1.79883V0.978516H138.289V1.79883L144.318 4.01367V57.0059L138.289 59.1797V60H184.104L189.312 72.8379ZM237.588 56.9648V4.01367L243.699 1.79883V0.978516H225.57V1.79883L231.682 4.01367V8.0332L205.186 48.1875V4.01367L211.297 1.79883V0.978516H193.168V1.79883L199.197 4.01367V57.0059L193.168 59.1797V60H211.297V59.1797L205.186 56.9648V50.7715L231.682 10.6172V57.0059L225.652 59.1797V60H243.781V59.1797L237.588 56.9648ZM246.488 72.8379H246.816L251.984 60H291.359L296.527 72.8379H296.814V58.4824H290.047V4.01367L296.076 1.79883V0.978516H254.527V1.79883L261.418 4.01367C261.459 23.4961 261.459 50.3613 250.098 58.4824H246.488V72.8379ZM252.682 58.4824C263.51 48.8027 262.977 21.4453 263.059 2.49609H284.1V58.4824H252.682ZM318.348 60H337.502C349.807 60 357.107 55.0371 357.107 44.127C357.107 36.5801 352.924 30.3867 344.885 29.2383V29.0742C351.447 27.2285 355.18 21.7324 355.18 14.8418C355.18 7.5 350.422 0.978516 339.102 0.978516H318.348V1.79883L324.418 4.01367V56.9648L318.348 59.1797V60ZM330.406 28.6641V2.53711H337.543C344.926 2.53711 348.576 7.29492 348.576 15.375C348.576 22.6348 345.5 28.6641 338.363 28.6641H330.406ZM330.406 58.4414V30.2227H338.65C346.771 30.2227 350.422 35.5957 350.422 44.127C350.422 52.7402 346.566 58.4414 338.281 58.4414H330.406ZM39.7285 148.965L20.9844 118.654L35.3809 99.459L43.8711 99.3359H44.3223L44.3633 92.9785H43.584C38.293 92.9785 36.3242 95.4395 32.7559 100.115L17.416 120.131H13.3965V96.0137L19.877 93.7988V92.9785H0.96875V93.7988L7.4082 96.0137V149.006L0.96875 151.18V152H19.877V151.18L13.3965 148.965V121.771H16.0215L34.5605 152H45.8809V150.77L39.7285 148.965ZM91.4082 148.965L74.2637 92.9785H65.9375V93.7988L69.1777 97.9004L54.084 148.965L47.6855 151.18V152H63.1484V151.18L55.5605 148.965L60.4824 132.189H80.0879L85.0508 148.965L79.3086 151.18V152H97.5195V151.18L91.4082 148.965ZM60.9336 130.631L70.2441 99.0078L79.6367 130.631H60.9336ZM100.062 152H118.766V151.18L112.039 148.965V94.5371H118.438C125.615 94.5371 130.291 99.0488 130.291 109.836C130.291 119.803 126.148 126.037 118.766 126.037H115.197V127.596H118.848C130.004 127.596 136.936 121.484 136.936 109.836C136.936 100.279 131.604 92.9785 120.529 92.9785H100.062V93.7988L106.051 96.0137V149.006L100.062 151.18V152ZM173.768 148.965L156.623 92.9785H148.297V93.7988L151.537 97.9004L136.443 148.965L130.045 151.18V152H145.508V151.18L137.92 148.965L142.842 132.189H162.447L167.41 148.965L161.668 151.18V152H179.879V151.18L173.768 148.965ZM143.293 130.631L152.604 99.0078L161.996 130.631H143.293ZM182.545 152H201.576C213.881 152 221.182 147.037 221.182 136.127C221.182 125.012 212.855 120.664 202.725 120.664H194.48V94.4961H210.846L215.932 107.375H216.178V92.9785H182.422V93.7988L188.492 96.0137V149.047L182.545 151.18V152ZM194.48 150.482V122.223H202.725C210.846 122.223 214.537 127.596 214.537 136.127C214.537 144.74 210.641 150.482 202.355 150.482H194.48ZM268.021 148.965L250.877 92.9785H242.551V93.7988L245.791 97.9004L230.697 148.965L224.299 151.18V152H239.762V151.18L232.174 148.965L237.096 132.189H256.701L261.664 148.965L255.922 151.18V152H274.133V151.18L268.021 148.965ZM237.547 130.631L246.857 99.0078L256.25 130.631H237.547ZM318.102 148.965L302.311 119.434L316.297 96.0137L322.695 93.8398V92.9785H308.176V93.8398L314.574 96.0137L301.572 118.039L290.088 96.0137L296.158 93.8398V92.9785H277.66V93.8398L282.992 96.0137L297.43 122.961L282.623 148.965L276.266 151.139V152H290.662V151.139L284.305 148.965L298.25 124.396L311.088 148.965L305.059 151.139V152H323.475V151.139L318.102 148.965ZM325.895 152H362.193L364.039 137.604L363.711 137.521L356.82 150.441H337.953V122.51H348.781L352.309 130.18H352.883V113.199H352.309L348.781 120.951H337.953V94.5371H354.482L359.527 107.375H359.814V92.9785H325.936V93.7988L331.965 96.0137V149.006L325.895 151.18V152Z" fill="white"></path> </svg> 