<?xml version="1.0" encoding="UTF-8"?> <svg xmlns="http://www.w3.org/2000/svg" width="1031" height="244" viewBox="0 0 1031 244" fill="none"> <path d="M46.3887 56.9648V4.01367L52.5 1.79883V0.978516H34.3711V1.79883L40.4824 4.01367V8.0332L13.9863 48.1875V4.01367L20.0977 1.79883V0.978516H1.96875V1.79883L7.99805 4.01367V57.0059L1.96875 59.1797V60H20.0977V59.1797L13.9863 56.9648V50.7715L40.4824 10.6172V57.0059L34.4531 59.1797V60H52.582V59.1797L46.3887 56.9648ZM71.2441 60.9844C81.2109 60.9844 88.1016 54.3809 88.1016 44.7012C88.1016 35.8828 82.8926 29.9766 75.3047 28.1719C82.4824 25.916 86.707 20.748 86.707 13.9805C86.707 6.10547 81.5801 0.0351562 72.8027 0.0351562C66.9375 0.0351562 63.041 2.04492 60.2109 3.72656L59.4316 18.5742H59.9648C61.8105 11.7656 64.8867 1.55273 72.6387 1.55273C77.6836 1.55273 80.4316 7.00781 80.4316 13.9805C80.4316 22.5527 75.7559 26.3262 67.6758 28.8691V30.0586C76.125 31.4941 82.0723 35.3496 82.0723 45.7676C82.0723 53.6016 78.2578 59.4668 71.5312 59.4668C64.3125 59.4668 60.9492 50.3203 58.7754 42.3633H58.1602L58.9395 57.1289C61.1133 59.0156 66.4453 60.9844 71.2441 60.9844ZM92.9414 60H108.65V59.1797L101.514 56.5137V7.45898L121.201 54.0527H123.088L142.857 7.91016V56.9648L136.623 59.1797V60H155.08V59.1797L148.846 56.9648V4.01367L155.08 1.79883V0.978516H144.17L124.318 47.3672L105 0.978516H92.9824V1.79883L100.037 4.01367V56.5137L92.9414 59.1797V60ZM159.059 60H195.357L197.203 45.6035L196.875 45.5215L189.984 58.4414H171.117V30.5098H181.945L185.473 38.1797H186.047V21.1992H185.473L181.945 28.9512H171.117V2.53711H187.646L192.691 15.375H192.979V0.978516H159.1V1.79883L165.129 4.01367V57.0059L159.059 59.1797V60ZM199.992 60H218.121V59.1797L212.01 56.9648V30.5508H238.424V57.0059L232.395 59.1797V60H250.523V59.1797L244.412 56.9648V4.01367L250.523 1.79883V0.978516H232.395V1.79883L238.424 4.01367V28.9922H212.01V4.01367L218.121 1.79883V0.978516H199.992V1.79883L206.021 4.01367V57.0059L199.992 59.1797V60ZM254.461 60H290.76L292.605 45.6035L292.277 45.5215L285.387 58.4414H266.52V30.5098H277.348L280.875 38.1797H281.449V21.1992H280.875L277.348 28.9512H266.52V2.53711H283.049L288.094 15.375H288.381V0.978516H254.502V1.79883L260.531 4.01367V57.0059L254.461 59.1797V60ZM295.395 60H313.523V59.1797L307.412 56.9648V30.5508H333.826V57.0059L327.797 59.1797V60H345.926V59.1797L339.814 56.9648V4.01367L345.926 1.79883V0.978516H327.797V1.79883L333.826 4.01367V28.9922H307.412V4.01367L313.523 1.79883V0.978516H295.395V1.79883L301.424 4.01367V57.0059L295.395 59.1797V60ZM394.283 56.9648V4.01367L400.395 1.79883V0.978516H382.266V1.79883L388.377 4.01367V8.0332L361.881 48.1875V4.01367L367.992 1.79883V0.978516H349.863V1.79883L355.893 4.01367V57.0059L349.863 59.1797V60H367.992V59.1797L361.881 56.9648V50.7715L388.377 10.6172V57.0059L382.348 59.1797V60H400.477V59.1797L394.283 56.9648ZM404.414 60H440.713L442.559 45.6035L442.23 45.5215L435.34 58.4414H416.473V30.5098H427.301L430.828 38.1797H431.402V21.1992H430.828L427.301 28.9512H416.473V2.53711H433.002L438.047 15.375H438.334V0.978516H404.455V1.79883L410.484 4.01367V57.0059L404.414 59.1797V60ZM488.045 60.9844C492.105 60.9844 496.453 60.3691 503.18 56.0625L504.082 41.625H503.467C500.637 52.7812 497.109 59.4668 488.332 59.4668C477.258 59.4668 471.105 47.5723 471.105 30.5508C471.105 14.0625 476.848 1.59375 487.758 1.59375C497.971 1.59375 500.801 8.93555 503.467 19.3945H504.082L503.18 4.95703C496.453 0.609375 492.105 0.0351562 488.373 0.0351562C473.525 0.0351562 464.379 12.873 464.379 30.5508C464.379 48.1465 473.812 60.9844 488.045 60.9844ZM533.203 60.9844C546.861 60.9844 555.967 48.8027 555.967 30.5918C555.967 12.2988 546.861 0.0351562 533.203 0.0351562C519.586 0.0351562 510.48 12.2578 510.48 30.5918C510.48 48.8438 519.586 60.9844 533.203 60.9844ZM533.203 59.4668C523.564 59.4668 517.166 47.9004 517.166 30.5918C517.166 13.2012 523.564 1.59375 533.203 1.59375C542.924 1.59375 549.322 13.2422 549.322 30.5918C549.322 47.8594 542.924 59.4668 533.203 59.4668ZM584.801 60.9844C598.459 60.9844 607.564 48.8027 607.564 30.5918C607.564 12.2988 598.459 0.0351562 584.801 0.0351562C571.184 0.0351562 562.078 12.2578 562.078 30.5918C562.078 48.8438 571.184 60.9844 584.801 60.9844ZM584.801 59.4668C575.162 59.4668 568.764 47.9004 568.764 30.5918C568.764 13.2012 575.162 1.59375 584.801 1.59375C594.521 1.59375 600.92 13.2422 600.92 30.5918C600.92 47.8594 594.521 59.4668 584.801 59.4668ZM619.336 60H638.244V59.1797L631.805 56.9648V2.53711H642.182L646.652 13.8984H646.98V0.978516H610.6V13.8984H610.969L615.357 2.53711H625.816V56.9648L619.336 59.1797V60ZM651.82 60H669.949V59.1797L663.838 56.9648V30.5508H690.252V57.0059L684.223 59.1797V60H702.352V59.1797L696.24 56.9648V4.01367L702.352 1.79883V0.978516H684.223V1.79883L690.252 4.01367V28.9922H663.838V4.01367L669.949 1.79883V0.978516H651.82V1.79883L657.85 4.01367V57.0059L651.82 59.1797V60ZM728.848 60.9844C742.506 60.9844 751.611 48.8027 751.611 30.5918C751.611 12.2988 742.506 0.0351562 728.848 0.0351562C715.23 0.0351562 706.125 12.2578 706.125 30.5918C706.125 48.8438 715.23 60.9844 728.848 60.9844ZM728.848 59.4668C719.209 59.4668 712.811 47.9004 712.811 30.5918C712.811 13.2012 719.209 1.59375 728.848 1.59375C738.568 1.59375 744.967 13.2422 744.967 30.5918C744.967 47.8594 738.568 59.4668 728.848 59.4668ZM755.426 60H822.035V59.1797L816.006 56.9648V4.01367L822.035 1.79883V0.978516H804.029V1.79883L810.018 4.01367V58.4824H791.479V4.01367L797.426 1.79883V0.978516H779.502V1.79883L785.531 4.01367V58.4824H767.402V4.01367L773.391 1.79883V0.978516H755.467V1.79883L761.414 4.01367V57.0059L755.426 59.1797V60ZM825.973 60H862.271L864.117 45.6035L863.789 45.5215L856.898 58.4414H838.031V30.5098H848.859L852.387 38.1797H852.961V21.1992H852.387L848.859 28.9512H838.031V2.53711H854.561L859.605 15.375H859.893V0.978516H826.014V1.79883L832.043 4.01367V57.0059L825.973 59.1797V60ZM866.906 60H885.035V59.1797L878.924 56.9648V30.5508H905.338V57.0059L899.309 59.1797V60H917.438V59.1797L911.326 56.9648V4.01367L917.438 1.79883V0.978516H899.309V1.79883L905.338 4.01367V28.9922H878.924V4.01367L885.035 1.79883V0.978516H866.906V1.79883L872.936 4.01367V57.0059L866.906 59.1797V60ZM965.795 56.9648V4.01367L971.906 1.79883V0.978516H953.777V1.79883L959.889 4.01367V8.0332L933.393 48.1875V4.01367L939.504 1.79883V0.978516H921.375V1.79883L927.404 4.01367V57.0059L921.375 59.1797V60H939.504V59.1797L933.393 56.9648V50.7715L959.889 10.6172V57.0059L953.859 59.1797V60H971.988V59.1797L965.795 56.9648ZM1019.4 60V59.1797L1013.37 57.0059V4.01367L1019.4 1.79883V0.978516H998.033C987.656 0.978516 982.037 6.80273 982.037 15.5801C982.037 25.3828 988.025 30.3867 995.162 31.7812V31.9863C993.604 32.3965 992.004 32.7246 991.143 32.6836L979.986 56.6777L975.434 59.1797L975.393 60H985.318L997.541 32.1094C998.812 32.3145 1000.12 32.3965 1001.31 32.3965H1004.8V30.8379H1001.11C992.414 30.8379 988.723 25.4648 988.723 15.8262C988.723 7.95117 991.963 2.53711 999.961 2.53711H1007.38V56.9648L1001.52 59.1797V60H1019.4ZM43.9277 148.965L26.7832 92.9785H18.457V93.7988L21.6973 97.9004L6.60352 148.965L0.205078 151.18V152H15.668V151.18L8.08008 148.965L13.002 132.189H32.6074L37.5703 148.965L31.8281 151.18V152H50.0391V151.18L43.9277 148.965ZM13.4531 130.631L22.7637 99.0078L32.1562 130.631H13.4531ZM67.3066 152.984C77.2734 152.984 84.1641 146.381 84.1641 136.701C84.1641 127.883 78.9551 121.977 71.3672 120.172C78.5449 117.916 82.7695 112.748 82.7695 105.98C82.7695 98.1055 77.6426 92.0352 68.8652 92.0352C63 92.0352 59.1035 94.0449 56.2734 95.7266L55.4941 110.574H56.0273C57.873 103.766 60.9492 93.5527 68.7012 93.5527C73.7461 93.5527 76.4941 99.0078 76.4941 105.98C76.4941 114.553 71.8184 118.326 63.7383 120.869V122.059C72.1875 123.494 78.1348 127.35 78.1348 137.768C78.1348 145.602 74.3203 151.467 67.5938 151.467C60.375 151.467 57.0117 142.32 54.8379 134.363H54.2227L55.002 149.129C57.1758 151.016 62.5078 152.984 67.3066 152.984ZM89.0039 152H125.303L127.148 137.604L126.82 137.521L119.93 150.441H101.062V122.51H111.891L115.418 130.18H115.992V113.199H115.418L111.891 120.951H101.062V94.5371H117.592L122.637 107.375H122.924V92.9785H89.0449V93.7988L95.0742 96.0137V149.006L89.0039 151.18V152ZM129.938 152H148.641V151.18L141.914 148.965V94.5371H148.312C155.49 94.5371 160.166 99.0488 160.166 109.836C160.166 119.803 156.023 126.037 148.641 126.037H145.072V127.596H148.723C159.879 127.596 166.811 121.484 166.811 109.836C166.811 100.279 161.479 92.9785 150.404 92.9785H129.938V93.7988L135.926 96.0137V149.006L129.938 151.18V152ZM170.01 152H189.041C201.346 152 208.646 147.037 208.646 136.127C208.646 125.012 200.32 120.664 190.189 120.664H181.945V94.4961H198.311L203.396 107.375H203.643V92.9785H169.887V93.7988L175.957 96.0137V149.047L170.01 151.18V152ZM181.945 150.482V122.223H190.189C198.311 122.223 202.002 127.596 202.002 136.127C202.002 144.74 198.105 150.482 189.82 150.482H181.945ZM255.486 148.965L238.342 92.9785H230.016V93.7988L233.256 97.9004L218.162 148.965L211.764 151.18V152H227.227V151.18L219.639 148.965L224.561 132.189H244.166L249.129 148.965L243.387 151.18V152H261.598V151.18L255.486 148.965ZM225.012 130.631L234.322 99.0078L243.715 130.631H225.012ZM289.365 88.7949C294.164 88.7949 296.461 83.5449 296.543 78.8281L296.092 78.623C295.559 82.0273 293.508 84.1602 289.365 84.1602C285.264 84.1602 283.254 82.0273 282.721 78.623L282.27 78.8281C282.352 83.709 284.73 88.7949 289.365 88.7949ZM308.561 148.965V96.0137L314.672 93.7988V92.9785H296.543V93.7988L302.654 96.0137V100.033L276.158 140.188V96.0137L282.27 93.7988V92.9785H264.141V93.7988L270.17 96.0137V149.006L264.141 151.18V152H282.27V151.18L276.158 148.965V142.771L302.654 102.617V149.006L296.625 151.18V152H314.754V151.18L308.561 148.965ZM317.461 164.838H317.789L322.957 152H362.332L367.5 164.838H367.787V150.482H361.02V96.0137L367.049 93.7988V92.9785H325.5V93.7988L332.391 96.0137C332.432 115.496 332.432 142.361 321.07 150.482H317.461V164.838ZM323.654 150.482C334.482 140.803 333.949 113.445 334.031 94.4961H355.072V150.482H323.654ZM431.607 148.965L412.863 118.654L427.26 99.459L435.75 99.3359H436.201L436.242 92.9785H435.463C430.172 92.9785 428.203 95.4395 424.635 100.115L409.295 120.131H407.326V96.0137L413.807 93.7988V92.9785H394.898V93.7988L401.338 96.0137V120.131H399.451L384.111 100.115C380.543 95.4395 378.574 92.9785 373.283 92.9785H372.504L372.545 99.3359H372.996L381.486 99.459L395.883 118.654L377.139 148.965L370.986 150.77V152H382.307L400.846 121.771H401.338V149.006L394.898 151.18V152H413.807V151.18L407.326 148.965V121.771H407.9L426.439 152H437.76V150.77L431.607 148.965ZM483.287 148.965L466.143 92.9785H457.816V93.7988L461.057 97.9004L445.963 148.965L439.564 151.18V152H455.027V151.18L447.439 148.965L452.361 132.189H471.967L476.93 148.965L471.188 151.18V152H489.398V151.18L483.287 148.965ZM452.812 130.631L462.123 99.0078L471.516 130.631H452.812ZM491.941 152H510.07V151.18L503.959 148.965V122.551H530.373V149.006L524.344 151.18V152H542.473V151.18L536.361 148.965V96.0137L542.473 93.7988V92.9785H524.344V93.7988L530.373 96.0137V120.992H503.959V96.0137L510.07 93.7988V92.9785H491.941V93.7988L497.971 96.0137V149.006L491.941 151.18V152ZM597.434 164.838H597.721V150.482H590.871V96.0137L597.064 93.7988V92.9785H578.895V93.7988L584.965 96.0137V150.482H558.428V96.0137L564.58 93.7988V92.9785H546.41V93.7988L552.439 96.0137V149.006L546.41 151.18V152H592.225L597.434 164.838ZM601.289 152H637.588L639.434 137.604L639.105 137.521L632.215 150.441H613.348V122.51H624.176L627.703 130.18H628.277V113.199H627.703L624.176 120.951H613.348V94.5371H629.877L634.922 107.375H635.209V92.9785H601.33V93.7988L607.359 96.0137V149.006L601.289 151.18V152ZM642.223 152H661.377C673.682 152 680.982 147.037 680.982 136.127C680.982 128.58 676.799 122.387 668.76 121.238V121.074C675.322 119.229 679.055 113.732 679.055 106.842C679.055 99.5 674.297 92.9785 662.977 92.9785H642.223V93.7988L648.293 96.0137V148.965L642.223 151.18V152ZM654.281 120.664V94.5371H661.418C668.801 94.5371 672.451 99.2949 672.451 107.375C672.451 114.635 669.375 120.664 662.238 120.664H654.281ZM654.281 150.441V122.223H662.525C670.646 122.223 674.297 127.596 674.297 136.127C674.297 144.74 670.441 150.441 662.156 150.441H654.281ZM748.248 148.965V96.0137L754.359 93.7988V92.9785H736.23V93.7988L742.342 96.0137V100.033L715.846 140.188V96.0137L721.957 93.7988V92.9785H703.828V93.7988L709.857 96.0137V149.006L703.828 151.18V152H721.957V151.18L715.846 148.965V142.771L742.342 102.617V149.006L736.312 151.18V152H754.441V151.18L748.248 148.965ZM818.303 148.965L801.158 92.9785H792.832V93.7988L796.072 97.9004L780.979 148.965L774.58 151.18V152H790.043V151.18L782.455 148.965L787.377 132.189H806.982L811.945 148.965L806.203 151.18V152H824.414V151.18L818.303 148.965ZM787.828 130.631L797.139 99.0078L806.531 130.631H787.828ZM826.957 152H845.66V151.18L838.934 148.965V94.5371H845.332C852.51 94.5371 857.186 99.0488 857.186 109.836C857.186 119.803 853.043 126.037 845.66 126.037H842.092V127.596H845.742C856.898 127.596 863.83 121.484 863.83 109.836C863.83 100.279 858.498 92.9785 847.424 92.9785H826.957V93.7988L832.945 96.0137V149.006L826.957 151.18V152ZM866.906 152H882.615V151.18L875.479 148.514V99.459L895.166 146.053H897.053L916.822 99.9102V148.965L910.588 151.18V152H929.045V151.18L922.811 148.965V96.0137L929.045 93.7988V92.9785H918.135L898.283 139.367L878.965 92.9785H866.947V93.7988L874.002 96.0137V148.514L866.906 151.18V152ZM976.5 152V151.18L970.471 149.006V96.0137L976.5 93.7988V92.9785H955.131C944.754 92.9785 939.135 98.8027 939.135 107.58C939.135 117.383 945.123 122.387 952.26 123.781V123.986C950.701 124.396 949.102 124.725 948.24 124.684L937.084 148.678L932.531 151.18L932.49 152H942.416L954.639 124.109C955.91 124.314 957.223 124.396 958.412 124.396H961.898V122.838H958.207C949.512 122.838 945.82 117.465 945.82 107.826C945.82 99.9512 949.061 94.5371 957.059 94.5371H964.482V148.965L958.617 151.18V152H976.5ZM980.438 152H998.566V151.18L992.455 148.965V122.551H1018.87V149.006L1012.84 151.18V152H1030.97V151.18L1024.86 148.965V96.0137L1030.97 93.7988V92.9785H1012.84V93.7988L1018.87 96.0137V120.992H992.455V96.0137L998.566 93.7988V92.9785H980.438V93.7988L986.467 96.0137V149.006L980.438 151.18V152ZM1.96875 244H21.123C33.4277 244 40.7285 239.037 40.7285 228.127C40.7285 220.58 36.5449 214.387 28.5059 213.238V213.074C35.0684 211.229 38.8008 205.732 38.8008 198.842C38.8008 191.5 34.043 184.979 22.7227 184.979H1.96875V185.799L8.03906 188.014V240.965L1.96875 243.18V244ZM14.0273 212.664V186.537H21.1641C28.5469 186.537 32.1973 191.295 32.1973 199.375C32.1973 206.635 29.1211 212.664 21.9844 212.664H14.0273ZM14.0273 242.441V214.223H22.2715C30.3926 214.223 34.043 219.596 34.043 228.127C34.043 236.74 30.1875 242.441 21.9023 242.441H14.0273ZM102.334 240.965L83.5898 210.654L97.9863 191.459L106.477 191.336H106.928L106.969 184.979H106.189C100.898 184.979 98.9297 187.439 95.3613 192.115L80.0215 212.131H76.002V188.014L82.4824 185.799V184.979H63.5742V185.799L70.0137 188.014V241.006L63.5742 243.18V244H82.4824V243.18L76.002 240.965V213.771H78.627L97.166 244H108.486V242.77L102.334 240.965ZM154.014 240.965L136.869 184.979H128.543V185.799L131.783 189.9L116.689 240.965L110.291 243.18V244H125.754V243.18L118.166 240.965L123.088 224.189H142.693L147.656 240.965L141.914 243.18V244H160.125V243.18L154.014 240.965ZM123.539 222.631L132.85 191.008L142.242 222.631H123.539ZM162.668 244H181.371V243.18L174.645 240.965V186.537H181.043C188.221 186.537 192.896 191.049 192.896 201.836C192.896 211.803 188.754 218.037 181.371 218.037H177.803V219.596H181.453C192.609 219.596 199.541 213.484 199.541 201.836C199.541 192.279 194.209 184.979 183.135 184.979H162.668V185.799L168.656 188.014V241.006L162.668 243.18V244ZM236.373 240.965L219.229 184.979H210.902V185.799L214.143 189.9L199.049 240.965L192.65 243.18V244H208.113V243.18L200.525 240.965L205.447 224.189H225.053L230.016 240.965L224.273 243.18V244H242.484V243.18L236.373 240.965ZM205.898 222.631L215.209 191.008L224.602 222.631H205.898ZM245.15 244H264.182C276.486 244 283.787 239.037 283.787 228.127C283.787 217.012 275.461 212.664 265.33 212.664H257.086V186.496H273.451L278.537 199.375H278.783V184.979H245.027V185.799L251.098 188.014V241.047L245.15 243.18V244ZM257.086 242.482V214.223H265.33C273.451 214.223 277.143 219.596 277.143 228.127C277.143 236.74 273.246 242.482 264.961 242.482H257.086ZM330.627 240.965L313.482 184.979H305.156V185.799L308.396 189.9L293.303 240.965L286.904 243.18V244H302.367V243.18L294.779 240.965L299.701 224.189H319.307L324.27 240.965L318.527 243.18V244H336.738V243.18L330.627 240.965ZM300.152 222.631L309.463 191.008L318.855 222.631H300.152ZM380.707 240.965L364.916 211.434L378.902 188.014L385.301 185.84V184.979H370.781V185.84L377.18 188.014L364.178 210.039L352.693 188.014L358.764 185.84V184.979H340.266V185.84L345.598 188.014L360.035 214.961L345.229 240.965L338.871 243.139V244H353.268V243.139L346.91 240.965L360.855 216.396L373.693 240.965L367.664 243.139V244H386.08V243.139L380.707 240.965ZM388.5 244H424.799L426.645 229.604L426.316 229.521L419.426 242.441H400.559V214.51H411.387L414.914 222.18H415.488V205.199H414.914L411.387 212.951H400.559V186.537H417.088L422.133 199.375H422.42V184.979H388.541V185.799L394.57 188.014V241.006L388.5 243.18V244ZM447.398 244H466.553C478.857 244 486.158 239.037 486.158 228.127C486.158 220.58 481.975 214.387 473.936 213.238V213.074C480.498 211.229 484.23 205.732 484.23 198.842C484.23 191.5 479.473 184.979 468.152 184.979H447.398V185.799L453.469 188.014V240.965L447.398 243.18V244ZM459.457 212.664V186.537H466.594C473.977 186.537 477.627 191.295 477.627 199.375C477.627 206.635 474.551 212.664 467.414 212.664H459.457ZM459.457 242.441V214.223H467.701C475.822 214.223 479.473 219.596 479.473 228.127C479.473 236.74 475.617 242.441 467.332 242.441H459.457ZM549.281 240.965L533.49 211.434L547.477 188.014L553.875 185.84V184.979H539.355V185.84L545.754 188.014L532.752 210.039L521.268 188.014L527.338 185.84V184.979H508.84V185.84L514.172 188.014L528.609 214.961L513.803 240.965L507.445 243.139V244H521.842V243.139L515.484 240.965L529.43 216.396L542.268 240.965L536.238 243.139V244H554.654V243.139L549.281 240.965ZM557.074 244H575.121V243.18L569.092 240.965V188.014L575.121 185.799V184.979H557.074V185.799L563.104 188.014V241.006L557.074 243.18V244ZM619.336 240.965L603.545 211.434L617.531 188.014L623.93 185.84V184.979H609.41V185.84L615.809 188.014L602.807 210.039L591.322 188.014L597.393 185.84V184.979H578.895V185.84L584.227 188.014L598.664 214.961L583.857 240.965L577.5 243.139V244H591.896V243.139L585.539 240.965L599.484 216.396L612.322 240.965L606.293 243.139V244H624.709V243.139L619.336 240.965ZM629.18 222.836H642.551V221.4H629.18V222.836ZM688.816 240.965L673.025 211.434L687.012 188.014L693.41 185.84V184.979H678.891V185.84L685.289 188.014L672.287 210.039L660.803 188.014L666.873 185.84V184.979H648.375V185.84L653.707 188.014L668.145 214.961L653.338 240.965L646.98 243.139V244H661.377V243.139L655.02 240.965L668.965 216.396L681.803 240.965L675.773 243.139V244H694.189V243.139L688.816 240.965ZM736.887 240.965L721.096 211.434L735.082 188.014L741.48 185.84V184.979H726.961V185.84L733.359 188.014L720.357 210.039L708.873 188.014L714.943 185.84V184.979H696.445V185.84L701.777 188.014L716.215 214.961L701.408 240.965L695.051 243.139V244H709.447V243.139L703.09 240.965L717.035 216.396L729.873 240.965L723.844 243.139V244H742.26V243.139L736.887 240.965ZM761.086 244H780.24C792.545 244 799.846 239.037 799.846 228.127C799.846 220.58 795.662 214.387 787.623 213.238V213.074C794.186 211.229 797.918 205.732 797.918 198.842C797.918 191.5 793.16 184.979 781.84 184.979H761.086V185.799L767.156 188.014V240.965L761.086 243.18V244ZM773.145 212.664V186.537H780.281C787.664 186.537 791.314 191.295 791.314 199.375C791.314 206.635 788.238 212.664 781.102 212.664H773.145ZM773.145 242.441V214.223H781.389C789.51 214.223 793.16 219.596 793.16 228.127C793.16 236.74 789.305 242.441 781.02 242.441H773.145ZM804.727 244H841.025L842.871 229.604L842.543 229.521L835.652 242.441H816.785V214.51H827.613L831.141 222.18H831.715V205.199H831.141L827.613 212.951H816.785V186.537H833.314L838.359 199.375H838.646V184.979H804.768V185.799L810.797 188.014V241.006L804.727 243.18V244ZM884.42 240.965L865.676 210.654L880.072 191.459L888.562 191.336H889.014L889.055 184.979H888.275C882.984 184.979 881.016 187.439 877.447 192.115L862.107 212.131H858.088V188.014L864.568 185.799V184.979H845.66V185.799L852.1 188.014V241.006L845.66 243.18V244H864.568V243.18L858.088 240.965V213.771H860.713L879.252 244H890.572V242.77L884.42 240.965ZM936.1 240.965L918.955 184.979H910.629V185.799L913.869 189.9L898.775 240.965L892.377 243.18V244H907.84V243.18L900.252 240.965L905.174 224.189H924.779L929.742 240.965L924 243.18V244H942.211V243.18L936.1 240.965ZM905.625 222.631L914.936 191.008L924.328 222.631H905.625ZM986.18 240.965L970.389 211.434L984.375 188.014L990.773 185.84V184.979H976.254V185.84L982.652 188.014L969.65 210.039L958.166 188.014L964.236 185.84V184.979H945.738V185.84L951.07 188.014L965.508 214.961L950.701 240.965L944.344 243.139V244H958.74V243.139L952.383 240.965L966.328 216.396L979.166 240.965L973.137 243.139V244H991.553V243.139L986.18 240.965Z" fill="white"></path> </svg> 