<?xml version="1.0" encoding="UTF-8"?> <svg xmlns="http://www.w3.org/2000/svg" width="710" height="165" viewBox="0 0 710 165" fill="none"> <path d="M0.96875 60H19.959V59.1797L12.9453 56.9648V2.49609H28.5723L33.6172 15.375H33.9043V0.978516H0.96875V1.79883L6.95703 4.01367V57.0059L0.96875 59.1797V60ZM58.8828 60.9844C72.541 60.9844 81.6465 48.8027 81.6465 30.5918C81.6465 12.2988 72.541 0.0351562 58.8828 0.0351562C45.2656 0.0351562 36.1602 12.2578 36.1602 30.5918C36.1602 48.8438 45.2656 60.9844 58.8828 60.9844ZM58.8828 59.4668C49.2441 59.4668 42.8457 47.9004 42.8457 30.5918C42.8457 13.2012 49.2441 1.59375 58.8828 1.59375C68.6035 1.59375 75.002 13.2422 75.002 30.5918C75.002 47.8594 68.6035 59.4668 58.8828 59.4668ZM85.4609 60H104.164V59.1797L97.4375 56.9648V2.53711H103.836C111.014 2.53711 115.689 7.04883 115.689 17.8359C115.689 27.8027 111.547 34.0371 104.164 34.0371H100.596V35.5957H104.246C115.402 35.5957 122.334 29.4844 122.334 17.8359C122.334 8.2793 117.002 0.978516 105.928 0.978516H85.4609V1.79883L91.4492 4.01367V57.0059L85.4609 59.1797V60ZM149.199 60.9844C162.857 60.9844 171.963 48.8027 171.963 30.5918C171.963 12.2988 162.857 0.0351562 149.199 0.0351562C135.582 0.0351562 126.477 12.2578 126.477 30.5918C126.477 48.8438 135.582 60.9844 149.199 60.9844ZM149.199 59.4668C139.561 59.4668 133.162 47.9004 133.162 30.5918C133.162 13.2012 139.561 1.59375 149.199 1.59375C158.92 1.59375 165.318 13.2422 165.318 30.5918C165.318 47.8594 158.92 59.4668 149.199 59.4668ZM172.578 72.8379H172.906L178.074 60H217.449L222.617 72.8379H222.904V58.4824H216.137V4.01367L222.166 1.79883V0.978516H180.617V1.79883L187.508 4.01367C187.549 23.4961 187.549 50.3613 176.188 58.4824H172.578V72.8379ZM178.771 58.4824C189.6 48.8027 189.066 21.4453 189.148 2.49609H210.189V58.4824H178.771ZM268.432 56.9648L251.287 0.978516H242.961V1.79883L246.201 5.90039L231.107 56.9648L224.709 59.1797V60H240.172V59.1797L232.584 56.9648L237.506 40.1895H257.111L262.074 56.9648L256.332 59.1797V60H274.543V59.1797L268.432 56.9648ZM237.957 38.6309L247.268 7.00781L256.66 38.6309H237.957ZM279.137 38.8359H292.508V37.4004H279.137V38.8359ZM298.496 60H314.205V59.1797L307.068 56.5137V7.45898L326.756 54.0527H328.643L348.412 7.91016V56.9648L342.178 59.1797V60H360.635V59.1797L354.4 56.9648V4.01367L360.635 1.79883V0.978516H349.725L329.873 47.3672L310.555 0.978516H298.537V1.79883L305.592 4.01367V56.5137L298.496 59.1797V60ZM371.135 60.9844C376.631 60.5332 380.65 58.3594 386.68 43.9219L405.383 4.01367L411.986 1.83984V0.978516H396.893V1.83984L403.496 4.01367L389.715 33.5039L375.646 4.01367L381.389 1.83984V0.978516H362.686V1.83984L369.043 4.01367L386.557 39.9844L382.496 49.2129C378.723 50.3203 374.744 50.6895 370.93 50.1562L370.273 50.5254L371.135 60.9844ZM438.975 60H456.816V59.1797L450.869 56.9648V4.01367L456.816 1.79883V0.978516H438.975V1.79883L444.881 4.01367V30.6328C442.297 33.9961 438.441 34.6934 434.996 34.6934C429.295 34.6934 424.414 31.4531 424.414 22.1426V4.01367L430.32 1.79883V0.978516H412.52V1.79883L418.467 4.01367V22.8398C418.467 33.668 425.357 37.9746 431.879 37.9746C436.555 37.9746 441.518 36.498 444.881 32.3555V57.0059L438.975 59.1797V60ZM460.754 60H497.053L498.898 45.6035L498.57 45.5215L491.68 58.4414H472.812V30.5098H483.641L487.168 38.1797H487.742V21.1992H487.168L483.641 28.9512H472.812V2.53711H489.342L494.387 15.375H494.674V0.978516H460.795V1.79883L466.824 4.01367V57.0059L460.754 59.1797V60ZM501.688 60H519.816V59.1797L513.705 56.9648V30.5508H540.119V57.0059L534.09 59.1797V60H552.219V59.1797L546.107 56.9648V4.01367L552.219 1.79883V0.978516H534.09V1.79883L540.119 4.01367V28.9922H513.705V4.01367L519.816 1.79883V0.978516H501.688V1.79883L507.717 4.01367V57.0059L501.688 59.1797V60ZM600.576 56.9648V4.01367L606.688 1.79883V0.978516H588.559V1.79883L594.67 4.01367V8.0332L568.174 48.1875V4.01367L574.285 1.79883V0.978516H556.156V1.79883L562.186 4.01367V57.0059L556.156 59.1797V60H574.285V59.1797L568.174 56.9648V50.7715L594.67 10.6172V57.0059L588.641 59.1797V60H606.77V59.1797L600.576 56.9648ZM649.467 56.9648L630.723 26.6543L645.119 7.45898L653.609 7.33594H654.061L654.102 0.978516H653.322C648.031 0.978516 646.062 3.43945 642.494 8.11523L627.154 28.1309H623.135V4.01367L629.615 1.79883V0.978516H610.707V1.79883L617.146 4.01367V57.0059L610.707 59.1797V60H629.615V59.1797L623.135 56.9648V29.7715H625.76L644.299 60H655.619V58.7695L649.467 56.9648ZM703.607 56.9648V4.01367L709.719 1.79883V0.978516H691.59V1.79883L697.701 4.01367V8.0332L671.205 48.1875V4.01367L677.316 1.79883V0.978516H659.188V1.79883L665.217 4.01367V57.0059L659.188 59.1797V60H677.316V59.1797L671.205 56.9648V50.7715L697.701 10.6172V57.0059L691.672 59.1797V60H709.801V59.1797L703.607 56.9648ZM10.5664 152H29.4746V151.18L23.0352 148.965V94.5371H33.4121L37.8828 105.898H38.2109V92.9785H1.83008V105.898H2.19922L6.58789 94.5371H17.0469V148.965L10.5664 151.18V152ZM43.0508 152H61.7539V151.18L55.0273 148.965V94.5371H61.4258C68.6035 94.5371 73.2793 99.0488 73.2793 109.836C73.2793 119.803 69.1367 126.037 61.7539 126.037H58.1855V127.596H61.8359C72.9922 127.596 79.9238 121.484 79.9238 109.836C79.9238 100.279 74.5918 92.9785 63.5176 92.9785H43.0508V93.7988L49.0391 96.0137V149.006L43.0508 151.18V152ZM116.756 148.965L99.6113 92.9785H91.2852V93.7988L94.5254 97.9004L79.4316 148.965L73.0332 151.18V152H88.4961V151.18L80.9082 148.965L85.8301 132.189H105.436L110.398 148.965L104.656 151.18V152H122.867V151.18L116.756 148.965ZM86.2812 130.631L95.5918 99.0078L104.984 130.631H86.2812ZM125.41 152H144.4V151.18L137.387 148.965V94.4961H153.014L158.059 107.375H158.346V92.9785H125.41V93.7988L131.398 96.0137V149.006L125.41 151.18V152ZM163.145 152H199.443L201.289 137.604L200.961 137.521L194.07 150.441H175.203V122.51H186.031L189.559 130.18H190.133V113.199H189.559L186.031 120.951H175.203V94.5371H191.732L196.777 107.375H197.064V92.9785H163.186V93.7988L169.215 96.0137V149.006L163.145 151.18V152ZM202.848 164.838H203.176L208.344 152H247.719L252.887 164.838H253.174V150.482H246.406V96.0137L252.436 93.7988V92.9785H210.887V93.7988L217.777 96.0137C217.818 115.496 217.818 142.361 206.457 150.482H202.848V164.838ZM209.041 150.482C219.869 140.803 219.336 113.445 219.418 94.4961H240.459V150.482H209.041ZM301.162 148.965V96.0137L307.273 93.7988V92.9785H289.145V93.7988L295.256 96.0137V100.033L268.76 140.188V96.0137L274.871 93.7988V92.9785H256.742V93.7988L262.771 96.0137V149.006L256.742 151.18V152H274.871V151.18L268.76 148.965V142.771L295.256 102.617V149.006L289.227 151.18V152H307.355V151.18L301.162 148.965ZM354.77 152V151.18L348.74 149.006V96.0137L354.77 93.7988V92.9785H333.4C323.023 92.9785 317.404 98.8027 317.404 107.58C317.404 117.383 323.393 122.387 330.529 123.781V123.986C328.971 124.396 327.371 124.725 326.51 124.684L315.354 148.678L310.801 151.18L310.76 152H320.686L332.908 124.109C334.18 124.314 335.492 124.396 336.682 124.396H340.168V122.838H336.477C327.781 122.838 324.09 117.465 324.09 107.826C324.09 99.9512 327.33 94.5371 335.328 94.5371H342.752V148.965L336.887 151.18V152H354.77ZM416.949 148.965L401.158 119.434L415.145 96.0137L421.543 93.8398V92.9785H407.023V93.8398L413.422 96.0137L400.42 118.039L388.936 96.0137L395.006 93.8398V92.9785H376.508V93.8398L381.84 96.0137L396.277 122.961L381.471 148.965L375.113 151.139V152H389.51V151.139L383.152 148.965L397.098 124.396L409.936 148.965L403.906 151.139V152H422.322V151.139L416.949 148.965ZM465.02 148.965L449.229 119.434L463.215 96.0137L469.613 93.8398V92.9785H455.094V93.8398L461.492 96.0137L448.49 118.039L437.006 96.0137L443.076 93.8398V92.9785H424.578V93.8398L429.91 96.0137L444.348 122.961L429.541 148.965L423.184 151.139V152H437.58V151.139L431.223 148.965L445.168 124.396L458.006 148.965L451.977 151.139V152H470.393V151.139L465.02 148.965ZM489.219 152H508.373C520.678 152 527.979 147.037 527.979 136.127C527.979 128.58 523.795 122.387 515.756 121.238V121.074C522.318 119.229 526.051 113.732 526.051 106.842C526.051 99.5 521.293 92.9785 509.973 92.9785H489.219V93.7988L495.289 96.0137V148.965L489.219 151.18V152ZM501.277 120.664V94.5371H508.414C515.797 94.5371 519.447 99.2949 519.447 107.375C519.447 114.635 516.371 120.664 509.234 120.664H501.277ZM501.277 150.441V122.223H509.521C517.643 122.223 521.293 127.596 521.293 136.127C521.293 144.74 517.438 150.441 509.152 150.441H501.277ZM532.859 152H569.158L571.004 137.604L570.676 137.521L563.785 150.441H544.918V122.51H555.746L559.273 130.18H559.848V113.199H559.273L555.746 120.951H544.918V94.5371H561.447L566.492 107.375H566.779V92.9785H532.9V93.7988L538.93 96.0137V149.006L532.859 151.18V152ZM612.553 148.965L593.809 118.654L608.205 99.459L616.695 99.3359H617.146L617.188 92.9785H616.408C611.117 92.9785 609.148 95.4395 605.58 100.115L590.24 120.131H586.221V96.0137L592.701 93.7988V92.9785H573.793V93.7988L580.232 96.0137V149.006L573.793 151.18V152H592.701V151.18L586.221 148.965V121.771H588.846L607.385 152H618.705V150.77L612.553 148.965ZM664.232 148.965L647.088 92.9785H638.762V93.7988L642.002 97.9004L626.908 148.965L620.51 151.18V152H635.973V151.18L628.385 148.965L633.307 132.189H652.912L657.875 148.965L652.133 151.18V152H670.344V151.18L664.232 148.965ZM633.758 130.631L643.068 99.0078L652.461 130.631H633.758Z" fill="white"></path> </svg> 