<?xml version="1.0" encoding="UTF-8"?> <svg xmlns="http://www.w3.org/2000/svg" width="1904" height="469" viewBox="0 0 1904 469" fill="none"> <g filter="url(#filter0_b)"> <path d="M0.8125 101H26.7109V99.8281L17.9805 96.6641V58.9297H55.7148V96.7227L47.1016 99.8281V101H73V99.8281L64.2695 96.6641V21.0195L73 17.8555V16.6836H47.1016V17.8555L55.7148 21.0195V56.7031H17.9805V21.0195L26.7109 17.8555V16.6836H0.8125V17.8555L9.42578 21.0195V96.7227L0.8125 99.8281V101ZM78.625 101H130.48L133.117 80.4336L132.648 80.3164L122.805 98.7734H95.8516V58.8711H111.32L116.359 69.8281H117.18V45.5703H116.359L111.32 56.6445H95.8516V18.9102H119.465L126.672 37.25H127.082V16.6836H78.6836V17.8555L87.2969 21.0195V96.7227L78.625 99.8281V101ZM154.738 101H181.633V99.8281L172.434 96.6641V62.0938L193.41 21.0195L202.609 17.9141V16.6836H179.934V17.9141L190.949 21.1953L171.496 59.5742L152.922 21.0195L161.945 17.9141V16.6836H134.582V17.9141L143.371 21.0195L163.879 63.5586V96.7227L154.738 99.8281V101ZM204.953 101H235.891C257.336 101 270.461 85.1797 270.461 58.7539C270.461 32.4453 257.277 16.6836 236.652 16.6836H204.953V17.8555L213.566 20.9023V96.7227L204.953 99.8281V101ZM222.121 98.7734V18.9102H235.48C252.238 18.9102 260.852 32.7383 260.852 59.5156C260.852 84.4766 252.824 98.7734 234.66 98.7734H222.121ZM306.32 102.406C323.547 102.406 337.551 83.9492 337.551 59.1055C337.551 32.0352 322.375 15.3359 305.559 15.3359C295.539 15.3359 286.047 21.957 280.656 31.625L281.535 32.7383C286.867 25.1797 292.375 19.3789 304.562 19.3789C319.68 19.3789 328 36.3125 328 60.5117C328 62.5625 328 63.8516 327.824 66.1367H279.133C279.133 86.0586 289.504 102.406 306.32 102.406ZM306.672 100.004C295.422 100.004 288.391 88.2852 288.391 69.7109L327.766 67.7188C326.652 86.2344 318.449 100.004 306.672 100.004ZM343 101H368.547V99.8281L360.168 96.6641V18.9102H370.773C382.199 18.9102 386.828 26.6445 386.828 37.8945C386.828 51.6641 381.555 59.3398 369.133 59.3398H363.859V61.5664H368.84C370.539 61.5664 372.414 61.4492 374.23 61.1562L391.691 101H405.871L405.812 99.8281L399.309 96.2539L383.371 61.9766C382.141 62.0352 379.855 61.5664 377.629 60.9805V60.6875C387.824 58.6953 396.379 51.5469 396.379 37.543C396.379 25.0039 388.352 16.6836 373.527 16.6836H343V17.8555L351.613 21.0195V96.7227L343 99.8281V101ZM465.109 102.406C482.336 102.406 496.34 83.9492 496.34 59.1055C496.34 32.0352 481.164 15.3359 464.348 15.3359C454.328 15.3359 444.836 21.957 439.445 31.625L440.324 32.7383C445.656 25.1797 451.164 19.3789 463.352 19.3789C478.469 19.3789 486.789 36.3125 486.789 60.5117C486.789 62.5625 486.789 63.8516 486.613 66.1367H437.922C437.922 86.0586 448.293 102.406 465.109 102.406ZM465.461 100.004C454.211 100.004 447.18 88.2852 447.18 69.7109L486.555 67.7188C485.441 86.2344 477.238 100.004 465.461 100.004ZM501.789 101H549.602L552.121 80.4336L551.652 80.3164L541.926 98.7734H518.898V21.0195L528.566 17.8555V16.6836H501.789V17.8555L510.344 21.0195V96.7227L501.789 99.8281V101ZM569.055 10.3555C572.043 10.3555 574.27 8.30469 574.27 5.25781C574.27 2.26953 572.043 0.101562 569.055 0.101562C566.008 0.101562 563.781 2.26953 563.781 5.25781C563.781 8.30469 566.008 10.3555 569.055 10.3555ZM556.164 101H581.945V99.8281L573.332 96.6641V21.0195L581.945 17.8555V16.6836H556.164V17.8555L564.777 21.0195V96.7227L556.164 99.8281V101ZM605.207 101H632.102V99.8281L622.902 96.6641V62.0938L643.879 21.0195L653.078 17.9141V16.6836H630.402V17.9141L641.418 21.1953L621.965 59.5742L603.391 21.0195L612.414 17.9141V16.6836H585.051V17.9141L593.84 21.0195L614.348 63.5586V96.7227L605.207 99.8281V101ZM655.422 101H707.277L709.914 80.4336L709.445 80.3164L699.602 98.7734H672.648V58.8711H688.117L693.156 69.8281H693.977V45.5703H693.156L688.117 56.6445H672.648V18.9102H696.262L703.469 37.25H703.879V16.6836H655.48V17.8555L664.094 21.0195V96.7227L655.422 99.8281V101ZM743.43 101H748.41L772.141 21.0195L781.223 17.8555V16.6836H759.367V17.8555L769.973 21.0195L748.879 91.4492L729.309 21.0195L738.801 17.8555V16.6836H711.203V17.8555L719.875 21.0195L743.43 101ZM797.102 10.3555C800.09 10.3555 802.316 8.30469 802.316 5.25781C802.316 2.26953 800.09 0.101562 797.102 0.101562C794.055 0.101562 791.828 2.26953 791.828 5.25781C791.828 8.30469 794.055 10.3555 797.102 10.3555ZM784.211 101H809.992V99.8281L801.379 96.6641V21.0195L809.992 17.8555V16.6836H784.211V17.8555L792.824 21.0195V96.7227L784.211 99.8281V101ZM873.625 101.996L875.969 101V21.6641L885.93 17.7969V16.6836H863.957V17.7969L873.918 21.6641V87.2891L830.676 16.6836H815.617V17.8555L825.461 21.0195V96.0195L815.617 99.8281V101H837.355V99.8281L827.453 96.0195V27.6406L873.625 101.996ZM975.52 96.6641L951.027 16.6836H939.133V17.8555L943.762 23.7148L922.199 96.6641L913.059 99.8281V101H935.148V99.8281L924.309 96.6641L931.34 72.6992H959.348L966.438 96.6641L958.234 99.8281V101H984.25V99.8281L975.52 96.6641ZM931.984 70.4727L945.285 25.2969L958.703 70.4727H931.984ZM989.582 101H1041.14L1042.96 81.3711L1042.49 81.2539L1033.53 98.832H999.66L1040.68 18.1484L1040.56 16.6836H993.039L991.223 36.3125H991.75L1000.6 18.9102H1030.25L989.406 99.5938L989.582 101ZM1077.06 102.406C1094.29 102.406 1108.29 83.9492 1108.29 59.1055C1108.29 32.0352 1093.12 15.3359 1076.3 15.3359C1066.28 15.3359 1056.79 21.957 1051.4 31.625L1052.28 32.7383C1057.61 25.1797 1063.12 19.3789 1075.3 19.3789C1090.42 19.3789 1098.74 36.3125 1098.74 60.5117C1098.74 62.5625 1098.74 63.8516 1098.57 66.1367H1049.88C1049.88 86.0586 1060.25 102.406 1077.06 102.406ZM1077.41 100.004C1066.16 100.004 1059.13 88.2852 1059.13 69.7109L1098.51 67.7188C1097.39 86.2344 1089.19 100.004 1077.41 100.004ZM1113.74 101H1139.29V99.8281L1130.91 96.6641V18.9102H1141.52C1152.94 18.9102 1157.57 26.6445 1157.57 37.8945C1157.57 51.6641 1152.3 59.3398 1139.88 59.3398H1134.6V61.5664H1139.58C1141.28 61.5664 1143.16 61.4492 1144.97 61.1562L1162.43 101H1176.61L1176.55 99.8281L1170.05 96.2539L1154.11 61.9766C1152.88 62.0352 1150.6 61.5664 1148.37 60.9805V60.6875C1158.57 58.6953 1167.12 51.5469 1167.12 37.543C1167.12 25.0039 1159.09 16.6836 1144.27 16.6836H1113.74V17.8555L1122.36 21.0195V96.7227L1113.74 99.8281V101ZM1181.48 101H1208.84C1226.42 101 1236.85 93.9102 1236.85 78.3242C1236.85 67.543 1230.87 58.6953 1219.39 57.0547V56.8203C1228.76 54.1836 1234.09 46.332 1234.09 36.4883C1234.09 26 1227.3 16.6836 1211.12 16.6836H1181.48V17.8555L1190.15 21.0195V96.6641L1181.48 99.8281V101ZM1198.7 56.2344V18.9102H1208.9C1219.45 18.9102 1224.66 25.707 1224.66 37.25C1224.66 47.6211 1220.27 56.2344 1210.07 56.2344H1198.7ZM1198.7 98.7734V58.4609H1210.48C1222.08 58.4609 1227.3 66.1367 1227.3 78.3242C1227.3 90.6289 1221.79 98.7734 1209.95 98.7734H1198.7ZM1303.76 96.6641L1279.27 16.6836H1267.38V17.8555L1272 23.7148L1250.44 96.6641L1241.3 99.8281V101H1263.39V99.8281L1252.55 96.6641L1259.58 72.6992H1287.59L1294.68 96.6641L1286.48 99.8281V101H1312.49V99.8281L1303.76 96.6641ZM1260.23 70.4727L1273.53 25.2969L1286.95 70.4727H1260.23ZM1320.17 101H1347.06V99.8281L1337.86 96.6641V62.0938L1358.84 21.0195L1368.04 17.9141V16.6836H1345.36V17.9141L1356.38 21.1953L1336.93 59.5742L1318.35 21.0195L1327.38 17.9141V16.6836H1300.01V17.9141L1308.8 21.0195L1329.31 63.5586V96.7227L1320.17 99.8281V101ZM1396.57 102.406C1402.38 102.406 1408.59 101.527 1418.2 95.375L1419.48 74.75H1418.61C1414.56 90.6875 1409.52 100.238 1396.98 100.238C1381.16 100.238 1372.38 83.2461 1372.38 58.9297C1372.38 35.375 1380.58 17.5625 1396.16 17.5625C1410.75 17.5625 1414.8 28.0508 1418.61 42.9922H1419.48L1418.2 22.3672C1408.59 16.1562 1402.38 15.3359 1397.04 15.3359C1375.83 15.3359 1362.77 33.6758 1362.77 58.9297C1362.77 84.0664 1376.24 102.406 1396.57 102.406ZM1487.04 96.6641L1462.55 16.6836H1450.66V17.8555L1455.29 23.7148L1433.72 96.6641L1424.58 99.8281V101H1446.67V99.8281L1435.83 96.6641L1442.86 72.6992H1470.87L1477.96 96.6641L1469.76 99.8281V101H1495.77V99.8281L1487.04 96.6641ZM1443.51 70.4727L1456.81 25.2969L1470.23 70.4727H1443.51ZM1557.41 101.996L1559.76 101V21.6641L1569.72 17.7969V16.6836H1547.75V17.7969L1557.71 21.6641V87.2891L1514.46 16.6836H1499.41V17.8555L1509.25 21.0195V96.0195L1499.41 99.8281V101H1521.14V99.8281L1511.24 96.0195V27.6406L1557.41 101.996ZM1628.61 96.6641L1604.11 16.6836H1592.22V17.8555L1596.85 23.7148L1575.29 96.6641L1566.14 99.8281V101H1588.23V99.8281L1577.39 96.6641L1584.43 72.6992H1612.43L1619.52 96.6641L1611.32 99.8281V101H1637.34V99.8281L1628.61 96.6641ZM1585.07 70.4727L1598.37 25.2969L1611.79 70.4727H1585.07ZM0.8125 274H26.3594V272.828L17.9805 269.664V191.91H28.5859C40.0117 191.91 44.6406 199.645 44.6406 210.895C44.6406 224.664 39.3672 232.34 26.9453 232.34H21.6719V234.566H26.6523C28.3516 234.566 30.2266 234.449 32.043 234.156L49.5039 274H63.6836L63.625 272.828L57.1211 269.254L41.1836 234.977C39.9531 235.035 37.668 234.566 35.4414 233.98V233.688C45.6367 231.695 54.1914 224.547 54.1914 210.543C54.1914 198.004 46.1641 189.684 31.3398 189.684H0.8125V190.855L9.42578 194.02V269.723L0.8125 272.828V274ZM88.8203 275.406C106.047 275.406 120.051 256.949 120.051 232.105C120.051 205.035 104.875 188.336 88.0586 188.336C78.0391 188.336 68.5469 194.957 63.1562 204.625L64.0352 205.738C69.3672 198.18 74.875 192.379 87.0625 192.379C102.18 192.379 110.5 209.312 110.5 233.512C110.5 235.562 110.5 236.852 110.324 239.137H61.6328C61.6328 259.059 72.0039 275.406 88.8203 275.406ZM89.1719 273.004C77.9219 273.004 70.8906 261.285 70.8906 242.711L110.266 240.719C109.152 259.234 100.949 273.004 89.1719 273.004ZM125.5 274H151.398V272.828L142.668 269.664V231.93H180.402V269.723L171.789 272.828V274H197.688V272.828L188.957 269.664V194.02L197.688 190.855V189.684H171.789V190.855L180.402 194.02V229.703H142.668V194.02L151.398 190.855V189.684H125.5V190.855L134.113 194.02V269.723L125.5 272.828V274ZM203.312 274H230.676C248.254 274 258.684 266.91 258.684 251.324C258.684 240.543 252.707 231.695 241.223 230.055V229.82C250.598 227.184 255.93 219.332 255.93 209.488C255.93 199 249.133 189.684 232.961 189.684H203.312V190.855L211.984 194.02V269.664L203.312 272.828V274ZM220.539 229.234V191.91H230.734C241.281 191.91 246.496 198.707 246.496 210.25C246.496 220.621 242.102 229.234 231.906 229.234H220.539ZM220.539 271.773V231.461H232.316C243.918 231.461 249.133 239.137 249.133 251.324C249.133 263.629 243.625 271.773 231.789 271.773H220.539ZM294.367 275.406C311.594 275.406 325.598 256.949 325.598 232.105C325.598 205.035 310.422 188.336 293.605 188.336C283.586 188.336 274.094 194.957 268.703 204.625L269.582 205.738C274.914 198.18 280.422 192.379 292.609 192.379C307.727 192.379 316.047 209.312 316.047 233.512C316.047 235.562 316.047 236.852 315.871 239.137H267.18C267.18 259.059 277.551 275.406 294.367 275.406ZM294.719 273.004C283.469 273.004 276.438 261.285 276.438 242.711L315.812 240.719C314.699 259.234 306.496 273.004 294.719 273.004ZM331.047 274H356.594V272.828L348.215 269.664V191.91H358.82C370.246 191.91 374.875 199.645 374.875 210.895C374.875 224.664 369.602 232.34 357.18 232.34H351.906V234.566H356.887C358.586 234.566 360.461 234.449 362.277 234.156L379.738 274H393.918L393.859 272.828L387.355 269.254L371.418 234.977C370.188 235.035 367.902 234.566 365.676 233.98V233.688C375.871 231.695 384.426 224.547 384.426 210.543C384.426 198.004 376.398 189.684 361.574 189.684H331.047V190.855L339.66 194.02V269.723L331.047 272.828V274ZM398.781 274H446.594L449.113 253.434L448.645 253.316L438.918 271.773H415.891V194.02L425.559 190.855V189.684H398.781V190.855L407.336 194.02V269.723L398.781 272.828V274ZM466.047 183.355C469.035 183.355 471.262 181.305 471.262 178.258C471.262 175.27 469.035 173.102 466.047 173.102C463 173.102 460.773 175.27 460.773 178.258C460.773 181.305 463 183.355 466.047 183.355ZM453.156 274H478.938V272.828L470.324 269.664V194.02L478.938 190.855V189.684H453.156V190.855L461.77 194.02V269.723L453.156 272.828V274ZM502.199 274H529.094V272.828L519.895 269.664V235.094L540.871 194.02L550.07 190.914V189.684H527.395V190.914L538.41 194.195L518.957 232.574L500.383 194.02L509.406 190.914V189.684H482.043V190.914L490.832 194.02L511.34 236.559V269.723L502.199 272.828V274ZM565.305 183.355C568.293 183.355 570.52 181.305 570.52 178.258C570.52 175.27 568.293 173.102 565.305 173.102C562.258 173.102 560.031 175.27 560.031 178.258C560.031 181.305 562.258 183.355 565.305 183.355ZM552.414 274H578.195V272.828L569.582 269.664V194.02L578.195 190.855V189.684H552.414V190.855L561.027 194.02V269.723L552.414 272.828V274ZM609.484 274H640.422C661.867 274 674.992 258.18 674.992 231.754C674.992 205.445 661.809 189.684 641.184 189.684H609.484V190.855L618.098 193.902V269.723L609.484 272.828V274ZM626.652 271.773V191.91H640.012C656.77 191.91 665.383 205.738 665.383 232.516C665.383 257.477 657.355 271.773 639.191 271.773H626.652ZM708.859 182.652C711.906 182.652 713.957 180.426 713.957 177.555C713.957 174.684 711.906 172.574 708.859 172.574C706.047 172.574 703.82 174.625 703.82 177.555C703.82 180.484 706.047 182.652 708.859 182.652ZM723.215 182.652C726.145 182.652 728.254 180.484 728.254 177.555C728.254 174.625 726.086 172.574 723.215 172.574C720.285 172.574 718.117 174.625 718.117 177.555C718.117 180.484 720.285 182.652 723.215 182.652ZM716.125 275.406C735.637 275.406 748.645 258.004 748.645 231.988C748.645 205.855 735.637 188.336 716.125 188.336C696.672 188.336 683.664 205.797 683.664 231.988C683.664 258.062 696.672 275.406 716.125 275.406ZM716.125 273.238C702.355 273.238 693.215 256.715 693.215 231.988C693.215 207.145 702.355 190.562 716.125 190.562C730.012 190.562 739.152 207.203 739.152 231.988C739.152 256.656 730.012 273.238 716.125 273.238ZM777.18 274H782.16L805.891 194.02L814.973 190.855V189.684H793.117V190.855L803.723 194.02L782.629 264.449L763.059 194.02L772.551 190.855V189.684H744.953V190.855L753.625 194.02L777.18 274ZM817.961 274H843.508V272.828L835.129 269.664V191.91H845.734C857.16 191.91 861.789 199.645 861.789 210.895C861.789 224.664 856.516 232.34 844.094 232.34H838.82V234.566H843.801C845.5 234.566 847.375 234.449 849.191 234.156L866.652 274H880.832L880.773 272.828L874.27 269.254L858.332 234.977C857.102 235.035 854.816 234.566 852.59 233.98V233.688C862.785 231.695 871.34 224.547 871.34 210.543C871.34 198.004 863.312 189.684 848.488 189.684H817.961V190.855L826.574 194.02V269.723L817.961 272.828V274ZM912.062 182.652C915.109 182.652 917.16 180.426 917.16 177.555C917.16 174.684 915.109 172.574 912.062 172.574C909.25 172.574 907.023 174.625 907.023 177.555C907.023 180.484 909.25 182.652 912.062 182.652ZM926.418 182.652C929.348 182.652 931.457 180.484 931.457 177.555C931.457 174.625 929.289 172.574 926.418 172.574C923.488 172.574 921.32 174.625 921.32 177.555C921.32 180.484 923.488 182.652 926.418 182.652ZM919.914 275.406C937.199 275.406 944.23 263.395 944.23 245.113V194.664L954.426 190.797V189.684H931.984V190.797L942.238 194.664V246.051C942.238 260.758 936.672 273.238 922.141 273.238C910.246 273.238 902.219 263.512 902.219 246.051V194.02L910.949 190.855V189.684H885.051V190.855L893.664 194.02V246.871C893.664 265.562 904.973 275.406 919.914 275.406ZM986.008 243.766H1005.11V241.715H986.008V243.766ZM1096.87 269.664L1074.31 227.477L1094.29 194.02L1103.43 190.914V189.684H1082.69V190.914L1091.83 194.02L1073.25 225.484L1056.85 194.02L1065.52 190.914V189.684H1039.09V190.914L1046.71 194.02L1067.34 232.516L1046.18 269.664L1037.1 272.77V274H1057.67V272.77L1048.59 269.664L1068.51 234.566L1086.85 269.664L1078.23 272.77V274H1104.54V272.77L1096.87 269.664ZM1165.54 269.664L1142.98 227.477L1162.96 194.02L1172.1 190.914V189.684H1151.36V190.914L1160.5 194.02L1141.93 225.484L1125.52 194.02L1134.19 190.914V189.684H1107.77V190.914L1115.38 194.02L1136.01 232.516L1114.86 269.664L1105.77 272.77V274H1126.34V272.77L1117.26 269.664L1137.18 234.566L1155.52 269.664L1146.91 272.77V274H1173.21V272.77L1165.54 269.664ZM1228.82 275.406C1246.05 275.406 1260.05 256.949 1260.05 232.105C1260.05 205.035 1244.88 188.336 1228.06 188.336C1218.04 188.336 1208.55 194.957 1203.16 204.625L1204.04 205.738C1209.37 198.18 1214.88 192.379 1227.06 192.379C1242.18 192.379 1250.5 209.312 1250.5 233.512C1250.5 235.562 1250.5 236.852 1250.32 239.137H1201.63C1201.63 259.059 1212 275.406 1228.82 275.406ZM1229.17 273.004C1217.92 273.004 1210.89 261.285 1210.89 242.711L1250.27 240.719C1249.15 259.234 1240.95 273.004 1229.17 273.004ZM1288.94 275.406C1301.24 275.406 1312.73 269.137 1312.73 253.199C1312.73 239.781 1302.71 232.691 1293.92 227.066L1290.64 224.957C1282.67 219.859 1277.86 215.875 1277.86 206.617C1277.86 196.773 1282.96 190.562 1290.11 190.562C1300.77 190.562 1305.81 198.59 1310.27 215.406H1310.91L1309.62 195.367C1304.29 191.441 1297.2 188.336 1291.11 188.336C1278.45 188.336 1269.13 195.602 1269.13 208.727C1269.13 221.441 1278.68 227.535 1285.95 232.281L1288.82 234.156C1296.73 239.312 1303.88 244 1303.88 255.602C1303.88 266.793 1298.43 273.18 1289.11 273.18C1279.97 273.18 1273.59 266.324 1269.02 248.395H1268.37L1269.43 268.551C1274.11 271.656 1281.38 275.406 1288.94 275.406ZM1319.52 274H1345.07V272.828L1336.69 269.664V191.91H1347.3C1358.72 191.91 1363.35 199.645 1363.35 210.895C1363.35 224.664 1358.08 232.34 1345.66 232.34H1340.38V234.566H1345.36C1347.06 234.566 1348.94 234.449 1350.75 234.156L1368.21 274H1382.39L1382.34 272.828L1375.83 269.254L1359.89 234.977C1358.66 235.035 1356.38 234.566 1354.15 233.98V233.688C1364.35 231.695 1372.9 224.547 1372.9 210.543C1372.9 198.004 1364.88 189.684 1350.05 189.684H1319.52V190.855L1328.14 194.02V269.723L1319.52 272.828V274ZM1400.15 183.355C1403.14 183.355 1405.36 181.305 1405.36 178.258C1405.36 175.27 1403.14 173.102 1400.15 173.102C1397.1 173.102 1394.88 175.27 1394.88 178.258C1394.88 181.305 1397.1 183.355 1400.15 183.355ZM1387.26 274H1413.04V272.828L1404.43 269.664V194.02L1413.04 190.855V189.684H1387.26V190.855L1395.87 194.02V269.723L1387.26 272.828V274ZM1476.67 274.996L1479.02 274V194.664L1488.98 190.797V189.684H1467V190.797L1476.96 194.664V260.289L1433.72 189.684H1418.66V190.855L1428.51 194.02V269.02L1418.66 272.828V274H1440.4V272.828L1430.5 269.02V200.641L1476.67 274.996ZM1524.72 274H1534.15C1541.3 243.883 1552.08 217.047 1562.63 192.965L1562.16 189.684H1519.68V196.656H1558.06C1543.76 225.777 1531.28 249.508 1524.72 272.828V274ZM1595.09 275.406C1612.49 275.406 1622.86 259.293 1622.86 231.988C1622.86 204.566 1612.49 188.336 1595.09 188.336C1577.69 188.336 1567.38 204.625 1567.38 231.988C1567.38 259.234 1577.69 275.406 1595.09 275.406ZM1595.09 273.238C1583.02 273.238 1576.81 259.059 1576.81 231.988C1576.81 204.801 1583.02 190.562 1595.09 190.562C1607.16 190.562 1613.43 204.801 1613.43 231.988C1613.43 259.059 1607.16 273.238 1595.09 273.238ZM1633 243.766H1652.1V241.715H1633V243.766ZM1690.83 228.062C1701.96 224.547 1706.54 216.168 1706.54 207.848C1706.54 196.129 1698.1 188.336 1686.14 188.336C1673.84 188.336 1665.4 196.949 1665.4 209.371C1665.4 218.688 1669.5 225.367 1680.23 231.578C1668.51 234.801 1662.77 244.176 1662.77 254.371C1662.77 267.145 1672.26 275.406 1686.03 275.406C1699.39 275.406 1709.41 267.379 1709.41 252.965C1709.41 243.414 1705.48 235.973 1690.83 228.062ZM1673.43 206.91C1673.43 197.008 1678.06 190.504 1686.5 190.504C1694.7 190.504 1699.15 197.125 1699.15 207.379C1699.15 215.113 1696.63 222.555 1689.43 227.301C1678.88 221.5 1673.43 216.461 1673.43 206.91ZM1685.97 273.238C1676.01 273.238 1670.21 266.09 1670.21 254.664C1670.21 245.348 1673.49 236.969 1681.87 232.516C1685.62 234.449 1701.61 240.777 1701.61 255.426C1701.61 266.383 1695.7 273.238 1685.97 273.238ZM1746.38 275.406C1763.78 275.406 1774.15 259.293 1774.15 231.988C1774.15 204.566 1763.78 188.336 1746.38 188.336C1728.98 188.336 1718.66 204.625 1718.66 231.988C1718.66 259.234 1728.98 275.406 1746.38 275.406ZM1746.38 273.238C1734.31 273.238 1728.1 259.059 1728.1 231.988C1728.1 204.801 1734.31 190.562 1746.38 190.562C1758.45 190.562 1764.72 204.801 1764.72 231.988C1764.72 259.059 1758.45 273.238 1746.38 273.238ZM1784.29 243.766H1803.39V241.715H1784.29V243.766ZM1847.28 275.406C1853.08 275.406 1859.29 274.527 1868.9 268.375L1870.19 247.75H1869.31C1865.27 263.688 1860.23 273.238 1847.69 273.238C1831.87 273.238 1823.08 256.246 1823.08 231.93C1823.08 208.375 1831.28 190.562 1846.87 190.562C1861.46 190.562 1865.5 201.051 1869.31 215.992H1870.19L1868.9 195.367C1859.29 189.156 1853.08 188.336 1847.75 188.336C1826.54 188.336 1813.47 206.676 1813.47 231.93C1813.47 257.066 1826.95 275.406 1847.28 275.406ZM1890.7 183.355C1893.68 183.355 1895.91 181.305 1895.91 178.258C1895.91 175.27 1893.68 173.102 1890.7 173.102C1887.65 173.102 1885.42 175.27 1885.42 178.258C1885.42 181.305 1887.65 183.355 1890.7 183.355ZM1877.8 274H1903.59V272.828L1894.97 269.664V194.02L1903.59 190.855V189.684H1877.8V190.855L1886.42 194.02V269.723L1877.8 272.828V274ZM13.7031 356.355C16.6914 356.355 18.918 354.305 18.918 351.258C18.918 348.27 16.6914 346.102 13.7031 346.102C10.6562 346.102 8.42969 348.27 8.42969 351.258C8.42969 354.305 10.6562 356.355 13.7031 356.355ZM0.8125 447H26.5938V445.828L17.9805 442.664V367.02L26.5938 363.855V362.684H0.8125V363.855L9.42578 367.02V442.723L0.8125 445.828V447ZM32.2188 447H80.0312L82.5508 426.434L82.082 426.316L72.3555 444.773H49.3281V367.02L58.9961 363.855V362.684H32.2188V363.855L40.7734 367.02V442.723L32.2188 445.828V447ZM86.5938 447H134.406L136.926 426.434L136.457 426.316L126.73 444.773H103.703V367.02L113.371 363.855V362.684H86.5938V363.855L95.1484 367.02V442.723L86.5938 445.828V447ZM168.508 448.406C185.734 448.406 199.738 429.949 199.738 405.105C199.738 378.035 184.562 361.336 167.746 361.336C157.727 361.336 148.234 367.957 142.844 377.625L143.723 378.738C149.055 371.18 154.562 365.379 166.75 365.379C181.867 365.379 190.188 382.312 190.188 406.512C190.188 408.562 190.188 409.852 190.012 412.137H141.32C141.32 432.059 151.691 448.406 168.508 448.406ZM168.859 446.004C157.609 446.004 150.578 434.285 150.578 415.711L189.953 413.719C188.84 432.234 180.637 446.004 168.859 446.004ZM205.188 447H230.734V445.828L222.355 442.664V364.91H232.961C244.387 364.91 249.016 372.645 249.016 383.895C249.016 397.664 243.742 405.34 231.32 405.34H226.047V407.566H231.027C232.727 407.566 234.602 407.449 236.418 407.156L253.879 447H268.059L268 445.828L261.496 442.254L245.559 407.977C244.328 408.035 242.043 407.566 239.816 406.98V406.688C250.012 404.695 258.566 397.547 258.566 383.543C258.566 371.004 250.539 362.684 235.715 362.684H205.188V363.855L213.801 367.02V442.723L205.188 445.828V447ZM285.812 356.355C288.801 356.355 291.027 354.305 291.027 351.258C291.027 348.27 288.801 346.102 285.812 346.102C282.766 346.102 280.539 348.27 280.539 351.258C280.539 354.305 282.766 356.355 285.812 356.355ZM272.922 447H298.703V445.828L290.09 442.664V367.02L298.703 363.855V362.684H272.922V363.855L281.535 367.02V442.723L272.922 445.828V447ZM362.336 447.996L364.68 447V367.664L374.641 363.797V362.684H352.668V363.797L362.629 367.664V433.289L319.387 362.684H304.328V363.855L314.172 367.02V442.02L304.328 445.828V447H326.066V445.828L316.164 442.02V373.641L362.336 447.996ZM377.57 447H408.508C429.953 447 443.078 431.18 443.078 404.754C443.078 378.445 429.895 362.684 409.27 362.684H377.57V363.855L386.184 366.902V442.723L377.57 445.828V447ZM394.738 444.773V364.91H408.098C424.855 364.91 433.469 378.738 433.469 405.516C433.469 430.477 425.441 444.773 407.277 444.773H394.738ZM478.938 448.406C496.164 448.406 510.168 429.949 510.168 405.105C510.168 378.035 494.992 361.336 478.176 361.336C468.156 361.336 458.664 367.957 453.273 377.625L454.152 378.738C459.484 371.18 464.992 365.379 477.18 365.379C492.297 365.379 500.617 382.312 500.617 406.512C500.617 408.562 500.617 409.852 500.441 412.137H451.75C451.75 432.059 462.121 448.406 478.938 448.406ZM479.289 446.004C468.039 446.004 461.008 434.285 461.008 415.711L500.383 413.719C499.27 432.234 491.066 446.004 479.289 446.004ZM609.543 404.988C609.543 378.855 596.535 361.336 577.023 361.336C557.57 361.336 544.562 378.797 544.562 404.988C544.562 430.594 557.102 447.82 576.027 448.406L598.586 468.797L607.199 464.871V464.168L583 447.82C599.113 444.656 609.543 428.25 609.543 404.988ZM554.113 404.988C554.113 380.145 563.254 363.562 577.023 363.562C590.91 363.562 600.051 380.203 600.051 404.988C600.051 429.656 590.91 446.238 577.023 446.238C563.254 446.238 554.113 429.715 554.113 404.988ZM669.66 442.664L645.168 362.684H633.273V363.855L637.902 369.715L616.34 442.664L607.199 445.828V447H629.289V445.828L618.449 442.664L625.48 418.699H653.488L660.578 442.664L652.375 445.828V447H678.391V445.828L669.66 442.664ZM626.125 416.473L639.426 371.297L652.844 416.473H626.125ZM682.023 447H707.57V445.828L699.191 442.664V364.91H709.797C721.223 364.91 725.852 372.645 725.852 383.895C725.852 397.664 720.578 405.34 708.156 405.34H702.883V407.566H707.863C709.562 407.566 711.438 407.449 713.254 407.156L730.715 447H744.895L744.836 445.828L738.332 442.254L722.395 407.977C721.164 408.035 718.879 407.566 716.652 406.98V406.688C726.848 404.695 735.402 397.547 735.402 383.543C735.402 371.004 727.375 362.684 712.551 362.684H682.023V363.855L690.637 367.02V442.723L682.023 445.828V447ZM809.699 442.664L785.207 362.684H773.312V363.855L777.941 369.715L756.379 442.664L747.238 445.828V447H769.328V445.828L758.488 442.664L765.52 418.699H793.527L800.617 442.664L792.414 445.828V447H818.43V445.828L809.699 442.664ZM766.164 416.473L779.465 371.297L792.883 416.473H766.164ZM822.062 447H849.426C867.004 447 877.434 439.91 877.434 424.324C877.434 413.543 871.457 404.695 859.973 403.055V402.82C869.348 400.184 874.68 392.332 874.68 382.488C874.68 372 867.883 362.684 851.711 362.684H822.062V363.855L830.734 367.02V442.664L822.062 445.828V447ZM839.289 402.234V364.91H849.484C860.031 364.91 865.246 371.707 865.246 383.25C865.246 393.621 860.852 402.234 850.656 402.234H839.289ZM839.289 444.773V404.461H851.066C862.668 404.461 867.883 412.137 867.883 424.324C867.883 436.629 862.375 444.773 850.539 444.773H839.289ZM944.348 442.664L919.855 362.684H907.961V363.855L912.59 369.715L891.027 442.664L881.887 445.828V447H903.977V445.828L893.137 442.664L900.168 418.699H928.176L935.266 442.664L927.062 445.828V447H953.078V445.828L944.348 442.664ZM900.812 416.473L914.113 371.297L927.531 416.473H900.812ZM984.777 356.707C991.633 356.707 994.914 349.207 995.031 342.469L994.387 342.176C993.625 347.039 990.695 350.086 984.777 350.086C978.918 350.086 976.047 347.039 975.285 342.176L974.641 342.469C974.758 349.441 978.156 356.707 984.777 356.707ZM985.246 448.406C995.031 448.406 1002.06 445.125 1009.86 437.391V408.562H991.75V409.207L1001.83 414.07V434.461C1001.83 440.32 993.332 446.238 987.238 446.238C968.898 446.238 960.344 429.363 960.344 404.988C960.344 384.07 966.906 363.504 984.543 363.504C998.84 363.504 1003.18 374.461 1006.81 388.992H1007.69L1006.46 368.367C999.895 364.383 992.863 361.336 985.949 361.336C963.332 361.336 950.734 380.027 950.734 404.93C950.734 430.125 963.859 448.406 985.246 448.406ZM1044.13 447H1066.57V445.828L1056.38 442.02V371.941L1084.5 438.504H1087.2L1115.44 372.586V442.664L1106.54 445.828V447H1132.9V445.828L1124 442.664V367.02L1132.9 363.855V362.684H1117.32L1088.96 428.953L1061.36 362.684H1044.19V363.855L1054.27 367.02V442.02L1044.13 445.828V447ZM1165.54 448.406C1182.77 448.406 1196.77 429.949 1196.77 405.105C1196.77 378.035 1181.59 361.336 1164.78 361.336C1154.76 361.336 1145.27 367.957 1139.88 377.625L1140.75 378.738C1146.09 371.18 1151.59 365.379 1163.78 365.379C1178.9 365.379 1187.22 382.312 1187.22 406.512C1187.22 408.562 1187.22 409.852 1187.04 412.137H1138.35C1138.35 432.059 1148.72 448.406 1165.54 448.406ZM1165.89 446.004C1154.64 446.004 1147.61 434.285 1147.61 415.711L1186.98 413.719C1185.87 432.234 1177.67 446.004 1165.89 446.004ZM1225.66 448.406C1237.96 448.406 1249.45 442.137 1249.45 426.199C1249.45 412.781 1239.43 405.691 1230.64 400.066L1227.36 397.957C1219.39 392.859 1214.58 388.875 1214.58 379.617C1214.58 369.773 1219.68 363.562 1226.83 363.562C1237.49 363.562 1242.53 371.59 1246.98 388.406H1247.63L1246.34 368.367C1241.01 364.441 1233.92 361.336 1227.82 361.336C1215.17 361.336 1205.85 368.602 1205.85 381.727C1205.85 394.441 1215.4 400.535 1222.67 405.281L1225.54 407.156C1233.45 412.312 1240.6 417 1240.6 428.602C1240.6 439.793 1235.15 446.18 1225.83 446.18C1216.69 446.18 1210.3 439.324 1205.73 421.395H1205.09L1206.14 441.551C1210.83 444.656 1218.1 448.406 1225.66 448.406ZM1284.95 448.406C1302.18 448.406 1316.18 429.949 1316.18 405.105C1316.18 378.035 1301.01 361.336 1284.19 361.336C1274.17 361.336 1264.68 367.957 1259.29 377.625L1260.17 378.738C1265.5 371.18 1271.01 365.379 1283.2 365.379C1298.31 365.379 1306.63 382.312 1306.63 406.512C1306.63 408.562 1306.63 409.852 1306.46 412.137H1257.77C1257.77 432.059 1268.14 448.406 1284.95 448.406ZM1285.3 446.004C1274.05 446.004 1267.02 434.285 1267.02 415.711L1306.4 413.719C1305.29 432.234 1297.08 446.004 1285.3 446.004ZM1321.63 447H1369.45L1371.96 426.434L1371.5 426.316L1361.77 444.773H1338.74V367.02L1348.41 363.855V362.684H1321.63V363.855L1330.19 367.02V442.723L1321.63 445.828V447ZM1403.55 448.406C1420.77 448.406 1434.78 429.949 1434.78 405.105C1434.78 378.035 1419.6 361.336 1402.79 361.336C1392.77 361.336 1383.27 367.957 1377.88 377.625L1378.76 378.738C1384.09 371.18 1389.6 365.379 1401.79 365.379C1416.91 365.379 1425.23 382.312 1425.23 406.512C1425.23 408.562 1425.23 409.852 1425.05 412.137H1376.36C1376.36 432.059 1386.73 448.406 1403.55 448.406ZM1403.9 446.004C1392.65 446.004 1385.62 434.285 1385.62 415.711L1424.99 413.719C1423.88 432.234 1415.68 446.004 1403.9 446.004ZM1463.66 448.406C1475.97 448.406 1487.45 442.137 1487.45 426.199C1487.45 412.781 1477.43 405.691 1468.64 400.066L1465.36 397.957C1457.39 392.859 1452.59 388.875 1452.59 379.617C1452.59 369.773 1457.69 363.562 1464.84 363.562C1475.5 363.562 1480.54 371.59 1484.99 388.406H1485.64L1484.35 368.367C1479.02 364.441 1471.93 361.336 1465.83 361.336C1453.18 361.336 1443.86 368.602 1443.86 381.727C1443.86 394.441 1453.41 400.535 1460.68 405.281L1463.55 407.156C1471.46 412.312 1478.61 417 1478.61 428.602C1478.61 439.793 1473.16 446.18 1463.84 446.18C1454.7 446.18 1448.31 439.324 1443.74 421.395H1443.1L1444.15 441.551C1448.84 444.656 1456.11 448.406 1463.66 448.406ZM1507.14 356.355C1510.13 356.355 1512.36 354.305 1512.36 351.258C1512.36 348.27 1510.13 346.102 1507.14 346.102C1504.09 346.102 1501.87 348.27 1501.87 351.258C1501.87 354.305 1504.09 356.355 1507.14 356.355ZM1494.25 447H1520.03V445.828L1511.42 442.664V367.02L1520.03 363.855V362.684H1494.25V363.855L1502.86 367.02V442.723L1494.25 445.828V447Z" fill="white"></path> </g> <defs> <filter id="filter0_b" x="-3.1875" y="-3.89844" width="1910.77" height="476.695" filterUnits="userSpaceOnUse" color-interpolation-filters="sRGB"> <feFlood flood-opacity="0" result="BackgroundImageFix"></feFlood> <feGaussianBlur in="BackgroundImage" stdDeviation="2"></feGaussianBlur> <feComposite in2="SourceAlpha" operator="in" result="effect1_backgroundBlur"></feComposite> <feBlend mode="normal" in="SourceGraphic" in2="effect1_backgroundBlur" result="shape"></feBlend> </filter> </defs> </svg> 