<?xml version="1.0" encoding="UTF-8"?> <svg xmlns="http://www.w3.org/2000/svg" width="1222" height="337" viewBox="0 0 1222 337" fill="none"> <path d="M18.3594 60.9844C32.5918 60.9844 42.0254 48.1465 42.0254 30.5508C42.0254 12.873 32.8789 0.0351562 18.0312 0.0351562C14.2578 0.0351562 10.0742 0.609375 3.22461 4.95703L2.36328 19.3945H2.97852C5.80859 7.91016 8.92578 1.59375 18.6875 1.59375C29.3105 1.59375 35.1348 13.4473 35.3809 29.4023H20.3691L16.8418 21.6504H16.2676V38.6309H16.8418L20.3691 30.9199H35.3809C35.3398 47.5723 29.1875 59.4668 18.1133 59.4668C8.88477 59.4668 5.39844 51.8379 2.97852 41.625H2.36328L3.22461 56.0625C9.91016 60.3281 14.2988 60.9844 18.3594 60.9844ZM84.5996 56.9648L65.8555 26.6543L80.252 7.45898L88.7422 7.33594H89.1934L89.2344 0.978516H88.4551C83.1641 0.978516 81.1953 3.43945 77.627 8.11523L62.2871 28.1309H58.2676V4.01367L64.748 1.79883V0.978516H45.8398V1.79883L52.2793 4.01367V57.0059L45.8398 59.1797V60H64.748V59.1797L58.2676 56.9648V29.7715H60.8926L79.4316 60H90.752V58.7695L84.5996 56.9648ZM111.711 60.9844C125.369 60.9844 134.475 48.8027 134.475 30.5918C134.475 12.2988 125.369 0.0351562 111.711 0.0351562C98.0938 0.0351562 88.9883 12.2578 88.9883 30.5918C88.9883 48.8438 98.0938 60.9844 111.711 60.9844ZM111.711 59.4668C102.072 59.4668 95.6738 47.9004 95.6738 30.5918C95.6738 13.2012 102.072 1.59375 111.711 1.59375C121.432 1.59375 127.83 13.2422 127.83 30.5918C127.83 47.8594 121.432 59.4668 111.711 59.4668ZM138.289 60H156.418V59.1797L150.307 56.9648V30.5508H176.721V57.0059L170.691 59.1797V60H188.82V59.1797L182.709 56.9648V4.01367L188.82 1.79883V0.978516H170.691V1.79883L176.721 4.01367V28.9922H150.307V4.01367L156.418 1.79883V0.978516H138.289V1.79883L144.318 4.01367V57.0059L138.289 59.1797V60ZM215.316 60.9844C228.975 60.9844 238.08 48.8027 238.08 30.5918C238.08 12.2988 228.975 0.0351562 215.316 0.0351562C201.699 0.0351562 192.594 12.2578 192.594 30.5918C192.594 48.8438 201.699 60.9844 215.316 60.9844ZM215.316 59.4668C205.678 59.4668 199.279 47.9004 199.279 30.5918C199.279 13.2012 205.678 1.59375 215.316 1.59375C225.037 1.59375 231.436 13.2422 231.436 30.5918C231.436 47.8594 225.037 59.4668 215.316 59.4668ZM241.895 60H257.604V59.1797L250.467 56.5137V7.45898L270.154 54.0527H272.041L291.811 7.91016V56.9648L285.576 59.1797V60H304.033V59.1797L297.799 56.9648V4.01367L304.033 1.79883V0.978516H293.123L273.271 47.3672L253.953 0.978516H241.936V1.79883L248.99 4.01367V56.5137L241.895 59.1797V60ZM352.432 56.9648V4.01367L358.543 1.79883V0.978516H340.414V1.79883L346.525 4.01367V8.0332L320.029 48.1875V4.01367L326.141 1.79883V0.978516H308.012V1.79883L314.041 4.01367V57.0059L308.012 59.1797V60H326.141V59.1797L320.029 56.9648V50.7715L346.525 10.6172V57.0059L340.496 59.1797V60H358.625V59.1797L352.432 56.9648ZM401.322 56.9648L382.578 26.6543L396.975 7.45898L405.465 7.33594H405.916L405.957 0.978516H405.178C399.887 0.978516 397.918 3.43945 394.35 8.11523L379.01 28.1309H374.99V4.01367L381.471 1.79883V0.978516H362.562V1.79883L369.002 4.01367V57.0059L362.562 59.1797V60H381.471V59.1797L374.99 56.9648V29.7715H377.615L396.154 60H407.475V58.7695L401.322 56.9648ZM453.002 56.9648L435.857 0.978516H427.531V1.79883L430.771 5.90039L415.678 56.9648L409.279 59.1797V60H424.742V59.1797L417.154 56.9648L422.076 40.1895H441.682L446.645 56.9648L440.902 59.1797V60H459.113V59.1797L453.002 56.9648ZM422.527 38.6309L431.838 7.00781L441.23 38.6309H422.527ZM479.621 60H497.75V59.1797L491.639 56.9648V30.5508H518.053V57.0059L512.023 59.1797V60H530.152V59.1797L524.041 56.9648V4.01367L530.152 1.79883V0.978516H512.023V1.79883L518.053 4.01367V28.9922H491.639V4.01367L497.75 1.79883V0.978516H479.621V1.79883L485.65 4.01367V57.0059L479.621 59.1797V60ZM576.049 56.9648L558.904 0.978516H550.578V1.79883L553.818 5.90039L538.725 56.9648L532.326 59.1797V60H547.789V59.1797L540.201 56.9648L545.123 40.1895H564.729L569.691 56.9648L563.949 59.1797V60H582.16V59.1797L576.049 56.9648ZM545.574 38.6309L554.885 7.00781L564.277 38.6309H545.574ZM584.703 60H603.693V59.1797L596.68 56.9648V2.49609H612.307L617.352 15.375H617.639V0.978516H584.703V1.79883L590.691 4.01367V57.0059L584.703 59.1797V60ZM642.617 60.9844C656.275 60.9844 665.381 48.8027 665.381 30.5918C665.381 12.2988 656.275 0.0351562 642.617 0.0351562C629 0.0351562 619.895 12.2578 619.895 30.5918C619.895 48.8438 629 60.9844 642.617 60.9844ZM642.617 59.4668C632.979 59.4668 626.58 47.9004 626.58 30.5918C626.58 13.2012 632.979 1.59375 642.617 1.59375C652.338 1.59375 658.736 13.2422 658.736 30.5918C658.736 47.8594 652.338 59.4668 642.617 59.4668ZM669.195 60H687.898V59.1797L681.172 56.9648V2.53711H687.57C694.748 2.53711 699.424 7.04883 699.424 17.8359C699.424 27.8027 695.281 34.0371 687.898 34.0371H684.33V35.5957H687.98C699.137 35.5957 706.068 29.4844 706.068 17.8359C706.068 8.2793 700.736 0.978516 689.662 0.978516H669.195V1.79883L675.184 4.01367V57.0059L669.195 59.1797V60ZM709.145 60H727.273V59.1797L721.162 56.9648V30.5508H747.576V57.0059L741.547 59.1797V60H759.676V59.1797L753.564 56.9648V4.01367L759.676 1.79883V0.978516H741.547V1.79883L747.576 4.01367V28.9922H721.162V4.01367L727.273 1.79883V0.978516H709.145V1.79883L715.174 4.01367V57.0059L709.145 59.1797V60ZM786.172 60.9844C799.83 60.9844 808.936 48.8027 808.936 30.5918C808.936 12.2988 799.83 0.0351562 786.172 0.0351562C772.555 0.0351562 763.449 12.2578 763.449 30.5918C763.449 48.8438 772.555 60.9844 786.172 60.9844ZM786.172 59.4668C776.533 59.4668 770.135 47.9004 770.135 30.5918C770.135 13.2012 776.533 1.59375 786.172 1.59375C795.893 1.59375 802.291 13.2422 802.291 30.5918C802.291 47.8594 795.893 59.4668 786.172 59.4668ZM812.75 60H831.74V59.1797L824.727 56.9648V2.49609H840.354L845.398 15.375H845.686V0.978516H812.75V1.79883L818.738 4.01367V57.0059L812.75 59.1797V60ZM870.664 60.9844C884.322 60.9844 893.428 48.8027 893.428 30.5918C893.428 12.2988 884.322 0.0351562 870.664 0.0351562C857.047 0.0351562 847.941 12.2578 847.941 30.5918C847.941 48.8438 857.047 60.9844 870.664 60.9844ZM870.664 59.4668C861.025 59.4668 854.627 47.9004 854.627 30.5918C854.627 13.2012 861.025 1.59375 870.664 1.59375C880.385 1.59375 886.783 13.2422 886.783 30.5918C886.783 47.8594 880.385 59.4668 870.664 59.4668ZM39.7285 148.965L20.9844 118.654L35.3809 99.459L43.8711 99.3359H44.3223L44.3633 92.9785H43.584C38.293 92.9785 36.3242 95.4395 32.7559 100.115L17.416 120.131H13.3965V96.0137L19.877 93.7988V92.9785H0.96875V93.7988L7.4082 96.0137V149.006L0.96875 151.18V152H19.877V151.18L13.3965 148.965V121.771H16.0215L34.5605 152H45.8809V150.77L39.7285 148.965ZM91.4082 148.965L74.2637 92.9785H65.9375V93.7988L69.1777 97.9004L54.084 148.965L47.6855 151.18V152H63.1484V151.18L55.5605 148.965L60.4824 132.189H80.0879L85.0508 148.965L79.3086 151.18V152H97.5195V151.18L91.4082 148.965ZM60.9336 130.631L70.2441 99.0078L79.6367 130.631H60.9336ZM100.062 152H118.766V151.18L112.039 148.965V94.5371H118.438C125.615 94.5371 130.291 99.0488 130.291 109.836C130.291 119.803 126.148 126.037 118.766 126.037H115.197V127.596H118.848C130.004 127.596 136.936 121.484 136.936 109.836C136.936 100.279 131.604 92.9785 120.529 92.9785H100.062V93.7988L106.051 96.0137V149.006L100.062 151.18V152ZM173.768 148.965L156.623 92.9785H148.297V93.7988L151.537 97.9004L136.443 148.965L130.045 151.18V152H145.508V151.18L137.92 148.965L142.842 132.189H162.447L167.41 148.965L161.668 151.18V152H179.879V151.18L173.768 148.965ZM143.293 130.631L152.604 99.0078L161.996 130.631H143.293ZM182.545 152H201.576C213.881 152 221.182 147.037 221.182 136.127C221.182 125.012 212.855 120.664 202.725 120.664H194.48V94.4961H210.846L215.932 107.375H216.178V92.9785H182.422V93.7988L188.492 96.0137V149.047L182.545 151.18V152ZM194.48 150.482V122.223H202.725C210.846 122.223 214.537 127.596 214.537 136.127C214.537 144.74 210.641 150.482 202.355 150.482H194.48ZM268.021 148.965L250.877 92.9785H242.551V93.7988L245.791 97.9004L230.697 148.965L224.299 151.18V152H239.762V151.18L232.174 148.965L237.096 132.189H256.701L261.664 148.965L255.922 151.18V152H274.133V151.18L268.021 148.965ZM237.547 130.631L246.857 99.0078L256.25 130.631H237.547ZM318.102 148.965L302.311 119.434L316.297 96.0137L322.695 93.8398V92.9785H308.176V93.8398L314.574 96.0137L301.572 118.039L290.088 96.0137L296.158 93.8398V92.9785H277.66V93.8398L282.992 96.0137L297.43 122.961L282.623 148.965L276.266 151.139V152H290.662V151.139L284.305 148.965L298.25 124.396L311.088 148.965L305.059 151.139V152H323.475V151.139L318.102 148.965ZM368.346 148.965L351.201 92.9785H342.875V93.7988L346.115 97.9004L331.021 148.965L324.623 151.18V152H340.086V151.18L332.498 148.965L337.42 132.189H357.025L361.988 148.965L356.246 151.18V152H374.457V151.18L368.346 148.965ZM337.871 130.631L347.182 99.0078L356.574 130.631H337.871ZM394.965 152H414.119C426.424 152 433.725 147.037 433.725 136.127C433.725 128.58 429.541 122.387 421.502 121.238V121.074C428.064 119.229 431.797 113.732 431.797 106.842C431.797 99.5 427.039 92.9785 415.719 92.9785H394.965V93.7988L401.035 96.0137V148.965L394.965 151.18V152ZM407.023 120.664V94.5371H414.16C421.543 94.5371 425.193 99.2949 425.193 107.375C425.193 114.635 422.117 120.664 414.98 120.664H407.023ZM407.023 150.441V122.223H415.268C423.389 122.223 427.039 127.596 427.039 136.127C427.039 144.74 423.184 150.441 414.898 150.441H407.023ZM481.303 152.984C485.363 152.984 489.711 152.369 496.438 148.062L497.34 133.625H496.725C493.895 144.781 490.367 151.467 481.59 151.467C470.516 151.467 464.363 139.572 464.363 122.551C464.363 106.062 470.105 93.5938 481.016 93.5938C491.229 93.5938 494.059 100.936 496.725 111.395H497.34L496.438 96.957C489.711 92.6094 485.363 92.0352 481.631 92.0352C466.783 92.0352 457.637 104.873 457.637 122.551C457.637 140.146 467.07 152.984 481.303 152.984ZM526.461 152.984C540.119 152.984 549.225 140.803 549.225 122.592C549.225 104.299 540.119 92.0352 526.461 92.0352C512.844 92.0352 503.738 104.258 503.738 122.592C503.738 140.844 512.844 152.984 526.461 152.984ZM526.461 151.467C516.822 151.467 510.424 139.9 510.424 122.592C510.424 105.201 516.822 93.5938 526.461 93.5938C536.182 93.5938 542.58 105.242 542.58 122.592C542.58 139.859 536.182 151.467 526.461 151.467ZM553.039 152H572.193C584.498 152 591.799 147.037 591.799 136.127C591.799 128.58 587.615 122.387 579.576 121.238V121.074C586.139 119.229 589.871 113.732 589.871 106.842C589.871 99.5 585.113 92.9785 573.793 92.9785H553.039V93.7988L559.109 96.0137V148.965L553.039 151.18V152ZM565.098 120.664V94.5371H572.234C579.617 94.5371 583.268 99.2949 583.268 107.375C583.268 114.635 580.191 120.664 573.055 120.664H565.098ZM565.098 150.441V122.223H573.342C581.463 122.223 585.113 127.596 585.113 136.127C585.113 144.74 581.258 150.441 572.973 150.441H565.098ZM596.68 152H632.979L634.824 137.604L634.496 137.521L627.605 150.441H608.738V122.51H619.566L623.094 130.18H623.668V113.199H623.094L619.566 120.951H608.738V94.5371H625.268L630.312 107.375H630.6V92.9785H596.721V93.7988L602.75 96.0137V149.006L596.68 151.18V152ZM647.211 152H666.119V151.18L659.68 148.965V94.5371H670.057L674.527 105.898H674.855V92.9785H638.475V105.898H638.844L643.232 94.5371H653.691V148.965L647.211 151.18V152ZM700.818 152.984C704.879 152.984 709.227 152.369 715.953 148.062L716.855 133.625H716.24C713.41 144.781 709.883 151.467 701.105 151.467C690.031 151.467 683.879 139.572 683.879 122.551C683.879 106.062 689.621 93.5938 700.531 93.5938C710.744 93.5938 713.574 100.936 716.24 111.395H716.855L715.953 96.957C709.227 92.6094 704.879 92.0352 701.146 92.0352C686.299 92.0352 677.152 104.873 677.152 122.551C677.152 140.146 686.586 152.984 700.818 152.984ZM760.947 148.965L742.203 118.654L756.6 99.459L765.09 99.3359H765.541L765.582 92.9785H764.803C759.512 92.9785 757.543 95.4395 753.975 100.115L738.635 120.131H734.615V96.0137L741.096 93.7988V92.9785H722.188V93.7988L728.627 96.0137V149.006L722.188 151.18V152H741.096V151.18L734.615 148.965V121.771H737.24L755.779 152H767.1V150.77L760.947 148.965ZM815.088 148.965V96.0137L821.199 93.7988V92.9785H803.07V93.7988L809.182 96.0137V100.033L782.686 140.188V96.0137L788.797 93.7988V92.9785H770.668V93.7988L776.697 96.0137V149.006L770.668 151.18V152H788.797V151.18L782.686 148.965V142.771L809.182 102.617V149.006L803.152 151.18V152H821.281V151.18L815.088 148.965ZM850.443 88.7949C855.242 88.7949 857.539 83.5449 857.621 78.8281L857.17 78.623C856.637 82.0273 854.586 84.1602 850.443 84.1602C846.342 84.1602 844.332 82.0273 843.799 78.623L843.348 78.8281C843.43 83.709 845.809 88.7949 850.443 88.7949ZM869.639 148.965V96.0137L875.75 93.7988V92.9785H857.621V93.7988L863.732 96.0137V100.033L837.236 140.188V96.0137L843.348 93.7988V92.9785H825.219V93.7988L831.248 96.0137V149.006L825.219 151.18V152H843.348V151.18L837.236 148.965V142.771L863.732 102.617V149.006L857.703 151.18V152H875.832V151.18L869.639 148.965ZM0.96875 244H19.0977V243.18L12.9863 240.965V186.496H39.4824V241.006L33.4531 243.18V244H51.582V243.18L45.3887 240.965V188.014L51.5 185.799V184.979H0.96875V185.799L6.99805 188.014V241.006L0.96875 243.18V244ZM55.5195 244H91.8184L93.6641 229.604L93.3359 229.521L86.4453 242.441H67.5781V214.51H78.4062L81.9336 222.18H82.5078V205.199H81.9336L78.4062 212.951H67.5781V186.537H84.1074L89.1523 199.375H89.4395V184.979H55.5605V185.799L61.5898 188.014V241.006L55.5195 243.18V244ZM96.4531 244H115.156V243.18L108.43 240.965V186.537H114.828C122.006 186.537 126.682 191.049 126.682 201.836C126.682 211.803 122.539 218.037 115.156 218.037H111.588V219.596H115.238C126.395 219.596 133.326 213.484 133.326 201.836C133.326 192.279 127.994 184.979 116.92 184.979H96.4531V185.799L102.441 188.014V241.006L96.4531 243.18V244ZM180.822 240.965V188.014L186.934 185.799V184.979H168.805V185.799L174.916 188.014V192.033L148.42 232.188V188.014L154.531 185.799V184.979H136.402V185.799L142.432 188.014V241.006L136.402 243.18V244H154.531V243.18L148.42 240.965V234.771L174.916 194.617V241.006L168.887 243.18V244H187.016V243.18L180.822 240.965ZM213.512 244.984C227.17 244.984 236.275 232.803 236.275 214.592C236.275 196.299 227.17 184.035 213.512 184.035C199.895 184.035 190.789 196.258 190.789 214.592C190.789 232.844 199.895 244.984 213.512 244.984ZM213.512 243.467C203.873 243.467 197.475 231.9 197.475 214.592C197.475 197.201 203.873 185.594 213.512 185.594C223.232 185.594 229.631 197.242 229.631 214.592C229.631 231.859 223.232 243.467 213.512 243.467ZM236.891 256.838H237.219L242.387 244H281.762L286.93 256.838H287.217V242.482H280.449V188.014L286.479 185.799V184.979H244.93V185.799L251.82 188.014C251.861 207.496 251.861 234.361 240.5 242.482H236.891V256.838ZM243.084 242.482C253.912 232.803 253.379 205.445 253.461 186.496H274.502V242.482H243.084ZM297.43 210.449C299.891 210.449 301.613 208.768 301.613 206.307C301.613 203.846 299.891 202.123 297.43 202.123C295.051 202.123 293.164 203.846 293.164 206.307C293.164 208.768 295.051 210.449 297.43 210.449ZM297.43 244.984C299.891 244.984 301.613 243.303 301.613 240.842C301.613 238.381 299.891 236.658 297.43 236.658C295.051 236.658 293.164 238.381 293.164 240.842C293.164 243.303 295.051 244.984 297.43 244.984ZM376.918 256.838H377.205V242.482H370.355V188.014L376.549 185.799V184.979H358.379V185.799L364.449 188.014V242.482H337.912V188.014L344.064 185.799V184.979H325.895V185.799L331.924 188.014V241.006L325.895 243.18V244H371.709L376.918 256.838ZM425.193 240.965V188.014L431.305 185.799V184.979H413.176V185.799L419.287 188.014V192.033L392.791 232.188V188.014L398.902 185.799V184.979H380.773V185.799L386.803 188.014V241.006L380.773 243.18V244H398.902V243.18L392.791 240.965V234.771L419.287 194.617V241.006L413.258 243.18V244H431.387V243.18L425.193 240.965ZM491.27 214.551C491.27 201.877 482.902 192.32 466.209 191.459V188.014L472.238 185.799V184.979H454.191V185.799L460.221 188.014V191.459C443.527 192.32 435.16 201.918 435.16 214.551C435.16 227.102 443.527 236.699 460.221 237.561V241.006L454.191 243.18V244H472.238V243.18L466.209 240.965V237.602C482.902 236.699 491.27 227.102 491.27 214.551ZM484.543 214.551C484.543 226.732 479.211 235.141 466.209 236.043V192.977C479.334 194.002 484.543 202.451 484.543 214.551ZM441.887 214.551C441.887 202.41 447.096 193.92 460.221 192.977V236.043C447.096 235.141 441.887 226.65 441.887 214.551ZM495.043 244H513.746V243.18L507.02 240.965V186.537H513.418C520.596 186.537 525.271 191.049 525.271 201.836C525.271 211.803 521.129 218.037 513.746 218.037H510.178V219.596H513.828C524.984 219.596 531.916 213.484 531.916 201.836C531.916 192.279 526.584 184.979 515.51 184.979H495.043V185.799L501.031 188.014V241.006L495.043 243.18V244ZM534.992 244H554.064C566.369 244 573.67 239.037 573.67 228.127C573.67 217.012 565.303 212.664 555.213 212.664H546.969V188.014L552.998 185.799V184.979H534.992V185.799L540.98 188.014V241.047L534.992 243.18V244ZM576.541 244H594.588V243.18L588.559 240.965V188.014L594.588 185.799V184.979H576.541V185.799L582.57 188.014V241.006L576.541 243.18V244ZM546.969 242.482V214.223H555.213C563.334 214.223 567.025 219.596 567.025 228.127C567.025 236.74 563.129 242.482 554.844 242.482H546.969ZM600.248 256.674C603.242 254.459 607.221 250.357 607.221 244.246C607.221 239.57 605.252 237.725 603.816 236.617L599.879 241.826C602.504 243.303 603.16 245.559 603.16 247.691C603.16 250.85 601.068 254.254 599.838 256.1L600.248 256.674ZM669.4 240.965L650.656 210.654L665.053 191.459L673.543 191.336H673.994L674.035 184.979H673.256C667.965 184.979 665.996 187.439 662.428 192.115L647.088 212.131H643.068V188.014L649.549 185.799V184.979H630.641V185.799L637.08 188.014V241.006L630.641 243.18V244H649.549V243.18L643.068 240.965V213.771H645.693L664.232 244H675.553V242.77L669.4 240.965ZM696.512 244.984C710.17 244.984 719.275 232.803 719.275 214.592C719.275 196.299 710.17 184.035 696.512 184.035C682.895 184.035 673.789 196.258 673.789 214.592C673.789 232.844 682.895 244.984 696.512 244.984ZM696.512 243.467C686.873 243.467 680.475 231.9 680.475 214.592C680.475 197.201 686.873 185.594 696.512 185.594C706.232 185.594 712.631 197.242 712.631 214.592C712.631 231.859 706.232 243.467 696.512 243.467ZM731.047 244H749.955V243.18L743.516 240.965V186.537H753.893L758.363 197.898H758.691V184.979H722.311V197.898H722.68L727.068 186.537H737.527V240.965L731.047 243.18V244ZM783.711 244.984C797.369 244.984 806.475 232.803 806.475 214.592C806.475 196.299 797.369 184.035 783.711 184.035C770.094 184.035 760.988 196.258 760.988 214.592C760.988 232.844 770.094 244.984 783.711 244.984ZM783.711 243.467C774.072 243.467 767.674 231.9 767.674 214.592C767.674 197.201 774.072 185.594 783.711 185.594C793.432 185.594 799.83 197.242 799.83 214.592C799.83 231.859 793.432 243.467 783.711 243.467ZM810.289 244H828.992V243.18L822.266 240.965V186.537H828.664C835.842 186.537 840.518 191.049 840.518 201.836C840.518 211.803 836.375 218.037 828.992 218.037H825.424V219.596H829.074C840.23 219.596 847.162 213.484 847.162 201.836C847.162 192.279 841.83 184.979 830.756 184.979H810.289V185.799L816.277 188.014V241.006L810.289 243.18V244ZM850.238 244H869.311C881.615 244 888.916 239.037 888.916 228.127C888.916 217.012 880.549 212.664 870.459 212.664H862.215V188.014L868.244 185.799V184.979H850.238V185.799L856.227 188.014V241.047L850.238 243.18V244ZM891.787 244H909.834V243.18L903.805 240.965V188.014L909.834 185.799V184.979H891.787V185.799L897.816 188.014V241.006L891.787 243.18V244ZM862.215 242.482V214.223H870.459C878.58 214.223 882.271 219.596 882.271 228.127C882.271 236.74 878.375 242.482 870.09 242.482H862.215ZM913.812 244H950.111L951.957 229.604L951.629 229.521L944.738 242.441H925.871V214.51H936.699L940.227 222.18H940.801V205.199H940.227L936.699 212.951H925.871V186.537H942.4L947.445 199.375H947.732V184.979H913.854V185.799L919.883 188.014V241.006L913.812 243.18V244ZM24.7578 336.984C38.416 336.984 47.5215 324.803 47.5215 306.592C47.5215 288.299 38.416 276.035 24.7578 276.035C11.1406 276.035 2.03516 288.258 2.03516 306.592C2.03516 324.844 11.1406 336.984 24.7578 336.984ZM24.7578 335.467C15.1191 335.467 8.7207 323.9 8.7207 306.592C8.7207 289.201 15.1191 277.594 24.7578 277.594C34.4785 277.594 40.877 289.242 40.877 306.592C40.877 323.859 34.4785 335.467 24.7578 335.467ZM51.3359 336H69.4648V335.18L63.3535 332.965V278.496H89.8496V333.006L83.8203 335.18V336H101.949V335.18L95.7559 332.965V280.014L101.867 277.799V276.979H51.3359V277.799L57.3652 280.014V333.006L51.3359 335.18V336ZM105.887 336H124.59V335.18L117.863 332.965V278.537H124.262C131.439 278.537 136.115 283.049 136.115 293.836C136.115 303.803 131.973 310.037 124.59 310.037H121.021V311.596H124.672C135.828 311.596 142.76 305.484 142.76 293.836C142.76 284.279 137.428 276.979 126.354 276.979H105.887V277.799L111.875 280.014V333.006L105.887 335.18V336ZM169.625 336.984C183.283 336.984 192.389 324.803 192.389 306.592C192.389 288.299 183.283 276.035 169.625 276.035C156.008 276.035 146.902 288.258 146.902 306.592C146.902 324.844 156.008 336.984 169.625 336.984ZM169.625 335.467C159.986 335.467 153.588 323.9 153.588 306.592C153.588 289.201 159.986 277.594 169.625 277.594C179.346 277.594 185.744 289.242 185.744 306.592C185.744 323.859 179.346 335.467 169.625 335.467ZM196.203 336H215.357C227.662 336 234.963 331.037 234.963 320.127C234.963 312.58 230.779 306.387 222.74 305.238V305.074C229.303 303.229 233.035 297.732 233.035 290.842C233.035 283.5 228.277 276.979 216.957 276.979H196.203V277.799L202.273 280.014V332.965L196.203 335.18V336ZM208.262 304.664V278.537H215.398C222.781 278.537 226.432 283.295 226.432 291.375C226.432 298.635 223.355 304.664 216.219 304.664H208.262ZM208.262 334.441V306.223H216.506C224.627 306.223 228.277 311.596 228.277 320.127C228.277 328.74 224.422 334.441 216.137 334.441H208.262ZM239.844 336H276.143L277.988 321.604L277.66 321.521L270.77 334.441H251.902V306.51H262.73L266.258 314.18H266.832V297.199H266.258L262.73 304.951H251.902V278.537H268.432L273.477 291.375H273.764V276.979H239.885V277.799L245.914 280.014V333.006L239.844 335.18V336ZM280.777 336H299.48V335.18L292.754 332.965V278.537H299.152C306.33 278.537 311.006 283.049 311.006 293.836C311.006 303.803 306.863 310.037 299.48 310.037H295.912V311.596H299.562C310.719 311.596 317.65 305.484 317.65 293.836C317.65 284.279 312.318 276.979 301.244 276.979H280.777V277.799L286.766 280.014V333.006L280.777 335.18V336ZM320.727 336H339.717V335.18L332.703 332.965V278.496H348.33L353.375 291.375H353.662V276.979H320.727V277.799L326.715 280.014V333.006L320.727 335.18V336ZM392.463 332.965L375.318 276.979H366.992V277.799L370.232 281.9L355.139 332.965L348.74 335.18V336H364.203V335.18L356.615 332.965L361.537 316.189H381.143L386.105 332.965L380.363 335.18V336H398.574V335.18L392.463 332.965ZM361.988 314.631L371.299 283.008L380.691 314.631H361.988ZM446.48 276.035C432.289 276.035 422.814 287.971 422.527 305.812H413.135V280.014L419.164 277.799V276.979H401.117V277.799L407.146 280.014V333.006L401.117 335.18V336H419.164V335.18L413.135 332.965V307.371H422.527C422.814 325.131 432.289 336.984 446.48 336.984C460.877 336.984 470.475 324.803 470.475 306.592C470.475 288.299 460.877 276.035 446.48 276.035ZM446.48 335.467C436.145 335.467 429.254 323.9 429.254 306.592C429.254 289.201 436.145 277.594 446.48 277.594C456.898 277.594 463.789 289.242 463.789 306.592C463.789 323.859 456.898 335.467 446.48 335.467ZM482.246 336H501.154V335.18L494.715 332.965V278.537H505.092L509.562 289.898H509.891V276.979H473.51V289.898H473.879L478.268 278.537H488.727V332.965L482.246 335.18V336ZM530.645 336H548.773V335.18L542.662 332.965V278.496H569.158V333.006L563.129 335.18V336H581.258V335.18L575.064 332.965V280.014L581.176 277.799V276.979H530.645V277.799L536.674 280.014V333.006L530.645 335.18V336ZM585.195 336H603.898V335.18L597.172 332.965V278.537H603.57C610.748 278.537 615.424 283.049 615.424 293.836C615.424 303.803 611.281 310.037 603.898 310.037H600.33V311.596H603.98C615.137 311.596 622.068 305.484 622.068 293.836C622.068 284.279 616.736 276.979 605.662 276.979H585.195V277.799L591.184 280.014V333.006L585.195 335.18V336ZM625.145 336H661.443L663.289 321.604L662.961 321.521L656.07 334.441H637.203V306.51H648.031L651.559 314.18H652.133V297.199H651.559L648.031 304.951H637.203V278.537H653.732L658.777 291.375H659.064V276.979H625.186V277.799L631.215 280.014V333.006L625.145 335.18V336ZM675.676 336H694.584V335.18L688.145 332.965V278.537H698.521L702.992 289.898H703.32V276.979H666.939V289.898H667.309L671.697 278.537H682.156V332.965L675.676 335.18V336ZM708.16 336H744.459L746.305 321.604L745.977 321.521L739.086 334.441H720.219V306.51H731.047L734.574 314.18H735.148V297.199H734.574L731.047 304.951H720.219V278.537H736.748L741.793 291.375H742.08V276.979H708.201V277.799L714.23 280.014V333.006L708.16 335.18V336ZM749.094 336H767.223V335.18L761.111 332.965V306.551H787.525V333.006L781.496 335.18V336H799.625V335.18L793.514 332.965V280.014L799.625 277.799V276.979H781.496V277.799L787.525 280.014V304.992H761.111V280.014L767.223 277.799V276.979H749.094V277.799L755.123 280.014V333.006L749.094 335.18V336ZM818.287 336.984C828.254 336.984 835.145 330.381 835.145 320.701C835.145 311.883 829.936 305.977 822.348 304.172C829.525 301.916 833.75 296.748 833.75 289.98C833.75 282.105 828.623 276.035 819.846 276.035C813.98 276.035 810.084 278.045 807.254 279.727L806.475 294.574H807.008C808.854 287.766 811.93 277.553 819.682 277.553C824.727 277.553 827.475 283.008 827.475 289.98C827.475 298.553 822.799 302.326 814.719 304.869V306.059C823.168 307.494 829.115 311.35 829.115 321.768C829.115 329.602 825.301 335.467 818.574 335.467C811.355 335.467 807.992 326.32 805.818 318.363H805.203L805.982 333.129C808.156 335.016 813.488 336.984 818.287 336.984ZM884.404 332.965V280.014L890.516 277.799V276.979H872.387V277.799L878.498 280.014V284.033L852.002 324.188V280.014L858.113 277.799V276.979H839.984V277.799L846.014 280.014V333.006L839.984 335.18V336H858.113V335.18L852.002 332.965V326.771L878.498 286.617V333.006L872.469 335.18V336H890.598V335.18L884.404 332.965ZM938.955 332.965V280.014L945.066 277.799V276.979H926.938V277.799L933.049 280.014V284.033L906.553 324.188V280.014L912.664 277.799V276.979H894.535V277.799L900.564 280.014V333.006L894.535 335.18V336H912.664V335.18L906.553 332.965V326.771L933.049 286.617V333.006L927.02 335.18V336H945.148V335.18L938.955 332.965ZM1009.01 332.965L991.865 276.979H983.539V277.799L986.779 281.9L971.686 332.965L965.287 335.18V336H980.75V335.18L973.162 332.965L978.084 316.189H997.689L1002.65 332.965L996.91 335.18V336H1015.12V335.18L1009.01 332.965ZM978.535 314.631L987.846 283.008L997.238 314.631H978.535ZM1017.66 336H1036.37V335.18L1029.64 332.965V278.537H1036.04C1043.22 278.537 1047.89 283.049 1047.89 293.836C1047.89 303.803 1043.75 310.037 1036.37 310.037H1032.8V311.596H1036.45C1047.61 311.596 1054.54 305.484 1054.54 293.836C1054.54 284.279 1049.21 276.979 1038.13 276.979H1017.66V277.799L1023.65 280.014V333.006L1017.66 335.18V336ZM1057.61 336H1073.32V335.18L1066.19 332.514V283.459L1085.87 330.053H1087.76L1107.53 283.91V332.965L1101.29 335.18V336H1119.75V335.18L1113.52 332.965V280.014L1119.75 277.799V276.979H1108.84L1088.99 323.367L1069.67 276.979H1057.65V277.799L1064.71 280.014V332.514L1057.61 335.18V336ZM1167.21 336V335.18L1161.18 333.006V280.014L1167.21 277.799V276.979H1145.84C1135.46 276.979 1129.84 282.803 1129.84 291.58C1129.84 301.383 1135.83 306.387 1142.97 307.781V307.986C1141.41 308.396 1139.81 308.725 1138.95 308.684L1127.79 332.678L1123.24 335.18L1123.2 336H1133.12L1145.35 308.109C1146.62 308.314 1147.93 308.396 1149.12 308.396H1152.61V306.838H1148.91C1140.22 306.838 1136.53 301.465 1136.53 291.826C1136.53 283.951 1139.77 278.537 1147.77 278.537H1155.19V332.965L1149.32 335.18V336H1167.21ZM1171.14 336H1189.27V335.18L1183.16 332.965V306.551H1209.58V333.006L1203.55 335.18V336H1221.68V335.18L1215.56 332.965V280.014L1221.68 277.799V276.979H1203.55V277.799L1209.58 280.014V304.992H1183.16V280.014L1189.27 277.799V276.979H1171.14V277.799L1177.17 280.014V333.006L1171.14 335.18V336Z" fill="white"></path> </svg> 