<?xml version="1.0" encoding="UTF-8"?> <svg xmlns="http://www.w3.org/2000/svg" width="867" height="194" viewBox="0 0 867 194" fill="none"> <path d="M69.6016 60H88.5918V59.1797L81.5781 56.9648V2.49609H97.2051L102.25 15.375H102.537V0.978516H69.6016V1.79883L75.5898 4.01367V57.0059L69.6016 59.1797V60ZM127.516 60.9844C141.174 60.9844 150.279 48.8027 150.279 30.5918C150.279 12.2988 141.174 0.0351562 127.516 0.0351562C113.898 0.0351562 104.793 12.2578 104.793 30.5918C104.793 48.8438 113.898 60.9844 127.516 60.9844ZM127.516 59.4668C117.877 59.4668 111.479 47.9004 111.479 30.5918C111.479 13.2012 117.877 1.59375 127.516 1.59375C137.236 1.59375 143.635 13.2422 143.635 30.5918C143.635 47.8594 137.236 59.4668 127.516 59.4668ZM154.094 60H172.797V59.1797L166.07 56.9648V2.53711H172.469C179.646 2.53711 184.322 7.04883 184.322 17.8359C184.322 27.8027 180.18 34.0371 172.797 34.0371H169.229V35.5957H172.879C184.035 35.5957 190.967 29.4844 190.967 17.8359C190.967 8.2793 185.635 0.978516 174.561 0.978516H154.094V1.79883L160.082 4.01367V57.0059L154.094 59.1797V60ZM217.832 60.9844C231.49 60.9844 240.596 48.8027 240.596 30.5918C240.596 12.2988 231.49 0.0351562 217.832 0.0351562C204.215 0.0351562 195.109 12.2578 195.109 30.5918C195.109 48.8438 204.215 60.9844 217.832 60.9844ZM217.832 59.4668C208.193 59.4668 201.795 47.9004 201.795 30.5918C201.795 13.2012 208.193 1.59375 217.832 1.59375C227.553 1.59375 233.951 13.2422 233.951 30.5918C233.951 47.8594 227.553 59.4668 217.832 59.4668ZM241.211 72.8379H241.539L246.707 60H286.082L291.25 72.8379H291.537V58.4824H284.77V4.01367L290.799 1.79883V0.978516H249.25V1.79883L256.141 4.01367C256.182 23.4961 256.182 50.3613 244.82 58.4824H241.211V72.8379ZM247.404 58.4824C258.232 48.8027 257.699 21.4453 257.781 2.49609H278.822V58.4824H247.404ZM337.064 56.9648L319.92 0.978516H311.594V1.79883L314.834 5.90039L299.74 56.9648L293.342 59.1797V60H308.805V59.1797L301.217 56.9648L306.139 40.1895H325.744L330.707 56.9648L324.965 59.1797V60H343.176V59.1797L337.064 56.9648ZM306.59 38.6309L315.9 7.00781L325.293 38.6309H306.59ZM347.77 38.8359H361.141V37.4004H347.77V38.8359ZM367.129 60H382.838V59.1797L375.701 56.5137V7.45898L395.389 54.0527H397.275L417.045 7.91016V56.9648L410.811 59.1797V60H429.268V59.1797L423.033 56.9648V4.01367L429.268 1.79883V0.978516H418.357L398.506 47.3672L379.188 0.978516H367.17V1.79883L374.225 4.01367V56.5137L367.129 59.1797V60ZM439.768 60.9844C445.264 60.5332 449.283 58.3594 455.312 43.9219L474.016 4.01367L480.619 1.83984V0.978516H465.525V1.83984L472.129 4.01367L458.348 33.5039L444.279 4.01367L450.021 1.83984V0.978516H431.318V1.83984L437.676 4.01367L455.189 39.9844L451.129 49.2129C447.355 50.3203 443.377 50.6895 439.562 50.1562L438.906 50.5254L439.768 60.9844ZM507.607 60H525.449V59.1797L519.502 56.9648V4.01367L525.449 1.79883V0.978516H507.607V1.79883L513.514 4.01367V30.6328C510.93 33.9961 507.074 34.6934 503.629 34.6934C497.928 34.6934 493.047 31.4531 493.047 22.1426V4.01367L498.953 1.79883V0.978516H481.152V1.79883L487.1 4.01367V22.8398C487.1 33.668 493.99 37.9746 500.512 37.9746C505.188 37.9746 510.15 36.498 513.514 32.3555V57.0059L507.607 59.1797V60ZM529.387 60H565.686L567.531 45.6035L567.203 45.5215L560.312 58.4414H541.445V30.5098H552.273L555.801 38.1797H556.375V21.1992H555.801L552.273 28.9512H541.445V2.53711H557.975L563.02 15.375H563.307V0.978516H529.428V1.79883L535.457 4.01367V57.0059L529.387 59.1797V60ZM570.32 60H588.449V59.1797L582.338 56.9648V30.5508H608.752V57.0059L602.723 59.1797V60H620.852V59.1797L614.74 56.9648V4.01367L620.852 1.79883V0.978516H602.723V1.79883L608.752 4.01367V28.9922H582.338V4.01367L588.449 1.79883V0.978516H570.32V1.79883L576.35 4.01367V57.0059L570.32 59.1797V60ZM669.209 56.9648V4.01367L675.32 1.79883V0.978516H657.191V1.79883L663.303 4.01367V8.0332L636.807 48.1875V4.01367L642.918 1.79883V0.978516H624.789V1.79883L630.818 4.01367V57.0059L624.789 59.1797V60H642.918V59.1797L636.807 56.9648V50.7715L663.303 10.6172V57.0059L657.273 59.1797V60H675.402V59.1797L669.209 56.9648ZM718.1 56.9648L699.355 26.6543L713.752 7.45898L722.242 7.33594H722.693L722.734 0.978516H721.955C716.664 0.978516 714.695 3.43945 711.127 8.11523L695.787 28.1309H691.768V4.01367L698.248 1.79883V0.978516H679.34V1.79883L685.779 4.01367V57.0059L679.34 59.1797V60H698.248V59.1797L691.768 56.9648V29.7715H694.393L712.932 60H724.252V58.7695L718.1 56.9648ZM772.24 56.9648V4.01367L778.352 1.79883V0.978516H760.223V1.79883L766.334 4.01367V8.0332L739.838 48.1875V4.01367L745.949 1.79883V0.978516H727.82V1.79883L733.85 4.01367V57.0059L727.82 59.1797V60H745.949V59.1797L739.838 56.9648V50.7715L766.334 10.6172V57.0059L760.305 59.1797V60H778.434V59.1797L772.24 56.9648ZM0.982422 181H20.1367C32.4414 181 39.7422 176.037 39.7422 165.127C39.7422 157.58 35.5586 151.387 27.5195 150.238V150.074C34.082 148.229 37.8145 142.732 37.8145 135.842C37.8145 128.5 33.0566 121.979 21.7363 121.979H0.982422V122.799L7.05273 125.014V177.965L0.982422 180.18V181ZM13.041 149.664V123.537H20.1777C27.5605 123.537 31.2109 128.295 31.2109 136.375C31.2109 143.635 28.1348 149.664 20.998 149.664H13.041ZM13.041 179.441V151.223H21.2852C29.4062 151.223 33.0566 156.596 33.0566 165.127C33.0566 173.74 29.2012 179.441 20.916 179.441H13.041ZM61.3574 193.838H61.6855L66.8535 181H106.229L111.396 193.838H111.684V179.482H104.916V125.014L110.945 122.799V121.979H69.3965V122.799L76.2871 125.014C76.3281 144.496 76.3281 171.361 64.9668 179.482H61.3574V193.838ZM67.5508 179.482C78.3789 169.803 77.8457 142.445 77.9277 123.496H98.9688V179.482H67.5508ZM115.252 181H133.955V180.18L127.229 177.965V123.537H133.627C140.805 123.537 145.48 128.049 145.48 138.836C145.48 148.803 141.338 155.037 133.955 155.037H130.387V156.596H134.037C145.193 156.596 152.125 150.484 152.125 138.836C152.125 129.279 146.793 121.979 135.719 121.979H115.252V122.799L121.24 125.014V178.006L115.252 180.18V181ZM161.723 181.984C167.219 181.533 171.238 179.359 177.268 164.922L195.971 125.014L202.574 122.84V121.979H187.48V122.84L194.084 125.014L180.303 154.504L166.234 125.014L171.977 122.84V121.979H153.273V122.84L159.631 125.014L177.145 160.984L173.084 170.213C169.311 171.32 165.332 171.689 161.518 171.156L160.861 171.525L161.723 181.984ZM204.83 181H223.82V180.18L216.807 177.965V123.496H232.434L237.479 136.375H237.766V121.979H204.83V122.799L210.818 125.014V178.006L204.83 180.18V181ZM286.984 177.965V125.014L293.096 122.799V121.979H274.967V122.799L281.078 125.014V129.033L254.582 169.188V125.014L260.693 122.799V121.979H242.564V122.799L248.594 125.014V178.006L242.564 180.18V181H260.693V180.18L254.582 177.965V171.771L281.078 131.617V178.006L275.049 180.18V181H293.178V180.18L286.984 177.965ZM337.393 177.965L321.602 148.434L335.588 125.014L341.986 122.84V121.979H327.467V122.84L333.865 125.014L320.863 147.039L309.379 125.014L315.449 122.84V121.979H296.951V122.84L302.283 125.014L316.721 151.961L301.914 177.965L295.557 180.139V181H309.953V180.139L303.596 177.965L317.541 153.396L330.379 177.965L324.35 180.139V181H342.766V180.139L337.393 177.965ZM386.324 181H404.166V180.18L398.219 177.965V125.014L404.166 122.799V121.979H386.324V122.799L392.23 125.014V151.633C389.646 154.996 385.791 155.693 382.346 155.693C376.645 155.693 371.764 152.453 371.764 143.143V125.014L377.67 122.799V121.979H359.869V122.799L365.816 125.014V143.84C365.816 154.668 372.707 158.975 379.229 158.975C383.904 158.975 388.867 157.498 392.23 153.355V178.006L386.324 180.18V181ZM450.062 177.965L432.918 121.979H424.592V122.799L427.832 126.9L412.738 177.965L406.34 180.18V181H421.803V180.18L414.215 177.965L419.137 161.189H438.742L443.705 177.965L437.963 180.18V181H456.174V180.18L450.062 177.965ZM419.588 159.631L428.898 128.008L438.291 159.631H419.588ZM478.199 181.984C482.26 181.984 486.607 181.369 493.334 177.062L494.236 162.625H493.621C490.791 173.781 487.264 180.467 478.486 180.467C467.412 180.467 461.26 168.572 461.26 151.551C461.26 135.062 467.002 122.594 477.912 122.594C488.125 122.594 490.955 129.936 493.621 140.395H494.236L493.334 125.957C486.607 121.609 482.26 121.035 478.527 121.035C463.68 121.035 454.533 133.873 454.533 151.551C454.533 169.146 463.967 181.984 478.199 181.984ZM509.166 181H528.074V180.18L521.635 177.965V123.537H532.012L536.482 134.898H536.811V121.979H500.43V134.898H500.799L505.188 123.537H515.646V177.965L509.166 180.18V181ZM585.127 181V180.18L579.098 178.006V125.014L585.127 122.799V121.979H563.758C553.381 121.979 547.762 127.803 547.762 136.58C547.762 146.383 553.75 151.387 560.887 152.781V152.986C559.328 153.396 557.729 153.725 556.867 153.684L545.711 177.678L541.158 180.18L541.117 181H551.043L563.266 153.109C564.537 153.314 565.85 153.396 567.039 153.396H570.525V151.838H566.834C558.139 151.838 554.447 146.465 554.447 136.826C554.447 128.951 557.688 123.537 565.686 123.537H573.109V177.965L567.244 180.18V181H585.127ZM629.342 177.965L613.551 148.434L627.537 125.014L633.936 122.84V121.979H619.416V122.84L625.814 125.014L612.812 147.039L601.328 125.014L607.398 122.84V121.979H588.9V122.84L594.232 125.014L608.67 151.961L593.863 177.965L587.506 180.139V181H601.902V180.139L595.545 177.965L609.49 153.396L622.328 177.965L616.299 180.139V181H634.715V180.139L629.342 177.965ZM678.273 181.984C682.334 181.984 686.682 181.369 693.408 177.062L694.311 162.625H693.695C690.865 173.781 687.338 180.467 678.561 180.467C667.486 180.467 661.334 168.572 661.334 151.551C661.334 135.062 667.076 122.594 677.986 122.594C688.199 122.594 691.029 129.936 693.695 140.395H694.311L693.408 125.957C686.682 121.609 682.334 121.035 678.602 121.035C663.754 121.035 654.607 133.873 654.607 151.551C654.607 169.146 664.041 181.984 678.273 181.984ZM699.643 181H718.797C731.102 181 738.402 176.037 738.402 165.127C738.402 157.58 734.219 151.387 726.18 150.238V150.074C732.742 148.229 736.475 142.732 736.475 135.842C736.475 128.5 731.717 121.979 720.396 121.979H699.643V122.799L705.713 125.014V177.965L699.643 180.18V181ZM711.701 149.664V123.537H718.838C726.221 123.537 729.871 128.295 729.871 136.375C729.871 143.635 726.795 149.664 719.658 149.664H711.701ZM711.701 179.441V151.223H719.945C728.066 151.223 731.717 156.596 731.717 165.127C731.717 173.74 727.861 179.441 719.576 179.441H711.701ZM743.283 181H779.582L781.428 166.604L781.1 166.521L774.209 179.441H755.342V151.51H766.17L769.697 159.18H770.271V142.199H769.697L766.17 149.951H755.342V123.537H771.871L776.916 136.375H777.203V121.979H743.324V122.799L749.354 125.014V178.006L743.283 180.18V181ZM793.814 181H812.723V180.18L806.283 177.965V123.537H816.66L821.131 134.898H821.459V121.979H785.078V134.898H785.447L789.836 123.537H800.295V177.965L793.814 180.18V181ZM860.301 177.965L843.156 121.979H834.83V122.799L838.07 126.9L822.977 177.965L816.578 180.18V181H832.041V180.18L824.453 177.965L829.375 161.189H848.98L853.943 177.965L848.201 180.18V181H866.412V180.18L860.301 177.965ZM829.826 159.631L839.137 128.008L848.529 159.631H829.826Z" fill="black"></path> </svg> 