<?xml version="1.0" encoding="UTF-8"?> <svg xmlns="http://www.w3.org/2000/svg" width="463" height="73" viewBox="0 0 463 73" fill="none"> <path d="M23.7012 60.9844C27.7617 60.9844 32.1094 60.3691 38.8359 56.0625L39.7383 41.625H39.123C36.293 52.7812 32.7656 59.4668 23.9883 59.4668C12.9141 59.4668 6.76172 47.5723 6.76172 30.5508C6.76172 14.0625 12.5039 1.59375 23.4141 1.59375C33.627 1.59375 36.457 8.93555 39.123 19.3945H39.7383L38.8359 4.95703C32.1094 0.609375 27.7617 0.0351562 24.0293 0.0351562C9.18164 0.0351562 0.0351562 12.873 0.0351562 30.5508C0.0351562 48.1465 9.46875 60.9844 23.7012 60.9844ZM54.668 60H73.5762V59.1797L67.1367 56.9648V2.53711H77.5137L81.9844 13.8984H82.3125V0.978516H45.9316V13.8984H46.3008L50.6895 2.53711H61.1484V56.9648L54.668 59.1797V60ZM121.154 56.9648L104.01 0.978516H95.6836V1.79883L98.9238 5.90039L83.8301 56.9648L77.4316 59.1797V60H92.8945V59.1797L85.3066 56.9648L90.2285 40.1895H109.834L114.797 56.9648L109.055 59.1797V60H127.266V59.1797L121.154 56.9648ZM90.6797 38.6309L99.9902 7.00781L109.383 38.6309H90.6797ZM134.566 60.9844C146.502 60.9844 146.174 22.7168 146.174 2.49609H168.199V57.0059L162.17 59.1797V60H180.299V59.1797L174.105 56.9648V4.01367L180.217 1.79883V0.978516H137.684V1.79883L144.574 4.01367C144.574 21.1992 144.615 59.4668 134.771 59.4668C132.434 59.4668 130.342 53.4785 129.275 50.1973H128.701L128.578 58.9336C129.891 60.1641 131.531 60.9844 134.566 60.9844ZM228.697 56.9648V4.01367L234.809 1.79883V0.978516H216.68V1.79883L222.791 4.01367V8.0332L196.295 48.1875V4.01367L202.406 1.79883V0.978516H184.277V1.79883L190.307 4.01367V57.0059L184.277 59.1797V60H202.406V59.1797L196.295 56.9648V50.7715L222.791 10.6172V57.0059L216.762 59.1797V60H234.891V59.1797L228.697 56.9648ZM238.828 60H256.957V59.1797L250.846 56.9648V30.5508H277.26V57.0059L271.23 59.1797V60H289.359V59.1797L283.248 56.9648V4.01367L289.359 1.79883V0.978516H271.23V1.79883L277.26 4.01367V28.9922H250.846V4.01367L256.957 1.79883V0.978516H238.828V1.79883L244.857 4.01367V57.0059L238.828 59.1797V60ZM293.297 60H312.287V59.1797L305.273 56.9648V2.49609H320.9L325.945 15.375H326.232V0.978516H293.297V1.79883L299.285 4.01367V57.0059L293.297 59.1797V60ZM331.031 60H349.734V59.1797L343.008 56.9648V2.53711H349.406C356.584 2.53711 361.26 7.04883 361.26 17.8359C361.26 27.8027 357.117 34.0371 349.734 34.0371H346.166V35.5957H349.816C360.973 35.5957 367.904 29.4844 367.904 17.8359C367.904 8.2793 362.572 0.978516 351.498 0.978516H331.031V1.79883L337.02 4.01367V57.0059L331.031 59.1797V60ZM404.736 56.9648L387.592 0.978516H379.266V1.79883L382.506 5.90039L367.412 56.9648L361.014 59.1797V60H376.477V59.1797L368.889 56.9648L373.811 40.1895H393.416L398.379 56.9648L392.637 59.1797V60H410.848V59.1797L404.736 56.9648ZM374.262 38.6309L383.572 7.00781L392.965 38.6309H374.262ZM412.16 72.8379H412.488L417.656 60H457.031L462.199 72.8379H462.486V58.4824H455.719V4.01367L461.748 1.79883V0.978516H420.199V1.79883L427.09 4.01367C427.131 23.4961 427.131 50.3613 415.77 58.4824H412.16V72.8379ZM418.354 58.4824C429.182 48.8027 428.648 21.4453 428.73 2.49609H449.771V58.4824H418.354Z" fill="black"></path> </svg> 