<?xml version="1.0" encoding="UTF-8"?> <svg xmlns="http://www.w3.org/2000/svg" width="1240" height="349" viewBox="0 0 1240 349" fill="none"> <path d="M1.96875 60H20.0977V59.1797L13.9863 56.9648V30.5508H40.4004V57.0059L34.3711 59.1797V60H52.5V59.1797L46.3887 56.9648V4.01367L52.5 1.79883V0.978516H34.3711V1.79883L40.4004 4.01367V28.9922H13.9863V4.01367L20.0977 1.79883V0.978516H1.96875V1.79883L7.99805 4.01367V57.0059L1.96875 59.1797V60ZM56.4375 60H92.7363L94.582 45.6035L94.2539 45.5215L87.3633 58.4414H68.4961V30.5098H79.3242L82.8516 38.1797H83.4258V21.1992H82.8516L79.3242 28.9512H68.4961V2.53711H85.0254L90.0703 15.375H90.3574V0.978516H56.4785V1.79883L62.5078 4.01367V57.0059L56.4375 59.1797V60ZM112.096 60.9844C122.062 60.9844 128.953 54.3809 128.953 44.7012C128.953 35.8828 123.744 29.9766 116.156 28.1719C123.334 25.916 127.559 20.748 127.559 13.9805C127.559 6.10547 122.432 0.0351562 113.654 0.0351562C107.789 0.0351562 103.893 2.04492 101.062 3.72656L100.283 18.5742H100.816C102.662 11.7656 105.738 1.55273 113.49 1.55273C118.535 1.55273 121.283 7.00781 121.283 13.9805C121.283 22.5527 116.607 26.3262 108.527 28.8691V30.0586C116.977 31.4941 122.924 35.3496 122.924 45.7676C122.924 53.6016 119.109 59.4668 112.383 59.4668C105.164 59.4668 101.801 50.3203 99.627 42.3633H99.0117L99.791 57.1289C101.965 59.0156 107.297 60.9844 112.096 60.9844ZM175.752 56.9648L158.607 0.978516H150.281V1.79883L153.521 5.90039L138.428 56.9648L132.029 59.1797V60H147.492V59.1797L139.904 56.9648L144.826 40.1895H164.432L169.395 56.9648L163.652 59.1797V60H181.863V59.1797L175.752 56.9648ZM145.277 38.6309L154.588 7.00781L163.98 38.6309H145.277ZM223.166 56.9648L204.422 26.6543L218.818 7.45898L227.309 7.33594H227.76L227.801 0.978516H227.021C221.73 0.978516 219.762 3.43945 216.193 8.11523L200.854 28.1309H196.834V4.01367L203.314 1.79883V0.978516H184.406V1.79883L190.846 4.01367V57.0059L184.406 59.1797V60H203.314V59.1797L196.834 56.9648V29.7715H199.459L217.998 60H229.318V58.7695L223.166 56.9648ZM250.277 60.9844C263.936 60.9844 273.041 48.8027 273.041 30.5918C273.041 12.2988 263.936 0.0351562 250.277 0.0351562C236.66 0.0351562 227.555 12.2578 227.555 30.5918C227.555 48.8438 236.66 60.9844 250.277 60.9844ZM250.277 59.4668C240.639 59.4668 234.24 47.9004 234.24 30.5918C234.24 13.2012 240.639 1.59375 250.277 1.59375C259.998 1.59375 266.396 13.2422 266.396 30.5918C266.396 47.8594 259.998 59.4668 250.277 59.4668ZM276.855 60H294.984V59.1797L288.873 56.9648V30.5508H315.287V57.0059L309.258 59.1797V60H327.387V59.1797L321.275 56.9648V4.01367L327.387 1.79883V0.978516H309.258V1.79883L315.287 4.01367V28.9922H288.873V4.01367L294.984 1.79883V0.978516H276.855V1.79883L282.885 4.01367V57.0059L276.855 59.1797V60ZM331.324 60H349.453V59.1797L343.342 56.9648V30.5508H369.756V57.0059L363.727 59.1797V60H381.855V59.1797L375.744 56.9648V4.01367L381.855 1.79883V0.978516H363.727V1.79883L369.756 4.01367V28.9922H343.342V4.01367L349.453 1.79883V0.978516H331.324V1.79883L337.354 4.01367V57.0059L331.324 59.1797V60ZM427.752 56.9648L410.607 0.978516H402.281V1.79883L405.521 5.90039L390.428 56.9648L384.029 59.1797V60H399.492V59.1797L391.904 56.9648L396.826 40.1895H416.432L421.395 56.9648L415.652 59.1797V60H433.863V59.1797L427.752 56.9648ZM397.277 38.6309L406.588 7.00781L415.98 38.6309H397.277ZM479.883 60V59.1797L473.854 57.0059V4.01367L479.883 1.79883V0.978516H458.514C448.137 0.978516 442.518 6.80273 442.518 15.5801C442.518 25.3828 448.506 30.3867 455.643 31.7812V31.9863C454.084 32.3965 452.484 32.7246 451.623 32.6836L440.467 56.6777L435.914 59.1797L435.873 60H445.799L458.021 32.1094C459.293 32.3145 460.605 32.3965 461.795 32.3965H465.281V30.8379H461.59C452.895 30.8379 449.203 25.4648 449.203 15.8262C449.203 7.95117 452.443 2.53711 460.441 2.53711H467.865V56.9648L462 59.1797V60H479.883ZM501.785 60H519.914V59.1797L513.803 56.9648V2.49609H540.299V57.0059L534.27 59.1797V60H552.398V59.1797L546.205 56.9648V4.01367L552.316 1.79883V0.978516H501.785V1.79883L507.814 4.01367V57.0059L501.785 59.1797V60ZM578.895 60.9844C592.553 60.9844 601.658 48.8027 601.658 30.5918C601.658 12.2988 592.553 0.0351562 578.895 0.0351562C565.277 0.0351562 556.172 12.2578 556.172 30.5918C556.172 48.8438 565.277 60.9844 578.895 60.9844ZM578.895 59.4668C569.256 59.4668 562.857 47.9004 562.857 30.5918C562.857 13.2012 569.256 1.59375 578.895 1.59375C588.615 1.59375 595.014 13.2422 595.014 30.5918C595.014 47.8594 588.615 59.4668 578.895 59.4668ZM631.436 60.9844C635.496 60.9844 639.844 60.3691 646.57 56.0625L647.473 41.625H646.857C644.027 52.7812 640.5 59.4668 631.723 59.4668C620.648 59.4668 614.496 47.5723 614.496 30.5508C614.496 14.0625 620.238 1.59375 631.148 1.59375C641.361 1.59375 644.191 8.93555 646.857 19.3945H647.473L646.57 4.95703C639.844 0.609375 635.496 0.0351562 631.764 0.0351562C616.916 0.0351562 607.77 12.873 607.77 30.5508C607.77 48.1465 617.203 60.9844 631.436 60.9844ZM652.805 60H689.104L690.949 45.6035L690.621 45.5215L683.73 58.4414H664.863V30.5098H675.691L679.219 38.1797H679.793V21.1992H679.219L675.691 28.9512H664.863V2.53711H681.393L686.438 15.375H686.725V0.978516H652.846V1.79883L658.875 4.01367V57.0059L652.805 59.1797V60ZM698.496 60.9844C710.432 60.9844 710.104 22.7168 710.104 2.49609H732.129V57.0059L726.1 59.1797V60H744.229V59.1797L738.035 56.9648V4.01367L744.146 1.79883V0.978516H701.613V1.79883L708.504 4.01367C708.504 21.1992 708.545 59.4668 698.701 59.4668C696.363 59.4668 694.271 53.4785 693.205 50.1973H692.631L692.508 58.9336C693.82 60.1641 695.461 60.9844 698.496 60.9844ZM748.207 60H784.506L786.352 45.6035L786.023 45.5215L779.133 58.4414H760.266V30.5098H771.094L774.621 38.1797H775.195V21.1992H774.621L771.094 28.9512H760.266V2.53711H776.795L781.84 15.375H782.127V0.978516H748.248V1.79883L754.277 4.01367V57.0059L748.207 59.1797V60ZM789.141 60H807.27V59.1797L801.158 56.9648V30.5508H827.572V57.0059L821.543 59.1797V60H839.672V59.1797L833.561 56.9648V4.01367L839.672 1.79883V0.978516H821.543V1.79883L827.572 4.01367V28.9922H801.158V4.01367L807.27 1.79883V0.978516H789.141V1.79883L795.17 4.01367V57.0059L789.141 59.1797V60ZM868.342 60H886.184V59.1797L880.236 56.9648V4.01367L886.184 1.79883V0.978516H868.342V1.79883L874.248 4.01367V30.6328C871.664 33.9961 867.809 34.6934 864.363 34.6934C858.662 34.6934 853.781 31.4531 853.781 22.1426V4.01367L859.688 1.79883V0.978516H841.887V1.79883L847.834 4.01367V22.8398C847.834 33.668 854.725 37.9746 861.246 37.9746C865.922 37.9746 870.885 36.498 874.248 32.3555V57.0059L868.342 59.1797V60ZM890.121 60H926.42L928.266 45.6035L927.938 45.5215L921.047 58.4414H902.18V30.5098H913.008L916.535 38.1797H917.109V21.1992H916.535L913.008 28.9512H902.18V2.53711H918.709L923.754 15.375H924.041V0.978516H890.162V1.79883L896.191 4.01367V57.0059L890.121 59.1797V60ZM955.787 60.9844C959.848 60.9844 964.195 60.3691 970.922 56.0625L971.824 41.625H971.209C968.379 52.7812 964.852 59.4668 956.074 59.4668C945 59.4668 938.848 47.5723 938.848 30.5508C938.848 14.0625 944.59 1.59375 955.5 1.59375C965.713 1.59375 968.543 8.93555 971.209 19.3945H971.824L970.922 4.95703C964.195 0.609375 959.848 0.0351562 956.115 0.0351562C941.268 0.0351562 932.121 12.873 932.121 30.5508C932.121 48.1465 941.555 60.9844 955.787 60.9844ZM1015.92 56.9648L997.172 26.6543L1011.57 7.45898L1020.06 7.33594H1020.51L1020.55 0.978516H1019.77C1014.48 0.978516 1012.51 3.43945 1008.94 8.11523L993.604 28.1309H989.584V4.01367L996.064 1.79883V0.978516H977.156V1.79883L983.596 4.01367V57.0059L977.156 59.1797V60H996.064V59.1797L989.584 56.9648V29.7715H992.209L1010.75 60H1022.07V58.7695L1015.92 56.9648ZM1067.6 56.9648L1050.45 0.978516H1042.12V1.79883L1045.37 5.90039L1030.27 56.9648L1023.87 59.1797V60H1039.34V59.1797L1031.75 56.9648L1036.67 40.1895H1056.28L1061.24 56.9648L1055.5 59.1797V60H1073.71V59.1797L1067.6 56.9648ZM1037.12 38.6309L1046.43 7.00781L1055.82 38.6309H1037.12ZM1119.73 60V59.1797L1113.7 57.0059V4.01367L1119.73 1.79883V0.978516H1098.36C1087.98 0.978516 1082.36 6.80273 1082.36 15.5801C1082.36 25.3828 1088.35 30.3867 1095.49 31.7812V31.9863C1093.93 32.3965 1092.33 32.7246 1091.47 32.6836L1080.31 56.6777L1075.76 59.1797L1075.72 60H1085.64L1097.87 32.1094C1099.14 32.3145 1100.45 32.3965 1101.64 32.3965H1105.12V30.8379H1101.43C1092.74 30.8379 1089.05 25.4648 1089.05 15.8262C1089.05 7.95117 1092.29 2.53711 1100.29 2.53711H1107.71V56.9648L1101.84 59.1797V60H1119.73ZM1.96875 152H20.0977V151.18L13.9863 148.965V94.4961H40.4824V149.006L34.4531 151.18V152H52.582V151.18L46.3887 148.965V96.0137L52.5 93.7988V92.9785H1.96875V93.7988L7.99805 96.0137V149.006L1.96875 151.18V152ZM79.0781 152.984C92.7363 152.984 101.842 140.803 101.842 122.592C101.842 104.299 92.7363 92.0352 79.0781 92.0352C65.4609 92.0352 56.3555 104.258 56.3555 122.592C56.3555 140.844 65.4609 152.984 79.0781 152.984ZM79.0781 151.467C69.4395 151.467 63.041 139.9 63.041 122.592C63.041 105.201 69.4395 93.5938 79.0781 93.5938C88.7988 93.5938 95.1973 105.242 95.1973 122.592C95.1973 139.859 88.7988 151.467 79.0781 151.467ZM110.004 152.984C121.939 152.984 121.611 114.717 121.611 94.4961H143.637V149.006L137.607 151.18V152H155.736V151.18L149.543 148.965V96.0137L155.654 93.7988V92.9785H113.121V93.7988L120.012 96.0137C120.012 113.199 120.053 151.467 110.209 151.467C107.871 151.467 105.779 145.479 104.713 142.197H104.139L104.016 150.934C105.328 152.164 106.969 152.984 110.004 152.984ZM204.135 148.965V96.0137L210.246 93.7988V92.9785H192.117V93.7988L198.229 96.0137V100.033L171.732 140.188V96.0137L177.844 93.7988V92.9785H159.715V93.7988L165.744 96.0137V149.006L159.715 151.18V152H177.844V151.18L171.732 148.965V142.771L198.229 102.617V149.006L192.199 151.18V152H210.328V151.18L204.135 148.965ZM223.863 152H242.771V151.18L236.332 148.965V94.5371H246.709L251.18 105.898H251.508V92.9785H215.127V105.898H215.496L219.885 94.5371H230.344V148.965L223.863 151.18V152ZM300.768 148.965V96.0137L306.879 93.7988V92.9785H288.75V93.7988L294.861 96.0137V100.033L268.365 140.188V96.0137L274.477 93.7988V92.9785H256.348V93.7988L262.377 96.0137V149.006L256.348 151.18V152H274.477V151.18L268.365 148.965V142.771L294.861 102.617V149.006L288.832 151.18V152H306.961V151.18L300.768 148.965ZM349.658 148.965L330.914 118.654L345.311 99.459L353.801 99.3359H354.252L354.293 92.9785H353.514C348.223 92.9785 346.254 95.4395 342.686 100.115L327.346 120.131H323.326V96.0137L329.807 93.7988V92.9785H310.898V93.7988L317.338 96.0137V149.006L310.898 151.18V152H329.807V151.18L323.326 148.965V121.771H325.951L344.49 152H355.811V150.77L349.658 148.965ZM401.338 148.965L384.193 92.9785H375.867V93.7988L379.107 97.9004L364.014 148.965L357.615 151.18V152H373.078V151.18L365.49 148.965L370.412 132.189H390.018L394.98 148.965L389.238 151.18V152H407.449V151.18L401.338 148.965ZM370.863 130.631L380.174 99.0078L389.566 130.631H370.863ZM469.916 148.965L452.771 92.9785H444.445V93.7988L447.686 97.9004L432.592 148.965L426.193 151.18V152H441.656V151.18L434.068 148.965L438.99 132.189H458.596L463.559 148.965L457.816 151.18V152H476.027V151.18L469.916 148.965ZM439.441 130.631L448.752 99.0078L458.145 130.631H439.441ZM478.57 152H497.273V151.18L490.547 148.965V94.5371H496.945C504.123 94.5371 508.799 99.0488 508.799 109.836C508.799 119.803 504.656 126.037 497.273 126.037H493.705V127.596H497.355C508.512 127.596 515.443 121.484 515.443 109.836C515.443 100.279 510.111 92.9785 499.037 92.9785H478.57V93.7988L484.559 96.0137V149.006L478.57 151.18V152ZM518.52 152H534.229V151.18L527.092 148.514V99.459L546.779 146.053H548.666L568.436 99.9102V148.965L562.201 151.18V152H580.658V151.18L574.424 148.965V96.0137L580.658 93.7988V92.9785H569.748L549.896 139.367L530.578 92.9785H518.561V93.7988L525.615 96.0137V148.514L518.52 151.18V152ZM584.637 152H620.936L622.781 137.604L622.453 137.521L615.562 150.441H596.695V122.51H607.523L611.051 130.18H611.625V113.199H611.051L607.523 120.951H596.695V94.5371H613.225L618.27 107.375H618.557V92.9785H584.678V93.7988L590.707 96.0137V149.006L584.637 151.18V152ZM625.57 152H643.699V151.18L637.588 148.965V122.551H664.002V149.006L657.973 151.18V152H676.102V151.18L669.99 148.965V96.0137L676.102 93.7988V92.9785H657.973V93.7988L664.002 96.0137V120.992H637.588V96.0137L643.699 93.7988V92.9785H625.57V93.7988L631.6 96.0137V149.006L625.57 151.18V152ZM724.459 148.965V96.0137L730.57 93.7988V92.9785H712.441V93.7988L718.553 96.0137V100.033L692.057 140.188V96.0137L698.168 93.7988V92.9785H680.039V93.7988L686.068 96.0137V149.006L680.039 151.18V152H698.168V151.18L692.057 148.965V142.771L718.553 102.617V149.006L712.523 151.18V152H730.652V151.18L724.459 148.965ZM779.01 148.965V96.0137L785.121 93.7988V92.9785H766.992V93.7988L773.104 96.0137V100.033L746.607 140.188V96.0137L752.719 93.7988V92.9785H734.59V93.7988L740.619 96.0137V149.006L734.59 151.18V152H752.719V151.18L746.607 148.965V142.771L773.104 102.617V149.006L767.074 151.18V152H785.203V151.18L779.01 148.965ZM807.105 152H826.26C838.564 152 845.865 147.037 845.865 136.127C845.865 128.58 841.682 122.387 833.643 121.238V121.074C840.205 119.229 843.938 113.732 843.938 106.842C843.938 99.5 839.18 92.9785 827.859 92.9785H807.105V93.7988L813.176 96.0137V148.965L807.105 151.18V152ZM819.164 120.664V94.5371H826.301C833.684 94.5371 837.334 99.2949 837.334 107.375C837.334 114.635 834.258 120.664 827.121 120.664H819.164ZM819.164 150.441V122.223H827.408C835.529 122.223 839.18 127.596 839.18 136.127C839.18 144.74 835.324 150.441 827.039 150.441H819.164ZM874.535 152.984C888.193 152.984 897.299 140.803 897.299 122.592C897.299 104.299 888.193 92.0352 874.535 92.0352C860.918 92.0352 851.812 104.258 851.812 122.592C851.812 140.844 860.918 152.984 874.535 152.984ZM874.535 151.467C864.896 151.467 858.498 139.9 858.498 122.592C858.498 105.201 864.896 93.5938 874.535 93.5938C884.256 93.5938 890.654 105.242 890.654 122.592C890.654 139.859 884.256 151.467 874.535 151.467ZM920.309 152H939.463C951.768 152 959.068 147.037 959.068 136.127C959.068 128.58 954.885 122.387 946.846 121.238V121.074C953.408 119.229 957.141 113.732 957.141 106.842C957.141 99.5 952.383 92.9785 941.062 92.9785H920.309V93.7988L926.379 96.0137V148.965L920.309 151.18V152ZM932.367 120.664V94.5371H939.504C946.887 94.5371 950.537 99.2949 950.537 107.375C950.537 114.635 947.461 120.664 940.324 120.664H932.367ZM932.367 150.441V122.223H940.611C948.732 122.223 952.383 127.596 952.383 136.127C952.383 144.74 948.527 150.441 940.242 150.441H932.367ZM963.949 152H982.652V151.18L975.926 148.965V94.5371H982.324C989.502 94.5371 994.178 99.0488 994.178 109.836C994.178 119.803 990.035 126.037 982.652 126.037H979.084V127.596H982.734C993.891 127.596 1000.82 121.484 1000.82 109.836C1000.82 100.279 995.49 92.9785 984.416 92.9785H963.949V93.7988L969.938 96.0137V149.006L963.949 151.18V152ZM1003.9 152H1040.2L1042.04 137.604L1041.71 137.521L1034.82 150.441H1015.96V122.51H1026.79L1030.31 130.18H1030.89V113.199H1030.31L1026.79 120.951H1015.96V94.5371H1032.49L1037.53 107.375H1037.82V92.9785H1003.94V93.7988L1009.97 96.0137V149.006L1003.9 151.18V152ZM1044.83 152H1060.54V151.18L1053.4 148.514V99.459L1073.09 146.053H1074.98L1094.75 99.9102V148.965L1088.51 151.18V152H1106.97V151.18L1100.74 148.965V96.0137L1106.97 93.7988V92.9785H1096.06L1076.21 139.367L1056.89 92.9785H1044.87V93.7988L1051.93 96.0137V148.514L1044.83 151.18V152ZM1154.43 152V151.18L1148.4 149.006V96.0137L1154.43 93.7988V92.9785H1133.06C1122.68 92.9785 1117.06 98.8027 1117.06 107.58C1117.06 117.383 1123.05 122.387 1130.19 123.781V123.986C1128.63 124.396 1127.03 124.725 1126.17 124.684L1115.01 148.678L1110.46 151.18L1110.42 152H1120.34L1132.56 124.109C1133.84 124.314 1135.15 124.396 1136.34 124.396H1139.82V122.838H1136.13C1127.44 122.838 1123.75 117.465 1123.75 107.826C1123.75 99.9512 1126.99 94.5371 1134.98 94.5371H1142.41V148.965L1136.54 151.18V152H1154.43ZM25.7578 244.984C39.416 244.984 48.5215 232.803 48.5215 214.592C48.5215 196.299 39.416 184.035 25.7578 184.035C12.1406 184.035 3.03516 196.258 3.03516 214.592C3.03516 232.844 12.1406 244.984 25.7578 244.984ZM25.7578 243.467C16.1191 243.467 9.7207 231.9 9.7207 214.592C9.7207 197.201 16.1191 185.594 25.7578 185.594C35.4785 185.594 41.877 197.242 41.877 214.592C41.877 231.859 35.4785 243.467 25.7578 243.467ZM91.0957 240.965L72.3516 210.654L86.748 191.459L95.2383 191.336H95.6895L95.7305 184.979H94.9512C89.6602 184.979 87.6914 187.439 84.123 192.115L68.7832 212.131H64.7637V188.014L71.2441 185.799V184.979H52.3359V185.799L58.7754 188.014V241.006L52.3359 243.18V244H71.2441V243.18L64.7637 240.965V213.771H67.3887L85.9277 244H97.248V242.77L91.0957 240.965ZM139.576 240.965L120.832 210.654L135.229 191.459L143.719 191.336H144.17L144.211 184.979H143.432C138.141 184.979 136.172 187.439 132.604 192.115L117.264 212.131H113.244V188.014L119.725 185.799V184.979H100.816V185.799L107.256 188.014V241.006L100.816 243.18V244H119.725V243.18L113.244 240.965V213.771H115.869L134.408 244H145.729V242.77L139.576 240.965ZM155.818 244.984C161.314 244.533 165.334 242.359 171.363 227.922L190.066 188.014L196.67 185.84V184.979H181.576V185.84L188.18 188.014L174.398 217.504L160.33 188.014L166.072 185.84V184.979H147.369V185.84L153.727 188.014L171.24 223.984L167.18 233.213C163.406 234.32 159.428 234.689 155.613 234.156L154.957 234.525L155.818 244.984ZM198.926 244H217.055V243.18L210.943 240.965V186.496H237.439V241.006L231.41 243.18V244H249.539V243.18L243.346 240.965V188.014L249.457 185.799V184.979H198.926V185.799L204.955 188.014V241.006L198.926 243.18V244ZM295.436 240.965L278.291 184.979H269.965V185.799L273.205 189.9L258.111 240.965L251.713 243.18V244H267.176V243.18L259.588 240.965L264.51 224.189H284.115L289.078 240.965L283.336 243.18V244H301.547V243.18L295.436 240.965ZM264.961 222.631L274.271 191.008L283.664 222.631H264.961ZM355.113 256.838H355.4V242.482H348.551V188.014L354.744 185.799V184.979H336.574V185.799L342.645 188.014V242.482H316.107V188.014L322.26 185.799V184.979H304.09V185.799L310.119 188.014V241.006L304.09 243.18V244H349.904L355.113 256.838ZM403.389 240.965V188.014L409.5 185.799V184.979H391.371V185.799L397.482 188.014V192.033L370.986 232.188V188.014L377.098 185.799V184.979H358.969V185.799L364.998 188.014V241.006L358.969 243.18V244H377.098V243.18L370.986 240.965V234.771L397.482 194.617V241.006L391.453 243.18V244H409.582V243.18L403.389 240.965ZM457.939 240.965V188.014L464.051 185.799V184.979H445.922V185.799L452.033 188.014V192.033L425.537 232.188V188.014L431.648 185.799V184.979H413.52V185.799L419.549 188.014V241.006L413.52 243.18V244H431.648V243.18L425.537 240.965V234.771L452.033 194.617V241.006L446.004 243.18V244H464.133V243.18L457.939 240.965ZM495.633 244H514.541V243.18L508.102 240.965V186.537H518.479L522.949 197.898H523.277V184.979H486.896V197.898H487.266L491.654 186.537H502.113V240.965L495.633 243.18V244ZM528.117 244H564.416L566.262 229.604L565.934 229.521L559.043 242.441H540.176V214.51H551.004L554.531 222.18H555.105V205.199H554.531L551.004 212.951H540.176V186.537H556.705L561.75 199.375H562.037V184.979H528.158V185.799L534.188 188.014V241.006L528.117 243.18V244ZM569.051 244H587.754V243.18L581.027 240.965V186.537H587.426C594.604 186.537 599.279 191.049 599.279 201.836C599.279 211.803 595.137 218.037 587.754 218.037H584.186V219.596H587.836C598.992 219.596 605.924 213.484 605.924 201.836C605.924 192.279 600.592 184.979 589.518 184.979H569.051V185.799L575.039 188.014V241.006L569.051 243.18V244ZM609 244H627.703V243.18L620.977 240.965V186.537H627.375C634.553 186.537 639.229 191.049 639.229 201.836C639.229 211.803 635.086 218.037 627.703 218.037H624.135V219.596H627.785C638.941 219.596 645.873 213.484 645.873 201.836C645.873 192.279 640.541 184.979 629.467 184.979H609V185.799L614.988 188.014V241.006L609 243.18V244ZM693.369 240.965V188.014L699.48 185.799V184.979H681.352V185.799L687.463 188.014V192.033L660.967 232.188V188.014L667.078 185.799V184.979H648.949V185.799L654.979 188.014V241.006L648.949 243.18V244H667.078V243.18L660.967 240.965V234.771L687.463 194.617V241.006L681.434 243.18V244H699.562V243.18L693.369 240.965ZM713.098 244H732.006V243.18L725.566 240.965V186.537H735.943L740.414 197.898H740.742V184.979H704.361V197.898H704.73L709.119 186.537H719.578V240.965L713.098 243.18V244ZM765.762 244.984C779.42 244.984 788.525 232.803 788.525 214.592C788.525 196.299 779.42 184.035 765.762 184.035C752.145 184.035 743.039 196.258 743.039 214.592C743.039 232.844 752.145 244.984 765.762 244.984ZM765.762 243.467C756.123 243.467 749.725 231.9 749.725 214.592C749.725 197.201 756.123 185.594 765.762 185.594C775.482 185.594 781.881 197.242 781.881 214.592C781.881 231.859 775.482 243.467 765.762 243.467ZM792.34 244H811.043V243.18L804.316 240.965V186.537H810.715C817.893 186.537 822.568 191.049 822.568 201.836C822.568 211.803 818.426 218.037 811.043 218.037H807.475V219.596H811.125C822.281 219.596 829.213 213.484 829.213 201.836C829.213 192.279 823.881 184.979 812.807 184.979H792.34V185.799L798.328 188.014V241.006L792.34 243.18V244ZM876.709 240.965V188.014L882.82 185.799V184.979H864.691V185.799L870.803 188.014V192.033L844.307 232.188V188.014L850.418 185.799V184.979H832.289V185.799L838.318 188.014V241.006L832.289 243.18V244H850.418V243.18L844.307 240.965V234.771L870.803 194.617V241.006L864.773 243.18V244H882.902V243.18L876.709 240.965ZM912.064 180.795C916.863 180.795 919.16 175.545 919.242 170.828L918.791 170.623C918.258 174.027 916.207 176.16 912.064 176.16C907.963 176.16 905.953 174.027 905.42 170.623L904.969 170.828C905.051 175.709 907.43 180.795 912.064 180.795ZM931.26 240.965V188.014L937.371 185.799V184.979H919.242V185.799L925.354 188.014V192.033L898.857 232.188V188.014L904.969 185.799V184.979H886.84V185.799L892.869 188.014V241.006L886.84 243.18V244H904.969V243.18L898.857 240.965V234.771L925.354 194.617V241.006L919.324 243.18V244H937.453V243.18L931.26 240.965ZM43.9277 332.965L26.7832 276.979H18.457V277.799L21.6973 281.9L6.60352 332.965L0.205078 335.18V336H15.668V335.18L8.08008 332.965L13.002 316.189H32.6074L37.5703 332.965L31.8281 335.18V336H50.0391V335.18L43.9277 332.965ZM13.4531 314.631L22.7637 283.008L32.1562 314.631H13.4531ZM67.3066 336.984C77.2734 336.984 84.1641 330.381 84.1641 320.701C84.1641 311.883 78.9551 305.977 71.3672 304.172C78.5449 301.916 82.7695 296.748 82.7695 289.98C82.7695 282.105 77.6426 276.035 68.8652 276.035C63 276.035 59.1035 278.045 56.2734 279.727L55.4941 294.574H56.0273C57.873 287.766 60.9492 277.553 68.7012 277.553C73.7461 277.553 76.4941 283.008 76.4941 289.98C76.4941 298.553 71.8184 302.326 63.7383 304.869V306.059C72.1875 307.494 78.1348 311.35 78.1348 321.768C78.1348 329.602 74.3203 335.467 67.5938 335.467C60.375 335.467 57.0117 326.32 54.8379 318.363H54.2227L55.002 333.129C57.1758 335.016 62.5078 336.984 67.3066 336.984ZM89.0039 336H125.303L127.148 321.604L126.82 321.521L119.93 334.441H101.062V306.51H111.891L115.418 314.18H115.992V297.199H115.418L111.891 304.951H101.062V278.537H117.592L122.637 291.375H122.924V276.979H89.0449V277.799L95.0742 280.014V333.006L89.0039 335.18V336ZM129.938 336H148.641V335.18L141.914 332.965V278.537H148.312C155.49 278.537 160.166 283.049 160.166 293.836C160.166 303.803 156.023 310.037 148.641 310.037H145.072V311.596H148.723C159.879 311.596 166.811 305.484 166.811 293.836C166.811 284.279 161.479 276.979 150.404 276.979H129.938V277.799L135.926 280.014V333.006L129.938 335.18V336ZM170.01 336H189.041C201.346 336 208.646 331.037 208.646 320.127C208.646 309.012 200.32 304.664 190.189 304.664H181.945V278.496H198.311L203.396 291.375H203.643V276.979H169.887V277.799L175.957 280.014V333.047L170.01 335.18V336ZM181.945 334.482V306.223H190.189C198.311 306.223 202.002 311.596 202.002 320.127C202.002 328.74 198.105 334.482 189.82 334.482H181.945ZM255.486 332.965L238.342 276.979H230.016V277.799L233.256 281.9L218.162 332.965L211.764 335.18V336H227.227V335.18L219.639 332.965L224.561 316.189H244.166L249.129 332.965L243.387 335.18V336H261.598V335.18L255.486 332.965ZM225.012 314.631L234.322 283.008L243.715 314.631H225.012ZM289.365 272.795C294.164 272.795 296.461 267.545 296.543 262.828L296.092 262.623C295.559 266.027 293.508 268.16 289.365 268.16C285.264 268.16 283.254 266.027 282.721 262.623L282.27 262.828C282.352 267.709 284.73 272.795 289.365 272.795ZM308.561 332.965V280.014L314.672 277.799V276.979H296.543V277.799L302.654 280.014V284.033L276.158 324.188V280.014L282.27 277.799V276.979H264.141V277.799L270.17 280.014V333.006L264.141 335.18V336H282.27V335.18L276.158 332.965V326.771L302.654 286.617V333.006L296.625 335.18V336H314.754V335.18L308.561 332.965ZM317.461 348.838H317.789L322.957 336H362.332L367.5 348.838H367.787V334.482H361.02V280.014L367.049 277.799V276.979H325.5V277.799L332.391 280.014C332.432 299.496 332.432 326.361 321.07 334.482H317.461V348.838ZM323.654 334.482C334.482 324.803 333.949 297.445 334.031 278.496H355.072V334.482H323.654ZM431.607 332.965L412.863 302.654L427.26 283.459L435.75 283.336H436.201L436.242 276.979H435.463C430.172 276.979 428.203 279.439 424.635 284.115L409.295 304.131H407.326V280.014L413.807 277.799V276.979H394.898V277.799L401.338 280.014V304.131H399.451L384.111 284.115C380.543 279.439 378.574 276.979 373.283 276.979H372.504L372.545 283.336H372.996L381.486 283.459L395.883 302.654L377.139 332.965L370.986 334.77V336H382.307L400.846 305.771H401.338V333.006L394.898 335.18V336H413.807V335.18L407.326 332.965V305.771H407.9L426.439 336H437.76V334.77L431.607 332.965ZM483.287 332.965L466.143 276.979H457.816V277.799L461.057 281.9L445.963 332.965L439.564 335.18V336H455.027V335.18L447.439 332.965L452.361 316.189H471.967L476.93 332.965L471.188 335.18V336H489.398V335.18L483.287 332.965ZM452.812 314.631L462.123 283.008L471.516 314.631H452.812ZM491.941 336H510.07V335.18L503.959 332.965V306.551H530.373V333.006L524.344 335.18V336H542.473V335.18L536.361 332.965V280.014L542.473 277.799V276.979H524.344V277.799L530.373 280.014V304.992H503.959V280.014L510.07 277.799V276.979H491.941V277.799L497.971 280.014V333.006L491.941 335.18V336ZM569.912 336.984C573.973 336.984 578.32 336.369 585.047 332.062L585.949 317.625H585.334C582.504 328.781 578.977 335.467 570.199 335.467C559.125 335.467 552.973 323.572 552.973 306.551C552.973 290.062 558.715 277.594 569.625 277.594C579.838 277.594 582.668 284.936 585.334 295.395H585.949L585.047 280.957C578.32 276.609 573.973 276.035 570.24 276.035C555.393 276.035 546.246 288.873 546.246 306.551C546.246 324.146 555.68 336.984 569.912 336.984ZM630.041 332.965L611.297 302.654L625.693 283.459L634.184 283.336H634.635L634.676 276.979H633.896C628.605 276.979 626.637 279.439 623.068 284.115L607.729 304.131H603.709V280.014L610.189 277.799V276.979H591.281V277.799L597.721 280.014V333.006L591.281 335.18V336H610.189V335.18L603.709 332.965V305.771H606.334L624.873 336H636.193V334.77L630.041 332.965ZM657.152 336.984C670.811 336.984 679.916 324.803 679.916 306.592C679.916 288.299 670.811 276.035 657.152 276.035C643.535 276.035 634.43 288.258 634.43 306.592C634.43 324.844 643.535 336.984 657.152 336.984ZM657.152 335.467C647.514 335.467 641.115 323.9 641.115 306.592C641.115 289.201 647.514 277.594 657.152 277.594C666.873 277.594 673.271 289.242 673.271 306.592C673.271 323.859 666.873 335.467 657.152 335.467ZM708.955 272.795C713.754 272.795 716.051 267.545 716.133 262.828L715.682 262.623C715.148 266.027 713.098 268.16 708.955 268.16C704.854 268.16 702.844 266.027 702.311 262.623L701.859 262.828C701.941 267.709 704.32 272.795 708.955 272.795ZM728.15 332.965V280.014L734.262 277.799V276.979H716.133V277.799L722.244 280.014V284.033L695.748 324.188V280.014L701.859 277.799V276.979H683.73V277.799L689.76 280.014V333.006L683.73 335.18V336H701.859V335.18L695.748 332.965V326.771L722.244 286.617V333.006L716.215 335.18V336H734.344V335.18L728.15 332.965ZM756.246 336H774.949V335.18L768.223 332.965V278.537H774.621C781.799 278.537 786.475 283.049 786.475 293.836C786.475 303.803 782.332 310.037 774.949 310.037H771.381V311.596H775.031C786.188 311.596 793.119 305.484 793.119 293.836C793.119 284.279 787.787 276.979 776.713 276.979H756.246V277.799L762.234 280.014V333.006L756.246 335.18V336ZM796.195 336H832.494L834.34 321.604L834.012 321.521L827.121 334.441H808.254V306.51H819.082L822.609 314.18H823.184V297.199H822.609L819.082 304.951H808.254V278.537H824.783L829.828 291.375H830.115V276.979H796.236V277.799L802.266 280.014V333.006L796.195 335.18V336ZM861.861 336.984C865.922 336.984 870.27 336.369 876.996 332.062L877.898 317.625H877.283C874.453 328.781 870.926 335.467 862.148 335.467C851.074 335.467 844.922 323.572 844.922 306.551C844.922 290.062 850.664 277.594 861.574 277.594C871.787 277.594 874.617 284.936 877.283 295.395H877.898L876.996 280.957C870.27 276.609 865.922 276.035 862.189 276.035C847.342 276.035 838.195 288.873 838.195 306.551C838.195 324.146 847.629 336.984 861.861 336.984ZM883.23 336H901.359V335.18L895.248 332.965V278.496H921.744V333.006L915.715 335.18V336H933.844V335.18L927.65 332.965V280.014L933.762 277.799V276.979H883.23V277.799L889.26 280.014V333.006L883.23 335.18V336ZM944.303 336.984C949.799 336.533 953.818 334.359 959.848 319.922L978.551 280.014L985.154 277.84V276.979H970.061V277.84L976.664 280.014L962.883 309.504L948.814 280.014L954.557 277.84V276.979H935.854V277.84L942.211 280.014L959.725 315.984L955.664 325.213C951.891 326.32 947.912 326.689 944.098 326.156L943.441 326.525L944.303 336.984ZM987.533 336H1006.56C1018.87 336 1026.17 331.037 1026.17 320.127C1026.17 309.012 1017.84 304.664 1007.71 304.664H999.469V278.496H1015.83L1020.92 291.375H1021.17V276.979H987.41V277.799L993.48 280.014V333.047L987.533 335.18V336ZM999.469 334.482V306.223H1007.71C1015.83 306.223 1019.53 311.596 1019.53 320.127C1019.53 328.74 1015.63 334.482 1007.34 334.482H999.469ZM1035.81 336.984C1047.74 336.984 1047.42 298.717 1047.42 278.496H1069.44V333.006L1063.41 335.18V336H1081.54V335.18L1075.35 332.965V280.014L1081.46 277.799V276.979H1038.93V277.799L1045.82 280.014C1045.82 297.199 1045.86 335.467 1036.01 335.467C1033.68 335.467 1031.58 329.479 1030.52 326.197H1029.94L1029.82 334.934C1031.13 336.164 1032.77 336.984 1035.81 336.984ZM1129.94 332.965V280.014L1136.05 277.799V276.979H1117.92V277.799L1124.03 280.014V284.033L1097.54 324.188V280.014L1103.65 277.799V276.979H1085.52V277.799L1091.55 280.014V333.006L1085.52 335.18V336H1103.65V335.18L1097.54 332.965V326.771L1124.03 286.617V333.006L1118 335.18V336H1136.13V335.18L1129.94 332.965ZM1178.83 332.965L1160.09 302.654L1174.48 283.459L1182.97 283.336H1183.42L1183.46 276.979H1182.69C1177.39 276.979 1175.43 279.439 1171.86 284.115L1156.52 304.131H1152.5V280.014L1158.98 277.799V276.979H1140.07V277.799L1146.51 280.014V333.006L1140.07 335.18V336H1158.98V335.18L1152.5 332.965V305.771H1155.12L1173.66 336H1184.98V334.77L1178.83 332.965ZM1232.97 332.965V280.014L1239.08 277.799V276.979H1220.95V277.799L1227.06 280.014V284.033L1200.57 324.188V280.014L1206.68 277.799V276.979H1188.55V277.799L1194.58 280.014V333.006L1188.55 335.18V336H1206.68V335.18L1200.57 332.965V326.771L1227.06 286.617V333.006L1221.04 335.18V336H1239.16V335.18L1232.97 332.965Z" fill="white"></path> </svg> 