<?xml version="1.0" encoding="UTF-8"?> <svg xmlns="http://www.w3.org/2000/svg" width="303" height="61" viewBox="0 0 303 61" fill="none"> <path d="M43.9277 56.9648L26.7832 0.978516H18.457V1.79883L21.6973 5.90039L6.60352 56.9648L0.205078 59.1797V60H15.668V59.1797L8.08008 56.9648L13.002 40.1895H32.6074L37.5703 56.9648L31.8281 59.1797V60H50.0391V59.1797L43.9277 56.9648ZM13.4531 38.6309L22.7637 7.00781L32.1562 38.6309H13.4531ZM57.3398 60.9844C69.2754 60.9844 68.9473 22.7168 68.9473 2.49609H90.9727V57.0059L84.9434 59.1797V60H103.072V59.1797L96.8789 56.9648V4.01367L102.99 1.79883V0.978516H60.457V1.79883L67.3477 4.01367C67.3477 21.1992 67.3887 59.4668 57.5449 59.4668C55.207 59.4668 53.1152 53.4785 52.0488 50.1973H51.4746L51.3516 58.9336C52.6641 60.1641 54.3047 60.9844 57.3398 60.9844ZM107.051 60H143.35L145.195 45.6035L144.867 45.5215L137.977 58.4414H119.109V30.5098H129.938L133.465 38.1797H134.039V21.1992H133.465L129.938 28.9512H119.109V2.53711H135.639L140.684 15.375H140.971V0.978516H107.092V1.79883L113.121 4.01367V57.0059L107.051 59.1797V60ZM147.984 60H166.113V59.1797L160.002 56.9648V2.49609H186.498V57.0059L180.469 59.1797V60H198.598V59.1797L192.404 56.9648V4.01367L198.516 1.79883V0.978516H147.984V1.79883L154.014 4.01367V57.0059L147.984 59.1797V60ZM202.535 60H220.664V59.1797L214.553 56.9648V2.49609H241.049V57.0059L235.02 59.1797V60H253.148V59.1797L246.955 56.9648V4.01367L253.066 1.79883V0.978516H202.535V1.79883L208.564 4.01367V57.0059L202.535 59.1797V60ZM279.645 60.9844C293.303 60.9844 302.408 48.8027 302.408 30.5918C302.408 12.2988 293.303 0.0351562 279.645 0.0351562C266.027 0.0351562 256.922 12.2578 256.922 30.5918C256.922 48.8438 266.027 60.9844 279.645 60.9844ZM279.645 59.4668C270.006 59.4668 263.607 47.9004 263.607 30.5918C263.607 13.2012 270.006 1.59375 279.645 1.59375C289.365 1.59375 295.764 13.2422 295.764 30.5918C295.764 47.8594 289.365 59.4668 279.645 59.4668Z" fill="black"></path> </svg> 