<?xml version="1.0" encoding="UTF-8"?> <svg xmlns="http://www.w3.org/2000/svg" width="993" height="152" viewBox="0 0 993 152" fill="none"> <path d="M25.7012 60.9844C29.7617 60.9844 34.1094 60.3691 40.8359 56.0625L41.7383 41.625H41.123C38.293 52.7812 34.7656 59.4668 25.9883 59.4668C14.9141 59.4668 8.76172 47.5723 8.76172 30.5508C8.76172 14.0625 14.5039 1.59375 25.4141 1.59375C35.627 1.59375 38.457 8.93555 41.123 19.3945H41.7383L40.8359 4.95703C34.1094 0.609375 29.7617 0.0351562 26.0293 0.0351562C11.1816 0.0351562 2.03516 12.873 2.03516 30.5508C2.03516 48.1465 11.4688 60.9844 25.7012 60.9844ZM47.0703 60H83.3691L85.2148 45.6035L84.8867 45.5215L77.9961 58.4414H59.1289V30.5098H69.957L73.4844 38.1797H74.0586V21.1992H73.4844L69.957 28.9512H59.1289V2.53711H75.6582L80.7031 15.375H80.9902V0.978516H47.1113V1.79883L53.1406 4.01367V57.0059L47.0703 59.1797V60ZM92.7617 60.9844C104.697 60.9844 104.369 22.7168 104.369 2.49609H126.395V57.0059L120.365 59.1797V60H138.494V59.1797L132.301 56.9648V4.01367L138.412 1.79883V0.978516H95.8789V1.79883L102.77 4.01367C102.77 21.1992 102.811 59.4668 92.9668 59.4668C90.6289 59.4668 88.5371 53.4785 87.4707 50.1973H86.8965L86.7734 58.9336C88.0859 60.1641 89.7266 60.9844 92.7617 60.9844ZM184.432 56.9648L167.287 0.978516H158.961V1.79883L162.201 5.90039L147.107 56.9648L140.709 59.1797V60H156.172V59.1797L148.584 56.9648L153.506 40.1895H173.111L178.074 56.9648L172.332 59.1797V60H190.543V59.1797L184.432 56.9648ZM153.957 38.6309L163.268 7.00781L172.66 38.6309H153.957ZM255.471 56.9648V4.01367L261.582 1.79883V0.978516H243.453V1.79883L249.564 4.01367V8.0332L223.068 48.1875V4.01367L229.18 1.79883V0.978516H211.051V1.79883L217.08 4.01367V57.0059L211.051 59.1797V60H229.18V59.1797L223.068 56.9648V50.7715L249.564 10.6172V57.0059L243.535 59.1797V60H261.664V59.1797L255.471 56.9648ZM283.566 60H302.557V59.1797L295.543 56.9648V2.49609H311.17L316.215 15.375H316.502V0.978516H283.566V1.79883L289.555 4.01367V57.0059L283.566 59.1797V60ZM341.48 60.9844C355.139 60.9844 364.244 48.8027 364.244 30.5918C364.244 12.2988 355.139 0.0351562 341.48 0.0351562C327.863 0.0351562 318.758 12.2578 318.758 30.5918C318.758 48.8438 327.863 60.9844 341.48 60.9844ZM341.48 59.4668C331.842 59.4668 325.443 47.9004 325.443 30.5918C325.443 13.2012 331.842 1.59375 341.48 1.59375C351.201 1.59375 357.6 13.2422 357.6 30.5918C357.6 47.8594 351.201 59.4668 341.48 59.4668ZM368.059 60H386.762V59.1797L380.035 56.9648V2.53711H386.434C393.611 2.53711 398.287 7.04883 398.287 17.8359C398.287 27.8027 394.145 34.0371 386.762 34.0371H383.193V35.5957H386.844C398 35.5957 404.932 29.4844 404.932 17.8359C404.932 8.2793 399.6 0.978516 388.525 0.978516H368.059V1.79883L374.047 4.01367V57.0059L368.059 59.1797V60ZM431.797 60.9844C445.455 60.9844 454.561 48.8027 454.561 30.5918C454.561 12.2988 445.455 0.0351562 431.797 0.0351562C418.18 0.0351562 409.074 12.2578 409.074 30.5918C409.074 48.8438 418.18 60.9844 431.797 60.9844ZM431.797 59.4668C422.158 59.4668 415.76 47.9004 415.76 30.5918C415.76 13.2012 422.158 1.59375 431.797 1.59375C441.518 1.59375 447.916 13.2422 447.916 30.5918C447.916 47.8594 441.518 59.4668 431.797 59.4668ZM455.176 72.8379H455.504L460.672 60H500.047L505.215 72.8379H505.502V58.4824H498.734V4.01367L504.764 1.79883V0.978516H463.215V1.79883L470.105 4.01367C470.146 23.4961 470.146 50.3613 458.785 58.4824H455.176V72.8379ZM461.369 58.4824C472.197 48.8027 471.664 21.4453 471.746 2.49609H492.787V58.4824H461.369ZM551.029 56.9648L533.885 0.978516H525.559V1.79883L528.799 5.90039L513.705 56.9648L507.307 59.1797V60H522.77V59.1797L515.182 56.9648L520.104 40.1895H539.709L544.672 56.9648L538.93 59.1797V60H557.141V59.1797L551.029 56.9648ZM520.555 38.6309L529.865 7.00781L539.258 38.6309H520.555ZM561.734 38.8359H575.105V37.4004H561.734V38.8359ZM581.094 60H596.803V59.1797L589.666 56.5137V7.45898L609.354 54.0527H611.24L631.01 7.91016V56.9648L624.775 59.1797V60H643.232V59.1797L636.998 56.9648V4.01367L643.232 1.79883V0.978516H632.322L612.471 47.3672L593.152 0.978516H581.135V1.79883L588.189 4.01367V56.5137L581.094 59.1797V60ZM653.732 60.9844C659.229 60.5332 663.248 58.3594 669.277 43.9219L687.98 4.01367L694.584 1.83984V0.978516H679.49V1.83984L686.094 4.01367L672.312 33.5039L658.244 4.01367L663.986 1.83984V0.978516H645.283V1.83984L651.641 4.01367L669.154 39.9844L665.094 49.2129C661.32 50.3203 657.342 50.6895 653.527 50.1562L652.871 50.5254L653.732 60.9844ZM721.572 60H739.414V59.1797L733.467 56.9648V4.01367L739.414 1.79883V0.978516H721.572V1.79883L727.479 4.01367V30.6328C724.895 33.9961 721.039 34.6934 717.594 34.6934C711.893 34.6934 707.012 31.4531 707.012 22.1426V4.01367L712.918 1.79883V0.978516H695.117V1.79883L701.064 4.01367V22.8398C701.064 33.668 707.955 37.9746 714.477 37.9746C719.152 37.9746 724.115 36.498 727.479 32.3555V57.0059L721.572 59.1797V60ZM743.352 60H779.65L781.496 45.6035L781.168 45.5215L774.277 58.4414H755.41V30.5098H766.238L769.766 38.1797H770.34V21.1992H769.766L766.238 28.9512H755.41V2.53711H771.939L776.984 15.375H777.271V0.978516H743.393V1.79883L749.422 4.01367V57.0059L743.352 59.1797V60ZM784.285 60H802.414V59.1797L796.303 56.9648V30.5508H822.717V57.0059L816.688 59.1797V60H834.816V59.1797L828.705 56.9648V4.01367L834.816 1.79883V0.978516H816.688V1.79883L822.717 4.01367V28.9922H796.303V4.01367L802.414 1.79883V0.978516H784.285V1.79883L790.314 4.01367V57.0059L784.285 59.1797V60ZM883.174 56.9648V4.01367L889.285 1.79883V0.978516H871.156V1.79883L877.268 4.01367V8.0332L850.771 48.1875V4.01367L856.883 1.79883V0.978516H838.754V1.79883L844.783 4.01367V57.0059L838.754 59.1797V60H856.883V59.1797L850.771 56.9648V50.7715L877.268 10.6172V57.0059L871.238 59.1797V60H889.367V59.1797L883.174 56.9648ZM932.064 56.9648L913.32 26.6543L927.717 7.45898L936.207 7.33594H936.658L936.699 0.978516H935.92C930.629 0.978516 928.66 3.43945 925.092 8.11523L909.752 28.1309H905.732V4.01367L912.213 1.79883V0.978516H893.305V1.79883L899.744 4.01367V57.0059L893.305 59.1797V60H912.213V59.1797L905.732 56.9648V29.7715H908.357L926.896 60H938.217V58.7695L932.064 56.9648ZM986.205 56.9648V4.01367L992.316 1.79883V0.978516H974.188V1.79883L980.299 4.01367V8.0332L953.803 48.1875V4.01367L959.914 1.79883V0.978516H941.785V1.79883L947.814 4.01367V57.0059L941.785 59.1797V60H959.914V59.1797L953.803 56.9648V50.7715L980.299 10.6172V57.0059L974.27 59.1797V60H992.398V59.1797L986.205 56.9648ZM39.7285 148.965L20.9844 118.654L35.3809 99.459L43.8711 99.3359H44.3223L44.3633 92.9785H43.584C38.293 92.9785 36.3242 95.4395 32.7559 100.115L17.416 120.131H13.3965V96.0137L19.877 93.7988V92.9785H0.96875V93.7988L7.4082 96.0137V149.006L0.96875 151.18V152H19.877V151.18L13.3965 148.965V121.771H16.0215L34.5605 152H45.8809V150.77L39.7285 148.965ZM91.4082 148.965L74.2637 92.9785H65.9375V93.7988L69.1777 97.9004L54.084 148.965L47.6855 151.18V152H63.1484V151.18L55.5605 148.965L60.4824 132.189H80.0879L85.0508 148.965L79.3086 151.18V152H97.5195V151.18L91.4082 148.965ZM60.9336 130.631L70.2441 99.0078L79.6367 130.631H60.9336ZM100.062 152H118.766V151.18L112.039 148.965V94.5371H118.438C125.615 94.5371 130.291 99.0488 130.291 109.836C130.291 119.803 126.148 126.037 118.766 126.037H115.197V127.596H118.848C130.004 127.596 136.936 121.484 136.936 109.836C136.936 100.279 131.604 92.9785 120.529 92.9785H100.062V93.7988L106.051 96.0137V149.006L100.062 151.18V152ZM173.768 148.965L156.623 92.9785H148.297V93.7988L151.537 97.9004L136.443 148.965L130.045 151.18V152H145.508V151.18L137.92 148.965L142.842 132.189H162.447L167.41 148.965L161.668 151.18V152H179.879V151.18L173.768 148.965ZM143.293 130.631L152.604 99.0078L161.996 130.631H143.293ZM182.545 152H201.576C213.881 152 221.182 147.037 221.182 136.127C221.182 125.012 212.855 120.664 202.725 120.664H194.48V94.4961H210.846L215.932 107.375H216.178V92.9785H182.422V93.7988L188.492 96.0137V149.047L182.545 151.18V152ZM194.48 150.482V122.223H202.725C210.846 122.223 214.537 127.596 214.537 136.127C214.537 144.74 210.641 150.482 202.355 150.482H194.48ZM268.021 148.965L250.877 92.9785H242.551V93.7988L245.791 97.9004L230.697 148.965L224.299 151.18V152H239.762V151.18L232.174 148.965L237.096 132.189H256.701L261.664 148.965L255.922 151.18V152H274.133V151.18L268.021 148.965ZM237.547 130.631L246.857 99.0078L256.25 130.631H237.547ZM318.102 148.965L302.311 119.434L316.297 96.0137L322.695 93.8398V92.9785H308.176V93.8398L314.574 96.0137L301.572 118.039L290.088 96.0137L296.158 93.8398V92.9785H277.66V93.8398L282.992 96.0137L297.43 122.961L282.623 148.965L276.266 151.139V152H290.662V151.139L284.305 148.965L298.25 124.396L311.088 148.965L305.059 151.139V152H323.475V151.139L318.102 148.965ZM368.346 148.965L351.201 92.9785H342.875V93.7988L346.115 97.9004L331.021 148.965L324.623 151.18V152H340.086V151.18L332.498 148.965L337.42 132.189H357.025L361.988 148.965L356.246 151.18V152H374.457V151.18L368.346 148.965ZM337.871 130.631L347.182 99.0078L356.574 130.631H337.871Z" fill="black"></path> </svg> 