<?xml version="1.0" encoding="UTF-8"?> <svg xmlns="http://www.w3.org/2000/svg" width="301" height="61" viewBox="0 0 301 61" fill="none"> <path d="M56.2383 30.5508C56.2383 17.877 47.8711 8.32031 31.1777 7.45898V4.01367L37.207 1.79883V0.978516H19.1602V1.79883L25.1895 4.01367V7.45898C8.49609 8.32031 0.128906 17.918 0.128906 30.5508C0.128906 43.1016 8.49609 52.6992 25.1895 53.5605V57.0059L19.1602 59.1797V60H37.207V59.1797L31.1777 56.9648V53.6016C47.8711 52.6992 56.2383 43.1016 56.2383 30.5508ZM49.5117 30.5508C49.5117 42.7324 44.1797 51.1406 31.1777 52.043V8.97656C44.3027 10.002 49.5117 18.4512 49.5117 30.5508ZM6.85547 30.5508C6.85547 18.4102 12.0645 9.91992 25.1895 8.97656V52.043C12.0645 51.1406 6.85547 42.6504 6.85547 30.5508ZM104.432 56.9648V4.01367L110.543 1.79883V0.978516H92.4141V1.79883L98.5254 4.01367V8.0332L72.0293 48.1875V4.01367L78.1406 1.79883V0.978516H60.0117V1.79883L66.041 4.01367V57.0059L60.0117 59.1797V60H78.1406V59.1797L72.0293 56.9648V50.7715L98.5254 10.6172V57.0059L92.4961 59.1797V60H110.625V59.1797L104.432 56.9648ZM129.287 60.9844C139.254 60.9844 146.145 54.3809 146.145 44.7012C146.145 35.8828 140.936 29.9766 133.348 28.1719C140.525 25.916 144.75 20.748 144.75 13.9805C144.75 6.10547 139.623 0.0351562 130.846 0.0351562C124.98 0.0351562 121.084 2.04492 118.254 3.72656L117.475 18.5742H118.008C119.854 11.7656 122.93 1.55273 130.682 1.55273C135.727 1.55273 138.475 7.00781 138.475 13.9805C138.475 22.5527 133.799 26.3262 125.719 28.8691V30.0586C134.168 31.4941 140.115 35.3496 140.115 45.7676C140.115 53.6016 136.301 59.4668 129.574 59.4668C122.355 59.4668 118.992 50.3203 116.818 42.3633H116.203L116.982 57.1289C119.156 59.0156 124.488 60.9844 129.287 60.9844ZM157.506 60.9844C163.002 60.5332 167.021 58.3594 173.051 43.9219L191.754 4.01367L198.357 1.83984V0.978516H183.264V1.83984L189.867 4.01367L176.086 33.5039L162.018 4.01367L167.76 1.83984V0.978516H149.057V1.83984L155.414 4.01367L172.928 39.9844L168.867 49.2129C165.094 50.3203 161.115 50.6895 157.301 50.1562L156.645 50.5254L157.506 60.9844ZM200.613 60.9844C212.549 60.9844 212.221 22.7168 212.221 2.49609H234.246V57.0059L228.217 59.1797V60H246.346V59.1797L240.152 56.9648V4.01367L246.264 1.79883V0.978516H203.73V1.79883L210.621 4.01367C210.621 21.1992 210.662 59.4668 200.818 59.4668C198.48 59.4668 196.389 53.4785 195.322 50.1973H194.748L194.625 58.9336C195.938 60.1641 197.578 60.9844 200.613 60.9844ZM294.744 56.9648V4.01367L300.855 1.79883V0.978516H282.727V1.79883L288.838 4.01367V8.0332L262.342 48.1875V4.01367L268.453 1.79883V0.978516H250.324V1.79883L256.354 4.01367V57.0059L250.324 59.1797V60H268.453V59.1797L262.342 56.9648V50.7715L288.838 10.6172V57.0059L282.809 59.1797V60H300.938V59.1797L294.744 56.9648Z" fill="black"></path> </svg> 