<?xml version="1.0" encoding="UTF-8"?> <svg xmlns="http://www.w3.org/2000/svg" width="240" height="61" viewBox="0 0 240 61" fill="none"> <path d="M0.96875 60H67.5781V59.1797L61.5488 56.9648V4.01367L67.5781 1.79883V0.978516H49.5723V1.79883L55.5605 4.01367V58.4824H37.0215V4.01367L42.9688 1.79883V0.978516H25.0449V1.79883L31.0742 4.01367V58.4824H12.9453V4.01367L18.9336 1.79883V0.978516H1.00977V1.79883L6.95703 4.01367V57.0059L0.96875 59.1797V60ZM78.0371 60.9844C83.5332 60.5332 87.5527 58.3594 93.582 43.9219L112.285 4.01367L118.889 1.83984V0.978516H103.795V1.83984L110.398 4.01367L96.6172 33.5039L82.5488 4.01367L88.291 1.83984V0.978516H69.5879V1.83984L75.9453 4.01367L93.459 39.9844L89.3984 49.2129C85.625 50.3203 81.6465 50.6895 77.832 50.1562L77.1758 50.5254L78.0371 60.9844ZM121.145 60H187.754V59.1797L181.725 56.9648V4.01367L187.754 1.79883V0.978516H169.748V1.79883L175.736 4.01367V58.4824H157.197V4.01367L163.145 1.79883V0.978516H145.221V1.79883L151.25 4.01367V58.4824H133.121V4.01367L139.109 1.79883V0.978516H121.186V1.79883L127.133 4.01367V57.0059L121.145 59.1797V60ZM233.65 56.9648L216.506 0.978516H208.18V1.79883L211.42 5.90039L196.326 56.9648L189.928 59.1797V60H205.391V59.1797L197.803 56.9648L202.725 40.1895H222.33L227.293 56.9648L221.551 59.1797V60H239.762V59.1797L233.65 56.9648ZM203.176 38.6309L212.486 7.00781L221.879 38.6309H203.176Z" fill="black"></path> </svg> 