<?xml version="1.0" encoding="UTF-8"?> <svg xmlns="http://www.w3.org/2000/svg" width="681" height="257" viewBox="0 0 681 257" fill="none"> <path d="M1.96875 60H20.959V59.1797L13.9453 56.9648V2.49609H29.5723L34.6172 15.375H34.9043V0.978516H1.96875V1.79883L7.95703 4.01367V57.0059L1.96875 59.1797V60ZM39.7031 60H76.002L77.8477 45.6035L77.5195 45.5215L70.6289 58.4414H51.7617V30.5098H62.5898L66.1172 38.1797H66.6914V21.1992H66.1172L62.5898 28.9512H51.7617V2.53711H68.291L73.3359 15.375H73.623V0.978516H39.7441V1.79883L45.7734 4.01367V57.0059L39.7031 59.1797V60ZM80.6367 60H98.7656V59.1797L92.6543 56.9648V30.5508H119.068V57.0059L113.039 59.1797V60H131.168V59.1797L125.057 56.9648V4.01367L131.168 1.79883V0.978516H113.039V1.79883L119.068 4.01367V28.9922H92.6543V4.01367L98.7656 1.79883V0.978516H80.6367V1.79883L86.666 4.01367V57.0059L80.6367 59.1797V60ZM157.664 60.9844C171.322 60.9844 180.428 48.8027 180.428 30.5918C180.428 12.2988 171.322 0.0351562 157.664 0.0351562C144.047 0.0351562 134.941 12.2578 134.941 30.5918C134.941 48.8438 144.047 60.9844 157.664 60.9844ZM157.664 59.4668C148.025 59.4668 141.627 47.9004 141.627 30.5918C141.627 13.2012 148.025 1.59375 157.664 1.59375C167.385 1.59375 173.783 13.2422 173.783 30.5918C173.783 47.8594 167.385 59.4668 157.664 59.4668ZM235.266 72.8379H235.553V58.4824H228.703V4.01367L234.896 1.79883V0.978516H216.727V1.79883L222.797 4.01367V58.4824H196.26V4.01367L202.412 1.79883V0.978516H184.242V1.79883L190.271 4.01367V57.0059L184.242 59.1797V60H230.057L235.266 72.8379ZM283.541 56.9648V4.01367L289.652 1.79883V0.978516H271.523V1.79883L277.635 4.01367V8.0332L251.139 48.1875V4.01367L257.25 1.79883V0.978516H239.121V1.79883L245.15 4.01367V57.0059L239.121 59.1797V60H257.25V59.1797L251.139 56.9648V50.7715L277.635 10.6172V57.0059L271.605 59.1797V60H289.734V59.1797L283.541 56.9648ZM292.441 72.8379H292.77L297.938 60H337.312L342.48 72.8379H342.768V58.4824H336V4.01367L342.029 1.79883V0.978516H300.48V1.79883L307.371 4.01367C307.412 23.4961 307.412 50.3613 296.051 58.4824H292.441V72.8379ZM298.635 58.4824C309.463 48.8027 308.93 21.4453 309.012 2.49609H330.053V58.4824H298.635ZM43.9277 148.965L26.7832 92.9785H18.457V93.7988L21.6973 97.9004L6.60352 148.965L0.205078 151.18V152H15.668V151.18L8.08008 148.965L13.002 132.189H32.6074L37.5703 148.965L31.8281 151.18V152H50.0391V151.18L43.9277 148.965ZM13.4531 130.631L22.7637 99.0078L32.1562 130.631H13.4531ZM67.3066 152.984C77.2734 152.984 84.1641 146.381 84.1641 136.701C84.1641 127.883 78.9551 121.977 71.3672 120.172C78.5449 117.916 82.7695 112.748 82.7695 105.98C82.7695 98.1055 77.6426 92.0352 68.8652 92.0352C63 92.0352 59.1035 94.0449 56.2734 95.7266L55.4941 110.574H56.0273C57.873 103.766 60.9492 93.5527 68.7012 93.5527C73.7461 93.5527 76.4941 99.0078 76.4941 105.98C76.4941 114.553 71.8184 118.326 63.7383 120.869V122.059C72.1875 123.494 78.1348 127.35 78.1348 137.768C78.1348 145.602 74.3203 151.467 67.5938 151.467C60.375 151.467 57.0117 142.32 54.8379 134.363H54.2227L55.002 149.129C57.1758 151.016 62.5078 152.984 67.3066 152.984ZM89.0039 152H125.303L127.148 137.604L126.82 137.521L119.93 150.441H101.062V122.51H111.891L115.418 130.18H115.992V113.199H115.418L111.891 120.951H101.062V94.5371H117.592L122.637 107.375H122.924V92.9785H89.0449V93.7988L95.0742 96.0137V149.006L89.0039 151.18V152ZM129.938 152H148.641V151.18L141.914 148.965V94.5371H148.312C155.49 94.5371 160.166 99.0488 160.166 109.836C160.166 119.803 156.023 126.037 148.641 126.037H145.072V127.596H148.723C159.879 127.596 166.811 121.484 166.811 109.836C166.811 100.279 161.479 92.9785 150.404 92.9785H129.938V93.7988L135.926 96.0137V149.006L129.938 151.18V152ZM170.01 152H189.041C201.346 152 208.646 147.037 208.646 136.127C208.646 125.012 200.32 120.664 190.189 120.664H181.945V94.4961H198.311L203.396 107.375H203.643V92.9785H169.887V93.7988L175.957 96.0137V149.047L170.01 151.18V152ZM181.945 150.482V122.223H190.189C198.311 122.223 202.002 127.596 202.002 136.127C202.002 144.74 198.105 150.482 189.82 150.482H181.945ZM255.486 148.965L238.342 92.9785H230.016V93.7988L233.256 97.9004L218.162 148.965L211.764 151.18V152H227.227V151.18L219.639 148.965L224.561 132.189H244.166L249.129 148.965L243.387 151.18V152H261.598V151.18L255.486 148.965ZM225.012 130.631L234.322 99.0078L243.715 130.631H225.012ZM289.365 88.7949C294.164 88.7949 296.461 83.5449 296.543 78.8281L296.092 78.623C295.559 82.0273 293.508 84.1602 289.365 84.1602C285.264 84.1602 283.254 82.0273 282.721 78.623L282.27 78.8281C282.352 83.709 284.73 88.7949 289.365 88.7949ZM308.561 148.965V96.0137L314.672 93.7988V92.9785H296.543V93.7988L302.654 96.0137V100.033L276.158 140.188V96.0137L282.27 93.7988V92.9785H264.141V93.7988L270.17 96.0137V149.006L264.141 151.18V152H282.27V151.18L276.158 148.965V142.771L302.654 102.617V149.006L296.625 151.18V152H314.754V151.18L308.561 148.965ZM317.461 164.838H317.789L322.957 152H362.332L367.5 164.838H367.787V150.482H361.02V96.0137L367.049 93.7988V92.9785H325.5V93.7988L332.391 96.0137C332.432 115.496 332.432 142.361 321.07 150.482H317.461V164.838ZM323.654 150.482C334.482 140.803 333.949 113.445 334.031 94.4961H355.072V150.482H323.654ZM431.607 148.965L412.863 118.654L427.26 99.459L435.75 99.3359H436.201L436.242 92.9785H435.463C430.172 92.9785 428.203 95.4395 424.635 100.115L409.295 120.131H407.326V96.0137L413.807 93.7988V92.9785H394.898V93.7988L401.338 96.0137V120.131H399.451L384.111 100.115C380.543 95.4395 378.574 92.9785 373.283 92.9785H372.504L372.545 99.3359H372.996L381.486 99.459L395.883 118.654L377.139 148.965L370.986 150.77V152H382.307L400.846 121.771H401.338V149.006L394.898 151.18V152H413.807V151.18L407.326 148.965V121.771H407.9L426.439 152H437.76V150.77L431.607 148.965ZM483.287 148.965L466.143 92.9785H457.816V93.7988L461.057 97.9004L445.963 148.965L439.564 151.18V152H455.027V151.18L447.439 148.965L452.361 132.189H471.967L476.93 148.965L471.188 151.18V152H489.398V151.18L483.287 148.965ZM452.812 130.631L462.123 99.0078L471.516 130.631H452.812ZM491.941 152H510.07V151.18L503.959 148.965V122.551H530.373V149.006L524.344 151.18V152H542.473V151.18L536.361 148.965V96.0137L542.473 93.7988V92.9785H524.344V93.7988L530.373 96.0137V120.992H503.959V96.0137L510.07 93.7988V92.9785H491.941V93.7988L497.971 96.0137V149.006L491.941 151.18V152ZM597.434 164.838H597.721V150.482H590.871V96.0137L597.064 93.7988V92.9785H578.895V93.7988L584.965 96.0137V150.482H558.428V96.0137L564.58 93.7988V92.9785H546.41V93.7988L552.439 96.0137V149.006L546.41 151.18V152H592.225L597.434 164.838ZM601.289 152H637.588L639.434 137.604L639.105 137.521L632.215 150.441H613.348V122.51H624.176L627.703 130.18H628.277V113.199H627.703L624.176 120.951H613.348V94.5371H629.877L634.922 107.375H635.209V92.9785H601.33V93.7988L607.359 96.0137V149.006L601.289 151.18V152ZM642.223 152H661.377C673.682 152 680.982 147.037 680.982 136.127C680.982 128.58 676.799 122.387 668.76 121.238V121.074C675.322 119.229 679.055 113.732 679.055 106.842C679.055 99.5 674.297 92.9785 662.977 92.9785H642.223V93.7988L648.293 96.0137V148.965L642.223 151.18V152ZM654.281 120.664V94.5371H661.418C668.801 94.5371 672.451 99.2949 672.451 107.375C672.451 114.635 669.375 120.664 662.238 120.664H654.281ZM654.281 150.441V122.223H662.525C670.646 122.223 674.297 127.596 674.297 136.127C674.297 144.74 670.441 150.441 662.156 150.441H654.281ZM1.96875 244H21.123C33.4277 244 40.7285 239.037 40.7285 228.127C40.7285 220.58 36.5449 214.387 28.5059 213.238V213.074C35.0684 211.229 38.8008 205.732 38.8008 198.842C38.8008 191.5 34.043 184.979 22.7227 184.979H1.96875V185.799L8.03906 188.014V240.965L1.96875 243.18V244ZM14.0273 212.664V186.537H21.1641C28.5469 186.537 32.1973 191.295 32.1973 199.375C32.1973 206.635 29.1211 212.664 21.9844 212.664H14.0273ZM14.0273 242.441V214.223H22.2715C30.3926 214.223 34.043 219.596 34.043 228.127C34.043 236.74 30.1875 242.441 21.9023 242.441H14.0273ZM64.5176 244H82.7695V243.18L76.8223 240.965V184.035H76.4121L65.543 192.033V192.566H70.834V240.965L64.5176 243.18V244ZM103.646 184.035C94.0898 184.035 86.9531 192.607 86.9531 204.707C86.9531 215.617 93.0234 222.918 101.186 222.918C106.189 222.918 110.004 220.129 112.629 215.986C110.496 227.594 104.754 237.027 93.3105 244.082L93.7207 244.984C112.506 237.355 120.258 222.303 120.258 206.307C120.258 193.469 113.531 184.035 103.646 184.035ZM103.564 185.553C110.455 185.553 113.654 194.289 113.654 204.707C113.654 207.578 113.449 210.654 112.998 213.402C110.783 217.873 107.379 220.088 103.564 220.088C97.084 220.088 93.5156 213.977 93.5156 203.436C93.5156 192.689 97.2891 185.553 103.564 185.553ZM126.861 244H145.113V243.18L139.166 240.965V184.035H138.756L127.887 192.033V192.566H133.178V240.965L126.861 243.18V244ZM169.436 211.844C177.229 209.383 180.428 203.518 180.428 197.693C180.428 189.49 174.521 184.035 166.154 184.035C157.541 184.035 151.635 190.064 151.635 198.76C151.635 205.281 154.506 209.957 162.012 214.305C153.809 216.561 149.789 223.123 149.789 230.26C149.789 239.201 156.434 244.984 166.072 244.984C175.424 244.984 182.438 239.365 182.438 229.275C182.438 222.59 179.689 217.381 169.436 211.844ZM157.254 197.037C157.254 190.105 160.494 185.553 166.4 185.553C172.143 185.553 175.26 190.188 175.26 197.365C175.26 202.779 173.496 207.988 168.451 211.311C161.068 207.25 157.254 203.723 157.254 197.037ZM166.031 243.467C159.059 243.467 154.998 238.463 154.998 230.465C154.998 223.943 157.295 218.078 163.16 214.961C165.785 216.314 176.982 220.744 176.982 230.998C176.982 238.668 172.84 243.467 166.031 243.467ZM205.816 244H224.807V243.18L217.793 240.965V186.496H233.42L238.465 199.375H238.752V184.979H205.816V185.799L211.805 188.014V241.006L205.816 243.18V244ZM263.73 244.984C277.389 244.984 286.494 232.803 286.494 214.592C286.494 196.299 277.389 184.035 263.73 184.035C250.113 184.035 241.008 196.258 241.008 214.592C241.008 232.844 250.113 244.984 263.73 244.984ZM263.73 243.467C254.092 243.467 247.693 231.9 247.693 214.592C247.693 197.201 254.092 185.594 263.73 185.594C273.451 185.594 279.85 197.242 279.85 214.592C279.85 231.859 273.451 243.467 263.73 243.467ZM287.109 256.838H287.438L292.605 244H331.98L337.148 256.838H337.436V242.482H330.668V188.014L336.697 185.799V184.979H295.148V185.799L302.039 188.014C302.08 207.496 302.08 234.361 290.719 242.482H287.109V256.838ZM293.303 242.482C304.131 232.803 303.598 205.445 303.68 186.496H324.721V242.482H293.303ZM347.525 244.984C353.021 244.533 357.041 242.359 363.07 227.922L381.773 188.014L388.377 185.84V184.979H373.283V185.84L379.887 188.014L366.105 217.504L352.037 188.014L357.779 185.84V184.979H339.076V185.84L345.434 188.014L362.947 223.984L358.887 233.213C355.113 234.32 351.135 234.689 347.32 234.156L346.664 234.525L347.525 244.984Z" fill="white"></path> </svg> 