<?xml version="1.0" encoding="UTF-8"?> <svg xmlns="http://www.w3.org/2000/svg" width="991" height="259" viewBox="0 0 991 259" fill="none"> <path d="M42.2461 70.9648L26.4551 41.4336L40.4414 18.0137L46.8398 15.8398V14.9785H32.3203V15.8398L38.7188 18.0137L25.7168 40.0391L14.2324 18.0137L20.3027 15.8398V14.9785H1.80469V15.8398L7.13672 18.0137L21.5742 44.9609L6.76758 70.9648L0.410156 73.1387V74H14.8066V73.1387L8.44922 70.9648L22.3945 46.3965L35.2324 70.9648L29.2031 73.1387V74H47.6191V73.1387L42.2461 70.9648ZM68.0039 74.9844C81.6621 74.9844 90.7676 62.8027 90.7676 44.5918C90.7676 26.2988 81.6621 14.0352 68.0039 14.0352C54.3867 14.0352 45.2812 26.2578 45.2812 44.5918C45.2812 62.8438 54.3867 74.9844 68.0039 74.9844ZM68.0039 73.4668C58.3652 73.4668 51.9668 61.9004 51.9668 44.5918C51.9668 27.2012 58.3652 15.5938 68.0039 15.5938C77.7246 15.5938 84.123 27.2422 84.123 44.5918C84.123 61.8594 77.7246 73.4668 68.0039 73.4668ZM91.3828 86.8379H91.7109L96.8789 74H136.254L141.422 86.8379H141.709V72.4824H134.941V18.0137L140.971 15.7988V14.9785H99.4219V15.7988L106.312 18.0137C106.354 37.4961 106.354 64.3613 94.9922 72.4824H91.3828V86.8379ZM97.5762 72.4824C108.404 62.8027 107.871 35.4453 107.953 16.4961H128.994V72.4824H97.5762ZM205.529 70.9648L186.785 40.6543L201.182 21.459L209.672 21.3359H210.123L210.164 14.9785H209.385C204.094 14.9785 202.125 17.4395 198.557 22.1152L183.217 42.1309H181.248V18.0137L187.729 15.7988V14.9785H168.82V15.7988L175.26 18.0137V42.1309H173.373L158.033 22.1152C154.465 17.4395 152.496 14.9785 147.205 14.9785H146.426L146.467 21.3359H146.918L155.408 21.459L169.805 40.6543L151.061 70.9648L144.908 72.7695V74H156.229L174.768 43.7715H175.26V71.0059L168.82 73.1797V74H187.729V73.1797L181.248 70.9648V43.7715H181.822L200.361 74H211.682V72.7695L205.529 70.9648ZM257.209 70.9648L240.064 14.9785H231.738V15.7988L234.979 19.9004L219.885 70.9648L213.486 73.1797V74H228.949V73.1797L221.361 70.9648L226.283 54.1895H245.889L250.852 70.9648L245.109 73.1797V74H263.32V73.1797L257.209 70.9648ZM226.734 52.6309L236.045 21.0078L245.438 52.6309H226.734ZM270.621 74.9844C282.557 74.9844 282.229 36.7168 282.229 16.4961H304.254V71.0059L298.225 73.1797V74H316.354V73.1797L310.16 70.9648V18.0137L316.271 15.7988V14.9785H273.738V15.7988L280.629 18.0137C280.629 35.1992 280.67 73.4668 270.826 73.4668C268.488 73.4668 266.396 67.4785 265.33 64.1973H264.756L264.633 72.9336C265.945 74.1641 267.586 74.9844 270.621 74.9844ZM364.752 70.9648V18.0137L370.863 15.7988V14.9785H352.734V15.7988L358.846 18.0137V22.0332L332.35 62.1875V18.0137L338.461 15.7988V14.9785H320.332V15.7988L326.361 18.0137V71.0059L320.332 73.1797V74H338.461V73.1797L332.35 70.9648V64.7715L358.846 24.6172V71.0059L352.816 73.1797V74H370.945V73.1797L364.752 70.9648ZM374.883 74H393.012V73.1797L386.9 70.9648V44.5508H413.314V71.0059L407.285 73.1797V74H425.414V73.1797L419.303 70.9648V18.0137L425.414 15.7988V14.9785H407.285V15.7988L413.314 18.0137V42.9922H386.9V18.0137L393.012 15.7988V14.9785H374.883V15.7988L380.912 18.0137V71.0059L374.883 73.1797V74ZM452.854 74.9844C456.914 74.9844 461.262 74.3691 467.988 70.0625L468.891 55.625H468.275C465.445 66.7812 461.918 73.4668 453.141 73.4668C442.066 73.4668 435.914 61.5723 435.914 44.5508C435.914 28.0625 441.656 15.5938 452.566 15.5938C462.779 15.5938 465.609 22.9355 468.275 33.3945H468.891L467.988 18.957C461.262 14.6094 456.914 14.0352 453.182 14.0352C438.334 14.0352 429.188 26.873 429.188 44.5508C429.188 62.1465 438.621 74.9844 452.854 74.9844ZM512.982 70.9648L494.238 40.6543L508.635 21.459L517.125 21.3359H517.576L517.617 14.9785H516.838C511.547 14.9785 509.578 17.4395 506.01 22.1152L490.67 42.1309H486.65V18.0137L493.131 15.7988V14.9785H474.223V15.7988L480.662 18.0137V71.0059L474.223 73.1797V74H493.131V73.1797L486.65 70.9648V43.7715H489.275L507.814 74H519.135V72.7695L512.982 70.9648ZM567.123 70.9648V18.0137L573.234 15.7988V14.9785H555.105V15.7988L561.217 18.0137V22.0332L534.721 62.1875V18.0137L540.832 15.7988V14.9785H522.703V15.7988L528.732 18.0137V71.0059L522.703 73.1797V74H540.832V73.1797L534.721 70.9648V64.7715L561.217 24.6172V71.0059L555.188 73.1797V74H573.316V73.1797L567.123 70.9648ZM602.479 10.7949C607.277 10.7949 609.574 5.54492 609.656 0.828125L609.205 0.623047C608.672 4.02734 606.621 6.16016 602.479 6.16016C598.377 6.16016 596.367 4.02734 595.834 0.623047L595.383 0.828125C595.465 5.70898 597.844 10.7949 602.479 10.7949ZM621.674 70.9648V18.0137L627.785 15.7988V14.9785H609.656V15.7988L615.768 18.0137V22.0332L589.271 62.1875V18.0137L595.383 15.7988V14.9785H577.254V15.7988L583.283 18.0137V71.0059L577.254 73.1797V74H595.383V73.1797L589.271 70.9648V64.7715L615.768 24.6172V71.0059L609.738 73.1797V74H627.867V73.1797L621.674 70.9648ZM649.77 74H668.76V73.1797L661.746 70.9648V16.4961H677.373L682.418 29.375H682.705V14.9785H649.77V15.7988L655.758 18.0137V71.0059L649.77 73.1797V74ZM687.504 74H723.803L725.648 59.6035L725.32 59.5215L718.43 72.4414H699.562V44.5098H710.391L713.918 52.1797H714.492V35.1992H713.918L710.391 42.9512H699.562V16.5371H716.092L721.137 29.375H721.424V14.9785H687.545V15.7988L693.574 18.0137V71.0059L687.504 73.1797V74ZM728.438 74H746.566V73.1797L740.455 70.9648V44.5508H766.869V71.0059L760.84 73.1797V74H778.969V73.1797L772.857 70.9648V18.0137L778.969 15.7988V14.9785H760.84V15.7988L766.869 18.0137V42.9922H740.455V18.0137L746.566 15.7988V14.9785H728.438V15.7988L734.467 18.0137V71.0059L728.438 73.1797V74ZM805.465 74.9844C819.123 74.9844 828.229 62.8027 828.229 44.5918C828.229 26.2988 819.123 14.0352 805.465 14.0352C791.848 14.0352 782.742 26.2578 782.742 44.5918C782.742 62.8438 791.848 74.9844 805.465 74.9844ZM805.465 73.4668C795.826 73.4668 789.428 61.9004 789.428 44.5918C789.428 27.2012 795.826 15.5938 805.465 15.5938C815.186 15.5938 821.584 27.2422 821.584 44.5918C821.584 61.8594 815.186 73.4668 805.465 73.4668ZM883.066 86.8379H883.354V72.4824H876.504V18.0137L882.697 15.7988V14.9785H864.527V15.7988L870.598 18.0137V72.4824H844.061V18.0137L850.213 15.7988V14.9785H832.043V15.7988L838.072 18.0137V71.0059L832.043 73.1797V74H877.857L883.066 86.8379ZM931.342 70.9648V18.0137L937.453 15.7988V14.9785H919.324V15.7988L925.436 18.0137V22.0332L898.939 62.1875V18.0137L905.051 15.7988V14.9785H886.922V15.7988L892.951 18.0137V71.0059L886.922 73.1797V74H905.051V73.1797L898.939 70.9648V64.7715L925.436 24.6172V71.0059L919.406 73.1797V74H937.535V73.1797L931.342 70.9648ZM940.242 86.8379H940.57L945.738 74H985.113L990.281 86.8379H990.568V72.4824H983.801V18.0137L989.83 15.7988V14.9785H948.281V15.7988L955.172 18.0137C955.213 37.4961 955.213 64.3613 943.852 72.4824H940.242V86.8379ZM946.436 72.4824C957.264 62.8027 956.73 35.4453 956.812 16.4961H977.854V72.4824H946.436ZM26.7012 166H44.543V165.18L38.5957 162.965V110.014L44.543 107.799V106.979H26.7012V107.799L32.6074 110.014V136.633C30.0234 139.996 26.168 140.693 22.7227 140.693C17.0215 140.693 12.1406 137.453 12.1406 128.143V110.014L18.0469 107.799V106.979H0.246094V107.799L6.19336 110.014V128.84C6.19336 139.668 13.084 143.975 19.6055 143.975C24.2812 143.975 29.2441 142.498 32.6074 138.355V163.006L26.7012 165.18V166ZM55.002 166.984C60.498 166.533 64.5176 164.359 70.5469 149.922L89.25 110.014L95.8535 107.84V106.979H80.7598V107.84L87.3633 110.014L73.582 139.504L59.5137 110.014L65.2559 107.84V106.979H46.5527V107.84L52.9102 110.014L70.4238 145.984L66.3633 155.213C62.5898 156.32 58.6113 156.689 54.7969 156.156L54.1406 156.525L55.002 166.984ZM96.8789 178.838H97.207L102.375 166H141.75L146.918 178.838H147.205V164.482H140.438V110.014L146.467 107.799V106.979H104.918V107.799L111.809 110.014C111.85 129.496 111.85 156.361 100.488 164.482H96.8789V178.838ZM103.072 164.482C113.9 154.803 113.367 127.445 113.449 108.496H134.49V164.482H103.072ZM174.562 166.984C188.221 166.984 197.326 154.803 197.326 136.592C197.326 118.299 188.221 106.035 174.562 106.035C160.945 106.035 151.84 118.258 151.84 136.592C151.84 154.844 160.945 166.984 174.562 166.984ZM174.562 165.467C164.924 165.467 158.525 153.9 158.525 136.592C158.525 119.201 164.924 107.594 174.562 107.594C184.283 107.594 190.682 119.242 190.682 136.592C190.682 153.859 184.283 165.467 174.562 165.467ZM201.141 166H220.295C232.6 166 239.9 161.037 239.9 150.127C239.9 142.58 235.717 136.387 227.678 135.238V135.074C234.24 133.229 237.973 127.732 237.973 120.842C237.973 113.5 233.215 106.979 221.895 106.979H201.141V107.799L207.211 110.014V162.965L201.141 165.18V166ZM213.199 134.664V108.537H220.336C227.719 108.537 231.369 113.295 231.369 121.375C231.369 128.635 228.293 134.664 221.156 134.664H213.199ZM213.199 164.441V136.223H221.443C229.564 136.223 233.215 141.596 233.215 150.127C233.215 158.74 229.359 164.441 221.074 164.441H213.199ZM289.201 162.965V110.014L295.312 107.799V106.979H277.184V107.799L283.295 110.014V114.033L256.799 154.188V110.014L262.91 107.799V106.979H244.781V107.799L250.811 110.014V163.006L244.781 165.18V166H262.91V165.18L256.799 162.965V156.771L283.295 116.617V163.006L277.266 165.18V166H295.395V165.18L289.201 162.965ZM366.434 178.838H366.68V164.482H360.117V110.014L366.475 107.799V106.979H347.977V107.799L354.211 110.014V164.482H335.672V110.014L341.906 107.799V106.979H323.408V107.799L329.684 110.014V164.482H311.555V110.014L317.789 107.799V106.979H299.332V107.799L305.566 110.014V163.006L299.332 165.18V166H361.184L366.434 178.838ZM370.289 166H388.418V165.18L382.307 162.965V136.551H408.721V163.006L402.691 165.18V166H420.82V165.18L414.709 162.965V110.014L420.82 107.799V106.979H402.691V107.799L408.721 110.014V134.992H382.307V110.014L388.418 107.799V106.979H370.289V107.799L376.318 110.014V163.006L370.289 165.18V166ZM466.717 162.965L449.572 106.979H441.246V107.799L444.486 111.9L429.393 162.965L422.994 165.18V166H438.457V165.18L430.869 162.965L435.791 146.189H455.396L460.359 162.965L454.617 165.18V166H472.828V165.18L466.717 162.965ZM436.242 144.631L445.553 113.008L454.945 144.631H436.242ZM518.848 166V165.18L512.818 163.006V110.014L518.848 107.799V106.979H497.479C487.102 106.979 481.482 112.803 481.482 121.58C481.482 131.383 487.471 136.387 494.607 137.781V137.986C493.049 138.396 491.449 138.725 490.588 138.684L479.432 162.678L474.879 165.18L474.838 166H484.764L496.986 138.109C498.258 138.314 499.57 138.396 500.76 138.396H504.246V136.838H500.555C491.859 136.838 488.168 131.465 488.168 121.826C488.168 113.951 491.408 108.537 499.406 108.537H506.83V162.965L500.965 165.18V166H518.848ZM565.482 166.984C569.543 166.984 573.891 166.369 580.617 162.062L581.52 147.625H580.904C578.074 158.781 574.547 165.467 565.77 165.467C554.695 165.467 548.543 153.572 548.543 136.551C548.543 120.062 554.285 107.594 565.195 107.594C575.408 107.594 578.238 114.936 580.904 125.395H581.52L580.617 110.957C573.891 106.609 569.543 106.035 565.811 106.035C550.963 106.035 541.816 118.873 541.816 136.551C541.816 154.146 551.25 166.984 565.482 166.984ZM596.449 166H615.357V165.18L608.918 162.965V108.537H619.295L623.766 119.898H624.094V106.979H587.713V119.898H588.082L592.471 108.537H602.93V162.965L596.449 165.18V166ZM628.934 166H647.637V165.18L640.91 162.965V108.537H647.309C654.486 108.537 659.162 113.049 659.162 123.836C659.162 133.803 655.02 140.037 647.637 140.037H644.068V141.596H647.719C658.875 141.596 665.807 135.484 665.807 123.836C665.807 114.279 660.475 106.979 649.4 106.979H628.934V107.799L634.922 110.014V163.006L628.934 165.18V166ZM702.639 162.965L685.494 106.979H677.168V107.799L680.408 111.9L665.314 162.965L658.916 165.18V166H674.379V165.18L666.791 162.965L671.713 146.189H691.318L696.281 162.965L690.539 165.18V166H708.75V165.18L702.639 162.965ZM672.164 144.631L681.475 113.008L690.867 144.631H672.164ZM711.293 166H729.422V165.18L723.311 162.965V136.551H749.725V163.006L743.695 165.18V166H761.824V165.18L755.713 162.965V110.014L761.824 107.799V106.979H743.695V107.799L749.725 110.014V134.992H723.311V110.014L729.422 107.799V106.979H711.293V107.799L717.322 110.014V163.006L711.293 165.18V166ZM810.182 162.965V110.014L816.293 107.799V106.979H798.164V107.799L804.275 110.014V114.033L777.779 154.188V110.014L783.891 107.799V106.979H765.762V107.799L771.791 110.014V163.006L765.762 165.18V166H783.891V165.18L777.779 162.965V156.771L804.275 116.617V163.006L798.246 165.18V166H816.375V165.18L810.182 162.965ZM871.336 178.838H871.623V164.482H864.773V110.014L870.967 107.799V106.979H852.797V107.799L858.867 110.014V164.482H832.33V110.014L838.482 107.799V106.979H820.312V107.799L826.342 110.014V163.006L820.312 165.18V166H866.127L871.336 178.838ZM917.15 162.965L900.006 106.979H891.68V107.799L894.92 111.9L879.826 162.965L873.428 165.18V166H888.891V165.18L881.303 162.965L886.225 146.189H905.83L910.793 162.965L905.051 165.18V166H923.262V165.18L917.15 162.965ZM886.676 144.631L895.986 113.008L905.379 144.631H886.676ZM1.96875 258H21.123C33.4277 258 40.7285 253.037 40.7285 242.127C40.7285 234.58 36.5449 228.387 28.5059 227.238V227.074C35.0684 225.229 38.8008 219.732 38.8008 212.842C38.8008 205.5 34.043 198.979 22.7227 198.979H1.96875V199.799L8.03906 202.014V254.965L1.96875 257.18V258ZM14.0273 226.664V200.537H21.1641C28.5469 200.537 32.1973 205.295 32.1973 213.375C32.1973 220.635 29.1211 226.664 21.9844 226.664H14.0273ZM14.0273 256.441V228.223H22.2715C30.3926 228.223 34.043 233.596 34.043 242.127C34.043 250.74 30.1875 256.441 21.9023 256.441H14.0273ZM107.994 254.965V202.014L114.105 199.799V198.979H95.9766V199.799L102.088 202.014V206.033L75.5918 246.188V202.014L81.7031 199.799V198.979H63.5742V199.799L69.6035 202.014V255.006L63.5742 257.18V258H81.7031V257.18L75.5918 254.965V248.771L102.088 208.617V255.006L96.0586 257.18V258H114.188V257.18L107.994 254.965ZM141.627 258.984C145.688 258.984 150.035 258.369 156.762 254.062L157.664 239.625H157.049C154.219 250.781 150.691 257.467 141.914 257.467C130.84 257.467 124.688 245.572 124.688 228.551C124.688 212.062 130.43 199.594 141.34 199.594C151.553 199.594 154.383 206.936 157.049 217.395H157.664L156.762 202.957C150.035 198.609 145.688 198.035 141.955 198.035C127.107 198.035 117.961 210.873 117.961 228.551C117.961 246.146 127.395 258.984 141.627 258.984ZM172.594 258H191.502V257.18L185.062 254.965V200.537H195.439L199.91 211.898H200.238V198.979H163.857V211.898H164.227L168.615 200.537H179.074V254.965L172.594 257.18V258ZM225.258 258.984C238.916 258.984 248.021 246.803 248.021 228.592C248.021 210.299 238.916 198.035 225.258 198.035C211.641 198.035 202.535 210.258 202.535 228.592C202.535 246.844 211.641 258.984 225.258 258.984ZM225.258 257.467C215.619 257.467 209.221 245.9 209.221 228.592C209.221 211.201 215.619 199.594 225.258 199.594C234.979 199.594 241.377 211.242 241.377 228.592C241.377 245.859 234.979 257.467 225.258 257.467ZM251.836 258H270.539V257.18L263.812 254.965V200.537H270.211C277.389 200.537 282.064 205.049 282.064 215.836C282.064 225.803 277.922 232.037 270.539 232.037H266.971V233.596H270.621C281.777 233.596 288.709 227.484 288.709 215.836C288.709 206.279 283.377 198.979 272.303 198.979H251.836V199.799L257.824 202.014V255.006L251.836 257.18V258ZM336.205 254.965V202.014L342.316 199.799V198.979H324.188V199.799L330.299 202.014V206.033L303.803 246.188V202.014L309.914 199.799V198.979H291.785V199.799L297.814 202.014V255.006L291.785 257.18V258H309.914V257.18L303.803 254.965V248.771L330.299 208.617V255.006L324.27 257.18V258H342.398V257.18L336.205 254.965ZM390.756 254.965V202.014L396.867 199.799V198.979H378.738V199.799L384.85 202.014V206.033L358.354 246.188V202.014L364.465 199.799V198.979H346.336V199.799L352.365 202.014V255.006L346.336 257.18V258H364.465V257.18L358.354 254.965V248.771L384.85 208.617V255.006L378.82 257.18V258H396.949V257.18L390.756 254.965ZM443.584 258H461.426V257.18L455.479 254.965V202.014L461.426 199.799V198.979H443.584V199.799L449.49 202.014V228.633C446.906 231.996 443.051 232.693 439.605 232.693C433.904 232.693 429.023 229.453 429.023 220.143V202.014L434.93 199.799V198.979H417.129V199.799L423.076 202.014V220.84C423.076 231.668 429.967 235.975 436.488 235.975C441.164 235.975 446.127 234.498 449.49 230.355V255.006L443.584 257.18V258ZM465.363 258H501.662L503.508 243.604L503.18 243.521L496.289 256.441H477.422V228.51H488.25L491.777 236.18H492.352V219.199H491.777L488.25 226.951H477.422V200.537H493.951L498.996 213.375H499.283V198.979H465.404V199.799L471.434 202.014V255.006L465.363 257.18V258ZM511.055 258.984C522.99 258.984 522.662 220.717 522.662 200.496H544.688V255.006L538.658 257.18V258H556.787V257.18L550.594 254.965V202.014L556.705 199.799V198.979H514.172V199.799L521.062 202.014C521.062 219.199 521.104 257.467 511.26 257.467C508.922 257.467 506.83 251.479 505.764 248.197H505.189L505.066 256.934C506.379 258.164 508.02 258.984 511.055 258.984ZM583.324 258.984C596.982 258.984 606.088 246.803 606.088 228.592C606.088 210.299 596.982 198.035 583.324 198.035C569.707 198.035 560.602 210.258 560.602 228.592C560.602 246.844 569.707 258.984 583.324 258.984ZM583.324 257.467C573.686 257.467 567.287 245.9 567.287 228.592C567.287 211.201 573.686 199.594 583.324 199.594C593.045 199.594 599.443 211.242 599.443 228.592C599.443 245.859 593.045 257.467 583.324 257.467ZM609.902 258H629.057C641.361 258 648.662 253.037 648.662 242.127C648.662 234.58 644.479 228.387 636.439 227.238V227.074C643.002 225.229 646.734 219.732 646.734 212.842C646.734 205.5 641.977 198.979 630.656 198.979H609.902V199.799L615.973 202.014V254.965L609.902 257.18V258ZM621.961 226.664V200.537H629.098C636.48 200.537 640.131 205.295 640.131 213.375C640.131 220.635 637.055 226.664 629.918 226.664H621.961ZM621.961 256.441V228.223H630.205C638.326 228.223 641.977 233.596 641.977 242.127C641.977 250.74 638.121 256.441 629.836 256.441H621.961ZM653.543 258H689.842L691.688 243.604L691.359 243.521L684.469 256.441H665.602V228.51H676.43L679.957 236.18H680.531V219.199H679.957L676.43 226.951H665.602V200.537H682.131L687.176 213.375H687.463V198.979H653.584V199.799L659.613 202.014V255.006L653.543 257.18V258ZM719.209 258H737.051V257.18L731.104 254.965V202.014L737.051 199.799V198.979H719.209V199.799L725.115 202.014V228.633C722.531 231.996 718.676 232.693 715.23 232.693C709.529 232.693 704.648 229.453 704.648 220.143V202.014L710.555 199.799V198.979H692.754V199.799L698.701 202.014V220.84C698.701 231.668 705.592 235.975 712.113 235.975C716.789 235.975 721.752 234.498 725.115 230.355V255.006L719.209 257.18V258ZM740.988 258H777.287L779.133 243.604L778.805 243.521L771.914 256.441H753.047V228.51H763.875L767.402 236.18H767.977V219.199H767.402L763.875 226.951H753.047V200.537H769.576L774.621 213.375H774.908V198.979H741.029V199.799L747.059 202.014V255.006L740.988 257.18V258ZM806.654 258.984C810.715 258.984 815.062 258.369 821.789 254.062L822.691 239.625H822.076C819.246 250.781 815.719 257.467 806.941 257.467C795.867 257.467 789.715 245.572 789.715 228.551C789.715 212.062 795.457 199.594 806.367 199.594C816.58 199.594 819.41 206.936 822.076 217.395H822.691L821.789 202.957C815.062 198.609 810.715 198.035 806.982 198.035C792.135 198.035 782.988 210.873 782.988 228.551C782.988 246.146 792.422 258.984 806.654 258.984ZM837.621 258H856.529V257.18L850.09 254.965V200.537H860.467L864.938 211.898H865.266V198.979H828.885V211.898H829.254L833.643 200.537H844.102V254.965L837.621 257.18V258ZM870.105 258H889.26C901.564 258 908.865 253.037 908.865 242.127C908.865 234.58 904.682 228.387 896.643 227.238V227.074C903.205 225.229 906.938 219.732 906.938 212.842C906.938 205.5 902.18 198.979 890.859 198.979H870.105V199.799L876.176 202.014V254.965L870.105 257.18V258ZM882.164 226.664V200.537H889.301C896.684 200.537 900.334 205.295 900.334 213.375C900.334 220.635 897.258 226.664 890.121 226.664H882.164ZM882.164 256.441V228.223H890.408C898.529 228.223 902.18 233.596 902.18 242.127C902.18 250.74 898.324 256.441 890.039 256.441H882.164ZM955.705 254.965L938.561 198.979H930.234V199.799L933.475 203.9L918.381 254.965L911.982 257.18V258H927.445V257.18L919.857 254.965L924.779 238.189H944.385L949.348 254.965L943.605 257.18V258H961.816V257.18L955.705 254.965ZM925.23 236.631L934.541 205.008L943.934 236.631H925.23Z" fill="white"></path> </svg> 