<?xml version="1.0" encoding="UTF-8"?> <svg xmlns="http://www.w3.org/2000/svg" width="1231" height="337" viewBox="0 0 1231 337" fill="none"> <path d="M24.7578 60.9844C38.416 60.9844 47.5215 48.8027 47.5215 30.5918C47.5215 12.2988 38.416 0.0351562 24.7578 0.0351562C11.1406 0.0351562 2.03516 12.2578 2.03516 30.5918C2.03516 48.8438 11.1406 60.9844 24.7578 60.9844ZM24.7578 59.4668C15.1191 59.4668 8.7207 47.9004 8.7207 30.5918C8.7207 13.2012 15.1191 1.59375 24.7578 1.59375C34.4785 1.59375 40.877 13.2422 40.877 30.5918C40.877 47.8594 34.4785 59.4668 24.7578 59.4668ZM77.2988 60.9844C81.3594 60.9844 85.707 60.3691 92.4336 56.0625L93.3359 41.625H92.7207C89.8906 52.7812 86.3633 59.4668 77.5859 59.4668C66.5117 59.4668 60.3594 47.5723 60.3594 30.5508C60.3594 14.0625 66.1016 1.59375 77.0117 1.59375C87.2246 1.59375 90.0547 8.93555 92.7207 19.3945H93.3359L92.4336 4.95703C85.707 0.609375 81.3594 0.0351562 77.627 0.0351562C62.7793 0.0351562 53.6328 12.873 53.6328 30.5508C53.6328 48.1465 63.0664 60.9844 77.2988 60.9844ZM98.668 60H116.797V59.1797L110.686 56.9648V30.5508H137.1V57.0059L131.07 59.1797V60H149.199V59.1797L143.088 56.9648V4.01367L149.199 1.79883V0.978516H131.07V1.79883L137.1 4.01367V28.9922H110.686V4.01367L116.797 1.79883V0.978516H98.668V1.79883L104.697 4.01367V57.0059L98.668 59.1797V60ZM175.695 60.9844C189.354 60.9844 198.459 48.8027 198.459 30.5918C198.459 12.2988 189.354 0.0351562 175.695 0.0351562C162.078 0.0351562 152.973 12.2578 152.973 30.5918C152.973 48.8438 162.078 60.9844 175.695 60.9844ZM175.695 59.4668C166.057 59.4668 159.658 47.9004 159.658 30.5918C159.658 13.2012 166.057 1.59375 175.695 1.59375C185.416 1.59375 191.814 13.2422 191.814 30.5918C191.814 47.8594 185.416 59.4668 175.695 59.4668ZM202.273 60H221.428C233.732 60 241.033 55.0371 241.033 44.127C241.033 36.5801 236.85 30.3867 228.811 29.2383V29.0742C235.373 27.2285 239.105 21.7324 239.105 14.8418C239.105 7.5 234.348 0.978516 223.027 0.978516H202.273V1.79883L208.344 4.01367V56.9648L202.273 59.1797V60ZM214.332 28.6641V2.53711H221.469C228.852 2.53711 232.502 7.29492 232.502 15.375C232.502 22.6348 229.426 28.6641 222.289 28.6641H214.332ZM214.332 58.4414V30.2227H222.576C230.697 30.2227 234.348 35.5957 234.348 44.127C234.348 52.7402 230.492 58.4414 222.207 58.4414H214.332ZM245.914 60H264.043V59.1797L257.932 56.9648V30.5508H284.346V57.0059L278.316 59.1797V60H296.445V59.1797L290.334 56.9648V4.01367L296.445 1.79883V0.978516H278.316V1.79883L284.346 4.01367V28.9922H257.932V4.01367L264.043 1.79883V0.978516H245.914V1.79883L251.943 4.01367V57.0059L245.914 59.1797V60ZM300.383 60H319.455C331.76 60 339.061 55.0371 339.061 44.127C339.061 33.0117 330.693 28.6641 320.604 28.6641H312.359V4.01367L318.389 1.79883V0.978516H300.383V1.79883L306.371 4.01367V57.0469L300.383 59.1797V60ZM341.932 60H359.979V59.1797L353.949 56.9648V4.01367L359.979 1.79883V0.978516H341.932V1.79883L347.961 4.01367V57.0059L341.932 59.1797V60ZM312.359 58.4824V30.2227H320.604C328.725 30.2227 332.416 35.5957 332.416 44.127C332.416 52.7402 328.52 58.4824 320.234 58.4824H312.359ZM363.957 60H400.256L402.102 45.6035L401.773 45.5215L394.883 58.4414H376.016V30.5098H386.844L390.371 38.1797H390.945V21.1992H390.371L386.844 28.9512H376.016V2.53711H392.545L397.59 15.375H397.877V0.978516H363.998V1.79883L370.027 4.01367V57.0059L363.957 59.1797V60ZM440.246 60.9844C454.479 60.9844 463.912 48.1465 463.912 30.5508C463.912 12.873 454.766 0.0351562 439.918 0.0351562C436.145 0.0351562 431.961 0.609375 425.111 4.95703L424.25 19.3945H424.865C427.695 7.91016 430.812 1.59375 440.574 1.59375C451.197 1.59375 457.021 13.4473 457.268 29.4023H442.256L438.729 21.6504H438.154V38.6309H438.729L442.256 30.9199H457.268C457.227 47.5723 451.074 59.4668 440 59.4668C430.771 59.4668 427.285 51.8379 424.865 41.625H424.25L425.111 56.0625C431.797 60.3281 436.186 60.9844 440.246 60.9844ZM475.684 60H494.592V59.1797L488.152 56.9648V2.53711H498.529L503 13.8984H503.328V0.978516H466.947V13.8984H467.316L471.705 2.53711H482.164V56.9648L475.684 59.1797V60ZM542.17 56.9648L525.025 0.978516H516.699V1.79883L519.939 5.90039L504.846 56.9648L498.447 59.1797V60H513.91V59.1797L506.322 56.9648L511.244 40.1895H530.85L535.812 56.9648L530.07 59.1797V60H548.281V59.1797L542.17 56.9648ZM511.695 38.6309L521.006 7.00781L530.398 38.6309H511.695ZM550.824 60H568.953V59.1797L562.842 56.9648V2.49609H589.338V57.0059L583.309 59.1797V60H601.438V59.1797L595.244 56.9648V4.01367L601.355 1.79883V0.978516H550.824V1.79883L556.854 4.01367V57.0059L550.824 59.1797V60ZM605.375 60H624.447C636.752 60 644.053 55.0371 644.053 44.127C644.053 33.0117 635.686 28.6641 625.596 28.6641H617.352V4.01367L623.381 1.79883V0.978516H605.375V1.79883L611.363 4.01367V57.0469L605.375 59.1797V60ZM646.924 60H664.971V59.1797L658.941 56.9648V4.01367L664.971 1.79883V0.978516H646.924V1.79883L652.953 4.01367V57.0059L646.924 59.1797V60ZM617.352 58.4824V30.2227H625.596C633.717 30.2227 637.408 35.5957 637.408 44.127C637.408 52.7402 633.512 58.4824 625.227 58.4824H617.352ZM10.5664 152H29.4746V151.18L23.0352 148.965V94.5371H33.4121L37.8828 105.898H38.2109V92.9785H1.83008V105.898H2.19922L6.58789 94.5371H17.0469V148.965L10.5664 151.18V152ZM43.0508 152H79.3496L81.1953 137.604L80.8672 137.521L73.9766 150.441H55.1094V122.51H65.9375L69.4648 130.18H70.0391V113.199H69.4648L65.9375 120.951H55.1094V94.5371H71.6387L76.6836 107.375H76.9707V92.9785H43.0918V93.7988L49.1211 96.0137V149.006L43.0508 151.18V152ZM83.9844 152H102.688V151.18L95.9609 148.965V94.5371H102.359C109.537 94.5371 114.213 99.0488 114.213 109.836C114.213 119.803 110.07 126.037 102.688 126.037H99.1191V127.596H102.77C113.926 127.596 120.857 121.484 120.857 109.836C120.857 100.279 115.525 92.9785 104.451 92.9785H83.9844V93.7988L89.9727 96.0137V149.006L83.9844 151.18V152ZM123.934 152H142.637V151.18L135.91 148.965V94.5371H142.309C149.486 94.5371 154.162 99.0488 154.162 109.836C154.162 119.803 150.02 126.037 142.637 126.037H139.068V127.596H142.719C153.875 127.596 160.807 121.484 160.807 109.836C160.807 100.279 155.475 92.9785 144.4 92.9785H123.934V93.7988L129.922 96.0137V149.006L123.934 151.18V152ZM208.303 148.965V96.0137L214.414 93.7988V92.9785H196.285V93.7988L202.396 96.0137V100.033L175.9 140.188V96.0137L182.012 93.7988V92.9785H163.883V93.7988L169.912 96.0137V149.006L163.883 151.18V152H182.012V151.18L175.9 148.965V142.771L202.396 102.617V149.006L196.367 151.18V152H214.496V151.18L208.303 148.965ZM228.031 152H246.939V151.18L240.5 148.965V94.5371H250.877L255.348 105.898H255.676V92.9785H219.295V105.898H219.664L224.053 94.5371H234.512V148.965L228.031 151.18V152ZM280.695 152.984C294.354 152.984 303.459 140.803 303.459 122.592C303.459 104.299 294.354 92.0352 280.695 92.0352C267.078 92.0352 257.973 104.258 257.973 122.592C257.973 140.844 267.078 152.984 280.695 152.984ZM280.695 151.467C271.057 151.467 264.658 139.9 264.658 122.592C264.658 105.201 271.057 93.5938 280.695 93.5938C290.416 93.5938 296.814 105.242 296.814 122.592C296.814 139.859 290.416 151.467 280.695 151.467ZM307.273 152H325.977V151.18L319.25 148.965V94.5371H325.648C332.826 94.5371 337.502 99.0488 337.502 109.836C337.502 119.803 333.359 126.037 325.977 126.037H322.408V127.596H326.059C337.215 127.596 344.146 121.484 344.146 109.836C344.146 100.279 338.814 92.9785 327.74 92.9785H307.273V93.7988L313.262 96.0137V149.006L307.273 151.18V152ZM391.643 148.965V96.0137L397.754 93.7988V92.9785H379.625V93.7988L385.736 96.0137V100.033L359.24 140.188V96.0137L365.352 93.7988V92.9785H347.223V93.7988L353.252 96.0137V149.006L347.223 151.18V152H365.352V151.18L359.24 148.965V142.771L385.736 102.617V149.006L379.707 151.18V152H397.836V151.18L391.643 148.965ZM443.732 148.965L426.588 92.9785H418.262V93.7988L421.502 97.9004L406.408 148.965L400.01 151.18V152H415.473V151.18L407.885 148.965L412.807 132.189H432.412L437.375 148.965L431.633 151.18V152H449.844V151.18L443.732 148.965ZM413.258 130.631L422.568 99.0078L431.961 130.631H413.258ZM457.145 152.984C469.08 152.984 468.752 114.717 468.752 94.4961H490.777V149.006L484.748 151.18V152H502.877V151.18L496.684 148.965V96.0137L502.795 93.7988V92.9785H460.262V93.7988L467.152 96.0137C467.152 113.199 467.193 151.467 457.35 151.467C455.012 151.467 452.92 145.479 451.854 142.197H451.279L451.156 150.934C452.469 152.164 454.109 152.984 457.145 152.984ZM506.855 152H525.928C538.232 152 545.533 147.037 545.533 136.127C545.533 125.012 537.166 120.664 527.076 120.664H518.832V96.0137L524.861 93.7988V92.9785H506.855V93.7988L512.844 96.0137V149.047L506.855 151.18V152ZM518.832 150.482V122.223H527.076C535.197 122.223 538.889 127.596 538.889 136.127C538.889 144.74 534.992 150.482 526.707 150.482H518.832ZM548.445 152H566.574V151.18L560.463 148.965V122.551H586.877V149.006L580.848 151.18V152H598.977V151.18L592.865 148.965V96.0137L598.977 93.7988V92.9785H580.848V93.7988L586.877 96.0137V120.992H560.463V96.0137L566.574 93.7988V92.9785H548.445V93.7988L554.475 96.0137V149.006L548.445 151.18V152ZM602.914 152H621.986C634.291 152 641.592 147.037 641.592 136.127C641.592 125.012 633.225 120.664 623.135 120.664H614.891V96.0137L620.92 93.7988V92.9785H602.914V93.7988L608.902 96.0137V149.047L602.914 151.18V152ZM644.463 152H662.51V151.18L656.48 148.965V96.0137L662.51 93.7988V92.9785H644.463V93.7988L650.492 96.0137V149.006L644.463 151.18V152ZM614.891 150.482V122.223H623.135C631.256 122.223 634.947 127.596 634.947 136.127C634.947 144.74 631.051 150.482 622.766 150.482H614.891ZM706.766 148.965L690.975 119.434L704.961 96.0137L711.359 93.8398V92.9785H696.84V93.8398L703.238 96.0137L690.236 118.039L678.752 96.0137L684.822 93.8398V92.9785H666.324V93.8398L671.656 96.0137L686.094 122.961L671.287 148.965L664.93 151.139V152H679.326V151.139L672.969 148.965L686.914 124.396L699.752 148.965L693.723 151.139V152H712.139V151.139L706.766 148.965ZM0.96875 244H19.0977V243.18L12.9863 240.965V186.496H39.4824V241.006L33.4531 243.18V244H51.582V243.18L45.3887 240.965V188.014L51.5 185.799V184.979H0.96875V185.799L6.99805 188.014V241.006L0.96875 243.18V244ZM55.5195 244H74.2227V243.18L67.4961 240.965V186.537H73.8945C81.0723 186.537 85.748 191.049 85.748 201.836C85.748 211.803 81.6055 218.037 74.2227 218.037H70.6543V219.596H74.3047C85.4609 219.596 92.3926 213.484 92.3926 201.836C92.3926 192.279 87.0605 184.979 75.9863 184.979H55.5195V185.799L61.5078 188.014V241.006L55.5195 243.18V244ZM139.889 240.965V188.014L146 185.799V184.979H127.871V185.799L133.982 188.014V192.033L107.486 232.188V188.014L113.598 185.799V184.979H95.4688V185.799L101.498 188.014V241.006L95.4688 243.18V244H113.598V243.18L107.486 240.965V234.771L133.982 194.617V241.006L127.953 243.18V244H146.082V243.18L139.889 240.965ZM159.617 244H178.525V243.18L172.086 240.965V186.537H182.463L186.934 197.898H187.262V184.979H150.881V197.898H151.25L155.639 186.537H166.098V240.965L159.617 243.18V244ZM235.578 244V243.18L229.549 241.006V188.014L235.578 185.799V184.979H214.209C203.832 184.979 198.213 190.803 198.213 199.58C198.213 209.383 204.201 214.387 211.338 215.781V215.986C209.779 216.396 208.18 216.725 207.318 216.684L196.162 240.678L191.609 243.18L191.568 244H201.494L213.717 216.109C214.988 216.314 216.301 216.396 217.49 216.396H220.977V214.838H217.285C208.59 214.838 204.898 209.465 204.898 199.826C204.898 191.951 208.139 186.537 216.137 186.537H223.561V240.965L217.695 243.18V244H235.578ZM254.24 244.984C264.207 244.984 271.098 238.381 271.098 228.701C271.098 219.883 265.889 213.977 258.301 212.172C265.479 209.916 269.703 204.748 269.703 197.98C269.703 190.105 264.576 184.035 255.799 184.035C249.934 184.035 246.037 186.045 243.207 187.727L242.428 202.574H242.961C244.807 195.766 247.883 185.553 255.635 185.553C260.68 185.553 263.428 191.008 263.428 197.98C263.428 206.553 258.752 210.326 250.672 212.869V214.059C259.121 215.494 265.068 219.35 265.068 229.768C265.068 237.602 261.254 243.467 254.527 243.467C247.309 243.467 243.945 234.32 241.771 226.363H241.156L241.936 241.129C244.109 243.016 249.441 244.984 254.24 244.984ZM317.896 240.965L300.752 184.979H292.426V185.799L295.666 189.9L280.572 240.965L274.174 243.18V244H289.637V243.18L282.049 240.965L286.971 224.189H306.576L311.539 240.965L305.797 243.18V244H324.008V243.18L317.896 240.965ZM287.422 222.631L296.732 191.008L306.125 222.631H287.422ZM326.551 244H344.68V243.18L338.568 240.965V214.551H364.982V241.006L358.953 243.18V244H377.082V243.18L370.971 240.965V188.014L377.082 185.799V184.979H358.953V185.799L364.982 188.014V212.992H338.568V188.014L344.68 185.799V184.979H326.551V185.799L332.58 188.014V241.006L326.551 243.18V244ZM425.439 240.965V188.014L431.551 185.799V184.979H413.422V185.799L419.533 188.014V192.033L393.037 232.188V188.014L399.148 185.799V184.979H381.02V185.799L387.049 188.014V241.006L381.02 243.18V244H399.148V243.18L393.037 240.965V234.771L419.533 194.617V241.006L413.504 243.18V244H431.633V243.18L425.439 240.965ZM460.795 180.795C465.594 180.795 467.891 175.545 467.973 170.828L467.521 170.623C466.988 174.027 464.938 176.16 460.795 176.16C456.693 176.16 454.684 174.027 454.15 170.623L453.699 170.828C453.781 175.709 456.16 180.795 460.795 180.795ZM479.99 240.965V188.014L486.102 185.799V184.979H467.973V185.799L474.084 188.014V192.033L447.588 232.188V188.014L453.699 185.799V184.979H435.57V185.799L441.6 188.014V241.006L435.57 243.18V244H453.699V243.18L447.588 240.965V234.771L474.084 194.617V241.006L468.055 243.18V244H486.184V243.18L479.99 240.965ZM550.045 240.965L532.9 184.979H524.574V185.799L527.814 189.9L512.721 240.965L506.322 243.18V244H521.785V243.18L514.197 240.965L519.119 224.189H538.725L543.688 240.965L537.945 243.18V244H556.156V243.18L550.045 240.965ZM519.57 222.631L528.881 191.008L538.273 222.631H519.57ZM558.699 244H577.402V243.18L570.676 240.965V186.537H577.074C584.252 186.537 588.928 191.049 588.928 201.836C588.928 211.803 584.785 218.037 577.402 218.037H573.834V219.596H577.484C588.641 219.596 595.572 213.484 595.572 201.836C595.572 192.279 590.24 184.979 579.166 184.979H558.699V185.799L564.688 188.014V241.006L558.699 243.18V244ZM598.648 244H614.357V243.18L607.221 240.514V191.459L626.908 238.053H628.795L648.564 191.91V240.965L642.33 243.18V244H660.787V243.18L654.553 240.965V188.014L660.787 185.799V184.979H649.877L630.025 231.367L610.707 184.979H598.689V185.799L605.744 188.014V240.514L598.648 243.18V244ZM708.242 244V243.18L702.213 241.006V188.014L708.242 185.799V184.979H686.873C676.496 184.979 670.877 190.803 670.877 199.58C670.877 209.383 676.865 214.387 684.002 215.781V215.986C682.443 216.396 680.844 216.725 679.982 216.684L668.826 240.678L664.273 243.18L664.232 244H674.158L686.381 216.109C687.652 216.314 688.965 216.396 690.154 216.396H693.641V214.838H689.949C681.254 214.838 677.562 209.465 677.562 199.826C677.562 191.951 680.803 186.537 688.801 186.537H696.225V240.965L690.359 243.18V244H708.242ZM712.18 244H730.309V243.18L724.197 240.965V214.551H750.611V241.006L744.582 243.18V244H762.711V243.18L756.6 240.965V188.014L762.711 185.799V184.979H744.582V185.799L750.611 188.014V212.992H724.197V188.014L730.309 185.799V184.979H712.18V185.799L718.209 188.014V241.006L712.18 243.18V244ZM0.96875 336H19.0977V335.18L12.9863 332.965V306.551H39.4004V333.006L33.3711 335.18V336H51.5V335.18L45.3887 332.965V280.014L51.5 277.799V276.979H33.3711V277.799L39.4004 280.014V304.992H12.9863V280.014L19.0977 277.799V276.979H0.96875V277.799L6.99805 280.014V333.006L0.96875 335.18V336ZM97.3965 332.965L80.252 276.979H71.9258V277.799L75.166 281.9L60.0723 332.965L53.6738 335.18V336H69.1367V335.18L61.5488 332.965L66.4707 316.189H86.0762L91.0391 332.965L85.2969 335.18V336H103.508V335.18L97.3965 332.965ZM66.9219 314.631L76.2324 283.008L85.625 314.631H66.9219ZM124.016 336H142.145V335.18L136.033 332.965V306.551H162.447V333.006L156.418 335.18V336H174.547V335.18L168.436 332.965V280.014L174.547 277.799V276.979H156.418V277.799L162.447 280.014V304.992H136.033V280.014L142.145 277.799V276.979H124.016V277.799L130.045 280.014V333.006L124.016 335.18V336ZM220.443 332.965L203.299 276.979H194.973V277.799L198.213 281.9L183.119 332.965L176.721 335.18V336H192.184V335.18L184.596 332.965L189.518 316.189H209.123L214.086 332.965L208.344 335.18V336H226.555V335.18L220.443 332.965ZM189.969 314.631L199.279 283.008L208.672 314.631H189.969ZM229.098 336H248.088V335.18L241.074 332.965V278.496H256.701L261.746 291.375H262.033V276.979H229.098V277.799L235.086 280.014V333.006L229.098 335.18V336ZM287.012 336.984C300.67 336.984 309.775 324.803 309.775 306.592C309.775 288.299 300.67 276.035 287.012 276.035C273.395 276.035 264.289 288.258 264.289 306.592C264.289 324.844 273.395 336.984 287.012 336.984ZM287.012 335.467C277.373 335.467 270.975 323.9 270.975 306.592C270.975 289.201 277.373 277.594 287.012 277.594C296.732 277.594 303.131 289.242 303.131 306.592C303.131 323.859 296.732 335.467 287.012 335.467ZM313.59 336H332.293V335.18L325.566 332.965V278.537H331.965C339.143 278.537 343.818 283.049 343.818 293.836C343.818 303.803 339.676 310.037 332.293 310.037H328.725V311.596H332.375C343.531 311.596 350.463 305.484 350.463 293.836C350.463 284.279 345.131 276.979 334.057 276.979H313.59V277.799L319.578 280.014V333.006L313.59 335.18V336ZM353.539 336H371.668V335.18L365.557 332.965V306.551H391.971V333.006L385.941 335.18V336H404.07V335.18L397.959 332.965V280.014L404.07 277.799V276.979H385.941V277.799L391.971 280.014V304.992H365.557V280.014L371.668 277.799V276.979H353.539V277.799L359.568 280.014V333.006L353.539 335.18V336ZM408.008 336H427.08C439.385 336 446.686 331.037 446.686 320.127C446.686 309.012 438.318 304.664 428.229 304.664H419.984V280.014L426.014 277.799V276.979H408.008V277.799L413.996 280.014V333.047L408.008 335.18V336ZM449.557 336H467.604V335.18L461.574 332.965V280.014L467.604 277.799V276.979H449.557V277.799L455.586 280.014V333.006L449.557 335.18V336ZM419.984 334.482V306.223H428.229C436.35 306.223 440.041 311.596 440.041 320.127C440.041 328.74 436.145 334.482 427.859 334.482H419.984ZM496.807 272.795C501.605 272.795 503.902 267.545 503.984 262.828L503.533 262.623C503 266.027 500.949 268.16 496.807 268.16C492.705 268.16 490.695 266.027 490.162 262.623L489.711 262.828C489.793 267.709 492.172 272.795 496.807 272.795ZM516.002 332.965V280.014L522.113 277.799V276.979H503.984V277.799L510.096 280.014V284.033L483.6 324.188V280.014L489.711 277.799V276.979H471.582V277.799L477.611 280.014V333.006L471.582 335.18V336H489.711V335.18L483.6 332.965V326.771L510.096 286.617V333.006L504.066 335.18V336H522.195V335.18L516.002 332.965ZM582.857 332.965L564.113 302.654L578.51 283.459L587 283.336H587.451L587.492 276.979H586.713C581.422 276.979 579.453 279.439 575.885 284.115L560.545 304.131H556.525V280.014L563.006 277.799V276.979H544.098V277.799L550.537 280.014V333.006L544.098 335.18V336H563.006V335.18L556.525 332.965V305.771H559.15L577.689 336H589.01V334.77L582.857 332.965ZM634.537 332.965L617.393 276.979H609.066V277.799L612.307 281.9L597.213 332.965L590.814 335.18V336H606.277V335.18L598.689 332.965L603.611 316.189H623.217L628.18 332.965L622.438 335.18V336H640.648V335.18L634.537 332.965ZM604.062 314.631L613.373 283.008L622.766 314.631H604.062ZM643.191 336H661.895V335.18L655.168 332.965V278.537H661.566C668.744 278.537 673.42 283.049 673.42 293.836C673.42 303.803 669.277 310.037 661.895 310.037H658.326V311.596H661.977C673.133 311.596 680.064 305.484 680.064 293.836C680.064 284.279 674.732 276.979 663.658 276.979H643.191V277.799L649.18 280.014V333.006L643.191 335.18V336ZM716.896 332.965L699.752 276.979H691.426V277.799L694.666 281.9L679.572 332.965L673.174 335.18V336H688.637V335.18L681.049 332.965L685.971 316.189H705.576L710.539 332.965L704.797 335.18V336H723.008V335.18L716.896 332.965ZM686.422 314.631L695.732 283.008L705.125 314.631H686.422ZM725.674 336H744.705C757.01 336 764.311 331.037 764.311 320.127C764.311 309.012 755.984 304.664 745.854 304.664H737.609V278.496H753.975L759.061 291.375H759.307V276.979H725.551V277.799L731.621 280.014V333.047L725.674 335.18V336ZM737.609 334.482V306.223H745.854C753.975 306.223 757.666 311.596 757.666 320.127C757.666 328.74 753.77 334.482 745.484 334.482H737.609ZM811.15 332.965L794.006 276.979H785.68V277.799L788.92 281.9L773.826 332.965L767.428 335.18V336H782.891V335.18L775.303 332.965L780.225 316.189H799.83L804.793 332.965L799.051 335.18V336H817.262V335.18L811.15 332.965ZM780.676 314.631L789.986 283.008L799.379 314.631H780.676ZM861.23 332.965L845.439 303.434L859.426 280.014L865.824 277.84V276.979H851.305V277.84L857.703 280.014L844.701 302.039L833.217 280.014L839.287 277.84V276.979H820.789V277.84L826.121 280.014L840.559 306.961L825.752 332.965L819.395 335.139V336H833.791V335.139L827.434 332.965L841.379 308.396L854.217 332.965L848.188 335.139V336H866.604V335.139L861.23 332.965ZM885.43 336H904.584C916.889 336 924.189 331.037 924.189 320.127C924.189 312.58 920.006 306.387 911.967 305.238V305.074C918.529 303.229 922.262 297.732 922.262 290.842C922.262 283.5 917.504 276.979 906.184 276.979H885.43V277.799L891.5 280.014V332.965L885.43 335.18V336ZM897.488 304.664V278.537H904.625C912.008 278.537 915.658 283.295 915.658 291.375C915.658 298.635 912.582 304.664 905.445 304.664H897.488ZM897.488 334.441V306.223H905.732C913.854 306.223 917.504 311.596 917.504 320.127C917.504 328.74 913.648 334.441 905.363 334.441H897.488ZM987.312 332.965L971.521 303.434L985.508 280.014L991.906 277.84V276.979H977.387V277.84L983.785 280.014L970.783 302.039L959.299 280.014L965.369 277.84V276.979H946.871V277.84L952.203 280.014L966.641 306.961L951.834 332.965L945.477 335.139V336H959.873V335.139L953.516 332.965L967.461 308.396L980.299 332.965L974.27 335.139V336H992.686V335.139L987.312 332.965ZM1035.38 332.965L1019.59 303.434L1033.58 280.014L1039.98 277.84V276.979H1025.46V277.84L1031.86 280.014L1018.85 302.039L1007.37 280.014L1013.44 277.84V276.979H994.941V277.84L1000.27 280.014L1014.71 306.961L999.904 332.965L993.547 335.139V336H1007.94V335.139L1001.59 332.965L1015.53 308.396L1028.37 332.965L1022.34 335.139V336H1040.76V335.139L1035.38 332.965ZM1059.58 336H1078.74C1091.04 336 1098.34 331.037 1098.34 320.127C1098.34 312.58 1094.16 306.387 1086.12 305.238V305.074C1092.68 303.229 1096.41 297.732 1096.41 290.842C1096.41 283.5 1091.66 276.979 1080.34 276.979H1059.58V277.799L1065.65 280.014V332.965L1059.58 335.18V336ZM1071.64 304.664V278.537H1078.78C1086.16 278.537 1089.81 283.295 1089.81 291.375C1089.81 298.635 1086.73 304.664 1079.6 304.664H1071.64ZM1071.64 334.441V306.223H1079.88C1088.01 306.223 1091.66 311.596 1091.66 320.127C1091.66 328.74 1087.8 334.441 1079.52 334.441H1071.64ZM1103.22 336H1139.52L1141.37 321.604L1141.04 321.521L1134.15 334.441H1115.28V306.51H1126.11L1129.64 314.18H1130.21V297.199H1129.64L1126.11 304.951H1115.28V278.537H1131.81L1136.86 291.375H1137.14V276.979H1103.26V277.799L1109.29 280.014V333.006L1103.22 335.18V336ZM1182.92 332.965L1164.17 302.654L1178.57 283.459L1187.06 283.336H1187.51L1187.55 276.979H1186.77C1181.48 276.979 1179.51 279.439 1175.94 284.115L1160.6 304.131H1156.58V280.014L1163.06 277.799V276.979H1144.16V277.799L1150.6 280.014V333.006L1144.16 335.18V336H1163.06V335.18L1156.58 332.965V305.771H1159.21L1177.75 336H1189.07V334.77L1182.92 332.965ZM1192.64 336H1228.94L1230.78 321.604L1230.45 321.521L1223.56 334.441H1204.7V306.51H1215.52L1219.05 314.18H1219.62V297.199H1219.05L1215.52 304.951H1204.7V278.537H1221.22L1226.27 291.375H1226.56V276.979H1192.68V277.799L1198.71 280.014V333.006L1192.64 335.18V336Z" fill="white"></path> </svg> 