<?xml version="1.0" encoding="UTF-8"?> <svg xmlns="http://www.w3.org/2000/svg" width="1064" height="257" viewBox="0 0 1064 257" fill="none"> <path d="M0.96875 60H20.123C32.4277 60 39.7285 55.0371 39.7285 44.127C39.7285 36.5801 35.5449 30.3867 27.5059 29.2383V29.0742C34.0684 27.2285 37.8008 21.7324 37.8008 14.8418C37.8008 7.5 33.043 0.978516 21.7227 0.978516H0.96875V1.79883L7.03906 4.01367V56.9648L0.96875 59.1797V60ZM13.0273 28.6641V2.53711H20.1641C27.5469 2.53711 31.1973 7.29492 31.1973 15.375C31.1973 22.6348 28.1211 28.6641 20.9844 28.6641H13.0273ZM13.0273 58.4414V30.2227H21.2715C29.3926 30.2227 33.043 35.5957 33.043 44.127C33.043 52.7402 29.1875 58.4414 20.9023 58.4414H13.0273ZM68.3984 60.9844C82.0566 60.9844 91.1621 48.8027 91.1621 30.5918C91.1621 12.2988 82.0566 0.0351562 68.3984 0.0351562C54.7812 0.0351562 45.6758 12.2578 45.6758 30.5918C45.6758 48.8438 54.7812 60.9844 68.3984 60.9844ZM68.3984 59.4668C58.7598 59.4668 52.3613 47.9004 52.3613 30.5918C52.3613 13.2012 58.7598 1.59375 68.3984 1.59375C78.1191 1.59375 84.5176 13.2422 84.5176 30.5918C84.5176 47.8594 78.1191 59.4668 68.3984 59.4668ZM94.9766 60H131.275L133.121 45.6035L132.793 45.5215L125.902 58.4414H107.035V30.5098H117.863L121.391 38.1797H121.965V21.1992H121.391L117.863 28.9512H107.035V2.53711H123.564L128.609 15.375H128.896V0.978516H95.0176V1.79883L101.047 4.01367V57.0059L94.9766 59.1797V60ZM135.91 60H154.039V59.1797L147.928 56.9648V30.5508H174.342V57.0059L168.312 59.1797V60H186.441V59.1797L180.33 56.9648V4.01367L186.441 1.79883V0.978516H168.312V1.79883L174.342 4.01367V28.9922H147.928V4.01367L154.039 1.79883V0.978516H135.91V1.79883L141.939 4.01367V57.0059L135.91 59.1797V60ZM190.379 60H208.508V59.1797L202.396 56.9648V30.5508H228.811V57.0059L222.781 59.1797V60H240.91V59.1797L234.799 56.9648V4.01367L240.91 1.79883V0.978516H222.781V1.79883L228.811 4.01367V28.9922H202.396V4.01367L208.508 1.79883V0.978516H190.379V1.79883L196.408 4.01367V57.0059L190.379 59.1797V60ZM267.406 60.9844C281.064 60.9844 290.17 48.8027 290.17 30.5918C290.17 12.2988 281.064 0.0351562 267.406 0.0351562C253.789 0.0351562 244.684 12.2578 244.684 30.5918C244.684 48.8438 253.789 60.9844 267.406 60.9844ZM267.406 59.4668C257.768 59.4668 251.369 47.9004 251.369 30.5918C251.369 13.2012 257.768 1.59375 267.406 1.59375C277.127 1.59375 283.525 13.2422 283.525 30.5918C283.525 47.8594 277.127 59.4668 267.406 59.4668ZM297.266 38.8359H310.637V37.4004H297.266V38.8359ZM315.395 72.8379H315.723L320.891 60H360.266L365.434 72.8379H365.721V58.4824H358.953V4.01367L364.982 1.79883V0.978516H323.434V1.79883L330.324 4.01367C330.365 23.4961 330.365 50.3613 319.004 58.4824H315.395V72.8379ZM321.588 58.4824C332.416 48.8027 331.883 21.4453 331.965 2.49609H353.006V58.4824H321.588ZM413.709 56.9648V4.01367L419.82 1.79883V0.978516H401.691V1.79883L407.803 4.01367V8.0332L381.307 48.1875V4.01367L387.418 1.79883V0.978516H369.289V1.79883L375.318 4.01367V57.0059L369.289 59.1797V60H387.418V59.1797L381.307 56.9648V50.7715L407.803 10.6172V57.0059L401.773 59.1797V60H419.902V59.1797L413.709 56.9648ZM423.84 60H441.969V59.1797L435.857 56.9648V2.49609H462.354V57.0059L456.324 59.1797V60H474.453V59.1797L468.26 56.9648V4.01367L474.371 1.79883V0.978516H423.84V1.79883L429.869 4.01367V57.0059L423.84 59.1797V60ZM483.148 60.9844C495.084 60.9844 494.756 22.7168 494.756 2.49609H516.781V57.0059L510.752 59.1797V60H528.881V59.1797L522.688 56.9648V4.01367L528.799 1.79883V0.978516H486.266V1.79883L493.156 4.01367C493.156 21.1992 493.197 59.4668 483.354 59.4668C481.016 59.4668 478.924 53.4785 477.857 50.1973H477.283L477.16 58.9336C478.473 60.1641 480.113 60.9844 483.148 60.9844ZM555.418 60.9844C569.076 60.9844 578.182 48.8027 578.182 30.5918C578.182 12.2988 569.076 0.0351562 555.418 0.0351562C541.801 0.0351562 532.695 12.2578 532.695 30.5918C532.695 48.8438 541.801 60.9844 555.418 60.9844ZM555.418 59.4668C545.779 59.4668 539.381 47.9004 539.381 30.5918C539.381 13.2012 545.779 1.59375 555.418 1.59375C565.139 1.59375 571.537 13.2422 571.537 30.5918C571.537 47.8594 565.139 59.4668 555.418 59.4668ZM581.996 60H597.705V59.1797L590.568 56.5137V7.45898L610.256 54.0527H612.143L631.912 7.91016V56.9648L625.678 59.1797V60H644.135V59.1797L637.9 56.9648V4.01367L644.135 1.79883V0.978516H633.225L613.373 47.3672L594.055 0.978516H582.037V1.79883L589.092 4.01367V56.5137L581.996 59.1797V60ZM690.072 56.9648L672.928 0.978516H664.602V1.79883L667.842 5.90039L652.748 56.9648L646.35 59.1797V60H661.812V59.1797L654.225 56.9648L659.146 40.1895H678.752L683.715 56.9648L677.973 59.1797V60H696.184V59.1797L690.072 56.9648ZM659.598 38.6309L668.908 7.00781L678.301 38.6309H659.598ZM700.777 60H719.686V59.1797L713.246 56.9648V2.53711H723.623L728.094 13.8984H728.422V0.978516H692.041V13.8984H692.41L696.799 2.53711H707.258V56.9648L700.777 59.1797V60ZM777.682 56.9648V4.01367L783.793 1.79883V0.978516H765.664V1.79883L771.775 4.01367V8.0332L745.279 48.1875V4.01367L751.391 1.79883V0.978516H733.262V1.79883L739.291 4.01367V57.0059L733.262 59.1797V60H751.391V59.1797L745.279 56.9648V50.7715L771.775 10.6172V57.0059L765.746 59.1797V60H783.875V59.1797L777.682 56.9648ZM812.545 60H830.387V59.1797L824.439 56.9648V4.01367L830.387 1.79883V0.978516H812.545V1.79883L818.451 4.01367V30.6328C815.867 33.9961 812.012 34.6934 808.566 34.6934C802.865 34.6934 797.984 31.4531 797.984 22.1426V4.01367L803.891 1.79883V0.978516H786.09V1.79883L792.037 4.01367V22.8398C792.037 33.668 798.928 37.9746 805.449 37.9746C810.125 37.9746 815.088 36.498 818.451 32.3555V57.0059L812.545 59.1797V60ZM834.324 60H870.623L872.469 45.6035L872.141 45.5215L865.25 58.4414H846.383V30.5098H857.211L860.738 38.1797H861.312V21.1992H860.738L857.211 28.9512H846.383V2.53711H862.912L867.957 15.375H868.244V0.978516H834.365V1.79883L840.395 4.01367V57.0059L834.324 59.1797V60ZM899.99 60.9844C904.051 60.9844 908.398 60.3691 915.125 56.0625L916.027 41.625H915.412C912.582 52.7812 909.055 59.4668 900.277 59.4668C889.203 59.4668 883.051 47.5723 883.051 30.5508C883.051 14.0625 888.793 1.59375 899.703 1.59375C909.916 1.59375 912.746 8.93555 915.412 19.3945H916.027L915.125 4.95703C908.398 0.609375 904.051 0.0351562 900.318 0.0351562C885.471 0.0351562 876.324 12.873 876.324 30.5508C876.324 48.1465 885.758 60.9844 899.99 60.9844ZM960.119 56.9648L941.375 26.6543L955.771 7.45898L964.262 7.33594H964.713L964.754 0.978516H963.975C958.684 0.978516 956.715 3.43945 953.146 8.11523L937.807 28.1309H933.787V4.01367L940.268 1.79883V0.978516H921.359V1.79883L927.799 4.01367V57.0059L921.359 59.1797V60H940.268V59.1797L933.787 56.9648V29.7715H936.412L954.951 60H966.271V58.7695L960.119 56.9648ZM1011.8 56.9648L994.654 0.978516H986.328V1.79883L989.568 5.90039L974.475 56.9648L968.076 59.1797V60H983.539V59.1797L975.951 56.9648L980.873 40.1895H1000.48L1005.44 56.9648L999.699 59.1797V60H1017.91V59.1797L1011.8 56.9648ZM981.324 38.6309L990.635 7.00781L1000.03 38.6309H981.324ZM1063.93 60V59.1797L1057.9 57.0059V4.01367L1063.93 1.79883V0.978516H1042.56C1032.18 0.978516 1026.56 6.80273 1026.56 15.5801C1026.56 25.3828 1032.55 30.3867 1039.69 31.7812V31.9863C1038.13 32.3965 1036.53 32.7246 1035.67 32.6836L1024.51 56.6777L1019.96 59.1797L1019.92 60H1029.85L1042.07 32.1094C1043.34 32.3145 1044.65 32.3965 1045.84 32.3965H1049.33V30.8379H1045.64C1036.94 30.8379 1033.25 25.4648 1033.25 15.8262C1033.25 7.95117 1036.49 2.53711 1044.49 2.53711H1051.91V56.9648L1046.05 59.1797V60H1063.93ZM1.0918 152H20.123C32.4277 152 39.7285 147.037 39.7285 136.127C39.7285 125.012 31.4023 120.664 21.2715 120.664H13.0273V94.4961H29.3926L34.4785 107.375H34.7246V92.9785H0.96875V93.7988L7.03906 96.0137V149.047L1.0918 151.18V152ZM13.0273 150.482V122.223H21.2715C29.3926 122.223 33.084 127.596 33.084 136.127C33.084 144.74 29.1875 150.482 20.9023 150.482H13.0273ZM68.3984 152.984C82.0566 152.984 91.1621 140.803 91.1621 122.592C91.1621 104.299 82.0566 92.0352 68.3984 92.0352C54.7812 92.0352 45.6758 104.258 45.6758 122.592C45.6758 140.844 54.7812 152.984 68.3984 152.984ZM68.3984 151.467C58.7598 151.467 52.3613 139.9 52.3613 122.592C52.3613 105.201 58.7598 93.5938 68.3984 93.5938C78.1191 93.5938 84.5176 105.242 84.5176 122.592C84.5176 139.859 78.1191 151.467 68.3984 151.467ZM94.9766 152H113.68V151.18L106.953 148.965V94.5371H113.352C120.529 94.5371 125.205 99.0488 125.205 109.836C125.205 119.803 121.062 126.037 113.68 126.037H110.111V127.596H113.762C124.918 127.596 131.85 121.484 131.85 109.836C131.85 100.279 126.518 92.9785 115.443 92.9785H94.9766V93.7988L100.965 96.0137V149.006L94.9766 151.18V152ZM134.926 152H153.998C166.303 152 173.604 147.037 173.604 136.127C173.604 125.012 165.236 120.664 155.146 120.664H146.902V96.0137L152.932 93.7988V92.9785H134.926V93.7988L140.914 96.0137V149.047L134.926 151.18V152ZM146.902 150.482V122.223H155.146C163.268 122.223 166.959 127.596 166.959 136.127C166.959 144.74 163.062 150.482 154.777 150.482H146.902ZM176.639 152H195.67C207.975 152 215.275 147.037 215.275 136.127C215.275 125.012 206.949 120.664 196.818 120.664H188.574V94.4961H204.939L210.025 107.375H210.271V92.9785H176.516V93.7988L182.586 96.0137V149.047L176.639 151.18V152ZM188.574 150.482V122.223H196.818C204.939 122.223 208.631 127.596 208.631 136.127C208.631 144.74 204.734 150.482 196.449 150.482H188.574ZM262.115 148.965L244.971 92.9785H236.645V93.7988L239.885 97.9004L224.791 148.965L218.393 151.18V152H233.855V151.18L226.268 148.965L231.189 132.189H250.795L255.758 148.965L250.016 151.18V152H268.227V151.18L262.115 148.965ZM231.641 130.631L240.951 99.0078L250.344 130.631H231.641ZM288.734 152H307.889C320.193 152 327.494 147.037 327.494 136.127C327.494 128.58 323.311 122.387 315.271 121.238V121.074C321.834 119.229 325.566 113.732 325.566 106.842C325.566 99.5 320.809 92.9785 309.488 92.9785H288.734V93.7988L294.805 96.0137V148.965L288.734 151.18V152ZM300.793 120.664V94.5371H307.93C315.312 94.5371 318.963 99.2949 318.963 107.375C318.963 114.635 315.887 120.664 308.75 120.664H300.793ZM300.793 150.441V122.223H309.037C317.158 122.223 320.809 127.596 320.809 136.127C320.809 144.74 316.953 150.441 308.668 150.441H300.793ZM356.164 152.984C369.822 152.984 378.928 140.803 378.928 122.592C378.928 104.299 369.822 92.0352 356.164 92.0352C342.547 92.0352 333.441 104.258 333.441 122.592C333.441 140.844 342.547 152.984 356.164 152.984ZM356.164 151.467C346.525 151.467 340.127 139.9 340.127 122.592C340.127 105.201 346.525 93.5938 356.164 93.5938C365.885 93.5938 372.283 105.242 372.283 122.592C372.283 139.859 365.885 151.467 356.164 151.467ZM421.502 148.965L402.758 118.654L417.154 99.459L425.645 99.3359H426.096L426.137 92.9785H425.357C420.066 92.9785 418.098 95.4395 414.529 100.115L399.189 120.131H395.17V96.0137L401.65 93.7988V92.9785H382.742V93.7988L389.182 96.0137V149.006L382.742 151.18V152H401.65V151.18L395.17 148.965V121.771H397.795L416.334 152H427.654V150.77L421.502 148.965ZM431.223 152H449.926V151.18L443.199 148.965V94.5371H449.598C456.775 94.5371 461.451 99.0488 461.451 109.836C461.451 119.803 457.309 126.037 449.926 126.037H446.357V127.596H450.008C461.164 127.596 468.096 121.484 468.096 109.836C468.096 100.279 462.764 92.9785 451.689 92.9785H431.223V93.7988L437.211 96.0137V149.006L431.223 151.18V152ZM477.693 152.984C483.189 152.533 487.209 150.359 493.238 135.922L511.941 96.0137L518.545 93.8398V92.9785H503.451V93.8398L510.055 96.0137L496.273 125.504L482.205 96.0137L487.947 93.8398V92.9785H469.244V93.8398L475.602 96.0137L493.115 131.984L489.055 141.213C485.281 142.32 481.303 142.689 477.488 142.156L476.832 142.525L477.693 152.984ZM520.801 152H539.791V151.18L532.777 148.965V94.4961H548.404L553.449 107.375H553.736V92.9785H520.801V93.7988L526.789 96.0137V149.006L520.801 151.18V152ZM613.209 148.965L594.465 118.654L608.861 99.459L617.352 99.3359H617.803L617.844 92.9785H617.064C611.773 92.9785 609.805 95.4395 606.236 100.115L590.896 120.131H586.877V96.0137L593.357 93.7988V92.9785H574.449V93.7988L580.889 96.0137V149.006L574.449 151.18V152H593.357V151.18L586.877 148.965V121.771H589.502L608.041 152H619.361V150.77L613.209 148.965ZM664.889 148.965L647.744 92.9785H639.418V93.7988L642.658 97.9004L627.564 148.965L621.166 151.18V152H636.629V151.18L629.041 148.965L633.963 132.189H653.568L658.531 148.965L652.789 151.18V152H671V151.18L664.889 148.965ZM634.414 130.631L643.725 99.0078L653.117 130.631H634.414ZM673.543 152H692.246V151.18L685.52 148.965V94.5371H691.918C699.096 94.5371 703.771 99.0488 703.771 109.836C703.771 119.803 699.629 126.037 692.246 126.037H688.678V127.596H692.328C703.484 127.596 710.416 121.484 710.416 109.836C710.416 100.279 705.084 92.9785 694.01 92.9785H673.543V93.7988L679.531 96.0137V149.006L673.543 151.18V152ZM747.248 148.965L730.104 92.9785H721.777V93.7988L725.018 97.9004L709.924 148.965L703.525 151.18V152H718.988V151.18L711.4 148.965L716.322 132.189H735.928L740.891 148.965L735.148 151.18V152H753.359V151.18L747.248 148.965ZM716.773 130.631L726.084 99.0078L735.477 130.631H716.773ZM756.025 152H775.057C787.361 152 794.662 147.037 794.662 136.127C794.662 125.012 786.336 120.664 776.205 120.664H767.961V94.4961H784.326L789.412 107.375H789.658V92.9785H755.902V93.7988L761.973 96.0137V149.047L756.025 151.18V152ZM767.961 150.482V122.223H776.205C784.326 122.223 788.018 127.596 788.018 136.127C788.018 144.74 784.121 150.482 775.836 150.482H767.961ZM841.502 148.965L824.357 92.9785H816.031V93.7988L819.271 97.9004L804.178 148.965L797.779 151.18V152H813.242V151.18L805.654 148.965L810.576 132.189H830.182L835.145 148.965L829.402 151.18V152H847.613V151.18L841.502 148.965ZM811.027 130.631L820.338 99.0078L829.73 130.631H811.027ZM891.582 148.965L875.791 119.434L889.777 96.0137L896.176 93.8398V92.9785H881.656V93.8398L888.055 96.0137L875.053 118.039L863.568 96.0137L869.639 93.8398V92.9785H851.141V93.8398L856.473 96.0137L870.91 122.961L856.104 148.965L849.746 151.139V152H864.143V151.139L857.785 148.965L871.73 124.396L884.568 148.965L878.539 151.139V152H896.955V151.139L891.582 148.965ZM941.826 148.965L924.682 92.9785H916.355V93.7988L919.596 97.9004L904.502 148.965L898.104 151.18V152H913.566V151.18L905.979 148.965L910.9 132.189H930.506L935.469 148.965L929.727 151.18V152H947.938V151.18L941.826 148.965ZM911.352 130.631L920.662 99.0078L930.055 130.631H911.352ZM45.3887 240.965V188.014L51.5 185.799V184.979H33.3711V185.799L39.4824 188.014V192.033L12.9863 232.188V188.014L19.0977 185.799V184.979H0.96875V185.799L6.99805 188.014V241.006L0.96875 243.18V244H19.0977V243.18L12.9863 240.965V234.771L39.4824 194.617V241.006L33.4531 243.18V244H51.582V243.18L45.3887 240.965ZM88.209 244.984C98.1758 244.984 105.066 238.381 105.066 228.701C105.066 219.883 99.8574 213.977 92.2695 212.172C99.4473 209.916 103.672 204.748 103.672 197.98C103.672 190.105 98.5449 184.035 89.7676 184.035C83.9023 184.035 80.0059 186.045 77.1758 187.727L76.3965 202.574H76.9297C78.7754 195.766 81.8516 185.553 89.6035 185.553C94.6484 185.553 97.3965 191.008 97.3965 197.98C97.3965 206.553 92.7207 210.326 84.6406 212.869V214.059C93.0898 215.494 99.0371 219.35 99.0371 229.768C99.0371 237.602 95.2227 243.467 88.4961 243.467C81.2773 243.467 77.9141 234.32 75.7402 226.363H75.125L75.9043 241.129C78.0781 243.016 83.4102 244.984 88.209 244.984ZM151.865 240.965L134.721 184.979H126.395V185.799L129.635 189.9L114.541 240.965L108.143 243.18V244H123.605V243.18L116.018 240.965L120.939 224.189H140.545L145.508 240.965L139.766 243.18V244H157.977V243.18L151.865 240.965ZM121.391 222.631L130.701 191.008L140.094 222.631H121.391ZM160.52 244H178.648V243.18L172.537 240.965V214.551H198.951V241.006L192.922 243.18V244H211.051V243.18L204.939 240.965V188.014L211.051 185.799V184.979H192.922V185.799L198.951 188.014V212.992H172.537V188.014L178.648 185.799V184.979H160.52V185.799L166.549 188.014V241.006L160.52 243.18V244ZM214.988 244H233.979V243.18L226.965 240.965V186.496H242.592L247.637 199.375H247.924V184.979H214.988V185.799L220.977 188.014V241.006L214.988 243.18V244ZM252.723 244H289.021L290.867 229.604L290.539 229.521L283.648 242.441H264.781V214.51H275.609L279.137 222.18H279.711V205.199H279.137L275.609 212.951H264.781V186.537H281.311L286.355 199.375H286.643V184.979H252.764V185.799L258.793 188.014V241.006L252.723 243.18V244ZM308.381 244.984C318.348 244.984 325.238 238.381 325.238 228.701C325.238 219.883 320.029 213.977 312.441 212.172C319.619 209.916 323.844 204.748 323.844 197.98C323.844 190.105 318.717 184.035 309.939 184.035C304.074 184.035 300.178 186.045 297.348 187.727L296.568 202.574H297.102C298.947 195.766 302.023 185.553 309.775 185.553C314.82 185.553 317.568 191.008 317.568 197.98C317.568 206.553 312.893 210.326 304.812 212.869V214.059C313.262 215.494 319.209 219.35 319.209 229.768C319.209 237.602 315.395 243.467 308.668 243.467C301.449 243.467 298.086 234.32 295.912 226.363H295.297L296.076 241.129C298.25 243.016 303.582 244.984 308.381 244.984ZM336.6 244.984C342.096 244.533 346.115 242.359 352.145 227.922L370.848 188.014L377.451 185.84V184.979H362.357V185.84L368.961 188.014L355.18 217.504L341.111 188.014L346.854 185.84V184.979H328.15V185.84L334.508 188.014L352.021 223.984L347.961 233.213C344.188 234.32 340.209 234.689 336.395 234.156L335.738 234.525L336.6 244.984ZM379.707 244H398.41V243.18L391.684 240.965V186.537H398.082C405.26 186.537 409.936 191.049 409.936 201.836C409.936 211.803 405.793 218.037 398.41 218.037H394.842V219.596H398.492C409.648 219.596 416.58 213.484 416.58 201.836C416.58 192.279 411.248 184.979 400.174 184.979H379.707V185.799L385.695 188.014V241.006L379.707 243.18V244ZM453.412 240.965L436.268 184.979H427.941V185.799L431.182 189.9L416.088 240.965L409.689 243.18V244H425.152V243.18L417.564 240.965L422.486 224.189H442.092L447.055 240.965L441.312 243.18V244H459.523V243.18L453.412 240.965ZM422.938 222.631L432.248 191.008L441.641 222.631H422.938ZM480.031 244H499.186C511.49 244 518.791 239.037 518.791 228.127C518.791 220.58 514.607 214.387 506.568 213.238V213.074C513.131 211.229 516.863 205.732 516.863 198.842C516.863 191.5 512.105 184.979 500.785 184.979H480.031V185.799L486.102 188.014V240.965L480.031 243.18V244ZM492.09 212.664V186.537H499.227C506.609 186.537 510.26 191.295 510.26 199.375C510.26 206.635 507.184 212.664 500.047 212.664H492.09ZM492.09 242.441V214.223H500.334C508.455 214.223 512.105 219.596 512.105 228.127C512.105 236.74 508.25 242.441 499.965 242.441H492.09ZM541.637 244H559.766V243.18L553.654 240.965V186.496H580.15V241.006L574.121 243.18V244H592.25V243.18L586.057 240.965V188.014L592.168 185.799V184.979H541.637V185.799L547.666 188.014V241.006L541.637 243.18V244ZM596.188 244H632.486L634.332 229.604L634.004 229.521L627.113 242.441H608.246V214.51H619.074L622.602 222.18H623.176V205.199H622.602L619.074 212.951H608.246V186.537H624.775L629.82 199.375H630.107V184.979H596.229V185.799L602.258 188.014V241.006L596.188 243.18V244ZM637.121 244H655.824V243.18L649.098 240.965V186.537H655.496C662.674 186.537 667.35 191.049 667.35 201.836C667.35 211.803 663.207 218.037 655.824 218.037H652.256V219.596H655.906C667.062 219.596 673.994 213.484 673.994 201.836C673.994 192.279 668.662 184.979 657.588 184.979H637.121V185.799L643.109 188.014V241.006L637.121 243.18V244ZM721.49 240.965V188.014L727.602 185.799V184.979H709.473V185.799L715.584 188.014V192.033L689.088 232.188V188.014L695.199 185.799V184.979H677.07V185.799L683.1 188.014V241.006L677.07 243.18V244H695.199V243.18L689.088 240.965V234.771L715.584 194.617V241.006L709.555 243.18V244H727.684V243.18L721.49 240.965ZM754.18 244.984C767.838 244.984 776.943 232.803 776.943 214.592C776.943 196.299 767.838 184.035 754.18 184.035C740.562 184.035 731.457 196.258 731.457 214.592C731.457 232.844 740.562 244.984 754.18 244.984ZM754.18 243.467C744.541 243.467 738.143 231.9 738.143 214.592C738.143 197.201 744.541 185.594 754.18 185.594C763.9 185.594 770.299 197.242 770.299 214.592C770.299 231.859 763.9 243.467 754.18 243.467ZM777.559 256.838H777.887L783.055 244H822.43L827.598 256.838H827.885V242.482H821.117V188.014L827.146 185.799V184.979H785.598V185.799L792.488 188.014C792.529 207.496 792.529 234.361 781.168 242.482H777.559V256.838ZM783.752 242.482C794.58 232.803 794.047 205.445 794.129 186.496H815.17V242.482H783.752ZM891.377 240.965L874.232 184.979H865.906V185.799L869.146 189.9L854.053 240.965L847.654 243.18V244H863.117V243.18L855.529 240.965L860.451 224.189H880.057L885.02 240.965L879.277 243.18V244H897.488V243.18L891.377 240.965ZM860.902 222.631L870.213 191.008L879.605 222.631H860.902ZM898.801 256.838H899.129L904.297 244H943.672L948.84 256.838H949.127V242.482H942.359V188.014L948.389 185.799V184.979H906.84V185.799L913.73 188.014C913.771 207.496 913.771 234.361 902.41 242.482H898.801V256.838ZM904.994 242.482C915.822 232.803 915.289 205.445 915.371 186.496H936.412V242.482H904.994ZM952.695 244H971.398V243.18L964.672 240.965V186.537H971.07C978.248 186.537 982.924 191.049 982.924 201.836C982.924 211.803 978.781 218.037 971.398 218.037H967.83V219.596H971.48C982.637 219.596 989.568 213.484 989.568 201.836C989.568 192.279 984.236 184.979 973.162 184.979H952.695V185.799L958.684 188.014V241.006L952.695 243.18V244Z" fill="white"></path> </svg> 