<?xml version="1.0" encoding="UTF-8"?> <svg xmlns="http://www.w3.org/2000/svg" width="1477" height="271" viewBox="0 0 1477 271" fill="none"> <path d="M1.96875 74H20.0977V73.1797L13.9863 70.9648V44.5508H40.4004V71.0059L34.3711 73.1797V74H52.5V73.1797L46.3887 70.9648V18.0137L52.5 15.7988V14.9785H34.3711V15.7988L40.4004 18.0137V42.9922H13.9863V18.0137L20.0977 15.7988V14.9785H1.96875V15.7988L7.99805 18.0137V71.0059L1.96875 73.1797V74ZM98.3965 70.9648L81.252 14.9785H72.9258V15.7988L76.166 19.9004L61.0723 70.9648L54.6738 73.1797V74H70.1367V73.1797L62.5488 70.9648L67.4707 54.1895H87.0762L92.0391 70.9648L86.2969 73.1797V74H104.508V73.1797L98.3965 70.9648ZM67.9219 52.6309L77.2324 21.0078L86.625 52.6309H67.9219ZM107.051 74H126.041V73.1797L119.027 70.9648V16.4961H134.654L139.699 29.375H139.986V14.9785H107.051V15.7988L113.039 18.0137V71.0059L107.051 73.1797V74ZM164.965 74.9844C178.623 74.9844 187.729 62.8027 187.729 44.5918C187.729 26.2988 178.623 14.0352 164.965 14.0352C151.348 14.0352 142.242 26.2578 142.242 44.5918C142.242 62.8438 151.348 74.9844 164.965 74.9844ZM164.965 73.4668C155.326 73.4668 148.928 61.9004 148.928 44.5918C148.928 27.2012 155.326 15.5938 164.965 15.5938C174.686 15.5938 181.084 27.2422 181.084 44.5918C181.084 61.8594 174.686 73.4668 164.965 73.4668ZM191.543 74H210.246V73.1797L203.52 70.9648V16.5371H209.918C217.096 16.5371 221.771 21.0488 221.771 31.8359C221.771 41.8027 217.629 48.0371 210.246 48.0371H206.678V49.5957H210.328C221.484 49.5957 228.416 43.4844 228.416 31.8359C228.416 22.2793 223.084 14.9785 212.01 14.9785H191.543V15.7988L197.531 18.0137V71.0059L191.543 73.1797V74ZM231.492 74H249.621V73.1797L243.51 70.9648V44.5508H269.924V71.0059L263.895 73.1797V74H282.023V73.1797L275.912 70.9648V18.0137L282.023 15.7988V14.9785H263.895V15.7988L269.924 18.0137V42.9922H243.51V18.0137L249.621 15.7988V14.9785H231.492V15.7988L237.521 18.0137V71.0059L231.492 73.1797V74ZM285.961 74H305.033C317.338 74 324.639 69.0371 324.639 58.127C324.639 47.0117 316.271 42.6641 306.182 42.6641H297.938V18.0137L303.967 15.7988V14.9785H285.961V15.7988L291.949 18.0137V71.0469L285.961 73.1797V74ZM327.51 74H345.557V73.1797L339.527 70.9648V18.0137L345.557 15.7988V14.9785H327.51V15.7988L333.539 18.0137V71.0059L327.51 73.1797V74ZM297.938 72.4824V44.2227H306.182C314.303 44.2227 317.994 49.5957 317.994 58.127C317.994 66.7402 314.098 72.4824 305.812 72.4824H297.938ZM374.76 10.7949C379.559 10.7949 381.855 5.54492 381.938 0.828125L381.486 0.623047C380.953 4.02734 378.902 6.16016 374.76 6.16016C370.658 6.16016 368.648 4.02734 368.115 0.623047L367.664 0.828125C367.746 5.70898 370.125 10.7949 374.76 10.7949ZM393.955 70.9648V18.0137L400.066 15.7988V14.9785H381.938V15.7988L388.049 18.0137V22.0332L361.553 62.1875V18.0137L367.664 15.7988V14.9785H349.535V15.7988L355.564 18.0137V71.0059L349.535 73.1797V74H367.664V73.1797L361.553 70.9648V64.7715L388.049 24.6172V71.0059L382.02 73.1797V74H400.148V73.1797L393.955 70.9648ZM460.811 70.9648L442.066 40.6543L456.463 21.459L464.953 21.3359H465.404L465.445 14.9785H464.666C459.375 14.9785 457.406 17.4395 453.838 22.1152L438.498 42.1309H434.479V18.0137L440.959 15.7988V14.9785H422.051V15.7988L428.49 18.0137V71.0059L422.051 73.1797V74H440.959V73.1797L434.479 70.9648V43.7715H437.104L455.643 74H466.963V72.7695L460.811 70.9648ZM512.49 70.9648L495.346 14.9785H487.02V15.7988L490.26 19.9004L475.166 70.9648L468.768 73.1797V74H484.23V73.1797L476.643 70.9648L481.564 54.1895H501.17L506.133 70.9648L500.391 73.1797V74H518.602V73.1797L512.49 70.9648ZM482.016 52.6309L491.326 21.0078L500.719 52.6309H482.016ZM521.145 74H539.848V73.1797L533.121 70.9648V16.5371H539.52C546.697 16.5371 551.373 21.0488 551.373 31.8359C551.373 41.8027 547.23 48.0371 539.848 48.0371H536.279V49.5957H539.93C551.086 49.5957 558.018 43.4844 558.018 31.8359C558.018 22.2793 552.686 14.9785 541.611 14.9785H521.145V15.7988L527.133 18.0137V71.0059L521.145 73.1797V74ZM594.85 70.9648L577.705 14.9785H569.379V15.7988L572.619 19.9004L557.525 70.9648L551.127 73.1797V74H566.59V73.1797L559.002 70.9648L563.924 54.1895H583.529L588.492 70.9648L582.75 73.1797V74H600.961V73.1797L594.85 70.9648ZM564.375 52.6309L573.686 21.0078L583.078 52.6309H564.375ZM603.627 74H622.658C634.963 74 642.264 69.0371 642.264 58.127C642.264 47.0117 633.938 42.6641 623.807 42.6641H615.562V16.4961H631.928L637.014 29.375H637.26V14.9785H603.504V15.7988L609.574 18.0137V71.0469L603.627 73.1797V74ZM615.562 72.4824V44.2227H623.807C631.928 44.2227 635.619 49.5957 635.619 58.127C635.619 66.7402 631.723 72.4824 623.438 72.4824H615.562ZM689.104 70.9648L671.959 14.9785H663.633V15.7988L666.873 19.9004L651.779 70.9648L645.381 73.1797V74H660.844V73.1797L653.256 70.9648L658.178 54.1895H677.783L682.746 70.9648L677.004 73.1797V74H695.215V73.1797L689.104 70.9648ZM658.629 52.6309L667.939 21.0078L677.332 52.6309H658.629ZM739.184 70.9648L723.393 41.4336L737.379 18.0137L743.777 15.8398V14.9785H729.258V15.8398L735.656 18.0137L722.654 40.0391L711.17 18.0137L717.24 15.8398V14.9785H698.742V15.8398L704.074 18.0137L718.512 44.9609L703.705 70.9648L697.348 73.1387V74H711.744V73.1387L705.387 70.9648L719.332 46.3965L732.17 70.9648L726.141 73.1387V74H744.557V73.1387L739.184 70.9648ZM763.383 74H782.537C794.842 74 802.143 69.0371 802.143 58.127C802.143 50.5801 797.959 44.3867 789.92 43.2383V43.0742C796.482 41.2285 800.215 35.7324 800.215 28.8418C800.215 21.5 795.457 14.9785 784.137 14.9785H763.383V15.7988L769.453 18.0137V70.9648L763.383 73.1797V74ZM775.441 42.6641V16.5371H782.578C789.961 16.5371 793.611 21.2949 793.611 29.375C793.611 36.6348 790.535 42.6641 783.398 42.6641H775.441ZM775.441 72.4414V44.2227H783.686C791.807 44.2227 795.457 49.5957 795.457 58.127C795.457 66.7402 791.602 72.4414 783.316 72.4414H775.441ZM43.9277 162.965L26.7832 106.979H18.457V107.799L21.6973 111.9L6.60352 162.965L0.205078 165.18V166H15.668V165.18L8.08008 162.965L13.002 146.189H32.6074L37.5703 162.965L31.8281 165.18V166H50.0391V165.18L43.9277 162.965ZM13.4531 144.631L22.7637 113.008L32.1562 144.631H13.4531ZM51.3516 178.838H51.6797L56.8477 166H96.2227L101.391 178.838H101.678V164.482H94.9102V110.014L100.939 107.799V106.979H59.3906V107.799L66.2812 110.014C66.3223 129.496 66.3223 156.361 54.9609 164.482H51.3516V178.838ZM57.5449 164.482C68.373 154.803 67.8398 127.445 67.9219 108.496H88.9629V164.482H57.5449ZM105.246 166H120.955V165.18L113.818 162.514V113.459L133.506 160.053H135.393L155.162 113.91V162.965L148.928 165.18V166H167.385V165.18L161.15 162.965V110.014L167.385 107.799V106.979H156.475L136.623 153.367L117.305 106.979H105.287V107.799L112.342 110.014V162.514L105.246 165.18V166ZM215.783 162.965V110.014L221.895 107.799V106.979H203.766V107.799L209.877 110.014V114.033L183.381 154.188V110.014L189.492 107.799V106.979H171.363V107.799L177.393 110.014V163.006L171.363 165.18V166H189.492V165.18L183.381 162.965V156.771L209.877 116.617V163.006L203.848 165.18V166H221.977V165.18L215.783 162.965ZM225.914 166H244.043V165.18L237.932 162.965V136.551H264.346V163.006L258.316 165.18V166H276.445V165.18L270.334 162.965V110.014L276.445 107.799V106.979H258.316V107.799L264.346 110.014V134.992H237.932V110.014L244.043 107.799V106.979H225.914V107.799L231.943 110.014V163.006L225.914 165.18V166ZM324.803 162.965V110.014L330.914 107.799V106.979H312.785V107.799L318.896 110.014V114.033L292.4 154.188V110.014L298.512 107.799V106.979H280.383V107.799L286.412 110.014V163.006L280.383 165.18V166H298.512V165.18L292.4 162.965V156.771L318.896 116.617V163.006L312.867 165.18V166H330.996V165.18L324.803 162.965ZM358.436 166.984C362.496 166.984 366.844 166.369 373.57 162.062L374.473 147.625H373.857C371.027 158.781 367.5 165.467 358.723 165.467C347.648 165.467 341.496 153.572 341.496 136.551C341.496 120.062 347.238 107.594 358.148 107.594C368.361 107.594 371.191 114.936 373.857 125.395H374.473L373.57 110.957C366.844 106.609 362.496 106.035 358.764 106.035C343.916 106.035 334.77 118.873 334.77 136.551C334.77 154.146 344.203 166.984 358.436 166.984ZM389.402 166H408.311V165.18L401.871 162.965V108.537H412.248L416.719 119.898H417.047V106.979H380.666V119.898H381.035L385.424 108.537H395.883V162.965L389.402 165.18V166ZM421.887 166H440.59V165.18L433.863 162.965V108.537H440.262C447.439 108.537 452.115 113.049 452.115 123.836C452.115 133.803 447.973 140.037 440.59 140.037H437.021V141.596H440.672C451.828 141.596 458.76 135.484 458.76 123.836C458.76 114.279 453.428 106.979 442.354 106.979H421.887V107.799L427.875 110.014V163.006L421.887 165.18V166ZM495.592 162.965L478.447 106.979H470.121V107.799L473.361 111.9L458.268 162.965L451.869 165.18V166H467.332V165.18L459.744 162.965L464.666 146.189H484.271L489.234 162.965L483.492 165.18V166H501.703V165.18L495.592 162.965ZM465.117 144.631L474.428 113.008L483.82 144.631H465.117ZM506.297 166H525.205V165.18L518.766 162.965V108.537H529.143L533.613 119.898H533.941V106.979H497.561V119.898H497.93L502.318 108.537H512.777V162.965L506.297 165.18V166ZM583.201 162.965V110.014L589.312 107.799V106.979H571.184V107.799L577.295 110.014V114.033L550.799 154.188V110.014L556.91 107.799V106.979H538.781V107.799L544.811 110.014V163.006L538.781 165.18V166H556.91V165.18L550.799 162.965V156.771L577.295 116.617V163.006L571.266 165.18V166H589.395V165.18L583.201 162.965ZM593.332 166H612.486C624.791 166 632.092 161.037 632.092 150.127C632.092 142.58 627.908 136.387 619.869 135.238V135.074C626.432 133.229 630.164 127.732 630.164 120.842C630.164 113.5 625.406 106.979 614.086 106.979H593.332V107.799L599.402 110.014V162.965L593.332 165.18V166ZM605.391 134.664V108.537H612.527C619.91 108.537 623.561 113.295 623.561 121.375C623.561 128.635 620.484 134.664 613.348 134.664H605.391ZM605.391 164.441V136.223H613.635C621.756 136.223 625.406 141.596 625.406 150.127C625.406 158.74 621.551 164.441 613.266 164.441H605.391ZM636.973 166H655.102V165.18L648.99 162.965V136.551H675.404V163.006L669.375 165.18V166H687.504V165.18L681.393 162.965V110.014L687.504 107.799V106.979H669.375V107.799L675.404 110.014V134.992H648.99V110.014L655.102 107.799V106.979H636.973V107.799L643.002 110.014V163.006L636.973 165.18V166ZM714 166.984C727.658 166.984 736.764 154.803 736.764 136.592C736.764 118.299 727.658 106.035 714 106.035C700.383 106.035 691.277 118.258 691.277 136.592C691.277 154.844 700.383 166.984 714 166.984ZM714 165.467C704.361 165.467 697.963 153.9 697.963 136.592C697.963 119.201 704.361 107.594 714 107.594C723.721 107.594 730.119 119.242 730.119 136.592C730.119 153.859 723.721 165.467 714 165.467ZM743.859 144.836H757.23V143.4H743.859V144.836ZM772.816 166H791.725V165.18L785.285 162.965V108.537H795.662L800.133 119.898H800.461V106.979H764.08V119.898H764.449L768.838 108.537H779.297V162.965L772.816 165.18V166ZM805.301 166H841.6L843.445 151.604L843.117 151.521L836.227 164.441H817.359V136.51H828.188L831.715 144.18H832.289V127.199H831.715L828.188 134.951H817.359V108.537H833.889L838.934 121.375H839.221V106.979H805.342V107.799L811.371 110.014V163.006L805.301 165.18V166ZM846.234 166H864.938V165.18L858.211 162.965V108.537H864.609C871.787 108.537 876.463 113.049 876.463 123.836C876.463 133.803 872.32 140.037 864.938 140.037H861.369V141.596H865.02C876.176 141.596 883.107 135.484 883.107 123.836C883.107 114.279 877.775 106.979 866.701 106.979H846.234V107.799L852.223 110.014V163.006L846.234 165.18V166ZM886.184 166H904.887V165.18L898.16 162.965V108.537H904.559C911.736 108.537 916.412 113.049 916.412 123.836C916.412 133.803 912.27 140.037 904.887 140.037H901.318V141.596H904.969C916.125 141.596 923.057 135.484 923.057 123.836C923.057 114.279 917.725 106.979 906.65 106.979H886.184V107.799L892.172 110.014V163.006L886.184 165.18V166ZM970.553 162.965V110.014L976.664 107.799V106.979H958.535V107.799L964.646 110.014V114.033L938.15 154.188V110.014L944.262 107.799V106.979H926.133V107.799L932.162 110.014V163.006L926.133 165.18V166H944.262V165.18L938.15 162.965V156.771L964.646 116.617V163.006L958.617 165.18V166H976.746V165.18L970.553 162.965ZM990.281 166H1009.19V165.18L1002.75 162.965V108.537H1013.13L1017.6 119.898H1017.93V106.979H981.545V119.898H981.914L986.303 108.537H996.762V162.965L990.281 165.18V166ZM1042.95 166.984C1056.6 166.984 1065.71 154.803 1065.71 136.592C1065.71 118.299 1056.6 106.035 1042.95 106.035C1029.33 106.035 1020.22 118.258 1020.22 136.592C1020.22 154.844 1029.33 166.984 1042.95 166.984ZM1042.95 165.467C1033.31 165.467 1026.91 153.9 1026.91 136.592C1026.91 119.201 1033.31 107.594 1042.95 107.594C1052.67 107.594 1059.06 119.242 1059.06 136.592C1059.06 153.859 1052.67 165.467 1042.95 165.467ZM1069.52 166H1088.23V165.18L1081.5 162.965V108.537H1087.9C1095.08 108.537 1099.75 113.049 1099.75 123.836C1099.75 133.803 1095.61 140.037 1088.23 140.037H1084.66V141.596H1088.31C1099.46 141.596 1106.4 135.484 1106.4 123.836C1106.4 114.279 1101.06 106.979 1089.99 106.979H1069.52V107.799L1075.51 110.014V163.006L1069.52 165.18V166ZM1153.89 162.965V110.014L1160 107.799V106.979H1141.88V107.799L1147.99 110.014V114.033L1121.49 154.188V110.014L1127.6 107.799V106.979H1109.47V107.799L1115.5 110.014V163.006L1109.47 165.18V166H1127.6V165.18L1121.49 162.965V156.771L1147.99 116.617V163.006L1141.96 165.18V166H1160.09V165.18L1153.89 162.965ZM1205.98 162.965L1188.84 106.979H1180.51V107.799L1183.75 111.9L1168.66 162.965L1162.26 165.18V166H1177.72V165.18L1170.13 162.965L1175.06 146.189H1194.66L1199.62 162.965L1193.88 165.18V166H1212.09V165.18L1205.98 162.965ZM1175.51 144.631L1184.82 113.008L1194.21 144.631H1175.51ZM1219.39 166.984C1231.33 166.984 1231 128.717 1231 108.496H1253.03V163.006L1247 165.18V166H1265.13V165.18L1258.93 162.965V110.014L1265.04 107.799V106.979H1222.51V107.799L1229.4 110.014C1229.4 127.199 1229.44 165.467 1219.6 165.467C1217.26 165.467 1215.17 159.479 1214.1 156.197H1213.53L1213.41 164.934C1214.72 166.164 1216.36 166.984 1219.39 166.984ZM1269.11 166H1288.18C1300.48 166 1307.78 161.037 1307.78 150.127C1307.78 139.012 1299.42 134.664 1289.33 134.664H1281.08V110.014L1287.11 107.799V106.979H1269.11V107.799L1275.09 110.014V163.047L1269.11 165.18V166ZM1281.08 164.482V136.223H1289.33C1297.45 136.223 1301.14 141.596 1301.14 150.127C1301.14 158.74 1297.24 164.482 1288.96 164.482H1281.08ZM1310.7 166H1328.82V165.18L1322.71 162.965V136.551H1349.13V163.006L1343.1 165.18V166H1361.23V165.18L1355.12 162.965V110.014L1361.23 107.799V106.979H1343.1V107.799L1349.13 110.014V134.992H1322.71V110.014L1328.82 107.799V106.979H1310.7V107.799L1316.72 110.014V163.006L1310.7 165.18V166ZM1387.72 166.984C1401.38 166.984 1410.49 154.803 1410.49 136.592C1410.49 118.299 1401.38 106.035 1387.72 106.035C1374.11 106.035 1365 118.258 1365 136.592C1365 154.844 1374.11 166.984 1387.72 166.984ZM1387.72 165.467C1378.08 165.467 1371.69 153.9 1371.69 136.592C1371.69 119.201 1378.08 107.594 1387.72 107.594C1397.44 107.594 1403.84 119.242 1403.84 136.592C1403.84 153.859 1397.44 165.467 1387.72 165.467ZM1414.3 166H1430.01V165.18L1422.87 162.514V113.459L1442.56 160.053H1444.45L1464.22 113.91V162.965L1457.98 165.18V166H1476.44V165.18L1470.21 162.965V110.014L1476.44 107.799V106.979H1465.53L1445.68 153.367L1426.36 106.979H1414.34V107.799L1421.4 110.014V162.514L1414.3 165.18V166ZM8.49023 258.984C13.9863 258.533 18.0059 256.359 24.0352 241.922L42.7383 202.014L49.3418 199.84V198.979H34.248V199.84L40.8516 202.014L27.0703 231.504L13.002 202.014L18.7441 199.84V198.979H0.0410156V199.84L6.39844 202.014L23.9121 237.984L19.8516 247.213C16.0781 248.32 12.0996 248.689 8.28516 248.156L7.62891 248.525L8.49023 258.984ZM72.7207 258.984C76.7812 258.984 81.1289 258.369 87.8555 254.062L88.7578 239.625H88.1426C85.3125 250.781 81.7852 257.467 73.0078 257.467C61.9336 257.467 55.7812 245.572 55.7812 228.551C55.7812 212.062 61.5234 199.594 72.4336 199.594C82.6465 199.594 85.4766 206.936 88.1426 217.395H88.7578L87.8555 202.957C81.1289 198.609 76.7812 198.035 73.0488 198.035C58.2012 198.035 49.0547 210.873 49.0547 228.551C49.0547 246.146 58.4883 258.984 72.7207 258.984ZM103.688 258H122.596V257.18L116.156 254.965V200.537H126.533L131.004 211.898H131.332V198.979H94.9512V211.898H95.3203L99.709 200.537H110.168V254.965L103.688 257.18V258ZM136.172 258H154.875V257.18L148.148 254.965V200.537H154.547C161.725 200.537 166.4 205.049 166.4 215.836C166.4 225.803 162.258 232.037 154.875 232.037H151.307V233.596H154.957C166.113 233.596 173.045 227.484 173.045 215.836C173.045 206.279 167.713 198.979 156.639 198.979H136.172V199.799L142.16 202.014V255.006L136.172 257.18V258ZM199.91 258.984C213.568 258.984 222.674 246.803 222.674 228.592C222.674 210.299 213.568 198.035 199.91 198.035C186.293 198.035 177.188 210.258 177.188 228.592C177.188 246.844 186.293 258.984 199.91 258.984ZM199.91 257.467C190.271 257.467 183.873 245.9 183.873 228.592C183.873 211.201 190.271 199.594 199.91 199.594C209.631 199.594 216.029 211.242 216.029 228.592C216.029 245.859 209.631 257.467 199.91 257.467ZM251.713 194.795C256.512 194.795 258.809 189.545 258.891 184.828L258.439 184.623C257.906 188.027 255.855 190.16 251.713 190.16C247.611 190.16 245.602 188.027 245.068 184.623L244.617 184.828C244.699 189.709 247.078 194.795 251.713 194.795ZM270.908 254.965V202.014L277.02 199.799V198.979H258.891V199.799L265.002 202.014V206.033L238.506 246.188V202.014L244.617 199.799V198.979H226.488V199.799L232.518 202.014V255.006L226.488 257.18V258H244.617V257.18L238.506 254.965V248.771L265.002 208.617V255.006L258.973 257.18V258H277.102V257.18L270.908 254.965ZM304.541 258.984C308.602 258.984 312.949 258.369 319.676 254.062L320.578 239.625H319.963C317.133 250.781 313.605 257.467 304.828 257.467C293.754 257.467 287.602 245.572 287.602 228.551C287.602 212.062 293.344 199.594 304.254 199.594C314.467 199.594 317.297 206.936 319.963 217.395H320.578L319.676 202.957C312.949 198.609 308.602 198.035 304.869 198.035C290.021 198.035 280.875 210.873 280.875 228.551C280.875 246.146 290.309 258.984 304.541 258.984ZM335.508 258H354.416V257.18L347.977 254.965V200.537H358.354L362.824 211.898H363.152V198.979H326.771V211.898H327.141L331.529 200.537H341.988V254.965L335.508 257.18V258ZM367.992 258H387.146C399.451 258 406.752 253.037 406.752 242.127C406.752 234.58 402.568 228.387 394.529 227.238V227.074C401.092 225.229 404.824 219.732 404.824 212.842C404.824 205.5 400.066 198.979 388.746 198.979H367.992V199.799L374.062 202.014V254.965L367.992 257.18V258ZM380.051 226.664V200.537H387.188C394.57 200.537 398.221 205.295 398.221 213.375C398.221 220.635 395.145 226.664 388.008 226.664H380.051ZM380.051 256.441V228.223H388.295C396.416 228.223 400.066 233.596 400.066 242.127C400.066 250.74 396.211 256.441 387.926 256.441H380.051ZM411.633 258H447.932L449.777 243.604L449.449 243.521L442.559 256.441H423.691V228.51H434.52L438.047 236.18H438.621V219.199H438.047L434.52 226.951H423.691V200.537H440.221L445.266 213.375H445.553V198.979H411.674V199.799L417.703 202.014V255.006L411.633 257.18V258ZM512.49 254.965L495.346 198.979H487.02V199.799L490.26 203.9L475.166 254.965L468.768 257.18V258H484.23V257.18L476.643 254.965L481.564 238.189H501.17L506.133 254.965L500.391 257.18V258H518.602V257.18L512.49 254.965ZM482.016 236.631L491.326 205.008L500.719 236.631H482.016ZM535.869 258.984C545.836 258.984 552.727 252.381 552.727 242.701C552.727 233.883 547.518 227.977 539.93 226.172C547.107 223.916 551.332 218.748 551.332 211.98C551.332 204.105 546.205 198.035 537.428 198.035C531.562 198.035 527.666 200.045 524.836 201.727L524.057 216.574H524.59C526.436 209.766 529.512 199.553 537.264 199.553C542.309 199.553 545.057 205.008 545.057 211.98C545.057 220.553 540.381 224.326 532.301 226.869V228.059C540.75 229.494 546.697 233.35 546.697 243.768C546.697 251.602 542.883 257.467 536.156 257.467C528.938 257.467 525.574 248.32 523.4 240.363H522.785L523.564 255.129C525.738 257.016 531.07 258.984 535.869 258.984ZM557.566 258H593.865L595.711 243.604L595.383 243.521L588.492 256.441H569.625V228.51H580.453L583.98 236.18H584.555V219.199H583.98L580.453 226.951H569.625V200.537H586.154L591.199 213.375H591.486V198.979H557.607V199.799L563.637 202.014V255.006L557.566 257.18V258ZM598.5 258H617.203V257.18L610.477 254.965V200.537H616.875C624.053 200.537 628.729 205.049 628.729 215.836C628.729 225.803 624.586 232.037 617.203 232.037H613.635V233.596H617.285C628.441 233.596 635.373 227.484 635.373 215.836C635.373 206.279 630.041 198.979 618.967 198.979H598.5V199.799L604.488 202.014V255.006L598.5 257.18V258ZM638.572 258H657.604C669.908 258 677.209 253.037 677.209 242.127C677.209 231.012 668.883 226.664 658.752 226.664H650.508V200.496H666.873L671.959 213.375H672.205V198.979H638.449V199.799L644.52 202.014V255.047L638.572 257.18V258ZM650.508 256.482V228.223H658.752C666.873 228.223 670.564 233.596 670.564 242.127C670.564 250.74 666.668 256.482 658.383 256.482H650.508ZM724.049 254.965L706.904 198.979H698.578V199.799L701.818 203.9L686.725 254.965L680.326 257.18V258H695.789V257.18L688.201 254.965L693.123 238.189H712.729L717.691 254.965L711.949 257.18V258H730.16V257.18L724.049 254.965ZM693.574 236.631L702.885 205.008L712.277 236.631H693.574ZM757.928 194.795C762.727 194.795 765.023 189.545 765.105 184.828L764.654 184.623C764.121 188.027 762.07 190.16 757.928 190.16C753.826 190.16 751.816 188.027 751.283 184.623L750.832 184.828C750.914 189.709 753.293 194.795 757.928 194.795ZM777.123 254.965V202.014L783.234 199.799V198.979H765.105V199.799L771.217 202.014V206.033L744.721 246.188V202.014L750.832 199.799V198.979H732.703V199.799L738.732 202.014V255.006L732.703 257.18V258H750.832V257.18L744.721 254.965V248.771L771.217 208.617V255.006L765.188 257.18V258H783.316V257.18L777.123 254.965ZM786.023 270.838H786.352L791.52 258H830.895L836.062 270.838H836.35V256.482H829.582V202.014L835.611 199.799V198.979H794.062V199.799L800.953 202.014C800.994 221.496 800.994 248.361 789.633 256.482H786.023V270.838ZM792.217 256.482C803.045 246.803 802.512 219.445 802.594 200.496H823.635V256.482H792.217ZM900.17 254.965L881.426 224.654L895.822 205.459L904.312 205.336H904.764L904.805 198.979H904.025C898.734 198.979 896.766 201.439 893.197 206.115L877.857 226.131H875.889V202.014L882.369 199.799V198.979H863.461V199.799L869.9 202.014V226.131H868.014L852.674 206.115C849.105 201.439 847.137 198.979 841.846 198.979H841.066L841.107 205.336H841.559L850.049 205.459L864.445 224.654L845.701 254.965L839.549 256.77V258H850.869L869.408 227.771H869.9V255.006L863.461 257.18V258H882.369V257.18L875.889 254.965V227.771H876.463L895.002 258H906.322V256.77L900.17 254.965ZM951.85 254.965L934.705 198.979H926.379V199.799L929.619 203.9L914.525 254.965L908.127 257.18V258H923.59V257.18L916.002 254.965L920.924 238.189H940.529L945.492 254.965L939.75 257.18V258H957.961V257.18L951.85 254.965ZM921.375 236.631L930.686 205.008L940.078 236.631H921.375ZM960.504 258H978.633V257.18L972.521 254.965V228.551H998.936V255.006L992.906 257.18V258H1011.04V257.18L1004.92 254.965V202.014L1011.04 199.799V198.979H992.906V199.799L998.936 202.014V226.992H972.521V202.014L978.633 199.799V198.979H960.504V199.799L966.533 202.014V255.006L960.504 257.18V258ZM1056.93 254.965L1039.79 198.979H1031.46V199.799L1034.7 203.9L1019.61 254.965L1013.21 257.18V258H1028.67V257.18L1021.08 254.965L1026.01 238.189H1045.61L1050.57 254.965L1044.83 257.18V258H1063.04V257.18L1056.93 254.965ZM1026.46 236.631L1035.77 205.008L1045.16 236.631H1026.46Z" fill="white"></path> </svg> 