<?xml version="1.0" standalone="no"?>
<!DOCTYPE svg PUBLIC "-//W3C//DTD SVG 1.1//EN" "http://www.w3.org/Graphics/SVG/1.1/DTD/svg11.dtd" >
<svg xmlns="http://www.w3.org/2000/svg" xmlns:xlink="http://www.w3.org/1999/xlink" version="1.1">
<metadata>
Created by FontForge 20170731 at Tue Nov 24 18:17:50 1953
 By Aleksey,,,
Copyright (c) 2018 by Cosimo Lorenzo Pancini &#38; Francesco Canovaro. All rights reserved.
</metadata>
<defs>
<font id="BlackerProDis-LtIt" horiz-adv-x="0" >
  <font-face 
    font-family="Blacker Pro Dis Lt"
    font-weight="200"
    font-style="italic"
    font-stretch="normal"
    units-per-em="2048"
    panose-1="0 0 3 0 0 0 0 0 0 0"
    ascent="1638"
    descent="-410"
    x-height="1020"
    cap-height="1439"
    bbox="-1861 -490 2841 1996"
    underline-thickness="100"
    underline-position="-300"
    slope="-10"
    unicode-range="U+000D-F6E8"
  />
<missing-glyph horiz-adv-x="1401" 
 />
    <glyph glyph-name="f_f" unicode="ff" horiz-adv-x="1265" 
d="M-131 -421q-54 0 -107.5 15.5t-84.5 37.5l113 226h16q15 -137 32 -236q39 -13 56 -13q110 0 178 88t106 255l36 185l145 827h-163l2 30h167l-3 77q-4 108 26 192.5t83 134t116 74.5t131 25q78 0 157 -16.5t194 -63.5q108 80 266 80q56 0 113.5 -15.5t92.5 -36.5l-72 -226
h-16q-35 121 -76 239q-45 9 -57 9q-119 0 -190.5 -93t-53.5 -234l18 -146h240l-5 -30h-241l-169 -962q-37 -199 -164.5 -311t-292.5 -112q-54 0 -107.5 15.5t-84.5 37.5l113 226h16q15 -137 32 -236q39 -13 56 -13q110 0 178 88t106 255l36 185l145 827h-457l-169 -962
q-37 -199 -164.5 -311t-292.5 -112zM707 1467q-101 0 -163.5 -101.5t-51.5 -245.5l9 -126h457l-13 97q-17 135 38 230q-67 55 -123 88.5t-126 56.5q-5 1 -27 1z" />
    <glyph glyph-name="f_f_i" unicode="ffi" horiz-adv-x="1767" 
d="M-131 -421q-54 0 -107.5 15.5t-84.5 37.5l113 226h16q15 -137 32 -236q39 -13 56 -13q110 0 178 88t106 255l36 185l145 827h-163l2 30h167l-3 77q-4 108 26 192.5t83 134t116 74.5t131 25q77 0 156 -16.5t192 -62.5q110 83 268 83q41 0 129.5 -20t147.5 -40l-28 -181
h-16q-64 115 -121.5 163t-126.5 48q-119 0 -190.5 -95t-53.5 -236l18 -146l570 27l10 -11l-143 -810q-16 -92 -13.5 -123.5t26.5 -31.5q33 0 78 28.5t90 86.5l14 -13q-61 -90 -117 -130.5t-121 -40.5q-48 0 -72.5 21t-32 78t13.5 158l132 731h-441l-169 -962
q-37 -199 -164.5 -311t-292.5 -112q-54 0 -107.5 15.5t-84.5 37.5l113 226h16q15 -137 32 -236q39 -13 56 -13q110 0 178 88t106 255l36 185l145 827h-456l-169 -962q-37 -199 -164.5 -311t-292.5 -112zM707 1467q-101 0 -163.5 -101.5t-51.5 -245.5l9 -126h456l-13 97
q-17 135 38 231q-128 105 -248 144q-5 1 -27 1z" />
    <glyph glyph-name="f_f_l" unicode="ffl" horiz-adv-x="1816" 
d="M-131 -421q-54 0 -107.5 15.5t-84.5 37.5l113 226h16q15 -137 32 -236q39 -13 56 -13q110 0 178 88t106 255l36 185l145 827h-163l2 30h167l-3 77q-4 108 26 192.5t83 134t116 74.5t131 25q80 0 160.5 -17t199.5 -67q100 84 256 84q157 0 330 -53l137 60l4 -18
l-227 -1286q-16 -92 -13 -123.5t27 -31.5q33 0 78 28.5t90 86.5l14 -13q-62 -90 -118 -130.5t-121 -40.5q-71 0 -91.5 51.5t3.5 205.5l192 1084q-91 69 -176 109.5t-144 40.5q-117 0 -178.5 -95t-53.5 -262l6 -116h240l-5 -30h-241l-169 -962q-37 -199 -164.5 -311
t-292.5 -112q-54 0 -107.5 15.5t-84.5 37.5l113 226h16q15 -137 32 -236q39 -13 56 -13q110 0 178 88t106 255l36 185l145 827h-456l-169 -962q-37 -199 -164.5 -311t-292.5 -112zM707 1467q-101 0 -163.5 -101.5t-51.5 -245.5l9 -126h456l-2 87q-3 132 43 227
q-73 62 -131.5 98t-132.5 60q-5 1 -27 1z" />
    <glyph glyph-name="f_i" unicode="fi" horiz-adv-x="1175" 
d="M-131 -421q-54 0 -107.5 15.5t-84.5 37.5l113 226h16q15 -137 32 -236q39 -13 56 -13q110 0 178 88t106 255l36 185l145 827h-163l2 30h167l-13 97q-11 81 6 149.5t54 115.5t90 80.5t114 49t126 15.5q41 0 129.5 -20t147.5 -40l-28 -181h-16q-64 115 -121.5 163
t-126.5 48q-119 0 -190.5 -95t-53.5 -236l18 -146l570 27l10 -11l-143 -810q-16 -92 -13.5 -123.5t26.5 -31.5q33 0 78 28.5t90 86.5l14 -13q-61 -90 -117 -130.5t-121 -40.5q-48 0 -72.5 21t-32 78t13.5 158l132 731h-441l-169 -962q-37 -199 -164.5 -311t-292.5 -112z" />
    <glyph glyph-name="f_l" unicode="fl" horiz-adv-x="1224" 
d="M-323 -368l113 226h16q15 -137 32 -236q39 -13 56 -13q110 0 178 88t106 255l36 185l145 827h-163l2 30h167l-2 87q-5 207 101.5 311.5t277.5 104.5q157 0 330 -53l137 60l4 -18l-227 -1286q-16 -92 -13 -123.5t27 -31.5q33 0 78 28.5t90 86.5l14 -13
q-62 -90 -118 -130.5t-121 -40.5q-71 0 -91.5 51.5t3.5 205.5l192 1084q-91 69 -176 109.5t-144 40.5q-117 0 -178.5 -95t-53.5 -262l6 -116h240l-5 -30h-241l-169 -962q-37 -199 -164.5 -311t-292.5 -112q-54 0 -107.5 15.5t-84.5 37.5z" />
    <glyph glyph-name=".notdef" horiz-adv-x="1401" 
 />
    <glyph glyph-name="uni0000" 
 />
    <glyph glyph-name="uni0000" 
 />
    <glyph glyph-name="uni000D" unicode="&#xd;" horiz-adv-x="409" 
 />
    <glyph glyph-name="space" unicode=" " horiz-adv-x="450" 
 />
    <glyph glyph-name="exclam" unicode="!" horiz-adv-x="489" 
d="M210 373l120 1066h162l-258 -1066h-24zM155 -11q-46 0 -69.5 28t-16.5 73q8 46 42 74t80 28t70.5 -28.5t16.5 -73.5q-7 -44 -42 -72.5t-81 -28.5z" />
    <glyph glyph-name="quotedbl" unicode="&#x22;" horiz-adv-x="563" 
d="M259 1158l-13 266l9 15h132l3 -15l-106 -266h-25zM485 1158l-13 266l9 15h132l3 -15l-105 -266h-26z" />
    <glyph glyph-name="numbersign" unicode="#" horiz-adv-x="1287" 
d="M302 429h-269l8 47h276l185 483h-269l9 48h277l162 432h58l-163 -432h423l160 432h56l-162 -432h279l-9 -48h-288l-181 -483h278l-8 -47h-286l-161 -429h-56l159 429h-419l-162 -429h-59zM378 476h421l180 483h-419z" />
    <glyph glyph-name="dollar" unicode="$" horiz-adv-x="1076" 
d="M718 1462q94 0 194.5 -33.5t185.5 -86.5l-34 -342h-14q-37 228 -112.5 326t-244.5 98q-16 0 -23 -1l-83 -584l70 -38q80 -44 131.5 -79t108 -90.5t78.5 -125t7 -151.5q-16 -92 -65.5 -164t-121 -116.5t-155 -68.5t-176.5 -29l-30 -214h-30l30 213h-19q-192 0 -395 117
l38 344h13q32 -225 117.5 -324t235.5 -99h16l95 675l-42 23q-54 29 -92.5 53.5t-85 63.5t-73.5 78t-40.5 92.5t-2.5 111.5q29 151 148.5 241.5t297.5 106.5l18 128h30l-18 -126q14 1 43 1zM559 855l80 565q-102 -16 -175 -88t-93 -182q-17 -101 24.5 -163t163.5 -132z
M810 314q5 29 5.5 55.5t-3 49.5t-12.5 44.5t-20.5 40t-28.5 37t-36 34t-44 33t-50.5 32.5t-57.5 33l-93 -657q140 11 228.5 88.5t111.5 209.5z" />
    <glyph glyph-name="percent" unicode="%" horiz-adv-x="1686" 
d="M265 -39l-32 30l1313 1497l38 -29zM367 712q-123 0 -186 105.5t-35 266.5q28 162 128 266.5t224 104.5q125 0 189.5 -105t36.5 -266t-130 -266.5t-227 -105.5zM371 735q80 0 137.5 92.5t86.5 256.5q30 159 5 254t-105 95q-79 0 -135 -92t-85 -257q-31 -160 -7 -254.5
t103 -94.5zM1259 -28q-123 0 -186 105.5t-35 266.5q28 162 128 266.5t224 104.5q125 0 189.5 -105t36.5 -266t-130 -266.5t-227 -105.5zM1263 -5q80 0 137.5 92.5t86.5 256.5q30 159 5 254t-105 95q-79 0 -135 -92t-85 -257q-31 -160 -7 -254.5t103 -94.5z" />
    <glyph glyph-name="ampersand" unicode="&#x26;" horiz-adv-x="1563" 
d="M1465 196l7 -13q-114 -207 -320 -207q-148 0 -337 207q-203 -205 -448 -205q-182 0 -270 106t-59 272q25 141 124 247.5t269 188.5q-122 279 -101 397q12 70 49.5 125.5t89 86.5t105.5 47t107 16q77 0 135.5 -25.5t89 -66.5t42 -88.5t3.5 -94.5q-41 -232 -370 -378
q124 -291 295 -497q115 140 244 381l14 141h220v-9l-197 -141q-156 -279 -254 -404q176 -200 325 -200q145 0 237 114zM480 1229q-21 -118 87 -384q206 112 240 314q3 18 5 33t4 44t-0.5 51.5t-11 50t-24 45t-42.5 30t-63 12.5q-80 0 -129.5 -51t-65.5 -145zM447 54
q171 0 338 162q-193 224 -338 541q-106 -64 -165 -146t-79 -198q-4 -22 -6.5 -43t-3 -59t5.5 -69.5t22.5 -68t43.5 -61.5t74 -41.5t108 -16.5z" />
    <glyph glyph-name="quotesingle" unicode="'" horiz-adv-x="277" 
d="M239 1158l-13 266l9 15h132l3 -15l-106 -266h-25z" />
    <glyph glyph-name="parenleft" unicode="(" horiz-adv-x="485" 
d="M285 -409q-311 320 -192 998q62 349 203.5 601t341.5 400l15 -25q-328 -302 -447 -976q-116 -661 104 -972z" />
    <glyph glyph-name="parenright" unicode=")" horiz-adv-x="485" 
d="M-120 -409l-15 26q330 313 446 972q119 671 -103 976l25 25q97 -97 152.5 -237t68.5 -333t-30 -431q-118 -677 -544 -998z" />
    <glyph glyph-name="asterisk" unicode="*" horiz-adv-x="816" 
d="M335 830l-93 78l243 206l-280 45l63 124l236 -134l5 290h131l-99 -288l283 132l18 -124l-294 -45l169 -206l-121 -78l-82 261z" />
    <glyph glyph-name="plus" unicode="+" horiz-adv-x="989" 
d="M481 561h-379l8 42h379l67 384h48l-67 -384h379l-8 -42h-379l-67 -382h-48z" />
    <glyph glyph-name="comma" unicode="," horiz-adv-x="444" 
d="M-32 -317q-1 4 -3.5 10.5t-3.5 11.5q59 37 98 92t49 113q7 40 -11.5 78t-58.5 65l147 138q42 -12 61 -59t8 -113q-19 -103 -101 -194.5t-185 -141.5z" />
    <glyph glyph-name="hyphen" unicode="-" horiz-adv-x="697" 
d="M105 516l7 35h494l-7 -35h-494z" />
    <glyph glyph-name="period" unicode="." horiz-adv-x="430" 
d="M123 -24q-45 0 -70 28.5t-17 72.5q8 45 43 73.5t80 28.5q46 0 70 -28.5t16 -73.5t-42 -73t-80 -28z" />
    <glyph glyph-name="slash" unicode="/" horiz-adv-x="789" 
d="M-97 -285l1005 1868h40l-1004 -1868h-41z" />
    <glyph glyph-name="zero" unicode="0" horiz-adv-x="1283" 
d="M546 -24q-153 0 -260.5 95.5t-147.5 265.5t-3 382q28 159 93.5 297.5t154.5 236t199.5 153.5t225.5 56q156 0 264 -95t148.5 -265.5t3.5 -382.5t-138 -382t-242.5 -265.5t-297.5 -95.5zM553 13q184 0 317 192.5t189 513.5q34 211 22 367.5t-84 247.5t-195 91
q-122 0 -224 -90.5t-171.5 -247.5t-106.5 -368q-34 -211 -22.5 -368t82.5 -247.5t193 -90.5z" />
    <glyph glyph-name="one" unicode="1" horiz-adv-x="718" 
d="M49 0l4 20l188 54l208 1180h-216l3 13l380 195h14l-245 -1388l170 -54l-4 -20h-502z" />
    <glyph glyph-name="two" unicode="2" horiz-adv-x="1053" 
d="M-39 0l3 55q442 342 663.5 586.5t256.5 445.5q28 157 -38 247.5t-211 90.5q-245 0 -447 -408q-3 -5 -4 -7h-18l89 362q108 49 199.5 69.5t196.5 20.5q228 0 327 -100t68 -273q-16 -89 -66.5 -180t-126.5 -178t-196 -189t-252.5 -200t-317.5 -224h617l223 255l9 -2
l-125 -371h-850z" />
    <glyph glyph-name="three" unicode="3" horiz-adv-x="1103" 
d="M402 -24q-107 0 -211.5 28.5t-150.5 65.5l38 360h18q11 -68 23 -119t37 -110.5t57.5 -97.5t85.5 -64t121 -26q161 0 268.5 93t133.5 241q16 93 -4.5 162t-76.5 112.5t-132.5 69t-183.5 39.5l5 29q107 24 185 53.5t141 72.5t100 101.5t51 135.5q23 133 -29 218t-171 85
q-51 0 -99 -15t-85.5 -37.5t-75.5 -59.5t-64 -69t-56 -80t-46.5 -78t-40.5 -76h-18l88 362q65 28 107.5 43t124.5 31t170 16q194 0 287 -95.5t67 -244.5q-22 -122 -129.5 -212t-282.5 -133v-2q174 -35 263 -140t61 -262q-31 -177 -190.5 -287t-385.5 -110z" />
    <glyph glyph-name="four" unicode="4" horiz-adv-x="1118" 
d="M357 0l4 20l188 54l58 326h-590l-7 27l846 1012h78l-170 -965h223l-13 -74h-223l-58 -326l171 -54l-4 -20h-503zM104 474h516l139 787z" />
    <glyph glyph-name="five" unicode="5" horiz-adv-x="1089" 
d="M400 -24q-105 0 -203.5 27.5t-156.5 66.5l63 359h16q27 -206 97.5 -311t193.5 -105q174 0 288 107t144 279q33 189 -68 300t-328 111q-95 0 -208 -32l-16 11l197 650h683l-21 -118h-659l-132 -446q99 25 203 25q261 0 401 -131t103 -342q-36 -202 -199.5 -326.5
t-397.5 -124.5z" />
    <glyph glyph-name="six" unicode="6" horiz-adv-x="1162" 
d="M500 -24q-145 0 -246 70.5t-141 194t-13 278.5q26 150 96.5 287t185.5 260.5t286 225.5t386 170l7 -22q-280 -124 -455.5 -295t-266.5 -390q167 169 387 169q192 0 294 -123t67 -321q-39 -221 -205.5 -362.5t-381.5 -141.5zM509 13q153 0 262.5 118.5t145.5 317.5
q34 194 -33 300t-227 106q-201 0 -341 -163q-36 -97 -57 -212q-19 -96 -11.5 -180.5t35 -148.5t86 -101t140.5 -37z" />
    <glyph glyph-name="seven" unicode="7" horiz-adv-x="989" 
d="M95 0l4 20q73 134 164 274.5t214 304.5t223.5 292t268.5 338q48 60 73 91h-829l21 119h905l-1 -56q-272 -367 -486 -699t-384 -684h-173z" />
    <glyph glyph-name="eight" unicode="8" horiz-adv-x="1151" 
d="M484 -24q-219 0 -336.5 98t-89.5 261q24 134 136 242t290 155q-270 147 -231 371q28 159 165 259t329 100q188 0 290 -92t75 -241q-20 -112 -115.5 -207t-260.5 -145q128 -61 201.5 -130t95 -138t7.5 -150q-21 -120 -101 -207.5t-197 -131.5t-258 -44zM691 797
q251 108 292 340q24 133 -38 210.5t-201 77.5q-144 0 -235 -75.5t-114 -204.5q-11 -60 3 -109t55 -90.5t96.5 -75.5t141.5 -73zM491 13q166 0 275 81.5t134 222.5q10 59 -9 113t-53.5 91.5t-85 72.5t-90 54t-82 37.5t-49.5 22.5q-152 -55 -235.5 -152.5t-105.5 -225.5
q-27 -148 52 -232.5t249 -84.5z" />
    <glyph glyph-name="nine" unicode="9" horiz-adv-x="1162" 
d="M187 -24l-7 22q534 237 724 696q-167 -169 -387 -169q-192 0 -294 123t-67 321q37 213 204 353t381 140q145 0 246.5 -70t142 -191t13.5 -272q-26 -150 -97 -288.5t-186 -264t-287 -229t-386 -171.5zM586 594q201 0 342 162q38 102 56 213q19 91 10.5 174t-36 145t-86 99
t-140.5 37q-152 0 -262 -116.5t-143 -307.5q-35 -194 32 -300t227 -106z" />
    <glyph glyph-name="colon" unicode=":" horiz-adv-x="430" 
d="M271 817q-45 0 -69.5 28.5t-17.5 73.5q8 45 43 73.5t80 28.5q46 0 70 -28.5t16 -73.5t-42 -73.5t-80 -28.5zM123 -24q-45 0 -70 28.5t-17 72.5q8 45 43 73.5t80 28.5q46 0 70 -28.5t16 -73.5t-42 -73t-80 -28z" />
    <glyph glyph-name="semicolon" unicode=";" horiz-adv-x="458" 
d="M280 817q-45 0 -69.5 28t-17.5 73q8 45 43 73.5t80 28.5q46 0 70 -28.5t16 -73.5q-7 -45 -41 -73t-81 -28zM-23 -317q-1 4 -3.5 10.5t-3.5 11.5q59 37 98 92t49 113q7 40 -11.5 78t-58.5 65l147 138q42 -12 61 -59t8 -113q-19 -103 -101 -194.5t-185 -141.5z" />
    <glyph glyph-name="less" unicode="&#x3c;" horiz-adv-x="984" 
d="M791 182l-697 381l5 33l833 382l1 -48l-777 -352l653 -351z" />
    <glyph glyph-name="equal" unicode="=" horiz-adv-x="989" 
d="M110 604l7 42h806l-7 -42h-806zM56 299l7 42h806l-7 -42h-806z" />
    <glyph glyph-name="greater" unicode="&#x3e;" horiz-adv-x="984" 
d="M65 182l-1 45l777 351l-653 352l18 48l698 -382l-5 -33z" />
    <glyph glyph-name="question" unicode="?" horiz-adv-x="917" 
d="M334 372l-3 162q24 25 81 81.5t88 88.5t81 85t79.5 91.5t62 86t51 91.5t25.5 85q23 131 -30.5 205.5t-169.5 74.5q-99 0 -213 -107t-186 -245h-17l67 315q71 32 164 54t182 22q195 0 291.5 -84t69.5 -236q-12 -64 -42 -121.5t-85 -117t-106 -106t-141 -125.5t-153 -139
l-69 -161h-27zM285 -11q-45 0 -69.5 28t-17.5 73q8 45 43 73.5t80 28.5q46 0 70 -28.5t16 -73.5q-7 -45 -41 -73t-81 -28z" />
    <glyph glyph-name="at" unicode="@" horiz-adv-x="1916" 
d="M789 -364q-186 0 -334.5 60.5t-243 169t-131 266.5t-3.5 347q35 197 131.5 369t237.5 297.5t326.5 198t389.5 72.5q182 0 329.5 -52.5t243.5 -147.5t135.5 -236t9.5 -311q-21 -120 -91 -245.5t-164.5 -224t-210.5 -161t-222 -62.5q-66 0 -80 43q-27 83 110 396h-8
q-109 -177 -267 -308t-289 -131q-126 0 -183.5 101t-26.5 277q23 130 90.5 251.5t164 213t221 147t253.5 55.5q77 0 130 -35t70 -78l183 112h4l-289 -820q-47 -133 -29 -150q5 -5 14 -5q103 0 208.5 87t183 229.5t105.5 299.5q57 326 -105 512t-490 186q-181 0 -344 -64.5
t-287.5 -179.5t-211 -275.5t-119.5 -348.5q-65 -367 93.5 -582.5t501.5 -215.5q155 0 326.5 34.5t301.5 93.5l8 -31q-135 -69 -309 -111.5t-333 -42.5zM719 55q50 0 123.5 40.5t152 110t156 175.5t129.5 224l63 168q6 97 -43.5 157t-131.5 60q-122 0 -241.5 -87t-204.5 -231
t-114 -309q-54 -308 111 -308z" />
    <glyph glyph-name="A" unicode="A" horiz-adv-x="1429" 
d="M-83 0l4 20l192 54l655 1245l-69 100l3 20h213l250 -1365l167 -54l-4 -20h-495l4 20l173 54l-72 409h-569l-216 -409l209 -54l-4 -20h-441zM388 521h542l-137 771z" />
    <glyph glyph-name="B" unicode="B" horiz-adv-x="1232" 
d="M-49 0l4 20l187 54l228 1291l-168 54l3 20h590q123 0 211 -27.5t135 -75t63.5 -107t4.5 -128.5q-23 -128 -119.5 -220.5t-243.5 -126.5v-4q169 -20 244 -120t50 -243q-35 -195 -199 -291t-439 -96h-551zM410 764h261q156 0 250 90.5t119 233.5q27 150 -46.5 231.5
t-241.5 81.5h-230zM282 38h257q185 0 295.5 93t139.5 256q28 161 -46 250t-255 89h-270z" />
    <glyph glyph-name="C" unicode="C" horiz-adv-x="1317" 
d="M673 -24q-204 0 -344.5 95.5t-195.5 264t-17 382.5q28 161 101 298t179.5 236t248.5 154.5t302 55.5q95 0 189.5 -24t219.5 -96l-37 -352h-17q-7 49 -12.5 82.5t-15 74.5t-20 69t-26.5 59.5t-36 52t-47.5 40.5t-60.5 31t-76 18t-94 7q-121 0 -227.5 -53.5t-186.5 -148.5
t-135.5 -223.5t-82.5 -280.5q-30 -156 -15.5 -285.5t63 -223t140 -145t216.5 -51.5q78 0 143 20t115 54t97.5 91t84.5 119.5t80 150.5h17l-87 -352q-151 -72 -256 -96t-207 -24z" />
    <glyph glyph-name="D" unicode="D" horiz-adv-x="1422" 
d="M-49 0l4 20l187 53l228 1294l-163 52l3 20h636q308 0 453 -191t85 -527q-59 -338 -274.5 -529.5t-534.5 -191.5h-624zM282 38h270q276 0 441.5 171.5t222.5 498.5q61 342 -42.5 517.5t-362.5 175.5h-289z" />
    <glyph glyph-name="E" unicode="E" horiz-adv-x="1166" 
d="M-49 0l4 20l187 53l228 1292l-168 54l3 20h979l-62 -351h-8l-78 313h-514l-113 -644h340l124 189h16l-73 -414h-16l-58 187h-340l-120 -681h588l242 315l8 -2l-117 -351h-1052z" />
    <glyph glyph-name="F" unicode="F" horiz-adv-x="1088" 
d="M-49 0l4 20l187 53l228 1292l-168 54l3 20h973l-62 -351h-8l-78 313h-508l-115 -653h340l125 189h16l-73 -414h-16l-58 187h-340l-113 -636l191 -54l-4 -20h-524z" />
    <glyph glyph-name="G" unicode="G" horiz-adv-x="1376" 
d="M687 -24q-214 0 -357.5 96t-197.5 263.5t-16 382.5q28 161 99.5 296.5t178 235.5t253 156t316.5 56q182 0 394 -120l-38 -352h-17q-6 47 -11.5 80.5t-14.5 74t-19.5 69t-26.5 60t-35.5 52.5t-46.5 41t-59.5 32t-74.5 19t-92 7q-109 0 -204.5 -39.5t-165.5 -106.5
t-125.5 -158.5t-90 -192t-54.5 -211.5q-20 -125 -19 -232.5t32.5 -195t87.5 -148.5t146 -94.5t207 -33.5q64 0 142.5 29t139 76.5t69.5 95.5l61 348l-198 83l2 11h350l-87 -492q-142 -99 -263 -143.5t-265 -44.5z" />
    <glyph glyph-name="H" unicode="H" horiz-adv-x="1505" 
d="M-49 0l4 20l187 53l228 1292l-168 54l3 20h503l-3 -20l-189 -54l-107 -609h779l107 609l-168 54l3 20h503l-3 -20l-189 -54l-228 -1291l170 -54l-4 -20h-503l4 20l187 53l114 645h-779l-114 -644l170 -54l-4 -20h-503z" />
    <glyph glyph-name="I" unicode="I" horiz-adv-x="580" 
d="M-49 0l4 20l187 53l228 1292l-168 54l3 20h503l-3 -20l-189 -54l-228 -1291l170 -54l-4 -20h-503z" />
    <glyph glyph-name="J" unicode="J" horiz-adv-x="946" 
d="M308 -24q-79 0 -155 28t-120 69l39 375h19q1 -52 17 -123t43.5 -142t71.5 -120t94 -49q102 0 162.5 94.5t92.5 277.5l173 979l-191 54l3 20h524l-3 -20l-187 -54l-189 -1072q-25 -141 -138 -229t-256 -88z" />
    <glyph glyph-name="K" unicode="K" horiz-adv-x="1344" 
d="M-49 0l4 20l187 53l228 1292l-168 54l3 20h503l-3 -20l-189 -54l-228 -1291l170 -54l-4 -20h-503zM915 0l-433 737l697 620l-259 62l3 20h499l-3 -20l-176 -54l-621 -552l433 -739l157 -44l-6 -30h-291z" />
    <glyph glyph-name="L" unicode="L" horiz-adv-x="1094" 
d="M-49 0l4 20l187 53l228 1292l-168 54l3 20h524l-3 -20l-210 -54l-234 -1327h516l241 315l8 -2l-116 -351h-980z" />
    <glyph glyph-name="M" unicode="M" horiz-adv-x="1777" 
d="M-49 0l4 20l190 65l226 1280l-168 54l3 20h297l352 -1141l758 1141h292l-3 -20l-189 -54l-228 -1291l170 -54l-4 -20h-503l4 20l187 54l213 1206l-755 -1135h-49l-352 1136l-211 -1196l168 -65l-4 -20h-398z" />
    <glyph glyph-name="N" unicode="N" horiz-adv-x="1437" 
d="M1089 -17l-701 1269l-206 -1167l168 -65l-4 -20h-395l4 20l189 65l226 1280l-168 54l3 20h261l666 -1205l197 1120l-168 66l3 19h399l-3 -19l-191 -66l-239 -1354z" />
    <glyph glyph-name="O" unicode="O" horiz-adv-x="1517" 
d="M666 -24q-118 0 -217 35.5t-170 101t-116.5 157t-56.5 204.5t10 243q38 215 154.5 385t289 265t368.5 95q197 0 335.5 -95t196 -265t19.5 -385q-38 -213 -154.5 -382.5t-289 -264t-369.5 -94.5zM673 13q239 0 411.5 192.5t228.5 511.5q34 214 3 371t-133.5 246.5
t-261.5 89.5q-240 0 -411.5 -193t-227.5 -514q-34 -212 -3.5 -368.5t133 -246t261.5 -89.5z" />
    <glyph glyph-name="P" unicode="P" horiz-adv-x="1160" 
d="M-49 0l4 20l187 53l228 1292l-168 54l3 20h594q234 0 336.5 -114t70.5 -297q-37 -209 -199.5 -321t-411.5 -112h-118l7 38h121q178 0 290 104.5t145 290.5q33 190 -49 281.5t-252 91.5h-217l-234 -1327l191 -54l-4 -20h-524z" />
    <glyph glyph-name="Q" unicode="Q" horiz-adv-x="1517" 
d="M1479 717q-51 -288 -240.5 -488t-448.5 -243l532 -279l-2 -12l-177 -67l-477 348q-118 0 -217 35.5t-170 101t-116.5 157t-56.5 204.5t10 243q38 215 154.5 385t289 265t368.5 95q197 0 335.5 -95t196 -265t19.5 -385zM673 13q239 0 411.5 192.5t228.5 511.5
q34 214 3 371t-133.5 246.5t-261.5 89.5q-240 0 -411.5 -193t-227.5 -514q-34 -212 -3.5 -368.5t133 -246t261.5 -89.5z" />
    <glyph glyph-name="R" unicode="R" horiz-adv-x="1332" 
d="M-49 0l4 20l187 53l228 1292l-168 54l3 20h609q216 0 317 -96t72 -260q-30 -170 -150 -269t-290 -126l-1 -5q70 -17 97 -17h3l231 -585l118 -61l-3 -20h-257l-247 680q-57 -7 -121 -7h-111l7 38h116q377 0 441 366q27 152 -40 238t-237 86h-237l-234 -1327l170 -54
l-4 -20h-503z" />
    <glyph glyph-name="S" unicode="S" horiz-adv-x="1076" 
d="M415 -24q-192 0 -395 117l38 344h13q32 -225 117.5 -324t235.5 -99q159 0 259.5 78.5t126.5 221.5q12 67 1 118.5t-48.5 95t-85 76.5t-126.5 76l-58 32q-54 29 -92.5 53.5t-85 63.5t-73.5 78t-40.5 92.5t-2.5 111.5q32 167 173.5 259t345.5 92q94 0 194.5 -33.5
t185.5 -86.5l-34 -342h-14q-37 228 -112.5 326t-244.5 98q-121 0 -210.5 -74.5t-111.5 -199.5q-13 -74 7 -126.5t69 -93.5t146 -94l64 -35q80 -44 131.5 -79t108 -90.5t78.5 -125t7 -151.5q-17 -98 -72 -173t-134.5 -119t-170 -65.5t-190.5 -21.5z" />
    <glyph glyph-name="T" unicode="T" horiz-adv-x="1215" 
d="M194 1124h-11l55 315h1071l-55 -315h-9l-65 277h-340l-234 -1327l170 -54l-4 -20h-505l4 20l189 54l234 1327h-342z" />
    <glyph glyph-name="U" unicode="U" horiz-adv-x="1391" 
d="M621 -24q-111 0 -199 31.5t-147 92t-82 153.5t-2 210l159 902l-169 54l3 20h504l-3 -20l-189 -54l-157 -888q-38 -221 51 -342.5t274 -121.5q107 0 193.5 36.5t145 101.5t95.5 146.5t54 179.5l155 877l-167 66l3 19h396l-3 -19l-191 -66l-152 -861q-43 -245 -185 -381
t-387 -136z" />
    <glyph glyph-name="V" unicode="V" horiz-adv-x="1394" 
d="M559 0l-230 1365l-165 54l3 20h529l-3 -20l-202 -54l192 -1222l639 1222l-206 54l3 20h439l-3 -20l-192 -54l-716 -1365h-88z" />
    <glyph glyph-name="W" unicode="W" horiz-adv-x="1997" 
d="M474 0l-155 1365l-155 54l3 20h508l-3 -20l-192 -54l121 -1216l482 983l-31 233l-143 54l3 20h500l-3 -20l-201 -54l147 -1229l571 1229l-205 53l4 21h436l-4 -21l-192 -53l-635 -1365h-101l-138 1069l-525 -1069h-92z" />
    <glyph glyph-name="X" unicode="X" horiz-adv-x="1365" 
d="M-78 0l4 21l188 53l547 634l-304 657l-142 53l4 21h505l-4 -21l-189 -53l248 -538l482 538l-180 53l4 21h414l-4 -21l-188 -53l-513 -571l333 -720l144 -53l-4 -21h-504l4 21l188 53l-277 599l-519 -599l179 -53l-4 -21h-412z" />
    <glyph glyph-name="Y" unicode="Y" horiz-adv-x="1351" 
d="M335 0l4 20l187 53l100 566l-291 726l-168 53l4 21h501l-4 -21l-171 -53l270 -658l519 655l-217 56l4 21h453l-4 -21l-189 -53l-557 -701l-104 -590l170 -54l-4 -20h-503z" />
    <glyph glyph-name="Z" unicode="Z" horiz-adv-x="1224" 
d="M-7 0l1 24l1105 1377h-649l-224 -297h-10l101 335h965l-2 -25l-1110 -1377h743l227 300l8 -2l-102 -335h-1053z" />
    <glyph glyph-name="bracketleft" unicode="[" horiz-adv-x="527" 
d="M-65 -372l338 1921h405l-5 -33h-292l-327 -1852h292l-6 -36h-405z" />
    <glyph glyph-name="backslash" unicode="\" horiz-adv-x="789" 
d="M569 -285l-346 1868h40l347 -1868h-41z" />
    <glyph glyph-name="bracketright" unicode="]" horiz-adv-x="527" 
d="M-119 -372l6 36h292l327 1852h-292l5 33h405l-338 -1921h-405z" />
    <glyph glyph-name="asciicircum" unicode="^" horiz-adv-x="848" 
d="M176 904l-32 19l453 596h13l243 -596l-37 -19l-238 480z" />
    <glyph glyph-name="underscore" unicode="_" horiz-adv-x="897" 
d="M-123 -199l8 41h897l-8 -41h-897z" />
    <glyph glyph-name="grave" unicode="`" horiz-adv-x="739" 
d="M699 1247l-237 220l8 11h180l64 -231h-15z" />
    <glyph glyph-name="a" unicode="a" horiz-adv-x="1170" 
d="M355 -24q-126 0 -201.5 101t-75.5 277q0 130 46.5 251.5t126.5 213t195 147t244 55.5q77 0 136 -35t84 -78l163 112h4l-145 -820q-11 -61 -12.5 -95t4.5 -47t21 -13q33 0 78.5 29t90.5 86l14 -13q-62 -90 -118 -130.5t-121 -40.5q-32 0 -52 8t-35 34.5t-15.5 74t12.5 128
t43 194.5h-8q-78 -177 -213 -308t-266 -131zM402 55q50 0 116 40.5t132.5 110t125.5 175.5t90 224l33 168q-11 97 -71 157t-142 60q-122 0 -226 -87t-163.5 -231t-59.5 -309q0 -308 165 -308z" />
    <glyph glyph-name="b" unicode="b" horiz-adv-x="1137" 
d="M449 -23q-106 0 -199.5 45.5t-145.5 127.5l215 1222l-145 45l3 22l289 58l10 -11l-133 -758l-33 -145h7q24 66 76.5 141.5t118 142t144 110.5t146.5 44q271 0 271 -360q0 -124 -44.5 -245t-123 -219.5t-198 -159t-258.5 -60.5zM464 6q119 0 223 90.5t165 241.5t61 323
q0 288 -152 288q-50 0 -117.5 -42.5t-134.5 -112.5t-127 -170t-93 -205l-38 -210q18 -101 74.5 -152t138.5 -51z" />
    <glyph glyph-name="c" unicode="c" horiz-adv-x="979" 
d="M443 -24q-168 0 -269.5 109.5t-101.5 290.5q0 139 51.5 261t137.5 205t199 131t235 48q71 0 152 -19.5t137 -41.5l-83 -250h-18q-47 204 -77 262q-57 19 -119 19q-111 0 -199 -46.5t-142.5 -126.5t-82.5 -183t-28 -221q0 -166 67 -259.5t211 -93.5q95 0 190 43t156 117
l14 -9q-73 -116 -184 -176t-246 -60z" />
    <glyph glyph-name="d" unicode="d" horiz-adv-x="1170" 
d="M355 -24q-126 0 -201.5 101t-75.5 277q0 174 78.5 326.5t220.5 246.5t314 94q79 0 142.5 -39t83.5 -91l86 479l-148 45l4 21l292 61l10 -13l-228 -1283q-8 -46 -11.5 -76t-1.5 -48t8 -25t17 -7q34 0 79 28.5t90 86.5l14 -13q-61 -90 -117 -130.5t-121 -40.5q-32 0 -52 8
t-35.5 34t-16 73t12.5 128t43 196h-7q-76 -175 -215 -307t-265 -132zM395 55q40 0 91.5 24.5t111 79t114 130.5t102.5 190.5t74 247.5l9 46q-12 98 -70.5 157.5t-139.5 59.5q-123 0 -227 -87t-163 -231t-59 -309q0 -149 40 -228.5t117 -79.5z" />
    <glyph glyph-name="e" unicode="e" horiz-adv-x="993" 
d="M963 578h-713q-22 -88 -22 -163q0 -354 282 -354q97 0 192.5 43.5t156.5 116.5l13 -9q-70 -115 -182.5 -175.5t-251.5 -60.5q-169 0 -267 110t-98 292q0 135 46 255.5t123 205t181 133.5t216 49q160 0 246.5 -94t86.5 -247q0 -50 -9 -102zM628 990q-71 0 -133.5 -34
t-108 -92t-78 -124.5t-52.5 -140.5l567 23q11 68 11 118q0 121 -53.5 185.5t-152.5 64.5z" />
    <glyph glyph-name="f" unicode="f" horiz-adv-x="672" 
d="M-131 -421q-54 0 -107.5 15.5t-84.5 37.5l113 226h16q15 -137 32 -236q39 -13 56 -13q110 0 178 88t106 255l36 185l145 827h-163l2 30h167l-13 97q-13 100 15 180t86.5 128t132.5 73t156 25q56 0 113.5 -15.5t92.5 -36.5l-72 -226h-16q-35 121 -76 239q-45 9 -57 9
q-119 0 -190.5 -93t-53.5 -234l18 -146h240l-5 -30h-241l-169 -962q-37 -199 -164.5 -311t-292.5 -112z" />
    <glyph glyph-name="g" unicode="g" horiz-adv-x="1105" 
d="M299 -441q-71 0 -149.5 19.5t-131.5 41.5l82 211h18q17 -133 55 -215q72 -27 139 -27q86 0 158 35.5t123.5 94t92.5 142t66.5 170t43.5 187.5l44 197h-8q-76 -174 -214.5 -306.5t-264.5 -132.5q-127 0 -202 97t-75 272q0 129 46.5 252t126.5 216.5t195 150.5t244 57
q77 0 136 -35t84 -78l163 112h4l-142 -818q-35 -202 -130 -349.5t-224.5 -220.5t-279.5 -73zM400 55q48 0 115.5 41.5t138 114.5t132.5 194t90 261l21 107q-11 97 -71 157t-142 60q-122 0 -226 -89.5t-163.5 -236t-59.5 -310.5q0 -147 43 -223t122 -76z" />
    <glyph glyph-name="h" unicode="h" horiz-adv-x="1165" 
d="M885 -24q-48 0 -72.5 21t-32 78t13.5 158l83 456q20 114 -10 187t-100 73q-51 0 -121 -43t-140.5 -116t-133 -184.5t-91.5 -232.5l-65 -373h-137l243 1372l-149 42l4 19l292 64l10 -11l-138 -776l-31 -127l5 -1q23 61 77 137t121.5 143.5t147 113t145.5 45.5
q122 0 178.5 -89t28.5 -246l-85 -486q-16 -92 -13 -123.5t27 -31.5q33 0 78 28.5t89 86.5l14 -13q-61 -90 -117 -130.5t-121 -40.5z" />
    <glyph glyph-name="i" unicode="i" horiz-adv-x="503" 
d="M360 1251q-39 0 -60.5 24.5t-14.5 63.5q7 38 37 63.5t69 25.5q40 0 61 -25.5t14 -63.5q-7 -39 -36.5 -63.5t-69.5 -24.5zM223 -24q-48 0 -72.5 21t-32 78t13.5 158l120 663l-149 41l4 20l292 64l10 -11l-143 -810q-16 -92 -13.5 -123.5t26.5 -31.5q33 0 78 28.5t90 86.5
l14 -13q-61 -90 -117 -130.5t-121 -40.5z" />
    <glyph glyph-name="j" unicode="j" horiz-adv-x="533" 
d="M395 1251q-39 0 -60.5 24.5t-14.5 63.5q7 38 37 63.5t69 25.5q40 0 61 -25.5t14 -63.5q-7 -39 -36.5 -63.5t-69.5 -24.5zM-87 -415l-3 16q180 121 217 335l170 960l-145 41l4 19l288 65l10 -11l-163 -924q-76 -433 -378 -501z" />
    <glyph glyph-name="k" unicode="k" horiz-adv-x="978" 
d="M761 45q30 0 77 29t95 86l13 -13q-64 -90 -119 -130.5t-124 -40.5q-125 0 -181 205q-51 186 -105 390q-79 -124 -151 -269l-52 -302h-137l242 1372l-146 44l4 22l289 59l10 -11l-167 -953l-36 -133h10q32 78 78 161t107.5 165.5t127.5 147.5t142 105.5t147 40.5
q52 0 97 -31l-83 -238l-18 -2l-78 205q-122 -20 -292 -245q16 -60 42 -163.5t47 -182.5t41 -148q50 -170 120 -170z" />
    <glyph glyph-name="l" unicode="l" horiz-adv-x="487" 
d="M206 -24q-71 0 -91.5 51.5t3.5 205.5l201 1139l-145 45l3 22l289 58l10 -11l-227 -1286q-16 -92 -13 -123.5t27 -31.5q33 0 78 28.5t90 86.5l14 -13q-62 -90 -118 -130.5t-121 -40.5z" />
    <glyph glyph-name="m" unicode="m" horiz-adv-x="1755" 
d="M1475 -24q-48 0 -72.5 21t-32 78t13.5 158l85 471q19 108 -7.5 176.5t-93.5 68.5q-76 0 -162.5 -83t-159.5 -209.5t-124 -272.5l-68 -379l-138 -10l124 703q21 120 -9 185.5t-91 65.5q-67 0 -144 -67.5t-138 -162.5t-106.5 -190.5t-58.5 -157.5l-64 -366l-139 -10
l159 901l-146 41l4 19l289 65l10 -11l-25 -126l-58 -303h7q16 53 62.5 126t107.5 144t137 120.5t141 49.5q123 0 174.5 -85t26.5 -224l-28 -131h5q46 108 116 205.5t163.5 166t181.5 68.5q100 0 157.5 -81.5t33.5 -220.5l-90 -519q-16 -92 -13 -123.5t26 -31.5q33 0 78 28.5
t90 86.5l14 -13q-61 -90 -117 -130.5t-121 -40.5z" />
    <glyph glyph-name="n" unicode="n" horiz-adv-x="1177" 
d="M897 -24q-71 0 -95.5 46t-4.5 159l92 509q20 113 -8 186t-92 73q-54 0 -126.5 -43t-144 -116.5t-134 -184t-91.5 -232.5l-64 -367l-139 -11l159 901l-146 41l4 19l289 65l10 -11l-84 -428h5q32 84 112 184.5t186.5 177.5t192.5 77q123 0 179 -88.5t28 -245.5l-97 -559
q-8 -39 -2.5 -61t28.5 -22q33 0 78 28.5t89 86.5l14 -13q-61 -90 -117 -130.5t-121 -40.5z" />
    <glyph glyph-name="o" unicode="o" horiz-adv-x="1163" 
d="M496 -24q-187 0 -303.5 122t-116.5 314q0 126 50 239.5t132.5 194t193 128t228.5 47.5q189 0 305.5 -123t116.5 -315q0 -168 -83.5 -308.5t-222.5 -219.5t-300 -79zM502 6q121 0 223.5 79.5t163 219.5t60.5 308q0 170 -73.5 274t-200.5 104q-120 0 -223 -80.5t-164 -222
t-61 -311.5q0 -167 73.5 -269t201.5 -102z" />
    <glyph glyph-name="p" unicode="p" horiz-adv-x="1149" 
d="M16 -417l232 1313l-146 40l4 20l289 65l10 -11l-83 -427h7q40 101 124 203.5t181 168.5t171 66q63 0 113 -20.5t81 -54.5t51 -80t28 -93.5t8 -99.5q0 -103 -27.5 -203.5t-82 -189.5t-129 -157t-176.5 -107.5t-216 -39.5q-66 0 -126.5 31.5t-88.5 72.5l-86 -486zM483 6
q122 0 226 99t160 248.5t56 306.5q0 134 -35 212.5t-111 78.5q-112 0 -259 -163t-221 -382l-36 -201q24 -100 81.5 -149.5t138.5 -49.5z" />
    <glyph glyph-name="q" unicode="q" horiz-adv-x="1105" 
d="M687 -416l120 688l35 142l-8 1q-76 -175 -214.5 -307t-264.5 -132t-201.5 101t-75.5 277q0 130 46.5 251.5t126.5 213t195 147t244 55.5q77 0 136 -35t84 -78l163 112h4l-253 -1426zM402 55q38 0 88.5 25t109 78.5t112.5 125.5t100.5 177.5t69.5 224.5l17 87
q-11 97 -71 157t-142 60q-122 0 -226 -87t-163.5 -231t-59.5 -309q0 -308 165 -308z" />
    <glyph glyph-name="r" unicode="r" horiz-adv-x="791" 
d="M89 -5l160 901l-146 41l4 19l289 65l10 -11l-85 -428h6q23 57 77.5 132.5t119.5 144t137.5 115.5t124.5 47q37 0 76 -23l-60 -256h-14q-15 58 -44.5 107t-55.5 72q-30 0 -88.5 -50.5t-120 -126.5t-115.5 -177.5t-72 -190.5l-64 -370z" />
    <glyph glyph-name="s" unicode="s" horiz-adv-x="906" 
d="M361 -24q-87 0 -178.5 23t-144.5 52l98 220h17q29 -172 79 -247q68 -18 154 -18q73 0 126 19.5t81 53t41 69.5t13 76q0 18 -3 34t-11.5 31t-15 26t-23 24.5t-26 21.5t-32.5 22t-34 20.5t-39.5 22t-40.5 22.5q-113 63 -152 94q-99 79 -99 180q0 144 115.5 221.5
t292.5 77.5q66 0 143.5 -18t130.5 -43l-76 -215h-18q-46 175 -83 232q-39 14 -117 14q-125 0 -190 -65.5t-65 -147.5q0 -63 52 -112t151 -103q52 -28 80.5 -45t71 -47t65 -55.5t39.5 -62t17 -75.5q0 -141 -116.5 -221.5t-302.5 -80.5z" />
    <glyph glyph-name="t" unicode="t" horiz-adv-x="713" 
d="M326 -24q-107 0 -156.5 70t-27.5 194l128 724h-138l3 15l140 48l160 181h13l-38 -214h323l-5 -30h-322l-133 -761q-12 -67 13 -110t73 -43q137 0 253 80l12 -12q-39 -57 -126.5 -99.5t-171.5 -42.5z" />
    <glyph glyph-name="u" unicode="u" horiz-adv-x="1179" 
d="M353 -24q-123 0 -178.5 88.5t-28.5 245.5l102 586l-146 41l4 19l289 65l10 -11l-20 -127l-104 -577q-20 -113 9.5 -181t100.5 -68q48 0 117.5 42t141 113t135 181t92.5 231l49 272l-146 41l3 19l290 65l10 -11l-23 -126l-120 -684q-15 -92 -12 -123.5t27 -31.5
q33 0 78 28.5t90 86.5l14 -13q-61 -90 -117 -130.5t-121 -40.5q-61 0 -85 35t-16.5 130t51.5 274h-7q-31 -83 -113 -185t-188 -178t-188 -76z" />
    <glyph glyph-name="v" unicode="v" horiz-adv-x="919" 
d="M335 -21l-26 21l50 62q-37 469 -118 749q-24 84 -40.5 112t-39.5 28q-48 0 -125 -117l-15 10q52 91 99 134t114 43q58 0 88.5 -42t56.5 -145q29 -116 56 -293t36 -345q128 174 202 291.5t165 294.5l-72 192l3 20h187l-3 -20q-119 -301 -255 -513.5t-363 -481.5z" />
    <glyph glyph-name="w" unicode="w" horiz-adv-x="1465" 
d="M336 -21l-23 21l47 64q-37 465 -118 746q-25 85 -41.5 113t-40.5 28q-42 0 -125 -117l-14 11q59 96 102.5 136t108.5 40q28 0 48.5 -8t33.5 -19.5t25.5 -38.5t19.5 -51t20 -71q30 -110 56.5 -286t36.5 -349q125 170 199.5 287t148.5 265q-26 173 -43 242l135 28
q26 -152 106 -824q131 177 208 299.5t160 286.5l-73 192l3 20h186l-3 -20q-76 -202 -173 -376t-194.5 -306.5t-249.5 -312.5l-25 21l48 57q-11 85 -36.5 303.5t-40.5 327.5q-94 -186 -206.5 -345t-285.5 -364z" />
    <glyph glyph-name="x" unicode="x" horiz-adv-x="1101" 
d="M130 -24q-52 0 -97 31l83 238l18 2l76 -213q33 16 67 50.5t60.5 70.5t60.5 96t55 101t56 112q-45 262 -67 346q-37 136 -110 136q-23 0 -63.5 -29t-89.5 -86l-13 13q71 94 123 132.5t120 38.5q71 0 111.5 -42t61.5 -140q32 -148 52 -256q190 443 390 443q17 0 34 -4.5
t27 -8.5t22.5 -11t13.5 -7l-83 -238l-18 -2l-76 210q-39 -17 -77 -55t-78.5 -104.5t-65.5 -113t-70 -137.5q-7 -13 -10 -20q47 -253 68 -348q17 -77 48 -106.5t62 -29.5q23 0 63.5 29t89.5 86l13 -13q-72 -94 -124 -132.5t-119 -38.5q-69 0 -108.5 41.5t-65.5 139.5
q-22 82 -52 259q-190 -440 -388 -440z" />
    <glyph glyph-name="y" unicode="y" horiz-adv-x="909" 
d="M-112 -422l-62 177l9 16q117 -16 166 -16q42 0 72 5q66 49 155.5 139.5t140.5 159.5q-36 438 -128 751q-25 84 -42.5 112.5t-40.5 28.5q-44 0 -124 -117l-14 11q54 92 97.5 134t113.5 42q62 0 93 -42t55 -146q88 -379 103 -652q62 73 110.5 142t91.5 150.5t70.5 139.5
t75.5 169l-73 192l3 20h186l-3 -20q-110 -316 -245.5 -542t-351.5 -463q-151 -165 -258.5 -254.5t-199.5 -136.5z" />
    <glyph glyph-name="z" unicode="z" horiz-adv-x="876" 
d="M532 -24q-69 0 -140.5 25t-141 50.5t-133.5 25.5l-51 -91l-29 11l51 109l632 723q-19 1 -150 19t-205 18q-67 0 -112 -19l-106 -101h-15l67 217q22 22 72.5 39.5t113.5 17.5q84 0 173 -20t162.5 -45.5t85.5 -28.5l56 78l34 -17l-57 -89l-647 -732q40 6 78 6
q62 0 165 -19.5t154 -19.5q8 0 23.5 -0.5t22.5 -0.5q49 0 86 13.5t75 56.5l15 -10q-43 -95 -117.5 -155.5t-161.5 -60.5z" />
    <glyph glyph-name="braceleft" unicode="{" horiz-adv-x="583" 
d="M372 -378h-27q-158 0 -226.5 64t-47.5 184q13 71 93.5 267t95.5 278q14 81 -34 118t-149 37l6 37q211 0 238 159q16 91 2 271t3 275q23 128 120.5 187.5t266.5 59.5l-6 -35q-51 0 -87.5 -7t-72.5 -26.5t-59.5 -59.5t-34.5 -101q-16 -90 -12.5 -268.5t-13.5 -273.5
q-15 -88 -79.5 -136t-154.5 -61l-1 -3q194 -32 165 -196q-15 -87 -81.5 -267t-83.5 -274q-9 -36 -5.5 -64t8.5 -48t20 -34.5t30.5 -23.5t38.5 -13.5t44.5 -6.5t49.5 -2z" />
    <glyph glyph-name="bar" unicode="|" horiz-adv-x="450" 
d="M55 -323l330 1868h50l-330 -1868h-50z" />
    <glyph glyph-name="braceright" unicode="}" horiz-adv-x="583" 
d="M-97 -378l6 37q40 0 70 3.5t62 15.5t54.5 32.5t40.5 56t27 84.5q17 96 13.5 275t11.5 266q29 164 235 196l1 3q-86 13 -133.5 61t-32.5 136q17 95 83.5 273.5t82.5 268.5q8 36 5 64t-8 48.5t-20 35t-30 23.5t-38.5 14t-45 7t-49.5 2l6 35q170 0 247 -59.5t54 -187.5
q-17 -95 -95 -275t-94 -271q-14 -82 34.5 -120.5t147.5 -38.5l-6 -37q-211 0 -237 -155q-15 -83 -3.5 -278.5t-1.5 -266.5q-21 -120 -111.5 -184t-248.5 -64h-27z" />
    <glyph glyph-name="asciitilde" unicode="~" horiz-adv-x="1010" 
d="M674 452q-55 0 -186.5 56.5t-183.5 56.5q-115 0 -180 -110l-19 6q34 85 100.5 145t154.5 60q48 0 177 -56t187 -56q65 0 106.5 24.5t79.5 82.5l15 -6q-32 -84 -96 -143.5t-155 -59.5z" />
    <glyph glyph-name="uni00A0" unicode="&#xa0;" horiz-adv-x="409" 
 />
    <glyph glyph-name="exclamdown" unicode="&#xa1;" horiz-adv-x="489" 
d="M301 817q-46 0 -70 28.5t-16 73.5t42 73.5t80 28.5q45 0 70 -28.5t17 -73.5q-7 -45 -42.5 -73.5t-80.5 -28.5zM1 -430l256 1066h24l-118 -1066h-162z" />
    <glyph glyph-name="cent" unicode="&#xa2;" horiz-adv-x="995" 
d="M695 1021q71 0 152 -19.5t137 -41.5l-83 -250h-18q-47 204 -77 262q-57 19 -119 19q-19 0 -29 -1l-164 -929h19q95 0 190 43t156 117l14 -9q-138 -219 -394 -235l-38 -218h-30l38 217h-6q-168 0 -269.5 109.5t-101.5 290.5q0 130 45 246t122 198t179 134t215 64l37 210
h30l-37 -208q11 1 32 1zM465 64l163 923q-97 -12 -173 -62.5t-123.5 -128.5t-72 -175t-24.5 -207q0 -319 230 -350z" />
    <glyph glyph-name="sterling" unicode="&#xa3;" horiz-adv-x="1166" 
d="M887 1460q76 0 148.5 -21.5t121.5 -54.5l-41 -302h-19q-11 39 -17.5 61.5t-20 59t-25 59t-31 51.5t-40 46.5t-49.5 33t-62 22.5q-270 -4 -327 -326q-8 -48 2 -173t3 -200h450q-10 -31 -11 -37h-443l-3 -17q-28 -158 -117 -307t-227 -242q149 36 279 36q60 0 163.5 -16
t160.5 -16q150 0 288 135l14 -15q-100 -157 -241 -247q-77 0 -256 24.5t-246 24.5q-155 0 -340 -49l-9 37q78 45 147 127t115 174t75.5 177.5t42.5 156.5l3 17h-141l11 37h133q3 49 -7.5 170.5t0.5 157.5q37 206 176 311t340 105z" />
    <glyph glyph-name="currency" unicode="&#xa4;" horiz-adv-x="1016" 
d="M480 270q-125 0 -211 78l-175 -149l-35 41l180 147q-31 42 -41.5 104.5t1.5 122.5q22 125 119 222l-125 153l43 35l121 -152q122 84 244 84q120 0 211 -77l174 147l34 -39l-177 -156q30 -37 40.5 -99t-0.5 -118q-11 -61 -45 -122.5t-80 -106.5l124 -149l-40 -39l-125 151
q-126 -78 -237 -78zM489 319q138 0 226 83.5t111 211.5q21 125 -38.5 206t-196.5 81q-135 0 -225.5 -81.5t-111.5 -205.5q-23 -125 40 -210t195 -85z" />
    <glyph glyph-name="yen" unicode="&#xa5;" horiz-adv-x="1351" 
d="M1073 1439h453l-4 -21l-189 -53l-557 -701l-5 -30h409l-15 -34h-400l-34 -193h370l-16 -35h-360l-53 -298l170 -54l-4 -20h-503l4 20l187 53l53 299h-378l3 35h381l34 193h-409l2 34h413l1 5l-291 726l-168 53l4 21h501l-4 -21l-171 -53l270 -658l519 655l-217 56z" />
    <glyph glyph-name="brokenbar" unicode="&#xa6;" horiz-adv-x="444" 
d="M240 747l141 798h50l-141 -798h-50zM51 -323l141 796h50l-141 -796h-50z" />
    <glyph glyph-name="section" unicode="&#xa7;" horiz-adv-x="920" 
d="M278 -235q-153 0 -307 102l30 265h10q77 -334 273 -334q78 0 138.5 23t97 63t57.5 84.5t30 96.5q4 24 4 45.5t-2.5 39t-12 35.5t-16 30t-23 28t-26.5 25t-32 24.5t-33.5 22.5t-37.5 23.5t-37 23.5q-62 39 -106 76t-85.5 88t-57.5 114t-3 135q25 145 134 230
q-50 72 -32 176q27 149 136.5 231t268.5 82q150 0 294 -104l-30 -263h-10q-42 146 -58 184q-45 107 -127 136q-40 14 -90 14q-96 0 -173 -64.5t-97 -178.5q-4 -22 -4 -41.5t3 -36t11.5 -32t17 -27.5t23.5 -25.5t28 -23.5t34 -23.5t37 -23t42 -25t45 -27.5
q63 -40 107.5 -79.5t81.5 -91t50 -115t0 -136.5q-25 -144 -123 -232q38 -69 21 -174q-16 -89 -58 -155.5t-103.5 -106t-133.5 -59t-156 -19.5zM661 339q37 61 50 132q35 201 -205 357q-18 12 -63.5 39.5t-74.5 47.5t-52 41q-51 -62 -65 -145q-9 -54 2.5 -102t44 -90.5
t75 -77.5t104.5 -74q12 -7 40 -24.5t42 -26.5t35.5 -23.5t37 -27.5t29.5 -26z" />
    <glyph glyph-name="dieresis" unicode="&#xa8;" horiz-adv-x="951" 
d="M453 1254q-38 0 -58.5 25t-13.5 62t36 61t67 24q39 0 59 -24t14 -61q-7 -37 -36 -62t-68 -25zM763 1254q-38 0 -58.5 24.5t-13.5 62.5q7 37 36 61t67 24t59 -24t14 -61q-7 -38 -36 -62.5t-68 -24.5z" />
    <glyph glyph-name="copyright" unicode="&#xa9;" horiz-adv-x="1715" 
d="M765 -24q-218 0 -376 95.5t-226.5 265.5t-31.5 382t166 382.5t320.5 265.5t408.5 95q218 0 377 -95t228.5 -265.5t32.5 -382.5t-166.5 -382t-322 -265.5t-410.5 -95.5zM765 25q150 0 291 51.5t251.5 142t187.5 219t103 277.5q26 148 -3 278t-104 222.5t-195 146
t-268 53.5q-203 0 -381 -88.5t-297.5 -248t-155.5 -359.5q-26 -146 3.5 -274.5t104.5 -221t195 -145.5t268 -53zM795 250q-167 0 -253.5 115.5t-53.5 302.5q38 211 185.5 341t335.5 130q114 0 248 -52l-72 -215h-15q-39 173 -67 225q-43 16 -100 16q-149 0 -244 -106
t-127 -291q-32 -178 27.5 -281t197.5 -103q81 0 162 27t137 77l8 -11q-67 -81 -162 -128t-207 -47z" />
    <glyph glyph-name="ordfeminine" unicode="&#xaa;" horiz-adv-x="414" 
d="M225 1035q-48 0 -73 24t-18 65q11 64 87 102.5t177 44.5l9 47q16 98 -81 98q-64 0 -115 -27l-3 8q73 58 169 58q74 0 97.5 -35.5t11.5 -98.5l-40 -229l39 -26l-1 -5l-116 -26l1 58q-68 -58 -144 -58zM273 1076q54 0 97 31l26 151q-73 -7 -120.5 -37t-56.5 -79
q-11 -66 54 -66zM103 911l7 37h339l-7 -37h-339z" />
    <glyph glyph-name="guillemotleft" unicode="&#xab;" horiz-adv-x="902" 
d="M364 135l-301 363l5 28l430 366l27 -23l-298 -356l172 -356zM734 135l-301 363l5 28l430 366l27 -23l-298 -356l172 -356z" />
    <glyph glyph-name="logicalnot" unicode="&#xac;" horiz-adv-x="1082" 
d="M907 322l57 320h-836l7 41h879l-64 -361h-43z" />
    <glyph glyph-name="registered" unicode="&#xae;" horiz-adv-x="1064" 
d="M557 630q-125 0 -220 61.5t-137.5 167.5t-20.5 231q33 190 191.5 325.5t349.5 135.5q125 0 220 -62t138.5 -168t21.5 -231q-34 -190 -193 -325t-350 -135zM564 669q174 0 320 123.5t177 297.5q30 174 -72 298t-276 124t-319.5 -124t-175.5 -298q-31 -174 70.5 -297.5
t275.5 -123.5zM416 889l1 5l52 40l60 341l-40 40l1 6h202q78 0 113.5 -29.5t26.5 -79.5q-18 -98 -149 -119q11 -4 42 -10l68 -153l40 -38l-1 -3h-122l-66 200h-41l1 13h25q94 0 114 108q17 96 -78 96h-46l-66 -372l38 -40l-1 -5h-174z" />
    <glyph glyph-name="macron" unicode="&#xaf;" horiz-adv-x="1505" 
d="M639 1319l6 37h508l-6 -37h-508z" />
    <glyph glyph-name="degree" unicode="&#xb0;" horiz-adv-x="625" 
d="M437 1197q-81 0 -126.5 39t-34.5 102t71 102.5t140 39.5q78 0 122.5 -39.5t33.5 -102.5t-69.5 -102t-136.5 -39zM441 1219q72 0 93 119q22 120 -51 120q-75 0 -97 -120q-21 -119 55 -119z" />
    <glyph glyph-name="plusminus" unicode="&#xb1;" horiz-adv-x="1182" 
d="M481 561h-379l8 42h379l67 384h48l-67 -384h379l-8 -42h-379l-67 -382h-48zM1002 51h-808l8 42h808z" />
    <glyph glyph-name="twosuperior" unicode="&#xb2;" horiz-adv-x="550" 
d="M90 874l3 43q211 166 318 286t124 219q14 74 -14 117.5t-89 43.5q-124 0 -232 -211h-9l47 192q103 40 205 41q120 0 175 -50.5t40 -136.5q-5 -28 -15 -54.5t-31 -55t-38.5 -50.5t-55 -54t-61.5 -52.5t-77.5 -59t-83.5 -59.5t-97 -68h279l135 130l3 -1l-67 -220h-459z" />
    <glyph glyph-name="threesuperior" unicode="&#xb3;" horiz-adv-x="571" 
d="M310 862q-55 0 -108.5 13.5t-77.5 31.5l21 190h9q6 -36 13.5 -63.5t20.5 -57t30 -48.5t42 -31t57 -12q73 0 123 45t63 118q15 85 -35.5 132t-146.5 57l3 19q98 20 153 62t69 118q12 66 -11 106.5t-78 40.5q-35 0 -67.5 -15.5t-54.5 -34t-47.5 -53t-37 -53.5t-31.5 -55h-9
l49 192q98 41 207 41q106 0 160 -47t41 -121q-10 -60 -64.5 -103t-144.5 -65q89 -20 134 -73t31 -130q-16 -91 -103 -147.5t-210 -56.5z" />
    <glyph glyph-name="acute" unicode="&#xb4;" horiz-adv-x="739" 
d="M386 1148l146 231h180l4 -11l-315 -220h-15z" />
    <glyph glyph-name="mu" unicode="&#xb5;" horiz-adv-x="1081" 
d="M1078 1010l-163 -928l105 -42l-2 -12l-234 -52l11 158q-76 -69 -186.5 -113.5t-215.5 -44.5q-119 0 -190 66q5 -27 6.5 -55t-2.5 -63t-6.5 -53t-9.5 -60l-40 -227h-134l119 672l3 22l110 619l-146 40l3 19l286 65l10 -11l-102 -583v-1l-21 -118q-22 -121 28.5 -189
t163.5 -68q86 0 175.5 33t151.5 87l128 726l-147 40l3 19l287 65z" />
    <glyph glyph-name="paragraph" unicode="&#xb6;" horiz-adv-x="1323" 
d="M633 0q-319 0 -466.5 191.5t-88.5 529.5q60 336 272 527t520 191h528l-3 -20l-183 -52l-228 -1294l169 -53l-4 -20h-516zM670 37h238l241 1365h-238z" />
    <glyph glyph-name="periodcentered" unicode="&#xb7;" horiz-adv-x="460" 
d="M209 379q-51 0 -79.5 33t-19.5 83q9 51 49 84.5t91 33.5q53 0 80.5 -33t18.5 -85q-9 -51 -48 -83.5t-92 -32.5z" />
    <glyph glyph-name="cedilla" unicode="&#xb8;" horiz-adv-x="753" 
d="M88 -454l-2 11q163 60 183 172q17 95 -87 123l-1 14l131 148l33 -3l-93 -102q71 -11 108.5 -52t26.5 -102q-13 -75 -94 -130t-205 -79z" />
    <glyph glyph-name="onesuperior" unicode="&#xb9;" horiz-adv-x="380" 
d="M131 874l1 9l89 55l95 540h-105l1 7l237 121h8l-118 -668l69 -55l-1 -9h-276z" />
    <glyph glyph-name="ordmasculine" unicode="&#xba;" horiz-adv-x="474" 
d="M333 1035q-90 0 -139 59.5t-33 150.5q16 90 86.5 150t159.5 60t138 -59.5t33 -150.5t-86 -150.5t-159 -59.5zM335 1048q56 0 98 53.5t58 143.5t-7.5 143.5t-78.5 53.5q-56 0 -98.5 -53.5t-58.5 -143.5t7.5 -143.5t79.5 -53.5zM113 911l7 37h398l-7 -37h-398z" />
    <glyph glyph-name="guillemotright" unicode="&#xbb;" horiz-adv-x="902" 
d="M101 135l-31 22l234 356l-235 356l31 23l366 -366v-28zM471 135l-31 22l234 356l-235 356l31 23l366 -366v-28z" />
    <glyph glyph-name="questiondown" unicode="&#xbf;" horiz-adv-x="917" 
d="M610 815q-46 0 -70 28.5t-16 73.5t42 73t80 28q45 0 70 -28.5t17 -72.5q-8 -45 -43 -73.5t-80 -28.5zM335 -455q-195 0 -291.5 84t-68.5 236q11 64 41 121.5t85 117t106 106t141 125.5t153 139l69 161h27l4 -162q-17 -18 -94 -94.5t-105.5 -106t-89 -97.5t-88 -109.5
t-56 -97.5t-36.5 -104q-22 -131 31 -205.5t169 -74.5q99 0 213 107t186 245h17l-66 -315q-71 -32 -164.5 -54t-182.5 -22z" />
    <glyph glyph-name="Agrave" unicode="&#xc0;" horiz-adv-x="1429" 
d="M891 1542l-206 170l8 11h190l23 -181h-15zM-83 0l4 20l192 54l655 1245l-69 100l3 20h213l250 -1365l167 -54l-4 -20h-495l4 20l173 54l-72 409h-569l-216 -409l209 -54l-4 -20h-441zM388 521h542l-137 771z" />
    <glyph glyph-name="Aacute" unicode="&#xc1;" horiz-adv-x="1429" 
d="M815 1542l87 181h190l4 -11l-266 -170h-15zM-83 0l4 20l192 54l655 1245l-69 100l3 20h213l250 -1365l167 -54l-4 -20h-495l4 20l173 54l-72 409h-569l-216 -409l209 -54l-4 -20h-441zM388 521h542l-137 771z" />
    <glyph glyph-name="Acircumflex" unicode="&#xc2;" horiz-adv-x="1429" 
d="M636 1533l-17 9l254 248h59l164 -248l-19 -9l-198 118zM-83 0l4 20l192 54l655 1245l-69 100l3 20h213l250 -1365l167 -54l-4 -20h-495l4 20l173 54l-72 409h-569l-216 -409l209 -54l-4 -20h-441zM388 521h542l-137 771z" />
    <glyph glyph-name="Atilde" unicode="&#xc3;" horiz-adv-x="1429" 
d="M611 1538l-13 4q31 85 80 141t117 56q36 0 105 -50t107 -50q81 0 138 100l11 -4q-28 -84 -78 -140.5t-117 -56.5q-33 0 -71 25t-75 49.5t-67 24.5q-83 0 -137 -99zM-83 0l4 20l192 54l655 1245l-69 100l3 20h213l250 -1365l167 -54l-4 -20h-495l4 20l173 54l-72 409h-569
l-216 -409l209 -54l-4 -20h-441zM388 521h542l-137 771z" />
    <glyph glyph-name="Adieresis" unicode="&#xc4;" horiz-adv-x="1429" 
d="M706 1559q-38 0 -58.5 25t-13.5 62t36 61t67 24q39 0 59 -24t14 -61q-7 -37 -36 -62t-68 -25zM1016 1559q-38 0 -58.5 24.5t-13.5 62.5q7 37 36 61t67 24t59 -24t14 -61q-7 -38 -36 -62.5t-68 -24.5zM-83 0l4 20l192 54l655 1245l-69 100l3 20h213l250 -1365l167 -54
l-4 -20h-495l4 20l173 54l-72 409h-569l-216 -409l209 -54l-4 -20h-441zM388 521h542l-137 771z" />
    <glyph glyph-name="Aring" unicode="&#xc5;" horiz-adv-x="1429" 
d="M1165 74l167 -54l-4 -20h-495l4 20l173 54l-72 409h-569l-216 -409l209 -54l-4 -20h-441l4 20l192 54l655 1245l-69 100l3 20h43q-81 38 -66 122q11 63 71 102.5t140 39.5q78 0 122.5 -39.5t33.5 -102.5q-8 -46 -43 -80.5t-87 -49.5zM789 1561q-21 -119 55 -119
q72 0 93 119q22 120 -51 120q-75 0 -97 -120zM388 521h542l-137 771z" />
    <glyph glyph-name="AE" unicode="&#xc6;" horiz-adv-x="2090" 
d="M-56 0l4 20l211 54l1123 1295l-156 50l3 20h980l-62 -351h-8l-77 314h-515l-114 -645h341l124 189h16l-73 -414h-16l-58 187h-341l-120 -682h589l241 316l8 -2l-116 -351h-1053l4 20l188 54l73 409h-580l-354 -409l187 -54l-4 -20h-445zM592 521h554l142 806z" />
    <glyph glyph-name="Ccedilla" unicode="&#xc7;" horiz-adv-x="1317" 
d="M947 1462q95 0 189.5 -24t219.5 -96l-37 -352h-17q-7 49 -12.5 82.5t-15 74.5t-20 69t-26.5 59.5t-36 52t-47.5 40.5t-60.5 31t-76 18t-94 7q-121 0 -227.5 -53.5t-186.5 -148.5t-135.5 -223.5t-82.5 -280.5q-30 -156 -15.5 -285.5t63 -223t140 -145t216.5 -51.5h5l1 1
l9 -1q93 2 166.5 31.5t133.5 90t106 132.5t99 181h17l-87 -352q-143 -68 -245.5 -93t-197.5 -27l-61 -67q71 -11 108.5 -52t26.5 -102q-13 -75 -94 -130t-205 -79l-2 11q163 60 183 172q17 95 -87 123l-1 14l97 110q-200 3 -336.5 99.5t-189.5 264t-16 378.5q28 161 101 298
t179.5 236t248.5 154.5t302 55.5z" />
    <glyph glyph-name="Egrave" unicode="&#xc8;" horiz-adv-x="1166" 
d="M799 1542l-206 170l8 11h190l23 -181h-15zM-49 0l4 20l187 53l228 1292l-168 54l3 20h979l-62 -351h-8l-78 313h-514l-113 -644h340l124 189h16l-73 -414h-16l-58 187h-340l-120 -681h588l242 315l8 -2l-117 -351h-1052z" />
    <glyph glyph-name="Eacute" unicode="&#xc9;" horiz-adv-x="1166" 
d="M723 1542l87 181h190l4 -11l-266 -170h-15zM-49 0l4 20l187 53l228 1292l-168 54l3 20h979l-62 -351h-8l-78 313h-514l-113 -644h340l124 189h16l-73 -414h-16l-58 187h-340l-120 -681h588l242 315l8 -2l-117 -351h-1052z" />
    <glyph glyph-name="Ecircumflex" unicode="&#xca;" horiz-adv-x="1166" 
d="M544 1533l-17 9l254 248h59l164 -248l-19 -9l-198 118zM-49 0l4 20l187 53l228 1292l-168 54l3 20h979l-62 -351h-8l-78 313h-514l-113 -644h340l124 189h16l-73 -414h-16l-58 187h-340l-120 -681h588l242 315l8 -2l-117 -351h-1052z" />
    <glyph glyph-name="Edieresis" unicode="&#xcb;" horiz-adv-x="1166" 
d="M614 1559q-38 0 -58.5 25t-13.5 62t36 61t67 24q39 0 59 -24t14 -61q-7 -37 -36 -62t-68 -25zM924 1559q-38 0 -58.5 24.5t-13.5 62.5q7 37 36 61t67 24t59 -24t14 -61q-7 -38 -36 -62.5t-68 -24.5zM-49 0l4 20l187 53l228 1292l-168 54l3 20h979l-62 -351h-8l-78 313
h-514l-113 -644h340l124 189h16l-73 -414h-16l-58 187h-340l-120 -681h588l242 315l8 -2l-117 -351h-1052z" />
    <glyph glyph-name="Igrave" unicode="&#xcc;" horiz-adv-x="580" 
d="M506 1542l-206 170l8 11h190l23 -181h-15zM-49 0l4 20l187 53l228 1292l-168 54l3 20h503l-3 -20l-189 -54l-228 -1291l170 -54l-4 -20h-503z" />
    <glyph glyph-name="Iacute" unicode="&#xcd;" horiz-adv-x="580" 
d="M430 1542l87 181h190l4 -11l-266 -170h-15zM-49 0l4 20l187 53l228 1292l-168 54l3 20h503l-3 -20l-189 -54l-228 -1291l170 -54l-4 -20h-503z" />
    <glyph glyph-name="Icircumflex" unicode="&#xce;" horiz-adv-x="580" 
d="M251 1533l-17 9l254 248h59l164 -248l-19 -9l-198 118zM-49 0l4 20l187 53l228 1292l-168 54l3 20h503l-3 -20l-189 -54l-228 -1291l170 -54l-4 -20h-503z" />
    <glyph glyph-name="Idieresis" unicode="&#xcf;" horiz-adv-x="580" 
d="M321 1559q-38 0 -58.5 25t-13.5 62t36 61t67 24q39 0 59 -24t14 -61q-7 -37 -36 -62t-68 -25zM631 1559q-38 0 -58.5 24.5t-13.5 62.5q7 37 36 61t67 24t59 -24t14 -61q-7 -38 -36 -62.5t-68 -24.5zM-49 0l4 20l187 53l228 1292l-168 54l3 20h503l-3 -20l-189 -54
l-228 -1291l170 -54l-4 -20h-503z" />
    <glyph glyph-name="Eth" unicode="&#xd0;" horiz-adv-x="1422" 
d="M846 1439q308 0 453 -191t85 -527q-59 -338 -274.5 -529.5t-534.5 -191.5h-624l4 20l187 53l111 628h-171l6 38h171l111 628l-163 52l3 20h636zM1216 708q61 342 -42.5 517.5t-362.5 175.5h-289l-117 -662h181l-6 -38h-181l-117 -663h270q276 0 441.5 171.5t222.5 498.5z
" />
    <glyph glyph-name="Ntilde" unicode="&#xd1;" horiz-adv-x="1437" 
d="M653 1538l-13 4q31 85 80 141t117 56q36 0 105 -50t107 -50q81 0 138 100l11 -4q-28 -84 -78 -140.5t-117 -56.5q-33 0 -71 25t-75 49.5t-67 24.5q-83 0 -137 -99zM1089 -17l-701 1269l-206 -1167l168 -65l-4 -20h-395l4 20l189 65l226 1280l-168 54l3 20h261l666 -1205
l197 1120l-168 66l3 19h399l-3 -19l-191 -66l-239 -1354z" />
    <glyph glyph-name="Ograve" unicode="&#xd2;" horiz-adv-x="1517" 
d="M975 1542l-206 170l8 11h190l23 -181h-15zM666 -24q-118 0 -217 35.5t-170 101t-116.5 157t-56.5 204.5t10 243q38 215 154.5 385t289 265t368.5 95q197 0 335.5 -95t196 -265t19.5 -385q-38 -213 -154.5 -382.5t-289 -264t-369.5 -94.5zM673 13q239 0 411.5 192.5
t228.5 511.5q34 214 3 371t-133.5 246.5t-261.5 89.5q-240 0 -411.5 -193t-227.5 -514q-34 -212 -3.5 -368.5t133 -246t261.5 -89.5z" />
    <glyph glyph-name="Oacute" unicode="&#xd3;" horiz-adv-x="1517" 
d="M899 1542l87 181h190l4 -11l-266 -170h-15zM666 -24q-118 0 -217 35.5t-170 101t-116.5 157t-56.5 204.5t10 243q38 215 154.5 385t289 265t368.5 95q197 0 335.5 -95t196 -265t19.5 -385q-38 -213 -154.5 -382.5t-289 -264t-369.5 -94.5zM673 13q239 0 411.5 192.5
t228.5 511.5q34 214 3 371t-133.5 246.5t-261.5 89.5q-240 0 -411.5 -193t-227.5 -514q-34 -212 -3.5 -368.5t133 -246t261.5 -89.5z" />
    <glyph glyph-name="Ocircumflex" unicode="&#xd4;" horiz-adv-x="1517" 
d="M720 1533l-17 9l254 248h59l164 -248l-19 -9l-198 118zM666 -24q-118 0 -217 35.5t-170 101t-116.5 157t-56.5 204.5t10 243q38 215 154.5 385t289 265t368.5 95q197 0 335.5 -95t196 -265t19.5 -385q-38 -213 -154.5 -382.5t-289 -264t-369.5 -94.5zM673 13
q239 0 411.5 192.5t228.5 511.5q34 214 3 371t-133.5 246.5t-261.5 89.5q-240 0 -411.5 -193t-227.5 -514q-34 -212 -3.5 -368.5t133 -246t261.5 -89.5z" />
    <glyph glyph-name="Otilde" unicode="&#xd5;" horiz-adv-x="1517" 
d="M695 1538l-13 4q31 85 80 141t117 56q36 0 105 -50t107 -50q81 0 138 100l11 -4q-28 -84 -78 -140.5t-117 -56.5q-33 0 -71 25t-75 49.5t-67 24.5q-83 0 -137 -99zM666 -24q-118 0 -217 35.5t-170 101t-116.5 157t-56.5 204.5t10 243q38 215 154.5 385t289 265t368.5 95
q197 0 335.5 -95t196 -265t19.5 -385q-38 -213 -154.5 -382.5t-289 -264t-369.5 -94.5zM673 13q239 0 411.5 192.5t228.5 511.5q34 214 3 371t-133.5 246.5t-261.5 89.5q-240 0 -411.5 -193t-227.5 -514q-34 -212 -3.5 -368.5t133 -246t261.5 -89.5z" />
    <glyph glyph-name="Odieresis" unicode="&#xd6;" horiz-adv-x="1517" 
d="M790 1559q-38 0 -58.5 25t-13.5 62t36 61t67 24q39 0 59 -24t14 -61q-7 -37 -36 -62t-68 -25zM1100 1559q-38 0 -58.5 24.5t-13.5 62.5q7 37 36 61t67 24t59 -24t14 -61q-7 -38 -36 -62.5t-68 -24.5zM666 -24q-118 0 -217 35.5t-170 101t-116.5 157t-56.5 204.5t10 243
q38 215 154.5 385t289 265t368.5 95q197 0 335.5 -95t196 -265t19.5 -385q-38 -213 -154.5 -382.5t-289 -264t-369.5 -94.5zM673 13q239 0 411.5 192.5t228.5 511.5q34 214 3 371t-133.5 246.5t-261.5 89.5q-240 0 -411.5 -193t-227.5 -514q-34 -212 -3.5 -368.5t133 -246
t261.5 -89.5z" />
    <glyph glyph-name="multiply" unicode="&#xd7;" horiz-adv-x="961" 
d="M764 215l-276 334l-390 -332l-29 30l394 333l-276 336l40 33l275 -334l391 332l26 -31l-391 -334l273 -335z" />
    <glyph glyph-name="Oslash" unicode="&#xd8;" horiz-adv-x="1517" 
d="M1193 1407q174 -82 251 -265t35 -425q-38 -213 -154.5 -382.5t-289 -264t-369.5 -94.5q-120 0 -222 37l-121 -225h-56l131 245q-171 82 -247.5 263.5t-34.5 420.5q38 215 154.5 385t289 265t368.5 95q117 0 219 -36l124 230h56zM282 717q-38 -218 -0.5 -382t146.5 -247
l693 1289q-85 47 -200 47q-240 0 -411.5 -193t-227.5 -514zM1313 717q39 221 -0.5 385.5t-149.5 247.5l-693 -1289q87 -48 203 -48q239 0 411.5 192.5t228.5 511.5z" />
    <glyph glyph-name="Ugrave" unicode="&#xd9;" horiz-adv-x="1391" 
d="M912 1542l-206 170l8 11h190l23 -181h-15zM621 -24q-111 0 -199 31.5t-147 92t-82 153.5t-2 210l159 902l-169 54l3 20h504l-3 -20l-189 -54l-157 -888q-38 -221 51 -342.5t274 -121.5q107 0 193.5 36.5t145 101.5t95.5 146.5t54 179.5l155 877l-167 66l3 19h396l-3 -19
l-191 -66l-152 -861q-43 -245 -185 -381t-387 -136z" />
    <glyph glyph-name="Uacute" unicode="&#xda;" horiz-adv-x="1391" 
d="M836 1542l87 181h190l4 -11l-266 -170h-15zM621 -24q-111 0 -199 31.5t-147 92t-82 153.5t-2 210l159 902l-169 54l3 20h504l-3 -20l-189 -54l-157 -888q-38 -221 51 -342.5t274 -121.5q107 0 193.5 36.5t145 101.5t95.5 146.5t54 179.5l155 877l-167 66l3 19h396l-3 -19
l-191 -66l-152 -861q-43 -245 -185 -381t-387 -136z" />
    <glyph glyph-name="Ucircumflex" unicode="&#xdb;" horiz-adv-x="1391" 
d="M657 1533l-17 9l254 248h59l164 -248l-19 -9l-198 118zM621 -24q-111 0 -199 31.5t-147 92t-82 153.5t-2 210l159 902l-169 54l3 20h504l-3 -20l-189 -54l-157 -888q-38 -221 51 -342.5t274 -121.5q107 0 193.5 36.5t145 101.5t95.5 146.5t54 179.5l155 877l-167 66l3 19
h396l-3 -19l-191 -66l-152 -861q-43 -245 -185 -381t-387 -136z" />
    <glyph glyph-name="Udieresis" unicode="&#xdc;" horiz-adv-x="1391" 
d="M727 1559q-38 0 -58.5 25t-13.5 62t36 61t67 24q39 0 59 -24t14 -61q-7 -37 -36 -62t-68 -25zM1037 1559q-38 0 -58.5 24.5t-13.5 62.5q7 37 36 61t67 24t59 -24t14 -61q-7 -38 -36 -62.5t-68 -24.5zM621 -24q-111 0 -199 31.5t-147 92t-82 153.5t-2 210l159 902l-169 54
l3 20h504l-3 -20l-189 -54l-157 -888q-38 -221 51 -342.5t274 -121.5q107 0 193.5 36.5t145 101.5t95.5 146.5t54 179.5l155 877l-167 66l3 19h396l-3 -19l-191 -66l-152 -861q-43 -245 -185 -381t-387 -136z" />
    <glyph glyph-name="Yacute" unicode="&#xdd;" horiz-adv-x="1351" 
d="M816 1542l87 181h190l4 -11l-266 -170h-15zM335 0l4 20l187 53l100 566l-291 726l-168 53l4 21h501l-4 -21l-171 -53l270 -658l519 655l-217 56l4 21h453l-4 -21l-189 -53l-557 -701l-104 -590l170 -54l-4 -20h-503z" />
    <glyph glyph-name="Thorn" unicode="&#xde;" horiz-adv-x="1192" 
d="M-49 0l4 20l187 53l228 1292l-168 54l3 20h503l-3 -20l-189 -54l-23 -131h119q53 0 99 -2.5t95 -8.5t90.5 -16.5t82 -26t72.5 -38t60 -51t46 -66t28.5 -82t10 -101t-12.5 -121.5q-16 -92 -49 -167t-75.5 -128t-100.5 -93t-118 -64t-134 -38.5t-142.5 -20t-149.5 -5.5
h-102l-24 -131l170 -54l-4 -20h-503zM318 243h73q114 0 215 28t186 83t143.5 146t79.5 208q20 105 4 186t-54.5 138t-100.5 93.5t-133.5 53.5t-153.5 17h-91z" />
    <glyph glyph-name="germandbls" unicode="&#xdf;" horiz-adv-x="1195" 
d="M-161 -421q-54 0 -107.5 15.5t-84.5 37.5l113 226h16q15 -137 32 -236q39 -13 56 -13q97 0 161 90.5t93 254.5l174 1010h-144l6 30h144l13 73q20 114 65.5 199.5t108.5 134t134 72t151 23.5q141 0 238 -66t97 -172q0 -52 -17 -96.5t-40.5 -75.5t-68.5 -65t-80 -55
t-96.5 -56.5t-99.5 -59.5q73 -44 138.5 -97.5t125.5 -120.5t95 -146.5t35 -158.5q0 -44 -12.5 -90t-43 -93.5t-76 -84t-118 -60t-162.5 -23.5q-134 0 -248 60q5 28 13.5 84t13.5 84h19q76 -191 255 -191q67 0 119 53.5t75.5 124.5t23.5 140q0 78 -28 147.5t-80.5 127.5
t-111.5 104t-138 94l6 30q123 86 200 151t112.5 115t46 83.5t10.5 77.5q0 87 -55 146t-154 59q-125 0 -205 -98t-110 -271l-183 -1093q-33 -197 -154.5 -311t-272.5 -114z" />
    <glyph glyph-name="agrave" unicode="&#xe0;" horiz-adv-x="1170" 
d="M755 1148l-237 220l8 11h180l64 -231h-15zM355 -24q-126 0 -201.5 101t-75.5 277q0 130 46.5 251.5t126.5 213t195 147t244 55.5q77 0 136 -35t84 -78l163 112h4l-145 -820q-11 -61 -12.5 -95t4.5 -47t21 -13q33 0 78.5 29t90.5 86l14 -13q-62 -90 -118 -130.5
t-121 -40.5q-32 0 -52 8t-35 34.5t-15.5 74t12.5 128t43 194.5h-8q-78 -177 -213 -308t-266 -131zM402 55q50 0 116 40.5t132.5 110t125.5 175.5t90 224l33 168q-11 97 -71 157t-142 60q-122 0 -226 -87t-163.5 -231t-59.5 -309q0 -308 165 -308z" />
    <glyph glyph-name="aacute" unicode="&#xe1;" horiz-adv-x="1170" 
d="M619 1148l146 231h180l4 -11l-315 -220h-15zM355 -24q-126 0 -201.5 101t-75.5 277q0 130 46.5 251.5t126.5 213t195 147t244 55.5q77 0 136 -35t84 -78l163 112h4l-145 -820q-11 -61 -12.5 -95t4.5 -47t21 -13q33 0 78.5 29t90.5 86l14 -13q-62 -90 -118 -130.5
t-121 -40.5q-32 0 -52 8t-35 34.5t-15.5 74t12.5 128t43 194.5h-8q-78 -177 -213 -308t-266 -131zM402 55q50 0 116 40.5t132.5 110t125.5 175.5t90 224l33 168q-11 97 -71 157t-142 60q-122 0 -226 -87t-163.5 -231t-59.5 -309q0 -308 165 -308z" />
    <glyph glyph-name="acircumflex" unicode="&#xe2;" horiz-adv-x="1170" 
d="M471 1132l-17 9l261 288h59l157 -288l-19 -9l-191 158zM355 -24q-126 0 -201.5 101t-75.5 277q0 130 46.5 251.5t126.5 213t195 147t244 55.5q77 0 136 -35t84 -78l163 112h4l-145 -820q-11 -61 -12.5 -95t4.5 -47t21 -13q33 0 78.5 29t90.5 86l14 -13
q-62 -90 -118 -130.5t-121 -40.5q-32 0 -52 8t-35 34.5t-15.5 74t12.5 128t43 194.5h-8q-78 -177 -213 -308t-266 -131zM402 55q50 0 116 40.5t132.5 110t125.5 175.5t90 224l33 168q-11 97 -71 157t-142 60q-122 0 -226 -87t-163.5 -231t-59.5 -309q0 -308 165 -308z" />
    <glyph glyph-name="atilde" unicode="&#xe3;" horiz-adv-x="1170" 
d="M453 1179l-13 4q31 85 80 141t117 56q36 0 105 -50t107 -50q81 0 138 100l11 -4q-28 -84 -78 -140.5t-117 -56.5q-33 0 -71 24.5t-75 49.5t-67 25q-83 0 -137 -99zM355 -24q-126 0 -201.5 101t-75.5 277q0 130 46.5 251.5t126.5 213t195 147t244 55.5q77 0 136 -35
t84 -78l163 112h4l-145 -820q-11 -61 -12.5 -95t4.5 -47t21 -13q33 0 78.5 29t90.5 86l14 -13q-62 -90 -118 -130.5t-121 -40.5q-32 0 -52 8t-35 34.5t-15.5 74t12.5 128t43 194.5h-8q-78 -177 -213 -308t-266 -131zM402 55q50 0 116 40.5t132.5 110t125.5 175.5t90 224
l33 168q-11 97 -71 157t-142 60q-122 0 -226 -87t-163.5 -231t-59.5 -309q0 -308 165 -308z" />
    <glyph glyph-name="adieresis" unicode="&#xe4;" horiz-adv-x="1170" 
d="M541 1159q-38 0 -58.5 25t-13.5 62t36 61t67 24q39 0 59 -24t14 -61q-7 -37 -36 -62t-68 -25zM851 1159q-38 0 -58.5 24.5t-13.5 62.5q7 37 36 61t67 24t59 -24t14 -61q-7 -38 -36 -62.5t-68 -24.5zM355 -24q-126 0 -201.5 101t-75.5 277q0 130 46.5 251.5t126.5 213
t195 147t244 55.5q77 0 136 -35t84 -78l163 112h4l-145 -820q-11 -61 -12.5 -95t4.5 -47t21 -13q33 0 78.5 29t90.5 86l14 -13q-62 -90 -118 -130.5t-121 -40.5q-32 0 -52 8t-35 34.5t-15.5 74t12.5 128t43 194.5h-8q-78 -177 -213 -308t-266 -131zM402 55q50 0 116 40.5
t132.5 110t125.5 175.5t90 224l33 168q-11 97 -71 157t-142 60q-122 0 -226 -87t-163.5 -231t-59.5 -309q0 -308 165 -308z" />
    <glyph glyph-name="aring" unicode="&#xe5;" horiz-adv-x="1170" 
d="M698 1157q-81 0 -126.5 39t-34.5 102t71 102.5t140 39.5q78 0 122.5 -39.5t33.5 -102.5t-69.5 -102t-136.5 -39zM702 1179q72 0 93 119q22 120 -51 120q-75 0 -97 -120q-21 -119 55 -119zM355 -24q-126 0 -201.5 101t-75.5 277q0 130 46.5 251.5t126.5 213t195 147
t244 55.5q77 0 136 -35t84 -78l163 112h4l-145 -820q-11 -61 -12.5 -95t4.5 -47t21 -13q33 0 78.5 29t90.5 86l14 -13q-62 -90 -118 -130.5t-121 -40.5q-32 0 -52 8t-35 34.5t-15.5 74t12.5 128t43 194.5h-8q-78 -177 -213 -308t-266 -131zM402 55q50 0 116 40.5t132.5 110
t125.5 175.5t90 224l33 168q-11 97 -71 157t-142 60q-122 0 -226 -87t-163.5 -231t-59.5 -309q0 -308 165 -308z" />
    <glyph glyph-name="ae" unicode="&#xe6;" horiz-adv-x="1759" 
d="M1729 578h-713q-22 -88 -22 -163q0 -354 282 -354q97 0 192.5 43.5t156.5 116.5l13 -9q-70 -115 -182.5 -175.5t-251.5 -60.5q-169 0 -267 110t-98 292q0 25 1 37h-6q-78 -177 -213 -308t-266 -131q-126 0 -201.5 101t-75.5 277q0 130 46.5 251.5t126.5 213t195 147
t244 55.5q77 0 136 -35t84 -78l58 -120q80 109 194.5 171t242.5 62q160 0 246.5 -94t86.5 -247q0 -50 -9 -102zM402 55q50 0 116 40.5t132.5 110t125.5 175.5t90 224l33 168q-11 97 -71 157t-142 60q-122 0 -226 -87t-163.5 -231t-59.5 -309q0 -308 165 -308zM1394 990
q-71 0 -133.5 -34t-108 -92t-78 -124.5t-52.5 -140.5l567 23q11 68 11 118q0 121 -53.5 185.5t-152.5 64.5z" />
    <glyph glyph-name="ccedilla" unicode="&#xe7;" horiz-adv-x="979" 
d="M695 1021q71 0 152 -19.5t137 -41.5l-83 -250h-18q-47 204 -77 262q-57 19 -119 19q-111 0 -199 -46.5t-142.5 -126.5t-82.5 -183t-28 -221q0 -166 67 -259.5t211 -93.5q95 0 190 43t156 117l14 -9q-73 -116 -184 -176t-246 -60q-20 0 -29 1l-62 -68q71 -11 108.5 -52
t26.5 -102q-13 -75 -94 -130t-205 -79l-2 11q163 60 183 172q17 95 -87 123l-1 14l101 114q-143 20 -226.5 126.5t-83.5 269.5q0 139 51.5 261t137.5 205t199 131t235 48z" />
    <glyph glyph-name="egrave" unicode="&#xe8;" horiz-adv-x="993" 
d="M687 1148h-15l-237 220l8 11h180zM963 578h-713q-22 -88 -22 -163q0 -354 282 -354q97 0 192.5 43.5t156.5 116.5l13 -9q-70 -115 -182.5 -175.5t-251.5 -60.5q-169 0 -267 110t-98 292q0 135 46 255.5t123 205t181 133.5t216 49q160 0 246.5 -94t86.5 -247
q0 -50 -9 -102zM628 990q-71 0 -133.5 -34t-108 -92t-78 -124.5t-52.5 -140.5l567 23q11 68 11 118q0 121 -53.5 185.5t-152.5 64.5z" />
    <glyph glyph-name="eacute" unicode="&#xe9;" horiz-adv-x="993" 
d="M866 1368l-315 -220h-15l146 231h180zM963 578h-713q-22 -88 -22 -163q0 -354 282 -354q97 0 192.5 43.5t156.5 116.5l13 -9q-70 -115 -182.5 -175.5t-251.5 -60.5q-169 0 -267 110t-98 292q0 135 46 255.5t123 205t181 133.5t216 49q160 0 246.5 -94t86.5 -247
q0 -50 -9 -102zM628 990q-71 0 -133.5 -34t-108 -92t-78 -124.5t-52.5 -140.5l567 23q11 68 11 118q0 121 -53.5 185.5t-152.5 64.5z" />
    <glyph glyph-name="ecircumflex" unicode="&#xea;" horiz-adv-x="993" 
d="M638 1290l-250 -158l-17 9l261 288h59l157 -288l-19 -9zM963 578h-713q-22 -88 -22 -163q0 -354 282 -354q97 0 192.5 43.5t156.5 116.5l13 -9q-70 -115 -182.5 -175.5t-251.5 -60.5q-169 0 -267 110t-98 292q0 135 46 255.5t123 205t181 133.5t216 49q160 0 246.5 -94
t86.5 -247q0 -50 -9 -102zM628 990q-71 0 -133.5 -34t-108 -92t-78 -124.5t-52.5 -140.5l567 23q11 68 11 118q0 121 -53.5 185.5t-152.5 64.5z" />
    <glyph glyph-name="edieresis" unicode="&#xeb;" horiz-adv-x="993" 
d="M458 1159q-38 0 -58.5 25t-13.5 62t36 61t67 24q39 0 59 -24t14 -61q-7 -37 -36 -62t-68 -25zM768 1159q-38 0 -58.5 24.5t-13.5 62.5q7 37 36 61t67 24t59 -24t14 -61q-7 -38 -36 -62.5t-68 -24.5zM963 578h-713q-22 -88 -22 -163q0 -354 282 -354q97 0 192.5 43.5
t156.5 116.5l13 -9q-70 -115 -182.5 -175.5t-251.5 -60.5q-169 0 -267 110t-98 292q0 135 46 255.5t123 205t181 133.5t216 49q160 0 246.5 -94t86.5 -247q0 -50 -9 -102zM628 990q-71 0 -133.5 -34t-108 -92t-78 -124.5t-52.5 -140.5l567 23q11 68 11 118
q0 121 -53.5 185.5t-152.5 64.5z" />
    <glyph glyph-name="igrave" unicode="&#xec;" horiz-adv-x="503" 
d="M407 1148l-237 220l8 11h180l64 -231h-15zM223 -24q-48 0 -72.5 21t-32 78t13.5 158l120 663l-149 41l4 20l292 64l10 -11l-143 -810q-16 -92 -13.5 -123.5t26.5 -31.5q33 0 78 28.5t90 86.5l14 -13q-61 -90 -117 -130.5t-121 -40.5z" />
    <glyph glyph-name="iacute" unicode="&#xed;" horiz-adv-x="503" 
d="M271 1148l146 231h180l4 -11l-315 -220h-15zM223 -24q-48 0 -72.5 21t-32 78t13.5 158l120 663l-149 41l4 20l292 64l10 -11l-143 -810q-16 -92 -13.5 -123.5t26.5 -31.5q33 0 78 28.5t90 86.5l14 -13q-61 -90 -117 -130.5t-121 -40.5z" />
    <glyph glyph-name="icircumflex" unicode="&#xee;" horiz-adv-x="503" 
d="M123 1132l-17 9l261 288h59l157 -288l-19 -9l-191 158zM223 -24q-48 0 -72.5 21t-32 78t13.5 158l120 663l-149 41l4 20l292 64l10 -11l-143 -810q-16 -92 -13.5 -123.5t26.5 -31.5q33 0 78 28.5t90 86.5l14 -13q-61 -90 -117 -130.5t-121 -40.5z" />
    <glyph glyph-name="idieresis" unicode="&#xef;" horiz-adv-x="503" 
d="M193 1159q-38 0 -58.5 25t-13.5 62t36 61t67 24q39 0 59 -24t14 -61q-7 -37 -36 -62t-68 -25zM503 1159q-38 0 -58.5 24.5t-13.5 62.5q7 37 36 61t67 24t59 -24t14 -61q-7 -38 -36 -62.5t-68 -24.5zM223 -24q-48 0 -72.5 21t-32 78t13.5 158l120 663l-149 41l4 20l292 64
l10 -11l-143 -810q-16 -92 -13.5 -123.5t26.5 -31.5q33 0 78 28.5t90 86.5l14 -13q-61 -90 -117 -130.5t-121 -40.5z" />
    <glyph glyph-name="eth" unicode="&#xf0;" horiz-adv-x="1189" 
d="M495 -24q-189 0 -305 119t-116 318q0 83 25.5 168t77.5 163.5t123 140t169.5 98.5t208.5 37q200 0 297 -143q-11 142 -56 250.5t-133 202.5l-364 -170l-16 36l350 163q-135 122 -349 161l20 33q237 -42 399 -160l283 136l14 -36l-262 -128q128 -114 192.5 -271.5
t64.5 -341.5q0 -112 -24 -221.5t-75 -210t-123 -177t-175.5 -122t-225.5 -45.5zM500 6q91 0 168.5 42.5t128.5 108t87 146t52 155t16 137.5q0 198 -77.5 297t-206.5 99q-76 0 -142.5 -30t-113.5 -80.5t-84.5 -113.5t-60 -131.5t-34 -132t-11.5 -118.5q0 -174 71.5 -276.5
t206.5 -102.5z" />
    <glyph glyph-name="ntilde" unicode="&#xf1;" horiz-adv-x="1177" 
d="M462 1179l-13 4q31 85 80 141t117 56q36 0 105 -50t107 -50q81 0 138 100l11 -4q-28 -84 -78 -140.5t-117 -56.5q-33 0 -71 24.5t-75 49.5t-67 25q-83 0 -137 -99zM897 -24q-71 0 -95.5 46t-4.5 159l92 509q20 113 -8 186t-92 73q-54 0 -126.5 -43t-144 -116.5t-134 -184
t-91.5 -232.5l-64 -367l-139 -11l159 901l-146 41l4 19l289 65l10 -11l-84 -428h5q32 84 112 184.5t186.5 177.5t192.5 77q123 0 179 -88.5t28 -245.5l-97 -559q-8 -39 -2.5 -61t28.5 -22q33 0 78 28.5t89 86.5l14 -13q-61 -90 -117 -130.5t-121 -40.5z" />
    <glyph glyph-name="ograve" unicode="&#xf2;" horiz-adv-x="1163" 
d="M757 1148l-237 220l8 11h180l64 -231h-15zM496 -24q-187 0 -303.5 122t-116.5 314q0 126 50 239.5t132.5 194t193 128t228.5 47.5q189 0 305.5 -123t116.5 -315q0 -168 -83.5 -308.5t-222.5 -219.5t-300 -79zM502 6q121 0 223.5 79.5t163 219.5t60.5 308q0 170 -73.5 274
t-200.5 104q-120 0 -223 -80.5t-164 -222t-61 -311.5q0 -167 73.5 -269t201.5 -102z" />
    <glyph glyph-name="oacute" unicode="&#xf3;" horiz-adv-x="1163" 
d="M621 1148l146 231h180l4 -11l-315 -220h-15zM496 -24q-187 0 -303.5 122t-116.5 314q0 126 50 239.5t132.5 194t193 128t228.5 47.5q189 0 305.5 -123t116.5 -315q0 -168 -83.5 -308.5t-222.5 -219.5t-300 -79zM502 6q121 0 223.5 79.5t163 219.5t60.5 308
q0 170 -73.5 274t-200.5 104q-120 0 -223 -80.5t-164 -222t-61 -311.5q0 -167 73.5 -269t201.5 -102z" />
    <glyph glyph-name="ocircumflex" unicode="&#xf4;" horiz-adv-x="1163" 
d="M473 1132l-17 9l261 288h59l157 -288l-19 -9l-191 158zM496 -24q-187 0 -303.5 122t-116.5 314q0 126 50 239.5t132.5 194t193 128t228.5 47.5q189 0 305.5 -123t116.5 -315q0 -168 -83.5 -308.5t-222.5 -219.5t-300 -79zM502 6q121 0 223.5 79.5t163 219.5t60.5 308
q0 170 -73.5 274t-200.5 104q-120 0 -223 -80.5t-164 -222t-61 -311.5q0 -167 73.5 -269t201.5 -102z" />
    <glyph glyph-name="otilde" unicode="&#xf5;" horiz-adv-x="1163" 
d="M455 1179l-13 4q31 85 80 141t117 56q36 0 105 -50t107 -50q81 0 138 100l11 -4q-28 -84 -78 -140.5t-117 -56.5q-33 0 -71 24.5t-75 49.5t-67 25q-83 0 -137 -99zM496 -24q-187 0 -303.5 122t-116.5 314q0 126 50 239.5t132.5 194t193 128t228.5 47.5q189 0 305.5 -123
t116.5 -315q0 -168 -83.5 -308.5t-222.5 -219.5t-300 -79zM502 6q121 0 223.5 79.5t163 219.5t60.5 308q0 170 -73.5 274t-200.5 104q-120 0 -223 -80.5t-164 -222t-61 -311.5q0 -167 73.5 -269t201.5 -102z" />
    <glyph glyph-name="odieresis" unicode="&#xf6;" horiz-adv-x="1163" 
d="M543 1159q-38 0 -58.5 25t-13.5 62t36 61t67 24q39 0 59 -24t14 -61q-7 -37 -36 -62t-68 -25zM853 1159q-38 0 -58.5 24.5t-13.5 62.5q7 37 36 61t67 24t59 -24t14 -61q-7 -38 -36 -62.5t-68 -24.5zM496 -24q-187 0 -303.5 122t-116.5 314q0 126 50 239.5t132.5 194
t193 128t228.5 47.5q189 0 305.5 -123t116.5 -315q0 -168 -83.5 -308.5t-222.5 -219.5t-300 -79zM502 6q121 0 223.5 79.5t163 219.5t60.5 308q0 170 -73.5 274t-200.5 104q-120 0 -223 -80.5t-164 -222t-61 -311.5q0 -167 73.5 -269t201.5 -102z" />
    <glyph glyph-name="divide" unicode="&#xf7;" horiz-adv-x="1047" 
d="M555 739q-43 0 -67 28t-17 71t41.5 71t77.5 28q45 0 68 -27.5t15 -71.5t-40.5 -71.5t-77.5 -27.5zM121 511l8 42h808l-8 -42h-808zM448 136q-43 0 -66.5 28t-16.5 71t41 71t77 28q45 0 68.5 -27.5t15.5 -71.5t-40.5 -71.5t-78.5 -27.5z" />
    <glyph glyph-name="oslash" unicode="&#xf8;" horiz-adv-x="1163" 
d="M868 982q110 -50 172 -155.5t62 -243.5q0 -168 -83.5 -308.5t-222.5 -219.5t-300 -79q-83 0 -155 26l-71 -133h-55l82 152q-104 52 -162.5 155t-58.5 236q0 126 50 239.5t132.5 194t193 128t228.5 47.5q78 0 142 -21l70 130h55zM227 377q0 -200 100 -300l473 881
q-57 33 -125 33q-120 0 -223 -80.5t-164 -222t-61 -311.5zM502 6q121 0 223.5 79.5t163 219.5t60.5 308q0 215 -110 316l-474 -883q58 -40 137 -40z" />
    <glyph glyph-name="ugrave" unicode="&#xf9;" horiz-adv-x="1179" 
d="M770 1148l-237 220l8 11h180l64 -231h-15zM353 -24q-123 0 -178.5 88.5t-28.5 245.5l102 586l-146 41l4 19l289 65l10 -11l-20 -127l-104 -577q-20 -113 9.5 -181t100.5 -68q48 0 117.5 42t141 113t135 181t92.5 231l49 272l-146 41l3 19l290 65l10 -11l-23 -126
l-120 -684q-15 -92 -12 -123.5t27 -31.5q33 0 78 28.5t90 86.5l14 -13q-61 -90 -117 -130.5t-121 -40.5q-61 0 -85 35t-16.5 130t51.5 274h-7q-31 -83 -113 -185t-188 -178t-188 -76z" />
    <glyph glyph-name="uacute" unicode="&#xfa;" horiz-adv-x="1179" 
d="M634 1148l146 231h180l4 -11l-315 -220h-15zM353 -24q-123 0 -178.5 88.5t-28.5 245.5l102 586l-146 41l4 19l289 65l10 -11l-20 -127l-104 -577q-20 -113 9.5 -181t100.5 -68q48 0 117.5 42t141 113t135 181t92.5 231l49 272l-146 41l3 19l290 65l10 -11l-23 -126
l-120 -684q-15 -92 -12 -123.5t27 -31.5q33 0 78 28.5t90 86.5l14 -13q-61 -90 -117 -130.5t-121 -40.5q-61 0 -85 35t-16.5 130t51.5 274h-7q-31 -83 -113 -185t-188 -178t-188 -76z" />
    <glyph glyph-name="ucircumflex" unicode="&#xfb;" horiz-adv-x="1179" 
d="M486 1132l-17 9l261 288h59l157 -288l-19 -9l-191 158zM353 -24q-123 0 -178.5 88.5t-28.5 245.5l102 586l-146 41l4 19l289 65l10 -11l-20 -127l-104 -577q-20 -113 9.5 -181t100.5 -68q48 0 117.5 42t141 113t135 181t92.5 231l49 272l-146 41l3 19l290 65l10 -11
l-23 -126l-120 -684q-15 -92 -12 -123.5t27 -31.5q33 0 78 28.5t90 86.5l14 -13q-61 -90 -117 -130.5t-121 -40.5q-61 0 -85 35t-16.5 130t51.5 274h-7q-31 -83 -113 -185t-188 -178t-188 -76z" />
    <glyph glyph-name="udieresis" unicode="&#xfc;" horiz-adv-x="1179" 
d="M556 1159q-38 0 -58.5 25t-13.5 62t36 61t67 24q39 0 59 -24t14 -61q-7 -37 -36 -62t-68 -25zM866 1159q-38 0 -58.5 24.5t-13.5 62.5q7 37 36 61t67 24t59 -24t14 -61q-7 -38 -36 -62.5t-68 -24.5zM353 -24q-123 0 -178.5 88.5t-28.5 245.5l102 586l-146 41l4 19l289 65
l10 -11l-20 -127l-104 -577q-20 -113 9.5 -181t100.5 -68q48 0 117.5 42t141 113t135 181t92.5 231l49 272l-146 41l3 19l290 65l10 -11l-23 -126l-120 -684q-15 -92 -12 -123.5t27 -31.5q33 0 78 28.5t90 86.5l14 -13q-61 -90 -117 -130.5t-121 -40.5q-61 0 -85 35
t-16.5 130t51.5 274h-7q-31 -83 -113 -185t-188 -178t-188 -76z" />
    <glyph glyph-name="yacute" unicode="&#xfd;" horiz-adv-x="909" 
d="M494 1148l146 231h180l4 -11l-315 -220h-15zM-112 -422l-62 177l9 16q117 -16 166 -16q42 0 72 5q66 49 155.5 139.5t140.5 159.5q-36 438 -128 751q-25 84 -42.5 112.5t-40.5 28.5q-44 0 -124 -117l-14 11q54 92 97.5 134t113.5 42q62 0 93 -42t55 -146
q88 -379 103 -652q62 73 110.5 142t91.5 150.5t70.5 139.5t75.5 169l-73 192l3 20h186l-3 -20q-110 -316 -245.5 -542t-351.5 -463q-151 -165 -258.5 -254.5t-199.5 -136.5z" />
    <glyph glyph-name="thorn" unicode="&#xfe;" horiz-adv-x="1140" 
d="M7 -417l312 1789l-145 45l3 22l289 58l10 -11l-163 -903h7q40 101 124 203.5t181 168.5t171 66q63 0 113 -20.5t81 -54.5t51 -80t28 -93.5t8 -99.5q0 -103 -27.5 -203.5t-82 -189.5t-129 -157t-176.5 -107.5t-216 -39.5q-66 0 -126.5 31.5t-88.5 72.5l-86 -486zM474 6
q122 0 226 99t160 248.5t56 306.5q0 134 -35 212.5t-111 78.5q-112 0 -259 -163t-221 -382l-36 -201q24 -100 81.5 -149.5t138.5 -49.5z" />
    <glyph glyph-name="ydieresis" unicode="&#xff;" horiz-adv-x="909" 
d="M416 1159q-38 0 -58.5 25t-13.5 62t36 61t67 24q39 0 59 -24t14 -61q-7 -37 -36 -62t-68 -25zM726 1159q-38 0 -58.5 24.5t-13.5 62.5q7 37 36 61t67 24t59 -24t14 -61q-7 -38 -36 -62.5t-68 -24.5zM-112 -422l-62 177l9 16q117 -16 166 -16q42 0 72 5q66 49 155.5 139.5
t140.5 159.5q-36 438 -128 751q-25 84 -42.5 112.5t-40.5 28.5q-44 0 -124 -117l-14 11q54 92 97.5 134t113.5 42q62 0 93 -42t55 -146q88 -379 103 -652q62 73 110.5 142t91.5 150.5t70.5 139.5t75.5 169l-73 192l3 20h186l-3 -20q-110 -316 -245.5 -542t-351.5 -463
q-151 -165 -258.5 -254.5t-199.5 -136.5z" />
    <glyph glyph-name="Amacron" unicode="&#x100;" horiz-adv-x="1429" 
d="M611 1578l6 37h508l-6 -37h-508zM-83 0l4 20l192 54l655 1245l-69 100l3 20h213l250 -1365l167 -54l-4 -20h-495l4 20l173 54l-72 409h-569l-216 -409l209 -54l-4 -20h-441zM388 521h542l-137 771z" />
    <glyph glyph-name="amacron" unicode="&#x101;" horiz-adv-x="1170" 
d="M455 1229l6 37h508l-6 -37h-508zM355 -24q-126 0 -201.5 101t-75.5 277q0 130 46.5 251.5t126.5 213t195 147t244 55.5q77 0 136 -35t84 -78l163 112h4l-145 -820q-11 -61 -12.5 -95t4.5 -47t21 -13q33 0 78.5 29t90.5 86l14 -13q-62 -90 -118 -130.5t-121 -40.5
q-32 0 -52 8t-35 34.5t-15.5 74t12.5 128t43 194.5h-8q-78 -177 -213 -308t-266 -131zM402 55q50 0 116 40.5t132.5 110t125.5 175.5t90 224l33 168q-11 97 -71 157t-142 60q-122 0 -226 -87t-163.5 -231t-59.5 -309q0 -308 165 -308z" />
    <glyph glyph-name="Abreve" unicode="&#x102;" horiz-adv-x="1429" 
d="M857 1541q-120 0 -175 73.5t-40 169.5l18 5q2 -63 58 -99t159 -36q105 0 174 36t93 99l15 -5q-19 -97 -99 -170t-203 -73zM-83 0l4 20l192 54l655 1245l-69 100l3 20h213l250 -1365l167 -54l-4 -20h-495l4 20l173 54l-72 409h-569l-216 -409l209 -54l-4 -20h-441z
M388 521h542l-137 771z" />
    <glyph glyph-name="abreve" unicode="&#x103;" horiz-adv-x="1170" 
d="M694 1154q-123 0 -175.5 80t-31.5 203l17 5q-3 -91 50 -133t160 -42q220 0 274 175l16 -5q-25 -124 -104.5 -203.5t-205.5 -79.5zM355 -24q-126 0 -201.5 101t-75.5 277q0 130 46.5 251.5t126.5 213t195 147t244 55.5q77 0 136 -35t84 -78l163 112h4l-145 -820
q-11 -61 -12.5 -95t4.5 -47t21 -13q33 0 78.5 29t90.5 86l14 -13q-62 -90 -118 -130.5t-121 -40.5q-32 0 -52 8t-35 34.5t-15.5 74t12.5 128t43 194.5h-8q-78 -177 -213 -308t-266 -131zM402 55q50 0 116 40.5t132.5 110t125.5 175.5t90 224l33 168q-11 97 -71 157t-142 60
q-122 0 -226 -87t-163.5 -231t-59.5 -309q0 -308 165 -308z" />
    <glyph glyph-name="Aogonek" unicode="&#x104;" horiz-adv-x="1429" 
d="M-83 0l4 20l192 54l655 1245l-69 100l3 20h213l250 -1365l167 -54l-4 -20q-190 -131 -217 -280q-19 -105 90 -105q95 0 178 62l8 -11q-127 -115 -256 -115q-78 0 -113.5 38.5t-23.5 105.5q13 76 87 150t208 155h-456l4 20l173 54l-72 409h-569l-216 -409l209 -54l-4 -20
h-441zM793 1292l-405 -771h542z" />
    <glyph glyph-name="aogonek" unicode="&#x105;" horiz-adv-x="1170" 
d="M934 -19q-153 -118 -177 -251q-19 -105 90 -105q95 0 178 62l8 -11q-127 -115 -256 -115q-78 0 -113.5 38.5t-23.5 105.5q22 127 241 271q-38 1 -59 17t-31.5 61t2.5 134t49 227h-8q-78 -177 -213 -308t-266 -131q-126 0 -201.5 101t-75.5 277q0 130 46.5 251.5
t126.5 213t195 147t244 55.5q77 0 136 -35t84 -78l163 112h4l-145 -820q-11 -61 -12.5 -95t4.5 -47t21 -13q33 0 78.5 29t90.5 86l14 -13q-99 -144 -194 -166zM402 55q50 0 116 40.5t132.5 110t125.5 175.5t90 224l33 168q-11 97 -71 157t-142 60q-122 0 -226 -87
t-163.5 -231t-59.5 -309q0 -308 165 -308z" />
    <glyph glyph-name="Cacute" unicode="&#x106;" horiz-adv-x="1317" 
d="M905 1542l87 181h190l4 -11l-266 -170h-15zM673 -24q-204 0 -344.5 95.5t-195.5 264t-17 382.5q28 161 101 298t179.5 236t248.5 154.5t302 55.5q95 0 189.5 -24t219.5 -96l-37 -352h-17q-7 49 -12.5 82.5t-15 74.5t-20 69t-26.5 59.5t-36 52t-47.5 40.5t-60.5 31t-76 18
t-94 7q-121 0 -227.5 -53.5t-186.5 -148.5t-135.5 -223.5t-82.5 -280.5q-30 -156 -15.5 -285.5t63 -223t140 -145t216.5 -51.5q78 0 143 20t115 54t97.5 91t84.5 119.5t80 150.5h17l-87 -352q-151 -72 -256 -96t-207 -24z" />
    <glyph glyph-name="cacute" unicode="&#x107;" horiz-adv-x="979" 
d="M624 1148l146 231h180l4 -11l-315 -220h-15zM443 -24q-168 0 -269.5 109.5t-101.5 290.5q0 139 51.5 261t137.5 205t199 131t235 48q71 0 152 -19.5t137 -41.5l-83 -250h-18q-47 204 -77 262q-57 19 -119 19q-111 0 -199 -46.5t-142.5 -126.5t-82.5 -183t-28 -221
q0 -166 67 -259.5t211 -93.5q95 0 190 43t156 117l14 -9q-73 -116 -184 -176t-246 -60z" />
    <glyph glyph-name="Ccircumflex" unicode="&#x108;" horiz-adv-x="1317" 
d="M726 1533l-17 9l254 248h59l164 -248l-19 -9l-198 118zM673 -24q-204 0 -344.5 95.5t-195.5 264t-17 382.5q28 161 101 298t179.5 236t248.5 154.5t302 55.5q95 0 189.5 -24t219.5 -96l-37 -352h-17q-7 49 -12.5 82.5t-15 74.5t-20 69t-26.5 59.5t-36 52t-47.5 40.5
t-60.5 31t-76 18t-94 7q-121 0 -227.5 -53.5t-186.5 -148.5t-135.5 -223.5t-82.5 -280.5q-30 -156 -15.5 -285.5t63 -223t140 -145t216.5 -51.5q78 0 143 20t115 54t97.5 91t84.5 119.5t80 150.5h17l-87 -352q-151 -72 -256 -96t-207 -24z" />
    <glyph glyph-name="ccircumflex" unicode="&#x109;" horiz-adv-x="979" 
d="M476 1132l-17 9l261 288h59l157 -288l-19 -9l-191 158zM443 -24q-168 0 -269.5 109.5t-101.5 290.5q0 139 51.5 261t137.5 205t199 131t235 48q71 0 152 -19.5t137 -41.5l-83 -250h-18q-47 204 -77 262q-57 19 -119 19q-111 0 -199 -46.5t-142.5 -126.5t-82.5 -183
t-28 -221q0 -166 67 -259.5t211 -93.5q95 0 190 43t156 117l14 -9q-73 -116 -184 -176t-246 -60z" />
    <glyph glyph-name="Cdotaccent" unicode="&#x10a;" horiz-adv-x="1317" 
d="M950 1547q-40 0 -61.5 24t-14.5 63q7 38 37 63t70 25t61 -25t14 -63q-7 -39 -36.5 -63t-69.5 -24zM673 -24q-204 0 -344.5 95.5t-195.5 264t-17 382.5q28 161 101 298t179.5 236t248.5 154.5t302 55.5q95 0 189.5 -24t219.5 -96l-37 -352h-17q-7 49 -12.5 82.5t-15 74.5
t-20 69t-26.5 59.5t-36 52t-47.5 40.5t-60.5 31t-76 18t-94 7q-121 0 -227.5 -53.5t-186.5 -148.5t-135.5 -223.5t-82.5 -280.5q-30 -156 -15.5 -285.5t63 -223t140 -145t216.5 -51.5q78 0 143 20t115 54t97.5 91t84.5 119.5t80 150.5h17l-87 -352q-151 -72 -256 -96
t-207 -24z" />
    <glyph glyph-name="cdotaccent" unicode="&#x10b;" horiz-adv-x="979" 
d="M702 1162q-40 0 -61.5 24t-14.5 63q7 38 37 63t70 25t61 -25t14 -63q-7 -39 -36.5 -63t-69.5 -24zM443 -24q-168 0 -269.5 109.5t-101.5 290.5q0 139 51.5 261t137.5 205t199 131t235 48q71 0 152 -19.5t137 -41.5l-83 -250h-18q-47 204 -77 262q-57 19 -119 19
q-111 0 -199 -46.5t-142.5 -126.5t-82.5 -183t-28 -221q0 -166 67 -259.5t211 -93.5q95 0 190 43t156 117l14 -9q-73 -116 -184 -176t-246 -60z" />
    <glyph glyph-name="Ccaron" unicode="&#x10c;" horiz-adv-x="1317" 
d="M917 1533l-166 248l21 9l201 -118l240 118l15 -9l-252 -248h-59zM673 -24q-204 0 -344.5 95.5t-195.5 264t-17 382.5q28 161 101 298t179.5 236t248.5 154.5t302 55.5q95 0 189.5 -24t219.5 -96l-37 -352h-17q-7 49 -12.5 82.5t-15 74.5t-20 69t-26.5 59.5t-36 52
t-47.5 40.5t-60.5 31t-76 18t-94 7q-121 0 -227.5 -53.5t-186.5 -148.5t-135.5 -223.5t-82.5 -280.5q-30 -156 -15.5 -285.5t63 -223t140 -145t216.5 -51.5q78 0 143 20t115 54t97.5 91t84.5 119.5t80 150.5h17l-87 -352q-151 -72 -256 -96t-207 -24z" />
    <glyph glyph-name="ccaron" unicode="&#x10d;" horiz-adv-x="979" 
d="M668 1142l-159 288l21 9l194 -158l247 158l15 -9l-259 -288h-59zM443 -24q-168 0 -269.5 109.5t-101.5 290.5q0 139 51.5 261t137.5 205t199 131t235 48q71 0 152 -19.5t137 -41.5l-83 -250h-18q-47 204 -77 262q-57 19 -119 19q-111 0 -199 -46.5t-142.5 -126.5
t-82.5 -183t-28 -221q0 -166 67 -259.5t211 -93.5q95 0 190 43t156 117l14 -9q-73 -116 -184 -176t-246 -60z" />
    <glyph glyph-name="Dcaron" unicode="&#x10e;" horiz-adv-x="1422" 
d="M864 1533l-166 248l21 9l201 -118l240 118l15 -9l-252 -248h-59zM-49 0l4 20l187 53l228 1294l-163 52l3 20h636q308 0 453 -191t85 -527q-59 -338 -274.5 -529.5t-534.5 -191.5h-624zM282 38h270q276 0 441.5 171.5t222.5 498.5q61 342 -42.5 517.5t-362.5 175.5h-289z
" />
    <glyph glyph-name="dcaron" unicode="&#x10f;" horiz-adv-x="1203" 
d="M355 -24q-126 0 -201.5 101t-75.5 277q0 174 78.5 326.5t220.5 246.5t314 94q79 0 142.5 -39t83.5 -91l86 479l-148 45l4 21l292 61l10 -13l-228 -1283q-8 -46 -11.5 -76t-1.5 -48t8 -25t17 -7q34 0 79 28.5t90 86.5l14 -13q-61 -90 -117 -130.5t-121 -40.5q-32 0 -52 8
t-35.5 34t-16 73t12.5 128t43 196h-7q-76 -175 -215 -307t-265 -132zM1258 1205l-13 266l9 15h132l3 -15l-106 -266h-25zM395 55q40 0 91.5 24.5t111 79t114 130.5t102.5 190.5t74 247.5l9 46q-12 98 -70.5 157.5t-139.5 59.5q-123 0 -227 -87t-163 -231t-59 -309
q0 -149 40 -228.5t117 -79.5z" />
    <glyph glyph-name="Dcroat" unicode="&#x110;" horiz-adv-x="1422" 
d="M846 1439q308 0 453 -191t85 -527q-59 -338 -274.5 -529.5t-534.5 -191.5h-624l4 20l187 53l111 628h-171l6 38h171l111 628l-163 52l3 20h636zM1216 708q61 342 -42.5 517.5t-362.5 175.5h-289l-117 -662h181l-6 -38h-181l-117 -663h270q276 0 441.5 171.5t222.5 498.5z
" />
    <glyph glyph-name="dcroat" unicode="&#x111;" horiz-adv-x="1170" 
d="M355 -24q-126 0 -201.5 101t-75.5 277q0 174 78.5 326.5t220.5 246.5t314 94q79 0 142.5 -39t83.5 -91l47 259h-103l6 37h103l33 183l-148 45l4 21l292 61l10 -13l-53 -297h107l-6 -37h-107l-169 -949q-8 -46 -11.5 -76t-1.5 -48t8 -25t17 -7q34 0 79 28.5t90 86.5
l14 -13q-61 -90 -117 -130.5t-121 -40.5q-32 0 -52 8t-35.5 34t-16 73t12.5 128t43 196h-7q-76 -175 -215 -307t-265 -132zM238 363q0 -149 40 -228.5t117 -79.5q40 0 91.5 24.5t111 79t114 130.5t102.5 190.5t74 247.5l9 46q-12 98 -70.5 157.5t-139.5 59.5
q-123 0 -227 -87t-163 -231t-59 -309z" />
    <glyph glyph-name="Emacron" unicode="&#x112;" horiz-adv-x="1166" 
d="M519 1578l6 37h508l-6 -37h-508zM-49 0l4 20l187 53l228 1292l-168 54l3 20h979l-62 -351h-8l-78 313h-514l-113 -644h340l124 189h16l-73 -414h-16l-58 187h-340l-120 -681h588l242 315l8 -2l-117 -351h-1052z" />
    <glyph glyph-name="emacron" unicode="&#x113;" horiz-adv-x="993" 
d="M886 1266l-6 -37h-508l6 37h508zM963 578h-713q-22 -88 -22 -163q0 -354 282 -354q97 0 192.5 43.5t156.5 116.5l13 -9q-70 -115 -182.5 -175.5t-251.5 -60.5q-169 0 -267 110t-98 292q0 135 46 255.5t123 205t181 133.5t216 49q160 0 246.5 -94t86.5 -247q0 -50 -9 -102
zM628 990q-71 0 -133.5 -34t-108 -92t-78 -124.5t-52.5 -140.5l567 23q11 68 11 118q0 121 -53.5 185.5t-152.5 64.5z" />
    <glyph glyph-name="Ebreve" unicode="&#x114;" horiz-adv-x="1166" 
d="M765 1541q-120 0 -175 73.5t-40 169.5l18 5q2 -63 58 -99t159 -36q105 0 174 36t93 99l15 -5q-19 -97 -99 -170t-203 -73zM-49 0l4 20l187 53l228 1292l-168 54l3 20h979l-62 -351h-8l-78 313h-514l-113 -644h340l124 189h16l-73 -414h-16l-58 187h-340l-120 -681h588
l242 315l8 -2l-117 -351h-1052z" />
    <glyph glyph-name="ebreve" unicode="&#x115;" horiz-adv-x="993" 
d="M611 1154q-123 0 -175.5 80t-31.5 203l17 5q-3 -91 50 -133t160 -42q220 0 274 175l16 -5q-25 -124 -104.5 -203.5t-205.5 -79.5zM963 578h-713q-22 -88 -22 -163q0 -354 282 -354q97 0 192.5 43.5t156.5 116.5l13 -9q-70 -115 -182.5 -175.5t-251.5 -60.5
q-169 0 -267 110t-98 292q0 135 46 255.5t123 205t181 133.5t216 49q160 0 246.5 -94t86.5 -247q0 -50 -9 -102zM628 990q-71 0 -133.5 -34t-108 -92t-78 -124.5t-52.5 -140.5l567 23q11 68 11 118q0 121 -53.5 185.5t-152.5 64.5z" />
    <glyph glyph-name="Edotaccent" unicode="&#x116;" horiz-adv-x="1166" 
d="M768 1547q-40 0 -61.5 24t-14.5 63q7 38 37 63t70 25t61 -25t14 -63q-7 -39 -36.5 -63t-69.5 -24zM-49 0l4 20l187 53l228 1292l-168 54l3 20h979l-62 -351h-8l-78 313h-514l-113 -644h340l124 189h16l-73 -414h-16l-58 187h-340l-120 -681h588l242 315l8 -2l-117 -351
h-1052z" />
    <glyph glyph-name="edotaccent" unicode="&#x117;" horiz-adv-x="993" 
d="M614 1162q-40 0 -61.5 24t-14.5 63q7 38 37 63t70 25t61 -25t14 -63q-7 -39 -36.5 -63t-69.5 -24zM963 578h-713q-22 -88 -22 -163q0 -354 282 -354q97 0 192.5 43.5t156.5 116.5l13 -9q-70 -115 -182.5 -175.5t-251.5 -60.5q-169 0 -267 110t-98 292q0 135 46 255.5
t123 205t181 133.5t216 49q160 0 246.5 -94t86.5 -247q0 -50 -9 -102zM628 990q-71 0 -133.5 -34t-108 -92t-78 -124.5t-52.5 -140.5l567 23q11 68 11 118q0 121 -53.5 185.5t-152.5 64.5z" />
    <glyph glyph-name="Eogonek" unicode="&#x118;" horiz-adv-x="1166" 
d="M-49 0l4 20l187 53l228 1292l-168 54l3 20h979l-62 -351h-8l-78 313h-514l-113 -644h340l124 189h16l-73 -414h-16l-58 187h-340l-120 -681h588l242 315l8 -2l-117 -351q-190 -131 -217 -280q-19 -105 90 -105q95 0 178 62l8 -11q-127 -115 -256 -115q-78 0 -113.5 38.5
t-23.5 105.5q13 76 87 150t208 155h-1013z" />
    <glyph glyph-name="eogonek" unicode="&#x119;" horiz-adv-x="993" 
d="M963 578h-713q-22 -88 -22 -163q0 -354 282 -354q97 0 192.5 43.5t156.5 116.5l13 -9q-70 -116 -184 -176q-188 -131 -215 -279q-19 -105 90 -105q95 0 178 62l8 -11q-127 -115 -256 -115q-78 0 -113.5 38.5t-23.5 105.5q22 124 229 263q-67 -19 -147 -19
q-169 0 -267 110t-98 292q0 135 46 255.5t123 205t181 133.5t216 49q160 0 246.5 -94t86.5 -247q0 -50 -9 -102zM628 990q-71 0 -133.5 -34t-108 -92t-78 -124.5t-52.5 -140.5l567 23q11 68 11 118q0 121 -53.5 185.5t-152.5 64.5z" />
    <glyph glyph-name="Ecaron" unicode="&#x11a;" horiz-adv-x="1166" 
d="M735 1533l-166 248l21 9l201 -118l240 118l15 -9l-252 -248h-59zM-49 0l4 20l187 53l228 1292l-168 54l3 20h979l-62 -351h-8l-78 313h-514l-113 -644h340l124 189h16l-73 -414h-16l-58 187h-340l-120 -681h588l242 315l8 -2l-117 -351h-1052z" />
    <glyph glyph-name="ecaron" unicode="&#x11b;" horiz-adv-x="993" 
d="M639 1142h-59l-159 288l21 9l194 -158l247 158l15 -9zM963 578h-713q-22 -88 -22 -163q0 -354 282 -354q97 0 192.5 43.5t156.5 116.5l13 -9q-70 -115 -182.5 -175.5t-251.5 -60.5q-169 0 -267 110t-98 292q0 135 46 255.5t123 205t181 133.5t216 49q160 0 246.5 -94
t86.5 -247q0 -50 -9 -102zM628 990q-71 0 -133.5 -34t-108 -92t-78 -124.5t-52.5 -140.5l567 23q11 68 11 118q0 121 -53.5 185.5t-152.5 64.5z" />
    <glyph glyph-name="Gcircumflex" unicode="&#x11c;" horiz-adv-x="1376" 
d="M729 1533l-17 9l254 248h59l164 -248l-19 -9l-198 118zM687 -24q-214 0 -357.5 96t-197.5 263.5t-16 382.5q28 161 99.5 296.5t178 235.5t253 156t316.5 56q182 0 394 -120l-38 -352h-17q-6 47 -11.5 80.5t-14.5 74t-19.5 69t-26.5 60t-35.5 52.5t-46.5 41t-59.5 32
t-74.5 19t-92 7q-109 0 -204.5 -39.5t-165.5 -106.5t-125.5 -158.5t-90 -192t-54.5 -211.5q-20 -125 -19 -232.5t32.5 -195t87.5 -148.5t146 -94.5t207 -33.5q64 0 142.5 29t139 76.5t69.5 95.5l61 348l-198 83l2 11h350l-87 -492q-142 -99 -263 -143.5t-265 -44.5z" />
    <glyph glyph-name="gcircumflex" unicode="&#x11d;" horiz-adv-x="1105" 
d="M424 1132l-17 9l261 288h59l157 -288l-19 -9l-191 158zM299 -441q-71 0 -149.5 19.5t-131.5 41.5l82 211h18q17 -133 55 -215q72 -27 139 -27q86 0 158 35.5t123.5 94t92.5 142t66.5 170t43.5 187.5l44 197h-8q-76 -174 -214.5 -306.5t-264.5 -132.5q-127 0 -202 97
t-75 272q0 129 46.5 252t126.5 216.5t195 150.5t244 57q77 0 136 -35t84 -78l163 112h4l-142 -818q-35 -202 -130 -349.5t-224.5 -220.5t-279.5 -73zM400 55q48 0 115.5 41.5t138 114.5t132.5 194t90 261l21 107q-11 97 -71 157t-142 60q-122 0 -226 -89.5t-163.5 -236
t-59.5 -310.5q0 -147 43 -223t122 -76z" />
    <glyph glyph-name="Gbreve" unicode="&#x11e;" horiz-adv-x="1376" 
d="M950 1541q-120 0 -175 73.5t-40 169.5l18 5q2 -63 58 -99t159 -36q105 0 174 36t93 99l15 -5q-19 -97 -99 -170t-203 -73zM687 -24q-214 0 -357.5 96t-197.5 263.5t-16 382.5q28 161 99.5 296.5t178 235.5t253 156t316.5 56q182 0 394 -120l-38 -352h-17
q-6 47 -11.5 80.5t-14.5 74t-19.5 69t-26.5 60t-35.5 52.5t-46.5 41t-59.5 32t-74.5 19t-92 7q-109 0 -204.5 -39.5t-165.5 -106.5t-125.5 -158.5t-90 -192t-54.5 -211.5q-20 -125 -19 -232.5t32.5 -195t87.5 -148.5t146 -94.5t207 -33.5q64 0 142.5 29t139 76.5t69.5 95.5
l61 348l-198 83l2 11h350l-87 -492q-142 -99 -263 -143.5t-265 -44.5z" />
    <glyph glyph-name="gbreve" unicode="&#x11f;" horiz-adv-x="1105" 
d="M647 1154q-123 0 -175.5 80t-31.5 203l17 5q-3 -91 50 -133t160 -42q220 0 274 175l16 -5q-25 -124 -104.5 -203.5t-205.5 -79.5zM299 -441q-71 0 -149.5 19.5t-131.5 41.5l82 211h18q17 -133 55 -215q72 -27 139 -27q86 0 158 35.5t123.5 94t92.5 142t66.5 170
t43.5 187.5l44 197h-8q-76 -174 -214.5 -306.5t-264.5 -132.5q-127 0 -202 97t-75 272q0 129 46.5 252t126.5 216.5t195 150.5t244 57q77 0 136 -35t84 -78l163 112h4l-142 -818q-35 -202 -130 -349.5t-224.5 -220.5t-279.5 -73zM400 55q48 0 115.5 41.5t138 114.5
t132.5 194t90 261l21 107q-11 97 -71 157t-142 60q-122 0 -226 -89.5t-163.5 -236t-59.5 -310.5q0 -147 43 -223t122 -76z" />
    <glyph glyph-name="Gdotaccent" unicode="&#x120;" horiz-adv-x="1376" 
d="M953 1547q-40 0 -61.5 24t-14.5 63q7 38 37 63t70 25t61 -25t14 -63q-7 -39 -36.5 -63t-69.5 -24zM687 -24q-214 0 -357.5 96t-197.5 263.5t-16 382.5q28 161 99.5 296.5t178 235.5t253 156t316.5 56q182 0 394 -120l-38 -352h-17q-6 47 -11.5 80.5t-14.5 74t-19.5 69
t-26.5 60t-35.5 52.5t-46.5 41t-59.5 32t-74.5 19t-92 7q-109 0 -204.5 -39.5t-165.5 -106.5t-125.5 -158.5t-90 -192t-54.5 -211.5q-20 -125 -19 -232.5t32.5 -195t87.5 -148.5t146 -94.5t207 -33.5q64 0 142.5 29t139 76.5t69.5 95.5l61 348l-198 83l2 11h350l-87 -492
q-142 -99 -263 -143.5t-265 -44.5z" />
    <glyph glyph-name="gdotaccent" unicode="&#x121;" horiz-adv-x="1105" 
d="M650 1162q-40 0 -61.5 24t-14.5 63q7 38 37 63t70 25t61 -25t14 -63q-7 -39 -36.5 -63t-69.5 -24zM299 -441q-71 0 -149.5 19.5t-131.5 41.5l82 211h18q17 -133 55 -215q72 -27 139 -27q86 0 158 35.5t123.5 94t92.5 142t66.5 170t43.5 187.5l44 197h-8
q-76 -174 -214.5 -306.5t-264.5 -132.5q-127 0 -202 97t-75 272q0 129 46.5 252t126.5 216.5t195 150.5t244 57q77 0 136 -35t84 -78l163 112h4l-142 -818q-35 -202 -130 -349.5t-224.5 -220.5t-279.5 -73zM400 55q48 0 115.5 41.5t138 114.5t132.5 194t90 261l21 107
q-11 97 -71 157t-142 60q-122 0 -226 -89.5t-163.5 -236t-59.5 -310.5q0 -147 43 -223t122 -76z" />
    <glyph glyph-name="uni0122" unicode="&#x122;" horiz-adv-x="1376" 
d="M687 -24q-214 0 -357.5 96t-197.5 263.5t-16 382.5q28 161 99.5 296.5t178 235.5t253 156t316.5 56q182 0 394 -120l-38 -352h-17q-6 47 -11.5 80.5t-14.5 74t-19.5 69t-26.5 60t-35.5 52.5t-46.5 41t-59.5 32t-74.5 19t-92 7q-109 0 -204.5 -39.5t-165.5 -106.5
t-125.5 -158.5t-90 -192t-54.5 -211.5q-20 -125 -19 -232.5t32.5 -195t87.5 -148.5t146 -94.5t207 -33.5q64 0 142.5 29t139 76.5t69.5 95.5l61 348l-198 83l2 11h350l-87 -492q-142 -99 -263 -143.5t-265 -44.5zM528 -418l-4 10q64 55 72 97q9 57 -47 110l168 101
q31 -60 22 -112q-12 -67 -75 -123.5t-136 -82.5z" />
    <glyph glyph-name="uni0123" unicode="&#x123;" horiz-adv-x="1105" 
d="M587 1110q-31 60 -22 112q12 67 75 123.5t136 82.5l3 -10q-63 -56 -71 -97q-9 -57 47 -110zM299 -441q-71 0 -149.5 19.5t-131.5 41.5l82 211h18q17 -133 55 -215q72 -27 139 -27q86 0 158 35.5t123.5 94t92.5 142t66.5 170t43.5 187.5l44 197h-8q-76 -174 -214.5 -306.5
t-264.5 -132.5q-127 0 -202 97t-75 272q0 129 46.5 252t126.5 216.5t195 150.5t244 57q77 0 136 -35t84 -78l163 112h4l-142 -818q-35 -202 -130 -349.5t-224.5 -220.5t-279.5 -73zM400 55q48 0 115.5 41.5t138 114.5t132.5 194t90 261l21 107q-11 97 -71 157t-142 60
q-122 0 -226 -89.5t-163.5 -236t-59.5 -310.5q0 -147 43 -223t122 -76z" />
    <glyph glyph-name="Hcircumflex" unicode="&#x124;" horiz-adv-x="1505" 
d="M714 1533l-17 9l254 248h59l164 -248l-19 -9l-198 118zM-49 0l4 20l187 53l228 1292l-168 54l3 20h503l-3 -20l-189 -54l-107 -609h779l107 609l-168 54l3 20h503l-3 -20l-189 -54l-228 -1291l170 -54l-4 -20h-503l4 20l187 53l114 645h-779l-114 -644l170 -54l-4 -20
h-503z" />
    <glyph glyph-name="hcircumflex" unicode="&#x125;" horiz-adv-x="1165" 
d="M185 1580l-17 9l254 248h59l164 -248l-19 -9l-198 118zM885 -24q-48 0 -72.5 21t-32 78t13.5 158l83 456q20 114 -10 187t-100 73q-51 0 -121 -43t-140.5 -116t-133 -184.5t-91.5 -232.5l-65 -373h-137l243 1372l-149 42l4 19l292 64l10 -11l-138 -776l-31 -127l5 -1
q23 61 77 137t121.5 143.5t147 113t145.5 45.5q122 0 178.5 -89t28.5 -246l-85 -486q-16 -92 -13 -123.5t27 -31.5q33 0 78 28.5t89 86.5l14 -13q-61 -90 -117 -130.5t-121 -40.5z" />
    <glyph glyph-name="Hbar" unicode="&#x126;" horiz-adv-x="1505" 
d="M1130 1439h503l-3 -20l-189 -54l-228 -1291l170 -54l-4 -20h-503l4 20l187 53l114 645h-779l-114 -644l170 -54l-4 -20h-503l4 20l187 53l228 1292l-168 54l3 20h503l-3 -20l-189 -54l-53 -302h779l53 302l-168 54zM1188 756l47 270h-779l-47 -270h779z" />
    <glyph glyph-name="hbar" unicode="&#x127;" horiz-adv-x="1165" 
d="M1109 160l14 -13q-61 -90 -117 -130.5t-121 -40.5q-48 0 -72.5 21t-32 78t13.5 158l83 456q20 114 -10 187t-100 73q-51 0 -121 -43t-140.5 -116t-133 -184.5t-91.5 -232.5l-65 -373h-137l204 1154h-98l6 37h99l32 181l-149 42l4 19l292 64l10 -11l-53 -295h113l-6 -37
h-113l-79 -444l-31 -127l5 -1q23 61 77 137t121.5 143.5t147 113t145.5 45.5q122 0 178.5 -89t28.5 -246l-85 -486q-16 -92 -13 -123.5t27 -31.5q33 0 78 28.5t89 86.5z" />
    <glyph glyph-name="Itilde" unicode="&#x128;" horiz-adv-x="580" 
d="M226 1538l-13 4q31 85 80 141t117 56q36 0 105 -50t107 -50q81 0 138 100l11 -4q-28 -84 -78 -140.5t-117 -56.5q-33 0 -71 25t-75 49.5t-67 24.5q-83 0 -137 -99zM-49 0l4 20l187 53l228 1292l-168 54l3 20h503l-3 -20l-189 -54l-228 -1291l170 -54l-4 -20h-503z" />
    <glyph glyph-name="itilde" unicode="&#x129;" horiz-adv-x="503" 
d="M105 1179l-13 4q31 85 80 141t117 56q36 0 105 -50t107 -50q81 0 138 100l11 -4q-28 -84 -78 -140.5t-117 -56.5q-33 0 -71 24.5t-75 49.5t-67 25q-83 0 -137 -99zM223 -24q-48 0 -72.5 21t-32 78t13.5 158l120 663l-149 41l4 20l292 64l10 -11l-143 -810
q-16 -92 -13.5 -123.5t26.5 -31.5q33 0 78 28.5t90 86.5l14 -13q-61 -90 -117 -130.5t-121 -40.5z" />
    <glyph glyph-name="Imacron" unicode="&#x12a;" horiz-adv-x="580" 
d="M226 1578l6 37h508l-6 -37h-508zM-49 0l4 20l187 53l228 1292l-168 54l3 20h503l-3 -20l-189 -54l-228 -1291l170 -54l-4 -20h-503z" />
    <glyph glyph-name="imacron" unicode="&#x12b;" horiz-adv-x="503" 
d="M107 1229l6 37h508l-6 -37h-508zM223 -24q-48 0 -72.5 21t-32 78t13.5 158l120 663l-149 41l4 20l292 64l10 -11l-143 -810q-16 -92 -13.5 -123.5t26.5 -31.5q33 0 78 28.5t90 86.5l14 -13q-61 -90 -117 -130.5t-121 -40.5z" />
    <glyph glyph-name="Ibreve" unicode="&#x12c;" horiz-adv-x="580" 
d="M472 1541q-120 0 -175 73.5t-40 169.5l18 5q2 -63 58 -99t159 -36q105 0 174 36t93 99l15 -5q-19 -97 -99 -170t-203 -73zM-49 0l4 20l187 53l228 1292l-168 54l3 20h503l-3 -20l-189 -54l-228 -1291l170 -54l-4 -20h-503z" />
    <glyph glyph-name="ibreve" unicode="&#x12d;" horiz-adv-x="503" 
d="M346 1154q-123 0 -175.5 80t-31.5 203l17 5q-3 -91 50 -133t160 -42q220 0 274 175l16 -5q-25 -124 -104.5 -203.5t-205.5 -79.5zM223 -24q-48 0 -72.5 21t-32 78t13.5 158l120 663l-149 41l4 20l292 64l10 -11l-143 -810q-16 -92 -13.5 -123.5t26.5 -31.5q33 0 78 28.5
t90 86.5l14 -13q-61 -90 -117 -130.5t-121 -40.5z" />
    <glyph glyph-name="Iogonek" unicode="&#x12e;" horiz-adv-x="580" 
d="M37 -449q-78 0 -113.5 38.5t-23.5 105.5q13 76 87 150t208 155h-244l4 20l187 53l228 1292l-168 54l3 20h503l-3 -20l-189 -54l-228 -1291l170 -54l-4 -20h-220q-190 -131 -217 -280q-19 -105 90 -105q95 0 178 62l8 -11q-127 -115 -256 -115z" />
    <glyph glyph-name="iogonek" unicode="&#x12f;" horiz-adv-x="503" 
d="M391 1428q40 0 61 -25.5t14 -63.5q-7 -39 -36.5 -63.5t-69.5 -24.5q-39 0 -60.5 24.5t-14.5 63.5q7 38 37 63.5t69 25.5zM461 147q-56 -83 -127 -137q-178 -127 -203 -270q-19 -105 90 -105q95 0 178 62l8 -11q-127 -115 -256 -115q-78 0 -113.5 38.5t-23.5 105.5
q22 124 227 262q-6 -1 -18 -1q-48 0 -72.5 21t-32 78t13.5 158l120 663l-149 41l4 20l292 64l10 -11l-143 -810q-16 -92 -13.5 -123.5t26.5 -31.5q33 0 78 28.5t90 86.5z" />
    <glyph glyph-name="Idotaccent" unicode="&#x130;" horiz-adv-x="580" 
d="M475 1547q-40 0 -61.5 24t-14.5 63q7 38 37 63t70 25t61 -25t14 -63q-7 -39 -36.5 -63t-69.5 -24zM-49 0l4 20l187 53l228 1292l-168 54l3 20h503l-3 -20l-189 -54l-228 -1291l170 -54l-4 -20h-503z" />
    <glyph glyph-name="dotlessi" unicode="&#x131;" horiz-adv-x="503" 
d="M223 -24q-48 0 -72.5 21t-32 78t13.5 158l120 663l-149 41l4 20l292 64l10 -11l-143 -810q-16 -92 -13.5 -123.5t26.5 -31.5q33 0 78 28.5t90 86.5l14 -13q-61 -90 -117 -130.5t-121 -40.5z" />
    <glyph glyph-name="IJ" unicode="&#x132;" horiz-adv-x="1526" 
d="M-49 0l4 20l187 53l228 1292l-168 54l3 20h503l-3 -20l-189 -54l-228 -1291l170 -54l-4 -20h-503zM888 -24q-79 0 -155 28t-120 69l39 375h19q1 -52 17 -123t43.5 -142t71.5 -120t94 -49q102 0 162.5 94.5t92.5 277.5l173 979l-191 54l3 20h524l-3 -20l-187 -54
l-189 -1072q-25 -141 -138 -229t-256 -88z" />
    <glyph glyph-name="ij" unicode="&#x133;" horiz-adv-x="1036" 
d="M360 1251q-39 0 -60.5 24.5t-14.5 63.5q7 38 37 63.5t69 25.5q40 0 61 -25.5t14 -63.5q-7 -39 -36.5 -63.5t-69.5 -24.5zM898 1251q-39 0 -60.5 24.5t-14.5 63.5q7 38 37 63.5t69 25.5q40 0 61 -25.5t14 -63.5q-7 -39 -36.5 -63.5t-69.5 -24.5zM223 -24q-48 0 -72.5 21
t-32 78t13.5 158l120 663l-149 41l4 20l292 64l10 -11l-143 -810q-16 -92 -13.5 -123.5t26.5 -31.5q33 0 78 28.5t90 86.5l14 -13q-61 -90 -117 -130.5t-121 -40.5zM416 -415l-3 16q180 121 217 335l170 960l-145 41l4 19l288 65l10 -11l-163 -924q-76 -433 -378 -501z" />
    <glyph glyph-name="Jcircumflex" unicode="&#x134;" horiz-adv-x="946" 
d="M624 1533l-17 9l254 248h59l164 -248l-19 -9l-198 118zM308 -24q-79 0 -155 28t-120 69l39 375h19q1 -52 17 -123t43.5 -142t71.5 -120t94 -49q102 0 162.5 94.5t92.5 277.5l173 979l-191 54l3 20h524l-3 -20l-187 -54l-189 -1072q-25 -141 -138 -229t-256 -88z" />
    <glyph glyph-name="jcircumflex" unicode="&#x135;" horiz-adv-x="533" 
d="M158 1132l-17 9l261 288h59l157 -288l-19 -9l-191 158zM-87 -415l-3 16q180 121 217 335l170 960l-145 41l4 19l288 65l10 -11l-163 -924q-76 -433 -378 -501z" />
    <glyph glyph-name="uni0136" unicode="&#x136;" horiz-adv-x="1344" 
d="M-49 0l4 20l187 53l228 1292l-168 54l3 20h503l-3 -20l-189 -54l-228 -1291l170 -54l-4 -20h-503zM915 0l-433 737l697 620l-259 62l3 20h499l-3 -20l-176 -54l-621 -552l433 -739l157 -44l-6 -30h-291zM447 -418l-4 10q64 55 72 97q9 57 -47 110l168 101q31 -60 22 -112
q-12 -67 -75 -123.5t-136 -82.5z" />
    <glyph glyph-name="uni0137" unicode="&#x137;" horiz-adv-x="978" 
d="M761 45q30 0 77 29t95 86l13 -13q-64 -90 -119 -130.5t-124 -40.5q-125 0 -181 205q-51 186 -105 390q-79 -124 -151 -269l-52 -302h-137l242 1372l-146 44l4 22l289 59l10 -11l-167 -953l-36 -133h10q32 78 78 161t107.5 165.5t127.5 147.5t142 105.5t147 40.5
q52 0 97 -31l-83 -238l-18 -2l-78 205q-122 -20 -292 -245q16 -60 42 -163.5t47 -182.5t41 -148q50 -170 120 -170zM255 -201l168 101q31 -60 22 -112q-12 -67 -75 -123.5t-136 -82.5l-4 10q64 55 72 97q9 57 -47 110z" />
    <glyph glyph-name="kgreenlandic" unicode="&#x138;" horiz-adv-x="991" 
d="M774 45q30 0 77 29t95 86l13 -13q-64 -90 -119 -130.5t-124 -40.5q-125 0 -181 205q-51 186 -105 390q-79 -124 -151 -269l-52 -302h-137l159 896l-146 44l4 22l289 59l10 -11l-84 -477l-36 -133h10q32 78 78 161t107.5 165.5t127.5 147.5t142 105.5t147 40.5
q52 0 97 -31l-83 -238l-18 -2l-78 205q-122 -20 -292 -245q16 -60 42 -163.5t47 -182.5t41 -148q50 -170 120 -170z" />
    <glyph glyph-name="Lacute" unicode="&#x139;" horiz-adv-x="1094" 
d="M427 1542l87 181h190l4 -11l-266 -170h-15zM-49 0l4 20l187 53l228 1292l-168 54l3 20h524l-3 -20l-210 -54l-234 -1327h516l241 315l8 -2l-116 -351h-980z" />
    <glyph glyph-name="lacute" unicode="&#x13a;" horiz-adv-x="487" 
d="M382 1589l87 181h190l4 -11l-266 -170h-15zM206 -24q-71 0 -91.5 51.5t3.5 205.5l201 1139l-145 45l3 22l289 58l10 -11l-227 -1286q-16 -92 -13 -123.5t27 -31.5q33 0 78 28.5t90 86.5l14 -13q-62 -90 -118 -130.5t-121 -40.5z" />
    <glyph glyph-name="uni013B" unicode="&#x13b;" horiz-adv-x="1094" 
d="M-49 0l4 20l187 53l228 1292l-168 54l3 20h524l-3 -20l-210 -54l-234 -1327h516l241 315l8 -2l-116 -351h-980zM307 -418l-4 10q64 55 72 97q9 57 -47 110l168 101q31 -60 22 -112q-12 -67 -75 -123.5t-136 -82.5z" />
    <glyph glyph-name="uni013C" unicode="&#x13c;" horiz-adv-x="487" 
d="M206 -24q-71 0 -91.5 51.5t3.5 205.5l201 1139l-145 45l3 22l289 58l10 -11l-227 -1286q-16 -92 -13 -123.5t27 -31.5q33 0 78 28.5t90 86.5l14 -13q-62 -90 -118 -130.5t-121 -40.5zM-6 -418l-4 10q64 55 72 97q9 57 -47 110l168 101q31 -60 22 -112q-12 -67 -75 -123.5
t-136 -82.5z" />
    <glyph glyph-name="Lcaron" unicode="&#x13d;" horiz-adv-x="1094" 
d="M-49 0l4 20l187 53l228 1292l-168 54l3 20h524l-3 -20l-210 -54l-234 -1327h516l241 315l8 -2l-116 -351h-980zM1080 1158l-13 266l9 15h132l3 -15l-106 -266h-25z" />
    <glyph glyph-name="lcaron" unicode="&#x13e;" horiz-adv-x="627" 
d="M206 -24q-71 0 -91.5 51.5t3.5 205.5l201 1139l-145 45l3 22l289 58l10 -11l-227 -1286q-16 -92 -13 -123.5t27 -31.5q33 0 78 28.5t90 86.5l14 -13q-62 -90 -118 -130.5t-121 -40.5zM601 1205l-13 266l9 15h132l3 -15l-106 -266h-25z" />
    <glyph glyph-name="Ldot" unicode="&#x13f;" horiz-adv-x="1094" 
d="M-49 0l4 20l187 53l228 1292l-168 54l3 20h524l-3 -20l-210 -54l-234 -1327h516l241 315l8 -2l-116 -351h-980zM736 607q-51 0 -79.5 33t-19.5 83q9 51 49 84.5t91 33.5q53 0 80.5 -33t18.5 -85q-9 -51 -48 -83.5t-92 -32.5z" />
    <glyph glyph-name="ldot" unicode="&#x140;" horiz-adv-x="806" 
d="M206 -24q-71 0 -91.5 51.5t3.5 205.5l201 1139l-145 45l3 22l289 58l10 -11l-227 -1286q-16 -92 -13 -123.5t27 -31.5q33 0 78 28.5t90 86.5l14 -13q-62 -90 -118 -130.5t-121 -40.5zM686 630q-51 0 -79.5 33t-19.5 83q9 51 49 84.5t91 33.5q53 0 80.5 -33t18.5 -85
q-9 -51 -48 -83.5t-92 -32.5z" />
    <glyph glyph-name="Lslash" unicode="&#x141;" horiz-adv-x="1094" 
d="M1039 353l8 -2l-116 -351h-980l4 20l187 53l106 600l-197 -96l-11 38l216 105l114 645l-168 54l3 20h524l-3 -20l-210 -54l-100 -567l160 78l11 -37l-179 -88l-126 -713h516z" />
    <glyph glyph-name="lslash" unicode="&#x142;" horiz-adv-x="487" 
d="M263 45q33 0 78 28.5t90 86.5l14 -13q-62 -90 -118 -130.5t-121 -40.5q-71 0 -91.5 51.5t3.5 205.5l78 439l-101 -53l-10 36l119 63l115 654l-145 45l3 22l289 58l10 -11l-121 -688l129 69l10 -36l-147 -78l-98 -553q-16 -92 -13 -123.5t27 -31.5z" />
    <glyph glyph-name="Nacute" unicode="&#x143;" horiz-adv-x="1437" 
d="M857 1542l87 181h190l4 -11l-266 -170h-15zM1089 -17l-701 1269l-206 -1167l168 -65l-4 -20h-395l4 20l189 65l226 1280l-168 54l3 20h261l666 -1205l197 1120l-168 66l3 19h399l-3 -19l-191 -66l-239 -1354z" />
    <glyph glyph-name="nacute" unicode="&#x144;" horiz-adv-x="1177" 
d="M628 1148l146 231h180l4 -11l-315 -220h-15zM897 -24q-71 0 -95.5 46t-4.5 159l92 509q20 113 -8 186t-92 73q-54 0 -126.5 -43t-144 -116.5t-134 -184t-91.5 -232.5l-64 -367l-139 -11l159 901l-146 41l4 19l289 65l10 -11l-84 -428h5q32 84 112 184.5t186.5 177.5
t192.5 77q123 0 179 -88.5t28 -245.5l-97 -559q-8 -39 -2.5 -61t28.5 -22q33 0 78 28.5t89 86.5l14 -13q-61 -90 -117 -130.5t-121 -40.5z" />
    <glyph glyph-name="uni0145" unicode="&#x145;" horiz-adv-x="1437" 
d="M1089 -17l-701 1269l-206 -1167l168 -65l-4 -20h-395l4 20l189 65l226 1280l-168 54l3 20h261l666 -1205l197 1120l-168 66l3 19h399l-3 -19l-191 -66l-239 -1354zM477 -418l-4 10q64 55 72 97q9 57 -47 110l168 101q31 -60 22 -112q-12 -67 -75 -123.5t-136 -82.5z" />
    <glyph glyph-name="uni0146" unicode="&#x146;" horiz-adv-x="1177" 
d="M897 -24q-71 0 -95.5 46t-4.5 159l92 509q20 113 -8 186t-92 73q-54 0 -126.5 -43t-144 -116.5t-134 -184t-91.5 -232.5l-64 -367l-139 -11l159 901l-146 41l4 19l289 65l10 -11l-84 -428h5q32 84 112 184.5t186.5 177.5t192.5 77q123 0 179 -88.5t28 -245.5l-97 -559
q-8 -39 -2.5 -61t28.5 -22q33 0 78 28.5t89 86.5l14 -13q-61 -90 -117 -130.5t-121 -40.5zM349 -418l-4 10q64 55 72 97q9 57 -47 110l168 101q31 -60 22 -112q-12 -67 -75 -123.5t-136 -82.5z" />
    <glyph glyph-name="Ncaron" unicode="&#x147;" horiz-adv-x="1437" 
d="M869 1533l-166 248l21 9l201 -118l240 118l15 -9l-252 -248h-59zM1089 -17l-701 1269l-206 -1167l168 -65l-4 -20h-395l4 20l189 65l226 1280l-168 54l3 20h261l666 -1205l197 1120l-168 66l3 19h399l-3 -19l-191 -66l-239 -1354z" />
    <glyph glyph-name="ncaron" unicode="&#x148;" horiz-adv-x="1177" 
d="M672 1142l-159 288l21 9l194 -158l247 158l15 -9l-259 -288h-59zM897 -24q-71 0 -95.5 46t-4.5 159l92 509q20 113 -8 186t-92 73q-54 0 -126.5 -43t-144 -116.5t-134 -184t-91.5 -232.5l-64 -367l-139 -11l159 901l-146 41l4 19l289 65l10 -11l-84 -428h5
q32 84 112 184.5t186.5 177.5t192.5 77q123 0 179 -88.5t28 -245.5l-97 -559q-8 -39 -2.5 -61t28.5 -22q33 0 78 28.5t89 86.5l14 -13q-61 -90 -117 -130.5t-121 -40.5z" />
    <glyph glyph-name="napostrophe" unicode="&#x149;" horiz-adv-x="1200" 
d="M210 1121l-7 13q40 25 66 71.5t34 92.5q11 59 -27 112l105 53q45 -37 30 -124q-23 -130 -201 -218zM897 -24q-71 0 -95.5 46t-4.5 159l92 509q20 113 -8 186t-92 73q-54 0 -126.5 -43t-144 -116.5t-134 -184t-91.5 -232.5l-64 -367l-139 -11l159 901l-146 41l4 19l289 65
l10 -11l-84 -428h5q32 84 112 184.5t186.5 177.5t192.5 77q123 0 179 -88.5t28 -245.5l-97 -559q-8 -39 -2.5 -61t28.5 -22q33 0 78 28.5t89 86.5l14 -13q-61 -90 -117 -130.5t-121 -40.5z" />
    <glyph glyph-name="Eng" unicode="&#x14a;" horiz-adv-x="1441" 
d="M797 -395l-3 17q104 57 165 129.5t81 182.5l19 111l-666 1213l-207 -1173l168 -65l-4 -20h-397l4 20l189 65l226 1280l-168 54l3 20h263l665 -1209l198 1124l-168 66l3 19h398l-3 -19l-191 -66l-238 -1353q-9 -48 -22.5 -92.5t-40.5 -94.5t-62 -89t-90 -72t-122 -48z" />
    <glyph glyph-name="eng" unicode="&#x14b;" horiz-adv-x="1161" 
d="M542 -415l-3 16q91 61 144.5 141.5t72.5 193.5l133 754q20 114 -10 186.5t-100 72.5q-47 0 -116.5 -43.5t-141.5 -116t-135.5 -184t-92.5 -232.5l-64 -367l-139 -11l159 901l-146 41l4 19l289 65l10 -11l-84 -428h5q23 61 79 137t124.5 143t147 113t140.5 46
q122 0 178.5 -89t28.5 -246l-105 -600q-76 -433 -378 -501z" />
    <glyph glyph-name="Omacron" unicode="&#x14c;" horiz-adv-x="1517" 
d="M695 1578l6 37h508l-6 -37h-508zM666 -24q-118 0 -217 35.5t-170 101t-116.5 157t-56.5 204.5t10 243q38 215 154.5 385t289 265t368.5 95q197 0 335.5 -95t196 -265t19.5 -385q-38 -213 -154.5 -382.5t-289 -264t-369.5 -94.5zM673 13q239 0 411.5 192.5t228.5 511.5
q34 214 3 371t-133.5 246.5t-261.5 89.5q-240 0 -411.5 -193t-227.5 -514q-34 -212 -3.5 -368.5t133 -246t261.5 -89.5z" />
    <glyph glyph-name="omacron" unicode="&#x14d;" horiz-adv-x="1163" 
d="M457 1229l6 37h508l-6 -37h-508zM496 -24q-187 0 -303.5 122t-116.5 314q0 126 50 239.5t132.5 194t193 128t228.5 47.5q189 0 305.5 -123t116.5 -315q0 -168 -83.5 -308.5t-222.5 -219.5t-300 -79zM502 6q121 0 223.5 79.5t163 219.5t60.5 308q0 170 -73.5 274
t-200.5 104q-120 0 -223 -80.5t-164 -222t-61 -311.5q0 -167 73.5 -269t201.5 -102z" />
    <glyph glyph-name="Obreve" unicode="&#x14e;" horiz-adv-x="1517" 
d="M941 1541q-120 0 -175 73.5t-40 169.5l18 5q2 -63 58 -99t159 -36q105 0 174 36t93 99l15 -5q-19 -97 -99 -170t-203 -73zM666 -24q-118 0 -217 35.5t-170 101t-116.5 157t-56.5 204.5t10 243q38 215 154.5 385t289 265t368.5 95q197 0 335.5 -95t196 -265t19.5 -385
q-38 -213 -154.5 -382.5t-289 -264t-369.5 -94.5zM673 13q239 0 411.5 192.5t228.5 511.5q34 214 3 371t-133.5 246.5t-261.5 89.5q-240 0 -411.5 -193t-227.5 -514q-34 -212 -3.5 -368.5t133 -246t261.5 -89.5z" />
    <glyph glyph-name="obreve" unicode="&#x14f;" horiz-adv-x="1163" 
d="M696 1154q-123 0 -175.5 80t-31.5 203l17 5q-3 -91 50 -133t160 -42q220 0 274 175l16 -5q-25 -124 -104.5 -203.5t-205.5 -79.5zM496 -24q-187 0 -303.5 122t-116.5 314q0 126 50 239.5t132.5 194t193 128t228.5 47.5q189 0 305.5 -123t116.5 -315q0 -168 -83.5 -308.5
t-222.5 -219.5t-300 -79zM502 6q121 0 223.5 79.5t163 219.5t60.5 308q0 170 -73.5 274t-200.5 104q-120 0 -223 -80.5t-164 -222t-61 -311.5q0 -167 73.5 -269t201.5 -102z" />
    <glyph glyph-name="Ohungarumlaut" unicode="&#x150;" horiz-adv-x="1517" 
d="M666 -24q-118 0 -217 35.5t-170 101t-116.5 157t-56.5 204.5t10 243q38 215 154.5 385t289 265t368.5 95q197 0 335.5 -95t196 -265t19.5 -385q-38 -213 -154.5 -382.5t-289 -264t-369.5 -94.5zM282 717q-34 -212 -3.5 -368.5t133 -246t261.5 -89.5q239 0 411.5 192.5
t228.5 511.5q34 214 3 371t-133.5 246.5t-261.5 89.5q-240 0 -411.5 -193t-227.5 -514zM1042 1542h-15l67 181h180l4 -11zM842 1542h-15l67 181h180l4 -11z" />
    <glyph glyph-name="ohungarumlaut" unicode="&#x151;" horiz-adv-x="1163" 
d="M530 1147l112 211h180l5 -11l-282 -200h-15zM786 1145l112 211h180l4 -11l-281 -200h-15zM496 -24q-187 0 -303.5 122t-116.5 314q0 126 50 239.5t132.5 194t193 128t228.5 47.5q189 0 305.5 -123t116.5 -315q0 -168 -83.5 -308.5t-222.5 -219.5t-300 -79zM502 6
q121 0 223.5 79.5t163 219.5t60.5 308q0 170 -73.5 274t-200.5 104q-120 0 -223 -80.5t-164 -222t-61 -311.5q0 -167 73.5 -269t201.5 -102z" />
    <glyph glyph-name="OE" unicode="&#x152;" horiz-adv-x="2086" 
d="M666 -24q-118 0 -217 35.5t-170 101t-116.5 157t-56.5 204.5t10 243q38 215 154.5 385t289 265t368.5 95q93 0 176 -23h1001l-62 -351h-9l-76 314h-755q161 -80 236.5 -250.5t45.5 -394.5h184l124 189h16l-73 -414h-16l-58 187h-183q-41 -235 -177.5 -416t-336.5 -266
h825l242 316l8 -2l-117 -351h-1068q-96 -24 -189 -24zM673 13q239 0 411.5 192.5t228.5 511.5q34 214 3 371t-133.5 246.5t-261.5 89.5q-240 0 -411.5 -193t-227.5 -514q-34 -212 -3.5 -368.5t133 -246t261.5 -89.5z" />
    <glyph glyph-name="oe" unicode="&#x153;" horiz-adv-x="1855" 
d="M1825 578h-713q-22 -88 -22 -163q0 -354 282 -354q97 0 192.5 43.5t156.5 116.5l13 -9q-70 -115 -182.5 -175.5t-251.5 -60.5q-121 0 -208 59t-127 164q-86 -104 -209 -163.5t-260 -59.5q-187 0 -303.5 122t-116.5 314q0 126 50 239.5t132.5 194t193 128t228.5 47.5
q134 0 233 -63t148 -174q80 111 195.5 174t244.5 63q160 0 246.5 -94t86.5 -247q0 -50 -9 -102zM502 6q121 0 223.5 79.5t163 219.5t60.5 308q0 170 -73.5 274t-200.5 104q-120 0 -223 -80.5t-164 -222t-61 -311.5q0 -167 73.5 -269t201.5 -102zM1490 990q-71 0 -133.5 -34
t-108 -92t-78 -124.5t-52.5 -140.5l567 23q11 68 11 118q0 121 -53.5 185.5t-152.5 64.5z" />
    <glyph glyph-name="Racute" unicode="&#x154;" horiz-adv-x="1332" 
d="M703 1542l87 181h190l4 -11l-266 -170h-15zM-49 0l4 20l187 53l228 1292l-168 54l3 20h609q216 0 317 -96t72 -260q-30 -170 -150 -269t-290 -126l-1 -5q70 -17 97 -17h3l231 -585l118 -61l-3 -20h-257l-247 680q-57 -7 -121 -7h-111l7 38h116q377 0 441 366
q27 152 -40 238t-237 86h-237l-234 -1327l170 -54l-4 -20h-503z" />
    <glyph glyph-name="racute" unicode="&#x155;" horiz-adv-x="791" 
d="M429 1148l146 231h180l4 -11l-315 -220h-15zM89 -5l160 901l-146 41l4 19l289 65l10 -11l-85 -428h6q23 57 77.5 132.5t119.5 144t137.5 115.5t124.5 47q37 0 76 -23l-60 -256h-14q-15 58 -44.5 107t-55.5 72q-30 0 -88.5 -50.5t-120 -126.5t-115.5 -177.5t-72 -190.5
l-64 -370z" />
    <glyph glyph-name="uni0156" unicode="&#x156;" horiz-adv-x="1332" 
d="M-49 0l4 20l187 53l228 1292l-168 54l3 20h609q216 0 317 -96t72 -260q-30 -170 -150 -269t-290 -126l-1 -5q70 -17 97 -17h3l231 -585l118 -61l-3 -20h-257l-247 680q-57 -7 -121 -7h-111l7 38h116q377 0 441 366q27 152 -40 238t-237 86h-237l-234 -1327l170 -54
l-4 -20h-503zM436 -418l-4 10q64 55 72 97q9 57 -47 110l168 101q31 -60 22 -112q-12 -67 -75 -123.5t-136 -82.5z" />
    <glyph glyph-name="uni0157" unicode="&#x157;" horiz-adv-x="791" 
d="M89 -5l160 901l-146 41l4 19l289 65l10 -11l-85 -428h6q23 57 77.5 132.5t119.5 144t137.5 115.5t124.5 47q37 0 76 -23l-60 -256h-14q-15 58 -44.5 107t-55.5 72q-30 0 -88.5 -50.5t-120 -126.5t-115.5 -177.5t-72 -190.5l-64 -370zM20 -418l-4 10q64 55 72 97
q9 57 -47 110l168 101q31 -60 22 -112q-12 -67 -75 -123.5t-136 -82.5z" />
    <glyph glyph-name="Rcaron" unicode="&#x158;" horiz-adv-x="1332" 
d="M715 1533l-166 248l21 9l201 -118l240 118l15 -9l-252 -248h-59zM-49 0l4 20l187 53l228 1292l-168 54l3 20h609q216 0 317 -96t72 -260q-30 -170 -150 -269t-290 -126l-1 -5q70 -17 97 -17h3l231 -585l118 -61l-3 -20h-257l-247 680q-57 -7 -121 -7h-111l7 38h116
q377 0 441 366q27 152 -40 238t-237 86h-237l-234 -1327l170 -54l-4 -20h-503z" />
    <glyph glyph-name="rcaron" unicode="&#x159;" horiz-adv-x="791" 
d="M473 1142l-159 288l21 9l194 -158l247 158l15 -9l-259 -288h-59zM89 -5l160 901l-146 41l4 19l289 65l10 -11l-85 -428h6q23 57 77.5 132.5t119.5 144t137.5 115.5t124.5 47q37 0 76 -23l-60 -256h-14q-15 58 -44.5 107t-55.5 72q-30 0 -88.5 -50.5t-120 -126.5
t-115.5 -177.5t-72 -190.5l-64 -370z" />
    <glyph glyph-name="Sacute" unicode="&#x15a;" horiz-adv-x="1076" 
d="M678 1542l87 181h190l4 -11l-266 -170h-15zM415 -24q-192 0 -395 117l38 344h13q32 -225 117.5 -324t235.5 -99q159 0 259.5 78.5t126.5 221.5q12 67 1 118.5t-48.5 95t-85 76.5t-126.5 76l-58 32q-54 29 -92.5 53.5t-85 63.5t-73.5 78t-40.5 92.5t-2.5 111.5
q32 167 173.5 259t345.5 92q94 0 194.5 -33.5t185.5 -86.5l-34 -342h-14q-37 228 -112.5 326t-244.5 98q-121 0 -210.5 -74.5t-111.5 -199.5q-13 -74 7 -126.5t69 -93.5t146 -94l64 -35q80 -44 131.5 -79t108 -90.5t78.5 -125t7 -151.5q-17 -98 -72 -173t-134.5 -119
t-170 -65.5t-190.5 -21.5z" />
    <glyph glyph-name="sacute" unicode="&#x15b;" horiz-adv-x="906" 
d="M477 1148l146 231h180l4 -11l-315 -220h-15zM361 -24q-87 0 -178.5 23t-144.5 52l98 220h17q29 -172 79 -247q68 -18 154 -18q73 0 126 19.5t81 53t41 69.5t13 76q0 18 -3 34t-11.5 31t-15 26t-23 24.5t-26 21.5t-32.5 22t-34 20.5t-39.5 22t-40.5 22.5q-113 63 -152 94
q-99 79 -99 180q0 144 115.5 221.5t292.5 77.5q66 0 143.5 -18t130.5 -43l-76 -215h-18q-46 175 -83 232q-39 14 -117 14q-125 0 -190 -65.5t-65 -147.5q0 -63 52 -112t151 -103q52 -28 80.5 -45t71 -47t65 -55.5t39.5 -62t17 -75.5q0 -141 -116.5 -221.5t-302.5 -80.5z" />
    <glyph glyph-name="Scircumflex" unicode="&#x15c;" horiz-adv-x="1076" 
d="M499 1533l-17 9l254 248h59l164 -248l-19 -9l-198 118zM415 -24q-192 0 -395 117l38 344h13q32 -225 117.5 -324t235.5 -99q159 0 259.5 78.5t126.5 221.5q12 67 1 118.5t-48.5 95t-85 76.5t-126.5 76l-58 32q-54 29 -92.5 53.5t-85 63.5t-73.5 78t-40.5 92.5t-2.5 111.5
q32 167 173.5 259t345.5 92q94 0 194.5 -33.5t185.5 -86.5l-34 -342h-14q-37 228 -112.5 326t-244.5 98q-121 0 -210.5 -74.5t-111.5 -199.5q-13 -74 7 -126.5t69 -93.5t146 -94l64 -35q80 -44 131.5 -79t108 -90.5t78.5 -125t7 -151.5q-17 -98 -72 -173t-134.5 -119
t-170 -65.5t-190.5 -21.5z" />
    <glyph glyph-name="scircumflex" unicode="&#x15d;" horiz-adv-x="906" 
d="M329 1132l-17 9l261 288h59l157 -288l-19 -9l-191 158zM361 -24q-87 0 -178.5 23t-144.5 52l98 220h17q29 -172 79 -247q68 -18 154 -18q73 0 126 19.5t81 53t41 69.5t13 76q0 18 -3 34t-11.5 31t-15 26t-23 24.5t-26 21.5t-32.5 22t-34 20.5t-39.5 22t-40.5 22.5
q-113 63 -152 94q-99 79 -99 180q0 144 115.5 221.5t292.5 77.5q66 0 143.5 -18t130.5 -43l-76 -215h-18q-46 175 -83 232q-39 14 -117 14q-125 0 -190 -65.5t-65 -147.5q0 -63 52 -112t151 -103q52 -28 80.5 -45t71 -47t65 -55.5t39.5 -62t17 -75.5q0 -141 -116.5 -221.5
t-302.5 -80.5z" />
    <glyph glyph-name="Scedilla" unicode="&#x15e;" horiz-adv-x="1076" 
d="M718 1462q94 0 194.5 -33.5t185.5 -86.5l-34 -342h-14q-37 228 -112.5 326t-244.5 98q-121 0 -210.5 -74.5t-111.5 -199.5q-13 -74 7 -126.5t69 -93.5t146 -94l64 -35q80 -44 131.5 -79t108 -90.5t78.5 -125t7 -151.5q-16 -92 -65 -163.5t-120.5 -115.5t-154 -68.5
t-175.5 -29.5l-62 -69q71 -11 108.5 -52t26.5 -102q-13 -75 -94 -130t-205 -79l-2 11q163 60 183 172q17 95 -87 123l-1 14l97 110h-16q-192 0 -395 117l38 344h13q32 -225 117.5 -324t235.5 -99q159 0 259.5 78.5t126.5 221.5q12 67 1 118.5t-48.5 95t-85 76.5t-126.5 76
l-58 32q-54 29 -92.5 53.5t-85 63.5t-73.5 78t-40.5 92.5t-2.5 111.5q32 167 173.5 259t345.5 92z" />
    <glyph glyph-name="scedilla" unicode="&#x15f;" horiz-adv-x="906" 
d="M507 563q52 -28 80.5 -45t71 -47t65 -55.5t39.5 -62t17 -75.5q0 -140 -115 -220t-299 -82l-61 -67q71 -11 108.5 -52t26.5 -102q-13 -75 -94 -130t-205 -79l-2 11q163 60 183 172q17 95 -87 123l-1 14l98 111q-81 4 -163 26t-131 48l98 220h17q29 -172 79 -247
q56 -14 126 -17l7 7l33 -3l-5 -5q70 1 122 21t79.5 53t40 68.5t12.5 75.5q0 18 -3 34t-11.5 31t-15 26t-23 24.5t-26 21.5t-32.5 22t-34 20.5t-39.5 22t-40.5 22.5q-113 63 -152 94q-99 79 -99 180q0 144 115.5 221.5t292.5 77.5q66 0 143.5 -18t130.5 -43l-76 -215h-18
q-46 175 -83 232q-39 14 -117 14q-125 0 -190 -65.5t-65 -147.5q0 -63 52 -112t151 -103z" />
    <glyph glyph-name="Scaron" unicode="&#x160;" horiz-adv-x="1076" 
d="M690 1533l-166 248l21 9l201 -118l240 118l15 -9l-252 -248h-59zM415 -24q-192 0 -395 117l38 344h13q32 -225 117.5 -324t235.5 -99q159 0 259.5 78.5t126.5 221.5q12 67 1 118.5t-48.5 95t-85 76.5t-126.5 76l-58 32q-54 29 -92.5 53.5t-85 63.5t-73.5 78t-40.5 92.5
t-2.5 111.5q32 167 173.5 259t345.5 92q94 0 194.5 -33.5t185.5 -86.5l-34 -342h-14q-37 228 -112.5 326t-244.5 98q-121 0 -210.5 -74.5t-111.5 -199.5q-13 -74 7 -126.5t69 -93.5t146 -94l64 -35q80 -44 131.5 -79t108 -90.5t78.5 -125t7 -151.5q-17 -98 -72 -173
t-134.5 -119t-170 -65.5t-190.5 -21.5z" />
    <glyph glyph-name="scaron" unicode="&#x161;" horiz-adv-x="906" 
d="M521 1142l-159 288l21 9l194 -158l247 158l15 -9l-259 -288h-59zM361 -24q-87 0 -178.5 23t-144.5 52l98 220h17q29 -172 79 -247q68 -18 154 -18q73 0 126 19.5t81 53t41 69.5t13 76q0 18 -3 34t-11.5 31t-15 26t-23 24.5t-26 21.5t-32.5 22t-34 20.5t-39.5 22
t-40.5 22.5q-113 63 -152 94q-99 79 -99 180q0 144 115.5 221.5t292.5 77.5q66 0 143.5 -18t130.5 -43l-76 -215h-18q-46 175 -83 232q-39 14 -117 14q-125 0 -190 -65.5t-65 -147.5q0 -63 52 -112t151 -103q52 -28 80.5 -45t71 -47t65 -55.5t39.5 -62t17 -75.5
q0 -141 -116.5 -221.5t-302.5 -80.5z" />
    <glyph glyph-name="uni0162" unicode="&#x162;" horiz-adv-x="1215" 
d="M194 1124h-11l55 315h1071l-55 -315h-9l-65 277h-340l-234 -1327l170 -54l-4 -20h-214l-83 -91q71 -11 108.5 -52t26.5 -102q-13 -75 -94 -130t-205 -79l-2 11q163 60 183 172q17 95 -87 123l-1 14l119 134h-256l4 20l189 54l234 1327h-342z" />
    <glyph glyph-name="uni0163" unicode="&#x163;" horiz-adv-x="713" 
d="M406 964l-133 -761q-12 -67 13 -110t73 -43q137 0 253 80l12 -12q-39 -57 -126.5 -99.5t-171.5 -42.5q-12 0 -34 2l-63 -69q71 -11 108.5 -52t26.5 -102q-13 -75 -94 -130t-205 -79l-2 11q163 60 183 172q17 95 -87 123l-1 14l104 118q-75 20 -107 86t-13 170l128 724
h-138l3 15l140 48l160 181h13l-38 -214h323l-5 -30h-322z" />
    <glyph glyph-name="Tcaron" unicode="&#x164;" horiz-adv-x="1215" 
d="M183 1124l55 315h1071l-55 -315h-9l-65 277h-340l-234 -1327l170 -54l-4 -20h-505l4 20l189 54l234 1327h-342l-158 -277h-11zM594 1781l21 9l201 -118l240 118l15 -9l-252 -248h-59z" />
    <glyph glyph-name="tcaron" unicode="&#x165;" horiz-adv-x="713" 
d="M691 1158l-13 266l9 15h132l3 -15l-106 -266h-25zM326 -24q-107 0 -156.5 70t-27.5 194l128 724h-138l3 15l140 48l160 181h13l-38 -214h323l-5 -30h-322l-133 -761q-12 -67 13 -110t73 -43q137 0 253 80l12 -12q-39 -57 -126.5 -99.5t-171.5 -42.5z" />
    <glyph glyph-name="Tbar" unicode="&#x166;" horiz-adv-x="1215" 
d="M1309 1439l-55 -315h-9l-65 277h-340l-117 -662h176l-6 -38h-176l-111 -627l170 -54l-4 -20h-505l4 20l189 54l111 627h-176l6 38h176l117 662h-342l-158 -277h-11l55 315h1071z" />
    <glyph glyph-name="tbar" unicode="&#x167;" horiz-adv-x="713" 
d="M728 964h-322l-78 -446h130l-6 -37h-130l-49 -278q-12 -67 13 -110t73 -43q137 0 253 80l12 -12q-39 -57 -126.5 -99.5t-171.5 -42.5q-107 0 -156.5 70t-27.5 194l43 241h-81l6 37h81l79 446h-138l3 15l140 48l160 181h13l-38 -214h323z" />
    <glyph glyph-name="Utilde" unicode="&#x168;" horiz-adv-x="1391" 
d="M632 1538l-13 4q31 85 80 141t117 56q36 0 105 -50t107 -50q81 0 138 100l11 -4q-28 -84 -78 -140.5t-117 -56.5q-33 0 -71 25t-75 49.5t-67 24.5q-83 0 -137 -99zM621 -24q-111 0 -199 31.5t-147 92t-82 153.5t-2 210l159 902l-169 54l3 20h504l-3 -20l-189 -54
l-157 -888q-38 -221 51 -342.5t274 -121.5q107 0 193.5 36.5t145 101.5t95.5 146.5t54 179.5l155 877l-167 66l3 19h396l-3 -19l-191 -66l-152 -861q-43 -245 -185 -381t-387 -136z" />
    <glyph glyph-name="utilde" unicode="&#x169;" horiz-adv-x="1179" 
d="M468 1179l-13 4q31 85 80 141t117 56q36 0 105 -50t107 -50q81 0 138 100l11 -4q-28 -84 -78 -140.5t-117 -56.5q-33 0 -71 24.5t-75 49.5t-67 25q-83 0 -137 -99zM353 -24q-123 0 -178.5 88.5t-28.5 245.5l102 586l-146 41l4 19l289 65l10 -11l-20 -127l-104 -577
q-20 -113 9.5 -181t100.5 -68q48 0 117.5 42t141 113t135 181t92.5 231l49 272l-146 41l3 19l290 65l10 -11l-23 -126l-120 -684q-15 -92 -12 -123.5t27 -31.5q33 0 78 28.5t90 86.5l14 -13q-61 -90 -117 -130.5t-121 -40.5q-61 0 -85 35t-16.5 130t51.5 274h-7
q-31 -83 -113 -185t-188 -178t-188 -76z" />
    <glyph glyph-name="Umacron" unicode="&#x16a;" horiz-adv-x="1391" 
d="M632 1578l6 37h508l-6 -37h-508zM621 -24q-111 0 -199 31.5t-147 92t-82 153.5t-2 210l159 902l-169 54l3 20h504l-3 -20l-189 -54l-157 -888q-38 -221 51 -342.5t274 -121.5q107 0 193.5 36.5t145 101.5t95.5 146.5t54 179.5l155 877l-167 66l3 19h396l-3 -19l-191 -66
l-152 -861q-43 -245 -185 -381t-387 -136z" />
    <glyph glyph-name="umacron" unicode="&#x16b;" horiz-adv-x="1179" 
d="M470 1229l6 37h508l-6 -37h-508zM353 -24q-123 0 -178.5 88.5t-28.5 245.5l102 586l-146 41l4 19l289 65l10 -11l-20 -127l-104 -577q-20 -113 9.5 -181t100.5 -68q48 0 117.5 42t141 113t135 181t92.5 231l49 272l-146 41l3 19l290 65l10 -11l-23 -126l-120 -684
q-15 -92 -12 -123.5t27 -31.5q33 0 78 28.5t90 86.5l14 -13q-61 -90 -117 -130.5t-121 -40.5q-61 0 -85 35t-16.5 130t51.5 274h-7q-31 -83 -113 -185t-188 -178t-188 -76z" />
    <glyph glyph-name="Ubreve" unicode="&#x16c;" horiz-adv-x="1391" 
d="M878 1541q-120 0 -175 73.5t-40 169.5l18 5q2 -63 58 -99t159 -36q105 0 174 36t93 99l15 -5q-19 -97 -99 -170t-203 -73zM621 -24q-111 0 -199 31.5t-147 92t-82 153.5t-2 210l159 902l-169 54l3 20h504l-3 -20l-189 -54l-157 -888q-38 -221 51 -342.5t274 -121.5
q107 0 193.5 36.5t145 101.5t95.5 146.5t54 179.5l155 877l-167 66l3 19h396l-3 -19l-191 -66l-152 -861q-43 -245 -185 -381t-387 -136z" />
    <glyph glyph-name="ubreve" unicode="&#x16d;" horiz-adv-x="1179" 
d="M709 1154q-123 0 -175.5 80t-31.5 203l17 5q-3 -91 50 -133t160 -42q220 0 274 175l16 -5q-25 -124 -104.5 -203.5t-205.5 -79.5zM353 -24q-123 0 -178.5 88.5t-28.5 245.5l102 586l-146 41l4 19l289 65l10 -11l-20 -127l-104 -577q-20 -113 9.5 -181t100.5 -68
q48 0 117.5 42t141 113t135 181t92.5 231l49 272l-146 41l3 19l290 65l10 -11l-23 -126l-120 -684q-15 -92 -12 -123.5t27 -31.5q33 0 78 28.5t90 86.5l14 -13q-61 -90 -117 -130.5t-121 -40.5q-61 0 -85 35t-16.5 130t51.5 274h-7q-31 -83 -113 -185t-188 -178t-188 -76z
" />
    <glyph glyph-name="Uring" unicode="&#x16e;" horiz-adv-x="1391" 
d="M880 1533q-81 0 -126.5 39t-34.5 102t71 102.5t140 39.5q78 0 122.5 -39.5t33.5 -102.5t-69.5 -102t-136.5 -39zM884 1555q72 0 93 119q22 120 -51 120q-75 0 -97 -120q-21 -119 55 -119zM621 -24q-111 0 -199 31.5t-147 92t-82 153.5t-2 210l159 902l-169 54l3 20h504
l-3 -20l-189 -54l-157 -888q-38 -221 51 -342.5t274 -121.5q107 0 193.5 36.5t145 101.5t95.5 146.5t54 179.5l155 877l-167 66l3 19h396l-3 -19l-191 -66l-152 -861q-43 -245 -185 -381t-387 -136z" />
    <glyph glyph-name="uring" unicode="&#x16f;" horiz-adv-x="1179" 
d="M713 1157q-81 0 -126.5 39t-34.5 102t71 102.5t140 39.5q78 0 122.5 -39.5t33.5 -102.5t-69.5 -102t-136.5 -39zM717 1179q72 0 93 119q22 120 -51 120q-75 0 -97 -120q-21 -119 55 -119zM353 -24q-123 0 -178.5 88.5t-28.5 245.5l102 586l-146 41l4 19l289 65l10 -11
l-20 -127l-104 -577q-20 -113 9.5 -181t100.5 -68q48 0 117.5 42t141 113t135 181t92.5 231l49 272l-146 41l3 19l290 65l10 -11l-23 -126l-120 -684q-15 -92 -12 -123.5t27 -31.5q33 0 78 28.5t90 86.5l14 -13q-61 -90 -117 -130.5t-121 -40.5q-61 0 -85 35t-16.5 130
t51.5 274h-7q-31 -83 -113 -185t-188 -178t-188 -76z" />
    <glyph glyph-name="Uhungarumlaut" unicode="&#x170;" horiz-adv-x="1391" 
d="M621 -24q-111 0 -199 31.5t-147 92t-82 153.5t-2 210l159 902l-169 54l3 20h504l-3 -20l-189 -54l-157 -888q-38 -221 51 -342.5t274 -121.5q107 0 193.5 36.5t145 101.5t95.5 146.5t54 179.5l155 877l-167 66l3 19h396l-3 -19l-191 -66l-152 -861q-43 -245 -185 -381
t-387 -136zM964 1542l67 181h180l4 -11l-236 -170h-15zM779 1542h-15l67 181h180l4 -11z" />
    <glyph glyph-name="uhungarumlaut" unicode="&#x171;" horiz-adv-x="1179" 
d="M543 1147l112 211h180l5 -11l-282 -200h-15zM799 1145l112 211h180l4 -11l-281 -200h-15zM353 -24q-123 0 -178.5 88.5t-28.5 245.5l102 586l-146 41l4 19l289 65l10 -11l-20 -127l-104 -577q-20 -113 9.5 -181t100.5 -68q48 0 117.5 42t141 113t135 181t92.5 231l49 272
l-146 41l3 19l290 65l10 -11l-23 -126l-120 -684q-15 -92 -12 -123.5t27 -31.5q33 0 78 28.5t90 86.5l14 -13q-61 -90 -117 -130.5t-121 -40.5q-61 0 -85 35t-16.5 130t51.5 274h-7q-31 -83 -113 -185t-188 -178t-188 -76z" />
    <glyph glyph-name="Uogonek" unicode="&#x172;" horiz-adv-x="1391" 
d="M1143 1439h396l-3 -19l-191 -66l-152 -861q-49 -274 -214 -406l-33 -24q-158 -118 -183 -255q-19 -105 90 -105q95 0 178 62l8 -11q-127 -115 -256 -115q-78 0 -113.5 38.5t-23.5 105.5q18 106 168 219q-89 -26 -193 -26q-111 0 -199 31.5t-147 92t-82 153.5t-2 210
l159 902l-169 54l3 20h504l-3 -20l-189 -54l-157 -888q-38 -221 51 -342.5t274 -121.5q107 0 193.5 36.5t145 101.5t95.5 146.5t54 179.5l155 877l-167 66z" />
    <glyph glyph-name="uogonek" unicode="&#x173;" horiz-adv-x="1179" 
d="M993 0q-190 -131 -217 -280q-19 -105 90 -105q95 0 178 62l8 -11q-127 -115 -256 -115q-78 0 -113.5 38.5t-23.5 105.5q23 132 258 282q-6 -1 -18 -1q-61 0 -85 35t-16.5 130t51.5 274h-7q-31 -83 -113 -185t-188 -178t-188 -76q-123 0 -178.5 88.5t-28.5 245.5l102 586
l-146 41l4 19l289 65l10 -11l-20 -127l-104 -577q-20 -113 9.5 -181t100.5 -68q48 0 117.5 42t141 113t135 181t92.5 231l49 272l-146 41l3 19l290 65l10 -11l-23 -126l-120 -684q-15 -92 -12 -123.5t27 -31.5q33 0 78 28.5t90 86.5l14 -13q-75 -110 -144 -147z" />
    <glyph glyph-name="Wcircumflex" unicode="&#x174;" horiz-adv-x="1997" 
d="M951 1533l-17 9l254 248h59l164 -248l-19 -9l-198 118zM474 0l-155 1365l-155 54l3 20h508l-3 -20l-192 -54l121 -1216l482 983l-31 233l-143 54l3 20h500l-3 -20l-201 -54l147 -1229l571 1229l-205 53l4 21h436l-4 -21l-192 -53l-635 -1365h-101l-138 1069l-525 -1069
h-92z" />
    <glyph glyph-name="wcircumflex" unicode="&#x175;" horiz-adv-x="1465" 
d="M629 1132l-17 9l261 288h59l157 -288l-19 -9l-191 158zM336 -21l-23 21l47 64q-37 465 -118 746q-25 85 -41.5 113t-40.5 28q-42 0 -125 -117l-14 11q59 96 102.5 136t108.5 40q28 0 48.5 -8t33.5 -19.5t25.5 -38.5t19.5 -51t20 -71q30 -110 56.5 -286t36.5 -349
q125 170 199.5 287t148.5 265q-26 173 -43 242l135 28q26 -152 106 -824q131 177 208 299.5t160 286.5l-73 192l3 20h186l-3 -20q-76 -202 -173 -376t-194.5 -306.5t-249.5 -312.5l-25 21l48 57q-11 85 -36.5 303.5t-40.5 327.5q-94 -186 -206.5 -345t-285.5 -364z" />
    <glyph glyph-name="Ycircumflex" unicode="&#x176;" horiz-adv-x="1351" 
d="M637 1533l-17 9l254 248h59l164 -248l-19 -9l-198 118zM335 0l4 20l187 53l100 566l-291 726l-168 53l4 21h501l-4 -21l-171 -53l270 -658l519 655l-217 56l4 21h453l-4 -21l-189 -53l-557 -701l-104 -590l170 -54l-4 -20h-503z" />
    <glyph glyph-name="ycircumflex" unicode="&#x177;" horiz-adv-x="909" 
d="M346 1132l-17 9l261 288h59l157 -288l-19 -9l-191 158zM-112 -422l-62 177l9 16q117 -16 166 -16q42 0 72 5q66 49 155.5 139.5t140.5 159.5q-36 438 -128 751q-25 84 -42.5 112.5t-40.5 28.5q-44 0 -124 -117l-14 11q54 92 97.5 134t113.5 42q62 0 93 -42t55 -146
q88 -379 103 -652q62 73 110.5 142t91.5 150.5t70.5 139.5t75.5 169l-73 192l3 20h186l-3 -20q-110 -316 -245.5 -542t-351.5 -463q-151 -165 -258.5 -254.5t-199.5 -136.5z" />
    <glyph glyph-name="Ydieresis" unicode="&#x178;" horiz-adv-x="1351" 
d="M707 1559q-38 0 -58.5 25t-13.5 62t36 61t67 24q39 0 59 -24t14 -61q-7 -37 -36 -62t-68 -25zM1017 1559q-38 0 -58.5 24.5t-13.5 62.5q7 37 36 61t67 24t59 -24t14 -61q-7 -38 -36 -62.5t-68 -24.5zM335 0l4 20l187 53l100 566l-291 726l-168 53l4 21h501l-4 -21
l-171 -53l270 -658l519 655l-217 56l4 21h453l-4 -21l-189 -53l-557 -701l-104 -590l170 -54l-4 -20h-503z" />
    <glyph glyph-name="Zacute" unicode="&#x179;" horiz-adv-x="1224" 
d="M757 1542l87 181h190l4 -11l-266 -170h-15zM-7 0l1 24l1105 1377h-649l-224 -297h-10l101 335h965l-2 -25l-1110 -1377h743l227 300l8 -2l-102 -335h-1053z" />
    <glyph glyph-name="zacute" unicode="&#x17a;" horiz-adv-x="876" 
d="M477 1148l146 231h180l4 -11l-315 -220h-15zM532 -24q-69 0 -140.5 25t-141 50.5t-133.5 25.5l-51 -91l-29 11l51 109l632 723q-19 1 -150 19t-205 18q-67 0 -112 -19l-106 -101h-15l67 217q22 22 72.5 39.5t113.5 17.5q84 0 173 -20t162.5 -45.5t85.5 -28.5l56 78
l34 -17l-57 -89l-647 -732q40 6 78 6q62 0 165 -19.5t154 -19.5q8 0 23.5 -0.5t22.5 -0.5q49 0 86 13.5t75 56.5l15 -10q-43 -95 -117.5 -155.5t-161.5 -60.5z" />
    <glyph glyph-name="Zdotaccent" unicode="&#x17b;" horiz-adv-x="1224" 
d="M802 1547q-40 0 -61.5 24t-14.5 63q7 38 37 63t70 25t61 -25t14 -63q-7 -39 -36.5 -63t-69.5 -24zM-7 0l1 24l1105 1377h-649l-224 -297h-10l101 335h965l-2 -25l-1110 -1377h743l227 300l8 -2l-102 -335h-1053z" />
    <glyph glyph-name="zdotaccent" unicode="&#x17c;" horiz-adv-x="876" 
d="M555 1162q-40 0 -61.5 24t-14.5 63q7 38 37 63t70 25t61 -25t14 -63q-7 -39 -36.5 -63t-69.5 -24zM532 -24q-69 0 -140.5 25t-141 50.5t-133.5 25.5l-51 -91l-29 11l51 109l632 723q-19 1 -150 19t-205 18q-67 0 -112 -19l-106 -101h-15l67 217q22 22 72.5 39.5
t113.5 17.5q84 0 173 -20t162.5 -45.5t85.5 -28.5l56 78l34 -17l-57 -89l-647 -732q40 6 78 6q62 0 165 -19.5t154 -19.5q8 0 23.5 -0.5t22.5 -0.5q49 0 86 13.5t75 56.5l15 -10q-43 -95 -117.5 -155.5t-161.5 -60.5z" />
    <glyph glyph-name="Zcaron" unicode="&#x17d;" horiz-adv-x="1224" 
d="M769 1533l-166 248l21 9l201 -118l240 118l15 -9l-252 -248h-59zM-7 0l1 24l1105 1377h-649l-224 -297h-10l101 335h965l-2 -25l-1110 -1377h743l227 300l8 -2l-102 -335h-1053z" />
    <glyph glyph-name="zcaron" unicode="&#x17e;" horiz-adv-x="876" 
d="M521 1142l-159 288l21 9l194 -158l247 158l15 -9l-259 -288h-59zM532 -24q-69 0 -140.5 25t-141 50.5t-133.5 25.5l-51 -91l-29 11l51 109l632 723q-19 1 -150 19t-205 18q-67 0 -112 -19l-106 -101h-15l67 217q22 22 72.5 39.5t113.5 17.5q84 0 173 -20t162.5 -45.5
t85.5 -28.5l56 78l34 -17l-57 -89l-647 -732q40 6 78 6q62 0 165 -19.5t154 -19.5q8 0 23.5 -0.5t22.5 -0.5q49 0 86 13.5t75 56.5l15 -10q-43 -95 -117.5 -155.5t-161.5 -60.5z" />
    <glyph glyph-name="uni0189" unicode="&#x189;" horiz-adv-x="1422" 
d="M846 1439q308 0 453 -191t85 -527q-59 -338 -274.5 -529.5t-534.5 -191.5h-624l4 20l187 53l111 628h-171l6 38h171l111 628l-163 52l3 20h636zM1216 708q61 342 -42.5 517.5t-362.5 175.5h-289l-117 -662h181l-6 -38h-181l-117 -663h270q276 0 441.5 171.5t222.5 498.5z
" />
    <glyph glyph-name="uni018F" unicode="&#x18f;" horiz-adv-x="1338" 
d="M536 -24q-101 0 -184 31.5t-137.5 88t-89.5 134.5t-41 170t10 195h1015q14 53 21 96q30 155 19 284t-54.5 222t-128 144.5t-201.5 51.5q-93 0 -169.5 -16.5t-140.5 -50.5t-110.5 -69.5t-105.5 -91.5l-15 19q106 125 256 201.5t298 76.5q129 0 237.5 -52t182 -148.5
t102.5 -235t-1 -311.5q-36 -208 -151 -378t-277 -265.5t-335 -95.5zM549 17q186 0 339 154t215 397l-857 -34q-43 -238 39 -377.5t264 -139.5z" />
    <glyph glyph-name="florin" unicode="&#x192;" horiz-adv-x="827" 
d="M-265 -195l33 68q46 -40 74 -49.5t73 -9.5q91 0 159 102.5t112 271.5l200 769h-217l7 37h221l7 25q64 216 179.5 326t271.5 110q42 0 121 -24l-74 -158h-10l-60 154q-65 -25 -115 -68t-84 -102t-55.5 -113.5t-42.5 -130.5l-5 -19h256l-7 -37h-258l-189 -734
q-52 -202 -165.5 -327t-262.5 -125q-91 0 -169 34z" />
    <glyph glyph-name="uni019D" unicode="&#x19d;" horiz-adv-x="1533" 
d="M1260 1439h399l-3 -19l-191 -66l-239 -1354l-41 -17l-701 1269l-221 -1250l1 -1q-9 -49 -22.5 -92.5t-39.5 -94t-61 -89.5t-89.5 -72t-121.5 -48l-3 17q121 47 197.5 144t98.5 218l3 16h-1l241 1365l-168 54l3 20h261l666 -1205l197 1120l-168 66z" />
    <glyph glyph-name="Ohorn" unicode="&#x1a0;" horiz-adv-x="1517" 
d="M1620 1458q4 -39 -1 -66q-12 -69 -72.5 -110t-149.5 -52q136 -207 82 -513q-38 -213 -154.5 -382.5t-289 -264t-369.5 -94.5q-118 0 -217 35.5t-170 101t-116.5 157t-56.5 204.5t10 243q38 215 154.5 385t289 265t368.5 95q148 0 264 -55t190 -156q58 16 68 71
q8 45 -12 93zM1313 717q34 214 3 371t-133.5 246.5t-261.5 89.5q-240 0 -411.5 -193t-227.5 -514q-34 -212 -3.5 -368.5t133 -246t261.5 -89.5q239 0 411.5 192.5t228.5 511.5z" />
    <glyph glyph-name="ohorn" unicode="&#x1a1;" horiz-adv-x="1163" 
d="M1229 1125q5 -33 -1 -66q-12 -68 -75 -116.5t-150 -64.5q99 -118 99 -295q0 -168 -83.5 -308.5t-222.5 -219.5t-300 -79q-187 0 -303.5 122t-116.5 314q0 126 50 239.5t132.5 194t193 128t228.5 47.5q185 0 302 -119q36 17 54 36.5t23 50.5q8 45 -12 93zM502 6
q121 0 223.5 79.5t163 219.5t60.5 308q0 170 -73.5 274t-200.5 104q-120 0 -223 -80.5t-164 -222t-61 -311.5q0 -167 73.5 -269t201.5 -102z" />
    <glyph glyph-name="Uhorn" unicode="&#x1af;" horiz-adv-x="1391" 
d="M1594 1650q4 -39 -1 -66q-13 -73 -77.5 -113.5t-158.5 -50.5l-164 -927q-43 -245 -185 -381t-387 -136q-111 0 -199 31.5t-147 92t-82 153.5t-2 210l159 902l-169 54l3 20h504l-3 -20l-189 -54l-157 -888q-38 -221 51 -342.5t274 -121.5q107 0 193.5 36.5t145 101.5
t95.5 146.5t54 179.5l155 877l-167 66l3 19h192q78 10 89 75q8 45 -12 93z" />
    <glyph glyph-name="uhorn" unicode="&#x1b0;" horiz-adv-x="1213" 
d="M1323 1089q5 -33 -1 -66q-14 -78 -91.5 -129t-178.5 -57l-112 -637q-15 -92 -12 -123.5t27 -31.5q33 0 78 28.5t90 86.5l14 -13q-61 -90 -117 -130.5t-121 -40.5q-61 0 -85 35t-16.5 130t51.5 274h-7q-31 -83 -113 -185t-188 -178t-188 -76q-123 0 -178.5 88.5
t-28.5 245.5l102 586l-146 41l4 19l289 65l10 -11l-20 -127l-104 -577q-20 -113 9.5 -181t100.5 -68q48 0 117.5 42t141 113t135 181t92.5 231l49 272l-146 41l3 19l290 65l10 -11l-28 -153q48 19 70 40t28 56q8 45 -12 93z" />
    <glyph glyph-name="uni01B5" unicode="&#x1b5;" horiz-adv-x="1224" 
d="M-7 0l1 24l543 677h-251l9 38h273l531 662h-649l-224 -297h-10l101 335h965l-2 -25l-544 -675h289l-9 -38h-311l-535 -664h743l227 300l8 -2l-102 -335h-1053z" />
    <glyph glyph-name="uni01B6" unicode="&#x1b6;" horiz-adv-x="876" 
d="M66 -14l-29 11l51 109l328 375h-238l9 37h261l272 311q-19 1 -150 19t-205 18q-67 0 -112 -19l-106 -101h-15l67 217q22 22 72.5 39.5t113.5 17.5q84 0 173 -20t162.5 -45.5t85.5 -28.5l56 78l34 -17l-57 -89l-336 -380h193l-9 -37h-217l-278 -315q40 6 78 6
q62 0 165 -19.5t154 -19.5q8 0 23.5 -0.5t22.5 -0.5q49 0 86 13.5t75 56.5l15 -10q-43 -95 -117.5 -155.5t-161.5 -60.5q-69 0 -140.5 25t-141 50.5t-133.5 25.5z" />
    <glyph glyph-name="uni01B7" unicode="&#x1b7;" horiz-adv-x="1143" 
d="M379 -214q-114 0 -220.5 28.5t-152.5 65.5l39 360h18q11 -68 23 -119t37 -110.5t58.5 -97.5t88.5 -64t126 -26q167 0 295 114t166 330q11 62 12 115t-8.5 95.5t-28 76.5t-47 60.5t-63.5 46t-80.5 33.5t-95.5 22.5t-111 13.5l5 29l554 562h-647l-144 -233h-8l62 351h865
l14 -21l-620 -631v-2q307 -33 422.5 -150.5t75.5 -341.5q-22 -126 -83.5 -224.5t-148.5 -159.5t-189.5 -92t-213.5 -31z" />
    <glyph glyph-name="uni01C4" unicode="&#x1c4;" horiz-adv-x="2575" 
d="M575 0h-624l4 20l187 53l228 1294l-163 52l3 20h636q308 0 453 -191t85 -527q-59 -338 -274.5 -529.5t-534.5 -191.5zM522 1401l-240 -1363h270q276 0 441.5 171.5t222.5 498.5q61 342 -42.5 517.5t-362.5 175.5h-289zM2397 0h-1053l1 24l1105 1377h-649l-224 -297h-10
l101 335h965l-2 -25l-1110 -1377h743l227 300l8 -2zM2120 1533l-166 248l21 9l201 -118l240 118l15 -9l-252 -248h-59z" />
    <glyph glyph-name="uni01C5" unicode="&#x1c5;" horiz-adv-x="2298" 
d="M-49 0l4 20l187 53l228 1294l-163 52l3 20h636q308 0 453 -191t85 -527q-59 -338 -274.5 -529.5t-534.5 -191.5h-624zM1943 1142l-159 288l21 9l194 -158l247 158l15 -9l-259 -288h-59zM282 38h270q276 0 441.5 171.5t222.5 498.5q61 342 -42.5 517.5t-362.5 175.5h-289z
M1954 -24q-69 0 -140.5 25t-141 50.5t-133.5 25.5l-51 -91l-29 11l51 109l632 723q-19 1 -150 19t-205 18q-67 0 -112 -19l-106 -101h-15l67 217q22 22 72.5 39.5t113.5 17.5q84 0 173 -20t162.5 -45.5t85.5 -28.5l56 78l34 -17l-57 -89l-647 -732q40 6 78 6q62 0 165 -19.5
t154 -19.5q8 0 23.5 -0.5t22.5 -0.5q49 0 86 13.5t75 56.5l15 -10q-43 -95 -117.5 -155.5t-161.5 -60.5z" />
    <glyph glyph-name="uni01C6" unicode="&#x1c6;" horiz-adv-x="2046" 
d="M355 -24q-126 0 -201.5 101t-75.5 277q0 174 78.5 326.5t220.5 246.5t314 94q79 0 142.5 -39t83.5 -91l86 479l-148 45l4 21l292 61l10 -13l-228 -1283q-8 -46 -11.5 -76t-1.5 -48t8 -25t17 -7q34 0 79 28.5t90 86.5l14 -13q-61 -90 -117 -130.5t-121 -40.5q-32 0 -52 8
t-35.5 34t-16 73t12.5 128t43 196h-7q-76 -175 -215 -307t-265 -132zM1691 1142l-159 288l21 9l194 -158l247 158l15 -9l-259 -288h-59zM1702 -24q-69 0 -140.5 25t-141 50.5t-133.5 25.5l-51 -91l-29 11l51 109l632 723q-19 1 -150 19t-205 18q-67 0 -112 -19l-106 -101
h-15l67 217q22 22 72.5 39.5t113.5 17.5q84 0 173 -20t162.5 -45.5t85.5 -28.5l56 78l34 -17l-57 -89l-647 -732q40 6 78 6q62 0 165 -19.5t154 -19.5q8 0 23.5 -0.5t22.5 -0.5q49 0 86 13.5t75 56.5l15 -10q-43 -95 -117.5 -155.5t-161.5 -60.5zM395 55q40 0 91.5 24.5
t111 79t114 130.5t102.5 190.5t74 247.5l9 46q-12 98 -70.5 157.5t-139.5 59.5q-123 0 -227 -87t-163 -231t-59 -309q0 -149 40 -228.5t117 -79.5z" />
    <glyph glyph-name="uni01C7" unicode="&#x1c7;" horiz-adv-x="2040" 
d="M-49 0l4 20l187 53l228 1292l-168 54l3 20h524l-3 -20l-210 -54l-234 -1327h516l241 315l8 -2l-116 -351h-980zM1402 -24q-79 0 -155 28t-120 69l39 375h19q1 -52 17 -123t43.5 -142t71.5 -120t94 -49q102 0 162.5 94.5t92.5 277.5l173 979l-191 54l3 20h524l-3 -20
l-187 -54l-189 -1072q-25 -141 -138 -229t-256 -88z" />
    <glyph glyph-name="uni01C8" unicode="&#x1c8;" horiz-adv-x="1627" 
d="M-49 0l4 20l187 53l228 1292l-168 54l3 20h524l-3 -20l-210 -54l-234 -1327h516l241 315l8 -2l-116 -351h-980zM1489 1251q-39 0 -60.5 24.5t-14.5 63.5q7 38 37 63.5t69 25.5q40 0 61 -25.5t14 -63.5q-7 -39 -36.5 -63.5t-69.5 -24.5zM1007 -415l-3 16q180 121 217 335
l170 960l-145 41l4 19l288 65l10 -11l-163 -924q-76 -433 -378 -501z" />
    <glyph glyph-name="uni01C9" unicode="&#x1c9;" horiz-adv-x="1020" 
d="M206 -24q-71 0 -91.5 51.5t3.5 205.5l201 1139l-145 45l3 22l289 58l10 -11l-227 -1286q-16 -92 -13 -123.5t27 -31.5q33 0 78 28.5t90 86.5l14 -13q-62 -90 -118 -130.5t-121 -40.5zM882 1251q-39 0 -60.5 24.5t-14.5 63.5q7 38 37 63.5t69 25.5q40 0 61 -25.5t14 -63.5
q-7 -39 -36.5 -63.5t-69.5 -24.5zM400 -415l-3 16q180 121 217 335l170 960l-145 41l4 19l288 65l10 -11l-163 -924q-76 -433 -378 -501z" />
    <glyph glyph-name="uni01CA" unicode="&#x1ca;" horiz-adv-x="2383" 
d="M1089 -17l-701 1269l-206 -1167l168 -65l-4 -20h-395l4 20l189 65l226 1280l-168 54l3 20h261l666 -1205l197 1120l-168 66l3 19h399l-3 -19l-191 -66l-239 -1354zM1745 -24q-79 0 -155 28t-120 69l39 375h19q1 -52 17 -123t43.5 -142t71.5 -120t94 -49q102 0 162.5 94.5
t92.5 277.5l173 979l-191 54l3 20h524l-3 -20l-187 -54l-189 -1072q-25 -141 -138 -229t-256 -88z" />
    <glyph glyph-name="uni01CB" unicode="&#x1cb;" horiz-adv-x="1909" 
d="M1089 -17l-701 1269l-206 -1167l168 -65l-4 -20h-395l4 20l189 65l226 1280l-168 54l3 20h261l666 -1205l197 1120l-168 66l3 19h399l-3 -19l-191 -66l-239 -1354zM1771 1251q-39 0 -60.5 24.5t-14.5 63.5q7 38 37 63.5t69 25.5q40 0 61 -25.5t14 -63.5
q-7 -39 -36.5 -63.5t-69.5 -24.5zM1289 -415l-3 16q180 121 217 335l170 960l-145 41l4 19l288 65l10 -11l-163 -924q-76 -433 -378 -501z" />
    <glyph glyph-name="uni01CC" unicode="&#x1cc;" horiz-adv-x="1710" 
d="M1572 1251q-39 0 -60.5 24.5t-14.5 63.5q7 38 37 63.5t69 25.5q40 0 61 -25.5t14 -63.5q-7 -39 -36.5 -63.5t-69.5 -24.5zM897 -24q-71 0 -95.5 46t-4.5 159l92 509q20 113 -8 186t-92 73q-54 0 -126.5 -43t-144 -116.5t-134 -184t-91.5 -232.5l-64 -367l-139 -11
l159 901l-146 41l4 19l289 65l10 -11l-84 -428h5q32 84 112 184.5t186.5 177.5t192.5 77q123 0 179 -88.5t28 -245.5l-97 -559q-8 -39 -2.5 -61t28.5 -22q33 0 78 28.5t89 86.5l14 -13q-61 -90 -117 -130.5t-121 -40.5zM1090 -415l-3 16q180 121 217 335l170 960l-145 41
l4 19l288 65l10 -11l-163 -924q-76 -433 -378 -501z" />
    <glyph glyph-name="uni01CD" unicode="&#x1cd;" horiz-adv-x="1429" 
d="M827 1533l-166 248l21 9l201 -118l240 118l15 -9l-252 -248h-59zM-83 0l4 20l192 54l655 1245l-69 100l3 20h213l250 -1365l167 -54l-4 -20h-495l4 20l173 54l-72 409h-569l-216 -409l209 -54l-4 -20h-441zM388 521h542l-137 771z" />
    <glyph glyph-name="uni01CE" unicode="&#x1ce;" horiz-adv-x="1170" 
d="M663 1142l-159 288l21 9l194 -158l247 158l15 -9l-259 -288h-59zM355 -24q-126 0 -201.5 101t-75.5 277q0 130 46.5 251.5t126.5 213t195 147t244 55.5q77 0 136 -35t84 -78l163 112h4l-145 -820q-11 -61 -12.5 -95t4.5 -47t21 -13q33 0 78.5 29t90.5 86l14 -13
q-62 -90 -118 -130.5t-121 -40.5q-32 0 -52 8t-35 34.5t-15.5 74t12.5 128t43 194.5h-8q-78 -177 -213 -308t-266 -131zM402 55q50 0 116 40.5t132.5 110t125.5 175.5t90 224l33 168q-11 97 -71 157t-142 60q-122 0 -226 -87t-163.5 -231t-59.5 -309q0 -308 165 -308z" />
    <glyph glyph-name="uni01CF" unicode="&#x1cf;" horiz-adv-x="580" 
d="M442 1533l-166 248l21 9l201 -118l240 118l15 -9l-252 -248h-59zM-49 0l4 20l187 53l228 1292l-168 54l3 20h503l-3 -20l-189 -54l-228 -1291l170 -54l-4 -20h-503z" />
    <glyph glyph-name="uni01D0" unicode="&#x1d0;" horiz-adv-x="503" 
d="M315 1142l-159 288l21 9l194 -158l247 158l15 -9l-259 -288h-59zM223 -24q-48 0 -72.5 21t-32 78t13.5 158l120 663l-149 41l4 20l292 64l10 -11l-143 -810q-16 -92 -13.5 -123.5t26.5 -31.5q33 0 78 28.5t90 86.5l14 -13q-61 -90 -117 -130.5t-121 -40.5z" />
    <glyph glyph-name="uni01D1" unicode="&#x1d1;" horiz-adv-x="1517" 
d="M911 1533l-166 248l21 9l201 -118l240 118l15 -9l-252 -248h-59zM666 -24q-118 0 -217 35.5t-170 101t-116.5 157t-56.5 204.5t10 243q38 215 154.5 385t289 265t368.5 95q197 0 335.5 -95t196 -265t19.5 -385q-38 -213 -154.5 -382.5t-289 -264t-369.5 -94.5zM673 13
q239 0 411.5 192.5t228.5 511.5q34 214 3 371t-133.5 246.5t-261.5 89.5q-240 0 -411.5 -193t-227.5 -514q-34 -212 -3.5 -368.5t133 -246t261.5 -89.5z" />
    <glyph glyph-name="uni01D2" unicode="&#x1d2;" horiz-adv-x="1163" 
d="M665 1142l-159 288l21 9l194 -158l247 158l15 -9l-259 -288h-59zM496 -24q-187 0 -303.5 122t-116.5 314q0 126 50 239.5t132.5 194t193 128t228.5 47.5q189 0 305.5 -123t116.5 -315q0 -168 -83.5 -308.5t-222.5 -219.5t-300 -79zM502 6q121 0 223.5 79.5t163 219.5
t60.5 308q0 170 -73.5 274t-200.5 104q-120 0 -223 -80.5t-164 -222t-61 -311.5q0 -167 73.5 -269t201.5 -102z" />
    <glyph glyph-name="uni01D3" unicode="&#x1d3;" horiz-adv-x="1391" 
d="M848 1533l-166 248l21 9l201 -118l240 118l15 -9l-252 -248h-59zM621 -24q-111 0 -199 31.5t-147 92t-82 153.5t-2 210l159 902l-169 54l3 20h504l-3 -20l-189 -54l-157 -888q-38 -221 51 -342.5t274 -121.5q107 0 193.5 36.5t145 101.5t95.5 146.5t54 179.5l155 877
l-167 66l3 19h396l-3 -19l-191 -66l-152 -861q-43 -245 -185 -381t-387 -136z" />
    <glyph glyph-name="uni01D4" unicode="&#x1d4;" horiz-adv-x="1179" 
d="M678 1142l-159 288l21 9l194 -158l247 158l15 -9l-259 -288h-59zM353 -24q-123 0 -178.5 88.5t-28.5 245.5l102 586l-146 41l4 19l289 65l10 -11l-20 -127l-104 -577q-20 -113 9.5 -181t100.5 -68q48 0 117.5 42t141 113t135 181t92.5 231l49 272l-146 41l3 19l290 65
l10 -11l-23 -126l-120 -684q-15 -92 -12 -123.5t27 -31.5q33 0 78 28.5t90 86.5l14 -13q-61 -90 -117 -130.5t-121 -40.5q-61 0 -85 35t-16.5 130t51.5 274h-7q-31 -83 -113 -185t-188 -178t-188 -76z" />
    <glyph glyph-name="uni01D5" unicode="&#x1d5;" horiz-adv-x="1391" 
d="M667 1776l6 37h508l-6 -37h-508zM727 1559q-38 0 -58.5 25t-13.5 62t36 61t67 24q39 0 59 -24t14 -61q-7 -37 -36 -62t-68 -25zM1037 1559q-38 0 -58.5 24.5t-13.5 62.5q7 37 36 61t67 24t59 -24t14 -61q-7 -38 -36 -62.5t-68 -24.5zM621 -24q-111 0 -199 31.5t-147 92
t-82 153.5t-2 210l159 902l-169 54l3 20h504l-3 -20l-189 -54l-157 -888q-38 -221 51 -342.5t274 -121.5q107 0 193.5 36.5t145 101.5t95.5 146.5t54 179.5l155 877l-167 66l3 19h396l-3 -19l-191 -66l-152 -861q-43 -245 -185 -381t-387 -136z" />
    <glyph glyph-name="uni01D6" unicode="&#x1d6;" horiz-adv-x="1179" 
d="M509 1396l6 37h508l-6 -37h-508zM556 1159q-38 0 -58.5 25t-13.5 62t36 61t67 24q39 0 59 -24t14 -61q-7 -37 -36 -62t-68 -25zM866 1159q-38 0 -58.5 24.5t-13.5 62.5q7 37 36 61t67 24t59 -24t14 -61q-7 -38 -36 -62.5t-68 -24.5zM353 -24q-123 0 -178.5 88.5
t-28.5 245.5l102 586l-146 41l4 19l289 65l10 -11l-20 -127l-104 -577q-20 -113 9.5 -181t100.5 -68q48 0 117.5 42t141 113t135 181t92.5 231l49 272l-146 41l3 19l290 65l10 -11l-23 -126l-120 -684q-15 -92 -12 -123.5t27 -31.5q33 0 78 28.5t90 86.5l14 -13
q-61 -90 -117 -130.5t-121 -40.5q-61 0 -85 35t-16.5 130t51.5 274h-7q-31 -83 -113 -185t-188 -178t-188 -76z" />
    <glyph glyph-name="uni01D7" unicode="&#x1d7;" horiz-adv-x="1391" 
d="M871 1740l87 181h190l4 -11l-266 -170h-15zM727 1559q-38 0 -58.5 25t-13.5 62t36 61t67 24q39 0 59 -24t14 -61q-7 -37 -36 -62t-68 -25zM1037 1559q-38 0 -58.5 24.5t-13.5 62.5q7 37 36 61t67 24t59 -24t14 -61q-7 -38 -36 -62.5t-68 -24.5zM621 -24q-111 0 -199 31.5
t-147 92t-82 153.5t-2 210l159 902l-169 54l3 20h504l-3 -20l-189 -54l-157 -888q-38 -221 51 -342.5t274 -121.5q107 0 193.5 36.5t145 101.5t95.5 146.5t54 179.5l155 877l-167 66l3 19h396l-3 -19l-191 -66l-152 -861q-43 -245 -185 -381t-387 -136z" />
    <glyph glyph-name="uni01D8" unicode="&#x1d8;" horiz-adv-x="1179" 
d="M673 1315l146 231h180l4 -11l-315 -220h-15zM556 1159q-38 0 -58.5 25t-13.5 62t36 61t67 24q39 0 59 -24t14 -61q-7 -37 -36 -62t-68 -25zM866 1159q-38 0 -58.5 24.5t-13.5 62.5q7 37 36 61t67 24t59 -24t14 -61q-7 -38 -36 -62.5t-68 -24.5zM353 -24
q-123 0 -178.5 88.5t-28.5 245.5l102 586l-146 41l4 19l289 65l10 -11l-20 -127l-104 -577q-20 -113 9.5 -181t100.5 -68q48 0 117.5 42t141 113t135 181t92.5 231l49 272l-146 41l3 19l290 65l10 -11l-23 -126l-120 -684q-15 -92 -12 -123.5t27 -31.5q33 0 78 28.5t90 86.5
l14 -13q-61 -90 -117 -130.5t-121 -40.5q-61 0 -85 35t-16.5 130t51.5 274h-7q-31 -83 -113 -185t-188 -178t-188 -76z" />
    <glyph glyph-name="uni01D9" unicode="&#x1d9;" horiz-adv-x="1391" 
d="M883 1731l-166 248l21 9l201 -118l240 118l15 -9l-252 -248h-59zM727 1559q-38 0 -58.5 25t-13.5 62t36 61t67 24q39 0 59 -24t14 -61q-7 -37 -36 -62t-68 -25zM1037 1559q-38 0 -58.5 24.5t-13.5 62.5q7 37 36 61t67 24t59 -24t14 -61q-7 -38 -36 -62.5t-68 -24.5z
M621 -24q-111 0 -199 31.5t-147 92t-82 153.5t-2 210l159 902l-169 54l3 20h504l-3 -20l-189 -54l-157 -888q-38 -221 51 -342.5t274 -121.5q107 0 193.5 36.5t145 101.5t95.5 146.5t54 179.5l155 877l-167 66l3 19h396l-3 -19l-191 -66l-152 -861q-43 -245 -185 -381
t-387 -136z" />
    <glyph glyph-name="uni01DA" unicode="&#x1da;" horiz-adv-x="1179" 
d="M717 1309l-159 288l21 9l194 -158l247 158l15 -9l-259 -288h-59zM556 1159q-38 0 -58.5 25t-13.5 62t36 61t67 24q39 0 59 -24t14 -61q-7 -37 -36 -62t-68 -25zM866 1159q-38 0 -58.5 24.5t-13.5 62.5q7 37 36 61t67 24t59 -24t14 -61q-7 -38 -36 -62.5t-68 -24.5z
M353 -24q-123 0 -178.5 88.5t-28.5 245.5l102 586l-146 41l4 19l289 65l10 -11l-20 -127l-104 -577q-20 -113 9.5 -181t100.5 -68q48 0 117.5 42t141 113t135 181t92.5 231l49 272l-146 41l3 19l290 65l10 -11l-23 -126l-120 -684q-15 -92 -12 -123.5t27 -31.5q33 0 78 28.5
t90 86.5l14 -13q-61 -90 -117 -130.5t-121 -40.5q-61 0 -85 35t-16.5 130t51.5 274h-7q-31 -83 -113 -185t-188 -178t-188 -76z" />
    <glyph glyph-name="uni01DB" unicode="&#x1db;" horiz-adv-x="1391" 
d="M947 1740l-206 170l8 11h190l23 -181h-15zM727 1559q-38 0 -58.5 25t-13.5 62t36 61t67 24q39 0 59 -24t14 -61q-7 -37 -36 -62t-68 -25zM1037 1559q-38 0 -58.5 24.5t-13.5 62.5q7 37 36 61t67 24t59 -24t14 -61q-7 -38 -36 -62.5t-68 -24.5zM621 -24q-111 0 -199 31.5
t-147 92t-82 153.5t-2 210l159 902l-169 54l3 20h504l-3 -20l-189 -54l-157 -888q-38 -221 51 -342.5t274 -121.5q107 0 193.5 36.5t145 101.5t95.5 146.5t54 179.5l155 877l-167 66l3 19h396l-3 -19l-191 -66l-152 -861q-43 -245 -185 -381t-387 -136z" />
    <glyph glyph-name="uni01DC" unicode="&#x1dc;" horiz-adv-x="1179" 
d="M809 1315l-237 220l8 11h180l64 -231h-15zM556 1159q-38 0 -58.5 25t-13.5 62t36 61t67 24q39 0 59 -24t14 -61q-7 -37 -36 -62t-68 -25zM866 1159q-38 0 -58.5 24.5t-13.5 62.5q7 37 36 61t67 24t59 -24t14 -61q-7 -38 -36 -62.5t-68 -24.5zM353 -24q-123 0 -178.5 88.5
t-28.5 245.5l102 586l-146 41l4 19l289 65l10 -11l-20 -127l-104 -577q-20 -113 9.5 -181t100.5 -68q48 0 117.5 42t141 113t135 181t92.5 231l49 272l-146 41l3 19l290 65l10 -11l-23 -126l-120 -684q-15 -92 -12 -123.5t27 -31.5q33 0 78 28.5t90 86.5l14 -13
q-61 -90 -117 -130.5t-121 -40.5q-61 0 -85 35t-16.5 130t51.5 274h-7q-31 -83 -113 -185t-188 -178t-188 -76z" />
    <glyph glyph-name="uni01DE" unicode="&#x1de;" horiz-adv-x="1429" 
d="M646 1776l6 37h508l-6 -37h-508zM706 1559q-38 0 -58.5 25t-13.5 62t36 61t67 24q39 0 59 -24t14 -61q-7 -37 -36 -62t-68 -25zM1016 1559q-38 0 -58.5 24.5t-13.5 62.5q7 37 36 61t67 24t59 -24t14 -61q-7 -38 -36 -62.5t-68 -24.5zM-83 0l4 20l192 54l655 1245l-69 100
l3 20h213l250 -1365l167 -54l-4 -20h-495l4 20l173 54l-72 409h-569l-216 -409l209 -54l-4 -20h-441zM388 521h542l-137 771z" />
    <glyph glyph-name="uni01DF" unicode="&#x1df;" horiz-adv-x="1170" 
d="M494 1396l6 37h508l-6 -37h-508zM541 1159q-38 0 -58.5 25t-13.5 62t36 61t67 24q39 0 59 -24t14 -61q-7 -37 -36 -62t-68 -25zM851 1159q-38 0 -58.5 24.5t-13.5 62.5q7 37 36 61t67 24t59 -24t14 -61q-7 -38 -36 -62.5t-68 -24.5zM355 -24q-126 0 -201.5 101t-75.5 277
q0 130 46.5 251.5t126.5 213t195 147t244 55.5q77 0 136 -35t84 -78l163 112h4l-145 -820q-11 -61 -12.5 -95t4.5 -47t21 -13q33 0 78.5 29t90.5 86l14 -13q-62 -90 -118 -130.5t-121 -40.5q-32 0 -52 8t-35 34.5t-15.5 74t12.5 128t43 194.5h-8q-78 -177 -213 -308
t-266 -131zM402 55q50 0 116 40.5t132.5 110t125.5 175.5t90 224l33 168q-11 97 -71 157t-142 60q-122 0 -226 -87t-163.5 -231t-59.5 -309q0 -308 165 -308z" />
    <glyph glyph-name="uni01E0" unicode="&#x1e0;" horiz-adv-x="1429" 
d="M647 1784l6 37h508l-6 -37h-508zM860 1547q-40 0 -61.5 24t-14.5 63q7 38 37 63t70 25t61 -25t14 -63q-7 -39 -36.5 -63t-69.5 -24zM-83 0l4 20l192 54l655 1245l-69 100l3 20h213l250 -1365l167 -54l-4 -20h-495l4 20l173 54l-72 409h-569l-216 -409l209 -54l-4 -20
h-441zM388 521h542l-137 771z" />
    <glyph glyph-name="uni01E1" unicode="&#x1e1;" horiz-adv-x="1170" 
d="M489 1422l6 37h508l-6 -37h-508zM697 1162q-40 0 -61.5 24t-14.5 63q7 38 37 63t70 25t61 -25t14 -63q-7 -39 -36.5 -63t-69.5 -24zM355 -24q-126 0 -201.5 101t-75.5 277q0 130 46.5 251.5t126.5 213t195 147t244 55.5q77 0 136 -35t84 -78l163 112h4l-145 -820
q-11 -61 -12.5 -95t4.5 -47t21 -13q33 0 78.5 29t90.5 86l14 -13q-62 -90 -118 -130.5t-121 -40.5q-32 0 -52 8t-35 34.5t-15.5 74t12.5 128t43 194.5h-8q-78 -177 -213 -308t-266 -131zM402 55q50 0 116 40.5t132.5 110t125.5 175.5t90 224l33 168q-11 97 -71 157t-142 60
q-122 0 -226 -87t-163.5 -231t-59.5 -309q0 -308 165 -308z" />
    <glyph glyph-name="uni01E2" unicode="&#x1e2;" horiz-adv-x="2090" 
d="M1319 1578l6 37h508l-6 -37h-508zM-56 0l4 20l211 54l1123 1295l-156 50l3 20h980l-62 -351h-8l-77 314h-515l-114 -645h341l124 189h16l-73 -414h-16l-58 187h-341l-120 -682h589l241 316l8 -2l-116 -351h-1053l4 20l188 54l73 409h-580l-354 -409l187 -54l-4 -20h-445z
M592 521h554l142 806z" />
    <glyph glyph-name="uni01E3" unicode="&#x1e3;" horiz-adv-x="1759" 
d="M1269 1266l-6 -37h-508l6 37h508zM1729 578h-713q-22 -88 -22 -163q0 -354 282 -354q97 0 192.5 43.5t156.5 116.5l13 -9q-70 -115 -182.5 -175.5t-251.5 -60.5q-169 0 -267 110t-98 292q0 25 1 37h-6q-78 -177 -213 -308t-266 -131q-126 0 -201.5 101t-75.5 277
q0 130 46.5 251.5t126.5 213t195 147t244 55.5q77 0 136 -35t84 -78l58 -120q80 109 194.5 171t242.5 62q160 0 246.5 -94t86.5 -247q0 -50 -9 -102zM402 55q50 0 116 40.5t132.5 110t125.5 175.5t90 224l33 168q-11 97 -71 157t-142 60q-122 0 -226 -87t-163.5 -231
t-59.5 -309q0 -308 165 -308zM1394 990q-71 0 -133.5 -34t-108 -92t-78 -124.5t-52.5 -140.5l567 23q11 68 11 118q0 121 -53.5 185.5t-152.5 64.5z" />
    <glyph glyph-name="Gcaron" unicode="&#x1e6;" horiz-adv-x="1376" 
d="M920 1533l-166 248l21 9l201 -118l240 118l15 -9l-252 -248h-59zM687 -24q-214 0 -357.5 96t-197.5 263.5t-16 382.5q28 161 99.5 296.5t178 235.5t253 156t316.5 56q182 0 394 -120l-38 -352h-17q-6 47 -11.5 80.5t-14.5 74t-19.5 69t-26.5 60t-35.5 52.5t-46.5 41
t-59.5 32t-74.5 19t-92 7q-109 0 -204.5 -39.5t-165.5 -106.5t-125.5 -158.5t-90 -192t-54.5 -211.5q-20 -125 -19 -232.5t32.5 -195t87.5 -148.5t146 -94.5t207 -33.5q64 0 142.5 29t139 76.5t69.5 95.5l61 348l-198 83l2 11h350l-87 -492q-142 -99 -263 -143.5t-265 -44.5
z" />
    <glyph glyph-name="gcaron" unicode="&#x1e7;" horiz-adv-x="1105" 
d="M616 1142l-159 288l21 9l194 -158l247 158l15 -9l-259 -288h-59zM299 -441q-71 0 -149.5 19.5t-131.5 41.5l82 211h18q17 -133 55 -215q72 -27 139 -27q86 0 158 35.5t123.5 94t92.5 142t66.5 170t43.5 187.5l44 197h-8q-76 -174 -214.5 -306.5t-264.5 -132.5
q-127 0 -202 97t-75 272q0 129 46.5 252t126.5 216.5t195 150.5t244 57q77 0 136 -35t84 -78l163 112h4l-142 -818q-35 -202 -130 -349.5t-224.5 -220.5t-279.5 -73zM400 55q48 0 115.5 41.5t138 114.5t132.5 194t90 261l21 107q-11 97 -71 157t-142 60q-122 0 -226 -89.5
t-163.5 -236t-59.5 -310.5q0 -147 43 -223t122 -76z" />
    <glyph glyph-name="uni01E8" unicode="&#x1e8;" horiz-adv-x="1344" 
d="M839 1533l-166 248l21 9l201 -118l240 118l15 -9l-252 -248h-59zM-49 0l4 20l187 53l228 1292l-168 54l3 20h503l-3 -20l-189 -54l-228 -1291l170 -54l-4 -20h-503zM915 0l-433 737l697 620l-259 62l3 20h499l-3 -20l-176 -54l-621 -552l433 -739l157 -44l-6 -30h-291z
" />
    <glyph glyph-name="uni01E9" unicode="&#x1e9;" horiz-adv-x="978" 
d="M702 1634h-59l-159 288l21 9l194 -158l247 158l15 -9zM761 45q30 0 77 29t95 86l13 -13q-64 -90 -119 -130.5t-124 -40.5q-125 0 -181 205q-51 186 -105 390q-79 -124 -151 -269l-52 -302h-137l242 1372l-146 44l4 22l289 59l10 -11l-167 -953l-36 -133h10q32 78 78 161
t107.5 165.5t127.5 147.5t142 105.5t147 40.5q52 0 97 -31l-83 -238l-18 -2l-78 205q-122 -20 -292 -245q16 -60 42 -163.5t47 -182.5t41 -148q50 -170 120 -170z" />
    <glyph glyph-name="uni01EA" unicode="&#x1ea;" horiz-adv-x="1517" 
d="M928 1462q197 0 335.5 -95t196 -265t19.5 -385q-38 -216 -157.5 -386t-293.5 -264q-189 -130 -216 -279q-19 -105 90 -105q95 0 178 62l8 -11q-127 -115 -256 -115q-78 0 -113.5 38.5t-23.5 105.5q21 120 214 253q-118 -40 -243 -40q-118 0 -217 35.5t-170 101
t-116.5 157t-56.5 204.5t10 243q38 215 154.5 385t289 265t368.5 95zM1313 717q34 214 3 371t-133.5 246.5t-261.5 89.5q-240 0 -411.5 -193t-227.5 -514q-34 -212 -3.5 -368.5t133 -246t261.5 -89.5q239 0 411.5 192.5t228.5 511.5z" />
    <glyph glyph-name="uni01EB" unicode="&#x1eb;" horiz-adv-x="1163" 
d="M816 68q-175 -125 -200 -268q-19 -105 90 -105q95 0 178 62l8 -11q-127 -115 -256 -115q-78 0 -113.5 38.5t-23.5 105.5q20 110 182 230q-89 -29 -185 -29q-187 0 -303.5 122t-116.5 314q0 126 50 239.5t132.5 194t193 128t228.5 47.5q189 0 305.5 -123t116.5 -315
q0 -162 -77.5 -297.5t-208.5 -217.5zM227 377q0 -167 73.5 -269t201.5 -102q121 0 223.5 79.5t163 219.5t60.5 308q0 170 -73.5 274t-200.5 104q-120 0 -223 -80.5t-164 -222t-61 -311.5z" />
    <glyph glyph-name="uni01EC" unicode="&#x1ec;" horiz-adv-x="1517" 
d="M1209 1615l-6 -37h-508l6 37h508zM928 1462q197 0 335.5 -95t196 -265t19.5 -385q-38 -216 -157.5 -386t-293.5 -264q-189 -130 -216 -279q-19 -105 90 -105q95 0 178 62l8 -11q-127 -115 -256 -115q-78 0 -113.5 38.5t-23.5 105.5q21 120 214 253q-118 -40 -243 -40
q-118 0 -217 35.5t-170 101t-116.5 157t-56.5 204.5t10 243q38 215 154.5 385t289 265t368.5 95zM1313 717q34 214 3 371t-133.5 246.5t-261.5 89.5q-240 0 -411.5 -193t-227.5 -514q-34 -212 -3.5 -368.5t133 -246t261.5 -89.5q239 0 411.5 192.5t228.5 511.5z" />
    <glyph glyph-name="uni01ED" unicode="&#x1ed;" horiz-adv-x="1163" 
d="M971 1266l-6 -37h-508l6 37h508zM816 68q-175 -125 -200 -268q-19 -105 90 -105q95 0 178 62l8 -11q-127 -115 -256 -115q-78 0 -113.5 38.5t-23.5 105.5q20 110 182 230q-89 -29 -185 -29q-187 0 -303.5 122t-116.5 314q0 126 50 239.5t132.5 194t193 128t228.5 47.5
q189 0 305.5 -123t116.5 -315q0 -162 -77.5 -297.5t-208.5 -217.5zM227 377q0 -167 73.5 -269t201.5 -102q121 0 223.5 79.5t163 219.5t60.5 308q0 170 -73.5 274t-200.5 104q-120 0 -223 -80.5t-164 -222t-61 -311.5z" />
    <glyph glyph-name="uni01EE" unicode="&#x1ee;" horiz-adv-x="1143" 
d="M724 1533l-166 248l21 9l201 -118l240 118l15 -9l-252 -248h-59zM379 -214q-114 0 -220.5 28.5t-152.5 65.5l39 360h18q11 -68 23 -119t37 -110.5t58.5 -97.5t88.5 -64t126 -26q167 0 295 114t166 330q11 62 12 115t-8.5 95.5t-28 76.5t-47 60.5t-63.5 46t-80.5 33.5
t-95.5 22.5t-111 13.5l5 29l554 562h-647l-144 -233h-8l62 351h865l14 -21l-620 -631v-2q307 -33 422.5 -150.5t75.5 -341.5q-22 -126 -83.5 -224.5t-148.5 -159.5t-189.5 -92t-213.5 -31z" />
    <glyph glyph-name="uni01EF" unicode="&#x1ef;" horiz-adv-x="1033" 
d="M600 1142l-159 288l21 9l194 -158l247 158l15 -9l-259 -288h-59zM270 -464q-101 0 -195 22.5t-148 52.5l96 219h18q29 -170 77 -246q23 -7 78 -12.5t79 -5.5q152 0 264.5 100.5t146.5 295.5q10 73 9 129.5t-21.5 100t-50.5 74.5t-78 52t-103 33t-125 17l5 27l502 492
h-548l-149 -146h-11l45 253h772l13 -21l-560 -550v-2q280 -31 384 -136t69 -302q-15 -89 -54 -163t-94 -126t-123.5 -88t-143.5 -53t-154 -17z" />
    <glyph glyph-name="uni01F0" unicode="&#x1f0;" horiz-adv-x="533" 
d="M350 1142l-159 288l21 9l194 -158l247 158l15 -9l-259 -288h-59zM-87 -415l-3 16q180 121 217 335l170 960l-145 41l4 19l288 65l10 -11l-163 -924q-76 -433 -378 -501z" />
    <glyph glyph-name="uni01F1" unicode="&#x1f1;" horiz-adv-x="2575" 
d="M-49 0l4 20l187 53l228 1294l-163 52l3 20h636q308 0 453 -191t85 -527q-59 -338 -274.5 -529.5t-534.5 -191.5h-624zM282 38h270q276 0 441.5 171.5t222.5 498.5q61 342 -42.5 517.5t-362.5 175.5h-289zM2397 0h-1053l1 24l1105 1377h-649l-224 -297h-10l101 335h965
l-2 -25l-1110 -1377h743l227 300l8 -2z" />
    <glyph glyph-name="uni01F2" unicode="&#x1f2;" horiz-adv-x="2298" 
d="M-49 0l4 20l187 53l228 1294l-163 52l3 20h636q308 0 453 -191t85 -527q-59 -338 -274.5 -529.5t-534.5 -191.5h-624zM282 38h270q276 0 441.5 171.5t222.5 498.5q61 342 -42.5 517.5t-362.5 175.5h-289zM1954 -24q-69 0 -140.5 25t-141 50.5t-133.5 25.5l-51 -91l-29 11
l51 109l632 723q-19 1 -150 19t-205 18q-67 0 -112 -19l-106 -101h-15l67 217q22 22 72.5 39.5t113.5 17.5q84 0 173 -20t162.5 -45.5t85.5 -28.5l56 78l34 -17l-57 -89l-647 -732q40 6 78 6q62 0 165 -19.5t154 -19.5q8 0 23.5 -0.5t22.5 -0.5q49 0 86 13.5t75 56.5l15 -10
q-43 -95 -117.5 -155.5t-161.5 -60.5z" />
    <glyph glyph-name="uni01F3" unicode="&#x1f3;" horiz-adv-x="2046" 
d="M355 -24q-126 0 -201.5 101t-75.5 277q0 174 78.5 326.5t220.5 246.5t314 94q79 0 142.5 -39t83.5 -91l86 479l-148 45l4 21l292 61l10 -13l-228 -1283q-8 -46 -11.5 -76t-1.5 -48t8 -25t17 -7q34 0 79 28.5t90 86.5l14 -13q-61 -90 -117 -130.5t-121 -40.5q-32 0 -52 8
t-35.5 34t-16 73t12.5 128t43 196h-7q-76 -175 -215 -307t-265 -132zM1702 -24q-69 0 -140.5 25t-141 50.5t-133.5 25.5l-51 -91l-29 11l51 109l632 723q-19 1 -150 19t-205 18q-67 0 -112 -19l-106 -101h-15l67 217q22 22 72.5 39.5t113.5 17.5q84 0 173 -20t162.5 -45.5
t85.5 -28.5l56 78l34 -17l-57 -89l-647 -732q40 6 78 6q62 0 165 -19.5t154 -19.5q8 0 23.5 -0.5t22.5 -0.5q49 0 86 13.5t75 56.5l15 -10q-43 -95 -117.5 -155.5t-161.5 -60.5zM395 55q40 0 91.5 24.5t111 79t114 130.5t102.5 190.5t74 247.5l9 46q-12 98 -70.5 157.5
t-139.5 59.5q-123 0 -227 -87t-163 -231t-59 -309q0 -149 40 -228.5t117 -79.5z" />
    <glyph glyph-name="uni01F4" unicode="&#x1f4;" horiz-adv-x="1376" 
d="M908 1542l87 181h190l4 -11l-266 -170h-15zM687 -24q-214 0 -357.5 96t-197.5 263.5t-16 382.5q28 161 99.5 296.5t178 235.5t253 156t316.5 56q182 0 394 -120l-38 -352h-17q-6 47 -11.5 80.5t-14.5 74t-19.5 69t-26.5 60t-35.5 52.5t-46.5 41t-59.5 32t-74.5 19t-92 7
q-109 0 -204.5 -39.5t-165.5 -106.5t-125.5 -158.5t-90 -192t-54.5 -211.5q-20 -125 -19 -232.5t32.5 -195t87.5 -148.5t146 -94.5t207 -33.5q64 0 142.5 29t139 76.5t69.5 95.5l61 348l-198 83l2 11h350l-87 -492q-142 -99 -263 -143.5t-265 -44.5z" />
    <glyph glyph-name="uni01F5" unicode="&#x1f5;" horiz-adv-x="1105" 
d="M572 1148l146 231h180l4 -11l-315 -220h-15zM299 -441q-71 0 -149.5 19.5t-131.5 41.5l82 211h18q17 -133 55 -215q72 -27 139 -27q86 0 158 35.5t123.5 94t92.5 142t66.5 170t43.5 187.5l44 197h-8q-76 -174 -214.5 -306.5t-264.5 -132.5q-127 0 -202 97t-75 272
q0 129 46.5 252t126.5 216.5t195 150.5t244 57q77 0 136 -35t84 -78l163 112h4l-142 -818q-35 -202 -130 -349.5t-224.5 -220.5t-279.5 -73zM400 55q48 0 115.5 41.5t138 114.5t132.5 194t90 261l21 107q-11 97 -71 157t-142 60q-122 0 -226 -89.5t-163.5 -236t-59.5 -310.5
q0 -147 43 -223t122 -76z" />
    <glyph glyph-name="uni01F8" unicode="&#x1f8;" horiz-adv-x="1437" 
d="M933 1542l-206 170l8 11h190l23 -181h-15zM1089 -17l-701 1269l-206 -1167l168 -65l-4 -20h-395l4 20l189 65l226 1280l-168 54l3 20h261l666 -1205l197 1120l-168 66l3 19h399l-3 -19l-191 -66l-239 -1354z" />
    <glyph glyph-name="uni01F9" unicode="&#x1f9;" horiz-adv-x="1177" 
d="M764 1148l-237 220l8 11h180l64 -231h-15zM897 -24q-71 0 -95.5 46t-4.5 159l92 509q20 113 -8 186t-92 73q-54 0 -126.5 -43t-144 -116.5t-134 -184t-91.5 -232.5l-64 -367l-139 -11l159 901l-146 41l4 19l289 65l10 -11l-84 -428h5q32 84 112 184.5t186.5 177.5
t192.5 77q123 0 179 -88.5t28 -245.5l-97 -559q-8 -39 -2.5 -61t28.5 -22q33 0 78 28.5t89 86.5l14 -13q-61 -90 -117 -130.5t-121 -40.5z" />
    <glyph glyph-name="Aringacute" unicode="&#x1fa;" horiz-adv-x="1429" 
d="M1129 1896l-266 -170h-15l87 181h190zM1165 74l167 -54l-4 -20h-495l4 20l173 54l-72 409h-569l-216 -409l209 -54l-4 -20h-441l4 20l192 54l655 1245l-69 100l3 20h45q-38 18 -56.5 50t-11.5 73q11 63 71 102.5t140 39.5q78 0 122.5 -39.5t33.5 -102.5q-8 -46 -43 -80.5
t-87 -49.5zM789 1562q-21 -119 55 -119q72 0 93 119q22 120 -51 120q-75 0 -97 -120zM388 521h542l-137 771z" />
    <glyph glyph-name="aringacute" unicode="&#x1fb;" horiz-adv-x="1170" 
d="M673 1454l146 231h180l4 -11l-315 -220h-15zM698 1157q-81 0 -126.5 39t-34.5 102t71 102.5t140 39.5q78 0 122.5 -39.5t33.5 -102.5t-69.5 -102t-136.5 -39zM702 1179q72 0 93 119q22 120 -51 120q-75 0 -97 -120q-21 -119 55 -119zM355 -24q-126 0 -201.5 101
t-75.5 277q0 130 46.5 251.5t126.5 213t195 147t244 55.5q77 0 136 -35t84 -78l163 112h4l-145 -820q-11 -61 -12.5 -95t4.5 -47t21 -13q33 0 78.5 29t90.5 86l14 -13q-62 -90 -118 -130.5t-121 -40.5q-32 0 -52 8t-35 34.5t-15.5 74t12.5 128t43 194.5h-8
q-78 -177 -213 -308t-266 -131zM402 55q50 0 116 40.5t132.5 110t125.5 175.5t90 224l33 168q-11 97 -71 157t-142 60q-122 0 -226 -87t-163.5 -231t-59.5 -309q0 -308 165 -308z" />
    <glyph glyph-name="AEacute" unicode="&#x1fc;" horiz-adv-x="2090" 
d="M1523 1542l87 181h190l4 -11l-266 -170h-15zM-56 0l4 20l211 54l1123 1295l-156 50l3 20h980l-62 -351h-8l-77 314h-515l-114 -645h341l124 189h16l-73 -414h-16l-58 187h-341l-120 -682h589l241 316l8 -2l-116 -351h-1053l4 20l188 54l73 409h-580l-354 -409l187 -54
l-4 -20h-445zM592 521h554l142 806z" />
    <glyph glyph-name="aeacute" unicode="&#x1fd;" horiz-adv-x="1759" 
d="M1249 1368l-315 -220h-15l146 231h180zM1729 578h-713q-22 -88 -22 -163q0 -354 282 -354q97 0 192.5 43.5t156.5 116.5l13 -9q-70 -115 -182.5 -175.5t-251.5 -60.5q-169 0 -267 110t-98 292q0 25 1 37h-6q-78 -177 -213 -308t-266 -131q-126 0 -201.5 101t-75.5 277
q0 130 46.5 251.5t126.5 213t195 147t244 55.5q77 0 136 -35t84 -78l58 -120q80 109 194.5 171t242.5 62q160 0 246.5 -94t86.5 -247q0 -50 -9 -102zM402 55q50 0 116 40.5t132.5 110t125.5 175.5t90 224l33 168q-11 97 -71 157t-142 60q-122 0 -226 -87t-163.5 -231
t-59.5 -309q0 -308 165 -308zM1394 990q-71 0 -133.5 -34t-108 -92t-78 -124.5t-52.5 -140.5l567 23q11 68 11 118q0 121 -53.5 185.5t-152.5 64.5z" />
    <glyph glyph-name="Oslashacute" unicode="&#x1fe;" horiz-adv-x="1517" 
d="M1180 1712l-266 -170h-15l87 181h190zM1193 1407q174 -82 251 -265t35 -425q-38 -213 -154.5 -382.5t-289 -264t-369.5 -94.5q-120 0 -222 37l-121 -225h-56l131 245q-171 82 -247.5 263.5t-34.5 420.5q38 215 154.5 385t289 265t368.5 95q117 0 219 -36l124 230h56z
M282 717q-38 -218 -0.5 -382t146.5 -247l693 1289q-85 47 -200 47q-240 0 -411.5 -193t-227.5 -514zM1313 717q39 221 -0.5 385.5t-149.5 247.5l-693 -1289q87 -48 203 -48q239 0 411.5 192.5t228.5 511.5z" />
    <glyph glyph-name="oslashacute" unicode="&#x1ff;" horiz-adv-x="1163" 
d="M951 1368l-315 -220h-15l146 231h180zM868 982q110 -50 172 -155.5t62 -243.5q0 -168 -83.5 -308.5t-222.5 -219.5t-300 -79q-83 0 -155 26l-71 -133h-55l82 152q-104 52 -162.5 155t-58.5 236q0 126 50 239.5t132.5 194t193 128t228.5 47.5q78 0 142 -21l70 130h55z
M227 377q0 -200 100 -300l473 881q-57 33 -125 33q-120 0 -223 -80.5t-164 -222t-61 -311.5zM502 6q121 0 223.5 79.5t163 219.5t60.5 308q0 215 -110 316l-474 -883q58 -40 137 -40z" />
    <glyph glyph-name="uni0200" unicode="&#x200;" horiz-adv-x="1429" 
d="M-83 0l4 20l192 54l655 1245l-69 100l3 20h213l250 -1365l167 -54l-4 -20h-495l4 20l173 54l-72 409h-569l-216 -409l209 -54l-4 -20h-441zM793 1292l-405 -771h542zM534 1712l8 11h341l23 -181h-15l-152 125l16 -125h-15z" />
    <glyph glyph-name="uni0201" unicode="&#x201;" horiz-adv-x="1170" 
d="M868 1148l-237 220l8 11h180l64 -231h-15zM620 1143l-237 220l8 11h180l64 -231h-15zM355 -24q-126 0 -201.5 101t-75.5 277q0 130 46.5 251.5t126.5 213t195 147t244 55.5q77 0 136 -35t84 -78l163 112h4l-145 -820q-11 -61 -12.5 -95t4.5 -47t21 -13q33 0 78.5 29
t90.5 86l14 -13q-62 -90 -118 -130.5t-121 -40.5q-32 0 -52 8t-35 34.5t-15.5 74t12.5 128t43 194.5h-8q-78 -177 -213 -308t-266 -131zM402 55q50 0 116 40.5t132.5 110t125.5 175.5t90 224l33 168q-11 97 -71 157t-142 60q-122 0 -226 -87t-163.5 -231t-59.5 -309
q0 -308 165 -308z" />
    <glyph glyph-name="uni0202" unicode="&#x202;" horiz-adv-x="1429" 
d="M613 1513l-16 5q18 96 98.5 169.5t200.5 73.5q123 0 177.5 -73t40.5 -170l-17 -5q-2 63 -59 99t-162 36q-103 0 -171 -36t-92 -99zM-83 0l4 20l192 54l655 1245l-69 100l3 20h213l250 -1365l167 -54l-4 -20h-495l4 20l173 54l-72 409h-569l-216 -409l209 -54l-4 -20h-441
zM388 521h542l-137 771z" />
    <glyph glyph-name="uni0203" unicode="&#x203;" horiz-adv-x="1170" 
d="M451 1134l-16 5q24 123 104 203t203 80q126 0 178 -79.5t32 -203.5l-17 -5q4 90 -50 132.5t-163 42.5q-216 0 -271 -175zM355 -24q-126 0 -201.5 101t-75.5 277q0 130 46.5 251.5t126.5 213t195 147t244 55.5q77 0 136 -35t84 -78l163 112h4l-145 -820q-11 -61 -12.5 -95
t4.5 -47t21 -13q33 0 78.5 29t90.5 86l14 -13q-62 -90 -118 -130.5t-121 -40.5q-32 0 -52 8t-35 34.5t-15.5 74t12.5 128t43 194.5h-8q-78 -177 -213 -308t-266 -131zM402 55q50 0 116 40.5t132.5 110t125.5 175.5t90 224l33 168q-11 97 -71 157t-142 60q-122 0 -226 -87
t-163.5 -231t-59.5 -309q0 -308 165 -308z" />
    <glyph glyph-name="uni0204" unicode="&#x204;" horiz-adv-x="1166" 
d="M799 1542l-206 170l8 11h190l23 -181h-15zM558 1537l-206 170l8 11h190l23 -181h-15zM-49 0l4 20l187 53l228 1292l-168 54l3 20h979l-62 -351h-8l-78 313h-514l-113 -644h340l124 189h16l-73 -414h-16l-58 187h-340l-120 -681h588l242 315l8 -2l-117 -351h-1052z" />
    <glyph glyph-name="uni0205" unicode="&#x205;" horiz-adv-x="993" 
d="M800 1148h-15l-237 220l8 11h180zM552 1143h-15l-237 220l8 11h180zM963 578h-713q-22 -88 -22 -163q0 -354 282 -354q97 0 192.5 43.5t156.5 116.5l13 -9q-70 -115 -182.5 -175.5t-251.5 -60.5q-169 0 -267 110t-98 292q0 135 46 255.5t123 205t181 133.5t216 49
q160 0 246.5 -94t86.5 -247q0 -50 -9 -102zM628 990q-71 0 -133.5 -34t-108 -92t-78 -124.5t-52.5 -140.5l567 23q11 68 11 118q0 121 -53.5 185.5t-152.5 64.5z" />
    <glyph glyph-name="uni0206" unicode="&#x206;" horiz-adv-x="1166" 
d="M521 1513l-16 5q18 96 98.5 169.5t200.5 73.5q123 0 177.5 -73t40.5 -170l-17 -5q-2 63 -59 99t-162 36q-103 0 -171 -36t-92 -99zM-49 0l4 20l187 53l228 1292l-168 54l3 20h979l-62 -351h-8l-78 313h-514l-113 -644h340l124 189h16l-73 -414h-16l-58 187h-340
l-120 -681h588l242 315l8 -2l-117 -351h-1052z" />
    <glyph glyph-name="uni0207" unicode="&#x207;" horiz-adv-x="993" 
d="M639 1309q-216 0 -271 -175l-16 5q24 123 104 203t203 80q126 0 178 -79.5t32 -203.5l-17 -5q4 90 -50 132.5t-163 42.5zM963 578h-713q-22 -88 -22 -163q0 -354 282 -354q97 0 192.5 43.5t156.5 116.5l13 -9q-70 -115 -182.5 -175.5t-251.5 -60.5q-169 0 -267 110
t-98 292q0 135 46 255.5t123 205t181 133.5t216 49q160 0 246.5 -94t86.5 -247q0 -50 -9 -102zM628 990q-71 0 -133.5 -34t-108 -92t-78 -124.5t-52.5 -140.5l567 23q11 68 11 118q0 121 -53.5 185.5t-152.5 64.5z" />
    <glyph glyph-name="uni0208" unicode="&#x208;" horiz-adv-x="580" 
d="M634 1542l-206 170l8 11h190l23 -181h-15zM406 1533l-206 170l8 11h190l23 -181h-15zM-49 0l4 20l187 53l228 1292l-168 54l3 20h503l-3 -20l-189 -54l-228 -1291l170 -54l-4 -20h-503z" />
    <glyph glyph-name="uni0209" unicode="&#x209;" horiz-adv-x="503" 
d="M520 1148l-237 220l8 11h180l64 -231h-15zM272 1143l-237 220l8 11h180l64 -231h-15zM223 -24q-48 0 -72.5 21t-32 78t13.5 158l120 663l-149 41l4 20l292 64l10 -11l-143 -810q-16 -92 -13.5 -123.5t26.5 -31.5q33 0 78 28.5t90 86.5l14 -13q-61 -90 -117 -130.5
t-121 -40.5z" />
    <glyph glyph-name="uni020A" unicode="&#x20a;" horiz-adv-x="580" 
d="M228 1513l-16 5q18 96 98.5 169.5t200.5 73.5q123 0 177.5 -73t40.5 -170l-17 -5q-2 63 -59 99t-162 36q-103 0 -171 -36t-92 -99zM-49 0l4 20l187 53l228 1292l-168 54l3 20h503l-3 -20l-189 -54l-228 -1291l170 -54l-4 -20h-503z" />
    <glyph glyph-name="uni020B" unicode="&#x20b;" horiz-adv-x="503" 
d="M103 1134l-16 5q24 123 104 203t203 80q126 0 178 -79.5t32 -203.5l-17 -5q4 90 -50 132.5t-163 42.5q-216 0 -271 -175zM223 -24q-48 0 -72.5 21t-32 78t13.5 158l120 663l-149 41l4 20l292 64l10 -11l-143 -810q-16 -92 -13.5 -123.5t26.5 -31.5q33 0 78 28.5t90 86.5
l14 -13q-61 -90 -117 -130.5t-121 -40.5z" />
    <glyph glyph-name="uni020C" unicode="&#x20c;" horiz-adv-x="1517" 
d="M859 1511l-206 170l8 11h190l23 -181h-15zM1149 1511l-206 170l8 11h190l23 -181h-15zM666 -24q-118 0 -217 35.5t-170 101t-116.5 157t-56.5 204.5t10 243q38 215 154.5 385t289 265t368.5 95q197 0 335.5 -95t196 -265t19.5 -385q-38 -213 -154.5 -382.5t-289 -264
t-369.5 -94.5zM673 13q239 0 411.5 192.5t228.5 511.5q34 214 3 371t-133.5 246.5t-261.5 89.5q-240 0 -411.5 -193t-227.5 -514q-34 -212 -3.5 -368.5t133 -246t261.5 -89.5z" />
    <glyph glyph-name="uni020D" unicode="&#x20d;" horiz-adv-x="1163" 
d="M870 1148l-237 220l8 11h180l64 -231h-15zM622 1143l-237 220l8 11h180l64 -231h-15zM496 -24q-187 0 -303.5 122t-116.5 314q0 126 50 239.5t132.5 194t193 128t228.5 47.5q189 0 305.5 -123t116.5 -315q0 -168 -83.5 -308.5t-222.5 -219.5t-300 -79zM502 6
q121 0 223.5 79.5t163 219.5t60.5 308q0 170 -73.5 274t-200.5 104q-120 0 -223 -80.5t-164 -222t-61 -311.5q0 -167 73.5 -269t201.5 -102z" />
    <glyph glyph-name="uni020E" unicode="&#x20e;" horiz-adv-x="1517" 
d="M697 1513l-16 5q18 96 98.5 169.5t200.5 73.5q123 0 177.5 -73t40.5 -170l-17 -5q-2 63 -59 99t-162 36q-103 0 -171 -36t-92 -99zM666 -24q-118 0 -217 35.5t-170 101t-116.5 157t-56.5 204.5t10 243q38 215 154.5 385t289 265t368.5 95q197 0 335.5 -95t196 -265
t19.5 -385q-38 -213 -154.5 -382.5t-289 -264t-369.5 -94.5zM673 13q239 0 411.5 192.5t228.5 511.5q34 214 3 371t-133.5 246.5t-261.5 89.5q-240 0 -411.5 -193t-227.5 -514q-34 -212 -3.5 -368.5t133 -246t261.5 -89.5z" />
    <glyph glyph-name="uni020F" unicode="&#x20f;" horiz-adv-x="1163" 
d="M453 1134l-16 5q24 123 104 203t203 80q126 0 178 -79.5t32 -203.5l-17 -5q4 90 -50 132.5t-163 42.5q-216 0 -271 -175zM496 -24q-187 0 -303.5 122t-116.5 314q0 126 50 239.5t132.5 194t193 128t228.5 47.5q189 0 305.5 -123t116.5 -315q0 -168 -83.5 -308.5
t-222.5 -219.5t-300 -79zM502 6q121 0 223.5 79.5t163 219.5t60.5 308q0 170 -73.5 274t-200.5 104q-120 0 -223 -80.5t-164 -222t-61 -311.5q0 -167 73.5 -269t201.5 -102z" />
    <glyph glyph-name="uni0210" unicode="&#x210;" horiz-adv-x="1332" 
d="M454 0h-503l4 20l187 53l228 1292l-168 54l3 20h609q216 0 317 -96t72 -260q-30 -170 -150 -269t-290 -126l-1 -5q70 -17 97 -17h3l231 -585l118 -61l-3 -20h-257l-247 680q-57 -7 -121 -7h-111l7 38h116q377 0 441 366q27 152 -40 238t-237 86h-237l-234 -1327l170 -54z
M657 1712l8 11h190l23 -181h-15zM437 1712l8 11h190l23 -181h-15z" />
    <glyph glyph-name="uni0211" unicode="&#x211;" horiz-adv-x="791" 
d="M678 1148l-237 220l8 11h180l64 -231h-15zM430 1143l-237 220l8 11h180l64 -231h-15zM89 -5l160 901l-146 41l4 19l289 65l10 -11l-85 -428h6q23 57 77.5 132.5t119.5 144t137.5 115.5t124.5 47q37 0 76 -23l-60 -256h-14q-15 58 -44.5 107t-55.5 72q-30 0 -88.5 -50.5
t-120 -126.5t-115.5 -177.5t-72 -190.5l-64 -370z" />
    <glyph glyph-name="uni0212" unicode="&#x212;" horiz-adv-x="1332" 
d="M501 1513l-16 5q18 96 98.5 169.5t200.5 73.5q123 0 177.5 -73t40.5 -170l-17 -5q-2 63 -59 99t-162 36q-103 0 -171 -36t-92 -99zM-49 0l4 20l187 53l228 1292l-168 54l3 20h609q216 0 317 -96t72 -260q-30 -170 -150 -269t-290 -126l-1 -5q70 -17 97 -17h3l231 -585
l118 -61l-3 -20h-257l-247 680q-57 -7 -121 -7h-111l7 38h116q377 0 441 366q27 152 -40 238t-237 86h-237l-234 -1327l170 -54l-4 -20h-503z" />
    <glyph glyph-name="uni0213" unicode="&#x213;" horiz-adv-x="791" 
d="M261 1134l-16 5q24 123 104 203t203 80q126 0 178 -79.5t32 -203.5l-17 -5q4 90 -50 132.5t-163 42.5q-216 0 -271 -175zM89 -5l160 901l-146 41l4 19l289 65l10 -11l-85 -428h6q23 57 77.5 132.5t119.5 144t137.5 115.5t124.5 47q37 0 76 -23l-60 -256h-14
q-15 58 -44.5 107t-55.5 72q-30 0 -88.5 -50.5t-120 -126.5t-115.5 -177.5t-72 -190.5l-64 -370z" />
    <glyph glyph-name="uni0214" unicode="&#x214;" horiz-adv-x="1391" 
d="M818 1542l-206 170l8 11h190l23 -181h-15zM1048 1542l-206 170l8 11h190l23 -181h-15zM621 -24q-111 0 -199 31.5t-147 92t-82 153.5t-2 210l159 902l-169 54l3 20h504l-3 -20l-189 -54l-157 -888q-38 -221 51 -342.5t274 -121.5q107 0 193.5 36.5t145 101.5t95.5 146.5
t54 179.5l155 877l-167 66l3 19h396l-3 -19l-191 -66l-152 -861q-43 -245 -185 -381t-387 -136z" />
    <glyph glyph-name="uni0215" unicode="&#x215;" horiz-adv-x="1179" 
d="M883 1148l-237 220l8 11h180l64 -231h-15zM635 1143l-237 220l8 11h180l64 -231h-15zM353 -24q-123 0 -178.5 88.5t-28.5 245.5l102 586l-146 41l4 19l289 65l10 -11l-20 -127l-104 -577q-20 -113 9.5 -181t100.5 -68q48 0 117.5 42t141 113t135 181t92.5 231l49 272
l-146 41l3 19l290 65l10 -11l-23 -126l-120 -684q-15 -92 -12 -123.5t27 -31.5q33 0 78 28.5t90 86.5l14 -13q-61 -90 -117 -130.5t-121 -40.5q-61 0 -85 35t-16.5 130t51.5 274h-7q-31 -83 -113 -185t-188 -178t-188 -76z" />
    <glyph glyph-name="uni0216" unicode="&#x216;" horiz-adv-x="1391" 
d="M634 1513l-16 5q18 96 98.5 169.5t200.5 73.5q123 0 177.5 -73t40.5 -170l-17 -5q-2 63 -59 99t-162 36q-103 0 -171 -36t-92 -99zM621 -24q-111 0 -199 31.5t-147 92t-82 153.5t-2 210l159 902l-169 54l3 20h504l-3 -20l-189 -54l-157 -888q-38 -221 51 -342.5
t274 -121.5q107 0 193.5 36.5t145 101.5t95.5 146.5t54 179.5l155 877l-167 66l3 19h396l-3 -19l-191 -66l-152 -861q-43 -245 -185 -381t-387 -136z" />
    <glyph glyph-name="uni0217" unicode="&#x217;" horiz-adv-x="1179" 
d="M466 1134l-16 5q24 123 104 203t203 80q126 0 178 -79.5t32 -203.5l-17 -5q4 90 -50 132.5t-163 42.5q-216 0 -271 -175zM353 -24q-123 0 -178.5 88.5t-28.5 245.5l102 586l-146 41l4 19l289 65l10 -11l-20 -127l-104 -577q-20 -113 9.5 -181t100.5 -68q48 0 117.5 42
t141 113t135 181t92.5 231l49 272l-146 41l3 19l290 65l10 -11l-23 -126l-120 -684q-15 -92 -12 -123.5t27 -31.5q33 0 78 28.5t90 86.5l14 -13q-61 -90 -117 -130.5t-121 -40.5q-61 0 -85 35t-16.5 130t51.5 274h-7q-31 -83 -113 -185t-188 -178t-188 -76z" />
    <glyph glyph-name="uni0218" unicode="&#x218;" horiz-adv-x="1076" 
d="M415 -24q-192 0 -395 117l38 344h13q32 -225 117.5 -324t235.5 -99q159 0 259.5 78.5t126.5 221.5q12 67 1 118.5t-48.5 95t-85 76.5t-126.5 76l-58 32q-54 29 -92.5 53.5t-85 63.5t-73.5 78t-40.5 92.5t-2.5 111.5q32 167 173.5 259t345.5 92q94 0 194.5 -33.5
t185.5 -86.5l-34 -342h-14q-37 228 -112.5 326t-244.5 98q-121 0 -210.5 -74.5t-111.5 -199.5q-13 -74 7 -126.5t69 -93.5t146 -94l64 -35q80 -44 131.5 -79t108 -90.5t78.5 -125t7 -151.5q-17 -98 -72 -173t-134.5 -119t-170 -65.5t-190.5 -21.5zM298 -418l-4 10
q64 55 72 97q9 57 -47 110l168 101q31 -60 22 -112q-12 -67 -75 -123.5t-136 -82.5z" />
    <glyph glyph-name="uni0219" unicode="&#x219;" horiz-adv-x="906" 
d="M361 -24q-87 0 -178.5 23t-144.5 52l98 220h17q29 -172 79 -247q68 -18 154 -18q73 0 126 19.5t81 53t41 69.5t13 76q0 18 -3 34t-11.5 31t-15 26t-23 24.5t-26 21.5t-32.5 22t-34 20.5t-39.5 22t-40.5 22.5q-113 63 -152 94q-99 79 -99 180q0 144 115.5 221.5
t292.5 77.5q66 0 143.5 -18t130.5 -43l-76 -215h-18q-46 175 -83 232q-39 14 -117 14q-125 0 -190 -65.5t-65 -147.5q0 -63 52 -112t151 -103q52 -28 80.5 -45t71 -47t65 -55.5t39.5 -62t17 -75.5q0 -141 -116.5 -221.5t-302.5 -80.5zM198 -418l-4 10q64 55 72 97
q9 57 -47 110l168 101q31 -60 22 -112q-12 -67 -75 -123.5t-136 -82.5z" />
    <glyph glyph-name="uni021A" unicode="&#x21a;" horiz-adv-x="1215" 
d="M183 1124l55 315h1071l-55 -315h-9l-65 277h-340l-234 -1327l170 -54l-4 -20h-505l4 20l189 54l234 1327h-342l-158 -277h-11zM368 -418l-4 10q64 55 72 97q9 57 -47 110l168 101q31 -60 22 -112q-12 -67 -75 -123.5t-136 -82.5z" />
    <glyph glyph-name="uni021B" unicode="&#x21b;" horiz-adv-x="713" 
d="M326 -24q-107 0 -156.5 70t-27.5 194l128 724h-138l3 15l140 48l160 181h13l-38 -214h323l-5 -30h-322l-133 -761q-12 -67 13 -110t73 -43q137 0 253 80l12 -12q-39 -57 -126.5 -99.5t-171.5 -42.5zM122 -418l-4 10q64 55 72 97q9 57 -47 110l168 101q31 -60 22 -112
q-12 -67 -75 -123.5t-136 -82.5z" />
    <glyph glyph-name="uni021C" unicode="&#x21c;" horiz-adv-x="1143" 
d="M379 -214q-114 0 -220.5 28.5t-152.5 65.5l39 360h18q11 -68 23 -119t37 -110.5t58.5 -97.5t88.5 -64t126 -26q167 0 295 114t166 330q11 62 12 115t-8.5 95.5t-28 76.5t-47 60.5t-63.5 46t-80.5 33.5t-95.5 22.5t-111 13.5l5 29l554 562h-647l-144 -233h-8l62 351h865
l14 -21l-620 -631v-2q307 -33 422.5 -150.5t75.5 -341.5q-22 -126 -83.5 -224.5t-148.5 -159.5t-189.5 -92t-213.5 -31z" />
    <glyph glyph-name="uni021D" unicode="&#x21d;" horiz-adv-x="1033" 
d="M270 -464q-101 0 -195 22.5t-148 52.5l96 219h18q29 -170 77 -246q23 -7 78 -12.5t79 -5.5q152 0 264.5 100.5t146.5 295.5q10 73 9 129.5t-21.5 100t-50.5 74.5t-78 52t-103 33t-125 17l5 27l502 492h-548l-149 -146h-11l45 253h772l13 -21l-560 -550v-2
q280 -31 384 -136t69 -302q-15 -89 -54 -163t-94 -126t-123.5 -88t-143.5 -53t-154 -17z" />
    <glyph glyph-name="uni021E" unicode="&#x21e;" horiz-adv-x="1505" 
d="M905 1533l-166 248l21 9l201 -118l240 118l15 -9l-252 -248h-59zM-49 0l4 20l187 53l228 1292l-168 54l3 20h503l-3 -20l-189 -54l-107 -609h779l107 609l-168 54l3 20h503l-3 -20l-189 -54l-228 -1291l170 -54l-4 -20h-503l4 20l187 53l114 645h-779l-114 -644l170 -54
l-4 -20h-503z" />
    <glyph glyph-name="uni021F" unicode="&#x21f;" horiz-adv-x="1165" 
d="M819 1236l-159 288l21 9l194 -158l247 158l15 -9l-259 -288h-59zM885 -24q-48 0 -72.5 21t-32 78t13.5 158l83 456q20 114 -10 187t-100 73q-51 0 -121 -43t-140.5 -116t-133 -184.5t-91.5 -232.5l-65 -373h-137l243 1372l-149 42l4 19l292 64l10 -11l-138 -776l-31 -127
l5 -1q23 61 77 137t121.5 143.5t147 113t145.5 45.5q122 0 178.5 -89t28.5 -246l-85 -486q-16 -92 -13 -123.5t27 -31.5q33 0 78 28.5t89 86.5l14 -13q-61 -90 -117 -130.5t-121 -40.5z" />
    <glyph glyph-name="uni0226" unicode="&#x226;" horiz-adv-x="1429" 
d="M860 1547q-40 0 -61.5 24t-14.5 63q7 38 37 63t70 25t61 -25t14 -63q-7 -39 -36.5 -63t-69.5 -24zM-83 0l4 20l192 54l655 1245l-69 100l3 20h213l250 -1365l167 -54l-4 -20h-495l4 20l173 54l-72 409h-569l-216 -409l209 -54l-4 -20h-441zM388 521h542l-137 771z" />
    <glyph glyph-name="uni0227" unicode="&#x227;" horiz-adv-x="1170" 
d="M697 1162q-40 0 -61.5 24t-14.5 63q7 38 37 63t70 25t61 -25t14 -63q-7 -39 -36.5 -63t-69.5 -24zM355 -24q-126 0 -201.5 101t-75.5 277q0 130 46.5 251.5t126.5 213t195 147t244 55.5q77 0 136 -35t84 -78l163 112h4l-145 -820q-11 -61 -12.5 -95t4.5 -47t21 -13
q33 0 78.5 29t90.5 86l14 -13q-62 -90 -118 -130.5t-121 -40.5q-32 0 -52 8t-35 34.5t-15.5 74t12.5 128t43 194.5h-8q-78 -177 -213 -308t-266 -131zM402 55q50 0 116 40.5t132.5 110t125.5 175.5t90 224l33 168q-11 97 -71 157t-142 60q-122 0 -226 -87t-163.5 -231
t-59.5 -309q0 -308 165 -308z" />
    <glyph glyph-name="uni0228" unicode="&#x228;" horiz-adv-x="1166" 
d="M498 0h-547l4 20l187 53l228 1292l-168 54l3 20h979l-62 -351h-8l-78 313h-514l-113 -644h340l124 189h16l-73 -414h-16l-58 187h-340l-120 -681h588l242 315l8 -2l-117 -351h-470l-83 -91q71 -11 108.5 -52t26.5 -102q-13 -75 -94 -130t-205 -79l-2 11q163 60 183 172
q17 95 -87 123l-1 14z" />
    <glyph glyph-name="uni0229" unicode="&#x229;" horiz-adv-x="993" 
d="M963 578h-713q-22 -88 -22 -163q0 -354 282 -354q97 0 192.5 43.5t156.5 116.5l13 -9q-70 -115 -182.5 -175.5t-251.5 -60.5h-13l-61 -67q71 -11 108.5 -52t26.5 -102q-13 -75 -94 -130t-205 -79l-2 11q163 60 183 172q17 95 -87 123l-1 14l99 112q-148 16 -233.5 124
t-85.5 276q0 135 46 255.5t123 205t181 133.5t216 49q160 0 246.5 -94t86.5 -247q0 -50 -9 -102zM628 990q-71 0 -133.5 -34t-108 -92t-78 -124.5t-52.5 -140.5l567 23q11 68 11 118q0 121 -53.5 185.5t-152.5 64.5z" />
    <glyph glyph-name="uni022A" unicode="&#x22a;" horiz-adv-x="1517" 
d="M730 1776l6 37h508l-6 -37h-508zM790 1559q-38 0 -58.5 25t-13.5 62t36 61t67 24q39 0 59 -24t14 -61q-7 -37 -36 -62t-68 -25zM1100 1559q-38 0 -58.5 24.5t-13.5 62.5q7 37 36 61t67 24t59 -24t14 -61q-7 -38 -36 -62.5t-68 -24.5zM666 -24q-118 0 -217 35.5t-170 101
t-116.5 157t-56.5 204.5t10 243q38 215 154.5 385t289 265t368.5 95q197 0 335.5 -95t196 -265t19.5 -385q-38 -213 -154.5 -382.5t-289 -264t-369.5 -94.5zM673 13q239 0 411.5 192.5t228.5 511.5q34 214 3 371t-133.5 246.5t-261.5 89.5q-240 0 -411.5 -193t-227.5 -514
q-34 -212 -3.5 -368.5t133 -246t261.5 -89.5z" />
    <glyph glyph-name="uni022B" unicode="&#x22b;" horiz-adv-x="1163" 
d="M496 1396l6 37h508l-6 -37h-508zM543 1159q-38 0 -58.5 25t-13.5 62t36 61t67 24q39 0 59 -24t14 -61q-7 -37 -36 -62t-68 -25zM853 1159q-38 0 -58.5 24.5t-13.5 62.5q7 37 36 61t67 24t59 -24t14 -61q-7 -38 -36 -62.5t-68 -24.5zM496 -24q-187 0 -303.5 122
t-116.5 314q0 126 50 239.5t132.5 194t193 128t228.5 47.5q189 0 305.5 -123t116.5 -315q0 -168 -83.5 -308.5t-222.5 -219.5t-300 -79zM502 6q121 0 223.5 79.5t163 219.5t60.5 308q0 170 -73.5 274t-200.5 104q-120 0 -223 -80.5t-164 -222t-61 -311.5q0 -167 73.5 -269
t201.5 -102z" />
    <glyph glyph-name="uni022C" unicode="&#x22c;" horiz-adv-x="1517" 
d="M740 1814l6 37h508l-6 -37h-508zM695 1538l-13 4q31 85 80 141t117 56q36 0 105 -50t107 -50q81 0 138 100l11 -4q-28 -84 -78 -140.5t-117 -56.5q-33 0 -71 25t-75 49.5t-67 24.5q-83 0 -137 -99zM666 -24q-118 0 -217 35.5t-170 101t-116.5 157t-56.5 204.5t10 243
q38 215 154.5 385t289 265t368.5 95q197 0 335.5 -95t196 -265t19.5 -385q-38 -213 -154.5 -382.5t-289 -264t-369.5 -94.5zM673 13q239 0 411.5 192.5t228.5 511.5q34 214 3 371t-133.5 246.5t-261.5 89.5q-240 0 -411.5 -193t-227.5 -514q-34 -212 -3.5 -368.5t133 -246
t261.5 -89.5z" />
    <glyph glyph-name="uni022D" unicode="&#x22d;" horiz-adv-x="1163" 
d="M502 1465l6 37h508l-6 -37h-508zM455 1179l-13 4q31 85 80 141t117 56q36 0 105 -50t107 -50q81 0 138 100l11 -4q-28 -84 -78 -140.5t-117 -56.5q-33 0 -71 24.5t-75 49.5t-67 25q-83 0 -137 -99zM496 -24q-187 0 -303.5 122t-116.5 314q0 126 50 239.5t132.5 194
t193 128t228.5 47.5q189 0 305.5 -123t116.5 -315q0 -168 -83.5 -308.5t-222.5 -219.5t-300 -79zM502 6q121 0 223.5 79.5t163 219.5t60.5 308q0 170 -73.5 274t-200.5 104q-120 0 -223 -80.5t-164 -222t-61 -311.5q0 -167 73.5 -269t201.5 -102z" />
    <glyph glyph-name="uni022E" unicode="&#x22e;" horiz-adv-x="1517" 
d="M944 1547q-40 0 -61.5 24t-14.5 63q7 38 37 63t70 25t61 -25t14 -63q-7 -39 -36.5 -63t-69.5 -24zM666 -24q-118 0 -217 35.5t-170 101t-116.5 157t-56.5 204.5t10 243q38 215 154.5 385t289 265t368.5 95q197 0 335.5 -95t196 -265t19.5 -385q-38 -213 -154.5 -382.5
t-289 -264t-369.5 -94.5zM673 13q239 0 411.5 192.5t228.5 511.5q34 214 3 371t-133.5 246.5t-261.5 89.5q-240 0 -411.5 -193t-227.5 -514q-34 -212 -3.5 -368.5t133 -246t261.5 -89.5z" />
    <glyph glyph-name="uni022F" unicode="&#x22f;" horiz-adv-x="1163" 
d="M699 1162q-40 0 -61.5 24t-14.5 63q7 38 37 63t70 25t61 -25t14 -63q-7 -39 -36.5 -63t-69.5 -24zM496 -24q-187 0 -303.5 122t-116.5 314q0 126 50 239.5t132.5 194t193 128t228.5 47.5q189 0 305.5 -123t116.5 -315q0 -168 -83.5 -308.5t-222.5 -219.5t-300 -79zM502 6
q121 0 223.5 79.5t163 219.5t60.5 308q0 170 -73.5 274t-200.5 104q-120 0 -223 -80.5t-164 -222t-61 -311.5q0 -167 73.5 -269t201.5 -102z" />
    <glyph glyph-name="uni0230" unicode="&#x230;" horiz-adv-x="1517" 
d="M731 1784l6 37h508l-6 -37h-508zM944 1547q-40 0 -61.5 24t-14.5 63q7 38 37 63t70 25t61 -25t14 -63q-7 -39 -36.5 -63t-69.5 -24zM666 -24q-118 0 -217 35.5t-170 101t-116.5 157t-56.5 204.5t10 243q38 215 154.5 385t289 265t368.5 95q197 0 335.5 -95t196 -265
t19.5 -385q-38 -213 -154.5 -382.5t-289 -264t-369.5 -94.5zM673 13q239 0 411.5 192.5t228.5 511.5q34 214 3 371t-133.5 246.5t-261.5 89.5q-240 0 -411.5 -193t-227.5 -514q-34 -212 -3.5 -368.5t133 -246t261.5 -89.5z" />
    <glyph glyph-name="uni0231" unicode="&#x231;" horiz-adv-x="1163" 
d="M491 1422l6 37h508l-6 -37h-508zM699 1162q-40 0 -61.5 24t-14.5 63q7 38 37 63t70 25t61 -25t14 -63q-7 -39 -36.5 -63t-69.5 -24zM496 -24q-187 0 -303.5 122t-116.5 314q0 126 50 239.5t132.5 194t193 128t228.5 47.5q189 0 305.5 -123t116.5 -315
q0 -168 -83.5 -308.5t-222.5 -219.5t-300 -79zM502 6q121 0 223.5 79.5t163 219.5t60.5 308q0 170 -73.5 274t-200.5 104q-120 0 -223 -80.5t-164 -222t-61 -311.5q0 -167 73.5 -269t201.5 -102z" />
    <glyph glyph-name="uni0232" unicode="&#x232;" horiz-adv-x="1351" 
d="M612 1578l6 37h508l-6 -37h-508zM335 0l4 20l187 53l100 566l-291 726l-168 53l4 21h501l-4 -21l-171 -53l270 -658l519 655l-217 56l4 21h453l-4 -21l-189 -53l-557 -701l-104 -590l170 -54l-4 -20h-503z" />
    <glyph glyph-name="uni0233" unicode="&#x233;" horiz-adv-x="909" 
d="M330 1229l6 37h508l-6 -37h-508zM-112 -422l-62 177l9 16q117 -16 166 -16q42 0 72 5q66 49 155.5 139.5t140.5 159.5q-36 438 -128 751q-25 84 -42.5 112.5t-40.5 28.5q-44 0 -124 -117l-14 11q54 92 97.5 134t113.5 42q62 0 93 -42t55 -146q88 -379 103 -652
q62 73 110.5 142t91.5 150.5t70.5 139.5t75.5 169l-73 192l3 20h186l-3 -20q-110 -316 -245.5 -542t-351.5 -463q-151 -165 -258.5 -254.5t-199.5 -136.5z" />
    <glyph glyph-name="uni0237" unicode="&#x237;" horiz-adv-x="533" 
d="M-87 -415l-3 16q180 121 217 335l170 960l-145 41l4 19l288 65l10 -11l-163 -924q-76 -433 -378 -501z" />
    <glyph glyph-name="uni0259" unicode="&#x259;" horiz-adv-x="993" 
d="M555 1018q169 0 267 -110t98 -292q0 -135 -46 -255.5t-123 -205t-181 -133.5t-216 -49q-160 0 -246.5 94t-86.5 247q0 50 9 102h713q22 88 22 163q0 354 -282 354q-97 0 -192.5 -43.5t-156.5 -116.5l-13 9q70 115 182.5 175.5t251.5 60.5zM365 4q71 0 133.5 34t108 92
t78 124.5t52.5 140.5l-567 -23q-11 -68 -11 -118q0 -121 53.5 -185.5t152.5 -64.5z" />
    <glyph glyph-name="uni026E" unicode="&#x26e;" horiz-adv-x="1339" 
d="M692 421q280 -31 384 -136t69 -302q-15 -89 -54 -163t-94 -126t-123.5 -88t-143.5 -53t-154 -17q-101 0 -195 22.5t-148 52.5l96 219h18q29 -170 77 -246q23 -7 78 -12.5t79 -5.5q152 0 264.5 100.5t146.5 295.5q10 73 9 129.5t-21.5 100t-50.5 74.5t-78 52t-103 33
t-125 17l5 27l502 492h-743l-145 -826l167 -41l-4 -20h-482l4 20l181 41l231 1312l-104 38l4 22l244 64l10 -11l-87 -492h833l13 -21l-560 -550v-2z" />
    <glyph glyph-name="uni0272" unicode="&#x272;" horiz-adv-x="1223" 
d="M-87 -415l-3 16q91 61 144.5 140t73.5 193l167 962l-146 41l4 19l289 65l10 -11l-84 -428h5q32 84 112 184.5t186.5 177.5t192.5 77q123 0 179 -88.5t28 -245.5l-97 -559q-8 -39 -2.5 -61t28.5 -22q33 0 78 28.5t89 86.5l14 -13q-61 -90 -117 -130.5t-121 -40.5
q-71 0 -95.5 46t-4.5 159l92 509q20 113 -8 186t-92 73q-54 0 -126.5 -43t-144 -116.5t-134 -184t-91.5 -232.5l-51 -289q-76 -432 -375 -499z" />
    <glyph glyph-name="uni0292" unicode="&#x292;" horiz-adv-x="1033" 
d="M270 -464q-101 0 -195 22.5t-148 52.5l96 219h18q29 -170 77 -246q23 -7 78 -12.5t79 -5.5q152 0 264.5 100.5t146.5 295.5q10 73 9 129.5t-21.5 100t-50.5 74.5t-78 52t-103 33t-125 17l5 27l502 492h-548l-149 -146h-11l45 253h772l13 -21l-560 -550v-2
q280 -31 384 -136t69 -302q-15 -89 -54 -163t-94 -126t-123.5 -88t-143.5 -53t-154 -17z" />
    <glyph glyph-name="uni02A4" unicode="&#x2a4;" horiz-adv-x="2000" 
d="M1353 421q280 -31 384 -136t69 -302q-15 -89 -54 -163t-94 -126t-123.5 -88t-143.5 -53t-154 -17q-101 0 -195 22.5t-148 52.5l96 219h18q29 -170 77 -246q23 -7 78 -12.5t79 -5.5q152 0 264.5 100.5t146.5 295.5q10 73 9 129.5t-21.5 100t-50.5 74.5t-78 52t-103 33
t-125 17l5 27l502 492h-742l-142 -805l105 -42l-2 -12l-235 -52l6 141q-90 -69 -172 -105t-189 -36q-194 0 -283 135.5t-51 353.5q43 246 209.5 401t399.5 155q145 0 228 -95l78 447l-105 38l4 22l244 64l10 -11l-87 -492h833l13 -21l-560 -550v-2zM786 151l112 638
q-4 100 -64.5 150.5t-149.5 50.5q-158 0 -279 -137t-159 -350q-38 -214 31.5 -333t225.5 -119q148 0 283 100z" />
    <glyph glyph-name="uni02B0" unicode="&#x2b0;" horiz-adv-x="650" 
d="M107 946l2 9l82 40l110 623l-47 32l2 10l161 37l5 -5l-55 -311q91 79 194 79q69 0 105.5 -41.5t24.5 -108.5l-55 -315h1l67 -40l-2 -9h-256l2 9l81 40l54 305q8 50 -15 79t-76 29q-73 0 -129 -50l-64 -363l66 -40l-2 -9h-256z" />
    <glyph glyph-name="circumflex" unicode="&#x2c6;" horiz-adv-x="883" 
d="M345 1202l-17 9l261 288h59l157 -288l-19 -9l-191 158z" />
    <glyph glyph-name="caron" unicode="&#x2c7;" horiz-adv-x="883" 
d="M536 1202l-159 288l21 9l194 -158l247 158l15 -9l-259 -288h-59z" />
    <glyph glyph-name="breve" unicode="&#x2d8;" horiz-adv-x="884" 
d="M558 1164q-123 0 -175.5 80t-31.5 203l17 5q-3 -91 50 -133t160 -42q220 0 274 175l16 -5q-25 -124 -104.5 -203.5t-205.5 -79.5z" />
    <glyph glyph-name="dotaccent" unicode="&#x2d9;" horiz-adv-x="741" 
d="M503 1252q-40 0 -61.5 24t-14.5 63q7 38 37 63t70 25t61 -25t14 -63q-7 -39 -36.5 -63t-69.5 -24z" />
    <glyph glyph-name="ring" unicode="&#x2da;" horiz-adv-x="625" 
d="M437 1197q-81 0 -126.5 39t-34.5 102t71 102.5t140 39.5q78 0 122.5 -39.5t33.5 -102.5t-69.5 -102t-136.5 -39zM441 1219q72 0 93 119q22 120 -51 120q-75 0 -97 -120q-21 -119 55 -119z" />
    <glyph glyph-name="ogonek" unicode="&#x2db;" horiz-adv-x="671" 
d="M156 -448q-78 0 -113.5 38.5t-23.5 105.5q14 78 93 155t222 162q2 -1 8 -5.5t11 -6.5q-190 -131 -217 -280q-19 -105 90 -105q95 0 178 62l8 -11q-127 -115 -256 -115z" />
    <glyph glyph-name="tilde" unicode="&#x2dc;" horiz-adv-x="861" 
d="M309 1219l-13 4q31 85 80 141t117 56q36 0 105 -50t107 -50q81 0 138 100l11 -4q-28 -84 -78 -140.5t-117 -56.5q-33 0 -71 24.5t-75 49.5t-67 25q-83 0 -137 -99z" />
    <glyph glyph-name="hungarumlaut" unicode="&#x2dd;" horiz-adv-x="739" 
d="M273 1247l112 211h180l5 -11l-282 -200h-15zM529 1245l112 211h180l4 -11l-281 -200h-15z" />
    <glyph glyph-name="uni02E1" unicode="&#x2e1;" horiz-adv-x="313" 
d="M107 946l2 9l82 40l110 623l-47 32l2 10l161 37l5 -5l-123 -697l67 -40l-2 -9h-257z" />
    <glyph glyph-name="uni02E2" unicode="&#x2e2;" horiz-adv-x="467" 
d="M303 934q-45 0 -94 11.5t-76 26.5l51 122h10q27 -105 58 -137q27 -6 61 -6q56 0 84.5 24.5t35.5 62.5t-16 61t-79 52l-32 17q-26 13 -43.5 25t-36 30.5t-25.5 43t-2 53.5q12 69 72.5 104.5t148.5 35.5q75 0 145 -29l-42 -116h-8q-41 103 -59 124q-15 5 -44 5
q-49 0 -79 -25.5t-36 -61.5q-10 -56 79 -103l38 -20q61 -32 93.5 -67.5t23.5 -87.5q-12 -69 -74.5 -107t-153.5 -38z" />
    <glyph glyph-name="gravecomb" unicode="&#x300;" 
d="M-57 1148l-237 220l8 11h180l64 -231h-15z" />
    <glyph glyph-name="acutecomb" unicode="&#x301;" 
d="M-353 1148l146 231h180l4 -11l-315 -220h-15z" />
    <glyph glyph-name="uni0302" unicode="&#x302;" 
d="M-550 1132l-17 9l261 288h59l157 -288l-19 -9l-191 158z" />
    <glyph glyph-name="tildecomb" unicode="&#x303;" 
d="M-659 1179l-13 4q31 85 80 141t117 56q36 0 105 -50t107 -50q81 0 138 100l11 -4q-28 -84 -78 -140.5t-117 -56.5q-33 0 -71 24.5t-75 49.5t-67 25q-83 0 -137 -99z" />
    <glyph glyph-name="uni0304" unicode="&#x304;" 
d="M-529 1229l6 37h508l-6 -37h-508z" />
    <glyph glyph-name="uni0306" unicode="&#x306;" 
d="M-328 1154q-123 0 -175.5 80t-31.5 203l17 5q-3 -91 50 -133t160 -42q220 0 274 175l16 -5q-25 -124 -104.5 -203.5t-205.5 -79.5z" />
    <glyph glyph-name="uni0307" unicode="&#x307;" 
d="M-254 1162q-40 0 -61.5 24t-14.5 63q7 38 37 63t70 25t61 -25t14 -63q-7 -39 -36.5 -63t-69.5 -24z" />
    <glyph glyph-name="uni0308" unicode="&#x308;" 
d="M-515 1159q-38 0 -58.5 25t-13.5 62t36 61t67 24q39 0 59 -24t14 -61q-7 -37 -36 -62t-68 -25zM-205 1159q-38 0 -58.5 24.5t-13.5 62.5q7 37 36 61t67 24t59 -24t14 -61q-7 -38 -36 -62.5t-68 -24.5z" />
    <glyph glyph-name="hookabovecomb" unicode="&#x309;" 
d="M-257 1140l-6 8q58 83 73 150q7 30 1 46.5t-29 16.5q-21 0 -50.5 -26.5t-49.5 -68.5h-5l22 103q46 23 101 23q59 0 96 -25t30 -69q-7 -38 -54 -75t-129 -83z" />
    <glyph glyph-name="uni030A" unicode="&#x30a;" 
d="M-195 1157q-81 0 -126.5 39t-34.5 102t71 102.5t140 39.5q78 0 122.5 -39.5t33.5 -102.5t-69.5 -102t-136.5 -39zM-191 1179q72 0 93 119q22 120 -51 120q-75 0 -97 -120q-21 -119 55 -119z" />
    <glyph glyph-name="uni030B" unicode="&#x30b;" 
d="M-494 1147l112 211h180l5 -11l-282 -200h-15zM-238 1145l112 211h180l4 -11l-281 -200h-15z" />
    <glyph glyph-name="uni030C" unicode="&#x30c;" 
d="M-358 1142l-159 288l21 9l194 -158l247 158l15 -9l-259 -288h-59z" />
    <glyph glyph-name="uni030F" unicode="&#x30f;" 
d="M80 1148l-237 220l8 11h180l64 -231h-15zM-168 1143l-237 220l8 11h180l64 -231h-15z" />
    <glyph glyph-name="uni0311" unicode="&#x311;" 
d="M-132 1134l-16 5q24 123 104 203t203 80q126 0 178 -79.5t32 -203.5l-17 -5q4 90 -50 132.5t-163 42.5q-216 0 -271 -175z" />
    <glyph glyph-name="uni0312" unicode="&#x312;" 
d="M54 1110q-31 60 -22 112q12 67 75 123.5t136 82.5l3 -10q-63 -56 -71 -97q-9 -57 47 -110z" />
    <glyph glyph-name="uni031B" unicode="&#x31b;" 
d="M-206 994l2 11q64 22 91.5 44.5t34.5 61.5q8 45 -12 93l182 43q5 -33 -1 -66q-15 -83 -101.5 -135t-195.5 -52z" />
    <glyph glyph-name="dotbelowcomb" unicode="&#x323;" 
d="M-283 -353q-40 0 -61.5 24t-14.5 63q7 38 37 63t70 25t61 -25t14 -63q-7 -39 -36.5 -63t-69.5 -24z" />
    <glyph glyph-name="uni0324" unicode="&#x324;" 
d="M-604 -385q-38 0 -58.5 25t-13.5 62t36 61t67 24q39 0 59 -24t14 -61q-7 -37 -36 -62t-68 -25zM-294 -385q-38 0 -58.5 24.5t-13.5 62.5q7 37 36 61t67 24t59 -24t14 -61q-7 -38 -36 -62.5t-68 -24.5z" />
    <glyph glyph-name="uni0325" unicode="&#x325;" 
d="M-465 -373q-81 0 -126.5 39t-34.5 102t71 102.5t140 39.5q78 0 122.5 -39.5t33.5 -102.5t-69.5 -102t-136.5 -39zM-461 -351q72 0 93 119q22 120 -51 120q-75 0 -97 -120q-21 -119 55 -119z" />
    <glyph glyph-name="uni0326" unicode="&#x326;" 
d="M-391 -418l-4 10q64 55 72 97q9 57 -47 110l168 101q31 -60 22 -112q-12 -67 -75 -123.5t-136 -82.5z" />
    <glyph glyph-name="uni0327" unicode="&#x327;" 
d="M-665 -454l-2 11q163 60 183 172q17 95 -87 123l-1 14l131 148l33 -3l-93 -102q71 -11 108.5 -52t26.5 -102q-13 -75 -94 -130t-205 -79z" />
    <glyph glyph-name="uni0328" unicode="&#x328;" 
d="M-515 -448q-78 0 -113.5 38.5t-23.5 105.5q14 78 93 155t222 162q2 -1 8 -5.5t11 -6.5q-190 -131 -217 -280q-19 -105 90 -105q95 0 178 62l8 -11q-127 -115 -256 -115z" />
    <glyph glyph-name="uni032D" unicode="&#x32d;" 
d="M-836 -490l-17 9l261 288h59l157 -288l-19 -9l-191 158z" />
    <glyph glyph-name="uni032E" unicode="&#x32e;" 
d="M-438 -401q-123 0 -175.5 80t-31.5 203l17 5q-3 -91 50 -133t160 -42q220 0 274 175l16 -5q-25 -124 -104.5 -203.5t-205.5 -79.5z" />
    <glyph glyph-name="uni0330" unicode="&#x330;" 
d="M-826 -333l-13 4q31 85 80 141t117 56q36 0 105 -50t107 -50q81 0 138 100l11 -4q-28 -84 -78 -140.5t-117 -56.5q-33 0 -71 24.5t-75 49.5t-67 25q-83 0 -137 -99z" />
    <glyph glyph-name="uni0331" unicode="&#x331;" 
d="M-703 -216l6 37h508l-6 -37h-508z" />
    <glyph glyph-name="uni0336" unicode="&#x336;" 
d="M-585 455l6 37h348l-6 -37h-348z" />
    <glyph glyph-name="uni0338" unicode="&#x338;" 
d="M-947 -131l677 1261h55l-677 -1261h-55z" />
    <glyph glyph-name="tonos" unicode="&#x384;" horiz-adv-x="739" 
d="M275 1167l60 203h180l4 -11l-229 -192h-15z" />
    <glyph glyph-name="dieresistonos" unicode="&#x385;" horiz-adv-x="951" 
d="M567 1237l60 203h180l4 -11l-229 -192h-15zM433 1139q-38 0 -58.5 25t-13.5 62q6 37 35.5 61t67.5 24q39 0 59 -24t14 -61q-7 -37 -36 -62t-68 -25zM743 1139q-38 0 -58.5 24.5t-13.5 62.5q6 37 35 61t68 24q38 0 58.5 -23.5t14.5 -61.5q-7 -38 -36 -62.5t-68 -24.5z" />
    <glyph glyph-name="Alphatonos" unicode="&#x386;" horiz-adv-x="1429" 
d="M319 1239l60 203h180l4 -11l-229 -192h-15zM-83 0l4 20l192 54l655 1245l-69 100l3 20h213l250 -1365l167 -54l-4 -20h-495l4 20l173 54l-72 409h-569l-216 -409l209 -54l-4 -20h-441zM388 521h542l-137 771z" />
    <glyph glyph-name="Epsilontonos" unicode="&#x388;" horiz-adv-x="1166" 
d="M-82 1239l60 203h180l4 -11l-229 -192h-15zM-49 0l4 20l187 53l228 1292l-168 54l3 20h979l-62 -351h-8l-78 313h-514l-113 -644h340l124 189h16l-73 -414h-16l-58 187h-340l-120 -681h588l242 315l8 -2l-117 -351h-1052z" />
    <glyph glyph-name="Etatonos" unicode="&#x389;" horiz-adv-x="1505" 
d="M-82 1239l60 203h180l4 -11l-229 -192h-15zM-49 0l4 20l187 53l228 1292l-168 54l3 20h503l-3 -20l-189 -54l-107 -609h779l107 609l-168 54l3 20h503l-3 -20l-189 -54l-228 -1291l170 -54l-4 -20h-503l4 20l187 53l114 645h-779l-114 -644l170 -54l-4 -20h-503z" />
    <glyph glyph-name="Iotatonos" unicode="&#x38a;" horiz-adv-x="580" 
d="M-82 1239l60 203h180l4 -11l-229 -192h-15zM-49 0l4 20l187 53l228 1292l-168 54l3 20h503l-3 -20l-189 -54l-228 -1291l170 -54l-4 -20h-503z" />
    <glyph glyph-name="Omicrontonos" unicode="&#x38c;" horiz-adv-x="1517" 
d="M666 -24q-118 0 -217 35.5t-170 101t-116.5 157t-56.5 204.5t10 243q38 215 154.5 385t289 265t368.5 95q197 0 335.5 -95t196 -265t19.5 -385q-38 -213 -154.5 -382.5t-289 -264t-369.5 -94.5zM128 1239l60 203h180l4 -11l-229 -192h-15zM673 13q239 0 411.5 192.5
t228.5 511.5q34 214 3 371t-133.5 246.5t-261.5 89.5q-240 0 -411.5 -193t-227.5 -514q-34 -212 -3.5 -368.5t133 -246t261.5 -89.5z" />
    <glyph glyph-name="Upsilontonos" unicode="&#x38e;" horiz-adv-x="1351" 
d="M335 0l4 20l187 53l56 316q25 134 5.5 287t-67 293.5t-122 258.5t-159.5 181l-72 9l4 21q89 19 236 23q120 -149 207 -380t100 -505q70 158 153.5 301.5t167.5 252.5t156.5 188.5t144.5 142.5q112 -5 190 -23l-4 -21q-62 0 -157 -69t-195.5 -184t-193.5 -249.5
t-161.5 -280t-89.5 -261.5l-53 -300l170 -54l-4 -20h-503zM-112 1239l60 203h180l4 -11l-229 -192h-15z" />
    <glyph glyph-name="Omegatonos" unicode="&#x38f;" horiz-adv-x="1599" 
d="M57 0l8 427l11 3l145 -387h294l52 116q-80 29 -159 101.5t-138 165t-88.5 203.5t-12.5 208q29 163 144.5 306t292 231t369.5 88q204 0 346 -83t200 -224.5t27 -316.5q-17 -97 -85.5 -208t-160 -204t-196.5 -165.5t-195 -101.5l11 -116h296l281 387l11 -3l-144 -427h-478
l-8 157q175 85 317.5 283t177.5 396q14 66 10 135t-17.5 134.5t-47.5 124t-80.5 102t-116 69t-154.5 25.5q-111 0 -205.5 -30.5t-163 -84t-121.5 -128.5t-85 -161t-50 -186q-22 -125 2.5 -261t91.5 -249t160 -169l-65 -157h-476zM138 1239l60 203h180l4 -11l-229 -192h-15z
" />
    <glyph glyph-name="iotadieresistonos" unicode="&#x390;" horiz-adv-x="606" 
d="M395 1237l60 203h180l4 -11l-229 -192h-15zM261 1139q-38 0 -58.5 25t-13.5 62q6 37 35.5 61t67.5 24q39 0 59 -24t14 -61q-7 -37 -36 -62t-68 -25zM571 1139q-38 0 -58.5 24.5t-13.5 62.5q6 37 35 61t68 24q38 0 58.5 -23.5t14.5 -61.5q-7 -38 -36 -62.5t-68 -24.5z
M253 -24q-81 0 -111 54.5t-6 188.5l120 678l-146 40l3 19l286 65l10 -11l-142 -808q-16 -91 3 -122t69 -31q69 0 148 35l7 -16q-136 -92 -241 -92z" />
    <glyph glyph-name="Alpha" unicode="&#x391;" horiz-adv-x="1429" 
d="M-83 0l4 20l192 54l655 1245l-69 100l3 20h213l250 -1365l167 -54l-4 -20h-495l4 20l173 54l-72 409h-569l-216 -409l209 -54l-4 -20h-441zM388 521h542l-137 771z" />
    <glyph glyph-name="Beta" unicode="&#x392;" horiz-adv-x="1232" 
d="M-49 0l4 20l187 54l228 1291l-168 54l3 20h590q123 0 211 -27.5t135 -75t63.5 -107t4.5 -128.5q-23 -128 -119.5 -220.5t-243.5 -126.5v-4q169 -20 244 -120t50 -243q-35 -195 -199 -291t-439 -96h-551zM410 764h261q156 0 250 90.5t119 233.5q27 150 -46.5 231.5
t-241.5 81.5h-230zM282 38h257q185 0 295.5 93t139.5 256q28 161 -46 250t-255 89h-270z" />
    <glyph glyph-name="Gamma" unicode="&#x393;" horiz-adv-x="1084" 
d="M-49 0l4 20l187 53l228 1292l-168 54l3 20h973l-62 -351h-8l-77 314h-508l-235 -1328l191 -54l-4 -20h-524z" />
    <glyph glyph-name="uni0394" unicode="&#x394;" horiz-adv-x="1440" 
d="M-83 0l4 20l192 54l658 1245l-66 100l3 20h213l255 -1365l167 -54l-4 -20h-1422zM141 37h882l-224 1255z" />
    <glyph glyph-name="Epsilon" unicode="&#x395;" horiz-adv-x="1166" 
d="M-49 0l4 20l187 53l228 1292l-168 54l3 20h979l-62 -351h-8l-78 313h-514l-113 -644h340l124 189h16l-73 -414h-16l-58 187h-340l-120 -681h588l242 315l8 -2l-117 -351h-1052z" />
    <glyph glyph-name="Zeta" unicode="&#x396;" horiz-adv-x="1224" 
d="M-7 0l1 24l1105 1377h-649l-224 -297h-10l101 335h965l-2 -25l-1110 -1377h743l227 300l8 -2l-102 -335h-1053z" />
    <glyph glyph-name="Eta" unicode="&#x397;" horiz-adv-x="1505" 
d="M-49 0l4 20l187 53l228 1292l-168 54l3 20h503l-3 -20l-189 -54l-107 -609h779l107 609l-168 54l3 20h503l-3 -20l-189 -54l-228 -1291l170 -54l-4 -20h-503l4 20l187 53l114 645h-779l-114 -644l170 -54l-4 -20h-503z" />
    <glyph glyph-name="Theta" unicode="&#x398;" horiz-adv-x="1517" 
d="M666 -24q-118 0 -217 35.5t-170 101t-116.5 157t-56.5 204.5t10 243q38 215 154.5 385t289 265t368.5 95q197 0 335.5 -95t196 -265t19.5 -385q-38 -213 -154.5 -382.5t-289 -264t-369.5 -94.5zM673 13q239 0 411.5 192.5t228.5 511.5q34 214 3 371t-133.5 246.5
t-261.5 89.5q-240 0 -411.5 -193t-227.5 -514q-34 -212 -3.5 -368.5t133 -246t261.5 -89.5zM471 544l63 354h16l63 -159h373l119 159h16l-63 -354h-16l-63 157h-373l-119 -157h-16z" />
    <glyph glyph-name="Iota" unicode="&#x399;" horiz-adv-x="580" 
d="M-49 0l4 20l187 53l228 1292l-168 54l3 20h503l-3 -20l-189 -54l-228 -1291l170 -54l-4 -20h-503z" />
    <glyph glyph-name="Kappa" unicode="&#x39a;" horiz-adv-x="1344" 
d="M-49 0l4 20l187 53l228 1292l-168 54l3 20h503l-3 -20l-189 -54l-228 -1291l170 -54l-4 -20h-503zM915 0l-433 737l697 620l-259 62l3 20h499l-3 -20l-176 -54l-621 -552l433 -739l157 -44l-6 -30h-291z" />
    <glyph glyph-name="Lambda" unicode="&#x39b;" horiz-adv-x="1429" 
d="M-83 0l4 20l192 54l655 1245l-69 100l3 20h213l250 -1365l167 -54l-4 -20h-495l4 20l173 54l-217 1218l-640 -1218l209 -54l-4 -20h-441z" />
    <glyph glyph-name="Mu" unicode="&#x39c;" horiz-adv-x="1777" 
d="M-49 0l4 20l190 65l226 1280l-168 54l3 20h297l352 -1141l758 1141h292l-3 -20l-189 -54l-228 -1291l170 -54l-4 -20h-503l4 20l187 54l213 1206l-755 -1135h-49l-352 1136l-211 -1196l168 -65l-4 -20h-398z" />
    <glyph glyph-name="Nu" unicode="&#x39d;" horiz-adv-x="1437" 
d="M1089 -17l-701 1269l-206 -1167l168 -65l-4 -20h-395l4 20l189 65l226 1280l-168 54l3 20h261l666 -1205l197 1120l-168 66l3 19h399l-3 -19l-191 -66l-239 -1354z" />
    <glyph glyph-name="Xi" unicode="&#x39e;" horiz-adv-x="1096" 
d="M152 1088l62 351h1000l-62 -351h-8l-65 213h-778l-141 -213h-8zM262 532l73 414h16l51 -139h402l99 139h16l-73 -414h-16l-51 137h-402l-99 -137h-16zM-13 0l7 351l10 2l118 -215h726l194 215l8 -2l-117 -351h-946z" />
    <glyph glyph-name="Omicron" unicode="&#x39f;" horiz-adv-x="1517" 
d="M666 -24q-118 0 -217 35.5t-170 101t-116.5 157t-56.5 204.5t10 243q38 215 154.5 385t289 265t368.5 95q197 0 335.5 -95t196 -265t19.5 -385q-38 -213 -154.5 -382.5t-289 -264t-369.5 -94.5zM673 13q239 0 411.5 192.5t228.5 511.5q34 214 3 371t-133.5 246.5
t-261.5 89.5q-240 0 -411.5 -193t-227.5 -514q-34 -212 -3.5 -368.5t133 -246t261.5 -89.5z" />
    <glyph glyph-name="Pi" unicode="&#x3a0;" horiz-adv-x="1507" 
d="M-49 0l4 20l187 53l228 1292l-168 54l3 20h1428l-3 -20l-189 -54l-228 -1291l172 -54l-4 -20h-503l4 20l187 53l235 1329h-781l-235 -1328l170 -54l-4 -20h-503z" />
    <glyph glyph-name="Rho" unicode="&#x3a1;" horiz-adv-x="1160" 
d="M-49 0l4 20l187 53l228 1292l-168 54l3 20h594q234 0 336.5 -114t70.5 -297q-37 -209 -199.5 -321t-411.5 -112h-118l7 38h121q178 0 290 104.5t145 290.5q33 190 -49 281.5t-252 91.5h-217l-234 -1327l191 -54l-4 -20h-524z" />
    <glyph glyph-name="Sigma" unicode="&#x3a3;" horiz-adv-x="1004" 
d="M-33 0l7 39l592 612l-351 751l6 37h802l-62 -351h-9l-76 314h-515l309 -699l-651 -666h689l242 316l8 -2l-117 -351h-874z" />
    <glyph glyph-name="Tau" unicode="&#x3a4;" horiz-adv-x="1215" 
d="M194 1124h-11l55 315h1071l-55 -315h-9l-65 277h-340l-234 -1327l170 -54l-4 -20h-505l4 20l189 54l234 1327h-342z" />
    <glyph glyph-name="Upsilon" unicode="&#x3a5;" horiz-adv-x="1351" 
d="M335 0l4 20l187 53l56 316q25 134 5.5 287t-67 293.5t-122 258.5t-159.5 181l-72 9l4 21q89 19 236 23q120 -149 207 -380t100 -505q70 158 153.5 301.5t167.5 252.5t156.5 188.5t144.5 142.5q112 -5 190 -23l-4 -21q-62 0 -157 -69t-195.5 -184t-193.5 -249.5
t-161.5 -280t-89.5 -261.5l-53 -300l170 -54l-4 -20h-503z" />
    <glyph glyph-name="Phi" unicode="&#x3a6;" horiz-adv-x="1719" 
d="M521 -1l4 20l187 53l15 85q-171 8 -299 53t-202 120t-102 173.5t-8 214.5q43 240 253.5 394t555.5 169l15 85l-168 54l3 20h503l-3 -20l-189 -54l-15 -85q172 -8 299.5 -53t201.5 -120t102 -174t7 -216q-42 -239 -252.5 -392.5t-555.5 -169.5l-15 -83l170 -54l-4 -20
h-503zM734 194l185 1050q-284 -17 -440 -154t-198 -372q-42 -234 66 -371t387 -153zM880 194q281 16 438 153.5t198 370.5t-66.5 370.5t-384.5 155.5z" />
    <glyph glyph-name="Chi" unicode="&#x3a7;" horiz-adv-x="1365" 
d="M-78 0l4 21l188 53l547 634l-304 657l-142 53l4 21h505l-4 -21l-189 -53l248 -538l482 538l-180 53l4 21h414l-4 -21l-188 -53l-513 -571l333 -720l144 -53l-4 -21h-504l4 21l188 53l-277 599l-519 -599l179 -53l-4 -21h-412z" />
    <glyph glyph-name="Psi" unicode="&#x3a8;" horiz-adv-x="1549" 
d="M1376 1462q192 -4 319 -33l-3 -20l-187 -44l-88 -502q-34 -193 -194.5 -310.5t-386.5 -125.5l-62 -353l170 -54l-4 -20h-503l4 20l187 53l62 353q-225 8 -344 126t-84 311l88 502l-171 44l3 20q106 20 331 33l-103 -585q-31 -177 49.5 -290t237.5 -123l159 901l-168 54
l3 20h503l-3 -20l-189 -54l-159 -901q160 11 279.5 124t150.5 289z" />
    </font>
</defs>
</svg>
