<?xml version="1.0" standalone="no"?>
<!DOCTYPE svg PUBLIC "-//W3C//DTD SVG 1.1//EN" "http://www.w3.org/Graphics/SVG/1.1/DTD/svg11.dtd" >
<svg xmlns="http://www.w3.org/2000/svg" xmlns:xlink="http://www.w3.org/1999/xlink" version="1.1">
<metadata>
Created by FontForge 20170731 at Wed Oct  2 11:03:45 2019
 By Aleksey,,,
Copyright (c) 2018 by Cosimo Lorenzo Pancini &#38; Francesco Canovaro. All rights reserved.
</metadata>
<defs>
<font id="BlackerProCondDis-Lt" horiz-adv-x="851" >
  <font-face 
    font-family="Blacker Pro Cond Dis Lt"
    font-weight="200"
    font-stretch="condensed"
    units-per-em="2048"
    panose-1="0 0 3 6 0 0 0 0 0 0"
    ascent="1638"
    descent="-410"
    x-height="994"
    cap-height="1439"
    bbox="-1725 -495 2353 2035"
    underline-thickness="100"
    underline-position="-300"
    unicode-range="U+000D-F6E8"
  />
<missing-glyph horiz-adv-x="1359" 
 />
    <glyph glyph-name="f_f" unicode="ff" horiz-adv-x="1022" 
d="M900 1497q83 0 177 -52l-26 -235h-12q-50 130 -107 244q-17 13 -36 13q-75 0 -104.5 -98.5t2.5 -242.5l29 -132h168v-30h-168v-903l155 -41v-20h-427v20l136 41v903h-385v-903l155 -41v-20h-427v20l136 41v903h-113v30h114l-17 84q-20 107 -6 186t55 130.5t95 77
t115 25.5q42 0 73 -3.5t93 -22.5t145 -55q66 81 180 81zM688 994l-17 84q-26 133 -3 227q-121 90 -241 161q-7 1 -22 1q-78 0 -120.5 -100.5t-11.5 -240.5l29 -132h386z" />
    <glyph glyph-name="f_f_i" unicode="ffi" horiz-adv-x="1512" 
d="M1345 61l136 -41v-20h-408v20l136 41v902l-386 1v-903l155 -41v-20h-427v20l136 41v903h-385v-903l155 -41v-20h-427v20l136 41v903h-113v30h114l-17 84q-20 107 -6 186t55 130.5t95 77t115 25.5q42 0 73.5 -3.5t94 -23t147.5 -56.5q73 83 206 83q96 0 266 -56v-181h-12
q-79 103 -137.5 155t-120.5 52q-96 0 -130 -96.5t-2 -244.5l29 -132l515 27l7 -11v-949zM688 994l-17 84q-26 133 -3 227q-121 90 -241 161q-7 1 -22 1q-78 0 -120.5 -100.5t-11.5 -240.5l29 -132h386z" />
    <glyph glyph-name="f_f_l" unicode="ffl" horiz-adv-x="1541" 
d="M1373 61l137 -41v-20h-409v20l137 41v1229q-24 16 -72.5 48t-67 44t-49 31t-50.5 31t-41 22q-7 1 -22 1q-78 0 -120.5 -100.5t-11.5 -240.5l29 -132h168v-30h-168v-903l155 -41v-20h-427v20l136 41v903h-395v-903l155 -41v-20h-427v20l136 41v903h-113v30h114l-17 84
q-20 107 -6 186t55 130.5t95 77t115 25.5q44 0 76 -4t98.5 -24.5t156.5 -61.5q77 90 200 90q124 0 315 -46l112 53l6 -18v-1425zM698 994l-17 84q-27 132 5 231l-7 -12q-129 96 -252 169q-7 1 -22 1q-78 0 -120.5 -100.5t-11.5 -240.5l29 -132h396z" />
    <glyph glyph-name="f_i" unicode="fi" horiz-adv-x="991" 
d="M824 61l136 -41v-20h-408v20l136 41v902l-386 1v-903l155 -41v-20h-427v20l136 41v903h-113v30h114l-17 84q-41 205 34.5 312t224.5 107q96 0 266 -56v-181h-12q-79 103 -137.5 155t-120.5 52q-96 0 -130 -96.5t-2 -244.5l29 -132l515 27l7 -11v-949z" />
    <glyph glyph-name="f_l" unicode="fl" horiz-adv-x="1010" 
d="M842 61l137 -41v-20h-409v20l137 41v1229q-24 16 -72.5 48t-67 44t-49 31t-50.5 31t-41 22q-7 1 -22 1q-78 0 -120.5 -100.5t-11.5 -240.5l29 -132h168v-30h-168v-903l155 -41v-20h-427v20l136 41v903h-113v30h114l-17 84q-20 107 -6 186t55 130.5t95 77t115 25.5
q124 0 315 -46l112 53l6 -18v-1425z" />
    <glyph glyph-name=".notdef" horiz-adv-x="1359" 
 />
    <glyph glyph-name=".null" horiz-adv-x="0" 
 />
    <glyph glyph-name="nonmarkingreturn" horiz-adv-x="682" 
 />
    <glyph glyph-name="CR" unicode="&#xd;" horiz-adv-x="396" 
 />
    <glyph glyph-name="space" unicode=" " horiz-adv-x="437" 
 />
    <glyph glyph-name="exclam" unicode="!" horiz-adv-x="424" 
d="M205 373l-69 1066h155l-69 -1066h-17zM214 -24q-44 0 -74 28.5t-30 72.5t30 73t74 29q45 0 73.5 -28.5t28.5 -73.5t-28.5 -73t-73.5 -28z" />
    <glyph glyph-name="quotedbl" unicode="&#x22;" horiz-adv-x="428" 
d="M124 1158l-58 266l6 15h130l6 -15l-60 -266h-24zM277 1158l-58 266l6 15h130l6 -15l-60 -266h-24z" />
    <glyph glyph-name="numbersign" unicode="#" horiz-adv-x="1094" 
d="M196 0l71 429h-224v47h231l82 483h-224v48h232l71 432h53l-71 -432h351l69 432h52l-71 -432h233v-48h-242l-78 -483h232v-47h-240l-71 -429h-51l68 429h-348l-70 -429h-55zM330 476h349l79 483h-348z" />
    <glyph glyph-name="dollar" unicode="$" horiz-adv-x="891" 
d="M824 355q0 -172 -96 -265.5t-246 -110.5v-216h-25v214q-13 -1 -39 -1q-156 0 -333 117l-18 344h11q57 -225 140 -324t203 -99q12 0 36 2v637q-13 9 -41 27l-49 32q-33 22 -48.5 32.5t-48 33.5t-49.5 40t-43 43.5t-40.5 52t-29.5 57t-21.5 67.5t-6.5 76q0 164 104 256
t271 92h2v125h25v-126q143 -12 289 -119l22 -342h-11q-55 206 -122.5 306t-177.5 115v-606l21 -14q55 -35 92 -61.5t84.5 -70.5t76 -86.5t48.5 -102t20 -125.5zM447 837l10 -6v592q-6 1 -19 1q-93 0 -151 -74.5t-58 -199.5q0 -58 14 -102.5t45.5 -81.5t66 -64.5t92.5 -64.5z
M482 20q92 19 141.5 95t49.5 199q0 60 -14 109t-42.5 87.5t-59 66.5t-75.5 59v-616z" />
    <glyph glyph-name="percent" unicode="%" horiz-adv-x="1171" 
d="M190 -39l-33 30l869 1497l37 -29zM243 712q-221 0 -221 372q0 371 221 371q225 0 225 -371q0 -372 -225 -372zM243 735q67 0 91 75.5t24 273.5t-24 273.5t-91 75.5q-64 0 -87 -75.5t-23 -273.5t23 -273.5t87 -75.5zM924 -28q-221 0 -221 372q0 371 221 371
q225 0 225 -371q0 -372 -225 -372zM924 -5q67 0 91 75.5t24 273.5t-24 273.5t-91 75.5q-64 0 -87 -75.5t-23 -273.5t23 -273.5t87 -75.5z" />
    <glyph glyph-name="ampersand" unicode="&#x26;" horiz-adv-x="1403" 
d="M1398 196l9 -13q-68 -207 -257 -207q-131 0 -332 206q-149 -204 -365 -204q-160 0 -255.5 106.5t-95.5 271.5q0 269 281 435q-152 279 -152 398q0 70 25.5 125t67 86t88.5 46.5t96 15.5q91 0 159 -43.5t99 -104.5t31 -125q0 -234 -272 -379q154 -290 332 -492
q80 141 155 377l-9 130v11h198v-9l-151 -141q-95 -268 -166 -399q190 -205 321 -205q130 0 193 114zM509 1423q-69 0 -104 -50.5t-35 -143.5q0 -117 137 -384q158 113 158 314q0 20 -1.5 39.5t-5.5 53.5t-14.5 61t-26.5 53.5t-44 41.5t-64 15zM520 54q145 0 269 159
q-212 230 -386 543q-79 -63 -116 -145.5t-37 -197.5q0 -20 1.5 -42t7.5 -59.5t16.5 -70t31 -68t48 -61t70 -42t95.5 -16.5z" />
    <glyph glyph-name="quotesingle" unicode="'" horiz-adv-x="200" 
d="M119 1158l-58 266l6 15h130l6 -15l-59 -266h-25z" />
    <glyph glyph-name="parenleft" unicode="(" horiz-adv-x="386" 
d="M344 -399q-270 424 -270 988q0 171 24.5 329.5t67 282t85.5 213.5t93 166l22 -15q-179 -409 -179 -976q0 -554 179 -972z" />
    <glyph glyph-name="parenright" unicode=")" horiz-adv-x="386" 
d="M42 -399l-22 16q179 418 179 972q0 567 -179 976l22 15q50 -76 93 -166t85.5 -213.5t67 -282t24.5 -329.5q0 -564 -270 -988z" />
    <glyph glyph-name="asterisk" unicode="*" horiz-adv-x="638" 
d="M233 830l-95 78l169 210l-222 41l37 124l190 -151l-52 307h117l-52 -306l189 150l36 -124l-221 -41l169 -210l-96 -78l-84 279z" />
    <glyph glyph-name="plus" unicode="+" horiz-adv-x="805" 
d="M383 179v382h-295v42h295v384h39v-384h294v-42h-294v-382h-39z" />
    <glyph glyph-name="comma" unicode="," horiz-adv-x="343" 
d="M89 -309l-10 14q81 122 81 205q0 98 -80 143l96 127q23 -18 38 -35.5t30 -57.5t15 -93q0 -177 -170 -303z" />
    <glyph glyph-name="hyphen" unicode="-" horiz-adv-x="521" 
d="M98 516v35h326v-35h-326z" />
    <glyph glyph-name="period" unicode="." horiz-adv-x="418" 
d="M210 -24q-44 0 -74 28.5t-30 72.5t30 73t74 29q45 0 73.5 -28.5t28.5 -73.5t-28.5 -73t-73.5 -28z" />
    <glyph glyph-name="slash" unicode="/" horiz-adv-x="610" 
d="M39 -285l509 1868h38l-508 -1868h-39z" />
    <glyph glyph-name="zero" unicode="0" horiz-adv-x="1095" 
d="M547 -24q-223 0 -348 196t-125 545q0 350 125 547.5t348 197.5t348.5 -197t125.5 -548q0 -349 -125.5 -545t-348.5 -196zM547 13q154 0 233.5 178.5t79.5 525.5q0 348 -79.5 527.5t-233.5 179.5t-233 -179t-79 -528q0 -347 79 -525.5t233 -178.5z" />
    <glyph glyph-name="one" unicode="1" horiz-adv-x="545" 
d="M71 0v20l154 54v1180h-129v13l265 195h10v-1388l145 -54v-20h-445z" />
    <glyph glyph-name="two" unicode="2" horiz-adv-x="869" 
d="M47 0l-6 55q290 344 426 588.5t136 443.5q0 157 -59.5 247.5t-164.5 90.5q-46 0 -87.5 -23.5t-72.5 -65.5t-54 -82.5t-41.5 -93t-25.5 -77t-15 -53.5h-15l20 332q163 100 302 100q181 0 276 -100.5t95 -272.5q0 -111 -39.5 -221.5t-124.5 -231.5t-195 -241t-275 -277h488
l156 255l7 -2l-46 -371h-685z" />
    <glyph glyph-name="three" unicode="3" horiz-adv-x="917" 
d="M406 -24q-85 0 -171.5 28.5t-128.5 65.5l-19 360h15q15 -55 29.5 -99t35 -95t44.5 -88t54 -69t67.5 -49t80.5 -17q120 0 188.5 93.5t68.5 240.5q0 93 -25 161.5t-74 112.5t-109.5 69.5t-142.5 39.5v29q158 50 234.5 132t76.5 231q0 132 -50.5 217.5t-139.5 85.5
q-45 0 -84.5 -18t-70 -53.5t-53.5 -72.5t-43 -90.5t-32 -91t-26 -89.5h-13l19 362q151 90 307 90q157 0 248 -96t91 -244q0 -122 -71.5 -212t-202.5 -133v-2q140 -35 224 -140t84 -262q0 -177 -114.5 -287t-296.5 -110z" />
    <glyph glyph-name="four" unicode="4" horiz-adv-x="931" 
d="M346 0v20l144 54v326h-459l-10 27l541 1012h73v-935h173v-104h-173v-326l146 -54v-20h-435zM97 504h394v747z" />
    <glyph glyph-name="five" unicode="5" horiz-adv-x="902" 
d="M408 -24q-82 0 -162.5 27.5t-134.5 66.5l-19 359h13q48 -199 127.5 -307.5t177.5 -108.5q127 0 197.5 107t70.5 279q0 168 -92 274.5t-260 106.5q-73 0 -155 -32l-16 11l66 680h548v-118h-528l-50 -476q88 25 170 25q200 0 332 -126.5t132 -316.5q0 -201 -115.5 -326
t-301.5 -125z" />
    <glyph glyph-name="six" unicode="6" horiz-adv-x="974" 
d="M498 -24q-179 0 -292 153t-113 390q0 150 37.5 286.5t113.5 260.5t202.5 226t293.5 170l10 -22q-203 -125 -317 -295.5t-154 -389.5q107 169 279 169q151 0 249 -123t98 -321q0 -220 -115.5 -362t-291.5 -142zM500 13q114 0 179.5 119t65.5 317q0 194 -63.5 300
t-181.5 106q-71 0 -130.5 -41.5t-99.5 -121.5q-16 -97 -16 -212q0 -131 25.5 -234t82.5 -168t138 -65z" />
    <glyph glyph-name="seven" unicode="7" horiz-adv-x="805" 
d="M152 0v20q27 96 67.5 207t72 189.5t99.5 224t95.5 203t119 242.5t115.5 234h-655v119h725l8 -56q-161 -367 -282 -699.5t-204 -683.5h-161z" />
    <glyph glyph-name="eight" unicode="8" horiz-adv-x="964" 
d="M563 784q179 -97 248 -196t69 -229q0 -180 -111.5 -281.5t-287.5 -101.5q-177 0 -287 98t-110 261q0 137 76.5 243t221.5 146q-135 78 -194 168t-59 211q0 159 98.5 259t255.5 100q154 0 251 -92t97 -241q0 -115 -66.5 -208.5t-201.5 -136.5zM266 1145q0 -116 64 -192
t209 -156q166 109 166 340q0 133 -56.5 210.5t-159.5 77.5q-106 0 -164.5 -75.5t-58.5 -204.5zM480 13q124 0 195.5 81.5t71.5 222.5q0 45 -12.5 87.5t-30.5 74.5t-47.5 63.5t-53 51.5t-59 42t-54 32t-48.5 24.5t-32 15.5q-199 -106 -199 -378q0 -147 71 -232t198 -85z" />
    <glyph glyph-name="nine" unicode="9" horiz-adv-x="974" 
d="M479 1462q179 0 292 -153t113 -390q0 -150 -37.5 -286.5t-113.5 -260.5t-202.5 -226t-293.5 -170l-10 22q203 125 317 295.5t154 389.5q-107 -169 -279 -169q-151 0 -249 123t-98 321q0 220 115.5 362t291.5 142zM477 1425q-114 0 -179.5 -119t-65.5 -317
q0 -194 63.5 -300t181.5 -106q71 0 130.5 41.5t99.5 121.5q16 97 16 212q0 131 -25.5 234t-82.5 168t-138 65z" />
    <glyph glyph-name="colon" unicode=":" horiz-adv-x="418" 
d="M210 818q-44 0 -74 28.5t-30 72.5t30 73t74 29q45 0 73.5 -28.5t28.5 -73.5t-28.5 -73t-73.5 -28zM210 -24q-44 0 -74 28.5t-30 72.5t30 73t74 29q45 0 73.5 -28.5t28.5 -73.5t-28.5 -73t-73.5 -28z" />
    <glyph glyph-name="semicolon" unicode=";" horiz-adv-x="418" 
d="M210 818q-44 0 -74 28.5t-30 72.5t30 73t74 29q45 0 73.5 -28.5t28.5 -73.5t-28.5 -73t-73.5 -28zM127 -309l-10 14q81 122 81 205q0 98 -80 143l96 127q23 -18 38 -35.5t30 -57.5t15 -93q0 -177 -170 -303z" />
    <glyph glyph-name="less" unicode="&#x3c;" horiz-adv-x="800" 
d="M669 182l-590 381v33l590 382l8 -48l-544 -352l544 -351z" />
    <glyph glyph-name="equal" unicode="=" horiz-adv-x="805" 
d="M88 604v42h628v-42h-628zM88 299v42h628v-42h-628z" />
    <glyph glyph-name="greater" unicode="&#x3e;" horiz-adv-x="800" 
d="M115 182l-7 45l543 351l-543 352l7 48l591 -382v-33z" />
    <glyph glyph-name="question" unicode="?" horiz-adv-x="735" 
d="M289 372l-28 162q250 371 250 609q0 131 -46 205.5t-128 74.5q-46 0 -96 -54t-86 -123t-63 -145h-13l9 285q49 32 118 54t137 22q149 0 235 -84t86 -236q0 -61 -15 -120.5t-35.5 -106.5t-62.5 -110t-74.5 -105t-92.5 -118q-26 -32 -39 -49l-35 -161h-21zM306 -24
q-44 0 -74 28.5t-30 72.5t30 73t74 29q45 0 73.5 -28.5t28.5 -73.5t-28.5 -73t-73.5 -28z" />
    <glyph glyph-name="at" unicode="@" horiz-adv-x="1768" 
d="M863 -364q-170 0 -316 60.5t-250.5 169t-163.5 266.5t-59 347q0 197 61 369t170 297.5t268 198t345 72.5q223 0 398 -89.5t276.5 -260.5t101.5 -397q0 -161 -73.5 -322t-195 -266t-248.5 -105q-39 0 -61 14.5t-34.5 58.5t-2 134.5t43.5 231.5h-7q-69 -176 -192 -307.5
t-241 -131.5q-116 0 -184 101t-68 277q0 173 71.5 326t201 247t285.5 94q68 0 121.5 -35t75.5 -78l159 112h4l-132 -820q-14 -83 -11.5 -119t25.5 -36q92 0 173 87t128.5 229.5t47.5 299.5q0 326 -177.5 512t-476.5 186q-165 0 -303.5 -64.5t-234 -179.5t-148.5 -275.5
t-53 -348.5q0 -367 179.5 -582.5t492.5 -215.5q141 0 293 34.5t261 93.5l13 -31q-113 -69 -266 -111.5t-297 -42.5zM732 55q44 0 103 40.5t118 110t112 175.5t80 224l30 168q-10 97 -63.5 157t-124.5 60q-108 0 -201 -87t-146 -231t-53 -309q0 -308 145 -308z" />
    <glyph glyph-name="A" unicode="A" horiz-adv-x="1233" 
d="M1071 74l149 -54v-20h-444v20l140 54l-121 409h-478l-120 -409l185 -54v-20h-377v20l156 54l368 1245l-79 100v20h203zM328 521h456l-229 771z" />
    <glyph glyph-name="B" unicode="B" horiz-adv-x="1063" 
d="M48 0v20l148 54v1291l-148 54v20h506q100 0 177 -27.5t123 -75t69 -107t23 -128.5q0 -128 -66 -221t-185 -126v-4q143 -20 220.5 -120t77.5 -243q0 -195 -124 -291t-354 -96h-467zM342 764h194q124 0 186.5 91t62.5 233q0 150 -68 231.5t-201 81.5h-174v-637zM342 38h192
q147 0 221.5 93t74.5 256q0 161 -71 250t-216 89h-201v-688z" />
    <glyph glyph-name="C" unicode="C" horiz-adv-x="1124" 
d="M651 -24q-171 0 -303 96t-203 264.5t-71 381.5q0 215 70 383.5t203.5 264.5t311.5 96q83 0 166 -24t195 -96l22 -352h-15q-22 87 -41 144.5t-50 117.5t-68.5 94t-94 56t-129.5 22q-129 0 -222.5 -93.5t-138.5 -251t-45 -361.5q0 -318 111 -511.5t309 -193.5
q79 0 138 28.5t101.5 88t72 134.5t57.5 184h15l-22 -352q-112 -72 -196.5 -96t-172.5 -24z" />
    <glyph glyph-name="D" unicode="D" horiz-adv-x="1240" 
d="M48 0v20l147 53v1294l-147 52v20h541q266 0 421.5 -191.5t155.5 -526.5q0 -338 -157.5 -529.5t-432.5 -191.5h-528zM341 38h214q447 0 447 670q0 343 -109.5 518t-323.5 175h-228v-1363z" />
    <glyph glyph-name="E" unicode="E" horiz-adv-x="997" 
d="M48 0v20l148 53v1292l-147 54v20h826v-351h-7l-123 313h-403v-644h264l86 189h14v-414h-14l-86 187h-264v-681h460l168 315l8 -2l-45 -351h-885z" />
    <glyph glyph-name="F" unicode="F" horiz-adv-x="925" 
d="M48 0v20l147 53v1292l-147 54v20h804v-351h-7l-123 313h-381v-653h253l85 189h13v-414h-13l-85 187h-253v-636l181 -54v-20h-474z" />
    <glyph glyph-name="G" unicode="G" horiz-adv-x="1181" 
d="M663 -24q-179 0 -313.5 96t-205 263.5t-70.5 382.5q0 214 68.5 381t206.5 265t326 98q152 0 350 -120l21 -352h-15q-21 84 -40 141.5t-50 117.5t-68.5 95.5t-94 58t-127.5 22.5q-88 0 -158.5 -39.5t-117 -106.5t-78.5 -159t-45.5 -192t-13.5 -211q0 -212 48.5 -367.5
t153 -246t257.5 -90.5q81 0 165 64.5t84 136.5v348l-172 83v11h309v-492q-101 -100 -198.5 -144t-221.5 -44z" />
    <glyph glyph-name="H" unicode="H" horiz-adv-x="1328" 
d="M48 0v20l147 53v1292l-147 54v20h442v-20l-149 -54v-609h644v609l-147 54v20h442v-20l-149 -54v-1291l149 -54v-20h-442v20l147 53v645h-644v-644l149 -54v-20h-442z" />
    <glyph glyph-name="I" unicode="I" horiz-adv-x="536" 
d="M48 0v20l147 53v1292l-147 54v20h440v-20l-147 -54v-1291l147 -54v-20h-440z" />
    <glyph glyph-name="J" unicode="J" horiz-adv-x="754" 
d="M307 -24q-60 0 -124 28t-104 69l-21 375h15q11 -53 33.5 -123.5t53.5 -141.5t70 -120t75 -49q44 0 73 33.5t42.5 93.5t18 116.5t4.5 128.5v979l-167 54v20h458v-20l-145 -54v-1072q0 -141 -81.5 -229t-200.5 -88z" />
    <glyph glyph-name="K" unicode="K" horiz-adv-x="1157" 
d="M48 0v20l147 53v1292l-147 54v20h440v-20l-147 -54v-1291l147 -54v-20h-440zM853 0l-452 737l477 620l-215 62v20h416v-20l-145 -54l-419 -545l464 -746l139 -44v-30h-265z" />
    <glyph glyph-name="L" unicode="L" horiz-adv-x="927" 
d="M48 0v20l146 53v1292l-146 54v20h457v-20l-165 -54v-1327h393l166 315l8 -2l-43 -351h-816z" />
    <glyph glyph-name="M" unicode="M" horiz-adv-x="1611" 
d="M48 0v20l173 65v1280l-172 54v20h293l471 -1131l484 1131h266v-20l-152 -54v-1291l152 -54v-20h-450v20l152 54v1196l-482 -1125h-46l-480 1136v-1196l174 -65v-20h-383z" />
    <glyph glyph-name="N" unicode="N" horiz-adv-x="1267" 
d="M1038 -17l-788 1269v-1167l169 -65v-20h-371v20l168 65v1280l-168 54v20h257l738 -1205v1120l-170 66v19h375v-19l-170 -66v-1354z" />
    <glyph glyph-name="O" unicode="O" horiz-adv-x="1257" 
d="M628 -24q-249 0 -401.5 203.5t-152.5 537.5q0 335 152.5 540t401.5 205q165 0 291 -93t195 -262t69 -390q0 -220 -69 -388.5t-195 -260.5t-291 -92zM628 13q177 0 285 194t108 510q0 318 -108 512.5t-285 194.5q-176 0 -283.5 -194.5t-107.5 -512.5q0 -317 107.5 -510.5
t283.5 -193.5z" />
    <glyph glyph-name="P" unicode="P" horiz-adv-x="974" 
d="M48 0v20l146 53v1292l-146 54v20h499q195 0 297.5 -114t102.5 -297q0 -210 -117 -321.5t-324 -111.5h-89v38h87q134 0 207.5 105.5t73.5 289.5q0 191 -76 282t-213 91h-156v-1327l164 -54v-20h-456z" />
    <glyph glyph-name="Q" unicode="Q" horiz-adv-x="1257" 
d="M1183 717q0 -296 -123 -493t-330 -238l413 -279v-12l-147 -67l-385 348q-242 8 -389.5 210.5t-147.5 530.5q0 335 152.5 540t401.5 205q165 0 291 -93t195 -262t69 -390zM237 717q0 -317 107.5 -510.5t283.5 -193.5q177 0 285 194t108 510q0 318 -108 512.5t-285 194.5
q-176 0 -283.5 -194.5t-107.5 -512.5z" />
    <glyph glyph-name="R" unicode="R" horiz-adv-x="1156" 
d="M48 0v20l147 53v1292l-147 54v20h521q186 0 288 -96t102 -260q0 -169 -89.5 -268t-230.5 -127v-5q70 -18 98 -17l272 -585l111 -61l1 -20h-242l-298 680q-43 -7 -92 -7h-85v38h90q302 0 302 366q0 151 -67 237.5t-207 86.5h-181v-1327l143 -54v-20h-436z" />
    <glyph glyph-name="S" unicode="S" horiz-adv-x="891" 
d="M418 -24q-156 0 -333 117l-18 344h11q57 -225 140 -324t203 -99t186 78.5t66 221.5q0 41 -8 78t-18.5 65t-32.5 57t-39 47t-49.5 43t-52 38t-57.5 38l-49 32q-33 22 -48.5 32.5t-48 33.5t-49.5 40t-43 43.5t-40.5 52t-29.5 57t-21.5 67.5t-6.5 76q0 164 104 256t271 92
q75 0 159.5 -33.5t156.5 -86.5l22 -342h-11q-60 225 -136 324.5t-208 99.5q-93 0 -151 -74.5t-58 -199.5q0 -58 14 -102.5t45.5 -81.5t66 -64.5t92.5 -64.5l56 -36q55 -35 92 -61.5t84.5 -70.5t76 -86.5t48.5 -102t20 -125.5q0 -98 -33.5 -173t-91.5 -119t-128.5 -65.5
t-152.5 -21.5z" />
    <glyph glyph-name="T" unicode="T" horiz-adv-x="1025" 
d="M282 0v20l158 54v1327h-255l-107 -277h-9v315h887v-315h-8l-109 277h-253v-1327l157 -54v-20h-461z" />
    <glyph glyph-name="U" unicode="U" horiz-adv-x="1224" 
d="M632 -24q-198 0 -323 127.5t-125 359.5v902l-147 54v20h442v-20l-149 -54v-888q0 -220 92.5 -342t247.5 -122q90 0 157.5 36.5t107.5 102t59 147t19 178.5v877l-175 66v19h383v-19l-174 -66v-861q0 -245 -101 -381t-314 -136z" />
    <glyph glyph-name="V" unicode="V" horiz-adv-x="1199" 
d="M552 0l-402 1365l-148 54v20h471v-20l-162 -54l334 -1202l360 1202l-181 54v20h373v-20l-155 -54l-405 -1365h-85z" />
    <glyph glyph-name="W" unicode="W" horiz-adv-x="1785" 
d="M502 0l-354 1365l-146 54v20h465v-20l-159 -54l288 -1196l272 963l-65 233l-133 54v20h456v-20l-167 -54l311 -1212l315 1212l-189 53v21h387v-21l-163 -53l-351 -1365h-95l-288 1069l-298 -1069h-86z" />
    <glyph glyph-name="X" unicode="X" horiz-adv-x="1171" 
d="M1030 74l131 -53v-21h-449v21l147 53l-313 599l-340 -599l155 -53v-21h-351v21l155 53l361 634l-352 657l-130 53v21h451v-21l-148 -53l280 -537l317 537l-156 53v21h354v-21l-156 -53l-341 -571z" />
    <glyph glyph-name="Y" unicode="Y" horiz-adv-x="1158" 
d="M349 0v20l156 53v566l-350 726l-150 53v21h467v-21l-154 -53l317 -658l332 655l-188 56v21h387v-21l-157 -53l-358 -701v-590l157 -54v-20h-459z" />
    <glyph glyph-name="Z" unicode="Z" horiz-adv-x="1034" 
d="M77 0l-3 24l697 1377h-506l-151 -297h-9l31 335h811l2 -25l-700 -1377h578l153 300l8 -2l-31 -335h-880z" />
    <glyph glyph-name="bracketleft" unicode="[" horiz-adv-x="393" 
d="M98 -372v1921h262v-33h-144v-1852h144v-36h-262z" />
    <glyph glyph-name="backslash" unicode="\" horiz-adv-x="610" 
d="M571 -285h-39l-508 1868h38z" />
    <glyph glyph-name="bracketright" unicode="]" horiz-adv-x="393" 
d="M295 -372h-262v36h144v1852h-144v33h262v-1921z" />
    <glyph glyph-name="asciicircum" unicode="^" horiz-adv-x="668" 
d="M94 904l-27 19l261 596h11l261 -596l-27 -19l-241 480z" />
    <glyph glyph-name="underscore" unicode="_" horiz-adv-x="717" 
d="M0 -199v41h717v-41h-717z" />
    <glyph glyph-name="grave" unicode="`" horiz-adv-x="626" 
d="M466 1247l-186 220l4 11h124l66 -231h-8z" />
    <glyph glyph-name="a" unicode="a" 
d="M305 -24q-93 0 -153 59.5t-60 162.5q0 81 39 149t104.5 113t148 72t172.5 32v109q0 136 -43 201.5t-163 65.5q-111 0 -212 -65l-8 19q63 58 139.5 92t154.5 34t132 -25.5t83 -73.5t41 -103.5t12 -126.5v-599l93 -52v-12l-210 -52l-16 142q-49 -66 -115 -104t-139 -38z
M370 51q114 0 186 99v382q-142 -16 -227.5 -95t-85.5 -212q0 -174 127 -174z" />
    <glyph glyph-name="b" unicode="b" horiz-adv-x="937" 
d="M454 -24q-96 4 -183 49.5t-139 127.5v1220l-107 47v13l233 64l9 -11v-615q43 71 111 110.5t147 39.5q152 0 245 -138.5t93 -357.5q0 -153 -46 -275.5t-140 -198t-223 -75.5zM465 6q114 0 181.5 133t67.5 356q0 215 -69.5 331t-190.5 116q-117 0 -187 -117v-615
q54 -204 198 -204z" />
    <glyph glyph-name="c" unicode="c" horiz-adv-x="791" 
d="M453 -24q-173 0 -276 134.5t-103 356.5q0 260 114 407t291 147q57 0 125.5 -17t109.5 -36l-31 -250h-14q-10 26 -32 87t-39 104.5t-29 66.5q-45 15 -93 15q-82 0 -141 -68t-85.5 -171.5t-26.5 -228.5q0 -213 67.5 -338t193.5 -125q59 0 130.5 26.5t124.5 76.5l9 -13
q-63 -85 -140 -129.5t-155 -44.5z" />
    <glyph glyph-name="d" unicode="d" horiz-adv-x="935" 
d="M404 -24q-152 0 -241 136.5t-89 352.5q0 246 112.5 401t298.5 155q110 0 186 -95v447l-106 47v13l230 64l10 -11v-1404l88 -42v-12l-203 -52l-18 141q-59 -68 -121 -104.5t-147 -36.5zM476 51q109 0 195 100v638q-17 101 -67.5 151t-116.5 50q-118 0 -190.5 -137
t-72.5 -350q0 -214 67.5 -333t184.5 -119z" />
    <glyph glyph-name="e" unicode="e" horiz-adv-x="797" 
d="M451 -24q-175 0 -276 136t-101 360q0 244 103 396.5t261 152.5q147 0 232.5 -126t85.5 -317h-532q-2 -19 -2 -59q0 -213 67 -336t194 -123q143 0 254 103l9 -13q-59 -80 -135 -127t-160 -47zM224 599l392 23q0 175 -48.5 271.5t-135.5 96.5q-89 0 -144 -106t-64 -285z
" />
    <glyph glyph-name="f" unicode="f" horiz-adv-x="501" 
d="M30 0v20l136 41v903h-113v30h114l-17 84q-29 143 -1 236t88 138t142 45q83 0 177 -52l-26 -235h-12q-50 130 -107 244q-17 13 -36 13q-75 0 -104.5 -98.5t2.5 -242.5l29 -132h168v-30h-168v-903l155 -41v-20h-427z" />
    <glyph glyph-name="g" unicode="g" horiz-adv-x="878" 
d="M840 1055v-138l-168 -1q82 -98 82 -249q0 -159 -88 -256.5t-232 -97.5q-85 0 -150 35q-77 -57 -77 -139q0 -30 12 -49t35 -27.5t45.5 -11.5t55.5 -3h212q126 0 196.5 -61t70.5 -185q0 -133 -109.5 -214.5t-283.5 -81.5q-170 0 -269 59.5t-99 161.5q0 76 44.5 132
t120.5 80q-117 32 -117 144q0 122 137 210q-68 45 -105.5 125t-37.5 183q0 157 88 253.5t231 96.5q131 0 217 -83l180 119zM434 343q84 0 131 86t47 238t-47 237.5t-131 85.5t-131 -85.5t-47 -237.5t47 -238t131 -86zM580 -4q-22 0 -104.5 -2.5t-133.5 0t-93 12.5
q-68 -72 -68 -172q0 -105 71.5 -166.5t202.5 -61.5q128 0 199.5 59t71.5 164q0 85 -41 126t-105 41z" />
    <glyph glyph-name="h" unicode="h" horiz-adv-x="1033" 
d="M41 0v20l137 41v1312l-107 48v12l232 64l10 -11v-623q85 79 153 118.5t146 39.5q117 0 189 -85.5t72 -222.5v-652l139 -41v-20h-409v20l137 41v629q0 120 -49 185t-137 65q-61 0 -129.5 -30.5t-111.5 -88.5v-760l137 -41v-20h-409z" />
    <glyph glyph-name="i" unicode="i" horiz-adv-x="480" 
d="M240 1251q-39 0 -64 24.5t-25 63.5q0 38 25.5 63.5t63.5 25.5q39 0 64.5 -25.5t25.5 -63.5q0 -39 -25.5 -63.5t-64.5 -24.5zM41 0v20l136 41v836l-120 40v19l249 65l7 -11v-949l136 -41v-20h-408z" />
    <glyph glyph-name="j" unicode="j" horiz-adv-x="456" 
d="M234 1251q-39 0 -64 24.5t-25 63.5q0 38 25.5 63.5t63.5 25.5q39 0 64.5 -25.5t25.5 -63.5q0 -39 -25.5 -63.5t-64.5 -24.5zM113 -417l-3 6q59 121 59 343v965l-118 40v19l247 65l8 -11v-928q0 -202 -51.5 -330t-141.5 -169z" />
    <glyph glyph-name="k" unicode="k" horiz-adv-x="900" 
d="M486 589l382 -569v-20h-166l-288 491l-101 -138v-292l137 -41v-20h-409v20l137 41v1312l-106 48v12l232 64l9 -11v-1086l390 531l-133 51v12h285v-12l-117 -51z" />
    <glyph glyph-name="l" unicode="l" horiz-adv-x="481" 
d="M41 0v20l137 41v1312l-106 48v12l232 64l9 -11v-1425l137 -41v-20h-409z" />
    <glyph glyph-name="m" unicode="m" horiz-adv-x="1501" 
d="M41 0v20l128 41v836l-113 40v19l237 65l10 -11v-149q59 68 135.5 114t147.5 46q70 0 133.5 -44t92.5 -133q58 76 141.5 126.5t155.5 50.5q106 0 174 -80.5t68 -220.5v-659l129 -41v-20h-394v20l131 41v640q0 106 -47 172.5t-126 66.5q-116 0 -224 -129q7 -56 7 -100v-650
l128 -41v-20h-390v20l128 41v636q0 108 -46.5 175.5t-121.5 67.5q-57 0 -115.5 -32t-106.5 -87v-760l127 -41v-20h-389z" />
    <glyph glyph-name="n" unicode="n" horiz-adv-x="1033" 
d="M41 0v20l138 41v836l-122 40v19l246 65l11 -11l-1 -146q157 157 299 157q119 0 190.5 -84.5t71.5 -233.5v-642l138 -41v-20h-409v20l137 41v619q0 128 -50.5 194t-145.5 66q-114 0 -231 -118v-761l137 -41v-20h-409z" />
    <glyph glyph-name="o" unicode="o" horiz-adv-x="933" 
d="M467 -24q-179 0 -286 138.5t-107 383.5q0 246 107 384.5t286 138.5q178 0 285 -138.5t107 -384.5q0 -245 -107 -383.5t-285 -138.5zM467 6q117 0 180.5 125t63.5 367t-64 367.5t-180 125.5t-180 -126t-64 -367q0 -243 63 -367.5t181 -124.5z" />
    <glyph glyph-name="p" unicode="p" horiz-adv-x="984" 
d="M32 -416v20l134 41v1252l-122 39v20l247 65l10 -11v-140q97 151 261 151q156 0 252 -135.5t96 -360.5q0 -152 -45.5 -275t-138.5 -198.5t-219 -75.5q-67 0 -122.5 31t-83.5 74v-436l149 -41v-20h-418zM506 6q122 0 188.5 132t66.5 357q0 213 -70 330t-185 117
q-73 0 -121.5 -28t-83.5 -89v-619q31 -99 87 -149.5t118 -50.5z" />
    <glyph glyph-name="q" unicode="q" horiz-adv-x="928" 
d="M528 -416v20l143 41v472q-122 -141 -269 -141q-107 0 -182.5 67t-110.5 176.5t-35 249.5q0 158 47.5 282t141.5 197t221 73q61 0 125.5 -26t112.5 -73l64 75h19v-1352l135 -41v-20h-412zM472 51q111 0 199 100v638q-16 102 -68 151.5t-121 49.5q-114 0 -187.5 -134
t-73.5 -349q0 -216 65.5 -336t185.5 -120z" />
    <glyph glyph-name="r" unicode="r" horiz-adv-x="646" 
d="M41 0v20l137 41v836l-122 40v19l249 65l8 -11v-171q47 89 114 135.5t124 46.5q43 0 71 -14l-30 -236h-10q-54 85 -118 151q-85 0 -151 -124v-737l155 -41v-20h-427z" />
    <glyph glyph-name="s" unicode="s" horiz-adv-x="717" 
d="M350 -24q-69 0 -147.5 23t-125.5 52l47 219h15q6 -14 31 -76t44 -102.5t36 -67.5q50 -18 113 -18q92 0 133.5 53.5t41.5 136.5q0 44 -12 78t-42.5 63.5t-54.5 46.5t-76 50l-59 37q-36 22 -57 37t-53.5 43.5t-51 55t-32.5 66t-14 83.5q0 130 82 197.5t213 67.5
q53 0 119 -18t113 -43l-32 -215h-14q-79 193 -112 232q-26 14 -83 14q-84 0 -126 -56.5t-42 -136.5q0 -65 40.5 -115.5t116.5 -98.5l68 -43q38 -24 64.5 -42.5t60 -48t53.5 -57.5t34.5 -65.5t14.5 -78.5q0 -131 -84.5 -202t-221.5 -71z" />
    <glyph glyph-name="t" unicode="t" horiz-adv-x="537" 
d="M320 -24q-80 0 -126 57t-46 176v755h-88v15l109 47l104 181h10v-213h230v-30h-229v-773q0 -75 21.5 -108.5t73.5 -33.5q34 0 68 14.5t55 36.5l10 -12q-33 -47 -83 -79.5t-109 -32.5z" />
    <glyph glyph-name="u" unicode="u" horiz-adv-x="937" 
d="M378 -27q-115 0 -185.5 84.5t-70.5 233.5v606l-117 40v19l243 65l8 -11v-696q0 -127 49.5 -193.5t140.5 -66.5q112 0 224 118v725l-117 40v19l243 65l8 -11v-918l91 -51v-13l-205 -51l-20 153q-152 -157 -292 -157z" />
    <glyph glyph-name="v" unicode="v" horiz-adv-x="795" 
d="M367 0l-276 929l-86 44v21h333v-21l-108 -41l211 -760l227 759l-112 43v20h237v-20l-95 -43l-281 -931h-50z" />
    <glyph glyph-name="w" unicode="w" horiz-adv-x="1259" 
d="M349 0l-255 931l-89 42v21h336v-21l-110 -42l191 -755l192 643l-30 111l-87 43v21h331v-21l-109 -42l186 -754l226 754l-109 42v21h235v-21l-95 -43l-277 -930h-48l-211 765l-228 -765h-49z" />
    <glyph glyph-name="x" unicode="x" horiz-adv-x="862" 
d="M744 62l102 -42v-20h-365v20l101 41l-201 386l-218 -386l90 -41v-20h-236v20l105 40l239 422l-254 452l-92 39v21h371v-21l-104 -42l180 -357l203 357l-99 42v21h240v-21l-97 -42l-227 -391z" />
    <glyph glyph-name="y" unicode="y" horiz-adv-x="796" 
d="M156 -495l-91 136l3 16q15 6 50.5 16t62 20t58 26t56 42.5t38.5 61.5l44 140l-289 968l-83 42v21h334v-21l-110 -43l210 -759l229 759l-113 43v21h236v-21l-95 -42l-292 -972q-122 -410 -248 -454z" />
    <glyph glyph-name="z" unicode="z" horiz-adv-x="755" 
d="M70 0l-4 15l454 949h-249l-137 -174h-12v204h547l2 -17l-452 -947h285l142 193l10 -2v-221h-586z" />
    <glyph glyph-name="braceleft" unicode="{" horiz-adv-x="415" 
d="M398 -378q-131 -6 -204 60t-73 188q0 71 26.5 266.5t26.5 278.5q0 155 -112 155v37q112 0 112 159q0 91 -26.5 271t-26.5 275q0 130 66.5 188.5t210.5 58.5v-35q-41 0 -66 -6.5t-45 -27t-29 -59.5t-9 -101q0 -90 16.5 -268.5t16.5 -273.5q0 -169 -139 -197v-3
q139 -30 139 -196q0 -86 -16.5 -266t-16.5 -275q0 -62 9 -101t30 -58.5t45.5 -26t64.5 -6.5v-37z" />
    <glyph glyph-name="bar" unicode="|" horiz-adv-x="409" 
d="M193 -323v1868h23v-1868h-23z" />
    <glyph glyph-name="braceright" unicode="}" horiz-adv-x="415" 
d="M17 -378v37q40 0 64.5 6.5t45.5 26t30 58.5t9 101q0 95 -16.5 275t-16.5 266q0 166 139 196v3q-139 28 -139 197q0 95 16.5 273.5t16.5 268.5q0 62 -9 101t-29 59.5t-45 27t-66 6.5v35q144 0 210.5 -58.5t66.5 -188.5q0 -95 -26.5 -275t-26.5 -271q0 -159 112 -159v-37
q-112 0 -112 -155q0 -83 26.5 -278.5t26.5 -266.5q0 -122 -73 -188t-204 -60z" />
    <glyph glyph-name="asciitilde" unicode="~" horiz-adv-x="825" 
d="M547 452q-44 0 -152 56.5t-148 56.5q-88 0 -124 -110l-16 6q17 86 59.5 145.5t112.5 59.5q39 0 145 -56t151 -56q49 0 78 24.5t51 82.5l12 -6q-15 -86 -56.5 -144.5t-112.5 -58.5z" />
    <glyph glyph-name="uni00A0" unicode="&#xa0;" horiz-adv-x="396" 
 />
    <glyph glyph-name="exclamdown" unicode="&#xa1;" horiz-adv-x="424" 
d="M214 1020q45 0 73.5 -28t28.5 -73t-28.5 -73.5t-73.5 -28.5q-44 0 -74 29t-30 73t30 72.5t74 28.5zM205 623h17l69 -1066h-155z" />
    <glyph glyph-name="cent" unicode="&#xa2;" horiz-adv-x="791" 
d="M748 150q-121 -163 -277 -173v-218h-25v217q-170 3 -271 137t-101 354q0 248 103.5 393t268.5 160v208h25v-207h8q57 0 125.5 -17t109.5 -36l-31 -250h-14q-10 26 -32 87t-39 104.5t-29 66.5q-45 15 -93 15h-5v-931h13q59 0 130.5 26.5t124.5 76.5zM223 523
q0 -196 57.5 -318.5t165.5 -141.5v926q-73 -12 -124.5 -81.5t-75 -168.5t-23.5 -216z" />
    <glyph glyph-name="sterling" unicode="&#xa3;" horiz-adv-x="979" 
d="M930 252l14 -15q-63 -162 -167 -247q-63 0 -212 24.5t-202 24.5q-129 0 -277 -49l-13 37q56 45 99 127t67 174t35.5 177.5t11.5 156.5v17h-79l3 37h73q-4 50 -26.5 162.5t-22.5 165.5q0 104 28.5 185t79 131t117 75t146.5 25q61 0 126 -22t109 -54l11 -302h-15
q-19 45 -26 61.5t-26.5 58t-31.5 60.5t-33.5 50.5t-40 47.5t-43.5 32t-52 23q-209 -4 -209 -326q0 -48 24.5 -172.5t29.5 -200.5h344q0 -6 -1.5 -17.5t-1.5 -19.5h-339v-17q0 -155 -51.5 -304.5t-151.5 -244.5q121 36 226 36q49 0 135 -16t130 -16q119 0 212 135z" />
    <glyph glyph-name="currency" unicode="&#xa4;" horiz-adv-x="831" 
d="M427 270q-99 0 -177 78l-117 -149l-32 41l120 147q-31 42 -47 104t-16 123q0 125 63 222l-119 153l29 35l115 -152q83 84 180 84t177 -77l117 147l31 -39l-118 -156q29 -37 46 -97.5t17 -119.5q0 -60 -18.5 -122t-49.5 -107l119 -149l-25 -39l-120 151q-86 -78 -175 -78z
M427 319q101 0 154 84t53 211q0 124 -53.5 205.5t-153.5 81.5q-98 0 -153.5 -82t-55.5 -205q0 -125 56.5 -210t152.5 -85z" />
    <glyph glyph-name="yen" unicode="&#xa5;" horiz-adv-x="1158" 
d="M779 1439h387v-21l-157 -53l-358 -701v-30h331l-8 -34h-323v-193h300l-9 -35h-291v-298l157 -54v-20h-459v20l156 53v299h-282l-3 35h285v193h-306l-3 34h309v5l-350 726l-150 53v21h467v-21l-154 -53l317 -658l332 655l-188 56v21z" />
    <glyph glyph-name="brokenbar" unicode="&#xa6;" horiz-adv-x="404" 
d="M190 747v798h22v-798h-22zM190 -323v796h22v-796h-22z" />
    <glyph glyph-name="section" unicode="&#xa7;" horiz-adv-x="739" 
d="M346 -235q-119 0 -247 102l-13 265h8q110 -334 252 -334q54 0 93.5 23.5t61 63t31 84.5t9.5 96q0 26 -3 49t-11 44t-14 36.5t-21.5 34t-23.5 28.5t-30 28.5t-30 25t-35 27t-35 26.5q-50 38 -87.5 75t-75 88t-57.5 114t-20 134q0 147 77 230q-52 75 -52 176
q0 148 76.5 230.5t201.5 82.5q116 0 231 -104l13 -263h-8q-15 48 -22 67.5t-21.5 60t-24 58.5t-26 48t-31.5 43.5t-35 29t-43 21.5t-50 6q-68 0 -113.5 -64.5t-45.5 -178.5q0 -36 8.5 -66.5t18 -50.5t35.5 -45.5t40 -37.5t54 -42t57 -43q53 -41 91.5 -81t73 -91t52.5 -114
t18 -136q0 -147 -67 -232q41 -68 41 -174q0 -173 -83 -256.5t-218 -83.5zM553 339q17 63 17 132q0 199 -200 358q-116 92 -148 127q-25 -63 -25 -145q0 -71 29.5 -134.5t71.5 -109.5t108 -99q118 -95 147 -129z" />
    <glyph glyph-name="dieresis" unicode="&#xa8;" horiz-adv-x="778" 
d="M310 1254q-36 0 -61 25t-25 62t25 61t61 24q39 0 63 -24t24 -61t-24.5 -62t-62.5 -25zM555 1254q-37 0 -62 25t-25 62t24.5 61t62.5 24q37 0 61.5 -24t24.5 -61q0 -38 -24.5 -62.5t-61.5 -24.5z" />
    <glyph glyph-name="copyright" unicode="&#xa9;" horiz-adv-x="1509" 
d="M754 -24q-189 0 -341 95.5t-238 265.5t-86 382q0 159 50.5 297.5t138.5 236t211 153.5t264 56q142 0 266 -56t212.5 -154t139.5 -236t51 -297q0 -212 -86.5 -382t-239.5 -265.5t-342 -95.5zM747 25q130 0 244 51.5t196 142t129.5 219t47.5 277.5q0 198 -77.5 358
t-215.5 251t-309 91q-176 0 -316.5 -88.5t-220 -248t-79.5 -359.5q0 -195 77 -354t215 -249.5t309 -90.5zM738 250q-146 0 -240 115.5t-94 302.5q0 211 110 341t275 130q99 0 225 -52l-31 -215h-12q-73 183 -101 225q-37 16 -83 16q-123 0 -187 -106.5t-64 -290.5
q0 -178 67 -281t185 -103q68 0 133 26.5t106 77.5l9 -11q-47 -81 -123.5 -128t-174.5 -47z" />
    <glyph glyph-name="ordfeminine" unicode="&#xaa;" horiz-adv-x="456" 
d="M146 932q-46 0 -77 31t-31 85q0 82 67 129.5t163 55.5v55q0 55 -19 86t-68 31q-53 0 -105 -35l-5 10q74 79 177 79q44 0 73.5 -15.5t42.5 -43.5t17.5 -53.5t4.5 -58.5v-271l45 -45v-6l-146 -34l-13 74q-53 -74 -126 -74zM202 990q41 0 66 34v192q-54 -9 -87.5 -46
t-33.5 -97q0 -83 55 -83z" />
    <glyph glyph-name="guillemotleft" unicode="&#xab;" horiz-adv-x="661" 
d="M329 135l-293 363v28l293 366l26 -23l-184 -356l184 -356zM625 135l-293 363v28l293 366l27 -23l-185 -356l185 -356z" />
    <glyph glyph-name="logicalnot" unicode="&#xac;" horiz-adv-x="892" 
d="M759 322v320h-661v41h697v-361h-36z" />
    <glyph glyph-name="registered" unicode="&#xae;" horiz-adv-x="1033" 
d="M518 630q-121 0 -223.5 61.5t-162.5 167.5t-60 231q0 191 131 326t315 135q121 0 224 -62t163 -168t60 -231q0 -190 -131 -325t-316 -135zM518 669q169 0 289 123.5t120 297.5t-120 298t-289 124q-168 0 -288 -124t-120 -298t120 -297.5t288 -123.5zM336 889v5l44 40v341
l-46 40v6h197q75 0 115 -29.5t40 -79.5q0 -98 -125 -119q11 -5 43 -10l92 -153l45 -38v-3h-120l-97 200h-40l-1 13h24q91 0 91 108q0 96 -92 96h-44v-372l44 -40v-5h-170z" />
    <glyph glyph-name="macron" unicode="&#xaf;" horiz-adv-x="1346" 
d="M478 1319v37h379v-37h-379z" />
    <glyph glyph-name="degree" unicode="&#xb0;" horiz-adv-x="453" 
d="M225 1197q-68 0 -113.5 39t-45.5 102t45.5 102.5t113.5 39.5t114 -39.5t46 -102.5t-46 -102t-114 -39zM225 1219q26 0 41 31.5t15 87.5t-15 88t-41 32q-25 0 -40 -32t-15 -88t15 -87.5t40 -31.5z" />
    <glyph glyph-name="plusminus" unicode="&#xb1;" horiz-adv-x="835" 
d="M393 179v382h-295v42h295v384h39v-384h294v-42h-294v-382h-39zM108 51v42h630v-42h-630z" />
    <glyph glyph-name="uni00B2" unicode="&#xb2;" horiz-adv-x="379" 
d="M21 874l-3 43q108 172 158 289.5t50 215.5q0 74 -18 117.5t-50 43.5q-76 0 -122 -211h-6l8 192q68 40 128 41q79 0 121 -50.5t42 -136.5q0 -38 -6 -72t-24.5 -74t-32 -66t-49.5 -76t-55.5 -75t-70.5 -90h166l82 130l3 -1l-18 -220h-303z" />
    <glyph glyph-name="uni00B3" unicode="&#xb3;" horiz-adv-x="400" 
d="M169 862q-34 0 -69.5 13.5t-53.5 31.5l-8 190h6q52 -212 125 -212q41 0 65 45.5t24 117.5q0 85 -34.5 132t-90.5 57v19q55 20 82 62.5t27 117.5q0 67 -16.5 107t-47.5 40q-26 0 -47 -19.5t-36.5 -57t-24 -65t-18.5 -69.5h-5l9 192q59 41 129 41q69 0 112.5 -47.5
t43.5 -120.5q0 -59 -28.5 -102.5t-82.5 -65.5q57 -20 90.5 -73t33.5 -130q0 -90 -52 -147t-133 -57z" />
    <glyph glyph-name="acute" unicode="&#xb4;" horiz-adv-x="717" 
d="M361 1148h-8l66 231h124l4 -11z" />
    <glyph glyph-name="uni00B5" unicode="&#xb5;" horiz-adv-x="1087" 
d="M139 -416v1313l-122 40v19l247 65l9 -11v-702q0 -121 49 -189t139 -68q128 0 244 123q-2 42 -2 65v658l-123 40v19l247 65l10 -11v-788q0 -173 82 -173q56 0 116 35l8 -16q-103 -92 -206 -92q-106 0 -128 159q-150 -159 -316 -159q-79 0 -142 46q22 -75 22 -211v-227
h-134z" />
    <glyph glyph-name="paragraph" unicode="&#xb6;" horiz-adv-x="1129" 
d="M626 0q-274 0 -431 191.5t-157 529.5q0 335 155 526.5t420 191.5h429v-20l-140 -52v-1294l144 -53v-20h-420zM645 37h198v1365h-198v-1365z" />
    <glyph glyph-name="periodcentered" unicode="&#xb7;" horiz-adv-x="446" 
d="M223 379q-49 0 -83 33t-34 83q0 51 34 84.5t83 33.5q52 0 84.5 -33t32.5 -85q0 -51 -32.5 -83.5t-84.5 -32.5z" />
    <glyph glyph-name="cedilla" unicode="&#xb8;" horiz-adv-x="631" 
d="M235 -444v11q59 16 90.5 62.5t31.5 104.5q0 25 -6.5 44.5t-20.5 32.5t-23 19t-26.5 13.5t-18.5 8.5l-2 14l63 148l23 -3l-34 -102q159 -44 159 -155q0 -77 -69.5 -133.5t-166.5 -64.5z" />
    <glyph glyph-name="uni00B9" unicode="&#xb9;" horiz-adv-x="216" 
d="M24 874v9l48 45v550h-55v7l139 121h4v-678l46 -45v-9h-182z" />
    <glyph glyph-name="ordmasculine" unicode="&#xba;" horiz-adv-x="505" 
d="M252 932q-98 0 -159.5 73t-61.5 191t61 190.5t160 72.5t160.5 -72.5t61.5 -190.5t-61.5 -191t-160.5 -73zM253 949q97 0 97 218v58q0 105 -25 161t-73 56q-47 0 -72 -56t-25 -161v-58q0 -218 98 -218z" />
    <glyph glyph-name="guillemotright" unicode="&#xbb;" horiz-adv-x="661" 
d="M36 135l-27 22l185 356l-185 356l27 23l293 -366v-28zM332 135l-26 22l184 356l-184 356l26 23l293 -366v-28z" />
    <glyph glyph-name="questiondown" unicode="&#xbf;" horiz-adv-x="736" 
d="M439 1022q44 0 74 -28.5t30 -72.5t-30 -73t-74 -29q-45 0 -73.5 28.5t-28.5 73.5t28.5 73t73.5 28zM456 626l28 -162q-250 -371 -250 -609q0 -131 46 -205.5t128 -74.5q46 0 96 54t86 123t63 145h13l-9 -285q-49 -32 -118 -54t-137 -22q-149 0 -235 84t-86 236
q0 61 15 120.5t35.5 106.5t62.5 110t74.5 105t92.5 118q26 32 39 49l35 161h21z" />
    <glyph glyph-name="Agrave" unicode="&#xc0;" horiz-adv-x="1233" 
d="M628 1542h-8l-177 170l4 11h144zM1071 74l149 -54v-20h-444v20l140 54l-121 409h-478l-120 -409l185 -54v-20h-377v20l156 54l368 1245l-79 100v20h203zM328 521h456l-229 771z" />
    <glyph glyph-name="Aacute" unicode="&#xc1;" horiz-adv-x="1233" 
d="M722 1712l-177 -170h-8l37 181h144zM1071 74l149 -54v-20h-444v20l140 54l-121 409h-478l-120 -409l185 -54v-20h-377v20l156 54l368 1245l-79 100v20h203zM328 521h456l-229 771z" />
    <glyph glyph-name="Acircumflex" unicode="&#xc2;" horiz-adv-x="1233" 
d="M583 1641l-145 -108l-12 9l134 238h44l133 -238l-9 -9zM1071 74l149 -54v-20h-444v20l140 54l-121 409h-478l-120 -409l185 -54v-20h-377v20l156 54l368 1245l-79 100v20h203zM328 521h456l-229 771z" />
    <glyph glyph-name="Atilde" unicode="&#xc3;" horiz-adv-x="1233" 
d="M493 1617q-59 0 -80 -59l-9 4q29 157 118 157q23 0 74.5 -30t75.5 -30q59 0 81 60l7 -4q-10 -65 -38.5 -111t-77.5 -46q-25 0 -76.5 29.5t-74.5 29.5zM1071 74l149 -54v-20h-444v20l140 54l-121 409h-478l-120 -409l185 -54v-20h-377v20l156 54l368 1245l-79 100v20h203z
M328 521h456l-229 771z" />
    <glyph glyph-name="Adieresis" unicode="&#xc4;" horiz-adv-x="1233" 
d="M457 1559q-36 0 -61 25t-25 62t25 61t61 24q39 0 63 -24t24 -61t-24.5 -62t-62.5 -25zM702 1559q-38 0 -62.5 24.5t-24.5 62.5q0 37 24.5 61t62.5 24q37 0 61.5 -24t24.5 -61q0 -38 -24.5 -62.5t-61.5 -24.5zM1071 74l149 -54v-20h-444v20l140 54l-121 409h-478
l-120 -409l185 -54v-20h-377v20l156 54l368 1245l-79 100v20h203zM328 521h456l-229 771z" />
    <glyph glyph-name="Aring" unicode="&#xc5;" horiz-adv-x="1233" 
d="M1071 74l149 -54v-20h-444v20l140 54l-121 409h-478l-120 -409l185 -54v-20h-377v20l156 54l368 1245l-79 100v20h109q-76 38 -76 122q0 63 45.5 102.5t113.5 39.5t114 -39.5t46 -102.5q0 -59 -40.5 -97t-102.5 -43zM642 1681q-25 0 -40 -32t-15 -88t15 -87.5t40 -31.5
q26 0 41 31.5t15 87.5t-15 88t-41 32zM328 521h456l-229 771z" />
    <glyph glyph-name="AE" unicode="&#xc6;" horiz-adv-x="1825" 
d="M1798 353l8 -2l-48 -351h-899v20l156 54v409h-511l-247 -409l171 -54v-20h-397v20l183 54l787 1295l-142 50v20h836v-351h-8l-128 314h-399v-645h247l87 189h15v-414h-15l-87 187h-247v-682h464zM527 521h488v806z" />
    <glyph glyph-name="Ccedilla" unicode="&#xc7;" horiz-adv-x="1124" 
d="M658 13q79 0 138 28.5t101.5 88t72 134.5t57.5 184h15l-22 -352q-112 -72 -196.5 -96t-172.5 -24h-18l-26 -79q159 -44 159 -155q0 -77 -69.5 -133.5t-166.5 -64.5v11q59 16 90.5 62.5t31.5 104.5q0 25 -6.5 44.5t-20.5 32.5t-23 19t-26.5 13.5t-18.5 8.5l-2 14l53 124
q-241 19 -387.5 224.5t-146.5 515.5q0 215 70 383.5t203.5 264.5t311.5 96q83 0 166 -24t195 -96l22 -352h-15q-22 87 -41 144.5t-50 117.5t-68.5 94t-94 56t-129.5 22q-129 0 -222.5 -93.5t-138.5 -251t-45 -361.5q0 -318 111 -511.5t309 -193.5z" />
    <glyph glyph-name="Egrave" unicode="&#xc8;" horiz-adv-x="997" 
d="M555 1542h-8l-177 170l4 11h144zM48 0v20l148 53v1292l-147 54v20h826v-351h-7l-123 313h-403v-644h264l86 189h14v-414h-14l-86 187h-264v-681h460l168 315l8 -2l-45 -351h-885z" />
    <glyph glyph-name="Eacute" unicode="&#xc9;" horiz-adv-x="997" 
d="M464 1542l37 181h144l4 -11l-177 -170h-8zM48 0v20l148 53v1292l-147 54v20h826v-351h-7l-123 313h-403v-644h264l86 189h14v-414h-14l-86 187h-264v-681h460l168 315l8 -2l-45 -351h-885z" />
    <glyph glyph-name="Ecircumflex" unicode="&#xca;" horiz-adv-x="997" 
d="M365 1533l-12 9l134 238h44l133 -238l-9 -9l-145 108zM48 0v20l148 53v1292l-147 54v20h826v-351h-7l-123 313h-403v-644h264l86 189h14v-414h-14l-86 187h-264v-681h460l168 315l8 -2l-45 -351h-885z" />
    <glyph glyph-name="Edieresis" unicode="&#xcb;" horiz-adv-x="997" 
d="M384 1559q-36 0 -61 25t-25 62t25 61t61 24q39 0 63 -24t24 -61t-24.5 -62t-62.5 -25zM629 1559q-37 0 -62 24.5t-25 62.5q0 37 24.5 61t62.5 24q37 0 61.5 -24t24.5 -61q0 -38 -24.5 -62.5t-61.5 -24.5zM48 0v20l148 53v1292l-147 54v20h826v-351h-7l-123 313h-403v-644
h264l86 189h14v-414h-14l-86 187h-264v-681h460l168 315l8 -2l-45 -351h-885z" />
    <glyph glyph-name="Igrave" unicode="&#xcc;" horiz-adv-x="536" 
d="M314 1542h-8l-177 170l4 11h144zM48 0v20l147 53v1292l-147 54v20h440v-20l-147 -54v-1291l147 -54v-20h-440z" />
    <glyph glyph-name="Iacute" unicode="&#xcd;" horiz-adv-x="536" 
d="M223 1542l37 181h144l4 -11l-177 -170h-8zM48 0v20l147 53v1292l-147 54v20h440v-20l-147 -54v-1291l147 -54v-20h-440z" />
    <glyph glyph-name="Icircumflex" unicode="&#xce;" horiz-adv-x="536" 
d="M124 1533l-12 9l134 238h44l133 -238l-9 -9l-145 108zM48 0v20l147 53v1292l-147 54v20h440v-20l-147 -54v-1291l147 -54v-20h-440z" />
    <glyph glyph-name="Idieresis" unicode="&#xcf;" horiz-adv-x="536" 
d="M143 1559q-36 0 -61 25t-25 62t25 61t61 24q39 0 63 -24t24 -61t-24.5 -62t-62.5 -25zM388 1559q-38 0 -62.5 24.5t-24.5 62.5q0 37 24.5 61t62.5 24q37 0 61.5 -24t24.5 -61q0 -38 -24.5 -62.5t-61.5 -24.5zM48 0v20l147 53v1292l-147 54v20h440v-20l-147 -54v-1291
l147 -54v-20h-440z" />
    <glyph glyph-name="Eth" unicode="&#xd0;" horiz-adv-x="1240" 
d="M589 1439q266 0 421.5 -191.5t155.5 -526.5q0 -338 -157.5 -529.5t-432.5 -191.5h-528v20l147 53v628h-107v38h107v628l-147 52v20h541zM555 38q447 0 447 670q0 343 -109.5 518t-323.5 175h-228v-662h117v-38h-117v-663h214z" />
    <glyph glyph-name="Ntilde" unicode="&#xd1;" horiz-adv-x="1267" 
d="M478 1558l-9 4q29 157 118 157q23 0 74.5 -30t75.5 -30q59 0 81 60l7 -4q-10 -65 -38.5 -111t-77.5 -46q-25 0 -76.5 29.5t-74.5 29.5q-59 0 -80 -59zM1038 -17l-788 1269v-1167l169 -65v-20h-371v20l168 65v1280l-168 54v20h257l738 -1205v1120l-170 66v19h375v-19
l-170 -66v-1354z" />
    <glyph glyph-name="Ograve" unicode="&#xd2;" horiz-adv-x="1257" 
d="M675 1542h-8l-177 170l4 11h144zM628 -24q-249 0 -401.5 203.5t-152.5 537.5q0 335 152.5 540t401.5 205q165 0 291 -93t195 -262t69 -390q0 -220 -69 -388.5t-195 -260.5t-291 -92zM628 13q177 0 285 194t108 510q0 318 -108 512.5t-285 194.5q-176 0 -283.5 -194.5
t-107.5 -512.5q0 -317 107.5 -510.5t283.5 -193.5z" />
    <glyph glyph-name="Oacute" unicode="&#xd3;" horiz-adv-x="1257" 
d="M584 1542l37 181h144l4 -11l-177 -170h-8zM628 -24q-249 0 -401.5 203.5t-152.5 537.5q0 335 152.5 540t401.5 205q165 0 291 -93t195 -262t69 -390q0 -220 -69 -388.5t-195 -260.5t-291 -92zM628 13q177 0 285 194t108 510q0 318 -108 512.5t-285 194.5
q-176 0 -283.5 -194.5t-107.5 -512.5q0 -317 107.5 -510.5t283.5 -193.5z" />
    <glyph glyph-name="Ocircumflex" unicode="&#xd4;" horiz-adv-x="1257" 
d="M485 1533l-12 9l134 238h44l133 -238l-9 -9l-145 108zM628 -24q-249 0 -401.5 203.5t-152.5 537.5q0 335 152.5 540t401.5 205q165 0 291 -93t195 -262t69 -390q0 -220 -69 -388.5t-195 -260.5t-291 -92zM628 13q177 0 285 194t108 510q0 318 -108 512.5t-285 194.5
q-176 0 -283.5 -194.5t-107.5 -512.5q0 -317 107.5 -510.5t283.5 -193.5z" />
    <glyph glyph-name="Otilde" unicode="&#xd5;" horiz-adv-x="1257" 
d="M460 1558l-9 4q29 157 118 157q23 0 74.5 -30t75.5 -30q59 0 81 60l7 -4q-10 -65 -38.5 -111t-77.5 -46q-25 0 -76.5 29.5t-74.5 29.5q-59 0 -80 -59zM628 -24q-249 0 -401.5 203.5t-152.5 537.5q0 335 152.5 540t401.5 205q165 0 291 -93t195 -262t69 -390
q0 -220 -69 -388.5t-195 -260.5t-291 -92zM628 13q177 0 285 194t108 510q0 318 -108 512.5t-285 194.5q-176 0 -283.5 -194.5t-107.5 -512.5q0 -317 107.5 -510.5t283.5 -193.5z" />
    <glyph glyph-name="Odieresis" unicode="&#xd6;" horiz-adv-x="1257" 
d="M504 1559q-36 0 -61 25t-25 62t25 61t61 24q39 0 63 -24t24 -61t-24.5 -62t-62.5 -25zM749 1559q-37 0 -62 24.5t-25 62.5q0 37 24.5 61t62.5 24q37 0 61.5 -24t24.5 -61q0 -38 -24.5 -62.5t-61.5 -24.5zM628 -24q-249 0 -401.5 203.5t-152.5 537.5q0 335 152.5 540
t401.5 205q165 0 291 -93t195 -262t69 -390q0 -220 -69 -388.5t-195 -260.5t-291 -92zM628 13q177 0 285 194t108 510q0 318 -108 512.5t-285 194.5q-176 0 -283.5 -194.5t-107.5 -512.5q0 -317 107.5 -510.5t283.5 -193.5z" />
    <glyph glyph-name="multiply" unicode="&#xd7;" horiz-adv-x="777" 
d="M639 215l-252 334l-252 -332l-26 30l252 333l-252 336l26 33l253 -334l252 332l25 -31l-252 -334l252 -335z" />
    <glyph glyph-name="Oslash" unicode="&#xd8;" horiz-adv-x="1257" 
d="M886 1391q140 -86 218.5 -262t78.5 -412q0 -220 -69 -388.5t-195 -260.5t-291 -92q-133 0 -244 63l-93 -251h-38l100 270q-132 89 -205.5 260.5t-73.5 398.5q0 335 152.5 540t401.5 205q122 0 226 -53l92 247h38zM237 717q0 -185 38.5 -332.5t109.5 -240.5l444 1197
q-88 83 -201 83q-176 0 -283.5 -194.5t-107.5 -512.5zM628 13q177 0 285 194t108 510q0 196 -43 350t-122 245l-445 -1199q92 -100 217 -100z" />
    <glyph glyph-name="Ugrave" unicode="&#xd9;" horiz-adv-x="1224" 
d="M669 1542h-8l-177 170l4 11h144zM632 -24q-198 0 -323 127.5t-125 359.5v902l-147 54v20h442v-20l-149 -54v-888q0 -220 92.5 -342t247.5 -122q90 0 157.5 36.5t107.5 102t59 147t19 178.5v877l-175 66v19h383v-19l-174 -66v-861q0 -245 -101 -381t-314 -136z" />
    <glyph glyph-name="Uacute" unicode="&#xda;" horiz-adv-x="1224" 
d="M578 1542l37 181h144l4 -11l-177 -170h-8zM632 -24q-198 0 -323 127.5t-125 359.5v902l-147 54v20h442v-20l-149 -54v-888q0 -220 92.5 -342t247.5 -122q90 0 157.5 36.5t107.5 102t59 147t19 178.5v877l-175 66v19h383v-19l-174 -66v-861q0 -245 -101 -381t-314 -136z
" />
    <glyph glyph-name="Ucircumflex" unicode="&#xdb;" horiz-adv-x="1224" 
d="M479 1533l-12 9l134 238h44l133 -238l-9 -9l-145 108zM632 -24q-198 0 -323 127.5t-125 359.5v902l-147 54v20h442v-20l-149 -54v-888q0 -220 92.5 -342t247.5 -122q90 0 157.5 36.5t107.5 102t59 147t19 178.5v877l-175 66v19h383v-19l-174 -66v-861q0 -245 -101 -381
t-314 -136z" />
    <glyph glyph-name="Udieresis" unicode="&#xdc;" horiz-adv-x="1224" 
d="M498 1559q-36 0 -61 25t-25 62t25 61t61 24q39 0 63 -24t24 -61t-24.5 -62t-62.5 -25zM743 1559q-37 0 -62 24.5t-25 62.5q0 37 24.5 61t62.5 24q37 0 61.5 -24t24.5 -61q0 -38 -24.5 -62.5t-61.5 -24.5zM632 -24q-198 0 -323 127.5t-125 359.5v902l-147 54v20h442v-20
l-149 -54v-888q0 -220 92.5 -342t247.5 -122q90 0 157.5 36.5t107.5 102t59 147t19 178.5v877l-175 66v19h383v-19l-174 -66v-861q0 -245 -101 -381t-314 -136z" />
    <glyph glyph-name="Yacute" unicode="&#xdd;" horiz-adv-x="1158" 
d="M534 1542l37 181h144l4 -11l-177 -170h-8zM349 0v20l156 53v566l-350 726l-150 53v21h467v-21l-154 -53l317 -658l332 655l-188 56v21h387v-21l-157 -53l-358 -701v-590l157 -54v-20h-459z" />
    <glyph glyph-name="Thorn" unicode="&#xde;" horiz-adv-x="1002" 
d="M48 0v20l145 53v1292l-145 54v20h440v-20l-149 -54v-181h88q131 0 229 -24t171 -77t110.5 -143.5t37.5 -218.5q0 -129 -38 -220t-113 -144.5t-175 -77.5t-235 -24h-75v-181l148 -54v-20h-439zM339 293h54q204 0 311 97.5t107 324.5q0 122 -28.5 207.5t-84 133.5
t-126.5 69t-165 21h-68v-853z" />
    <glyph glyph-name="germandbls" unicode="&#xdf;" horiz-adv-x="1007" 
d="M651 -24q-109 0 -214 60l-2 248h16q42 -145 96.5 -208t134.5 -63q55 0 93.5 68t38.5 169q0 76 -20 146t-52 124.5t-81 108t-96.5 93t-108.5 82.5l1 30q126 126 178.5 211t52.5 172q0 100 -52.5 174.5t-138.5 74.5q-97 0 -145.5 -98t-48.5 -271v-1036l110 -41v-20h-379v20
l135 41v903h-116v30h116v73q0 114 27 199.5t74.5 134t104.5 72t123 23.5q130 0 224.5 -78t94.5 -200q0 -50 -14 -94.5t-34 -76t-51 -63.5t-55.5 -51t-58 -44t-49.5 -39q70 -49 134 -108t124.5 -134t96.5 -163.5t36 -176.5q0 -134 -81.5 -213t-213.5 -79z" />
    <glyph glyph-name="agrave" unicode="&#xe0;" 
d="M475 1148l-186 220l4 11h124l66 -231h-8zM305 -24q-93 0 -153 59.5t-60 162.5q0 81 39 149t104.5 113t148 72t172.5 32v109q0 136 -43 201.5t-163 65.5q-111 0 -212 -65l-8 19q63 58 139.5 92t154.5 34t132 -25.5t83 -73.5t41 -103.5t12 -126.5v-599l93 -52v-12l-210 -52
l-16 142q-49 -66 -115 -104t-139 -38zM370 51q114 0 186 99v382q-142 -16 -227.5 -95t-85.5 -212q0 -174 127 -174z" />
    <glyph glyph-name="aacute" unicode="&#xe1;" 
d="M392 1148h-8l66 231h124l4 -11zM305 -24q-93 0 -153 59.5t-60 162.5q0 81 39 149t104.5 113t148 72t172.5 32v109q0 136 -43 201.5t-163 65.5q-111 0 -212 -65l-8 19q63 58 139.5 92t154.5 34t132 -25.5t83 -73.5t41 -103.5t12 -126.5v-599l93 -52v-12l-210 -52l-16 142
q-49 -66 -115 -104t-139 -38zM370 51q114 0 186 99v382q-142 -16 -227.5 -95t-85.5 -212q0 -174 127 -174z" />
    <glyph glyph-name="acircumflex" unicode="&#xe2;" 
d="M297 1132l-12 9l134 248h44l133 -248l-9 -9l-145 118zM305 -24q-93 0 -153 59.5t-60 162.5q0 81 39 149t104.5 113t148 72t172.5 32v109q0 136 -43 201.5t-163 65.5q-111 0 -212 -65l-8 19q63 58 139.5 92t154.5 34t132 -25.5t83 -73.5t41 -103.5t12 -126.5v-599l93 -52
v-12l-210 -52l-16 142q-49 -66 -115 -104t-139 -38zM370 51q114 0 186 99v382q-142 -16 -227.5 -95t-85.5 -212q0 -174 127 -174z" />
    <glyph glyph-name="atilde" unicode="&#xe3;" 
d="M278 1199l-9 4q29 157 118 157q23 0 74.5 -30t75.5 -30q59 0 81 60l7 -4q-10 -65 -38.5 -111t-77.5 -46q-25 0 -76.5 29.5t-74.5 29.5q-59 0 -80 -59zM305 -24q-93 0 -153 59.5t-60 162.5q0 81 39 149t104.5 113t148 72t172.5 32v109q0 136 -43 201.5t-163 65.5
q-111 0 -212 -65l-8 19q63 58 139.5 92t154.5 34t132 -25.5t83 -73.5t41 -103.5t12 -126.5v-599l93 -52v-12l-210 -52l-16 142q-49 -66 -115 -104t-139 -38zM370 51q114 0 186 99v382q-142 -16 -227.5 -95t-85.5 -212q0 -174 127 -174z" />
    <glyph glyph-name="adieresis" unicode="&#xe4;" 
d="M322 1159q-36 0 -61 25t-25 62t25 61t61 24q39 0 63 -24t24 -61t-24.5 -62t-62.5 -25zM567 1159q-37 0 -62 24.5t-25 62.5q0 37 24.5 61t62.5 24q37 0 61.5 -24t24.5 -61q0 -38 -24.5 -62.5t-61.5 -24.5zM305 -24q-93 0 -153 59.5t-60 162.5q0 81 39 149t104.5 113
t148 72t172.5 32v109q0 136 -43 201.5t-163 65.5q-111 0 -212 -65l-8 19q63 58 139.5 92t154.5 34t132 -25.5t83 -73.5t41 -103.5t12 -126.5v-599l93 -52v-12l-210 -52l-16 142q-49 -66 -115 -104t-139 -38zM370 51q114 0 186 99v382q-142 -16 -227.5 -95t-85.5 -212
q0 -174 127 -174z" />
    <glyph glyph-name="aring" unicode="&#xe5;" 
d="M440 1157q-68 0 -113.5 39t-45.5 102t45.5 102.5t113.5 39.5t114 -39.5t46 -102.5t-46 -102t-114 -39zM440 1179q26 0 41 31.5t15 87.5t-15 88t-41 32q-25 0 -40 -32t-15 -88t15 -87.5t40 -31.5zM305 -24q-93 0 -153 59.5t-60 162.5q0 81 39 149t104.5 113t148 72
t172.5 32v109q0 136 -43 201.5t-163 65.5q-111 0 -212 -65l-8 19q63 58 139.5 92t154.5 34t132 -25.5t83 -73.5t41 -103.5t12 -126.5v-599l93 -52v-12l-210 -52l-16 142q-49 -66 -115 -104t-139 -38zM370 51q114 0 186 99v382q-142 -16 -227.5 -95t-85.5 -212
q0 -174 127 -174z" />
    <glyph glyph-name="ae" unicode="&#xe6;" horiz-adv-x="1279" 
d="M965 60q143 0 254 103l9 -13q-59 -80 -135 -127t-160 -47q-104 0 -183.5 50.5t-128.5 142.5q-68 -96 -151 -144.5t-165 -48.5q-93 0 -153 59.5t-60 162.5q0 81 39 149t104.5 113t148 72t172.5 32v109q0 135 -40 201t-146 66q-111 0 -212 -65l-8 19q63 58 139.5 92
t154.5 34q166 0 219 -145q102 146 257 146q147 0 232.5 -126t85.5 -317h-532q-2 -19 -2 -59q0 -213 67 -336t194 -123zM914 990q-89 0 -144 -106t-64 -285l392 23q0 175 -48.5 271.5t-135.5 96.5zM370 51q139 0 242 138q-56 118 -56 283v15v45q-142 -16 -227.5 -95
t-85.5 -212q0 -174 127 -174z" />
    <glyph glyph-name="ccedilla" unicode="&#xe7;" horiz-adv-x="791" 
d="M453 -24q-22 0 -32 1l-27 -80q159 -44 159 -155q0 -77 -69.5 -133.5t-166.5 -64.5v11q59 16 90.5 62.5t31.5 104.5q0 25 -6.5 44.5t-20.5 32.5t-23 19t-26.5 13.5t-18.5 8.5l-2 14l54 126q-149 22 -235.5 153t-86.5 334q0 260 114 407t291 147q57 0 125.5 -17t109.5 -36
l-31 -250h-14q-10 26 -32 87t-39 104.5t-29 66.5q-45 15 -93 15q-82 0 -141 -68t-85.5 -171.5t-26.5 -228.5q0 -213 67.5 -338t193.5 -125q59 0 130.5 26.5t124.5 76.5l9 -13q-63 -85 -140 -129.5t-155 -44.5z" />
    <glyph glyph-name="egrave" unicode="&#xe8;" horiz-adv-x="797" 
d="M464 1148l-186 220l4 11h124l66 -231h-8zM451 -24q-175 0 -276 136t-101 360q0 244 103 396.5t261 152.5q147 0 232.5 -126t85.5 -317h-532q-2 -19 -2 -59q0 -213 67 -336t194 -123q143 0 254 103l9 -13q-59 -80 -135 -127t-160 -47zM224 599l392 23q0 175 -48.5 271.5
t-135.5 96.5q-89 0 -144 -106t-64 -285z" />
    <glyph glyph-name="eacute" unicode="&#xe9;" horiz-adv-x="797" 
d="M381 1148h-8l66 231h124l4 -11zM451 -24q-175 0 -276 136t-101 360q0 244 103 396.5t261 152.5q147 0 232.5 -126t85.5 -317h-532q-2 -19 -2 -59q0 -213 67 -336t194 -123q143 0 254 103l9 -13q-59 -80 -135 -127t-160 -47zM224 599l392 23q0 175 -48.5 271.5
t-135.5 96.5q-89 0 -144 -106t-64 -285z" />
    <glyph glyph-name="ecircumflex" unicode="&#xea;" horiz-adv-x="797" 
d="M286 1132l-12 9l134 248h44l133 -248l-9 -9l-145 118zM451 -24q-175 0 -276 136t-101 360q0 244 103 396.5t261 152.5q147 0 232.5 -126t85.5 -317h-532q-2 -19 -2 -59q0 -213 67 -336t194 -123q143 0 254 103l9 -13q-59 -80 -135 -127t-160 -47zM224 599l392 23
q0 175 -48.5 271.5t-135.5 96.5q-89 0 -144 -106t-64 -285z" />
    <glyph glyph-name="edieresis" unicode="&#xeb;" horiz-adv-x="797" 
d="M311 1159q-36 0 -61 25t-25 62t25 61t61 24q39 0 63 -24t24 -61t-24.5 -62t-62.5 -25zM556 1159q-38 0 -62.5 24.5t-24.5 62.5q0 37 24.5 61t62.5 24q37 0 61.5 -24t24.5 -61q0 -38 -24.5 -62.5t-61.5 -24.5zM451 -24q-175 0 -276 136t-101 360q0 244 103 396.5
t261 152.5q147 0 232.5 -126t85.5 -317h-532q-2 -19 -2 -59q0 -213 67 -336t194 -123q143 0 254 103l9 -13q-59 -80 -135 -127t-160 -47zM224 599l392 23q0 175 -48.5 271.5t-135.5 96.5q-89 0 -144 -106t-64 -285z" />
    <glyph glyph-name="igrave" unicode="&#xec;" horiz-adv-x="480" 
d="M276 1148l-186 220l4 11h124l66 -231h-8zM41 0v20l136 41v836l-120 40v19l249 65l7 -11v-949l136 -41v-20h-408z" />
    <glyph glyph-name="iacute" unicode="&#xed;" horiz-adv-x="480" 
d="M193 1148h-8l66 231h124l4 -11zM41 0v20l136 41v836l-120 40v19l249 65l7 -11v-949l136 -41v-20h-408z" />
    <glyph glyph-name="icircumflex" unicode="&#xee;" horiz-adv-x="480" 
d="M98 1132l-12 9l134 248h44l133 -248l-9 -9l-145 118zM41 0v20l136 41v836l-120 40v19l249 65l7 -11v-949l136 -41v-20h-408z" />
    <glyph glyph-name="idieresis" unicode="&#xef;" horiz-adv-x="480" 
d="M123 1159q-36 0 -61 25t-25 62t25 61t61 24q39 0 63 -24t24 -61t-24.5 -62t-62.5 -25zM368 1159q-38 0 -62.5 24.5t-24.5 62.5q0 37 24.5 61t62.5 24q37 0 61.5 -24t24.5 -61q0 -38 -24.5 -62.5t-61.5 -24.5zM41 0v20l136 41v836l-120 40v19l249 65l7 -11v-949l136 -41
v-20h-408z" />
    <glyph glyph-name="eth" unicode="&#xf0;" horiz-adv-x="931" 
d="M564 1365q293 -289 293 -867q0 -234 -108 -378t-283 -144q-176 0 -284 144t-108 378q0 235 107.5 379t282.5 144q77 0 136 -39.5t96 -102.5q-53 271 -194 451l-255 -170l-18 36l246 163q-123 123 -287 161l10 33q194 -43 334 -160l197 136l16 -36zM466 6q115 0 179 130.5
t64 361.5t-65 362t-178 131t-178 -131.5t-65 -361.5q0 -232 64 -362t179 -130z" />
    <glyph glyph-name="ntilde" unicode="&#xf1;" horiz-adv-x="1033" 
d="M361 1199l-9 4q29 157 118 157q23 0 74.5 -30t75.5 -30q59 0 81 60l7 -4q-10 -65 -38.5 -111t-77.5 -46q-25 0 -76.5 29.5t-74.5 29.5q-59 0 -80 -59zM41 0v20l138 41v836l-122 40v19l246 65l11 -11l-1 -146q157 157 299 157q119 0 190.5 -84.5t71.5 -233.5v-642l138 -41
v-20h-409v20l137 41v619q0 128 -50.5 194t-145.5 66q-114 0 -231 -118v-761l137 -41v-20h-409z" />
    <glyph glyph-name="ograve" unicode="&#xf2;" horiz-adv-x="933" 
d="M499 1148l-186 220l4 11h124l66 -231h-8zM467 -24q-179 0 -286 138.5t-107 383.5q0 246 107 384.5t286 138.5q178 0 285 -138.5t107 -384.5q0 -245 -107 -383.5t-285 -138.5zM467 6q117 0 180.5 125t63.5 367t-64 367.5t-180 125.5t-180 -126t-64 -367q0 -243 63 -367.5
t181 -124.5z" />
    <glyph glyph-name="oacute" unicode="&#xf3;" horiz-adv-x="933" 
d="M416 1148h-8l66 231h124l4 -11zM467 -24q-179 0 -286 138.5t-107 383.5q0 246 107 384.5t286 138.5q178 0 285 -138.5t107 -384.5q0 -245 -107 -383.5t-285 -138.5zM467 6q117 0 180.5 125t63.5 367t-64 367.5t-180 125.5t-180 -126t-64 -367q0 -243 63 -367.5
t181 -124.5z" />
    <glyph glyph-name="ocircumflex" unicode="&#xf4;" horiz-adv-x="933" 
d="M321 1132l-12 9l134 248h44l133 -248l-9 -9l-145 118zM467 -24q-179 0 -286 138.5t-107 383.5q0 246 107 384.5t286 138.5q178 0 285 -138.5t107 -384.5q0 -245 -107 -383.5t-285 -138.5zM467 6q117 0 180.5 125t63.5 367t-64 367.5t-180 125.5t-180 -126t-64 -367
q0 -243 63 -367.5t181 -124.5z" />
    <glyph glyph-name="otilde" unicode="&#xf5;" horiz-adv-x="933" 
d="M302 1199l-9 4q29 157 118 157q23 0 74.5 -30t75.5 -30q59 0 81 60l7 -4q-10 -65 -38.5 -111t-77.5 -46q-25 0 -76.5 29.5t-74.5 29.5q-59 0 -80 -59zM467 -24q-179 0 -286 138.5t-107 383.5q0 246 107 384.5t286 138.5q178 0 285 -138.5t107 -384.5q0 -245 -107 -383.5
t-285 -138.5zM467 6q117 0 180.5 125t63.5 367t-64 367.5t-180 125.5t-180 -126t-64 -367q0 -243 63 -367.5t181 -124.5z" />
    <glyph glyph-name="odieresis" unicode="&#xf6;" horiz-adv-x="933" 
d="M346 1159q-36 0 -61 25t-25 62t25 61t61 24q39 0 63 -24t24 -61t-24.5 -62t-62.5 -25zM591 1159q-37 0 -62 24.5t-25 62.5q0 37 24.5 61t62.5 24q37 0 61.5 -24t24.5 -61q0 -38 -24.5 -62.5t-61.5 -24.5zM467 -24q-179 0 -286 138.5t-107 383.5q0 246 107 384.5
t286 138.5q178 0 285 -138.5t107 -384.5q0 -245 -107 -383.5t-285 -138.5zM467 6q117 0 180.5 125t63.5 367t-64 367.5t-180 125.5t-180 -126t-64 -367q0 -243 63 -367.5t181 -124.5z" />
    <glyph glyph-name="divide" unicode="&#xf7;" horiz-adv-x="861" 
d="M422 739q-35 0 -59.5 28t-24.5 71t24 71t60 28q37 0 61 -27.5t24 -71.5t-24 -71.5t-61 -27.5zM115 511v42h630v-42h-630zM422 136q-35 0 -59.5 28t-24.5 71t24 71t60 28q37 0 61 -27.5t24 -71.5t-24 -71.5t-61 -27.5z" />
    <glyph glyph-name="oslash" unicode="&#xf8;" horiz-adv-x="933" 
d="M605 996q119 -47 186.5 -176t67.5 -322q0 -245 -107 -383.5t-285 -138.5q-56 0 -102 13l-29 -120h-40l32 133q-119 47 -186.5 175.5t-67.5 320.5q0 246 107 384.5t286 138.5q55 0 101 -13l29 122h40zM223 498q0 -331 117 -443l218 912q-41 24 -91 24q-116 0 -180 -126
t-64 -367zM467 6q117 0 180.5 125t63.5 367q0 333 -119 444l-218 -912q42 -24 93 -24z" />
    <glyph glyph-name="ugrave" unicode="&#xf9;" horiz-adv-x="937" 
d="M473 1148l-186 220l4 11h124l66 -231h-8zM378 -27q-115 0 -185.5 84.5t-70.5 233.5v606l-117 40v19l243 65l8 -11v-696q0 -127 49.5 -193.5t140.5 -66.5q112 0 224 118v725l-117 40v19l243 65l8 -11v-918l91 -51v-13l-205 -51l-20 153q-152 -157 -292 -157z" />
    <glyph glyph-name="uacute" unicode="&#xfa;" horiz-adv-x="937" 
d="M390 1148h-8l66 231h124l4 -11zM378 -27q-115 0 -185.5 84.5t-70.5 233.5v606l-117 40v19l243 65l8 -11v-696q0 -127 49.5 -193.5t140.5 -66.5q112 0 224 118v725l-117 40v19l243 65l8 -11v-918l91 -51v-13l-205 -51l-20 153q-152 -157 -292 -157z" />
    <glyph glyph-name="ucircumflex" unicode="&#xfb;" horiz-adv-x="937" 
d="M295 1132l-12 9l134 248h44l133 -248l-9 -9l-145 118zM378 -27q-115 0 -185.5 84.5t-70.5 233.5v606l-117 40v19l243 65l8 -11v-696q0 -127 49.5 -193.5t140.5 -66.5q112 0 224 118v725l-117 40v19l243 65l8 -11v-918l91 -51v-13l-205 -51l-20 153q-152 -157 -292 -157z
" />
    <glyph glyph-name="udieresis" unicode="&#xfc;" horiz-adv-x="937" 
d="M320 1159q-36 0 -61 25t-25 62t25 61t61 24q39 0 63 -24t24 -61t-24.5 -62t-62.5 -25zM565 1159q-37 0 -62 24.5t-25 62.5q0 37 24.5 61t62.5 24q37 0 61.5 -24t24.5 -61q0 -38 -24.5 -62.5t-61.5 -24.5zM378 -27q-115 0 -185.5 84.5t-70.5 233.5v606l-117 40v19l243 65
l8 -11v-696q0 -127 49.5 -193.5t140.5 -66.5q112 0 224 118v725l-117 40v19l243 65l8 -11v-918l91 -51v-13l-205 -51l-20 153q-152 -157 -292 -157z" />
    <glyph glyph-name="yacute" unicode="&#xfd;" horiz-adv-x="796" 
d="M350 1148h-8l66 231h124l4 -11zM156 -495l-91 136l3 16q15 6 50.5 16t62 20t58 26t56 42.5t38.5 61.5l44 140l-289 968l-83 42v21h334v-21l-110 -43l210 -759l229 759l-113 43v21h236v-21l-95 -42l-292 -972q-122 -410 -248 -454z" />
    <glyph glyph-name="thorn" unicode="&#xfe;" horiz-adv-x="984" 
d="M32 -416v20l134 41v1728l-107 48v12l232 64l10 -11v-616q97 151 261 151q156 0 252 -135.5t96 -360.5q0 -152 -45.5 -275t-138.5 -198.5t-219 -75.5q-67 0 -122.5 31t-83.5 74v-436l149 -41v-20h-418zM506 6q122 0 188.5 132t66.5 357q0 213 -70 330t-185 117
q-73 0 -121.5 -28t-83.5 -89v-619q31 -99 87 -149.5t118 -50.5z" />
    <glyph glyph-name="ydieresis" unicode="&#xff;" horiz-adv-x="796" 
d="M280 1159q-36 0 -61 25t-25 62t25 61t61 24q39 0 63 -24t24 -61t-24.5 -62t-62.5 -25zM525 1159q-37 0 -62 24.5t-25 62.5q0 37 24.5 61t62.5 24q37 0 61.5 -24t24.5 -61q0 -38 -24.5 -62.5t-61.5 -24.5zM156 -495l-91 136l3 16q15 6 50.5 16t62 20t58 26t56 42.5
t38.5 61.5l44 140l-289 968l-83 42v21h334v-21l-110 -43l210 -759l229 759l-113 43v21h236v-21l-95 -42l-292 -972q-122 -410 -248 -454z" />
    <glyph glyph-name="Amacron" unicode="&#x100;" horiz-adv-x="1233" 
d="M772 1615v-37h-379v37h379zM1071 74l149 -54v-20h-444v20l140 54l-121 409h-478l-120 -409l185 -54v-20h-377v20l156 54l368 1245l-79 100v20h203zM328 521h456l-229 771z" />
    <glyph glyph-name="amacron" unicode="&#x101;" 
d="M257 1229v37h379v-37h-379zM305 -24q-93 0 -153 59.5t-60 162.5q0 81 39 149t104.5 113t148 72t172.5 32v109q0 136 -43 201.5t-163 65.5q-111 0 -212 -65l-8 19q63 58 139.5 92t154.5 34t132 -25.5t83 -73.5t41 -103.5t12 -126.5v-599l93 -52v-12l-210 -52l-16 142
q-49 -66 -115 -104t-139 -38zM370 51q114 0 186 99v382q-142 -16 -227.5 -95t-85.5 -212q0 -174 127 -174z" />
    <glyph glyph-name="Abreve" unicode="&#x102;" horiz-adv-x="1233" 
d="M581 1541q-80 0 -125.5 73t-47.5 170l11 5q21 -135 162 -135q143 0 164 135l11 -5q-2 -96 -47.5 -169.5t-127.5 -73.5zM1071 74l149 -54v-20h-444v20l140 54l-121 409h-478l-120 -409l185 -54v-20h-377v20l156 54l368 1245l-79 100v20h203zM328 521h456l-229 771z" />
    <glyph glyph-name="abreve" unicode="&#x103;" 
d="M443 1154q-82 0 -126.5 67.5t-46.5 175.5h11q10 -72 48 -101t114 -29q78 0 116 29t48 101h11q-2 -107 -46.5 -175t-128.5 -68zM305 -24q-93 0 -153 59.5t-60 162.5q0 81 39 149t104.5 113t148 72t172.5 32v109q0 136 -43 201.5t-163 65.5q-111 0 -212 -65l-8 19
q63 58 139.5 92t154.5 34t132 -25.5t83 -73.5t41 -103.5t12 -126.5v-599l93 -52v-12l-210 -52l-16 142q-49 -66 -115 -104t-139 -38zM370 51q114 0 186 99v382q-142 -16 -227.5 -95t-85.5 -212q0 -174 127 -174z" />
    <glyph glyph-name="Aogonek" unicode="&#x104;" horiz-adv-x="1233" 
d="M1279 -337l8 -7q-74 -105 -146 -105q-54 0 -95 34.5t-41 109.5q0 17 3 34t11 36t13.5 32.5t20.5 35t22 32t28 35t27.5 32t31 35t29.5 33.5h-415v20l140 54l-121 409h-478l-120 -409l185 -54v-20h-377v20l156 54l368 1245l-79 100v20h203l418 -1365l149 -54v-20
q-103 -157 -103 -280q0 -49 23 -77t53 -28q49 0 86 48zM328 521h456l-229 771z" />
    <glyph glyph-name="aogonek" unicode="&#x105;" 
d="M843 -309l8 -7q-74 -105 -146 -105q-54 0 -95 34.5t-41 109.5q0 44 27 97t50.5 82.5t82.5 95.5l18 21l-172 -43l-16 142q-49 -66 -115 -104t-139 -38q-93 0 -153 59.5t-60 162.5q0 81 39 149t104.5 113t148 72t172.5 32v109q0 136 -43 201.5t-163 65.5q-111 0 -212 -65
l-8 19q63 58 139.5 92t154.5 34t132 -25.5t83 -73.5t41 -103.5t12 -126.5v-599l93 -52v-12h-1q-103 -157 -103 -280q0 -49 23 -77t53 -28q49 0 86 48zM556 150v382q-142 -16 -227.5 -95t-85.5 -212q0 -174 127 -174q114 0 186 99z" />
    <glyph glyph-name="Cacute" unicode="&#x106;" horiz-adv-x="1124" 
d="M613 1542l37 181h144l4 -11l-177 -170h-8zM651 -24q-171 0 -303 96t-203 264.5t-71 381.5q0 215 70 383.5t203.5 264.5t311.5 96q83 0 166 -24t195 -96l22 -352h-15q-22 87 -41 144.5t-50 117.5t-68.5 94t-94 56t-129.5 22q-129 0 -222.5 -93.5t-138.5 -251t-45 -361.5
q0 -318 111 -511.5t309 -193.5q79 0 138 28.5t101.5 88t72 134.5t57.5 184h15l-22 -352q-112 -72 -196.5 -96t-172.5 -24z" />
    <glyph glyph-name="cacute" unicode="&#x107;" horiz-adv-x="791" 
d="M451 1148h-8l66 231h124l4 -11zM453 -24q-173 0 -276 134.5t-103 356.5q0 260 114 407t291 147q57 0 125.5 -17t109.5 -36l-31 -250h-14q-10 26 -32 87t-39 104.5t-29 66.5q-45 15 -93 15q-82 0 -141 -68t-85.5 -171.5t-26.5 -228.5q0 -213 67.5 -338t193.5 -125
q59 0 130.5 26.5t124.5 76.5l9 -13q-63 -85 -140 -129.5t-155 -44.5z" />
    <glyph glyph-name="Ccircumflex" unicode="&#x108;" horiz-adv-x="1124" 
d="M514 1533l-12 9l134 238h44l133 -238l-9 -9l-145 108zM651 -24q-171 0 -303 96t-203 264.5t-71 381.5q0 215 70 383.5t203.5 264.5t311.5 96q83 0 166 -24t195 -96l22 -352h-15q-22 87 -41 144.5t-50 117.5t-68.5 94t-94 56t-129.5 22q-129 0 -222.5 -93.5t-138.5 -251
t-45 -361.5q0 -318 111 -511.5t309 -193.5q79 0 138 28.5t101.5 88t72 134.5t57.5 184h15l-22 -352q-112 -72 -196.5 -96t-172.5 -24z" />
    <glyph glyph-name="ccircumflex" unicode="&#x109;" horiz-adv-x="791" 
d="M356 1132l-12 9l134 248h44l133 -248l-9 -9l-145 118zM453 -24q-173 0 -276 134.5t-103 356.5q0 260 114 407t291 147q57 0 125.5 -17t109.5 -36l-31 -250h-14q-10 26 -32 87t-39 104.5t-29 66.5q-45 15 -93 15q-82 0 -141 -68t-85.5 -171.5t-26.5 -228.5
q0 -213 67.5 -338t193.5 -125q59 0 130.5 26.5t124.5 76.5l9 -13q-63 -85 -140 -129.5t-155 -44.5z" />
    <glyph glyph-name="Cdotaccent" unicode="&#x10a;" horiz-adv-x="1124" 
d="M658 1547q-39 0 -64.5 24t-25.5 63q0 38 25.5 63t64.5 25q38 0 63.5 -25t25.5 -63q0 -39 -25 -63t-64 -24zM651 -24q-171 0 -303 96t-203 264.5t-71 381.5q0 215 70 383.5t203.5 264.5t311.5 96q83 0 166 -24t195 -96l22 -352h-15q-22 87 -41 144.5t-50 117.5t-68.5 94
t-94 56t-129.5 22q-129 0 -222.5 -93.5t-138.5 -251t-45 -361.5q0 -318 111 -511.5t309 -193.5q79 0 138 28.5t101.5 88t72 134.5t57.5 184h15l-22 -352q-112 -72 -196.5 -96t-172.5 -24z" />
    <glyph glyph-name="cdotaccent" unicode="&#x10b;" horiz-adv-x="791" 
d="M503 1162q-39 0 -64.5 24t-25.5 63q0 38 25.5 63t64.5 25q38 0 63.5 -25t25.5 -63q0 -39 -25 -63t-64 -24zM453 -24q-173 0 -276 134.5t-103 356.5q0 260 114 407t291 147q57 0 125.5 -17t109.5 -36l-31 -250h-14q-10 26 -32 87t-39 104.5t-29 66.5q-45 15 -93 15
q-82 0 -141 -68t-85.5 -171.5t-26.5 -228.5q0 -213 67.5 -338t193.5 -125q59 0 130.5 26.5t124.5 76.5l9 -13q-63 -85 -140 -129.5t-155 -44.5z" />
    <glyph glyph-name="Ccaron" unicode="&#x10c;" horiz-adv-x="1124" 
d="M513 1790l145 -108l145 108l9 -9l-133 -238h-44l-134 238zM651 -24q-171 0 -303 96t-203 264.5t-71 381.5q0 215 70 383.5t203.5 264.5t311.5 96q83 0 166 -24t195 -96l22 -352h-15q-22 87 -41 144.5t-50 117.5t-68.5 94t-94 56t-129.5 22q-129 0 -222.5 -93.5
t-138.5 -251t-45 -361.5q0 -318 111 -511.5t309 -193.5q79 0 138 28.5t101.5 88t72 134.5t57.5 184h15l-22 -352q-112 -72 -196.5 -96t-172.5 -24z" />
    <glyph glyph-name="ccaron" unicode="&#x10d;" horiz-adv-x="791" 
d="M362 1439l145 -118l145 118l9 -9l-133 -248h-44l-134 248zM453 -24q-173 0 -276 134.5t-103 356.5q0 260 114 407t291 147q57 0 125.5 -17t109.5 -36l-31 -250h-14q-10 26 -32 87t-39 104.5t-29 66.5q-45 15 -93 15q-82 0 -141 -68t-85.5 -171.5t-26.5 -228.5
q0 -213 67.5 -338t193.5 -125q59 0 130.5 26.5t124.5 76.5l9 -13q-63 -85 -140 -129.5t-155 -44.5z" />
    <glyph glyph-name="Dcaron" unicode="&#x10e;" horiz-adv-x="1240" 
d="M478 1790l145 -108l145 108l9 -9l-133 -238h-44l-134 238zM48 0v20l147 53v1294l-147 52v20h541q266 0 421.5 -191.5t155.5 -526.5q0 -338 -157.5 -529.5t-432.5 -191.5h-528zM341 38h214q447 0 447 670q0 343 -109.5 518t-323.5 175h-228v-1363z" />
    <glyph glyph-name="dcaron" unicode="&#x10f;" horiz-adv-x="1172" 
d="M404 -24q-152 0 -241 136.5t-89 352.5q0 246 112.5 401t298.5 155q110 0 186 -95v447l-106 47v13l230 64l10 -11v-1404l88 -42v-12l-203 -52l-18 141q-59 -68 -121 -104.5t-147 -36.5zM970 1205l-58 266l6 15h130l6 -15l-59 -266h-25zM476 51q109 0 195 100v638
q-17 101 -67.5 151t-116.5 50q-118 0 -190.5 -137t-72.5 -350q0 -214 67.5 -333t184.5 -119z" />
    <glyph glyph-name="Dcroat" unicode="&#x110;" horiz-adv-x="1240" 
d="M589 1439q266 0 421.5 -191.5t155.5 -526.5q0 -338 -157.5 -529.5t-432.5 -191.5h-528v20l147 53v628h-107v38h107v628l-147 52v20h541zM555 38q447 0 447 670q0 343 -109.5 518t-323.5 175h-228v-662h117v-38h-117v-663h214z" />
    <glyph glyph-name="dcroat" unicode="&#x111;" horiz-adv-x="935" 
d="M805 82l88 -42v-12l-203 -52l-18 141q-59 -68 -121 -104.5t-147 -36.5q-152 0 -241 136.5t-89 352.5q0 246 112.5 401t298.5 155q110 0 186 -95v265h-111v37h111v145l-106 47v13l230 64l10 -11v-258h78v-37h-78v-1109zM671 151v638q-17 101 -67.5 151t-116.5 50
q-118 0 -190.5 -137t-72.5 -350q0 -214 67.5 -333t184.5 -119q109 0 195 100z" />
    <glyph glyph-name="Emacron" unicode="&#x112;" horiz-adv-x="997" 
d="M320 1578v37h379v-37h-379zM48 0v20l148 53v1292l-147 54v20h826v-351h-7l-123 313h-403v-644h264l86 189h14v-414h-14l-86 187h-264v-681h460l168 315l8 -2l-45 -351h-885z" />
    <glyph glyph-name="emacron" unicode="&#x113;" horiz-adv-x="797" 
d="M246 1229v37h379v-37h-379zM451 -24q-175 0 -276 136t-101 360q0 244 103 396.5t261 152.5q147 0 232.5 -126t85.5 -317h-532q-2 -19 -2 -59q0 -213 67 -336t194 -123q143 0 254 103l9 -13q-59 -80 -135 -127t-160 -47zM224 599l392 23q0 175 -48.5 271.5t-135.5 96.5
q-89 0 -144 -106t-64 -285z" />
    <glyph glyph-name="Ebreve" unicode="&#x114;" horiz-adv-x="997" 
d="M508 1541q-80 0 -125.5 73t-47.5 170l11 5q21 -135 162 -135q143 0 164 135l11 -5q-2 -96 -47.5 -169.5t-127.5 -73.5zM48 0v20l148 53v1292l-147 54v20h826v-351h-7l-123 313h-403v-644h264l86 189h14v-414h-14l-86 187h-264v-681h460l168 315l8 -2l-45 -351h-885z" />
    <glyph glyph-name="ebreve" unicode="&#x115;" horiz-adv-x="797" 
d="M432 1154q-82 0 -126.5 67.5t-46.5 175.5h11q10 -72 48 -101t114 -29q78 0 116 29t48 101h11q-2 -107 -46.5 -175t-128.5 -68zM451 -24q-175 0 -276 136t-101 360q0 244 103 396.5t261 152.5q147 0 232.5 -126t85.5 -317h-532q-2 -19 -2 -59q0 -213 67 -336t194 -123
q143 0 254 103l9 -13q-59 -80 -135 -127t-160 -47zM224 599l392 23q0 175 -48.5 271.5t-135.5 96.5q-89 0 -144 -106t-64 -285z" />
    <glyph glyph-name="Edotaccent" unicode="&#x116;" horiz-adv-x="997" 
d="M509 1547q-39 0 -64.5 24t-25.5 63q0 38 25.5 63t64.5 25q38 0 63.5 -25t25.5 -63q0 -39 -25 -63t-64 -24zM48 0v20l148 53v1292l-147 54v20h826v-351h-7l-123 313h-403v-644h264l86 189h14v-414h-14l-86 187h-264v-681h460l168 315l8 -2l-45 -351h-885z" />
    <glyph glyph-name="edotaccent" unicode="&#x117;" horiz-adv-x="797" 
d="M433 1162q-39 0 -64.5 24t-25.5 63q0 38 25.5 63t64.5 25q38 0 63.5 -25t25.5 -63q0 -39 -25 -63t-64 -24zM451 -24q-175 0 -276 136t-101 360q0 244 103 396.5t261 152.5q147 0 232.5 -126t85.5 -317h-532q-2 -19 -2 -59q0 -213 67 -336t194 -123q143 0 254 103l9 -13
q-59 -80 -135 -127t-160 -47zM224 599l392 23q0 175 -48.5 271.5t-135.5 96.5q-89 0 -144 -106t-64 -285z" />
    <glyph glyph-name="Eogonek" unicode="&#x118;" horiz-adv-x="997" 
d="M992 -337l8 -7q-74 -105 -146 -105q-54 0 -95 34.5t-41 109.5q0 17 3 34t11 36t13.5 32.5t20.5 35t22 32t28 35t27.5 32t31 35t29.5 33.5h-856v20l148 53v1292l-147 54v20h826v-351h-7l-123 313h-403v-644h264l86 189h14v-414h-14l-86 187h-264v-681h460l168 315l8 -2
l-45 -351q-103 -157 -103 -280q0 -49 23 -77t53 -28q49 0 86 48z" />
    <glyph glyph-name="eogonek" unicode="&#x119;" horiz-adv-x="797" 
d="M746 150q-58 -79 -127 -122q-89 -144 -89 -258q0 -49 23 -77t53 -28q49 0 86 48l8 -7q-74 -105 -146 -105q-54 0 -95 34.5t-41 109.5q0 58 35.5 116.5t102.5 134.5q-51 -20 -105 -20q-175 0 -276 136t-101 360q0 244 103 396.5t261 152.5q147 0 232.5 -126t85.5 -317
h-532q-2 -19 -2 -59q0 -213 67 -336t194 -123q143 0 254 103zM432 990q-89 0 -144 -106t-64 -285l392 23q0 175 -48.5 271.5t-135.5 96.5z" />
    <glyph glyph-name="Ecaron" unicode="&#x11a;" horiz-adv-x="997" 
d="M364 1790l145 -108l145 108l9 -9l-133 -238h-44l-134 238zM48 0v20l148 53v1292l-147 54v20h826v-351h-7l-123 313h-403v-644h264l86 189h14v-414h-14l-86 187h-264v-681h460l168 315l8 -2l-45 -351h-885z" />
    <glyph glyph-name="ecaron" unicode="&#x11b;" horiz-adv-x="797" 
d="M292 1439l145 -118l145 118l9 -9l-133 -248h-44l-134 248zM451 -24q-175 0 -276 136t-101 360q0 244 103 396.5t261 152.5q147 0 232.5 -126t85.5 -317h-532q-2 -19 -2 -59q0 -213 67 -336t194 -123q143 0 254 103l9 -13q-59 -80 -135 -127t-160 -47zM224 599l392 23
q0 175 -48.5 271.5t-135.5 96.5q-89 0 -144 -106t-64 -285z" />
    <glyph glyph-name="Gcircumflex" unicode="&#x11c;" horiz-adv-x="1181" 
d="M512 1533l-12 9l134 238h44l133 -238l-9 -9l-145 108zM663 -24q-179 0 -313.5 96t-205 263.5t-70.5 382.5q0 214 68.5 381t206.5 265t326 98q152 0 350 -120l21 -352h-15q-21 84 -40 141.5t-50 117.5t-68.5 95.5t-94 58t-127.5 22.5q-88 0 -158.5 -39.5t-117 -106.5
t-78.5 -159t-45.5 -192t-13.5 -211q0 -212 48.5 -367.5t153 -246t257.5 -90.5q81 0 165 64.5t84 136.5v348l-172 83v11h309v-492q-101 -100 -198.5 -144t-221.5 -44z" />
    <glyph glyph-name="gcircumflex" unicode="&#x11d;" horiz-adv-x="878" 
d="M468 1250l-145 -118l-12 9l134 248h44l133 -248l-9 -9zM840 1055v-138l-168 -1q82 -98 82 -249q0 -159 -88 -256.5t-232 -97.5q-85 0 -150 35q-77 -57 -77 -139q0 -30 12 -49t35 -27.5t45.5 -11.5t55.5 -3h212q126 0 196.5 -61t70.5 -185q0 -133 -109.5 -214.5
t-283.5 -81.5q-170 0 -269 59.5t-99 161.5q0 76 44.5 132t120.5 80q-117 32 -117 144q0 122 137 210q-68 45 -105.5 125t-37.5 183q0 157 88 253.5t231 96.5q131 0 217 -83l180 119zM434 343q84 0 131 86t47 238t-47 237.5t-131 85.5t-131 -85.5t-47 -237.5t47 -238t131 -86
zM580 -4q-22 0 -104.5 -2.5t-133.5 0t-93 12.5q-68 -72 -68 -172q0 -105 71.5 -166.5t202.5 -61.5q128 0 199.5 59t71.5 164q0 85 -41 126t-105 41z" />
    <glyph glyph-name="Gbreve" unicode="&#x11e;" horiz-adv-x="1181" 
d="M655 1541q-80 0 -125.5 73t-47.5 170l11 5q21 -135 162 -135q143 0 164 135l11 -5q-2 -96 -47.5 -169.5t-127.5 -73.5zM663 -24q-179 0 -313.5 96t-205 263.5t-70.5 382.5q0 214 68.5 381t206.5 265t326 98q152 0 350 -120l21 -352h-15q-21 84 -40 141.5t-50 117.5
t-68.5 95.5t-94 58t-127.5 22.5q-88 0 -158.5 -39.5t-117 -106.5t-78.5 -159t-45.5 -192t-13.5 -211q0 -212 48.5 -367.5t153 -246t257.5 -90.5q81 0 165 64.5t84 136.5v348l-172 83v11h309v-492q-101 -100 -198.5 -144t-221.5 -44z" />
    <glyph glyph-name="gbreve" unicode="&#x11f;" horiz-adv-x="878" 
d="M469 1154q-82 0 -126.5 67.5t-46.5 175.5h11q10 -72 48 -101t114 -29q78 0 116 29t48 101h11q-2 -107 -46.5 -175t-128.5 -68zM840 1055v-138l-168 -1q82 -98 82 -249q0 -159 -88 -256.5t-232 -97.5q-85 0 -150 35q-77 -57 -77 -139q0 -30 12 -49t35 -27.5t45.5 -11.5
t55.5 -3h212q126 0 196.5 -61t70.5 -185q0 -133 -109.5 -214.5t-283.5 -81.5q-170 0 -269 59.5t-99 161.5q0 76 44.5 132t120.5 80q-117 32 -117 144q0 122 137 210q-68 45 -105.5 125t-37.5 183q0 157 88 253.5t231 96.5q131 0 217 -83l180 119zM434 343q84 0 131 86
t47 238t-47 237.5t-131 85.5t-131 -85.5t-47 -237.5t47 -238t131 -86zM580 -4q-22 0 -104.5 -2.5t-133.5 0t-93 12.5q-68 -72 -68 -172q0 -105 71.5 -166.5t202.5 -61.5q128 0 199.5 59t71.5 164q0 85 -41 126t-105 41z" />
    <glyph glyph-name="Gdotaccent" unicode="&#x120;" horiz-adv-x="1181" 
d="M656 1547q-39 0 -64.5 24t-25.5 63q0 38 25.5 63t64.5 25q38 0 63.5 -25t25.5 -63q0 -39 -25 -63t-64 -24zM663 -24q-179 0 -313.5 96t-205 263.5t-70.5 382.5q0 214 68.5 381t206.5 265t326 98q152 0 350 -120l21 -352h-15q-21 84 -40 141.5t-50 117.5t-68.5 95.5
t-94 58t-127.5 22.5q-88 0 -158.5 -39.5t-117 -106.5t-78.5 -159t-45.5 -192t-13.5 -211q0 -212 48.5 -367.5t153 -246t257.5 -90.5q81 0 165 64.5t84 136.5v348l-172 83v11h309v-492q-101 -100 -198.5 -144t-221.5 -44z" />
    <glyph glyph-name="gdotaccent" unicode="&#x121;" horiz-adv-x="878" 
d="M470 1162q-39 0 -64.5 24t-25.5 63q0 38 25.5 63t64.5 25q38 0 63.5 -25t25.5 -63q0 -39 -25 -63t-64 -24zM840 1055v-138l-168 -1q82 -98 82 -249q0 -159 -88 -256.5t-232 -97.5q-85 0 -150 35q-77 -57 -77 -139q0 -30 12 -49t35 -27.5t45.5 -11.5t55.5 -3h212
q126 0 196.5 -61t70.5 -185q0 -133 -109.5 -214.5t-283.5 -81.5q-170 0 -269 59.5t-99 161.5q0 76 44.5 132t120.5 80q-117 32 -117 144q0 122 137 210q-68 45 -105.5 125t-37.5 183q0 157 88 253.5t231 96.5q131 0 217 -83l180 119zM434 343q84 0 131 86t47 238t-47 237.5
t-131 85.5t-131 -85.5t-47 -237.5t47 -238t131 -86zM580 -4q-22 0 -104.5 -2.5t-133.5 0t-93 12.5q-68 -72 -68 -172q0 -105 71.5 -166.5t202.5 -61.5q128 0 199.5 59t71.5 164q0 85 -41 126t-105 41z" />
    <glyph glyph-name="uni0122" unicode="&#x122;" horiz-adv-x="1181" 
d="M663 -24q-179 0 -313.5 96t-205 263.5t-70.5 382.5q0 214 68.5 381t206.5 265t326 98q152 0 350 -120l21 -352h-15q-21 84 -40 141.5t-50 117.5t-68.5 95.5t-94 58t-127.5 22.5q-88 0 -158.5 -39.5t-117 -106.5t-78.5 -159t-45.5 -192t-13.5 -211q0 -212 48.5 -367.5
t153 -246t257.5 -90.5q81 0 165 64.5t84 136.5v348l-172 83v11h309v-492q-101 -100 -198.5 -144t-221.5 -44zM705 -100q41 -61 41 -112q0 -67 -52 -123.5t-120 -82.5l-5 10q27 29 40 50t13 47q0 56 -65 110z" />
    <glyph glyph-name="uni0123" unicode="&#x123;" horiz-adv-x="878" 
d="M575 1211l-148 -101q-41 61 -41 112q0 67 52 123.5t120 82.5l5 -10q-27 -29 -40 -50t-13 -47q0 -56 65 -110zM840 1055v-138l-168 -1q82 -98 82 -249q0 -159 -88 -256.5t-232 -97.5q-85 0 -150 35q-77 -57 -77 -139q0 -30 12 -49t35 -27.5t45.5 -11.5t55.5 -3h212
q126 0 196.5 -61t70.5 -185q0 -133 -109.5 -214.5t-283.5 -81.5q-170 0 -269 59.5t-99 161.5q0 76 44.5 132t120.5 80q-117 32 -117 144q0 122 137 210q-68 45 -105.5 125t-37.5 183q0 157 88 253.5t231 96.5q131 0 217 -83l180 119zM434 343q84 0 131 86t47 238t-47 237.5
t-131 85.5t-131 -85.5t-47 -237.5t47 -238t131 -86zM580 -4q-22 0 -104.5 -2.5t-133.5 0t-93 12.5q-68 -72 -68 -172q0 -105 71.5 -166.5t202.5 -61.5q128 0 199.5 59t71.5 164q0 85 -41 126t-105 41z" />
    <glyph glyph-name="Hcircumflex" unicode="&#x124;" horiz-adv-x="1328" 
d="M520 1533l-12 9l134 238h44l133 -238l-9 -9l-145 108zM48 0v20l147 53v1292l-147 54v20h442v-20l-149 -54v-609h644v609l-147 54v20h442v-20l-149 -54v-1291l149 -54v-20h-442v20l147 53v645h-644v-644l149 -54v-20h-442z" />
    <glyph glyph-name="hcircumflex" unicode="&#x125;" horiz-adv-x="1033" 
d="M106 1553l-12 9l134 238h44l133 -238l-9 -9l-145 108zM41 0v20l137 41v1312l-107 48v12l232 64l10 -11v-623q85 79 153 118.5t146 39.5q117 0 189 -85.5t72 -222.5v-652l139 -41v-20h-409v20l137 41v629q0 120 -49 185t-137 65q-61 0 -129.5 -30.5t-111.5 -88.5v-760
l137 -41v-20h-409z" />
    <glyph glyph-name="Hbar" unicode="&#x126;" horiz-adv-x="1328" 
d="M48 0v20l147 53v1292l-147 54v20h442v-20l-149 -54v-609h644v609l-147 54v20h442v-20l-149 -54v-1291l149 -54v-20h-442v20l147 53v645h-644v-644l149 -54v-20h-442zM343 1026v37h637v-37h-637z" />
    <glyph glyph-name="hbar" unicode="&#x127;" horiz-adv-x="1033" 
d="M873 61l139 -41v-20h-409v20l137 41v629q0 120 -49 185t-137 65q-61 0 -129.5 -30.5t-111.5 -88.5v-760l137 -41v-20h-409v20l137 41v1105h-91v37h91v170l-107 48v12l232 64l10 -11v-283h97v-37h-97v-303q85 79 153 118.5t146 39.5q117 0 189 -85.5t72 -222.5v-652z" />
    <glyph glyph-name="Itilde" unicode="&#x128;" horiz-adv-x="536" 
d="M99 1558l-9 4q29 157 118 157q23 0 74.5 -30t75.5 -30q59 0 81 60l7 -4q-10 -65 -38.5 -111t-77.5 -46q-25 0 -76.5 29.5t-74.5 29.5q-59 0 -80 -59zM48 0v20l147 53v1292l-147 54v20h440v-20l-147 -54v-1291l147 -54v-20h-440z" />
    <glyph glyph-name="itilde" unicode="&#x129;" horiz-adv-x="480" 
d="M79 1199l-9 4q29 157 118 157q23 0 74.5 -30t75.5 -30q59 0 81 60l7 -4q-10 -65 -38.5 -111t-77.5 -46q-25 0 -76.5 29.5t-74.5 29.5q-59 0 -80 -59zM41 0v20l136 41v836l-120 40v19l249 65l7 -11v-949l136 -41v-20h-408z" />
    <glyph glyph-name="Imacron" unicode="&#x12a;" horiz-adv-x="536" 
d="M79 1578v37h379v-37h-379zM48 0v20l147 53v1292l-147 54v20h440v-20l-147 -54v-1291l147 -54v-20h-440z" />
    <glyph glyph-name="imacron" unicode="&#x12b;" horiz-adv-x="480" 
d="M58 1229v37h379v-37h-379zM41 0v20l136 41v836l-120 40v19l249 65l7 -11v-949l136 -41v-20h-408z" />
    <glyph glyph-name="Ibreve" unicode="&#x12c;" horiz-adv-x="536" 
d="M267 1541q-80 0 -125.5 73t-47.5 170l11 5q21 -135 162 -135q143 0 164 135l11 -5q-2 -96 -47.5 -169.5t-127.5 -73.5zM48 0v20l147 53v1292l-147 54v20h440v-20l-147 -54v-1291l147 -54v-20h-440z" />
    <glyph glyph-name="ibreve" unicode="&#x12d;" horiz-adv-x="480" 
d="M244 1154q-82 0 -126.5 67.5t-46.5 175.5h11q10 -72 48 -101t114 -29q78 0 116 29t48 101h11q-2 -107 -46.5 -175t-128.5 -68zM41 0v20l136 41v836l-120 40v19l249 65l7 -11v-949l136 -41v-20h-408z" />
    <glyph glyph-name="Iogonek" unicode="&#x12e;" horiz-adv-x="536" 
d="M488 1419l-147 -54v-1291l147 -54v-20h-194q-103 -157 -103 -280q0 -49 23 -77t53 -28q49 0 86 48l8 -7q-74 -105 -146 -105q-54 0 -95 34.5t-41 109.5q0 17 3 34t11 36t13.5 32.5t20.5 35t22 32t28 35t27.5 32t31 35t29.5 33.5h-217v20l147 53v1292l-147 54v20h440v-20z
" />
    <glyph glyph-name="iogonek" unicode="&#x12f;" horiz-adv-x="480" 
d="M240 1251q-39 0 -64 24.5t-25 63.5q0 38 25.5 63.5t63.5 25.5q39 0 64.5 -25.5t25.5 -63.5q0 -39 -25.5 -63.5t-64.5 -24.5zM449 0h-155q-103 -157 -103 -280q0 -49 23 -77t53 -28q49 0 86 48l8 -7q-74 -105 -146 -105q-54 0 -95 34.5t-41 109.5q0 17 3 34t11 36
t13.5 32.5t20.5 35t22 32t28 35t27.5 32t31 35t29.5 33.5h-224v20l136 41v836l-120 40v19l249 65l7 -11v-949l136 -41v-20z" />
    <glyph glyph-name="Idotaccent" unicode="&#x130;" horiz-adv-x="536" 
d="M268 1547q-39 0 -64.5 24t-25.5 63q0 38 25.5 63t64.5 25q38 0 63.5 -25t25.5 -63q0 -39 -25 -63t-64 -24zM48 0v20l147 53v1292l-147 54v20h440v-20l-147 -54v-1291l147 -54v-20h-440z" />
    <glyph glyph-name="dotlessi" unicode="&#x131;" horiz-adv-x="480" 
d="M41 0v20l136 41v836l-120 40v19l249 65l7 -11v-949l136 -41v-20h-408z" />
    <glyph glyph-name="IJ" unicode="&#x132;" horiz-adv-x="1290" 
d="M48 0v20l147 53v1292l-147 54v20h440v-20l-147 -54v-1291l147 -54v-20h-440zM843 -24q-60 0 -124 28t-104 69l-21 375h15q11 -53 33.5 -123.5t53.5 -141.5t70 -120t75 -49q44 0 73 33.5t42.5 93.5t18 116.5t4.5 128.5v979l-167 54v20h458v-20l-145 -54v-1072
q0 -141 -81.5 -229t-200.5 -88z" />
    <glyph glyph-name="ij" unicode="&#x133;" horiz-adv-x="936" 
d="M240 1251q-39 0 -64 24.5t-25 63.5q0 38 25.5 63.5t63.5 25.5q39 0 64.5 -25.5t25.5 -63.5q0 -39 -25.5 -63.5t-64.5 -24.5zM714 1251q-39 0 -64 24.5t-25 63.5q0 38 25.5 63.5t63.5 25.5q39 0 64.5 -25.5t25.5 -63.5q0 -39 -25.5 -63.5t-64.5 -24.5zM41 0v20l136 41v836
l-120 40v19l249 65l7 -11v-949l136 -41v-20h-408zM593 -417l-3 6q59 121 59 343v965l-118 40v19l247 65l8 -11v-928q0 -202 -51.5 -330t-141.5 -169z" />
    <glyph glyph-name="Jcircumflex" unicode="&#x134;" horiz-adv-x="754" 
d="M370 1533l-12 9l134 238h44l133 -238l-9 -9l-145 108zM307 -24q-60 0 -124 28t-104 69l-21 375h15q11 -53 33.5 -123.5t53.5 -141.5t70 -120t75 -49q44 0 73 33.5t42.5 93.5t18 116.5t4.5 128.5v979l-167 54v20h458v-20l-145 -54v-1072q0 -141 -81.5 -229t-200.5 -88z
" />
    <glyph glyph-name="jcircumflex" unicode="&#x135;" horiz-adv-x="456" 
d="M92 1132l-12 9l134 248h44l133 -248l-9 -9l-145 118zM113 -417l-3 6q59 121 59 343v965l-118 40v19l247 65l8 -11v-928q0 -202 -51.5 -330t-141.5 -169z" />
    <glyph glyph-name="uni0136" unicode="&#x136;" horiz-adv-x="1157" 
d="M48 0v20l147 53v1292l-147 54v20h440v-20l-147 -54v-1291l147 -54v-20h-440zM853 0l-452 737l477 620l-215 62v20h416v-20l-145 -54l-419 -545l464 -746l139 -44v-30h-265zM650 -100q41 -61 41 -112q0 -67 -52 -123.5t-120 -82.5l-5 10q27 29 40 50t13 47q0 56 -65 110z
" />
    <glyph glyph-name="uni0137" unicode="&#x137;" horiz-adv-x="900" 
d="M486 589l382 -569v-20h-166l-288 491l-101 -138v-292l137 -41v-20h-409v20l137 41v1312l-106 48v12l232 64l9 -11v-1086l390 531l-133 51v12h285v-12l-117 -51zM373 -201l148 101q41 -61 41 -112q0 -67 -52 -123.5t-120 -82.5l-5 10q27 29 40 50t13 47q0 56 -65 110z" />
    <glyph glyph-name="kgreenlandic" unicode="&#x138;" horiz-adv-x="900" 
d="M486 589l382 -569v-20h-166l-288 491l-101 -138v-292l137 -41v-20h-409v20l137 41v836l-106 48v12l232 64l9 -11v-610l390 531l-133 51v12h285v-12l-117 -51z" />
    <glyph glyph-name="Lacute" unicode="&#x139;" horiz-adv-x="927" 
d="M219 1542l37 181h144l4 -11l-177 -170h-8zM48 0v20l146 53v1292l-146 54v20h457v-20l-165 -54v-1327h393l166 315l8 -2l-43 -351h-816z" />
    <glyph glyph-name="lacute" unicode="&#x13a;" horiz-adv-x="481" 
d="M201 1589l37 181h144l4 -11l-177 -170h-8zM41 0v20l137 41v1312l-106 48v12l232 64l9 -11v-1425l137 -41v-20h-409z" />
    <glyph glyph-name="uni013B" unicode="&#x13b;" horiz-adv-x="927" 
d="M48 0v20l146 53v1292l-146 54v20h457v-20l-165 -54v-1327h393l166 315l8 -2l-43 -351h-816zM523 -100q41 -61 41 -112q0 -67 -52 -123.5t-120 -82.5l-5 10q27 29 40 50t13 47q0 56 -65 110z" />
    <glyph glyph-name="uni013C" unicode="&#x13c;" horiz-adv-x="481" 
d="M41 0v20l137 41v1312l-106 48v12l232 64l9 -11v-1425l137 -41v-20h-409zM297 -100q41 -61 41 -112q0 -67 -52 -123.5t-120 -82.5l-5 10q27 29 40 50t13 47q0 56 -65 110z" />
    <glyph glyph-name="Lcaron" unicode="&#x13d;" horiz-adv-x="927" 
d="M48 0v20l146 53v1292l-146 54v20h457v-20l-165 -54v-1327h393l166 315l8 -2l-43 -351h-816zM818 1158l-58 266l6 15h130l6 -15l-59 -266h-25z" />
    <glyph glyph-name="lcaron" unicode="&#x13e;" horiz-adv-x="531" 
d="M41 0v20l137 41v1312l-106 48v12l232 64l9 -11v-1425l137 -41v-20h-409zM472 1205l-58 266l6 15h130l6 -15l-59 -266h-25z" />
    <glyph glyph-name="Ldot" unicode="&#x13f;" horiz-adv-x="927" 
d="M48 0v20l146 53v1292l-146 54v20h457v-20l-165 -54v-1327h393l166 315l8 -2l-43 -351h-816zM683 607q-49 0 -83 33t-34 83q0 51 34 84.5t83 33.5q52 0 84.5 -33t32.5 -85q0 -51 -32.5 -83.5t-84.5 -32.5z" />
    <glyph glyph-name="ldot" unicode="&#x140;" horiz-adv-x="785" 
d="M41 0v20l137 41v1312l-106 48v12l232 64l9 -11v-1425l137 -41v-20h-409zM664 630q-49 0 -83 33t-34 83q0 51 34 84.5t83 33.5q52 0 84.5 -33t32.5 -85q0 -51 -32.5 -83.5t-84.5 -32.5z" />
    <glyph glyph-name="Lslash" unicode="&#x141;" horiz-adv-x="927" 
d="M899 353l8 -2l-43 -351h-816v20l146 53v528l-129 -74l-19 33l148 85v720l-146 54v20h457v-20l-165 -54v-636l90 52l19 -33l-109 -63v-647h393z" />
    <glyph glyph-name="lslash" unicode="&#x142;" horiz-adv-x="481" 
d="M313 61l137 -41v-20h-409v20l137 41v580l-113 -65l-19 32l132 76v689l-106 48v12l232 64l9 -11v-724l97 56l18 -32l-115 -67v-658z" />
    <glyph glyph-name="Nacute" unicode="&#x143;" horiz-adv-x="1267" 
d="M602 1542l37 181h144l4 -11l-177 -170h-8zM1038 -17l-788 1269v-1167l169 -65v-20h-371v20l168 65v1280l-168 54v20h257l738 -1205v1120l-170 66v19h375v-19l-170 -66v-1354z" />
    <glyph glyph-name="nacute" unicode="&#x144;" horiz-adv-x="1033" 
d="M475 1148h-8l66 231h124l4 -11zM41 0v20l138 41v836l-122 40v19l246 65l11 -11l-1 -146q157 157 299 157q119 0 190.5 -84.5t71.5 -233.5v-642l138 -41v-20h-409v20l137 41v619q0 128 -50.5 194t-145.5 66q-114 0 -231 -118v-761l137 -41v-20h-409z" />
    <glyph glyph-name="uni0145" unicode="&#x145;" horiz-adv-x="1267" 
d="M1038 -17l-788 1269v-1167l169 -65v-20h-371v20l168 65v1280l-168 54v20h257l738 -1205v1120l-170 66v19h375v-19l-170 -66v-1354zM696 -100q41 -61 41 -112q0 -67 -52 -123.5t-120 -82.5l-5 10q27 29 40 50t13 47q0 56 -65 110z" />
    <glyph glyph-name="uni0146" unicode="&#x146;" horiz-adv-x="1033" 
d="M41 0v20l138 41v836l-122 40v19l246 65l11 -11l-1 -146q157 157 299 157q119 0 190.5 -84.5t71.5 -233.5v-642l138 -41v-20h-409v20l137 41v619q0 128 -50.5 194t-145.5 66q-114 0 -231 -118v-761l137 -41v-20h-409zM578 -100q41 -61 41 -112q0 -67 -52 -123.5
t-120 -82.5l-5 10q27 29 40 50t13 47q0 56 -65 110z" />
    <glyph glyph-name="Ncaron" unicode="&#x147;" horiz-adv-x="1267" 
d="M502 1790l145 -108l145 108l9 -9l-133 -238h-44l-134 238zM1038 -17l-788 1269v-1167l169 -65v-20h-371v20l168 65v1280l-168 54v20h257l738 -1205v1120l-170 66v19h375v-19l-170 -66v-1354z" />
    <glyph glyph-name="ncaron" unicode="&#x148;" horiz-adv-x="1033" 
d="M386 1439l145 -118l145 118l9 -9l-133 -248h-44l-134 248zM41 0v20l138 41v836l-122 40v19l246 65l11 -11l-1 -146q157 157 299 157q119 0 190.5 -84.5t71.5 -233.5v-642l138 -41v-20h-409v20l137 41v619q0 128 -50.5 194t-145.5 66q-114 0 -231 -118v-761l137 -41v-20
h-409z" />
    <glyph glyph-name="napostrophe" unicode="&#x149;" horiz-adv-x="1200" 
d="M83 1143l-7 10q58 88 58 147q0 70 -58 102l69 91q60 -46 60 -133q0 -126 -122 -217zM41 0v20l138 41v836l-122 40v19l246 65l11 -11l-1 -146q157 157 299 157q119 0 190.5 -84.5t71.5 -233.5v-642l138 -41v-20h-409v20l137 41v619q0 128 -50.5 194t-145.5 66
q-114 0 -231 -118v-761l137 -41v-20h-409z" />
    <glyph glyph-name="Eng" unicode="&#x14a;" horiz-adv-x="1268" 
d="M841 -395l-6 17q91 62 129 137t38 175v111l-752 1207v-1167l169 -65v-20h-371v20l168 65v1280l-168 54v20h257l738 -1205v1120l-170 66v19h375v-19l-170 -66v-1354q0 -332 -237 -395z" />
    <glyph glyph-name="eng" unicode="&#x14b;" horiz-adv-x="1033" 
d="M608 -415l-5 16q65 62 96 141.5t31 191.5v746q0 128 -50.5 194t-145.5 66q-114 0 -231 -118v-761l137 -41v-20h-409v20l137 41v836l-121 40v19l246 65l10 -11v-146q157 157 299 157q119 0 190.5 -84.5t71.5 -233.5v-642q0 -119 -23 -212.5t-82 -166t-151 -97.5z" />
    <glyph glyph-name="Omacron" unicode="&#x14c;" horiz-adv-x="1257" 
d="M440 1578v37h379v-37h-379zM628 -24q-249 0 -401.5 203.5t-152.5 537.5q0 335 152.5 540t401.5 205q165 0 291 -93t195 -262t69 -390q0 -220 -69 -388.5t-195 -260.5t-291 -92zM628 13q177 0 285 194t108 510q0 318 -108 512.5t-285 194.5q-176 0 -283.5 -194.5
t-107.5 -512.5q0 -317 107.5 -510.5t283.5 -193.5z" />
    <glyph glyph-name="omacron" unicode="&#x14d;" horiz-adv-x="933" 
d="M281 1229v37h379v-37h-379zM467 -24q-179 0 -286 138.5t-107 383.5q0 246 107 384.5t286 138.5q178 0 285 -138.5t107 -384.5q0 -245 -107 -383.5t-285 -138.5zM467 6q117 0 180.5 125t63.5 367t-64 367.5t-180 125.5t-180 -126t-64 -367q0 -243 63 -367.5t181 -124.5z
" />
    <glyph glyph-name="Obreve" unicode="&#x14e;" horiz-adv-x="1257" 
d="M628 1541q-80 0 -125.5 73t-47.5 170l11 5q21 -135 162 -135q143 0 164 135l11 -5q-2 -96 -47.5 -169.5t-127.5 -73.5zM628 -24q-249 0 -401.5 203.5t-152.5 537.5q0 335 152.5 540t401.5 205q165 0 291 -93t195 -262t69 -390q0 -220 -69 -388.5t-195 -260.5t-291 -92z
M628 13q177 0 285 194t108 510q0 318 -108 512.5t-285 194.5q-176 0 -283.5 -194.5t-107.5 -512.5q0 -317 107.5 -510.5t283.5 -193.5z" />
    <glyph glyph-name="obreve" unicode="&#x14f;" horiz-adv-x="933" 
d="M467 1154q-82 0 -126.5 67.5t-46.5 175.5h11q10 -72 48 -101t114 -29q78 0 116 29t48 101h11q-2 -107 -46.5 -175t-128.5 -68zM467 -24q-179 0 -286 138.5t-107 383.5q0 246 107 384.5t286 138.5q178 0 285 -138.5t107 -384.5q0 -245 -107 -383.5t-285 -138.5zM467 6
q117 0 180.5 125t63.5 367t-64 367.5t-180 125.5t-180 -126t-64 -367q0 -243 63 -367.5t181 -124.5z" />
    <glyph glyph-name="Ohungarumlaut" unicode="&#x150;" horiz-adv-x="1257" 
d="M553 1542l23 181h115l4 -11l-134 -170h-8zM684 1542l23 181h115l4 -11l-134 -170h-8zM628 -24q-249 0 -401.5 203.5t-152.5 537.5q0 335 152.5 540t401.5 205q165 0 291 -93t195 -262t69 -390q0 -220 -69 -388.5t-195 -260.5t-291 -92zM628 13q177 0 285 194t108 510
q0 318 -108 512.5t-285 194.5q-176 0 -283.5 -194.5t-107.5 -512.5q0 -317 107.5 -510.5t283.5 -193.5z" />
    <glyph glyph-name="ohungarumlaut" unicode="&#x151;" horiz-adv-x="933" 
d="M305 1147l53 211h129l4 -11l-177 -200h-9zM471 1145l53 211h129l4 -11l-177 -200h-9zM467 -24q-179 0 -286 138.5t-107 383.5q0 246 107 384.5t286 138.5q178 0 285 -138.5t107 -384.5q0 -245 -107 -383.5t-285 -138.5zM467 6q117 0 180.5 125t63.5 367t-64 367.5
t-180 125.5t-180 -126t-64 -367q0 -243 63 -367.5t181 -124.5z" />
    <glyph glyph-name="OE" unicode="&#x152;" horiz-adv-x="1759" 
d="M1732 353l8 -2l-45 -351h-909q-74 -24 -158 -24q-249 0 -401.5 203.5t-152.5 537.5q0 335 152.5 540t401.5 205q79 0 153 -23h856v-351h-7l-123 313h-638q141 -79 223.5 -247t89.5 -397h186l86 189h13v-414h-13l-86 187h-185v-2q0 -241 -82.5 -419t-229.5 -260h693z
M237 717q0 -317 107.5 -510.5t283.5 -193.5q177 0 285 194t108 510q0 318 -108 512.5t-285 194.5q-176 0 -283.5 -194.5t-107.5 -512.5z" />
    <glyph glyph-name="oe" unicode="&#x153;" horiz-adv-x="1442" 
d="M1128 60q143 0 254 103l9 -13q-59 -80 -135 -127t-160 -47q-103 0 -182.5 49.5t-127.5 140.5q-51 -92 -133 -141t-186 -49q-179 0 -286 138.5t-107 383.5q0 246 107 384.5t286 138.5q107 0 191 -52t134 -151q50 97 125 150t166 53q147 0 232.5 -126t85.5 -317h-532
q-2 -19 -2 -59q0 -213 67 -336t194 -123zM467 6q117 0 180.5 125t63.5 367t-64 367.5t-180 125.5t-180 -126t-64 -367q0 -243 63 -367.5t181 -124.5zM1077 990q-89 0 -144 -106t-64 -285l392 23q0 175 -48.5 271.5t-135.5 96.5z" />
    <glyph glyph-name="Racute" unicode="&#x154;" horiz-adv-x="1156" 
d="M405 1542l37 181h144l4 -11l-177 -170h-8zM48 0v20l147 53v1292l-147 54v20h521q186 0 288 -96t102 -260q0 -169 -89.5 -268t-230.5 -127v-5q70 -18 98 -17l272 -585l111 -61l1 -20h-242l-298 680q-43 -7 -92 -7h-85v38h90q302 0 302 366q0 151 -67 237.5t-207 86.5h-181
v-1327l143 -54v-20h-436z" />
    <glyph glyph-name="racute" unicode="&#x155;" horiz-adv-x="646" 
d="M290 1148h-8l66 231h124l4 -11zM41 0v20l137 41v836l-122 40v19l249 65l8 -11v-171q47 89 114 135.5t124 46.5q43 0 71 -14l-30 -236h-10q-54 85 -118 151q-85 0 -151 -124v-737l155 -41v-20h-427z" />
    <glyph glyph-name="uni0156" unicode="&#x156;" horiz-adv-x="1156" 
d="M48 0v20l147 53v1292l-147 54v20h521q186 0 288 -96t102 -260q0 -169 -89.5 -268t-230.5 -127v-5q70 -18 98 -17l272 -585l111 -61l1 -20h-242l-298 680q-43 -7 -92 -7h-85v38h90q302 0 302 366q0 151 -67 237.5t-207 86.5h-181v-1327l143 -54v-20h-436zM642 -100
q41 -61 41 -112q0 -67 -52 -123.5t-120 -82.5l-5 10q27 29 40 50t13 47q0 56 -65 110z" />
    <glyph glyph-name="uni0157" unicode="&#x157;" horiz-adv-x="646" 
d="M41 0v20l137 41v836l-122 40v19l249 65l8 -11v-171q47 89 114 135.5t124 46.5q43 0 71 -14l-30 -236h-10q-54 85 -118 151q-85 0 -151 -124v-737l155 -41v-20h-427zM295 -100q41 -61 41 -112q0 -67 -52 -123.5t-120 -82.5l-5 10q27 29 40 50t13 47q0 56 -65 110z" />
    <glyph glyph-name="Rcaron" unicode="&#x158;" horiz-adv-x="1156" 
d="M305 1790l145 -108l145 108l9 -9l-133 -238h-44l-134 238zM48 0v20l147 53v1292l-147 54v20h521q186 0 288 -96t102 -260q0 -169 -89.5 -268t-230.5 -127v-5q70 -18 98 -17l272 -585l111 -61l1 -20h-242l-298 680q-43 -7 -92 -7h-85v38h90q302 0 302 366q0 151 -67 237.5
t-207 86.5h-181v-1327l143 -54v-20h-436z" />
    <glyph glyph-name="rcaron" unicode="&#x159;" horiz-adv-x="646" 
d="M201 1439l145 -118l145 118l9 -9l-133 -248h-44l-134 248zM41 0v20l137 41v836l-122 40v19l249 65l8 -11v-171q47 89 114 135.5t124 46.5q43 0 71 -14l-30 -236h-10q-54 85 -118 151q-85 0 -151 -124v-737l155 -41v-20h-427z" />
    <glyph glyph-name="Sacute" unicode="&#x15a;" horiz-adv-x="891" 
d="M398 1542l37 181h144l4 -11l-177 -170h-8zM418 -24q-156 0 -333 117l-18 344h11q57 -225 140 -324t203 -99t186 78.5t66 221.5q0 41 -8 78t-18.5 65t-32.5 57t-39 47t-49.5 43t-52 38t-57.5 38l-49 32q-33 22 -48.5 32.5t-48 33.5t-49.5 40t-43 43.5t-40.5 52t-29.5 57
t-21.5 67.5t-6.5 76q0 164 104 256t271 92q75 0 159.5 -33.5t156.5 -86.5l22 -342h-11q-60 225 -136 324.5t-208 99.5q-93 0 -151 -74.5t-58 -199.5q0 -58 14 -102.5t45.5 -81.5t66 -64.5t92.5 -64.5l56 -36q55 -35 92 -61.5t84.5 -70.5t76 -86.5t48.5 -102t20 -125.5
q0 -98 -33.5 -173t-91.5 -119t-128.5 -65.5t-152.5 -21.5z" />
    <glyph glyph-name="sacute" unicode="&#x15b;" horiz-adv-x="717" 
d="M305 1148h-8l66 231h124l4 -11zM350 -24q-69 0 -147.5 23t-125.5 52l47 219h15q6 -14 31 -76t44 -102.5t36 -67.5q50 -18 113 -18q92 0 133.5 53.5t41.5 136.5q0 44 -12 78t-42.5 63.5t-54.5 46.5t-76 50l-59 37q-36 22 -57 37t-53.5 43.5t-51 55t-32.5 66t-14 83.5
q0 130 82 197.5t213 67.5q53 0 119 -18t113 -43l-32 -215h-14q-79 193 -112 232q-26 14 -83 14q-84 0 -126 -56.5t-42 -136.5q0 -65 40.5 -115.5t116.5 -98.5l68 -43q38 -24 64.5 -42.5t60 -48t53.5 -57.5t34.5 -65.5t14.5 -78.5q0 -131 -84.5 -202t-221.5 -71z" />
    <glyph glyph-name="Scircumflex" unicode="&#x15c;" horiz-adv-x="891" 
d="M299 1533l-12 9l134 238h44l133 -238l-9 -9l-145 108zM418 -24q-156 0 -333 117l-18 344h11q57 -225 140 -324t203 -99t186 78.5t66 221.5q0 41 -8 78t-18.5 65t-32.5 57t-39 47t-49.5 43t-52 38t-57.5 38l-49 32q-33 22 -48.5 32.5t-48 33.5t-49.5 40t-43 43.5t-40.5 52
t-29.5 57t-21.5 67.5t-6.5 76q0 164 104 256t271 92q75 0 159.5 -33.5t156.5 -86.5l22 -342h-11q-60 225 -136 324.5t-208 99.5q-93 0 -151 -74.5t-58 -199.5q0 -58 14 -102.5t45.5 -81.5t66 -64.5t92.5 -64.5l56 -36q55 -35 92 -61.5t84.5 -70.5t76 -86.5t48.5 -102
t20 -125.5q0 -98 -33.5 -173t-91.5 -119t-128.5 -65.5t-152.5 -21.5z" />
    <glyph glyph-name="scircumflex" unicode="&#x15d;" horiz-adv-x="717" 
d="M210 1132l-12 9l134 248h44l133 -248l-9 -9l-145 118zM350 -24q-69 0 -147.5 23t-125.5 52l47 219h15q6 -14 31 -76t44 -102.5t36 -67.5q50 -18 113 -18q92 0 133.5 53.5t41.5 136.5q0 44 -12 78t-42.5 63.5t-54.5 46.5t-76 50l-59 37q-36 22 -57 37t-53.5 43.5t-51 55
t-32.5 66t-14 83.5q0 130 82 197.5t213 67.5q53 0 119 -18t113 -43l-32 -215h-14q-79 193 -112 232q-26 14 -83 14q-84 0 -126 -56.5t-42 -136.5q0 -65 40.5 -115.5t116.5 -98.5l68 -43q38 -24 64.5 -42.5t60 -48t53.5 -57.5t34.5 -65.5t14.5 -78.5q0 -131 -84.5 -202
t-221.5 -71z" />
    <glyph glyph-name="Scedilla" unicode="&#x15e;" horiz-adv-x="891" 
d="M824 355q0 -97 -32.5 -171.5t-89.5 -118t-126.5 -66t-149.5 -23.5l-26 -79q159 -44 159 -155q0 -77 -69.5 -133.5t-166.5 -64.5v11q59 16 90.5 62.5t31.5 104.5q0 25 -6.5 44.5t-20.5 32.5t-23 19t-26.5 13.5t-18.5 8.5l-2 14l52 122q-152 7 -315 117l-18 344h11
q57 -225 140 -324t203 -99t186 78.5t66 221.5q0 41 -8 78t-18.5 65t-32.5 57t-39 47t-49.5 43t-52 38t-57.5 38l-49 32q-33 22 -48.5 32.5t-48 33.5t-49.5 40t-43 43.5t-40.5 52t-29.5 57t-21.5 67.5t-6.5 76q0 164 104 256t271 92q75 0 159.5 -33.5t156.5 -86.5l22 -342
h-11q-60 225 -136 324.5t-208 99.5q-93 0 -151 -74.5t-58 -199.5q0 -58 14 -102.5t45.5 -81.5t66 -64.5t92.5 -64.5l56 -36q55 -35 92 -61.5t84.5 -70.5t76 -86.5t48.5 -102t20 -125.5z" />
    <glyph glyph-name="scedilla" unicode="&#x15f;" horiz-adv-x="717" 
d="M656 249q0 -128 -80.5 -199t-213.5 -74l-26 -79q159 -44 159 -155q0 -77 -69.5 -133.5t-166.5 -64.5v11q59 16 90.5 62.5t31.5 104.5q0 25 -6.5 44.5t-20.5 32.5t-23 19t-26.5 13.5t-18.5 8.5l-2 14l52 122q-67 3 -141 25.5t-118 49.5l47 219h15q6 -14 31 -76t44 -102.5
t36 -67.5q50 -18 113 -18q92 0 133.5 53.5t41.5 136.5q0 44 -12 78t-42.5 63.5t-54.5 46.5t-76 50l-59 37q-36 22 -57 37t-53.5 43.5t-51 55t-32.5 66t-14 83.5q0 130 82 197.5t213 67.5q53 0 119 -18t113 -43l-32 -215h-14q-79 193 -112 232q-26 14 -83 14
q-84 0 -126 -56.5t-42 -136.5q0 -65 40.5 -115.5t116.5 -98.5l68 -43q38 -24 64.5 -42.5t60 -48t53.5 -57.5t34.5 -65.5t14.5 -78.5z" />
    <glyph glyph-name="Scaron" unicode="&#x160;" horiz-adv-x="891" 
d="M298 1790l145 -108l145 108l9 -9l-133 -238h-44l-134 238zM418 -24q-156 0 -333 117l-18 344h11q57 -225 140 -324t203 -99t186 78.5t66 221.5q0 41 -8 78t-18.5 65t-32.5 57t-39 47t-49.5 43t-52 38t-57.5 38l-49 32q-33 22 -48.5 32.5t-48 33.5t-49.5 40t-43 43.5
t-40.5 52t-29.5 57t-21.5 67.5t-6.5 76q0 164 104 256t271 92q75 0 159.5 -33.5t156.5 -86.5l22 -342h-11q-60 225 -136 324.5t-208 99.5q-93 0 -151 -74.5t-58 -199.5q0 -58 14 -102.5t45.5 -81.5t66 -64.5t92.5 -64.5l56 -36q55 -35 92 -61.5t84.5 -70.5t76 -86.5
t48.5 -102t20 -125.5q0 -98 -33.5 -173t-91.5 -119t-128.5 -65.5t-152.5 -21.5z" />
    <glyph glyph-name="scaron" unicode="&#x161;" horiz-adv-x="717" 
d="M216 1439l145 -118l145 118l9 -9l-133 -248h-44l-134 248zM350 -24q-69 0 -147.5 23t-125.5 52l47 219h15q6 -14 31 -76t44 -102.5t36 -67.5q50 -18 113 -18q92 0 133.5 53.5t41.5 136.5q0 44 -12 78t-42.5 63.5t-54.5 46.5t-76 50l-59 37q-36 22 -57 37t-53.5 43.5
t-51 55t-32.5 66t-14 83.5q0 130 82 197.5t213 67.5q53 0 119 -18t113 -43l-32 -215h-14q-79 193 -112 232q-26 14 -83 14q-84 0 -126 -56.5t-42 -136.5q0 -65 40.5 -115.5t116.5 -98.5l68 -43q38 -24 64.5 -42.5t60 -48t53.5 -57.5t34.5 -65.5t14.5 -78.5
q0 -131 -84.5 -202t-221.5 -71z" />
    <glyph glyph-name="uni0162" unicode="&#x162;" horiz-adv-x="1025" 
d="M956 1439v-315h-8l-109 277h-253v-1327l157 -54v-20h-247l8 -1l-34 -102q159 -44 159 -155q0 -77 -69.5 -133.5t-166.5 -64.5v11q59 16 90.5 62.5t31.5 104.5q0 25 -6.5 44.5t-20.5 32.5t-23 19t-26.5 13.5t-18.5 8.5l-2 14l62 146h-198v20l158 54v1327h-255l-107 -277
h-9v315h887z" />
    <glyph glyph-name="uni0163" unicode="&#x163;" horiz-adv-x="537" 
d="M513 964h-229v-773q0 -75 21.5 -108.5t73.5 -33.5q34 0 68 14.5t55 36.5l10 -12q-33 -47 -83 -79.5t-109 -32.5q-26 0 -50 6l-28 -85q159 -44 159 -155q0 -77 -69.5 -133.5t-166.5 -64.5v11q59 16 90.5 62.5t31.5 104.5q0 25 -6.5 44.5t-20.5 32.5t-23 19t-26.5 13.5
t-18.5 8.5l-2 14l58 136q-100 46 -100 219v755h-88v15l109 47l104 181h10v-213h230v-30z" />
    <glyph glyph-name="Tcaron" unicode="&#x164;" horiz-adv-x="1025" 
d="M368 1790l145 -108l145 108l9 -9l-133 -238h-44l-134 238zM282 0v20l158 54v1327h-255l-107 -277h-9v315h887v-315h-8l-109 277h-253v-1327l157 -54v-20h-461z" />
    <glyph glyph-name="tcaron" unicode="&#x165;" horiz-adv-x="537" 
d="M453 1158l-58 266l6 15h130l6 -15l-59 -266h-25zM320 -24q-80 0 -126 57t-46 176v755h-88v15l109 47l104 181h10v-213h230v-30h-229v-773q0 -75 21.5 -108.5t73.5 -33.5q34 0 68 14.5t55 36.5l10 -12q-33 -47 -83 -79.5t-109 -32.5z" />
    <glyph glyph-name="Tbar" unicode="&#x166;" horiz-adv-x="1025" 
d="M956 1439v-315h-8l-109 277h-253v-662h112v-38h-112v-627l157 -54v-20h-461v20l158 54v627h-112v38h112v662h-255l-107 -277h-9v315h887z" />
    <glyph glyph-name="tbar" unicode="&#x167;" horiz-adv-x="537" 
d="M513 964h-229v-446h91v-37h-91v-290q0 -75 21.5 -108.5t73.5 -33.5q34 0 68 14.5t55 36.5l10 -12q-33 -47 -83 -79.5t-109 -32.5q-80 0 -126 57t-46 176v272h-96v37h96v446h-88v15l109 47l104 181h10v-213h230v-30z" />
    <glyph glyph-name="Utilde" unicode="&#x168;" horiz-adv-x="1224" 
d="M454 1558l-9 4q29 157 118 157q23 0 74.5 -30t75.5 -30q59 0 81 60l7 -4q-10 -65 -38.5 -111t-77.5 -46q-25 0 -76.5 29.5t-74.5 29.5q-59 0 -80 -59zM632 -24q-198 0 -323 127.5t-125 359.5v902l-147 54v20h442v-20l-149 -54v-888q0 -220 92.5 -342t247.5 -122
q90 0 157.5 36.5t107.5 102t59 147t19 178.5v877l-175 66v19h383v-19l-174 -66v-861q0 -245 -101 -381t-314 -136z" />
    <glyph glyph-name="utilde" unicode="&#x169;" horiz-adv-x="937" 
d="M276 1199l-9 4q29 157 118 157q23 0 74.5 -30t75.5 -30q59 0 81 60l7 -4q-10 -65 -38.5 -111t-77.5 -46q-25 0 -76.5 29.5t-74.5 29.5q-59 0 -80 -59zM378 -27q-115 0 -185.5 84.5t-70.5 233.5v606l-117 40v19l243 65l8 -11v-696q0 -127 49.5 -193.5t140.5 -66.5
q112 0 224 118v725l-117 40v19l243 65l8 -11v-918l91 -51v-13l-205 -51l-20 153q-152 -157 -292 -157z" />
    <glyph glyph-name="Umacron" unicode="&#x16a;" horiz-adv-x="1224" 
d="M434 1578v37h379v-37h-379zM632 -24q-198 0 -323 127.5t-125 359.5v902l-147 54v20h442v-20l-149 -54v-888q0 -220 92.5 -342t247.5 -122q90 0 157.5 36.5t107.5 102t59 147t19 178.5v877l-175 66v19h383v-19l-174 -66v-861q0 -245 -101 -381t-314 -136z" />
    <glyph glyph-name="umacron" unicode="&#x16b;" horiz-adv-x="937" 
d="M255 1229v37h379v-37h-379zM378 -27q-115 0 -185.5 84.5t-70.5 233.5v606l-117 40v19l243 65l8 -11v-696q0 -127 49.5 -193.5t140.5 -66.5q112 0 224 118v725l-117 40v19l243 65l8 -11v-918l91 -51v-13l-205 -51l-20 153q-152 -157 -292 -157z" />
    <glyph glyph-name="Ubreve" unicode="&#x16c;" horiz-adv-x="1224" 
d="M622 1541q-80 0 -125.5 73t-47.5 170l11 5q21 -135 162 -135q143 0 164 135l11 -5q-2 -96 -47.5 -169.5t-127.5 -73.5zM632 -24q-198 0 -323 127.5t-125 359.5v902l-147 54v20h442v-20l-149 -54v-888q0 -220 92.5 -342t247.5 -122q90 0 157.5 36.5t107.5 102t59 147
t19 178.5v877l-175 66v19h383v-19l-174 -66v-861q0 -245 -101 -381t-314 -136z" />
    <glyph glyph-name="ubreve" unicode="&#x16d;" horiz-adv-x="937" 
d="M441 1154q-82 0 -126.5 67.5t-46.5 175.5h11q10 -72 48 -101t114 -29q78 0 116 29t48 101h11q-2 -107 -46.5 -175t-128.5 -68zM378 -27q-115 0 -185.5 84.5t-70.5 233.5v606l-117 40v19l243 65l8 -11v-696q0 -127 49.5 -193.5t140.5 -66.5q112 0 224 118v725l-117 40v19
l243 65l8 -11v-918l91 -51v-13l-205 -51l-20 153q-152 -157 -292 -157z" />
    <glyph glyph-name="Uring" unicode="&#x16e;" horiz-adv-x="1224" 
d="M619 1533q-68 0 -113.5 39t-45.5 102t45.5 102.5t113.5 39.5t114 -39.5t46 -102.5t-46 -102t-114 -39zM619 1555q26 0 41 31.5t15 87.5t-15 88t-41 32q-25 0 -40 -32t-15 -88t15 -87.5t40 -31.5zM632 -24q-198 0 -323 127.5t-125 359.5v902l-147 54v20h442v-20l-149 -54
v-888q0 -220 92.5 -342t247.5 -122q90 0 157.5 36.5t107.5 102t59 147t19 178.5v877l-175 66v19h383v-19l-174 -66v-861q0 -245 -101 -381t-314 -136z" />
    <glyph glyph-name="uring" unicode="&#x16f;" horiz-adv-x="937" 
d="M438 1157q-68 0 -113.5 39t-45.5 102t45.5 102.5t113.5 39.5t114 -39.5t46 -102.5t-46 -102t-114 -39zM438 1179q26 0 41 31.5t15 87.5t-15 88t-41 32q-25 0 -40 -32t-15 -88t15 -87.5t40 -31.5zM378 -27q-115 0 -185.5 84.5t-70.5 233.5v606l-117 40v19l243 65l8 -11
v-696q0 -127 49.5 -193.5t140.5 -66.5q112 0 224 118v725l-117 40v19l243 65l8 -11v-918l91 -51v-13l-205 -51l-20 153q-152 -157 -292 -157z" />
    <glyph glyph-name="Uhungarumlaut" unicode="&#x170;" horiz-adv-x="1224" 
d="M547 1542l23 181h115l4 -11l-134 -170h-8zM678 1542l23 181h115l4 -11l-134 -170h-8zM632 -24q-198 0 -323 127.5t-125 359.5v902l-147 54v20h442v-20l-149 -54v-888q0 -220 92.5 -342t247.5 -122q90 0 157.5 36.5t107.5 102t59 147t19 178.5v877l-175 66v19h383v-19
l-174 -66v-861q0 -245 -101 -381t-314 -136z" />
    <glyph glyph-name="uhungarumlaut" unicode="&#x171;" horiz-adv-x="937" 
d="M279 1147l53 211h129l4 -11l-177 -200h-9zM445 1145l53 211h129l4 -11l-177 -200h-9zM378 -27q-115 0 -185.5 84.5t-70.5 233.5v606l-117 40v19l243 65l8 -11v-696q0 -127 49.5 -193.5t140.5 -66.5q112 0 224 118v725l-117 40v19l243 65l8 -11v-918l91 -51v-13l-205 -51
l-20 153q-152 -157 -292 -157z" />
    <glyph glyph-name="Uogonek" unicode="&#x172;" horiz-adv-x="1224" 
d="M838 1439h383v-19l-174 -66v-861q0 -277 -123 -407q-102 -156 -102 -278q0 -49 23 -77t53 -28q49 0 86 48l8 -7q-74 -105 -146 -105q-54 0 -95 34.5t-41 109.5q0 56 32.5 111.5t93.5 125.5q-85 -44 -204 -44q-198 0 -323 127.5t-125 359.5v902l-147 54v20h442v-20
l-149 -54v-888q0 -220 92.5 -342t247.5 -122q90 0 157.5 36.5t107.5 102t59 147t19 178.5v877l-175 66v19z" />
    <glyph glyph-name="uogonek" unicode="&#x173;" horiz-adv-x="937" 
d="M954 -309l8 -7q-74 -105 -146 -105q-54 0 -95 34.5t-41 109.5q0 34 11.5 68t41.5 76t48 63.5t63 72.5q9 11 14 16l-168 -42l-20 153q-152 -157 -292 -157q-115 0 -185.5 84.5t-70.5 233.5v606l-117 40v19l243 65l8 -11v-696q0 -127 49.5 -193.5t140.5 -66.5
q112 0 224 118v725l-117 40v19l243 65l8 -11v-918l91 -51v-13q-103 -157 -103 -280q0 -49 23 -77t53 -28q49 0 86 48z" />
    <glyph glyph-name="Wcircumflex" unicode="&#x174;" horiz-adv-x="1785" 
d="M741 1533l-12 9l134 238h44l133 -238l-9 -9l-145 108zM502 0l-354 1365l-146 54v20h465v-20l-159 -54l288 -1196l272 963l-65 233l-133 54v20h456v-20l-167 -54l311 -1212l315 1212l-189 53v21h387v-21l-163 -53l-351 -1365h-95l-288 1069l-298 -1069h-86z" />
    <glyph glyph-name="wcircumflex" unicode="&#x175;" horiz-adv-x="1259" 
d="M478 1132l-12 9l134 248h44l133 -248l-9 -9l-145 118zM349 0l-255 931l-89 42v21h336v-21l-110 -42l191 -755l192 643l-30 111l-87 43v21h331v-21l-109 -42l186 -754l226 754l-109 42v21h235v-21l-95 -43l-277 -930h-48l-211 765l-228 -765h-49z" />
    <glyph glyph-name="Ycircumflex" unicode="&#x176;" horiz-adv-x="1158" 
d="M435 1533l-12 9l134 238h44l133 -238l-9 -9l-145 108zM349 0v20l156 53v566l-350 726l-150 53v21h467v-21l-154 -53l317 -658l332 655l-188 56v21h387v-21l-157 -53l-358 -701v-590l157 -54v-20h-459z" />
    <glyph glyph-name="ycircumflex" unicode="&#x177;" horiz-adv-x="796" 
d="M255 1132l-12 9l134 248h44l133 -248l-9 -9l-145 118zM156 -495l-91 136l3 16q15 6 50.5 16t62 20t58 26t56 42.5t38.5 61.5l44 140l-289 968l-83 42v21h334v-21l-110 -43l210 -759l229 759l-113 43v21h236v-21l-95 -42l-292 -972q-122 -410 -248 -454z" />
    <glyph glyph-name="Ydieresis" unicode="&#x178;" horiz-adv-x="1158" 
d="M454 1559q-36 0 -61 25t-25 62t25 61t61 24q39 0 63 -24t24 -61t-24.5 -62t-62.5 -25zM699 1559q-37 0 -62 24.5t-25 62.5q0 37 24.5 61t62.5 24q37 0 61.5 -24t24.5 -61q0 -38 -24.5 -62.5t-61.5 -24.5zM349 0v20l156 53v566l-350 726l-150 53v21h467v-21l-154 -53
l317 -658l332 655l-188 56v21h387v-21l-157 -53l-358 -701v-590l157 -54v-20h-459z" />
    <glyph glyph-name="Zacute" unicode="&#x179;" horiz-adv-x="1034" 
d="M481 1542l37 181h144l4 -11l-177 -170h-8zM77 0l-3 24l697 1377h-506l-151 -297h-9l31 335h811l2 -25l-700 -1377h578l153 300l8 -2l-31 -335h-880z" />
    <glyph glyph-name="zacute" unicode="&#x17a;" horiz-adv-x="755" 
d="M331 1148h-8l66 231h124l4 -11zM70 0l-4 15l454 949h-249l-137 -174h-12v204h547l2 -17l-452 -947h285l142 193l10 -2v-221h-586z" />
    <glyph glyph-name="Zdotaccent" unicode="&#x17b;" horiz-adv-x="1034" 
d="M526 1547q-39 0 -64.5 24t-25.5 63q0 38 25.5 63t64.5 25q38 0 63.5 -25t25.5 -63q0 -39 -25 -63t-64 -24zM77 0l-3 24l697 1377h-506l-151 -297h-9l31 335h811l2 -25l-700 -1377h578l153 300l8 -2l-31 -335h-880z" />
    <glyph glyph-name="zdotaccent" unicode="&#x17c;" horiz-adv-x="755" 
d="M383 1162q-39 0 -64.5 24t-25.5 63q0 38 25.5 63t64.5 25q38 0 63.5 -25t25.5 -63q0 -39 -25 -63t-64 -24zM70 0l-4 15l454 949h-249l-137 -174h-12v204h547l2 -17l-452 -947h285l142 193l10 -2v-221h-586z" />
    <glyph glyph-name="Zcaron" unicode="&#x17d;" horiz-adv-x="1034" 
d="M381 1790l145 -108l145 108l9 -9l-133 -238h-44l-134 238zM77 0l-3 24l697 1377h-506l-151 -297h-9l31 335h811l2 -25l-700 -1377h578l153 300l8 -2l-31 -335h-880z" />
    <glyph glyph-name="zcaron" unicode="&#x17e;" horiz-adv-x="755" 
d="M242 1439l145 -118l145 118l9 -9l-133 -248h-44l-134 248zM70 0l-4 15l454 949h-249l-137 -174h-12v204h547l2 -17l-452 -947h285l142 193l10 -2v-221h-586z" />
    <glyph glyph-name="uni0189" unicode="&#x189;" horiz-adv-x="1240" 
d="M589 1439q266 0 421.5 -191.5t155.5 -526.5q0 -338 -157.5 -529.5t-432.5 -191.5h-528v20l147 53v628h-107v38h107v628l-147 52v20h541zM555 38q447 0 447 670q0 343 -109.5 518t-323.5 175h-228v-662h117v-38h-117v-663h214z" />
    <glyph glyph-name="uni018F" unicode="&#x18f;" horiz-adv-x="1145" 
d="M538 -24q-105 0 -193 49t-147 133t-91.5 197t-32.5 240h831q3 39 3 96q0 317 -105.5 509.5t-294.5 192.5q-75 0 -135 -16.5t-106.5 -50.5t-79.5 -70t-72 -91l-15 19q70 126 184.5 202t240.5 76q108 0 206.5 -52.5t174 -147t120.5 -237t45 -310.5q0 -156 -42 -294
t-114 -235t-170 -153.5t-207 -56.5zM544 17q148 0 247 155t113 396l-672 -34q0 -238 84 -377.5t228 -139.5z" />
    <glyph glyph-name="florin" unicode="&#x192;" horiz-adv-x="648" 
d="M8 -229q-75 0 -148 34l15 68q43 -40 66.5 -49.5t59.5 -9.5q132 0 157 374l52 769h-169v37h173l2 25q17 215 101 325.5t212 110.5q40 0 104 -24l-36 -158h-7l-77 154q-30 -18 -54.5 -44.5t-40.5 -62.5t-27.5 -68.5t-19.5 -80.5t-12 -78t-9 -80l-2 -19h198v-37h-200
l-49 -734q-13 -200 -91 -326t-198 -126z" />
    <glyph glyph-name="uni019D" unicode="&#x19d;" horiz-adv-x="1311" 
d="M917 1439h375v-19l-171 -66v-1354l-40 -17l-787 1269v-1252q0 -333 -231 -395l-5 17q96 47 148.5 144.5t52.5 217.5v1381l-168 54v20h257l739 -1205v1120l-170 66v19z" />
    <glyph glyph-name="Ohorn" unicode="&#x1a0;" horiz-adv-x="1257" 
d="M1202 1421q0 -64 -48.5 -112t-113.5 -66q143 -204 143 -526q0 -220 -69 -388.5t-195 -260.5t-291 -92q-249 0 -401.5 203.5t-152.5 537.5q0 335 152.5 540t401.5 205q241 0 391 -191q36 34 36 80q0 53 -19 90l155 46q11 -38 11 -66zM628 13q177 0 285 194t108 510
q0 318 -108 512.5t-285 194.5q-176 0 -283.5 -194.5t-107.5 -512.5q0 -317 107.5 -510.5t283.5 -193.5z" />
    <glyph glyph-name="ohorn" unicode="&#x1a1;" horiz-adv-x="933" 
d="M928 1003q0 -59 -41.5 -104.5t-101.5 -67.5q74 -131 74 -333q0 -245 -107 -383.5t-285 -138.5q-179 0 -286 138.5t-107 383.5q0 246 107 384.5t286 138.5q187 0 293 -150q20 28 20 62q0 53 -18 90l155 46q11 -39 11 -66zM467 6q117 0 180.5 125t63.5 367t-64 367.5
t-180 125.5t-180 -126t-64 -367q0 -243 63 -367.5t181 -124.5z" />
    <glyph glyph-name="Uhorn" unicode="&#x1af;" horiz-adv-x="1214" 
d="M1231 1611q0 -76 -66.5 -128.5t-140.5 -58.5v-931q0 -120 -23.5 -213.5t-72 -162.5t-127 -105t-184.5 -36q-194 0 -315 127.5t-121 359.5v902l-144 54v20h433v-20l-143 -54v-888q0 -220 89 -342t240 -122q70 0 127 24t95.5 66.5t64 101.5t37 126.5t11.5 145.5v877
l-146 66v19h173q66 41 66 102q0 53 -19 90l155 46q11 -39 11 -66z" />
    <glyph glyph-name="uhorn" unicode="&#x1b0;" horiz-adv-x="1180" 
d="M1012 1028q0 -76 -67 -128.5t-141 -58.5v-749l91 -51v-13l-205 -51l-20 153q-152 -157 -292 -157q-115 0 -185.5 84.5t-70.5 233.5v606l-117 40v19l243 65l8 -11v-696q0 -127 49.5 -193.5t140.5 -66.5q112 0 224 118v725l-117 40v19l243 65l8 -11v-151q60 42 60 99
q0 53 -18 90l155 46q11 -39 11 -66z" />
    <glyph glyph-name="uni01B5" unicode="&#x1b5;" horiz-adv-x="1034" 
d="M980 337l8 -2l-31 -335h-880l-3 24l343 677h-162v38h181l335 662h-506l-151 -297h-9l31 335h811l2 -25l-343 -675h191v-38h-210l-338 -664h578z" />
    <glyph glyph-name="uni01B6" unicode="&#x1b6;" horiz-adv-x="755" 
d="M504 30l142 193l10 -2v-221h-586l-4 15l223 466h-171v37h189l213 446h-249l-137 -174h-12v204h547l2 -17l-219 -459h182v-37h-200l-215 -451h285z" />
    <glyph glyph-name="uni01B7" unicode="&#x1b7;" horiz-adv-x="955" 
d="M418 -214q-92 0 -180.5 29t-130.5 65l-20 360h15q15 -55 30 -99t36 -95t46 -88t56 -69.5t71 -49t85 -16.5q128 0 210 114.5t82 329.5q0 123 -26 209.5t-79 138.5t-121 78.5t-162 36.5v29l365 562h-504l-93 -233h-7v351h697l15 -21l-407 -631v-2q252 -33 360.5 -150.5
t108.5 -341.5q0 -126 -36 -224.5t-98 -159.5t-141.5 -92t-171.5 -31z" />
    <glyph glyph-name="uni01C4" unicode="&#x1c4;" horiz-adv-x="2205" 
d="M1552 1790l145 -108l145 108l9 -9l-133 -238h-44l-134 238zM48 0v20l147 53v1294l-147 52v20h541q266 0 421.5 -191.5t155.5 -526.5q0 -338 -157.5 -529.5t-432.5 -191.5h-528zM1248 0l-3 24l697 1377h-506l-151 -297h-9l31 335h811l2 -25l-700 -1377h578l153 300l8 -2
l-31 -335h-880zM341 38h214q447 0 447 670q0 343 -109.5 518t-323.5 175h-228v-1363z" />
    <glyph glyph-name="uni01C5" unicode="&#x1c5;" horiz-adv-x="1995" 
d="M48 0v20l147 53v1294l-147 52v20h541q266 0 421.5 -191.5t155.5 -526.5q0 -338 -157.5 -529.5t-432.5 -191.5h-528zM1482 1439l145 -118l145 118l9 -9l-133 -248h-44l-134 248zM341 38h214q447 0 447 670q0 343 -109.5 518t-323.5 175h-228v-1363zM1310 0l-4 15l454 949
h-249l-137 -174h-12v204h547l2 -17l-452 -947h285l142 193l10 -2v-221h-586z" />
    <glyph glyph-name="uni01C6" unicode="&#x1c6;" horiz-adv-x="1690" 
d="M404 -24q-152 0 -241 136.5t-89 352.5q0 246 112.5 401t298.5 155q110 0 186 -95v447l-106 47v13l230 64l10 -11v-1404l88 -42v-12l-203 -52l-18 141q-59 -68 -121 -104.5t-147 -36.5zM1177 1439l145 -118l145 118l9 -9l-133 -248h-44l-134 248zM1005 0l-4 15l454 949
h-249l-137 -174h-12v204h547l2 -17l-452 -947h285l142 193l10 -2v-221h-586zM476 51q109 0 195 100v638q-17 101 -67.5 151t-116.5 50q-118 0 -190.5 -137t-72.5 -350q0 -214 67.5 -333t184.5 -119z" />
    <glyph glyph-name="uni01C7" unicode="&#x1c7;" horiz-adv-x="1681" 
d="M48 0v20l146 53v1292l-146 54v20h457v-20l-165 -54v-1327h393l166 315l8 -2l-43 -351h-816zM1234 -24q-60 0 -124 28t-104 69l-21 375h15q11 -53 33.5 -123.5t53.5 -141.5t70 -120t75 -49q44 0 73 33.5t42.5 93.5t18 116.5t4.5 128.5v979l-167 54v20h458v-20l-145 -54
v-1072q0 -141 -81.5 -229t-200.5 -88z" />
    <glyph glyph-name="uni01C8" unicode="&#x1c8;" horiz-adv-x="1383" 
d="M48 0v20l146 53v1292l-146 54v20h457v-20l-165 -54v-1327h393l166 315l8 -2l-43 -351h-816zM1161 1251q-39 0 -64 24.5t-25 63.5q0 38 25.5 63.5t63.5 25.5q39 0 64.5 -25.5t25.5 -63.5q0 -39 -25.5 -63.5t-64.5 -24.5zM1040 -417l-3 6q59 121 59 343v965l-118 40v19
l247 65l8 -11v-928q0 -202 -51.5 -330t-141.5 -169z" />
    <glyph glyph-name="uni01C9" unicode="&#x1c9;" horiz-adv-x="937" 
d="M41 0v20l137 41v1312l-106 48v12l232 64l9 -11v-1425l137 -41v-20h-409zM715 1251q-39 0 -64 24.5t-25 63.5q0 38 25.5 63.5t63.5 25.5q39 0 64.5 -25.5t25.5 -63.5q0 -39 -25.5 -63.5t-64.5 -24.5zM594 -417l-3 6q59 121 59 343v965l-118 40v19l247 65l8 -11v-928
q0 -202 -51.5 -330t-141.5 -169z" />
    <glyph glyph-name="uni01CA" unicode="&#x1ca;" horiz-adv-x="2021" 
d="M1038 -17l-788 1269v-1167l169 -65v-20h-371v20l168 65v1280l-168 54v20h257l738 -1205v1120l-170 66v19h375v-19l-170 -66v-1354zM1574 -24q-60 0 -124 28t-104 69l-21 375h15q11 -53 33.5 -123.5t53.5 -141.5t70 -120t75 -49q44 0 73 33.5t42.5 93.5t18 116.5
t4.5 128.5v979l-167 54v20h458v-20l-145 -54v-1072q0 -141 -81.5 -229t-200.5 -88z" />
    <glyph glyph-name="uni01CB" unicode="&#x1cb;" horiz-adv-x="1664" 
d="M1038 -17l-788 1269v-1167l169 -65v-20h-371v20l168 65v1280l-168 54v20h257l738 -1205v1120l-170 66v19h375v-19l-170 -66v-1354zM1442 1251q-39 0 -64 24.5t-25 63.5q0 38 25.5 63.5t63.5 25.5q39 0 64.5 -25.5t25.5 -63.5q0 -39 -25.5 -63.5t-64.5 -24.5zM1321 -417
l-3 6q59 121 59 343v965l-118 40v19l247 65l8 -11v-928q0 -202 -51.5 -330t-141.5 -169z" />
    <glyph glyph-name="uni01CC" unicode="&#x1cc;" horiz-adv-x="1489" 
d="M1267 1251q-39 0 -64 24.5t-25 63.5q0 38 25.5 63.5t63.5 25.5q39 0 64.5 -25.5t25.5 -63.5q0 -39 -25.5 -63.5t-64.5 -24.5zM41 0v20l138 41v836l-122 40v19l246 65l11 -11l-1 -146q157 157 299 157q119 0 190.5 -84.5t71.5 -233.5v-642l138 -41v-20h-409v20l137 41v619
q0 128 -50.5 194t-145.5 66q-114 0 -231 -118v-761l137 -41v-20h-409zM1146 -417l-3 6q59 121 59 343v965l-118 40v19l247 65l8 -11v-928q0 -202 -51.5 -330t-141.5 -169z" />
    <glyph glyph-name="uni01CD" unicode="&#x1cd;" horiz-adv-x="1233" 
d="M603 1543h-44l-134 238l12 9l145 -108l145 108l9 -9zM1071 74l149 -54v-20h-444v20l140 54l-121 409h-478l-120 -409l185 -54v-20h-377v20l156 54l368 1245l-79 100v20h203zM328 521h456l-229 771z" />
    <glyph glyph-name="uni01CE" unicode="&#x1ce;" 
d="M303 1439l145 -118l145 118l9 -9l-133 -248h-44l-134 248zM305 -24q-93 0 -153 59.5t-60 162.5q0 81 39 149t104.5 113t148 72t172.5 32v109q0 136 -43 201.5t-163 65.5q-111 0 -212 -65l-8 19q63 58 139.5 92t154.5 34t132 -25.5t83 -73.5t41 -103.5t12 -126.5v-599
l93 -52v-12l-210 -52l-16 142q-49 -66 -115 -104t-139 -38zM370 51q114 0 186 99v382q-142 -16 -227.5 -95t-85.5 -212q0 -174 127 -174z" />
    <glyph glyph-name="uni01CF" unicode="&#x1cf;" horiz-adv-x="536" 
d="M123 1790l145 -108l145 108l9 -9l-133 -238h-44l-134 238zM48 0v20l147 53v1292l-147 54v20h440v-20l-147 -54v-1291l147 -54v-20h-440z" />
    <glyph glyph-name="uni01D0" unicode="&#x1d0;" horiz-adv-x="480" 
d="M104 1439l145 -118l145 118l9 -9l-133 -248h-44l-134 248zM41 0v20l136 41v836l-120 40v19l249 65l7 -11v-949l136 -41v-20h-408z" />
    <glyph glyph-name="uni01D1" unicode="&#x1d1;" horiz-adv-x="1257" 
d="M484 1790l145 -108l145 108l9 -9l-133 -238h-44l-134 238zM628 -24q-249 0 -401.5 203.5t-152.5 537.5q0 335 152.5 540t401.5 205q165 0 291 -93t195 -262t69 -390q0 -220 -69 -388.5t-195 -260.5t-291 -92zM628 13q177 0 285 194t108 510q0 318 -108 512.5t-285 194.5
q-176 0 -283.5 -194.5t-107.5 -512.5q0 -317 107.5 -510.5t283.5 -193.5z" />
    <glyph glyph-name="uni01D2" unicode="&#x1d2;" horiz-adv-x="933" 
d="M327 1439l145 -118l145 118l9 -9l-133 -248h-44l-134 248zM467 -24q-179 0 -286 138.5t-107 383.5q0 246 107 384.5t286 138.5q178 0 285 -138.5t107 -384.5q0 -245 -107 -383.5t-285 -138.5zM467 6q117 0 180.5 125t63.5 367t-64 367.5t-180 125.5t-180 -126t-64 -367
q0 -243 63 -367.5t181 -124.5z" />
    <glyph glyph-name="uni01D3" unicode="&#x1d3;" horiz-adv-x="1224" 
d="M478 1790l145 -108l145 108l9 -9l-133 -238h-44l-134 238zM632 -24q-198 0 -323 127.5t-125 359.5v902l-147 54v20h442v-20l-149 -54v-888q0 -220 92.5 -342t247.5 -122q90 0 157.5 36.5t107.5 102t59 147t19 178.5v877l-175 66v19h383v-19l-174 -66v-861
q0 -245 -101 -381t-314 -136z" />
    <glyph glyph-name="uni01D4" unicode="&#x1d4;" horiz-adv-x="937" 
d="M301 1439l145 -118l145 118l9 -9l-133 -248h-44l-134 248zM378 -27q-115 0 -185.5 84.5t-70.5 233.5v606l-117 40v19l243 65l8 -11v-696q0 -127 49.5 -193.5t140.5 -66.5q112 0 224 118v725l-117 40v19l243 65l8 -11v-918l91 -51v-13l-205 -51l-20 153
q-152 -157 -292 -157z" />
    <glyph glyph-name="uni01D5" unicode="&#x1d5;" horiz-adv-x="1224" 
d="M434 1776v37h379v-37h-379zM498 1559q-36 0 -61 25t-25 62t25 61t61 24q39 0 63 -24t24 -61t-24.5 -62t-62.5 -25zM743 1559q-37 0 -62 24.5t-25 62.5q0 37 24.5 61t62.5 24q37 0 61.5 -24t24.5 -61q0 -38 -24.5 -62.5t-61.5 -24.5zM632 -24q-198 0 -323 127.5
t-125 359.5v902l-147 54v20h442v-20l-149 -54v-888q0 -220 92.5 -342t247.5 -122q90 0 157.5 36.5t107.5 102t59 147t19 178.5v877l-175 66v19h383v-19l-174 -66v-861q0 -245 -101 -381t-314 -136z" />
    <glyph glyph-name="uni01D6" unicode="&#x1d6;" horiz-adv-x="937" 
d="M256 1396v37h379v-37h-379zM320 1159q-36 0 -61 25t-25 62t25 61t61 24q39 0 63 -24t24 -61t-24.5 -62t-62.5 -25zM565 1159q-37 0 -62 24.5t-25 62.5q0 37 24.5 61t62.5 24q37 0 61.5 -24t24.5 -61q0 -38 -24.5 -62.5t-61.5 -24.5zM378 -27q-115 0 -185.5 84.5
t-70.5 233.5v606l-117 40v19l243 65l8 -11v-696q0 -127 49.5 -193.5t140.5 -66.5q112 0 224 118v725l-117 40v19l243 65l8 -11v-918l91 -51v-13l-205 -51l-20 153q-152 -157 -292 -157z" />
    <glyph glyph-name="uni01D7" unicode="&#x1d7;" horiz-adv-x="1224" 
d="M578 1740l37 181h144l4 -11l-177 -170h-8zM498 1559q-36 0 -61 25t-25 62t25 61t61 24q39 0 63 -24t24 -61t-24.5 -62t-62.5 -25zM743 1559q-37 0 -62 24.5t-25 62.5q0 37 24.5 61t62.5 24q37 0 61.5 -24t24.5 -61q0 -38 -24.5 -62.5t-61.5 -24.5zM632 -24
q-198 0 -323 127.5t-125 359.5v902l-147 54v20h442v-20l-149 -54v-888q0 -220 92.5 -342t247.5 -122q90 0 157.5 36.5t107.5 102t59 147t19 178.5v877l-175 66v19h383v-19l-174 -66v-861q0 -245 -101 -381t-314 -136z" />
    <glyph glyph-name="uni01D8" unicode="&#x1d8;" horiz-adv-x="937" 
d="M391 1315h-8l66 231h124l4 -11zM320 1159q-36 0 -61 25t-25 62t25 61t61 24q39 0 63 -24t24 -61t-24.5 -62t-62.5 -25zM565 1159q-37 0 -62 24.5t-25 62.5q0 37 24.5 61t62.5 24q37 0 61.5 -24t24.5 -61q0 -38 -24.5 -62.5t-61.5 -24.5zM378 -27q-115 0 -185.5 84.5
t-70.5 233.5v606l-117 40v19l243 65l8 -11v-696q0 -127 49.5 -193.5t140.5 -66.5q112 0 224 118v725l-117 40v19l243 65l8 -11v-918l91 -51v-13l-205 -51l-20 153q-152 -157 -292 -157z" />
    <glyph glyph-name="uni01D9" unicode="&#x1d9;" horiz-adv-x="1224" 
d="M478 1988l145 -108l145 108l9 -9l-133 -238h-44l-134 238zM498 1559q-36 0 -61 25t-25 62t25 61t61 24q39 0 63 -24t24 -61t-24.5 -62t-62.5 -25zM743 1559q-37 0 -62 24.5t-25 62.5q0 37 24.5 61t62.5 24q37 0 61.5 -24t24.5 -61q0 -38 -24.5 -62.5t-61.5 -24.5z
M632 -24q-198 0 -323 127.5t-125 359.5v902l-147 54v20h442v-20l-149 -54v-888q0 -220 92.5 -342t247.5 -122q90 0 157.5 36.5t107.5 102t59 147t19 178.5v877l-175 66v19h383v-19l-174 -66v-861q0 -245 -101 -381t-314 -136z" />
    <glyph glyph-name="uni01DA" unicode="&#x1da;" horiz-adv-x="937" 
d="M302 1606l145 -118l145 118l9 -9l-133 -248h-44l-134 248zM320 1159q-36 0 -61 25t-25 62t25 61t61 24q39 0 63 -24t24 -61t-24.5 -62t-62.5 -25zM565 1159q-37 0 -62 24.5t-25 62.5q0 37 24.5 61t62.5 24q37 0 61.5 -24t24.5 -61q0 -38 -24.5 -62.5t-61.5 -24.5z
M378 -27q-115 0 -185.5 84.5t-70.5 233.5v606l-117 40v19l243 65l8 -11v-696q0 -127 49.5 -193.5t140.5 -66.5q112 0 224 118v725l-117 40v19l243 65l8 -11v-918l91 -51v-13l-205 -51l-20 153q-152 -157 -292 -157z" />
    <glyph glyph-name="uni01DB" unicode="&#x1db;" horiz-adv-x="1224" 
d="M669 1740h-8l-177 170l4 11h144zM498 1559q-36 0 -61 25t-25 62t25 61t61 24q39 0 63 -24t24 -61t-24.5 -62t-62.5 -25zM743 1559q-37 0 -62 24.5t-25 62.5q0 37 24.5 61t62.5 24q37 0 61.5 -24t24.5 -61q0 -38 -24.5 -62.5t-61.5 -24.5zM632 -24q-198 0 -323 127.5
t-125 359.5v902l-147 54v20h442v-20l-149 -54v-888q0 -220 92.5 -342t247.5 -122q90 0 157.5 36.5t107.5 102t59 147t19 178.5v877l-175 66v19h383v-19l-174 -66v-861q0 -245 -101 -381t-314 -136z" />
    <glyph glyph-name="uni01DC" unicode="&#x1dc;" horiz-adv-x="937" 
d="M474 1315l-186 220l4 11h124l66 -231h-8zM320 1159q-36 0 -61 25t-25 62t25 61t61 24q39 0 63 -24t24 -61t-24.5 -62t-62.5 -25zM565 1159q-37 0 -62 24.5t-25 62.5q0 37 24.5 61t62.5 24q37 0 61.5 -24t24.5 -61q0 -38 -24.5 -62.5t-61.5 -24.5zM378 -27
q-115 0 -185.5 84.5t-70.5 233.5v606l-117 40v19l243 65l8 -11v-696q0 -127 49.5 -193.5t140.5 -66.5q112 0 224 118v725l-117 40v19l243 65l8 -11v-918l91 -51v-13l-205 -51l-20 153q-152 -157 -292 -157z" />
    <glyph glyph-name="uni01DE" unicode="&#x1de;" horiz-adv-x="1233" 
d="M772 1813v-37h-379v37h379zM457 1559q-36 0 -61 25t-25 62t25 61t61 24q39 0 63 -24t24 -61t-24.5 -62t-62.5 -25zM702 1731q37 0 61.5 -24t24.5 -61q0 -38 -24.5 -62.5t-61.5 -24.5q-38 0 -62.5 24.5t-24.5 62.5q0 37 24.5 61t62.5 24zM1071 74l149 -54v-20h-444v20
l140 54l-121 409h-478l-120 -409l185 -54v-20h-377v20l156 54l368 1245l-79 100v20h203zM328 521h456l-229 771z" />
    <glyph glyph-name="uni01DF" unicode="&#x1df;" 
d="M258 1396v37h379v-37h-379zM322 1159q-36 0 -61 25t-25 62t25 61t61 24q39 0 63 -24t24 -61t-24.5 -62t-62.5 -25zM567 1159q-37 0 -62 24.5t-25 62.5q0 37 24.5 61t62.5 24q37 0 61.5 -24t24.5 -61q0 -38 -24.5 -62.5t-61.5 -24.5zM305 -24q-93 0 -153 59.5t-60 162.5
q0 81 39 149t104.5 113t148 72t172.5 32v109q0 136 -43 201.5t-163 65.5q-111 0 -212 -65l-8 19q63 58 139.5 92t154.5 34t132 -25.5t83 -73.5t41 -103.5t12 -126.5v-599l93 -52v-12l-210 -52l-16 142q-49 -66 -115 -104t-139 -38zM370 51q114 0 186 99v382
q-142 -16 -227.5 -95t-85.5 -212q0 -174 127 -174z" />
    <glyph glyph-name="uni01E0" unicode="&#x1e0;" horiz-adv-x="1233" 
d="M772 1821v-37h-379v37h379zM492 1634q0 38 25.5 63t64.5 25q38 0 63.5 -25t25.5 -63q0 -39 -25 -63t-64 -24t-64.5 24t-25.5 63zM1071 74l149 -54v-20h-444v20l140 54l-121 409h-478l-120 -409l185 -54v-20h-377v20l156 54l368 1245l-79 100v20h203zM328 521h456
l-229 771z" />
    <glyph glyph-name="uni01E1" unicode="&#x1e1;" 
d="M257 1422v37h379v-37h-379zM444 1162q-39 0 -64.5 24t-25.5 63q0 38 25.5 63t64.5 25q38 0 63.5 -25t25.5 -63q0 -39 -25 -63t-64 -24zM305 -24q-93 0 -153 59.5t-60 162.5q0 81 39 149t104.5 113t148 72t172.5 32v109q0 136 -43 201.5t-163 65.5q-111 0 -212 -65l-8 19
q63 58 139.5 92t154.5 34t132 -25.5t83 -73.5t41 -103.5t12 -126.5v-599l93 -52v-12l-210 -52l-16 142q-49 -66 -115 -104t-139 -38zM370 51q114 0 186 99v382q-142 -16 -227.5 -95t-85.5 -212q0 -174 127 -174z" />
    <glyph glyph-name="uni01E2" unicode="&#x1e2;" horiz-adv-x="1825" 
d="M1430 1615v-37h-379v37h379zM1798 353l8 -2l-48 -351h-899v20l156 54v409h-511l-247 -409l171 -54v-20h-397v20l183 54l787 1295l-142 50v20h836v-351h-8l-128 314h-399v-645h247l87 189h15v-414h-15l-87 187h-247v-682h464zM527 521h488v806z" />
    <glyph glyph-name="uni01E3" unicode="&#x1e3;" horiz-adv-x="1279" 
d="M817 1266v-37h-379v37h379zM965 60q143 0 254 103l9 -13q-59 -80 -135 -127t-160 -47q-104 0 -183.5 50.5t-128.5 142.5q-68 -96 -151 -144.5t-165 -48.5q-93 0 -153 59.5t-60 162.5q0 81 39 149t104.5 113t148 72t172.5 32v109q0 135 -40 201t-146 66q-111 0 -212 -65
l-8 19q63 58 139.5 92t154.5 34q166 0 219 -145q102 146 257 146q147 0 232.5 -126t85.5 -317h-532q-2 -19 -2 -59q0 -213 67 -336t194 -123zM914 990q-89 0 -144 -106t-64 -285l392 23q0 175 -48.5 271.5t-135.5 96.5zM370 51q139 0 242 138q-56 118 -56 283v15v45
q-142 -16 -227.5 -95t-85.5 -212q0 -174 127 -174z" />
    <glyph glyph-name="Gcaron" unicode="&#x1e6;" horiz-adv-x="1181" 
d="M511 1790l145 -108l145 108l9 -9l-133 -238h-44l-134 238zM663 -24q-179 0 -313.5 96t-205 263.5t-70.5 382.5q0 214 68.5 381t206.5 265t326 98q152 0 350 -120l21 -352h-15q-21 84 -40 141.5t-50 117.5t-68.5 95.5t-94 58t-127.5 22.5q-88 0 -158.5 -39.5t-117 -106.5
t-78.5 -159t-45.5 -192t-13.5 -211q0 -212 48.5 -367.5t153 -246t257.5 -90.5q81 0 165 64.5t84 136.5v348l-172 83v11h309v-492q-101 -100 -198.5 -144t-221.5 -44z" />
    <glyph glyph-name="gcaron" unicode="&#x1e7;" horiz-adv-x="878" 
d="M495 1182h-44l-134 248l12 9l145 -118l145 118l9 -9zM840 1055v-138l-168 -1q82 -98 82 -249q0 -159 -88 -256.5t-232 -97.5q-85 0 -150 35q-77 -57 -77 -139q0 -30 12 -49t35 -27.5t45.5 -11.5t55.5 -3h212q126 0 196.5 -61t70.5 -185q0 -133 -109.5 -214.5
t-283.5 -81.5q-170 0 -269 59.5t-99 161.5q0 76 44.5 132t120.5 80q-117 32 -117 144q0 122 137 210q-68 45 -105.5 125t-37.5 183q0 157 88 253.5t231 96.5q131 0 217 -83l180 119zM434 343q84 0 131 86t47 238t-47 237.5t-131 85.5t-131 -85.5t-47 -237.5t47 -238t131 -86
zM580 -4q-22 0 -104.5 -2.5t-133.5 0t-93 12.5q-68 -72 -68 -172q0 -105 71.5 -166.5t202.5 -61.5q128 0 199.5 59t71.5 164q0 85 -41 126t-105 41z" />
    <glyph glyph-name="uni01E8" unicode="&#x1e8;" horiz-adv-x="1157" 
d="M456 1790l145 -108l145 108l9 -9l-133 -238h-44l-134 238zM48 0v20l147 53v1292l-147 54v20h440v-20l-147 -54v-1291l147 -54v-20h-440zM853 0l-452 737l477 620l-215 62v20h416v-20l-145 -54l-419 -545l464 -746l139 -44v-30h-265z" />
    <glyph glyph-name="uni01E9" unicode="&#x1e9;" horiz-adv-x="900" 
d="M495 1674h-44l-134 248l12 9l145 -118l145 118l9 -9zM486 589l382 -569v-20h-166l-288 491l-101 -138v-292l137 -41v-20h-409v20l137 41v1312l-106 48v12l232 64l9 -11v-1086l390 531l-133 51v12h285v-12l-117 -51z" />
    <glyph glyph-name="uni01EA" unicode="&#x1ea;" horiz-adv-x="1257" 
d="M1183 717q0 -227 -74 -398.5t-206 -260.5q-96 -152 -96 -270q0 -49 23 -77t53 -28q49 0 86 48l8 -7q-74 -105 -146 -105q-54 0 -95 34.5t-41 109.5q0 60 37 119.5t108 139.5q-97 -46 -212 -46q-249 0 -401.5 203.5t-152.5 537.5q0 335 152.5 540t401.5 205q165 0 291 -93
t195 -262t69 -390zM628 13q177 0 285 194t108 510q0 318 -108 512.5t-285 194.5q-176 0 -283.5 -194.5t-107.5 -512.5q0 -317 107.5 -510.5t283.5 -193.5z" />
    <glyph glyph-name="uni01EB" unicode="&#x1eb;" horiz-adv-x="933" 
d="M656 -323q49 0 86 48l8 -7q-74 -105 -146 -105q-54 0 -95 34.5t-41 109.5q0 57 33.5 113.5t96.5 128.5q-61 -23 -131 -23q-179 0 -286 138.5t-107 383.5q0 246 107 384.5t286 138.5q178 0 285 -138.5t107 -384.5q0 -167 -51 -286.5t-144 -179.5q-84 -138 -84 -250
q0 -49 23 -77t53 -28zM467 6q117 0 180.5 125t63.5 367t-64 367.5t-180 125.5t-180 -126t-64 -367q0 -243 63 -367.5t181 -124.5z" />
    <glyph glyph-name="uni01EC" unicode="&#x1ec;" horiz-adv-x="1257" 
d="M819 1615v-37h-379v37h379zM1183 717q0 -227 -74 -398.5t-206 -260.5q-96 -152 -96 -270q0 -49 23 -77t53 -28q49 0 86 48l8 -7q-74 -105 -146 -105q-54 0 -95 34.5t-41 109.5q0 60 37 119.5t108 139.5q-97 -46 -212 -46q-249 0 -401.5 203.5t-152.5 537.5
q0 335 152.5 540t401.5 205q165 0 291 -93t195 -262t69 -390zM628 13q177 0 285 194t108 510q0 318 -108 512.5t-285 194.5q-176 0 -283.5 -194.5t-107.5 -512.5q0 -317 107.5 -510.5t283.5 -193.5z" />
    <glyph glyph-name="uni01ED" unicode="&#x1ed;" horiz-adv-x="933" 
d="M660 1266v-37h-379v37h379zM656 -323q49 0 86 48l8 -7q-74 -105 -146 -105q-54 0 -95 34.5t-41 109.5q0 57 33.5 113.5t96.5 128.5q-61 -23 -131 -23q-179 0 -286 138.5t-107 383.5q0 246 107 384.5t286 138.5q178 0 285 -138.5t107 -384.5q0 -167 -51 -286.5
t-144 -179.5q-84 -138 -84 -250q0 -49 23 -77t53 -28zM467 6q117 0 180.5 125t63.5 367t-64 367.5t-180 125.5t-180 -126t-64 -367q0 -243 63 -367.5t181 -124.5z" />
    <glyph glyph-name="uni01EE" unicode="&#x1ee;" horiz-adv-x="955" 
d="M331 1790l145 -108l145 108l9 -9l-133 -238h-44l-134 238zM418 -214q-92 0 -180.5 29t-130.5 65l-20 360h15q15 -55 30 -99t36 -95t46 -88t56 -69.5t71 -49t85 -16.5q128 0 210 114.5t82 329.5q0 123 -26 209.5t-79 138.5t-121 78.5t-162 36.5v29l365 562h-504l-93 -233
h-7v351h697l15 -21l-407 -631v-2q252 -33 360.5 -150.5t108.5 -341.5q0 -126 -36 -224.5t-98 -159.5t-141.5 -92t-171.5 -31z" />
    <glyph glyph-name="uni01EF" unicode="&#x1ef;" horiz-adv-x="849" 
d="M279 1439l145 -118l145 118l9 -9l-133 -248h-44l-134 248zM354 -464q-77 0 -155 23t-124 52l46 219h14q55 -173 109 -246q17 -7 55.5 -12.5t54.5 -5.5q111 0 180 100t69 296q0 106 -22 182t-66.5 122t-101.5 70t-136 32v27l323 492h-415l-105 -146h-9v253h610l13 -21
l-365 -550v-2q228 -31 324.5 -135.5t96.5 -302.5q0 -111 -32 -198t-87 -140.5t-125.5 -81t-151.5 -27.5z" />
    <glyph glyph-name="uni01F0" unicode="&#x1f0;" horiz-adv-x="456" 
d="M98 1439l145 -118l145 118l9 -9l-133 -248h-44l-134 248zM113 -417l-3 6q59 121 59 343v965l-118 40v19l247 65l8 -11v-928q0 -202 -51.5 -330t-141.5 -169z" />
    <glyph glyph-name="uni01F1" unicode="&#x1f1;" horiz-adv-x="2205" 
d="M48 0v20l147 53v1294l-147 52v20h541q266 0 421.5 -191.5t155.5 -526.5q0 -338 -157.5 -529.5t-432.5 -191.5h-528zM1248 0l-3 24l697 1377h-506l-151 -297h-9l31 335h811l2 -25l-700 -1377h578l153 300l8 -2l-31 -335h-880zM341 38h214q447 0 447 670q0 343 -109.5 518
t-323.5 175h-228v-1363z" />
    <glyph glyph-name="uni01F2" unicode="&#x1f2;" horiz-adv-x="1995" 
d="M48 0v20l147 53v1294l-147 52v20h541q266 0 421.5 -191.5t155.5 -526.5q0 -338 -157.5 -529.5t-432.5 -191.5h-528zM341 38h214q447 0 447 670q0 343 -109.5 518t-323.5 175h-228v-1363zM1310 0l-4 15l454 949h-249l-137 -174h-12v204h547l2 -17l-452 -947h285l142 193
l10 -2v-221h-586z" />
    <glyph glyph-name="uni01F3" unicode="&#x1f3;" horiz-adv-x="1690" 
d="M404 -24q-152 0 -241 136.5t-89 352.5q0 246 112.5 401t298.5 155q110 0 186 -95v447l-106 47v13l230 64l10 -11v-1404l88 -42v-12l-203 -52l-18 141q-59 -68 -121 -104.5t-147 -36.5zM1005 0l-4 15l454 949h-249l-137 -174h-12v204h547l2 -17l-452 -947h285l142 193
l10 -2v-221h-586zM476 51q109 0 195 100v638q-17 101 -67.5 151t-116.5 50q-118 0 -190.5 -137t-72.5 -350q0 -214 67.5 -333t184.5 -119z" />
    <glyph glyph-name="uni01F4" unicode="&#x1f4;" horiz-adv-x="1181" 
d="M611 1542l37 181h144l4 -11l-177 -170h-8zM663 -24q-179 0 -313.5 96t-205 263.5t-70.5 382.5q0 214 68.5 381t206.5 265t326 98q152 0 350 -120l21 -352h-15q-21 84 -40 141.5t-50 117.5t-68.5 95.5t-94 58t-127.5 22.5q-88 0 -158.5 -39.5t-117 -106.5t-78.5 -159
t-45.5 -192t-13.5 -211q0 -212 48.5 -367.5t153 -246t257.5 -90.5q81 0 165 64.5t84 136.5v348l-172 83v11h309v-492q-101 -100 -198.5 -144t-221.5 -44z" />
    <glyph glyph-name="uni01F5" unicode="&#x1f5;" horiz-adv-x="878" 
d="M604 1368l-186 -220h-8l66 231h124zM840 1055v-138l-168 -1q82 -98 82 -249q0 -159 -88 -256.5t-232 -97.5q-85 0 -150 35q-77 -57 -77 -139q0 -30 12 -49t35 -27.5t45.5 -11.5t55.5 -3h212q126 0 196.5 -61t70.5 -185q0 -133 -109.5 -214.5t-283.5 -81.5
q-170 0 -269 59.5t-99 161.5q0 76 44.5 132t120.5 80q-117 32 -117 144q0 122 137 210q-68 45 -105.5 125t-37.5 183q0 157 88 253.5t231 96.5q131 0 217 -83l180 119zM434 343q84 0 131 86t47 238t-47 237.5t-131 85.5t-131 -85.5t-47 -237.5t47 -238t131 -86zM580 -4
q-22 0 -104.5 -2.5t-133.5 0t-93 12.5q-68 -72 -68 -172q0 -105 71.5 -166.5t202.5 -61.5q128 0 199.5 59t71.5 164q0 85 -41 126t-105 41z" />
    <glyph glyph-name="uni01F8" unicode="&#x1f8;" horiz-adv-x="1267" 
d="M693 1542h-8l-177 170l4 11h144zM1038 -17l-788 1269v-1167l169 -65v-20h-371v20l168 65v1280l-168 54v20h257l738 -1205v1120l-170 66v19h375v-19l-170 -66v-1354z" />
    <glyph glyph-name="uni01F9" unicode="&#x1f9;" horiz-adv-x="1033" 
d="M558 1148l-186 220l4 11h124l66 -231h-8zM41 0v20l138 41v836l-122 40v19l246 65l11 -11l-1 -146q157 157 299 157q119 0 190.5 -84.5t71.5 -233.5v-642l138 -41v-20h-409v20l137 41v619q0 128 -50.5 194t-145.5 66q-114 0 -231 -118v-761l137 -41v-20h-409z" />
    <glyph glyph-name="Aringacute" unicode="&#x1fa;" horiz-adv-x="1233" 
d="M786 1896l-177 -170h-8l37 181h144zM1071 74l149 -54v-20h-444v20l140 54l-121 409h-478l-120 -409l185 -54v-20h-377v20l156 54l368 1245l-79 100v20h111q-36 18 -57 50t-21 73q0 63 45.5 102.5t113.5 39.5t114 -39.5t46 -102.5q0 -59 -40.5 -97t-103.5 -43zM642 1682
q-25 0 -40 -32t-15 -88t15 -87.5t40 -31.5q26 0 41 31.5t15 87.5t-15 88t-41 32zM328 521h456l-229 771z" />
    <glyph glyph-name="aringacute" unicode="&#x1fb;" 
d="M392 1454h-8l66 231h124l4 -11zM440 1157q-68 0 -113.5 39t-45.5 102t45.5 102.5t113.5 39.5t114 -39.5t46 -102.5t-46 -102t-114 -39zM440 1179q26 0 41 31.5t15 87.5t-15 88t-41 32q-25 0 -40 -32t-15 -88t15 -87.5t40 -31.5zM305 -24q-93 0 -153 59.5t-60 162.5
q0 81 39 149t104.5 113t148 72t172.5 32v109q0 136 -43 201.5t-163 65.5q-111 0 -212 -65l-8 19q63 58 139.5 92t154.5 34t132 -25.5t83 -73.5t41 -103.5t12 -126.5v-599l93 -52v-12l-210 -52l-16 142q-49 -66 -115 -104t-139 -38zM370 51q114 0 186 99v382
q-142 -16 -227.5 -95t-85.5 -212q0 -174 127 -174z" />
    <glyph glyph-name="AEacute" unicode="&#x1fc;" horiz-adv-x="1825" 
d="M1380 1712l-177 -170h-8l37 181h144zM1798 353l8 -2l-48 -351h-899v20l156 54v409h-511l-247 -409l171 -54v-20h-397v20l183 54l787 1295l-142 50v20h836v-351h-8l-128 314h-399v-645h247l87 189h15v-414h-15l-87 187h-247v-682h464zM527 521h488v806z" />
    <glyph glyph-name="aeacute" unicode="&#x1fd;" horiz-adv-x="1279" 
d="M759 1368l-186 -220h-8l66 231h124zM965 60q143 0 254 103l9 -13q-59 -80 -135 -127t-160 -47q-104 0 -183.5 50.5t-128.5 142.5q-68 -96 -151 -144.5t-165 -48.5q-93 0 -153 59.5t-60 162.5q0 81 39 149t104.5 113t148 72t172.5 32v109q0 135 -40 201t-146 66
q-111 0 -212 -65l-8 19q63 58 139.5 92t154.5 34q166 0 219 -145q102 146 257 146q147 0 232.5 -126t85.5 -317h-532q-2 -19 -2 -59q0 -213 67 -336t194 -123zM914 990q-89 0 -144 -106t-64 -285l392 23q0 175 -48.5 271.5t-135.5 96.5zM370 51q139 0 242 138
q-56 118 -56 283v15v45q-142 -16 -227.5 -95t-85.5 -212q0 -174 127 -174z" />
    <glyph glyph-name="Oslashacute" unicode="&#x1fe;" horiz-adv-x="1257" 
d="M769 1712l-177 -170h-8l37 181h144zM886 1391q140 -86 218.5 -262t78.5 -412q0 -220 -69 -388.5t-195 -260.5t-291 -92q-133 0 -244 63l-93 -251h-38l100 270q-132 89 -205.5 260.5t-73.5 398.5q0 335 152.5 540t401.5 205q122 0 226 -53l92 247h38zM237 717
q0 -185 38.5 -332.5t109.5 -240.5l444 1197q-88 83 -201 83q-176 0 -283.5 -194.5t-107.5 -512.5zM628 13q177 0 285 194t108 510q0 196 -43 350t-122 245l-445 -1199q92 -100 217 -100z" />
    <glyph glyph-name="oslashacute" unicode="&#x1ff;" horiz-adv-x="933" 
d="M602 1368l-186 -220h-8l66 231h124zM605 996q119 -47 186.5 -176t67.5 -322q0 -245 -107 -383.5t-285 -138.5q-56 0 -102 13l-29 -120h-40l32 133q-119 47 -186.5 175.5t-67.5 320.5q0 246 107 384.5t286 138.5q55 0 101 -13l29 122h40zM223 498q0 -331 117 -443l218 912
q-41 24 -91 24q-116 0 -180 -126t-64 -367zM467 6q117 0 180.5 125t63.5 367q0 333 -119 444l-218 -912q42 -24 93 -24z" />
    <glyph glyph-name="uni0200" unicode="&#x200;" horiz-adv-x="1233" 
d="M488 1542h-8l-177 170l4 11h284l37 -181h-8l-164 158zM1071 74l149 -54v-20h-444v20l140 54l-121 409h-478l-120 -409l185 -54v-20h-377v20l156 54l368 1245l-79 100v20h203zM328 521h456l-229 771z" />
    <glyph glyph-name="uni0201" unicode="&#x201;" 
d="M367 1149l-186 220l4 11h124l66 -231h-8zM567 1148l-186 220l4 11h124l66 -231h-8zM305 -24q-93 0 -153 59.5t-60 162.5q0 81 39 149t104.5 113t148 72t172.5 32v109q0 136 -43 201.5t-163 65.5q-111 0 -212 -65l-8 19q63 58 139.5 92t154.5 34t132 -25.5t83 -73.5
t41 -103.5t12 -126.5v-599l93 -52v-12l-210 -52l-16 142q-49 -66 -115 -104t-139 -38zM370 51q114 0 186 99v382q-142 -16 -227.5 -95t-85.5 -212q0 -174 127 -174z" />
    <glyph glyph-name="uni0202" unicode="&#x202;" horiz-adv-x="1233" 
d="M582 1648q-141 0 -162 -135l-11 5q2 97 47.5 170t125.5 73q82 0 127.5 -73.5t47.5 -169.5l-11 -5q-21 135 -164 135zM1071 74l149 -54v-20h-444v20l140 54l-121 409h-478l-120 -409l185 -54v-20h-377v20l156 54l368 1245l-79 100v20h203zM328 521h456l-229 771z" />
    <glyph glyph-name="uni0203" unicode="&#x203;" 
d="M444 1422q84 0 128.5 -68t46.5 -175h-11q-10 72 -48 101t-116 29q-76 0 -114 -29t-48 -101h-11q2 108 46.5 175.5t126.5 67.5zM305 -24q-93 0 -153 59.5t-60 162.5q0 81 39 149t104.5 113t148 72t172.5 32v109q0 136 -43 201.5t-163 65.5q-111 0 -212 -65l-8 19
q63 58 139.5 92t154.5 34t132 -25.5t83 -73.5t41 -103.5t12 -126.5v-599l93 -52v-12l-210 -52l-16 142q-49 -66 -115 -104t-139 -38zM370 51q114 0 186 99v382q-142 -16 -227.5 -95t-85.5 -212q0 -174 127 -174z" />
    <glyph glyph-name="uni0204" unicode="&#x204;" horiz-adv-x="997" 
d="M555 1542h-8l-177 170l4 11h144zM365 1537h-8l-177 170l4 11h144zM48 0v20l148 53v1292l-147 54v20h826v-351h-7l-123 313h-403v-644h264l86 189h14v-414h-14l-86 187h-264v-681h460l168 315l8 -2l-45 -351h-885z" />
    <glyph glyph-name="uni0205" unicode="&#x205;" horiz-adv-x="797" 
d="M356 1149l-186 220l4 11h124l66 -231h-8zM556 1148l-186 220l4 11h124l66 -231h-8zM451 -24q-175 0 -276 136t-101 360q0 244 103 396.5t261 152.5q147 0 232.5 -126t85.5 -317h-532q-2 -19 -2 -59q0 -213 67 -336t194 -123q143 0 254 103l9 -13q-59 -80 -135 -127
t-160 -47zM224 599l392 23q0 175 -48.5 271.5t-135.5 96.5q-89 0 -144 -106t-64 -285z" />
    <glyph glyph-name="uni0206" unicode="&#x206;" horiz-adv-x="997" 
d="M509 1761q82 0 127.5 -73.5t47.5 -169.5l-11 -5q-21 135 -164 135q-141 0 -162 -135l-11 5q2 97 47.5 170t125.5 73zM48 0v20l148 53v1292l-147 54v20h826v-351h-7l-123 313h-403v-644h264l86 189h14v-414h-14l-86 187h-264v-681h460l168 315l8 -2l-45 -351h-885z" />
    <glyph glyph-name="uni0207" unicode="&#x207;" horiz-adv-x="797" 
d="M433 1422q84 0 128.5 -68t46.5 -175h-11q-10 72 -48 101t-116 29q-76 0 -114 -29t-48 -101h-11q2 108 46.5 175.5t126.5 67.5zM451 -24q-175 0 -276 136t-101 360q0 244 103 396.5t261 152.5q147 0 232.5 -126t85.5 -317h-532q-2 -19 -2 -59q0 -213 67 -336t194 -123
q143 0 254 103l9 -13q-59 -80 -135 -127t-160 -47zM224 599l392 23q0 175 -48.5 271.5t-135.5 96.5q-89 0 -144 -106t-64 -285z" />
    <glyph glyph-name="uni0208" unicode="&#x208;" horiz-adv-x="536" 
d="M449 1542h-8l-177 170l4 11h144zM231 1533h-8l-177 170l4 11h144zM48 0v20l147 53v1292l-147 54v20h440v-20l-147 -54v-1291l147 -54v-20h-440z" />
    <glyph glyph-name="uni0209" unicode="&#x209;" horiz-adv-x="480" 
d="M168 1149l-186 220l4 11h124l66 -231h-8zM368 1148l-186 220l4 11h124l66 -231h-8zM41 0v20l136 41v836l-120 40v19l249 65l7 -11v-949l136 -41v-20h-408z" />
    <glyph glyph-name="uni020A" unicode="&#x20a;" horiz-adv-x="536" 
d="M268 1761q82 0 127.5 -73.5t47.5 -169.5l-11 -5q-21 135 -164 135q-141 0 -162 -135l-11 5q2 97 47.5 170t125.5 73zM48 0v20l147 53v1292l-147 54v20h440v-20l-147 -54v-1291l147 -54v-20h-440z" />
    <glyph glyph-name="uni020B" unicode="&#x20b;" horiz-adv-x="480" 
d="M245 1422q84 0 128.5 -68t46.5 -175h-11q-10 72 -48 101t-116 29q-76 0 -114 -29t-48 -101h-11q2 108 46.5 175.5t126.5 67.5zM41 0v20l136 41v836l-120 40v19l249 65l7 -11v-949l136 -41v-20h-408z" />
    <glyph glyph-name="uni020C" unicode="&#x20c;" horiz-adv-x="1257" 
d="M673 1511h-8l-177 170l4 11h144zM857 1511h-8l-177 170l4 11h144zM628 -24q-249 0 -401.5 203.5t-152.5 537.5q0 335 152.5 540t401.5 205q165 0 291 -93t195 -262t69 -390q0 -220 -69 -388.5t-195 -260.5t-291 -92zM628 13q177 0 285 194t108 510q0 318 -108 512.5
t-285 194.5q-176 0 -283.5 -194.5t-107.5 -512.5q0 -317 107.5 -510.5t283.5 -193.5z" />
    <glyph glyph-name="uni020D" unicode="&#x20d;" horiz-adv-x="933" 
d="M391 1149l-186 220l4 11h124l66 -231h-8zM591 1148l-186 220l4 11h124l66 -231h-8zM467 -24q-179 0 -286 138.5t-107 383.5q0 246 107 384.5t286 138.5q178 0 285 -138.5t107 -384.5q0 -245 -107 -383.5t-285 -138.5zM467 6q117 0 180.5 125t63.5 367t-64 367.5
t-180 125.5t-180 -126t-64 -367q0 -243 63 -367.5t181 -124.5z" />
    <glyph glyph-name="uni020E" unicode="&#x20e;" horiz-adv-x="1257" 
d="M629 1761q82 0 127.5 -73.5t47.5 -169.5l-11 -5q-21 135 -164 135q-141 0 -162 -135l-11 5q2 97 47.5 170t125.5 73zM628 -24q-249 0 -401.5 203.5t-152.5 537.5q0 335 152.5 540t401.5 205q165 0 291 -93t195 -262t69 -390q0 -220 -69 -388.5t-195 -260.5t-291 -92z
M628 13q177 0 285 194t108 510q0 318 -108 512.5t-285 194.5q-176 0 -283.5 -194.5t-107.5 -512.5q0 -317 107.5 -510.5t283.5 -193.5z" />
    <glyph glyph-name="uni020F" unicode="&#x20f;" horiz-adv-x="933" 
d="M468 1422q84 0 128.5 -68t46.5 -175h-11q-10 72 -48 101t-116 29q-76 0 -114 -29t-48 -101h-11q2 108 46.5 175.5t126.5 67.5zM467 -24q-179 0 -286 138.5t-107 383.5q0 246 107 384.5t286 138.5q178 0 285 -138.5t107 -384.5q0 -245 -107 -383.5t-285 -138.5zM467 6
q117 0 180.5 125t63.5 367t-64 367.5t-180 125.5t-180 -126t-64 -367q0 -243 63 -367.5t181 -124.5z" />
    <glyph glyph-name="uni0210" unicode="&#x210;" horiz-adv-x="1156" 
d="M460 1542h-8l-177 170l4 11h144zM639 1542h-8l-177 170l4 11h144zM48 0v20l147 53v1292l-147 54v20h521q186 0 288 -96t102 -260q0 -169 -89.5 -268t-230.5 -127v-5q70 -18 98 -17l272 -585l111 -61l1 -20h-242l-298 680q-43 -7 -92 -7h-85v38h90q302 0 302 366
q0 151 -67 237.5t-207 86.5h-181v-1327l143 -54v-20h-436z" />
    <glyph glyph-name="uni0211" unicode="&#x211;" horiz-adv-x="646" 
d="M265 1149l-186 220l4 11h124l66 -231h-8zM465 1148l-186 220l4 11h124l66 -231h-8zM41 0v20l137 41v836l-122 40v19l249 65l8 -11v-171q47 89 114 135.5t124 46.5q43 0 71 -14l-30 -236h-10q-54 85 -118 151q-85 0 -151 -124v-737l155 -41v-20h-427z" />
    <glyph glyph-name="uni0212" unicode="&#x212;" horiz-adv-x="1156" 
d="M450 1761q82 0 127.5 -73.5t47.5 -169.5l-11 -5q-21 135 -164 135q-141 0 -162 -135l-11 5q2 97 47.5 170t125.5 73zM48 0v20l147 53v1292l-147 54v20h521q186 0 288 -96t102 -260q0 -169 -89.5 -268t-230.5 -127v-5q70 -18 98 -17l272 -585l111 -61l1 -20h-242l-298 680
q-43 -7 -92 -7h-85v38h90q302 0 302 366q0 151 -67 237.5t-207 86.5h-181v-1327l143 -54v-20h-436z" />
    <glyph glyph-name="uni0213" unicode="&#x213;" horiz-adv-x="646" 
d="M342 1422q84 0 128.5 -68t46.5 -175h-11q-10 72 -48 101t-116 29q-76 0 -114 -29t-48 -101h-11q2 108 46.5 175.5t126.5 67.5zM41 0v20l137 41v836l-122 40v19l249 65l8 -11v-171q47 89 114 135.5t124 46.5q43 0 71 -14l-30 -236h-10q-54 85 -118 151q-85 0 -151 -124
v-737l155 -41v-20h-427z" />
    <glyph glyph-name="uni0214" unicode="&#x214;" horiz-adv-x="1224" 
d="M628 1542h-8l-177 170l4 11h144zM863 1542h-8l-177 170l4 11h144zM632 -24q-198 0 -323 127.5t-125 359.5v902l-147 54v20h442v-20l-149 -54v-888q0 -220 92.5 -342t247.5 -122q90 0 157.5 36.5t107.5 102t59 147t19 178.5v877l-175 66v19h383v-19l-174 -66v-861
q0 -245 -101 -381t-314 -136z" />
    <glyph glyph-name="uni0215" unicode="&#x215;" horiz-adv-x="937" 
d="M365 1149l-186 220l4 11h124l66 -231h-8zM565 1148l-186 220l4 11h124l66 -231h-8zM378 -27q-115 0 -185.5 84.5t-70.5 233.5v606l-117 40v19l243 65l8 -11v-696q0 -127 49.5 -193.5t140.5 -66.5q112 0 224 118v725l-117 40v19l243 65l8 -11v-918l91 -51v-13l-205 -51
l-20 153q-152 -157 -292 -157z" />
    <glyph glyph-name="uni0216" unicode="&#x216;" horiz-adv-x="1224" 
d="M623 1761q82 0 127.5 -73.5t47.5 -169.5l-11 -5q-21 135 -164 135q-141 0 -162 -135l-11 5q2 97 47.5 170t125.5 73zM632 -24q-198 0 -323 127.5t-125 359.5v902l-147 54v20h442v-20l-149 -54v-888q0 -220 92.5 -342t247.5 -122q90 0 157.5 36.5t107.5 102t59 147
t19 178.5v877l-175 66v19h383v-19l-174 -66v-861q0 -245 -101 -381t-314 -136z" />
    <glyph glyph-name="uni0217" unicode="&#x217;" horiz-adv-x="937" 
d="M442 1422q84 0 128.5 -68t46.5 -175h-11q-10 72 -48 101t-116 29q-76 0 -114 -29t-48 -101h-11q2 108 46.5 175.5t126.5 67.5zM378 -27q-115 0 -185.5 84.5t-70.5 233.5v606l-117 40v19l243 65l8 -11v-696q0 -127 49.5 -193.5t140.5 -66.5q112 0 224 118v725l-117 40v19
l243 65l8 -11v-918l91 -51v-13l-205 -51l-20 153q-152 -157 -292 -157z" />
    <glyph glyph-name="uni0218" unicode="&#x218;" horiz-adv-x="891" 
d="M418 -24q-156 0 -333 117l-18 344h11q57 -225 140 -324t203 -99t186 78.5t66 221.5q0 41 -8 78t-18.5 65t-32.5 57t-39 47t-49.5 43t-52 38t-57.5 38l-49 32q-33 22 -48.5 32.5t-48 33.5t-49.5 40t-43 43.5t-40.5 52t-29.5 57t-21.5 67.5t-6.5 76q0 164 104 256t271 92
q75 0 159.5 -33.5t156.5 -86.5l22 -342h-11q-60 225 -136 324.5t-208 99.5q-93 0 -151 -74.5t-58 -199.5q0 -58 14 -102.5t45.5 -81.5t66 -64.5t92.5 -64.5l56 -36q55 -35 92 -61.5t84.5 -70.5t76 -86.5t48.5 -102t20 -125.5q0 -98 -33.5 -173t-91.5 -119t-128.5 -65.5
t-152.5 -21.5zM492 -100q41 -61 41 -112q0 -67 -52 -123.5t-120 -82.5l-5 10q27 29 40 50t13 47q0 56 -65 110z" />
    <glyph glyph-name="uni0219" unicode="&#x219;" horiz-adv-x="717" 
d="M350 -24q-69 0 -147.5 23t-125.5 52l47 219h15q6 -14 31 -76t44 -102.5t36 -67.5q50 -18 113 -18q92 0 133.5 53.5t41.5 136.5q0 44 -12 78t-42.5 63.5t-54.5 46.5t-76 50l-59 37q-36 22 -57 37t-53.5 43.5t-51 55t-32.5 66t-14 83.5q0 130 82 197.5t213 67.5
q53 0 119 -18t113 -43l-32 -215h-14q-79 193 -112 232q-26 14 -83 14q-84 0 -126 -56.5t-42 -136.5q0 -65 40.5 -115.5t116.5 -98.5l68 -43q38 -24 64.5 -42.5t60 -48t53.5 -57.5t34.5 -65.5t14.5 -78.5q0 -131 -84.5 -202t-221.5 -71zM430 -100q41 -61 41 -112
q0 -67 -52 -123.5t-120 -82.5l-5 10q27 29 40 50t13 47q0 56 -65 110z" />
    <glyph glyph-name="uni021A" unicode="&#x21a;" horiz-adv-x="1025" 
d="M282 0v20l158 54v1327h-255l-107 -277h-9v315h887v-315h-8l-109 277h-253v-1327l157 -54v-20h-461zM562 -100q41 -61 41 -112q0 -67 -52 -123.5t-120 -82.5l-5 10q27 29 40 50t13 47q0 56 -65 110z" />
    <glyph glyph-name="uni021B" unicode="&#x21b;" horiz-adv-x="537" 
d="M320 -24q-80 0 -126 57t-46 176v755h-88v15l109 47l104 181h10v-213h230v-30h-229v-773q0 -75 21.5 -108.5t73.5 -33.5q34 0 68 14.5t55 36.5l10 -12q-33 -47 -83 -79.5t-109 -32.5zM336 -100q41 -61 41 -112q0 -67 -52 -123.5t-120 -82.5l-5 10q27 29 40 50t13 47
q0 56 -65 110z" />
    <glyph glyph-name="uni021C" unicode="&#x21c;" horiz-adv-x="955" 
d="M418 -214q-92 0 -180.5 29t-130.5 65l-20 360h15q15 -55 30 -99t36 -95t46 -88t56 -69.5t71 -49t85 -16.5q128 0 210 114.5t82 329.5q0 123 -26 209.5t-79 138.5t-121 78.5t-162 36.5v29l365 562h-504l-93 -233h-7v351h697l15 -21l-407 -631v-2q252 -33 360.5 -150.5
t108.5 -341.5q0 -126 -36 -224.5t-98 -159.5t-141.5 -92t-171.5 -31z" />
    <glyph glyph-name="uni021D" unicode="&#x21d;" horiz-adv-x="849" 
d="M354 -464q-77 0 -155 23t-124 52l46 219h14q55 -173 109 -246q17 -7 55.5 -12.5t54.5 -5.5q111 0 180 100t69 296q0 106 -22 182t-66.5 122t-101.5 70t-136 32v27l323 492h-415l-105 -146h-9v253h610l13 -21l-365 -550v-2q228 -31 324.5 -135.5t96.5 -302.5
q0 -111 -32 -198t-87 -140.5t-125.5 -81t-151.5 -27.5z" />
    <glyph glyph-name="uni021E" unicode="&#x21e;" horiz-adv-x="1328" 
d="M519 1790l145 -108l145 108l9 -9l-133 -238h-44l-134 238zM48 0v20l147 53v1292l-147 54v20h442v-20l-149 -54v-609h644v609l-147 54v20h442v-20l-149 -54v-1291l149 -54v-20h-442v20l147 53v645h-644v-644l149 -54v-20h-442z" />
    <glyph glyph-name="uni021F" unicode="&#x21f;" horiz-adv-x="1033" 
d="M41 0v20l137 41v1312l-107 48v12l232 64l10 -11v-623q85 79 153 118.5t146 39.5q117 0 189 -85.5t72 -222.5v-652l139 -41v-20h-409v20l137 41v629q0 120 -49 185t-137 65q-61 0 -129.5 -30.5t-111.5 -88.5v-760l137 -41v-20h-409zM489 1497l145 -118l145 118l9 -9
l-133 -248h-44l-134 248z" />
    <glyph glyph-name="uni0226" unicode="&#x226;" horiz-adv-x="1233" 
d="M582 1547q-39 0 -64.5 24t-25.5 63q0 38 25.5 63t64.5 25q38 0 63.5 -25t25.5 -63q0 -39 -25 -63t-64 -24zM1071 74l149 -54v-20h-444v20l140 54l-121 409h-478l-120 -409l185 -54v-20h-377v20l156 54l368 1245l-79 100v20h203zM328 521h456l-229 771z" />
    <glyph glyph-name="uni0227" unicode="&#x227;" 
d="M444 1162q-39 0 -64.5 24t-25.5 63q0 38 25.5 63t64.5 25q38 0 63.5 -25t25.5 -63q0 -39 -25 -63t-64 -24zM305 -24q-93 0 -153 59.5t-60 162.5q0 81 39 149t104.5 113t148 72t172.5 32v109q0 136 -43 201.5t-163 65.5q-111 0 -212 -65l-8 19q63 58 139.5 92t154.5 34
t132 -25.5t83 -73.5t41 -103.5t12 -126.5v-599l93 -52v-12l-210 -52l-16 142q-49 -66 -115 -104t-139 -38zM370 51q114 0 186 99v382q-142 -16 -227.5 -95t-85.5 -212q0 -174 127 -174z" />
    <glyph glyph-name="uni0228" unicode="&#x228;" horiz-adv-x="997" 
d="M978 351l-45 -351h-441l8 -1l-34 -102q159 -44 159 -155q0 -77 -69.5 -133.5t-166.5 -64.5v11q59 16 90.5 62.5t31.5 104.5q0 25 -6.5 44.5t-20.5 32.5t-23 19t-26.5 13.5t-18.5 8.5l-2 14l62 146h-428v20l148 53v1292l-147 54v20h826v-351h-7l-123 313h-403v-644h264
l86 189h14v-414h-14l-86 187h-264v-681h460l168 315z" />
    <glyph glyph-name="uni0229" unicode="&#x229;" horiz-adv-x="797" 
d="M483 60q143 0 254 103l9 -13q-59 -80 -135 -127t-160 -47q-15 0 -41 2l-27 -81q159 -44 159 -155q0 -77 -69.5 -133.5t-166.5 -64.5v11q59 16 90.5 62.5t31.5 104.5q0 25 -6.5 44.5t-20.5 32.5t-23 19t-26.5 13.5t-18.5 8.5l-2 14l54 128q-146 25 -228.5 157t-82.5 333
q0 244 103 396.5t261 152.5q147 0 232.5 -126t85.5 -317h-532q-2 -19 -2 -59q0 -213 67 -336t194 -123zM432 990q-89 0 -144 -106t-64 -285l392 23q0 175 -48.5 271.5t-135.5 96.5z" />
    <glyph glyph-name="uni022A" unicode="&#x22a;" horiz-adv-x="1257" 
d="M440 1776v37h379v-37h-379zM504 1559q-36 0 -61 25t-25 62t25 61t61 24q39 0 63 -24t24 -61t-24.5 -62t-62.5 -25zM749 1559q-37 0 -62 24.5t-25 62.5q0 37 24.5 61t62.5 24q37 0 61.5 -24t24.5 -61q0 -38 -24.5 -62.5t-61.5 -24.5zM628 -24q-249 0 -401.5 203.5
t-152.5 537.5q0 335 152.5 540t401.5 205q165 0 291 -93t195 -262t69 -390q0 -220 -69 -388.5t-195 -260.5t-291 -92zM628 13q177 0 285 194t108 510q0 318 -108 512.5t-285 194.5q-176 0 -283.5 -194.5t-107.5 -512.5q0 -317 107.5 -510.5t283.5 -193.5z" />
    <glyph glyph-name="uni022B" unicode="&#x22b;" horiz-adv-x="933" 
d="M282 1396v37h379v-37h-379zM346 1159q-36 0 -61 25t-25 62t25 61t61 24q39 0 63 -24t24 -61t-24.5 -62t-62.5 -25zM591 1159q-37 0 -62 24.5t-25 62.5q0 37 24.5 61t62.5 24q37 0 61.5 -24t24.5 -61q0 -38 -24.5 -62.5t-61.5 -24.5zM467 -24q-179 0 -286 138.5
t-107 383.5q0 246 107 384.5t286 138.5q178 0 285 -138.5t107 -384.5q0 -245 -107 -383.5t-285 -138.5zM467 6q117 0 180.5 125t63.5 367t-64 367.5t-180 125.5t-180 -126t-64 -367q0 -243 63 -367.5t181 -124.5z" />
    <glyph glyph-name="uni022C" unicode="&#x22c;" horiz-adv-x="1257" 
d="M444 1814v37h379v-37h-379zM460 1558l-9 4q29 157 118 157q23 0 74.5 -30t75.5 -30q59 0 81 60l7 -4q-10 -65 -38.5 -111t-77.5 -46q-25 0 -76.5 29.5t-74.5 29.5q-59 0 -80 -59zM628 -24q-249 0 -401.5 203.5t-152.5 537.5q0 335 152.5 540t401.5 205q165 0 291 -93
t195 -262t69 -390q0 -220 -69 -388.5t-195 -260.5t-291 -92zM628 13q177 0 285 194t108 510q0 318 -108 512.5t-285 194.5q-176 0 -283.5 -194.5t-107.5 -512.5q0 -317 107.5 -510.5t283.5 -193.5z" />
    <glyph glyph-name="uni022D" unicode="&#x22d;" horiz-adv-x="933" 
d="M285 1465v37h379v-37h-379zM302 1199l-9 4q29 157 118 157q23 0 74.5 -30t75.5 -30q59 0 81 60l7 -4q-10 -65 -38.5 -111t-77.5 -46q-25 0 -76.5 29.5t-74.5 29.5q-59 0 -80 -59zM467 -24q-179 0 -286 138.5t-107 383.5q0 246 107 384.5t286 138.5q178 0 285 -138.5
t107 -384.5q0 -245 -107 -383.5t-285 -138.5zM467 6q117 0 180.5 125t63.5 367t-64 367.5t-180 125.5t-180 -126t-64 -367q0 -243 63 -367.5t181 -124.5z" />
    <glyph glyph-name="uni022E" unicode="&#x22e;" horiz-adv-x="1257" 
d="M629 1547q-39 0 -64.5 24t-25.5 63q0 38 25.5 63t64.5 25q38 0 63.5 -25t25.5 -63q0 -39 -25 -63t-64 -24zM628 -24q-249 0 -401.5 203.5t-152.5 537.5q0 335 152.5 540t401.5 205q165 0 291 -93t195 -262t69 -390q0 -220 -69 -388.5t-195 -260.5t-291 -92zM628 13
q177 0 285 194t108 510q0 318 -108 512.5t-285 194.5q-176 0 -283.5 -194.5t-107.5 -512.5q0 -317 107.5 -510.5t283.5 -193.5z" />
    <glyph glyph-name="uni022F" unicode="&#x22f;" horiz-adv-x="933" 
d="M468 1162q-39 0 -64.5 24t-25.5 63q0 38 25.5 63t64.5 25q38 0 63.5 -25t25.5 -63q0 -39 -25 -63t-64 -24zM467 -24q-179 0 -286 138.5t-107 383.5q0 246 107 384.5t286 138.5q178 0 285 -138.5t107 -384.5q0 -245 -107 -383.5t-285 -138.5zM467 6q117 0 180.5 125
t63.5 367t-64 367.5t-180 125.5t-180 -126t-64 -367q0 -243 63 -367.5t181 -124.5z" />
    <glyph glyph-name="uni0230" unicode="&#x230;" horiz-adv-x="1257" 
d="M440 1784v37h379v-37h-379zM629 1547q-39 0 -64.5 24t-25.5 63q0 38 25.5 63t64.5 25q38 0 63.5 -25t25.5 -63q0 -39 -25 -63t-64 -24zM628 -24q-249 0 -401.5 203.5t-152.5 537.5q0 335 152.5 540t401.5 205q165 0 291 -93t195 -262t69 -390q0 -220 -69 -388.5
t-195 -260.5t-291 -92zM628 13q177 0 285 194t108 510q0 318 -108 512.5t-285 194.5q-176 0 -283.5 -194.5t-107.5 -512.5q0 -317 107.5 -510.5t283.5 -193.5z" />
    <glyph glyph-name="uni0231" unicode="&#x231;" horiz-adv-x="933" 
d="M281 1422v37h379v-37h-379zM468 1162q-39 0 -64.5 24t-25.5 63q0 38 25.5 63t64.5 25q38 0 63.5 -25t25.5 -63q0 -39 -25 -63t-64 -24zM467 -24q-179 0 -286 138.5t-107 383.5q0 246 107 384.5t286 138.5q178 0 285 -138.5t107 -384.5q0 -245 -107 -383.5t-285 -138.5z
M467 6q117 0 180.5 125t63.5 367t-64 367.5t-180 125.5t-180 -126t-64 -367q0 -243 63 -367.5t181 -124.5z" />
    <glyph glyph-name="uni0232" unicode="&#x232;" horiz-adv-x="1158" 
d="M390 1578v37h379v-37h-379zM349 0v20l156 53v566l-350 726l-150 53v21h467v-21l-154 -53l317 -658l332 655l-188 56v21h387v-21l-157 -53l-358 -701v-590l157 -54v-20h-459z" />
    <glyph glyph-name="uni0233" unicode="&#x233;" horiz-adv-x="796" 
d="M215 1229v37h379v-37h-379zM156 -495l-91 136l3 16q15 6 50.5 16t62 20t58 26t56 42.5t38.5 61.5l44 140l-289 968l-83 42v21h334v-21l-110 -43l210 -759l229 759l-113 43v21h236v-21l-95 -42l-292 -972q-122 -410 -248 -454z" />
    <glyph glyph-name="uni0237" unicode="&#x237;" horiz-adv-x="456" 
d="M113 -417l-3 6q59 121 59 343v965l-118 40v19l247 65l8 -11v-928q0 -202 -51.5 -330t-141.5 -169z" />
    <glyph glyph-name="uni0259" unicode="&#x259;" horiz-adv-x="797" 
d="M346 1018q175 0 276 -136t101 -360q0 -244 -103 -396.5t-261 -152.5q-147 0 -232.5 126t-85.5 317h532q2 19 2 59q0 213 -67 336t-194 123q-143 0 -254 -103l-9 13q59 80 135 127t160 47zM573 395l-392 -23q0 -175 48.5 -271.5t135.5 -96.5q89 0 144 106t64 285z" />
    <glyph glyph-name="uni026E" unicode="&#x26e;" horiz-adv-x="1151" 
d="M631 421q229 -31 325 -136t96 -302q0 -111 -32 -198t-87 -140.5t-125 -81t-151 -27.5q-77 0 -155.5 23t-123.5 52l45 219h14q57 -175 110 -246q17 -7 55 -12.5t55 -5.5q111 0 179.5 100t68.5 296q0 106 -22 182t-66.5 122t-101.5 70t-136 32v27l324 492h-590v-826
l137 -41v-20h-409v20l137 41v1312l-106 48v12l232 64l9 -11v-492h671l12 -21l-365 -550v-2z" />
    <glyph glyph-name="uni0272" unicode="&#x272;" horiz-adv-x="1036" 
d="M56 -415l-5 16q66 62 98.5 141t32.5 192v963l-121 40v19l245 65l10 -11v-146q157 157 300 157q118 0 190 -84.5t72 -233.5v-642l137 -41v-20h-409v20l137 41v619q0 127 -50.5 193.5t-144.5 66.5q-114 0 -232 -118v-738q0 -90 -13.5 -167.5t-43 -146.5t-81 -117.5
t-122.5 -67.5z" />
    <glyph glyph-name="uni0292" unicode="&#x292;" horiz-adv-x="849" 
d="M354 -464q-77 0 -155 23t-124 52l46 219h14q55 -173 109 -246q17 -7 55.5 -12.5t54.5 -5.5q111 0 180 100t69 296q0 106 -22 182t-66.5 122t-101.5 70t-136 32v27l323 492h-415l-105 -146h-9v253h610l13 -21l-365 -550v-2q228 -31 324.5 -135.5t96.5 -302.5
q0 -111 -32 -198t-87 -140.5t-125.5 -81t-151.5 -27.5z" />
    <glyph glyph-name="uni02A4" unicode="&#x2a4;" horiz-adv-x="1678" 
d="M1158 421q228 -31 324.5 -135.5t96.5 -302.5q0 -111 -32 -198t-87 -140.5t-125 -81t-151 -27.5q-77 0 -155.5 23t-123.5 52l45 219h14q60 -179 109 -246q17 -7 55.5 -12.5t55.5 -5.5q111 0 179.5 100t68.5 296q0 106 -22 182t-66.5 122t-101.5 70t-136 32v27l323 492
h-624v-805l88 -42v-12l-203 -52l-18 141q-59 -68 -121 -104.5t-147 -36.5q-152 0 -241 136.5t-89 352.5q0 246 112.5 401t298.5 155q110 0 186 -95v447l-106 47v13l230 64l10 -11v-492h706l12 -21l-365 -550v-2zM671 151v638q-17 101 -67.5 151t-116.5 50
q-118 0 -190.5 -137t-72.5 -350q0 -214 67.5 -333t184.5 -119q109 0 195 100z" />
    <glyph glyph-name="uni02B0" unicode="&#x2b0;" horiz-adv-x="540" 
d="M23 944v9l54 44v614l-49 40v6l161 39l5 -5v-312q78 80 150 80q56 0 93.5 -42t37.5 -107v-312l54 -45v-9h-224v9l53 44v309q0 46 -18 72.5t-52 26.5q-24 0 -50.5 -13t-43.5 -36v-358l54 -45v-9h-225z" />
    <glyph glyph-name="circumflex" unicode="&#x2c6;" horiz-adv-x="703" 
d="M207 1202l-12 9l134 248h44l133 -248l-9 -9l-145 118z" />
    <glyph glyph-name="caron" unicode="&#x2c7;" horiz-adv-x="857" 
d="M207 1499l145 -118l145 118l9 -9l-133 -248h-44l-134 248z" />
    <glyph glyph-name="breve" unicode="&#x2d8;" horiz-adv-x="704" 
d="M351 1164q-82 0 -126.5 67.5t-46.5 175.5h11q10 -72 48 -101t114 -29q78 0 116 29t48 101h11q-2 -107 -46.5 -175t-128.5 -68z" />
    <glyph glyph-name="dotaccent" unicode="&#x2d9;" horiz-adv-x="677" 
d="M359 1252q-39 0 -64.5 24t-25.5 63q0 38 25.5 63t64.5 25q38 0 63.5 -25t25.5 -63q0 -39 -25 -63t-64 -24z" />
    <glyph glyph-name="ring" unicode="&#x2da;" horiz-adv-x="453" 
d="M225 1197q-68 0 -113.5 39t-45.5 102t45.5 102.5t113.5 39.5t114 -39.5t46 -102.5t-46 -102t-114 -39zM225 1219q26 0 41 31.5t15 87.5t-15 88t-41 32q-25 0 -40 -32t-15 -88t15 -87.5t40 -31.5z" />
    <glyph glyph-name="ogonek" unicode="&#x2db;" horiz-adv-x="497" 
d="M252 -448q-54 0 -95 34.5t-41 109.5q0 23 5 45.5t18.5 47.5t23.5 42.5t34 47t35 43t41.5 47.5t39.5 44l18 -12q-103 -157 -103 -280q0 -49 23 -77t53 -28q49 0 86 48l8 -7q-74 -105 -146 -105z" />
    <glyph glyph-name="tilde" unicode="&#x2dc;" horiz-adv-x="681" 
d="M171 1239l-9 4q29 157 118 157q23 0 74.5 -30t75.5 -30q59 0 81 60l7 -4q-10 -65 -38.5 -111t-77.5 -46q-25 0 -76.5 29.5t-74.5 29.5q-59 0 -80 -59z" />
    <glyph glyph-name="hungarumlaut" unicode="&#x2dd;" horiz-adv-x="564" 
d="M136 1247l53 211h129l4 -11l-177 -200h-9zM302 1245l53 211h129l4 -11l-177 -200h-9z" />
    <glyph glyph-name="uni02E1" unicode="&#x2e1;" horiz-adv-x="263" 
d="M23 944v9l53 44v614l-48 40v6l162 39l4 -5v-693l53 -45v-9h-224z" />
    <glyph glyph-name="uni02E2" unicode="&#x2e2;" horiz-adv-x="363" 
d="M172 932q-37 0 -76.5 12t-60.5 27l23 125h7q46 -99 81 -141q12 -6 32 -6q63 3 63 86q0 37 -19.5 60.5t-59.5 50.5l-22 15q-21 14 -35 25.5t-31.5 31t-26.5 44.5t-9 54q0 71 43 107t115 36q57 0 117 -29l-17 -122h-5q-53 106 -73 130q-8 4 -24 4q-28 0 -44 -25t-16 -60
q0 -23 12 -44t23.5 -31t32.5 -26l26 -19q25 -18 38 -29t32.5 -32t28.5 -45t9 -52q0 -70 -46.5 -108.5t-117.5 -38.5z" />
    <glyph glyph-name="gravecomb" unicode="&#x300;" horiz-adv-x="0" 
d="M-251 1148l-186 220l4 11h124l66 -231h-8z" />
    <glyph glyph-name="acutecomb" unicode="&#x301;" horiz-adv-x="0" 
d="M-433 1148h-8l66 231h124l4 -11z" />
    <glyph glyph-name="uni0302" unicode="&#x302;" horiz-adv-x="0" 
d="M-650 1132l-12 9l134 248h44l133 -248l-9 -9l-145 118z" />
    <glyph glyph-name="tildecomb" unicode="&#x303;" horiz-adv-x="0" 
d="M-682 1199l-9 4q29 157 118 157q23 0 74.5 -30t75.5 -30q59 0 81 60l7 -4q-10 -65 -38.5 -111t-77.5 -46q-25 0 -76.5 29.5t-74.5 29.5q-59 0 -80 -59z" />
    <glyph glyph-name="uni0304" unicode="&#x304;" horiz-adv-x="0" 
d="M-580 1229v37h379v-37h-379z" />
    <glyph glyph-name="uni0306" unicode="&#x306;" horiz-adv-x="0" 
d="M-507 1154q-82 0 -126.5 67.5t-46.5 175.5h11q10 -72 48 -101t114 -29q78 0 116 29t48 101h11q-2 -107 -46.5 -175t-128.5 -68z" />
    <glyph glyph-name="uni0307" unicode="&#x307;" horiz-adv-x="0" 
d="M-360 1162q-39 0 -64.5 24t-25.5 63q0 38 25.5 63t64.5 25q38 0 63.5 -25t25.5 -63q0 -39 -25 -63t-64 -24z" />
    <glyph glyph-name="uni0308" unicode="&#x308;" horiz-adv-x="0" 
d="M-576 1159q-36 0 -61 25t-25 62t25 61t61 24q39 0 63 -24t24 -61t-24.5 -62t-62.5 -25zM-331 1159q-37 0 -62 24.5t-25 62.5q0 37 24.5 61t62.5 24q37 0 61.5 -24t24.5 -61q0 -38 -24.5 -62.5t-61.5 -24.5z" />
    <glyph glyph-name="hookabovecomb" unicode="&#x309;" horiz-adv-x="0" 
d="M-153 1162l-5 9q43 58 43 124q0 38 -4.5 54t-18.5 16q-29 0 -68 -95h-4l3 103q44 23 87 23q51 0 91.5 -25t40.5 -76q0 -81 -165 -133z" />
    <glyph glyph-name="uni030A" unicode="&#x30a;" horiz-adv-x="0" 
d="M-308 1157q-68 0 -113.5 39t-45.5 102t45.5 102.5t113.5 39.5t114 -39.5t46 -102.5t-46 -102t-114 -39zM-308 1179q26 0 41 31.5t15 87.5t-15 88t-41 32q-25 0 -40 -32t-15 -88t15 -87.5t40 -31.5z" />
    <glyph glyph-name="uni030B" unicode="&#x30b;" horiz-adv-x="0" 
d="M-594 1147l53 211h129l4 -11l-177 -200h-9zM-428 1145l53 211h129l4 -11l-177 -200h-9z" />
    <glyph glyph-name="uni030C" unicode="&#x30c;" horiz-adv-x="0" 
d="M-569 1439l145 -118l145 118l9 -9l-133 -248h-44l-134 248z" />
    <glyph glyph-name="uni030F" unicode="&#x30f;" horiz-adv-x="0" 
d="M-280 1149l-186 220l4 11h124l66 -231h-8zM-80 1148l-186 220l4 11h124l66 -231h-8z" />
    <glyph glyph-name="uni0311" unicode="&#x311;" horiz-adv-x="0" 
d="M-121 1422q84 0 128.5 -68t46.5 -175h-11q-10 72 -48 101t-116 29q-76 0 -114 -29t-48 -101h-11q2 108 46.5 175.5t126.5 67.5z" />
    <glyph glyph-name="uni0312" unicode="&#x312;" horiz-adv-x="0" 
d="M-158 1110q-41 61 -41 112q0 67 52 123.5t120 82.5l5 -10q-27 -29 -40 -50t-13 -47q0 -56 65 -110z" />
    <glyph glyph-name="uni031B" unicode="&#x31b;" horiz-adv-x="0" 
d="M-134 994v11q72 42 72 106q0 53 -18 90l155 46q11 -39 11 -66q0 -79 -73 -133t-147 -54z" />
    <glyph glyph-name="dotbelowcomb" unicode="&#x323;" horiz-adv-x="0" 
d="M-131 -353q-39 0 -64.5 24t-25.5 63q0 38 25.5 63t64.5 25q38 0 63.5 -25t25.5 -63q0 -39 -25 -63t-64 -24z" />
    <glyph glyph-name="uni0324" unicode="&#x324;" horiz-adv-x="0" 
d="M-438 -385q-36 0 -61 25t-25 62t25 61t61 24q39 0 63 -24t24 -61t-24.5 -62t-62.5 -25zM-193 -385q-37 0 -62 24.5t-25 62.5q0 37 24.5 61t62.5 24q37 0 61.5 -24t24.5 -61q0 -38 -24.5 -62.5t-61.5 -24.5z" />
    <glyph glyph-name="uni0325" unicode="&#x325;" horiz-adv-x="0" 
d="M-304 -373q-68 0 -113.5 39t-45.5 102t45.5 102.5t113.5 39.5t114 -39.5t46 -102.5t-46 -102t-114 -39zM-304 -351q26 0 41 31.5t15 87.5t-15 88t-41 32q-25 0 -40 -32t-15 -88t15 -87.5t40 -31.5z" />
    <glyph glyph-name="uni0326" unicode="&#x326;" horiz-adv-x="0" 
d="M-99 -100q41 -61 41 -112q0 -67 -52 -123.5t-120 -82.5l-5 10q27 29 40 50t13 47q0 56 -65 110z" />
    <glyph glyph-name="uni0327" unicode="&#x327;" horiz-adv-x="0" 
d="M-477 -456v11q59 16 90.5 62.5t31.5 104.5q0 25 -6.5 44.5t-20.5 32.5t-23 19t-26.5 13.5t-18.5 8.5l-2 14l63 148l23 -3l-34 -102q159 -44 159 -155q0 -77 -69.5 -133.5t-166.5 -64.5z" />
    <glyph glyph-name="uni0328" unicode="&#x328;" horiz-adv-x="0" 
d="M-305 -448q-54 0 -95 34.5t-41 109.5q0 23 5 45.5t18.5 47.5t23.5 42.5t34 47t35 43t41.5 47.5t39.5 44l7 -5q7 -5 11 -7q-103 -157 -103 -280q0 -49 23 -77t53 -28q49 0 86 48l8 -7q-74 -105 -146 -105z" />
    <glyph glyph-name="uni032D" unicode="&#x32d;" horiz-adv-x="0" 
d="M-575 -490l-12 9l134 248h44l133 -248l-9 -9l-145 118z" />
    <glyph glyph-name="uni032E" unicode="&#x32e;" horiz-adv-x="0" 
d="M-348 -401q-82 0 -126.5 67.5t-46.5 175.5h11q10 -72 48 -101t114 -29q78 0 116 29t48 101h11q-2 -107 -46.5 -175t-128.5 -68z" />
    <glyph glyph-name="uni0330" unicode="&#x330;" horiz-adv-x="0" 
d="M-590 -313l-9 4q29 157 118 157q23 0 74.5 -30t75.5 -30q59 0 81 60l7 -4q-10 -65 -38.5 -111t-77.5 -46q-25 0 -76.5 29.5t-74.5 29.5q-59 0 -80 -59z" />
    <glyph glyph-name="uni0331" unicode="&#x331;" horiz-adv-x="0" 
d="M-502 -216v37h379v-37h-379z" />
    <glyph glyph-name="uni0336" unicode="&#x336;" horiz-adv-x="0" 
d="M-496 455v37h323v-37h-323z" />
    <glyph glyph-name="uni0338" unicode="&#x338;" horiz-adv-x="0" 
d="M-658 -131l301 1261h40l-301 -1261h-40z" />
    <glyph glyph-name="tonos" unicode="&#x384;" horiz-adv-x="650" 
d="M152 1167l10 203h124l4 -11l-130 -192h-8z" />
    <glyph glyph-name="dieresistonos" unicode="&#x385;" horiz-adv-x="777" 
d="M365 1237l12 203h131l4 -11l-138 -192h-9zM242 1139q-36 0 -61 25t-25 62t25 61t61 24q38 0 62 -24t24 -61t-24 -62t-62 -25zM544 1139q-37 0 -61.5 25t-24.5 62t24.5 61t61.5 24q38 0 62.5 -24t24.5 -61q0 -38 -24 -62.5t-63 -24.5z" />
    <glyph glyph-name="Alphatonos" unicode="&#x386;" horiz-adv-x="1233" 
d="M318 1431l-130 -192h-8l10 203h124zM1071 74l149 -54v-20h-444v20l140 54l-121 409h-478l-120 -409l185 -54v-20h-377v20l156 54l368 1245l-79 100v20h203zM328 521h456l-229 771z" />
    <glyph glyph-name="Epsilontonos" unicode="&#x388;" horiz-adv-x="997" 
d="M-209 1239l10 203h124l4 -11l-130 -192h-8zM48 0v20l148 53v1292l-147 54v20h826v-351h-7l-123 313h-403v-644h264l86 189h14v-414h-14l-86 187h-264v-681h460l168 315l8 -2l-45 -351h-885z" />
    <glyph glyph-name="Etatonos" unicode="&#x389;" horiz-adv-x="1328" 
d="M-209 1239l10 203h124l4 -11l-130 -192h-8zM48 0v20l147 53v1292l-147 54v20h442v-20l-149 -54v-609h644v609l-147 54v20h442v-20l-149 -54v-1291l149 -54v-20h-442v20l147 53v645h-644v-644l149 -54v-20h-442z" />
    <glyph glyph-name="Iotatonos" unicode="&#x38a;" horiz-adv-x="536" 
d="M-209 1239l10 203h124l4 -11l-130 -192h-8zM48 0v20l147 53v1292l-147 54v20h440v-20l-147 -54v-1291l147 -54v-20h-440z" />
    <glyph glyph-name="Omicrontonos" unicode="&#x38c;" horiz-adv-x="1257" 
d="M628 -24q-249 0 -401.5 203.5t-152.5 537.5q0 335 152.5 540t401.5 205q165 0 291 -93t195 -262t69 -390q0 -220 -69 -388.5t-195 -260.5t-291 -92zM-4 1239l10 203h124l4 -11l-130 -192h-8zM628 13q177 0 285 194t108 510q0 318 -108 512.5t-285 194.5
q-176 0 -283.5 -194.5t-107.5 -512.5q0 -317 107.5 -510.5t283.5 -193.5z" />
    <glyph glyph-name="Upsilontonos" unicode="&#x38e;" horiz-adv-x="1158" 
d="M362 0v20l146 53v316q0 175 -63.5 383t-165 380.5t-209.5 256.5l-65 9v21q90 20 218 23q124 -151 230 -381.5t158 -503.5q68 304 173 527t215 358q100 -5 167 -23v-21q-65 0 -155.5 -107.5t-168.5 -263t-133 -342.5t-55 -331v-300l146 -54v-20h-438zM-236 1239l10 203
h124l4 -11l-130 -192h-8z" />
    <glyph glyph-name="Omegatonos" unicode="&#x38f;" horiz-adv-x="1394" 
d="M131 0l-57 427l10 3l188 -387h248l26 116q-100 39 -203.5 148t-174 255.5t-70.5 274.5q0 121 46 235t125 200t192.5 138t240.5 52q177 0 313.5 -83t208 -224.5t71.5 -316.5q0 -129 -70.5 -275.5t-174 -255.5t-202.5 -148l25 -116h249l189 387l9 -3l-56 -427h-417l-29 157
q133 85 221 283t88 396q0 102 -26 203t-76 189t-134 143t-189 55q-116 0 -201.5 -46t-135.5 -129t-74 -186.5t-24 -228.5q0 -192 89.5 -393.5t219.5 -285.5l-30 -157h-415zM-13 1239l10 203h124l4 -11l-130 -192h-8z" />
    <glyph glyph-name="iotadieresistonos" unicode="&#x390;" horiz-adv-x="446" 
d="M192 1237l12 203h131l4 -11l-138 -192h-9zM69 1139q-36 0 -61 25t-25 62t25 61t61 24q38 0 62 -24t24 -61t-24 -62t-62 -25zM371 1139q-37 0 -61.5 25t-24.5 62t24.5 61t61.5 24q38 0 62.5 -24t24.5 -61q0 -38 -24 -62.5t-63 -24.5zM239 -24q-68 0 -96 62.5t-28 180.5
v678l-118 40v19l247 65l7 -11v-808q0 -81 14 -117t47 -36q40 0 84 35l6 -16q-80 -92 -163 -92z" />
    <glyph glyph-name="Alpha" unicode="&#x391;" horiz-adv-x="1233" 
d="M1071 74l149 -54v-20h-444v20l140 54l-121 409h-478l-120 -409l185 -54v-20h-377v20l156 54l368 1245l-79 100v20h203zM328 521h456l-229 771z" />
    <glyph glyph-name="Beta" unicode="&#x392;" horiz-adv-x="1063" 
d="M48 0v20l148 54v1291l-148 54v20h506q100 0 177 -27.5t123 -75t69 -107t23 -128.5q0 -128 -66 -221t-185 -126v-4q143 -20 220.5 -120t77.5 -243q0 -195 -124 -291t-354 -96h-467zM342 764h194q124 0 186.5 91t62.5 233q0 150 -68 231.5t-201 81.5h-174v-637zM342 38h192
q147 0 221.5 93t74.5 256q0 161 -71 250t-216 89h-201v-688z" />
    <glyph glyph-name="Gamma" unicode="&#x393;" horiz-adv-x="920" 
d="M48 0v20l146 53v1292l-146 54v20h803v-351h-7l-123 314h-381v-1328l171 -54v-20h-463z" />
    <glyph glyph-name="uni0394" unicode="&#x394;" horiz-adv-x="1243" 
d="M5 0v20l156 54l370 1245l-75 100v20h203l423 -1365l148 -54v-20h-1225zM188 37h749l-376 1255z" />
    <glyph glyph-name="Epsilon" unicode="&#x395;" horiz-adv-x="997" 
d="M48 0v20l148 53v1292l-147 54v20h826v-351h-7l-123 313h-403v-644h264l86 189h14v-414h-14l-86 187h-264v-681h460l168 315l8 -2l-45 -351h-885z" />
    <glyph glyph-name="Zeta" unicode="&#x396;" horiz-adv-x="1034" 
d="M77 0l-3 24l697 1377h-506l-151 -297h-9l31 335h811l2 -25l-700 -1377h578l153 300l8 -2l-31 -335h-880z" />
    <glyph glyph-name="Eta" unicode="&#x397;" horiz-adv-x="1328" 
d="M48 0v20l147 53v1292l-147 54v20h442v-20l-149 -54v-609h644v609l-147 54v20h442v-20l-149 -54v-1291l149 -54v-20h-442v20l147 53v645h-644v-644l149 -54v-20h-442z" />
    <glyph glyph-name="Theta" unicode="&#x398;" horiz-adv-x="1257" 
d="M628 -24q-249 0 -401.5 203.5t-152.5 537.5q0 335 152.5 540t401.5 205q165 0 291 -93t195 -262t69 -390q0 -220 -69 -388.5t-195 -260.5t-291 -92zM628 13q177 0 285 194t108 510q0 318 -108 512.5t-285 194.5q-176 0 -283.5 -194.5t-107.5 -512.5q0 -317 107.5 -510.5
t283.5 -193.5zM422 544v354h13l72 -159h242l72 159h13v-354h-13l-72 157h-242l-72 -157h-13z" />
    <glyph glyph-name="Iota" unicode="&#x399;" horiz-adv-x="536" 
d="M48 0v20l147 53v1292l-147 54v20h440v-20l-147 -54v-1291l147 -54v-20h-440z" />
    <glyph glyph-name="Kappa" unicode="&#x39a;" horiz-adv-x="1157" 
d="M48 0v20l147 53v1292l-147 54v20h440v-20l-147 -54v-1291l147 -54v-20h-440zM853 0l-452 737l477 620l-215 62v20h416v-20l-145 -54l-419 -545l464 -746l139 -44v-30h-265z" />
    <glyph glyph-name="Lambda" unicode="&#x39b;" horiz-adv-x="1233" 
d="M5 0v20l156 54l368 1245l-79 100v20h203l418 -1365l149 -54v-20h-444v20l140 54l-361 1218l-358 -1218l185 -54v-20h-377z" />
    <glyph glyph-name="Mu" unicode="&#x39c;" horiz-adv-x="1611" 
d="M48 0v20l173 65v1280l-172 54v20h293l471 -1131l484 1131h266v-20l-152 -54v-1291l152 -54v-20h-450v20l152 54v1196l-482 -1125h-46l-480 1136v-1196l174 -65v-20h-383z" />
    <glyph glyph-name="Nu" unicode="&#x39d;" horiz-adv-x="1267" 
d="M1038 -17l-788 1269v-1167l169 -65v-20h-371v20l168 65v1280l-168 54v20h257l738 -1205v1120l-170 66v19h375v-19l-170 -66v-1354z" />
    <glyph glyph-name="Xi" unicode="&#x39e;" horiz-adv-x="909" 
d="M43 1088v351h822v-351h-6l-88 213h-633l-88 -213h-7zM212 530v416h13l56 -139h347l55 139h14v-414h-13l-56 137h-348l-55 -139h-13zM63 0l-44 351l8 2l128 -215h599l128 215l8 -2l-45 -351h-782z" />
    <glyph glyph-name="Omicron" unicode="&#x39f;" horiz-adv-x="1257" 
d="M628 -24q-249 0 -401.5 203.5t-152.5 537.5q0 335 152.5 540t401.5 205q165 0 291 -93t195 -262t69 -390q0 -220 -69 -388.5t-195 -260.5t-291 -92zM628 13q177 0 285 194t108 510q0 318 -108 512.5t-285 194.5q-176 0 -283.5 -194.5t-107.5 -512.5q0 -317 107.5 -510.5
t283.5 -193.5z" />
    <glyph glyph-name="Pi" unicode="&#x3a0;" horiz-adv-x="1330" 
d="M48 0v20l147 53v1292l-147 54v20h1232v-20l-149 -54v-1291l151 -54v-20h-442v20l147 53v1329h-646v-1328l149 -54v-20h-442z" />
    <glyph glyph-name="Rho" unicode="&#x3a1;" horiz-adv-x="974" 
d="M48 0v20l146 53v1292l-146 54v20h499q195 0 297.5 -114t102.5 -297q0 -210 -117 -321.5t-324 -111.5h-89v38h87q134 0 207.5 105.5t73.5 289.5q0 191 -76 282t-213 91h-156v-1327l164 -54v-20h-456z" />
    <glyph glyph-name="Sigma" unicode="&#x3a3;" horiz-adv-x="821" 
d="M53 0v39l384 612l-384 751v37h654v-351h-8l-122 314h-378l326 -684l-432 -681h539l163 316l7 -2l-42 -351h-707z" />
    <glyph glyph-name="Tau" unicode="&#x3a4;" horiz-adv-x="1025" 
d="M282 0v20l158 54v1327h-255l-107 -277h-9v315h887v-315h-8l-109 277h-253v-1327l157 -54v-20h-461z" />
    <glyph glyph-name="Upsilon" unicode="&#x3a5;" horiz-adv-x="1158" 
d="M362 0v20l146 53v316q0 175 -63.5 383t-165 380.5t-209.5 256.5l-65 9v21q90 20 218 23q124 -151 230 -381.5t158 -503.5q68 304 173 527t215 358q100 -5 167 -23v-21q-65 0 -155.5 -107.5t-168.5 -263t-133 -342.5t-55 -331v-300l146 -54v-20h-438z" />
    <glyph glyph-name="Phi" unicode="&#x3a6;" horiz-adv-x="1516" 
d="M1442 718q0 -116 -39 -214t-113.5 -173t-192 -121t-266.5 -54v-82l147 -54v-20h-440v20l147 53v84q-149 8 -266.5 53.5t-192 120.5t-113.5 173t-39 214q0 117 39 215.5t113.5 173.5t192 120.5t266.5 53.5v84l-147 54v20h440v-20l-147 -54v-84q149 -8 266.5 -53.5
t192 -120.5t113.5 -173.5t39 -215.5zM1278 718q0 232 -108 370t-339 156v-1050q229 16 338 153.5t109 370.5zM238 718q0 -113 25.5 -203.5t78 -160.5t139 -111t204.5 -49v1050q-231 -17 -339 -155t-108 -371z" />
    <glyph glyph-name="Chi" unicode="&#x3a7;" horiz-adv-x="1171" 
d="M1030 74l131 -53v-21h-449v21l147 53l-313 599l-340 -599l155 -53v-21h-351v21l155 53l361 634l-352 657l-130 53v21h451v-21l-148 -53l280 -537l317 537l-156 53v21h354v-21l-156 -53l-341 -571z" />
    <glyph glyph-name="Psi" unicode="&#x3a8;" horiz-adv-x="1358" 
d="M1061 1462q174 -4 294 -33v-20l-148 -44v-502q0 -192 -119.5 -309t-317.5 -127v-353l148 -54v-20h-441v20l147 53v354q-199 9 -319.5 126.5t-120.5 309.5v502l-147 44v20q99 20 293 33v-585q0 -175 81.5 -287t212.5 -125v900l-147 54v20h441v-20l-148 -54v-900
q130 14 210.5 126t80.5 286v585z" />
    <glyph glyph-name="uni03A9" unicode="&#x3a9;" horiz-adv-x="1394" 
d="M131 0l-57 427l10 3l188 -387h248l26 116q-100 39 -203.5 148t-174 255.5t-70.5 274.5q0 121 46 235t125 200t192.5 138t240.5 52q177 0 313.5 -83t208 -224.5t71.5 -316.5q0 -129 -70.5 -275.5t-174 -255.5t-202.5 -148l25 -116h249l189 387l9 -3l-56 -427h-417l-29 157
q133 85 221 283t88 396q0 102 -26 203t-76 189t-134 143t-189 55q-116 0 -201.5 -46t-135.5 -129t-74 -186.5t-24 -228.5q0 -192 89.5 -393.5t219.5 -285.5l-30 -157h-415z" />
    <glyph glyph-name="Iotadieresis" unicode="&#x3aa;" horiz-adv-x="536" 
d="M143 1559q-36 0 -61 25t-25 62t25 61t61 24q39 0 63 -24t24 -61t-24.5 -62t-62.5 -25zM388 1559q-38 0 -62.5 24.5t-24.5 62.5q0 37 24.5 61t62.5 24q37 0 61.5 -24t24.5 -61q0 -38 -24.5 -62.5t-61.5 -24.5zM48 0v20l147 53v1292l-147 54v20h440v-20l-147 -54v-1291
l147 -54v-20h-440z" />
    <glyph glyph-name="Upsilondieresis" unicode="&#x3ab;" horiz-adv-x="1158" 
d="M455 1559q-36 0 -61 25t-25 62t25 61t61 24q39 0 63 -24t24 -61t-24.5 -62t-62.5 -25zM700 1559q-38 0 -62.5 24.5t-24.5 62.5q0 37 24.5 61t62.5 24q37 0 61.5 -24t24.5 -61q0 -38 -24.5 -62.5t-61.5 -24.5zM362 0v20l146 53v316q0 175 -63.5 383t-165 380.5
t-209.5 256.5l-65 9v21q90 20 218 23q124 -151 230 -381.5t158 -503.5q68 304 173 527t215 358q100 -5 167 -23v-21q-65 0 -155.5 -107.5t-168.5 -263t-133 -342.5t-55 -331v-300l146 -54v-20h-438z" />
    <glyph glyph-name="alphatonos" unicode="&#x3ac;" horiz-adv-x="1046" 
d="M574 1359l-130 -192h-8l10 203h124zM994 84l8 -16q-102 -92 -203 -92q-103 0 -128 142q-121 -142 -269 -142q-107 0 -182.5 67t-110.5 176.5t-35 249.5q0 242 109.5 397t299.5 155q120 0 208 -85q4 27 14 66l116 19l6 -6q-13 -130 -19.5 -281.5t-7.5 -250t-1 -281.5
q0 -153 81 -153q55 0 114 35zM472 51q108 0 196 95q-4 29 -4 73q0 397 10 596l3 33q-34 65 -85 103.5t-110 38.5q-114 0 -187.5 -134t-73.5 -349q0 -216 65.5 -336t185.5 -120z" />
    <glyph glyph-name="epsilontonos" unicode="&#x3ad;" horiz-adv-x="777" 
d="M449 1359l-130 -192h-8l10 203h124zM627 287h16l36 -250q-53 -22 -132 -41.5t-144 -19.5q-142 0 -234.5 77.5t-92.5 200.5q0 108 68.5 184.5t181.5 102.5q-105 28 -163.5 94.5t-58.5 151.5q0 103 79 168.5t220 65.5q65 0 144 -19.5t132 -41.5l-36 -250h-16
q-83 212 -117 262q-51 19 -107 19q-79 0 -120 -56.5t-41 -148.5q0 -184 203 -250l110 12q0 -10 -6 -34.5t-13 -39.5l-101 20q-106 -24 -165.5 -88t-59.5 -173q0 -101 52 -164t141 -63q56 0 107 19q34 50 117 262z" />
    <glyph glyph-name="etatonos" unicode="&#x3ae;" horiz-adv-x="1025" 
d="M601 1359l-130 -192h-8l10 203h124zM631 1021q119 0 190.5 -84.5t71.5 -233.5v-1119h-134v1096q0 128 -50.5 194t-145.5 66q-113 0 -230 -117v-823h-135v824q0 123 -65 123q-54 0 -118 -34l-8 16q45 34 67 49.5t57.5 29t71.5 13.5q65 0 94.5 -40.5t34.5 -116.5
q157 157 299 157z" />
    <glyph glyph-name="iotatonos" unicode="&#x3af;" horiz-adv-x="446" 
d="M143 1167l10 203h124l4 -11l-130 -192h-8zM239 -24q-68 0 -96 62.5t-28 180.5v678l-118 40v19l247 65l7 -11v-808q0 -81 14 -117t47 -36q40 0 84 35l6 -16q-80 -92 -163 -92z" />
    <glyph glyph-name="upsilondieresistonos" unicode="&#x3b0;" horiz-adv-x="999" 
d="M452 1237l12 203h131l4 -11l-138 -192h-9zM329 1139q-36 0 -61 25t-25 62t25 61t61 24q38 0 62 -24t24 -61t-24 -62t-62 -25zM631 1139q-37 0 -61.5 25t-24.5 62t24.5 61t61.5 24q38 0 62.5 -24t24.5 -61q0 -38 -24 -62.5t-63 -24.5zM519 -24q-69 0 -127 18t-107.5 59
t-84 104t-54 158t-19.5 216v366l-120 40v19l245 65l9 -11v-479q0 -147 19 -251t54.5 -163t80.5 -85t104 -26q256 0 256 492q0 280 -34 440l-110 8l-4 19q30 18 88.5 37.5t86.5 19.5q27 0 50.5 -20t31.5 -54q41 -181 41 -450q0 -140 -31.5 -243t-88 -162.5t-128 -88
t-158.5 -28.5z" />
    <glyph glyph-name="alpha" unicode="&#x3b1;" horiz-adv-x="1046" 
d="M994 84l8 -16q-102 -92 -203 -92q-103 0 -128 142q-121 -142 -269 -142q-107 0 -182.5 67t-110.5 176.5t-35 249.5q0 242 109.5 397t299.5 155q120 0 208 -85q4 27 14 66l116 19l6 -6q-13 -130 -19.5 -281.5t-7.5 -250t-1 -281.5q0 -153 81 -153q55 0 114 35zM472 51
q108 0 196 95q-4 29 -4 73q0 397 10 596l3 33q-34 65 -85 103.5t-110 38.5q-114 0 -187.5 -134t-73.5 -349q0 -216 65.5 -336t185.5 -120z" />
    <glyph glyph-name="beta" unicode="&#x3b2;" horiz-adv-x="907" 
d="M516 770q56 -22 109 -56.5t106 -86.5t85 -127t32 -162q0 -179 -88 -270.5t-226 -91.5q-71 0 -131.5 30t-125.5 84v-506h-134v1483q0 92 17.5 165.5t47 122t70 81t85 46.5t93.5 14q124 0 212 -83t88 -225q0 -49 -9.5 -95t-22.5 -80t-35.5 -69t-40.5 -56.5t-46.5 -47.5
t-44 -38t-41.5 -32zM531 13q81 0 133 79t52 228q0 75 -17 135.5t-43 100t-68.5 73.5t-80 53.5t-91.5 41.5l1 30q113 111 162 214t49 219q0 120 -47 199.5t-127 79.5q-89 0 -133 -98t-44 -271v-932q63 -75 130.5 -113.5t123.5 -38.5z" />
    <glyph glyph-name="gamma" unicode="&#x3b3;" horiz-adv-x="770" 
d="M441 -458q-84 -12 -152 19q18 209 48 452q-139 587 -285 940h-75v21q70 46 146 46q23 0 45 -19t33 -38.5t18 -38.5q110 -300 211 -813l203 909q48 -5 77 -26l-276 -975q0 -62 3.5 -238.5t3.5 -238.5z" />
    <glyph glyph-name="delta" unicode="&#x3b4;" horiz-adv-x="971" 
d="M633 976q60 -63 98 -108t81 -109t64 -132t21 -141q0 -219 -118 -364.5t-294 -145.5q-115 0 -209 66t-148 181t-54 255q0 104 37 197.5t94 157t115 105.5t111 62q-146 175 -146 302q0 85 65.5 137.5t195.5 52.5q57 0 125 -17t110 -36l-31 -250h-15q-9 24 -31 85.5
t-39 105.5t-29 67q-45 15 -90 15q-124 0 -124 -131q0 -89 45.5 -160t165.5 -195zM486 6q114 0 188 125.5t74 296.5q-4 125 -50.5 227t-162.5 228q-9 10 -27.5 30.5t-35 38.5t-31.5 35q-217 -207 -217 -509q0 -206 72 -339t190 -133z" />
    <glyph glyph-name="epsilon" unicode="&#x3b5;" horiz-adv-x="755" 
d="M627 287h16l36 -250q-53 -22 -132 -41.5t-144 -19.5q-142 0 -234.5 77.5t-92.5 200.5q0 108 68.5 184.5t181.5 102.5q-105 28 -163.5 94.5t-58.5 151.5q0 103 79 168.5t220 65.5q65 0 144 -19.5t132 -41.5l-36 -250h-16q-83 212 -117 262q-51 19 -107 19
q-79 0 -120 -56.5t-41 -148.5q0 -184 203 -250l110 12q0 -10 -6 -34.5t-13 -39.5l-101 20q-106 -24 -165.5 -88t-59.5 -173q0 -101 52 -164t141 -63q56 0 107 19q34 50 117 262z" />
    <glyph glyph-name="zeta" unicode="&#x3b6;" horiz-adv-x="717" 
d="M522 -424l-12 6q77 183 77 305q-27 30 -227 102q-135 48 -205 130.5t-70 189.5q0 334 509 1050l-1 3q-5 0 -224.5 -8.5t-311.5 -10.5l22 160q284 -26 557 -7l18 -85q-73 -117 -125 -205t-116.5 -209t-105 -217t-68.5 -200.5t-28 -186.5q0 -40 2.5 -67t13 -59.5
t29.5 -55.5t53.5 -46.5t83.5 -42.5q237 -90 270 -160q0 -119 -47 -231t-94 -155z" />
    <glyph glyph-name="eta" unicode="&#x3b7;" horiz-adv-x="1025" 
d="M631 1021q119 0 190.5 -84.5t71.5 -233.5v-1119h-134v1096q0 128 -50.5 194t-145.5 66q-113 0 -230 -117v-823h-135v824q0 123 -65 123q-54 0 -118 -34l-8 16q45 34 67 49.5t57.5 29t71.5 13.5q65 0 94.5 -40.5t34.5 -116.5q157 157 299 157z" />
    <glyph glyph-name="theta" unicode="&#x3b8;" horiz-adv-x="971" 
d="M485 1497q203 0 307.5 -194.5t104.5 -572.5q0 -369 -104.5 -561.5t-307.5 -192.5q-202 0 -306.5 192.5t-104.5 561.5q0 377 104.5 572t306.5 195zM485 1456q-127 0 -193.5 -179.5t-67.5 -528.5h523q-1 349 -67.5 528.5t-194.5 179.5zM485 17q127 0 193.5 177t68.5 517
h-523q2 -341 68 -517.5t193 -176.5z" />
    <glyph glyph-name="iota" unicode="&#x3b9;" horiz-adv-x="446" 
d="M239 -24q-68 0 -96 62.5t-28 180.5v678l-118 40v19l247 65l7 -11v-808q0 -81 14 -117t47 -36q40 0 84 35l6 -16q-80 -92 -163 -92z" />
    <glyph glyph-name="kappa" unicode="&#x3ba;" horiz-adv-x="1017" 
d="M940 73l8 -16q-79 -81 -151 -81q-62 0 -128.5 87.5t-115 213t-71.5 253.5q-74 -138 -148 -314v-216h-135v824q0 123 -65 123q-55 0 -119 -34l-8 16q45 35 68.5 50.5t58 28.5t70.5 13q73 0 101.5 -50t28.5 -143v-556q104 247 208.5 409.5t225.5 291.5q46 48 75 48
q26 0 49 -20l-21 -104h-11q-39 24 -105 18q-119 -133 -209 -277q24 -114 84 -253t129 -237.5t113 -98.5q19 0 29.5 4t38.5 20z" />
    <glyph glyph-name="lambda" unicode="&#x3bb;" horiz-adv-x="913" 
d="M881 84l7 -16q-53 -48 -90.5 -70t-81.5 -22q-110 0 -143 130l-202 793l-248 -921q-46 5 -77 26l306 969l-73 287q-45 175 -86 175q-44 0 -102 -35l-8 16q54 48 91 70t80 22q55 0 92.5 -35t52.5 -96l294 -1154q44 -174 86 -174q44 0 102 35z" />
    <glyph glyph-name="uni03BC" unicode="&#x3bc;" horiz-adv-x="1087" 
d="M139 -416v1313l-122 40v19l247 65l9 -11v-702q0 -121 49 -189t139 -68q128 0 244 123q-2 42 -2 65v658l-123 40v19l247 65l10 -11v-788q0 -173 82 -173q56 0 116 35l8 -16q-103 -92 -206 -92q-106 0 -128 159q-150 -159 -316 -159q-79 0 -142 46q22 -75 22 -211v-227
h-134z" />
    <glyph glyph-name="nu" unicode="&#x3bd;" horiz-adv-x="793" 
d="M339 0l-264 953h-91v21q41 25 72 35.5t73 10.5q34 0 64 -32.5t37 -63.5l192 -802q114 200 184.5 416.5t70.5 392.5l-101 43v20q14 9 18.5 11.5t16 8t22 7.5t24.5 2q56 0 56 -92q0 -362 -324 -931h-50z" />
    <glyph glyph-name="xi" unicode="&#x3be;" horiz-adv-x="739" 
d="M523 -424l-12 6q76 181 76 305q-10 11 -37.5 25t-89.5 40.5t-87 37.5q-147 67 -236.5 186.5t-89.5 298.5q0 152 67.5 253.5t162.5 122.5q-90 41 -139.5 125.5t-49.5 210.5q0 141 98 225.5t263 84.5q56 0 125 -17t111 -36l-32 -250h-14q-12 31 -33.5 90.5t-38 101.5
t-28.5 66q-45 15 -90 15q-104 0 -164.5 -76.5t-60.5 -204.5q0 -76 12.5 -131.5t38 -91t51 -56t63.5 -40.5l136 13q1 -10 -4.5 -36t-11.5 -42l-122 20q-77 -11 -140.5 -104t-63.5 -243q0 -249 225 -353q119 -55 179.5 -91.5t75.5 -68.5q0 -120 -46.5 -231.5t-93.5 -154.5z
" />
    <glyph glyph-name="omicron" unicode="&#x3bf;" horiz-adv-x="933" 
d="M467 -24q-179 0 -286 138.5t-107 383.5q0 246 107 384.5t286 138.5q178 0 285 -138.5t107 -384.5q0 -245 -107 -383.5t-285 -138.5zM467 6q117 0 180.5 125t63.5 367t-64 367.5t-180 125.5t-180 -126t-64 -367q0 -243 63 -367.5t181 -124.5z" />
    <glyph glyph-name="pi" unicode="&#x3c0;" horiz-adv-x="1089" 
d="M1037 84l8 -16q-54 -49 -90 -70.5t-81 -21.5q-75 0 -122 56.5t-47 186.5v651h-373v-551q0 -79 -7 -138.5t-23 -107t-44.5 -72.5t-69.5 -25q-38 0 -72.5 23t-76.5 69l8 16q38 -22 67 -28.5t72 -6.5q17 0 33.5 8t37 31t33.5 78t13 136v568h-226v33l47 91h889v-124h-173
v-668q0 -81 18 -117t64 -36q55 0 115 35z" />
    <glyph glyph-name="rho" unicode="&#x3c1;" horiz-adv-x="1010" 
d="M525 1021q185 0 298 -144t113 -379t-113 -378.5t-298 -143.5q-181 0 -295 139q18 -73 18 -194v-337h-135v913v1q0 235 113.5 379t298.5 144zM525 6q124 0 193 130.5t69 361.5t-70 362t-192 131t-192 -131.5t-70 -361.5q0 -232 69 -362t193 -130z" />
    <glyph glyph-name="uni03C2" unicode="&#x3c2;" horiz-adv-x="811" 
d="M532 -424l-12 6q104 163 104 305q-31 32 -231 102q-154 53 -236.5 166t-82.5 312q0 260 114 407t291 147q57 0 125.5 -17t109.5 -36l-31 -250h-14q-10 26 -32 87t-39 104.5t-29 66.5q-45 15 -93 15q-82 0 -141 -68t-85.5 -171.5t-26.5 -228.5q0 -168 42 -262t161 -139
q237 -90 273 -160q0 -125 -52 -236.5t-115 -149.5z" />
    <glyph glyph-name="sigma" unicode="&#x3c3;" horiz-adv-x="971" 
d="M598 990q147 -79 223 -198t76 -294q0 -227 -117.5 -374.5t-294.5 -147.5q-176 0 -293.5 148t-117.5 374q0 229 126 376t334 147h356v-37zM486 6q117 0 189.5 136.5t72.5 355.5q0 187 -46.5 299t-161.5 194h-6q-150 0 -230 -134.5t-80 -358.5q0 -220 71.5 -356t190.5 -136
z" />
    <glyph glyph-name="tau" unicode="&#x3c4;" horiz-adv-x="697" 
d="M659 870h-307v-668q0 -82 19 -117.5t79 -35.5q50 0 104 35l8 -16q-94 -92 -183 -92q-162 0 -162 243q0 327 97 651h-294v33l47 91h592v-124z" />
    <glyph glyph-name="upsilon" unicode="&#x3c5;" horiz-adv-x="999" 
d="M519 -24q-69 0 -127 18t-107.5 59t-84 104t-54 158t-19.5 216v366l-120 40v19l245 65l9 -11v-479q0 -147 19 -251t54.5 -163t80.5 -85t104 -26q256 0 256 492q0 280 -34 440l-110 8l-4 19q30 18 88.5 37.5t86.5 19.5q27 0 50.5 -20t31.5 -54q41 -181 41 -450
q0 -140 -31.5 -243t-88 -162.5t-128 -88t-158.5 -28.5z" />
    <glyph glyph-name="phi" unicode="&#x3c6;" horiz-adv-x="1150" 
d="M1076 498q0 -228 -120.5 -373.5t-319.5 -148.5l-2 -415h-117l-2 415q-199 2 -320 148t-121 374q0 149 54 267.5t154 186.5t228 69l-2 429h135l-2 -429q129 -1 228.5 -69.5t153 -186.5t53.5 -267zM224 498q0 -223 75 -356t216 -136l-5 985q-91 -1 -156 -65t-97.5 -173.5
t-32.5 -254.5zM636 6q139 4 215 137.5t76 354.5q0 219 -75.5 354.5t-210.5 138.5z" />
    <glyph glyph-name="chi" unicode="&#x3c7;" horiz-adv-x="796" 
d="M831 -335l8 -16q-50 -47 -87 -69.5t-80 -22.5q-55 0 -94 33.5t-59 96.5l-164 524l-274 -650q-41 2 -77 26l329 694l-154 492q-55 175 -97 175q-44 0 -102 -35l-8 16q52 48 87.5 70t79.5 22q54 0 93.5 -34t59.5 -97l135 -431l242 560q45 -3 77 -26l-296 -608l182 -581
q55 -174 97 -174q44 0 102 35z" />
    <glyph glyph-name="psi" unicode="&#x3c8;" horiz-adv-x="1174" 
d="M1100 498q0 -218 -114.5 -361t-310.5 -159l-2 -417h-117l-2 417q-198 16 -313 165.5t-115 387.5v366l-119 40v19l259 65l10 -11v-479q0 -229 70.5 -366t207.5 -156l-7 1441h135l-7 -1441q134 21 204.5 151t70.5 338q0 283 -33 440l-110 8l-4 19q29 18 88 37.5t86 19.5
q28 0 51 -20.5t31 -54.5q41 -186 41 -449z" />
    <glyph glyph-name="omega" unicode="&#x3c9;" horiz-adv-x="1297" 
d="M408 -19q-154 0 -244 126.5t-90 324.5q0 359 292 589l11 -10q-95 -143 -126 -276t-31 -296q0 -190 62.5 -308.5t145.5 -118.5q40 0 76.5 37.5t61 93t39.5 101.5t21 79q-20 73 -32 189.5t-12 195.5q66 31 131 0q0 -86 -11.5 -199t-31.5 -186q7 -34 22 -79.5t39.5 -101
t61 -93t76.5 -37.5q83 0 145.5 118.5t62.5 308.5q0 163 -31 296t-126 276l8 10q295 -228 295 -589q0 -199 -89.5 -325t-246.5 -126q-48 0 -90.5 33t-71 85.5t-47 103t-29.5 100.5q-9 -39 -21.5 -78t-34 -85t-47 -79.5t-61.5 -56.5t-77 -23z" />
    <glyph glyph-name="iotadieresis" unicode="&#x3ca;" horiz-adv-x="446" 
d="M94 1159q-36 0 -61 25t-25 62t25 61t61 24q39 0 63 -24t24 -61t-24.5 -62t-62.5 -25zM339 1159q-37 0 -62 24.5t-25 62.5q0 37 24.5 61t62.5 24q37 0 61.5 -24t24.5 -61q0 -38 -24.5 -62.5t-61.5 -24.5zM239 -24q-68 0 -96 62.5t-28 180.5v678l-118 40v19l247 65l7 -11
v-808q0 -81 14 -117t47 -36q40 0 84 35l6 -16q-80 -92 -163 -92z" />
    <glyph glyph-name="upsilondieresis" unicode="&#x3cb;" horiz-adv-x="999" 
d="M354 1159q-36 0 -61 25t-25 62t25 61t61 24q39 0 63 -24t24 -61t-24.5 -62t-62.5 -25zM599 1159q-37 0 -62 24.5t-25 62.5q0 37 24.5 61t62.5 24q37 0 61.5 -24t24.5 -61q0 -38 -24.5 -62.5t-61.5 -24.5zM519 -24q-69 0 -127 18t-107.5 59t-84 104t-54 158t-19.5 216v366
l-120 40v19l245 65l9 -11v-479q0 -147 19 -251t54.5 -163t80.5 -85t104 -26q256 0 256 492q0 280 -34 440l-110 8l-4 19q30 18 88.5 37.5t86.5 19.5q27 0 50.5 -20t31.5 -54q41 -181 41 -450q0 -140 -31.5 -243t-88 -162.5t-128 -88t-158.5 -28.5z" />
    <glyph glyph-name="omicrontonos" unicode="&#x3cc;" horiz-adv-x="933" 
d="M491 1167l10 203h124l4 -11l-130 -192h-8zM467 -24q-179 0 -286 138.5t-107 383.5q0 246 107 384.5t286 138.5q178 0 285 -138.5t107 -384.5q0 -245 -107 -383.5t-285 -138.5zM467 6q117 0 180.5 125t63.5 367t-64 367.5t-180 125.5t-180 -126t-64 -367q0 -243 63 -367.5
t181 -124.5z" />
    <glyph glyph-name="upsilontonos" unicode="&#x3cd;" horiz-adv-x="999" 
d="M403 1167l10 203h124l4 -11l-130 -192h-8zM519 -24q-69 0 -127 18t-107.5 59t-84 104t-54 158t-19.5 216v366l-120 40v19l245 65l9 -11v-479q0 -147 19 -251t54.5 -163t80.5 -85t104 -26q256 0 256 492q0 280 -34 440l-110 8l-4 19q30 18 88.5 37.5t86.5 19.5
q27 0 50.5 -20t31.5 -54q41 -181 41 -450q0 -140 -31.5 -243t-88 -162.5t-128 -88t-158.5 -28.5z" />
    <glyph glyph-name="omegatonos" unicode="&#x3ce;" horiz-adv-x="1297" 
d="M576 1167l10 203h124l4 -11l-130 -192h-8zM408 -19q-154 0 -244 126.5t-90 324.5q0 359 292 589l11 -10q-95 -143 -126 -276t-31 -296q0 -190 62.5 -308.5t145.5 -118.5q40 0 76.5 37.5t61 93t39.5 101.5t21 79q-20 73 -32 189.5t-12 195.5q66 31 131 0q0 -86 -11.5 -199
t-31.5 -186q7 -34 22 -79.5t39.5 -101t61 -93t76.5 -37.5q83 0 145.5 118.5t62.5 308.5q0 163 -31 296t-126 276l8 10q295 -228 295 -589q0 -199 -89.5 -325t-246.5 -126q-48 0 -90.5 33t-71 85.5t-47 103t-29.5 100.5q-9 -39 -21.5 -78t-34 -85t-47 -79.5t-61.5 -56.5
t-77 -23z" />
    <glyph glyph-name="uni0401" unicode="&#x401;" horiz-adv-x="997" 
d="M442 1559q-36 0 -61 25t-25 62t25 61t61 24q39 0 63 -24t24 -61t-24.5 -62t-62.5 -25zM687 1559q-37 0 -62 24.5t-25 62.5q0 37 24.5 61t62.5 24q37 0 61.5 -24t24.5 -61q0 -38 -24.5 -62.5t-61.5 -24.5zM48 0v20l148 53v1292l-147 54v20h826v-351h-7l-123 313h-403v-644
h264l86 189h14v-414h-14l-86 187h-264v-681h460l168 315l8 -2l-45 -351h-885z" />
    <glyph glyph-name="uni0402" unicode="&#x402;" horiz-adv-x="1287" 
d="M885 970q60 0 118 -29t105 -82.5t76 -139t29 -188.5q0 -75 -19 -146t-47 -125.5t-73 -111t-84.5 -95.5t-93.5 -87l-25 55q72 77 130 214t58 268q0 197 -70 292t-182 95q-129 0 -221 -113v-703l157 -54v-20h-461v20l158 54v1327h-255l-107 -277h-9v315h887v-315h-8
l-109 277h-253v-584q128 153 299 153z" />
    <glyph glyph-name="uni0403" unicode="&#x403;" horiz-adv-x="920" 
d="M441 1593h-8l66 231h124l4 -11zM48 0v20l146 53v1292l-146 54v20h803v-351h-7l-123 314h-381v-1328l171 -54v-20h-463z" />
    <glyph glyph-name="uni0404" unicode="&#x404;" horiz-adv-x="1123" 
d="M651 -24q-171 0 -303 96t-203 264.5t-71 381.5q0 215 70 383.5t203.5 264.5t311.5 96q82 0 164.5 -24t196.5 -96l21 -352h-15q-28 115 -56 188t-71.5 132.5t-105.5 86.5t-150 27q-126 0 -218.5 -89t-139 -240.5t-49.5 -348.5h366l86 189h14v-414h-14l-86 188h-366
q1 -205 49 -360.5t144 -245.5t228 -90q82 0 143.5 31.5t104 94t70 135t51.5 174.5h15l-21 -352q-112 -71 -197 -95.5t-172 -24.5z" />
    <glyph glyph-name="uni0405" unicode="&#x405;" horiz-adv-x="891" 
d="M418 -24q-156 0 -333 117l-18 344h11q57 -225 140 -324t203 -99t186 78.5t66 221.5q0 41 -8 78t-18.5 65t-32.5 57t-39 47t-49.5 43t-52 38t-57.5 38l-49 32q-33 22 -48.5 32.5t-48 33.5t-49.5 40t-43 43.5t-40.5 52t-29.5 57t-21.5 67.5t-6.5 76q0 164 104 256t271 92
q75 0 159.5 -33.5t156.5 -86.5l22 -342h-11q-60 225 -136 324.5t-208 99.5q-93 0 -151 -74.5t-58 -199.5q0 -58 14 -102.5t45.5 -81.5t66 -64.5t92.5 -64.5l56 -36q55 -35 92 -61.5t84.5 -70.5t76 -86.5t48.5 -102t20 -125.5q0 -98 -33.5 -173t-91.5 -119t-128.5 -65.5
t-152.5 -21.5z" />
    <glyph glyph-name="uni0406" unicode="&#x406;" horiz-adv-x="536" 
d="M48 0v20l147 53v1292l-147 54v20h440v-20l-147 -54v-1291l147 -54v-20h-440z" />
    <glyph glyph-name="uni0407" unicode="&#x407;" horiz-adv-x="536" 
d="M143 1559q-36 0 -61 25t-25 62t25 61t61 24q39 0 63 -24t24 -61t-24.5 -62t-62.5 -25zM388 1559q-38 0 -62.5 24.5t-24.5 62.5q0 37 24.5 61t62.5 24q37 0 61.5 -24t24.5 -61q0 -38 -24.5 -62.5t-61.5 -24.5zM48 0v20l147 53v1292l-147 54v20h440v-20l-147 -54v-1291
l147 -54v-20h-440z" />
    <glyph glyph-name="uni0408" unicode="&#x408;" horiz-adv-x="754" 
d="M307 -24q-60 0 -124 28t-104 69l-21 375h15q11 -53 33.5 -123.5t53.5 -141.5t70 -120t75 -49q44 0 73 33.5t42.5 93.5t18 116.5t4.5 128.5v979l-167 54v20h458v-20l-145 -54v-1072q0 -141 -81.5 -229t-200.5 -88z" />
    <glyph glyph-name="uni0409" unicode="&#x409;" horiz-adv-x="1847" 
d="M169 -24q-96 0 -151 50l4 213h14q76 -226 138 -226q45 0 82 38t61.5 115.5t43.5 159.5t30 205.5t18 215.5t9.5 228t3 204t0.5 181v5l-175 54v20h1024v-20l-155 -54v-601h226q102 0 187 -21.5t152.5 -65t105.5 -118t38 -172.5q0 -195 -133 -291t-382 -96h-491v20l152 52
v1330h-509q-1 -482 -16 -704q-49 -722 -277 -722zM1116 37h217q162 0 245.5 93.5t83.5 256.5q0 161 -79 250t-238 89h-229v-689z" />
    <glyph glyph-name="uni040A" unicode="&#x40a;" horiz-adv-x="1897" 
d="M49 0v20l147 53v1292l-148 54v20h442v-20l-148 -54v-609h677v609l-147 54v20h442v-20l-149 -54v-601h225q102 0 187.5 -21.5t153.5 -65t106 -118t38 -172.5q0 -195 -133 -291t-382 -96h-487v20l146 53v645h-677v-644l148 -54v-20h-441zM1165 37h218q163 0 246 93.5
t83 256.5q0 161 -79 250t-239 89h-229v-689z" />
    <glyph glyph-name="uni040B" unicode="&#x40b;" horiz-adv-x="1335" 
d="M1176 61l138 -41v-20h-419v20l138 41v629q0 120 -49.5 185t-137.5 65q-60 0 -137.5 -28.5t-123.5 -80.5v-757l146 -54v-20h-439v19l148 55v1328h-254l-107 -257h-10v294h887v-294h-8l-110 257h-253v-532q168 151 320 151q118 0 194.5 -86t76.5 -222v-652z" />
    <glyph glyph-name="uni040C" unicode="&#x40c;" horiz-adv-x="1182" 
d="M778 1712l-177 -170h-8l37 181h144zM993 74l150 -44v-30h-276l-452 737h-64v-663l158 -54v-20h-461v20l157 53v1292l-157 54v20h461v-20l-158 -54v-588h98l374 488q32 42 49 63t43.5 46.5t48.5 37t53.5 19.5t69.5 8h19l-1 -155h-11l-207 -3l-351 -468z" />
    <glyph glyph-name="uni040E" unicode="&#x40e;" horiz-adv-x="1209" 
d="M651 1601q-82 0 -126.5 67.5t-46.5 175.5h11q10 -72 48 -101t114 -29q78 0 116 29t48 101h11q-2 -107 -46.5 -175t-128.5 -68zM207 -24l-21 255l16 9q138 -19 282 23l99 225l-427 877l-155 53v21h456v-21l-140 -53l343 -719l336 719l-161 53v21h368v-21l-161 -53
l-456 -973q-54 -129 -101.5 -211.5t-94 -125t-87 -58.5t-96.5 -21z" />
    <glyph glyph-name="uni040F" unicode="&#x40f;" horiz-adv-x="1330" 
d="M687 -313l-78 313h-561v20l147 53v1292l-147 54v20h442v-20l-149 -54v-1328h646v1328l-147 54v20h442v-20l-151 -54v-1291l149 -54v-20h-508l-77 -313h-8z" />
    <glyph glyph-name="uni0410" unicode="&#x410;" horiz-adv-x="1233" 
d="M1071 74l149 -54v-20h-444v20l140 54l-121 409h-478l-120 -409l185 -54v-20h-377v20l156 54l368 1245l-79 100v20h203zM328 521h456l-229 771z" />
    <glyph glyph-name="uni0411" unicode="&#x411;" horiz-adv-x="1063" 
d="M51 0v20l145 52v1293l-148 54v20h823v-351h-6l-124 314h-399v-638h201q96 0 175 -21.5t142 -65t98 -117.5t35 -173q0 -195 -124 -291t-354 -96h-464zM342 37h192q147 0 222 93.5t75 256.5q0 161 -71.5 250t-216.5 89h-201v-689z" />
    <glyph glyph-name="uni0412" unicode="&#x412;" horiz-adv-x="1063" 
d="M48 0v20l148 54v1291l-148 54v20h506q100 0 177 -27.5t123 -75t69 -107t23 -128.5q0 -128 -66 -221t-185 -126v-4q143 -20 220.5 -120t77.5 -243q0 -195 -124 -291t-354 -96h-467zM342 764h194q124 0 186.5 91t62.5 233q0 150 -68 231.5t-201 81.5h-174v-637zM342 38h192
q147 0 221.5 93t74.5 256q0 161 -71 250t-216 89h-201v-688z" />
    <glyph glyph-name="uni0413" unicode="&#x413;" horiz-adv-x="920" 
d="M48 0v20l146 53v1292l-146 54v20h803v-351h-7l-123 314h-381v-1328l171 -54v-20h-463z" />
    <glyph glyph-name="uni0414" unicode="&#x414;" horiz-adv-x="1284" 
d="M18 -313v350h88q45 32 82.5 83.5t64.5 107.5t48 137t34.5 149t23 168.5t14 169.5t7 178t2.5 169.5v165.5l-168 54v20h1013v-20l-147 -54v-1328h165v-350h-7l-126 313h-960l-126 -313h-8zM169 37h766v1365h-513q-2 -408 -11 -561q-31 -550 -195 -754q-22 -28 -47 -50z" />
    <glyph glyph-name="uni0415" unicode="&#x415;" horiz-adv-x="997" 
d="M48 0v20l148 53v1292l-147 54v20h826v-351h-7l-123 313h-403v-644h264l86 189h14v-414h-14l-86 187h-264v-681h460l168 315l8 -2l-45 -351h-885z" />
    <glyph glyph-name="uni0416" unicode="&#x416;" horiz-adv-x="1706" 
d="M1517 74l150 -44v-30h-276l-452 737h-14v-663l158 -54v-20h-461v20l157 53v664h-12l-452 -737h-276v30l150 44l457 739l-351 468l-207 3h-11l-1 155h19q38 0 69.5 -8t53.5 -19.5t48.5 -37t43.5 -46.5t49 -63l374 -488h46v588l-157 54v20h461v-20l-158 -54v-588h48
l374 488q32 42 49 63t43.5 46.5t48.5 37t53.5 19.5t69.5 8h19l-1 -155h-11l-207 -3l-351 -468z" />
    <glyph glyph-name="uni0417" unicode="&#x417;" horiz-adv-x="888" 
d="M407 -24q-84 0 -171 28.5t-129 65.5l-19 360h15q18 -67 35.5 -119t46 -110.5t59.5 -97.5t75 -64.5t95 -25.5q120 0 188.5 93.5t68.5 240.5q0 93 -25 161.5t-74 112.5t-109.5 69.5t-142.5 39.5v29q158 50 234.5 132t76.5 231q0 132 -50.5 217.5t-139.5 85.5
q-45 0 -84.5 -18t-70 -53.5t-53.5 -72.5t-43 -90.5t-32 -91t-26 -89.5h-13l19 362q151 90 307 90q157 0 248 -96t91 -244q0 -123 -73 -214t-205 -132q142 -34 227 -139.5t85 -263.5q0 -177 -114.5 -287t-296.5 -110z" />
    <glyph glyph-name="uni0418" unicode="&#x418;" horiz-adv-x="1330" 
d="M1131 74l151 -54v-20h-442v20l147 53v1131l-646 -979v-151l149 -54v-20h-442v20l147 53v1292l-147 54v20h442v-20l-149 -54v-1077l646 979v98l-149 54v20h442v-20l-149 -54v-1291z" />
    <glyph glyph-name="uni0419" unicode="&#x419;" horiz-adv-x="1330" 
d="M663 1541q-80 0 -125.5 73t-47.5 170l11 5q21 -135 162 -135q143 0 164 135l11 -5q-2 -96 -47.5 -169.5t-127.5 -73.5zM1131 74l151 -54v-20h-442v20l147 53v1131l-646 -979v-151l149 -54v-20h-442v20l147 53v1292l-147 54v20h442v-20l-149 -54v-1077l646 979v98l-149 54
v20h442v-20l-149 -54v-1291z" />
    <glyph glyph-name="uni041A" unicode="&#x41a;" horiz-adv-x="1182" 
d="M993 74l150 -44v-30h-276l-452 737h-64v-663l158 -54v-20h-461v20l157 53v1292l-157 54v20h461v-20l-158 -54v-588h98l374 488q32 42 49 63t43.5 46.5t48.5 37t53.5 19.5t69.5 8h19l-1 -155h-11l-207 -3l-351 -468z" />
    <glyph glyph-name="uni041B" unicode="&#x41b;" horiz-adv-x="1327" 
d="M164 -24q-93 0 -146 50l3 213h14q73 -226 134 -226q227 0 238 1126q1 82 1 221v5l-168 54v20h1037v-20l-149 -54v-1291l151 -54v-20h-442v20l147 53v1329h-537q0 -501 -18 -739q-50 -687 -265 -687z" />
    <glyph glyph-name="uni041C" unicode="&#x41c;" horiz-adv-x="1611" 
d="M48 0v20l173 65v1280l-172 54v20h293l471 -1131l484 1131h266v-20l-152 -54v-1291l152 -54v-20h-450v20l152 54v1196l-482 -1125h-46l-480 1136v-1196l174 -65v-20h-383z" />
    <glyph glyph-name="uni041D" unicode="&#x41d;" horiz-adv-x="1328" 
d="M48 0v20l147 53v1292l-147 54v20h442v-20l-149 -54v-609h644v609l-147 54v20h442v-20l-149 -54v-1291l149 -54v-20h-442v20l147 53v645h-644v-644l149 -54v-20h-442z" />
    <glyph glyph-name="uni041E" unicode="&#x41e;" horiz-adv-x="1257" 
d="M628 -24q-249 0 -401.5 203.5t-152.5 537.5q0 335 152.5 540t401.5 205q165 0 291 -93t195 -262t69 -390q0 -220 -69 -388.5t-195 -260.5t-291 -92zM628 13q177 0 285 194t108 510q0 318 -108 512.5t-285 194.5q-176 0 -283.5 -194.5t-107.5 -512.5q0 -317 107.5 -510.5
t283.5 -193.5z" />
    <glyph glyph-name="uni041F" unicode="&#x41f;" horiz-adv-x="1330" 
d="M48 0v20l147 53v1292l-147 54v20h1232v-20l-149 -54v-1291l151 -54v-20h-442v20l147 53v1329h-646v-1328l149 -54v-20h-442z" />
    <glyph glyph-name="uni0420" unicode="&#x420;" horiz-adv-x="974" 
d="M48 0v20l146 53v1292l-146 54v20h499q195 0 297.5 -114t102.5 -297q0 -210 -117 -321.5t-324 -111.5h-89v38h87q134 0 207.5 105.5t73.5 289.5q0 191 -76 282t-213 91h-156v-1327l164 -54v-20h-456z" />
    <glyph glyph-name="uni0421" unicode="&#x421;" horiz-adv-x="1124" 
d="M651 -24q-171 0 -303 96t-203 264.5t-71 381.5q0 215 70 383.5t203.5 264.5t311.5 96q83 0 166 -24t195 -96l22 -352h-15q-22 87 -41 144.5t-50 117.5t-68.5 94t-94 56t-129.5 22q-129 0 -222.5 -93.5t-138.5 -251t-45 -361.5q0 -318 111 -511.5t309 -193.5
q79 0 138 28.5t101.5 88t72 134.5t57.5 184h15l-22 -352q-112 -72 -196.5 -96t-172.5 -24z" />
    <glyph glyph-name="uni0422" unicode="&#x422;" horiz-adv-x="1025" 
d="M282 0v20l158 54v1327h-255l-107 -277h-9v315h887v-315h-8l-109 277h-253v-1327l157 -54v-20h-461z" />
    <glyph glyph-name="uni0423" unicode="&#x423;" horiz-adv-x="1209" 
d="M207 -24l-21 255l16 9q138 -19 282 23l99 225l-427 877l-155 53v21h456v-21l-140 -53l343 -719l336 719l-161 53v21h368v-21l-161 -53l-456 -973q-54 -129 -101.5 -211.5t-94 -125t-87 -58.5t-96.5 -21z" />
    <glyph glyph-name="uni0424" unicode="&#x424;" horiz-adv-x="1516" 
d="M1442 718q0 -116 -39 -214t-113.5 -173t-192 -121t-266.5 -54v-82l147 -54v-20h-440v20l147 53v84q-149 8 -266.5 53.5t-192 120.5t-113.5 173t-39 214q0 117 39 215.5t113.5 173.5t192 120.5t266.5 53.5v84l-147 54v20h440v-20l-147 -54v-84q149 -8 266.5 -53.5
t192 -120.5t113.5 -173.5t39 -215.5zM1278 718q0 232 -108 370t-339 156v-1050q229 16 338 153.5t109 370.5zM238 718q0 -113 25.5 -203.5t78 -160.5t139 -111t204.5 -49v1050q-231 -17 -339 -155t-108 -371z" />
    <glyph glyph-name="uni0425" unicode="&#x425;" horiz-adv-x="1171" 
d="M1030 74l131 -53v-21h-449v21l147 53l-313 599l-340 -599l155 -53v-21h-351v21l155 53l361 634l-352 657l-130 53v21h451v-21l-148 -53l280 -537l317 537l-156 53v21h354v-21l-156 -53l-341 -571z" />
    <glyph glyph-name="uni0426" unicode="&#x426;" horiz-adv-x="1338" 
d="M1292 -313l-127 313h-1117v20l147 53v1292l-147 54v20h443v-20l-150 -54v-1328h647v1328l-148 54v20h443v-20l-151 -54v-1328h167v-350h-7z" />
    <glyph glyph-name="uni0427" unicode="&#x427;" horiz-adv-x="1134" 
d="M651 0v20l144 53v601q-111 -137 -317 -137q-62 0 -118.5 21t-104 63.5t-76 116t-28.5 168.5v459l-145 54v20h434v-20l-144 -54v-442q0 -82 20.5 -143t57 -95.5t81.5 -51t99 -16.5q165 0 241 99v649l-144 54v20h435v-20l-145 -54v-1291l145 -54v-20h-435z" />
    <glyph glyph-name="uni0428" unicode="&#x428;" horiz-adv-x="1720" 
d="M48 0v20l146 53v1292l-145 54v20h437v-20l-146 -54v-1328h442v1328l-147 54v20h437v-20l-145 -54v-1328h452v1328l-146 54v20h439v-20l-147 -54v-1291l147 -54v-20h-1624z" />
    <glyph glyph-name="uni0429" unicode="&#x429;" horiz-adv-x="1729" 
d="M1684 -313l-128 313h-1508v20l152 53v1292l-152 54v20h450v-20l-152 -54v-1328h442v1328l-153 54v20h451v-20l-152 -54v-1328h452v1328l-152 54v20h451v-20l-155 -54v-1328h160v-350h-6z" />
    <glyph glyph-name="uni042A" unicode="&#x42a;" horiz-adv-x="1194" 
d="M221 0v20l140 52v1330h-160l-124 -314h-8v351h581v-20l-143 -54v-601h207q97 0 177.5 -21.5t144.5 -65t100 -117.5t36 -173q0 -195 -126 -291t-361 -96h-464zM507 37h198q151 0 228.5 93.5t77.5 256.5q0 161 -73.5 250t-221.5 89h-209v-689z" />
    <glyph glyph-name="uni042B" unicode="&#x42b;" horiz-adv-x="1549" 
d="M48 0v20l146 52v1293l-146 54v20h439v-20l-147 -54v-601h201q95 0 174.5 -21.5t142.5 -65t98 -117.5t35 -173q0 -195 -124 -291t-354 -96h-465zM1061 0v20l147 53v1292l-147 54v20h440v-20l-147 -54v-1291l147 -54v-20h-440zM340 37h192q147 0 222 93.5t75 256.5
q0 161 -71.5 250t-216.5 89h-201v-689z" />
    <glyph glyph-name="uni042C" unicode="&#x42c;" horiz-adv-x="1013" 
d="M48 0v20l146 52v1293l-146 54v20h439v-20l-147 -54v-601h201q95 0 174.5 -21.5t142.5 -65t98 -117.5t35 -173q0 -195 -124 -291t-354 -96h-465zM340 37h192q147 0 222 93.5t75 256.5q0 161 -71.5 250t-216.5 89h-201v-689z" />
    <glyph glyph-name="uni042D" unicode="&#x42d;" horiz-adv-x="1123" 
d="M472 -24q-87 0 -172 24.5t-197 95.5l-21 352h15q24 -102 51.5 -174.5t70 -135t104 -94t143.5 -31.5q132 0 228 90t144 245.5t49 360.5h-366l-86 -188h-14v414h14l86 -189h366q-3 197 -49.5 348.5t-139 240.5t-218.5 89q-88 0 -150 -27t-105.5 -86.5t-71.5 -132.5
t-56 -188h-15l21 352q114 72 196.5 96t164.5 24q178 0 311.5 -96t203.5 -264.5t70 -383.5q0 -213 -71 -381.5t-203 -264.5t-303 -96z" />
    </font>
</defs>
</svg>
