<?xml version="1.0" encoding="utf-8"?>
<!-- Generator: Adobe Illustrator 24.0.3, SVG Export Plug-In . SVG Version: 6.00 Build 0)  -->
<svg version="1.1" xmlns="http://www.w3.org/2000/svg" xmlns:xlink="http://www.w3.org/1999/xlink" x="0px" y="0px"
	 viewBox="0 0 396 144" style="enable-background:new 0 0 396 144;" xml:space="preserve">
<style type="text/css">
	.st0{fill:#010101;}
</style>
<g id="Layer_2">
	<g>
		<rect x="0" y="0" class="st0" width="36" height="144"/>
	</g>
	<g>
		<path class="st0" d="M117,144c-39.7,0-72-32.3-72-72S77.3,0,117,0v36c-19.85,0-36,16.15-36,36s16.15,36,36,36V144z"/>
	</g>
	<g>
		<path class="st0" d="M159.34,26.98v14.7h3.14l8.62-14.7h7.01l-10.24,17.1L179.72,63h-7.4l-9.55-15.48h-3.43V63h-6.27V26.98H159.34
			z"/>
		<path class="st0" d="M181.98,63l10-36.02h8.33L210.15,63h-6.71l-2.11-8.77h-10.49L188.59,63H181.98z M199.81,48.69l-3.77-15.14
			l-3.72,15.14H199.81z"/>
		<path class="st0" d="M216.18,63V26.98h11.76c1.83,0,3.48,0.25,4.95,0.76c1.47,0.51,2.74,1.23,3.8,2.18
			c1.06,0.95,1.88,2.09,2.45,3.43c0.57,1.34,0.86,2.86,0.86,4.56c0,2.65-0.69,4.86-2.06,6.64c-1.37,1.78-3.19,3-5.44,3.65l7.94,14.8
			h-7.11l-7.2-13.96h-3.67V63H216.18z M222.45,32.72v10.54h5.63c1.8,0,3.16-0.48,4.09-1.45c0.93-0.96,1.4-2.23,1.4-3.8
			c0-1.6-0.49-2.88-1.47-3.85c-0.98-0.96-2.38-1.45-4.21-1.45H222.45z"/>
		<path class="st0" d="M244.4,63l10-36.02h8.33L272.58,63h-6.71l-2.11-8.77h-10.49L251.02,63H244.4z M262.24,48.69l-3.77-15.14
			l-3.72,15.14H262.24z"/>
		<path class="st0" d="M278.26,63V26.98h12.45c1.7,0,3.23,0.23,4.61,0.69c1.37,0.46,2.53,1.1,3.48,1.94s1.68,1.83,2.21,2.99
			c0.52,1.16,0.78,2.43,0.78,3.8c0,1.6-0.34,3.03-1.03,4.29c-0.69,1.26-1.58,2.28-2.7,3.06c0.69,0.33,1.33,0.78,1.94,1.37
			c0.6,0.59,1.14,1.26,1.62,2.01c0.47,0.75,0.85,1.58,1.13,2.47c0.28,0.9,0.42,1.82,0.42,2.77c0,1.8-0.32,3.36-0.96,4.68
			c-0.64,1.32-1.48,2.43-2.52,3.31c-1.05,0.88-2.25,1.54-3.6,1.98S293.32,63,291.88,63H278.26z M290.41,41.69
			c1.76,0,3.05-0.44,3.85-1.32c0.8-0.88,1.2-1.98,1.2-3.28c0-1.44-0.48-2.54-1.45-3.31c-0.96-0.77-2.25-1.15-3.85-1.15h-5.59v9.06
			H290.41z M291.2,57.37c1.6,0,2.92-0.44,3.97-1.32c1.04-0.88,1.57-2.14,1.57-3.77c0-1.57-0.5-2.83-1.5-3.77
			c-1-0.95-2.49-1.42-4.48-1.42h-6.17v10.29H291.2z"/>
		<path class="st0" d="M306.83,63l10-36.02h8.33L335,63h-6.71l-2.11-8.77H315.7L313.44,63H306.83z M324.67,48.69l-3.77-15.14
			l-3.72,15.14H324.67z"/>
		<path class="st0" d="M346.62,26.98v14.7h3.14l8.62-14.7h7.01l-10.24,17.1L367,63h-7.4l-9.55-15.48h-3.43V63h-6.27V26.98H346.62z"
			/>
		<path class="st0" d="M377.19,26.98v14.5h12.35v-14.5h6.27V63h-6.27V47.37h-12.35V63h-6.27V26.98H377.19z"/>
		<path class="st0" d="M171.74,93.19c-0.2-0.91-0.46-1.78-0.81-2.6c-0.34-0.82-0.76-1.53-1.25-2.13c-0.49-0.6-1.09-1.08-1.79-1.45
			c-0.7-0.36-1.53-0.54-2.47-0.54c-2.25,0-4,1.05-5.24,3.14c-1.24,2.09-1.86,5.24-1.86,9.46c0,4.18,0.65,7.29,1.96,9.33
			c1.31,2.04,3.04,3.06,5.19,3.06c1.8,0,3.23-0.55,4.31-1.64c1.08-1.09,1.86-2.51,2.35-4.24l5.98,1.86
			c-0.42,1.21-0.99,2.41-1.69,3.6c-0.7,1.19-1.56,2.27-2.57,3.23c-1.01,0.96-2.21,1.74-3.6,2.33c-1.39,0.59-3,0.88-4.83,0.88
			c-2.16,0-4.08-0.44-5.76-1.32c-1.68-0.88-3.1-2.13-4.26-3.75c-1.16-1.62-2.04-3.56-2.65-5.83s-0.91-4.78-0.91-7.52
			c0-2.88,0.31-5.46,0.93-7.77c0.62-2.3,1.51-4.25,2.67-5.86c1.16-1.6,2.58-2.82,4.26-3.67c1.68-0.85,3.58-1.27,5.71-1.27
			c3.27,0,5.96,1.01,8.09,3.04c2.12,2.03,3.56,4.82,4.31,8.38L171.74,93.19z"/>
		<path class="st0" d="M207.56,80.98v5.73h-16.22v8.87h13.87v5.59h-13.87v10.09h16.76V117h-23.08V80.98H207.56z"/>
		<path class="st0" d="M215.45,117V80.98h6.08l11.37,23.52V80.98h6.32V117h-6.08l-11.42-23.47V117H215.45z"/>
		<path class="st0" d="M271.75,80.98v5.83h-10V117h-6.42V86.82h-10v-5.83H271.75z"/>
		<path class="st0" d="M301.19,80.98v5.73h-16.22v8.87h13.87v5.59h-13.87v10.09h16.76V117h-23.08V80.98H301.19z"/>
		<path class="st0" d="M309.82,117V80.98h11.76c1.83,0,3.48,0.25,4.95,0.76c1.47,0.51,2.74,1.23,3.8,2.18
			c1.06,0.95,1.88,2.09,2.45,3.43c0.57,1.34,0.86,2.86,0.86,4.56c0,2.65-0.69,4.86-2.06,6.64c-1.37,1.78-3.19,3-5.44,3.65l7.94,14.8
			h-7.11l-7.2-13.96h-3.67V117H309.82z M316.09,86.72v10.54h5.63c1.8,0,3.16-0.48,4.09-1.45s1.4-2.23,1.4-3.8
			c0-1.6-0.49-2.88-1.47-3.85c-0.98-0.96-2.38-1.45-4.21-1.45H316.09z"/>
	</g>
</g>
<g id="Layer_1">
</g>
</svg>
