<svg width="20" height="14" viewBox="0 0 20 14" fill="none" xmlns="http://www.w3.org/2000/svg">
<path d="M16.9587 3.19117L12.6509 6.92999L16.9587 10.6688C17.2179 10.8938 17.2457 11.2862 17.0207 11.5454C16.7958 11.8046 16.4033 11.8323 16.1442 11.6074L11.7029 7.7528L9.99274 9.23709C9.8759 9.33849 9.73068 9.38917 9.58545 9.38917C9.44023 9.38917 9.295 9.33849 9.17817 9.23709L7.46799 7.7528L3.02672 11.6074C2.76757 11.8323 2.37513 11.8046 2.15016 11.5454C1.9252 11.2862 1.953 10.8938 2.21216 10.6688L6.51997 6.92999L2.21216 3.19117C1.95296 2.9662 1.9252 2.57376 2.15016 2.31456C2.37513 2.05536 2.76765 2.02765 3.02672 2.25257C3.38808 2.56619 9.20071 7.61102 9.58545 7.94496C9.97032 7.61094 15.783 2.56611 16.1442 2.25257C16.4033 2.02765 16.7958 2.05545 17.0207 2.31456C17.2457 2.57376 17.2179 2.9662 16.9587 3.19117Z" fill="black"/>
<path d="M0.620852 0H18.5505C18.8937 0 19.1719 0.278252 19.1719 0.621398V13.2388C19.1719 13.5819 18.8937 13.8601 18.5505 13.8601H0.620893C0.277704 13.8601 -0.000463486 13.5819 -0.000463486 13.2388V0.621398C-0.000505447 0.278252 0.277662 0 0.620852 0ZM1.24221 12.6174H1.24225H17.9291V1.24275H1.24221V12.6174Z" fill="black"/>
</svg>
