<svg width="17" height="19" viewBox="0 0 17 19" fill="none" xmlns="http://www.w3.org/2000/svg">
<path d="M7.52282 13.8947C6.23145 13.8931 4.96954 13.5136 3.8966 12.8042C2.82366 12.0947 1.98784 11.0872 1.49479 9.90901C1.00173 8.73077 0.87357 7.43468 1.1265 6.18455C1.37944 4.93442 2.00211 3.78638 2.91582 2.88551C3.82953 1.98465 4.99327 1.37141 6.25995 1.12329C7.52662 0.875179 8.83938 1.00333 10.0323 1.49156C11.2252 1.97978 12.2447 2.80616 12.962 3.86624C13.6793 4.92632 14.0621 6.17253 14.0621 7.44735C14.0599 9.15804 13.37 10.7979 12.1439 12.0068C10.9178 13.2157 9.25572 13.8947 7.52282 13.8947ZM7.52282 1.46401C6.32208 1.46401 5.14832 1.81561 4.15006 2.47433C3.15179 3.13304 2.37388 4.06926 1.91476 5.16453C1.45563 6.25981 1.33593 7.46491 1.57078 8.62737C1.80563 9.78982 2.38449 10.8574 3.23412 11.695C4.08375 12.5326 5.16596 13.1026 6.34382 13.3328C7.52169 13.5631 8.74227 13.4433 9.85114 12.9886C10.96 12.5338 11.9073 11.7646 12.5732 10.7783C13.2391 9.79189 13.5937 8.6327 13.5921 7.44735C13.5899 5.85972 12.9495 4.33786 11.8115 3.216C10.6736 2.09414 9.13106 1.46401 7.52282 1.46401Z" fill="#333333"/>
<path d="M7.52282 13.8947C6.23145 13.8931 4.96954 13.5136 3.8966 12.8042C2.82366 12.0947 1.98784 11.0872 1.49479 9.90901C1.00173 8.73077 0.87357 7.43468 1.1265 6.18455C1.37944 4.93442 2.00211 3.78638 2.91582 2.88551C3.82953 1.98465 4.99327 1.37141 6.25995 1.12329C7.52662 0.875179 8.83938 1.00333 10.0323 1.49156C11.2252 1.97978 12.2447 2.80616 12.962 3.86624C13.6793 4.92632 14.0621 6.17253 14.0621 7.44735C14.0599 9.15804 13.37 10.7979 12.1439 12.0068C10.9178 13.2157 9.25572 13.8947 7.52282 13.8947V13.8947ZM7.52282 1.46401C6.32208 1.46401 5.14832 1.81561 4.15006 2.47433C3.15179 3.13304 2.37388 4.06926 1.91476 5.16453C1.45563 6.25981 1.33593 7.46491 1.57078 8.62737C1.80563 9.78982 2.38449 10.8574 3.23412 11.695C4.08375 12.5326 5.16596 13.1026 6.34382 13.3328C7.52169 13.5631 8.74227 13.4433 9.85114 12.9886C10.96 12.5338 11.9073 11.7646 12.5732 10.7783C13.2391 9.79189 13.5937 8.6327 13.5921 7.44735C13.5899 5.85972 12.9495 4.33786 11.8115 3.216C10.6736 2.09414 9.13106 1.46401 7.52282 1.46401V1.46401Z" stroke="#333333" stroke-miterlimit="10"/>
<path d="M15.7527 17.9976C15.6838 17.9949 15.6187 17.9657 15.5713 17.9162L11.0276 12.6411C10.9965 12.5928 10.9842 12.535 10.993 12.4785C11.0018 12.422 11.0311 12.3705 11.0755 12.3337C11.1198 12.2969 11.1762 12.2772 11.2341 12.2784C11.292 12.2795 11.3476 12.3014 11.3904 12.3399L15.9341 17.615C15.9765 17.6589 16.0001 17.7172 16.0001 17.7778C16.0001 17.8384 15.9765 17.8967 15.9341 17.9406C15.8939 17.9777 15.8407 17.9981 15.7857 17.9976" fill="#333333"/>
<path d="M15.7527 17.9976C15.6838 17.9949 15.6187 17.9657 15.5713 17.9162L11.0276 12.6411C10.9965 12.5928 10.9842 12.535 10.993 12.4785C11.0018 12.422 11.0311 12.3705 11.0755 12.3337C11.1198 12.2969 11.1762 12.2772 11.2341 12.2784C11.292 12.2795 11.3476 12.3014 11.3904 12.3399L15.9341 17.615C15.9765 17.6589 16.0001 17.7172 16.0001 17.7778C16.0001 17.8384 15.9765 17.8967 15.9341 17.9406C15.9104 17.9632 15.8816 17.9802 15.8502 17.9901C15.8187 17.9999 15.7853 18.0025 15.7527 17.9976V17.9976Z" stroke="#333333" stroke-miterlimit="10"/>
</svg>
