<svg width="18" height="18" viewBox="0 0 18 18" fill="none" xmlns="http://www.w3.org/2000/svg">
<g clip-path="url(#clip0)">
<path d="M13.5 6.29999H10.8V0.899994H7.20001V6.29999H4.50001L9.00001 10.8L13.5 6.29999ZM17.4042 12.1788C17.2152 11.9772 15.9543 10.6281 15.5943 10.2762C15.342 10.0344 15.006 9.89955 14.6565 9.89999H13.0752L15.8328 12.5946H12.6432C12.5999 12.5938 12.5571 12.6044 12.5191 12.6255C12.4812 12.6465 12.4495 12.6771 12.4272 12.7143L11.6928 14.4H6.30721L5.57281 12.7143C5.55037 12.6772 5.51863 12.6467 5.48074 12.6257C5.44285 12.6047 5.40012 12.594 5.35681 12.5946H2.16721L4.92391 9.89999H3.34351C2.98621 9.89999 2.64511 10.0431 2.40571 10.2762C2.04571 10.629 0.784807 11.9781 0.595807 12.1788C0.155707 12.6477 -0.0863927 13.0212 0.0288073 13.4829L0.533707 16.2495C0.648907 16.7121 1.15561 17.0919 1.66051 17.0919H16.3413C16.8462 17.0919 17.3529 16.7121 17.4681 16.2495L17.973 13.4829C18.0864 13.0212 17.8452 12.6477 17.4042 12.1788Z" fill="black"/>
</g>
<defs>
<clipPath id="clip0">
<rect width="18" height="18" fill="white"/>
</clipPath>
</defs>
</svg>
