<svg width="20" height="16" viewBox="0 0 20 16" fill="none" xmlns="http://www.w3.org/2000/svg">
<path d="M7.508 8C7.508 8.63818 7.76151 9.25022 8.21277 9.70148C8.66403 10.1527 9.27607 10.4062 9.91425 10.4062C10.5524 10.4062 11.1645 10.1527 11.6157 9.70148C12.067 9.25022 12.3205 8.63818 12.3205 8C12.3205 7.36182 12.067 6.74978 11.6157 6.29852C11.1645 5.84727 10.5524 5.59375 9.91425 5.59375C9.27607 5.59375 8.66403 5.84727 8.21277 6.29852C7.76151 6.74978 7.508 7.36182 7.508 8ZM19.2428 7.4457C17.206 3.15527 14.1273 0.996094 10.0002 0.996094C5.87089 0.996094 2.79433 3.15527 0.757607 7.44785C0.675914 7.62084 0.633545 7.80977 0.633545 8.00107C0.633545 8.19238 0.675914 8.38131 0.757607 8.5543C2.79433 12.8447 5.87304 15.0039 10.0002 15.0039C14.1295 15.0039 17.206 12.8447 19.2428 8.55215C19.4082 8.2041 19.4082 7.8002 19.2428 7.4457ZM9.91425 11.7812C7.82597 11.7812 6.133 10.0883 6.133 8C6.133 5.91172 7.82597 4.21875 9.91425 4.21875C12.0025 4.21875 13.6955 5.91172 13.6955 8C13.6955 10.0883 12.0025 11.7812 9.91425 11.7812Z" fill="black"/>
</svg>
