<?xml version="1.0" encoding="UTF-8"?> <svg xmlns="http://www.w3.org/2000/svg" width="250" height="73" viewBox="0 0 250 73" fill="none"> <path d="M43.9277 56.9648L26.7832 0.978516H18.457V1.79883L21.6973 5.90039L6.60352 56.9648L0.205078 59.1797V60H15.668V59.1797L8.08008 56.9648L13.002 40.1895H32.6074L37.5703 56.9648L31.8281 59.1797V60H50.0391V59.1797L43.9277 56.9648ZM13.4531 38.6309L22.7637 7.00781L32.1562 38.6309H13.4531ZM52.582 60H71.5723V59.1797L64.5586 56.9648V2.49609H80.1855L85.2305 15.375H85.5176V0.978516H52.582V1.79883L58.5703 4.01367V57.0059L52.582 59.1797V60ZM82.6875 72.8379H83.0156L88.1836 60H127.559L132.727 72.8379H133.014V58.4824H126.246V4.01367L132.275 1.79883V0.978516H90.7266V1.79883L97.6172 4.01367C97.6582 23.4961 97.6582 50.3613 86.2969 58.4824H82.6875V72.8379ZM88.8809 58.4824C99.709 48.8027 99.1758 21.4453 99.2578 2.49609H120.299V58.4824H88.8809ZM178.541 56.9648L161.396 0.978516H153.07V1.79883L156.311 5.90039L141.217 56.9648L134.818 59.1797V60H150.281V59.1797L142.693 56.9648L147.615 40.1895H167.221L172.184 56.9648L166.441 59.1797V60H184.652V59.1797L178.541 56.9648ZM148.066 38.6309L157.377 7.00781L166.77 38.6309H148.066ZM187.195 60H202.904V59.1797L195.768 56.5137V7.45898L215.455 54.0527H217.342L237.111 7.91016V56.9648L230.877 59.1797V60H249.334V59.1797L243.1 56.9648V4.01367L249.334 1.79883V0.978516H238.424L218.572 47.3672L199.254 0.978516H187.236V1.79883L194.291 4.01367V56.5137L187.195 59.1797V60Z" fill="black"></path> </svg> 