<?xml version="1.0" encoding="UTF-8"?> <svg xmlns="http://www.w3.org/2000/svg" width="1311" height="363" viewBox="0 0 1311 363" fill="none"> <path d="M1.96875 74H21.123C33.4277 74 40.7285 69.0371 40.7285 58.127C40.7285 50.5801 36.5449 44.3867 28.5059 43.2383V43.0742C35.0684 41.2285 38.8008 35.7324 38.8008 28.8418C38.8008 21.5 34.043 14.9785 22.7227 14.9785H1.96875V15.7988L8.03906 18.0137V70.9648L1.96875 73.1797V74ZM14.0273 42.6641V16.5371H21.1641C28.5469 16.5371 32.1973 21.2949 32.1973 29.375C32.1973 36.6348 29.1211 42.6641 21.9844 42.6641H14.0273ZM14.0273 72.4414V44.2227H22.2715C30.3926 44.2227 34.043 49.5957 34.043 58.127C34.043 66.7402 30.1875 72.4414 21.9023 72.4414H14.0273ZM45.6094 74H63.7383V73.1797L57.627 70.9648V44.5508H84.041V71.0059L78.0117 73.1797V74H96.1406V73.1797L90.0293 70.9648V18.0137L96.1406 15.7988V14.9785H78.0117V15.7988L84.041 18.0137V42.9922H57.627V18.0137L63.7383 15.7988V14.9785H45.6094V15.7988L51.6387 18.0137V71.0059L45.6094 73.1797V74ZM106.6 74.9844C112.096 74.5332 116.115 72.3594 122.145 57.9219L140.848 18.0137L147.451 15.8398V14.9785H132.357V15.8398L138.961 18.0137L125.18 47.5039L111.111 18.0137L116.854 15.8398V14.9785H98.1504V15.8398L104.508 18.0137L122.021 53.9844L117.961 63.2129C114.188 64.3203 110.209 64.6895 106.395 64.1562L105.738 64.5254L106.6 74.9844ZM159.305 74H178.213V73.1797L171.773 70.9648V16.5371H182.15L186.621 27.8984H186.949V14.9785H150.568V27.8984H150.938L155.326 16.5371H165.785V70.9648L159.305 73.1797V74ZM191.789 74H210.492V73.1797L203.766 70.9648V16.5371H210.164C217.342 16.5371 222.018 21.0488 222.018 31.8359C222.018 41.8027 217.875 48.0371 210.492 48.0371H206.924V49.5957H210.574C221.73 49.5957 228.662 43.4844 228.662 31.8359C228.662 22.2793 223.33 14.9785 212.256 14.9785H191.789V15.7988L197.777 18.0137V71.0059L191.789 73.1797V74ZM276.158 70.9648V18.0137L282.27 15.7988V14.9785H264.141V15.7988L270.252 18.0137V22.0332L243.756 62.1875V18.0137L249.867 15.7988V14.9785H231.738V15.7988L237.768 18.0137V71.0059L231.738 73.1797V74H249.867V73.1797L243.756 70.9648V64.7715L270.252 24.6172V71.0059L264.223 73.1797V74H282.352V73.1797L276.158 70.9648ZM286.289 74H304.418V73.1797L298.307 70.9648V16.4961H324.803V71.0059L318.773 73.1797V74H336.902V73.1797L330.709 70.9648V18.0137L336.82 15.7988V14.9785H286.289V15.7988L292.318 18.0137V71.0059L286.289 73.1797V74ZM363.398 74.9844C377.057 74.9844 386.162 62.8027 386.162 44.5918C386.162 26.2988 377.057 14.0352 363.398 14.0352C349.781 14.0352 340.676 26.2578 340.676 44.5918C340.676 62.8438 349.781 74.9844 363.398 74.9844ZM363.398 73.4668C353.76 73.4668 347.361 61.9004 347.361 44.5918C347.361 27.2012 353.76 15.5938 363.398 15.5938C373.119 15.5938 379.518 27.2422 379.518 44.5918C379.518 61.8594 373.119 73.4668 363.398 73.4668ZM394.324 74.9844C406.26 74.9844 405.932 36.7168 405.932 16.4961H427.957V71.0059L421.928 73.1797V74H440.057V73.1797L433.863 70.9648V18.0137L439.975 15.7988V14.9785H397.441V15.7988L404.332 18.0137C404.332 35.1992 404.373 73.4668 394.529 73.4668C392.191 73.4668 390.1 67.4785 389.033 64.1973H388.459L388.336 72.9336C389.648 74.1641 391.289 74.9844 394.324 74.9844ZM488.455 70.9648V18.0137L494.566 15.7988V14.9785H476.438V15.7988L482.549 18.0137V22.0332L456.053 62.1875V18.0137L462.164 15.7988V14.9785H444.035V15.7988L450.064 18.0137V71.0059L444.035 73.1797V74H462.164V73.1797L456.053 70.9648V64.7715L482.549 24.6172V71.0059L476.52 73.1797V74H494.648V73.1797L488.455 70.9648ZM508.184 74H527.092V73.1797L520.652 70.9648V16.5371H531.029L535.5 27.8984H535.828V14.9785H499.447V27.8984H499.816L504.205 16.5371H514.664V70.9648L508.184 73.1797V74ZM585.088 70.9648V18.0137L591.199 15.7988V14.9785H573.07V15.7988L579.182 18.0137V22.0332L552.686 62.1875V18.0137L558.797 15.7988V14.9785H540.668V15.7988L546.697 18.0137V71.0059L540.668 73.1797V74H558.797V73.1797L552.686 70.9648V64.7715L579.182 24.6172V71.0059L573.152 73.1797V74H591.281V73.1797L585.088 70.9648ZM619.951 74H637.793V73.1797L631.846 70.9648V18.0137L637.793 15.7988V14.9785H619.951V15.7988L625.857 18.0137V44.6328C623.273 47.9961 619.418 48.6934 615.973 48.6934C610.271 48.6934 605.391 45.4531 605.391 36.1426V18.0137L611.297 15.7988V14.9785H593.496V15.7988L599.443 18.0137V36.8398C599.443 47.668 606.334 51.9746 612.855 51.9746C617.531 51.9746 622.494 50.498 625.857 46.3555V71.0059L619.951 73.1797V74ZM641.73 74H678.029L679.875 59.6035L679.547 59.5215L672.656 72.4414H653.789V44.5098H664.617L668.145 52.1797H668.719V35.1992H668.145L664.617 42.9512H653.789V16.5371H670.318L675.363 29.375H675.65V14.9785H641.771V15.7988L647.801 18.0137V71.0059L641.73 73.1797V74ZM707.396 74.9844C711.457 74.9844 715.805 74.3691 722.531 70.0625L723.434 55.625H722.818C719.988 66.7812 716.461 73.4668 707.684 73.4668C696.609 73.4668 690.457 61.5723 690.457 44.5508C690.457 28.0625 696.199 15.5938 707.109 15.5938C717.322 15.5938 720.152 22.9355 722.818 33.3945H723.434L722.531 18.957C715.805 14.6094 711.457 14.0352 707.725 14.0352C692.877 14.0352 683.73 26.873 683.73 44.5508C683.73 62.1465 693.164 74.9844 707.396 74.9844ZM767.525 70.9648L748.781 40.6543L763.178 21.459L771.668 21.3359H772.119L772.16 14.9785H771.381C766.09 14.9785 764.121 17.4395 760.553 22.1152L745.213 42.1309H741.193V18.0137L747.674 15.7988V14.9785H728.766V15.7988L735.205 18.0137V71.0059L728.766 73.1797V74H747.674V73.1797L741.193 70.9648V43.7715H743.818L762.357 74H773.678V72.7695L767.525 70.9648ZM821.666 70.9648V18.0137L827.777 15.7988V14.9785H809.648V15.7988L815.76 18.0137V22.0332L789.264 62.1875V18.0137L795.375 15.7988V14.9785H777.246V15.7988L783.275 18.0137V71.0059L777.246 73.1797V74H795.375V73.1797L789.264 70.9648V64.7715L815.76 24.6172V71.0059L809.73 73.1797V74H827.859V73.1797L821.666 70.9648ZM857.021 10.7949C861.82 10.7949 864.117 5.54492 864.199 0.828125L863.748 0.623047C863.215 4.02734 861.164 6.16016 857.021 6.16016C852.92 6.16016 850.91 4.02734 850.377 0.623047L849.926 0.828125C850.008 5.70898 852.387 10.7949 857.021 10.7949ZM876.217 70.9648V18.0137L882.328 15.7988V14.9785H864.199V15.7988L870.311 18.0137V22.0332L843.814 62.1875V18.0137L849.926 15.7988V14.9785H831.797V15.7988L837.826 18.0137V71.0059L831.797 73.1797V74H849.926V73.1797L843.814 70.9648V64.7715L870.311 24.6172V71.0059L864.281 73.1797V74H882.41V73.1797L876.217 70.9648ZM943.072 70.9648L924.328 40.6543L938.725 21.459L947.215 21.3359H947.666L947.707 14.9785H946.928C941.637 14.9785 939.668 17.4395 936.1 22.1152L920.76 42.1309H916.74V18.0137L923.221 15.7988V14.9785H904.312V15.7988L910.752 18.0137V71.0059L904.312 73.1797V74H923.221V73.1797L916.74 70.9648V43.7715H919.365L937.904 74H949.225V72.7695L943.072 70.9648ZM952.793 74H971.496V73.1797L964.77 70.9648V16.5371H971.168C978.346 16.5371 983.021 21.0488 983.021 31.8359C983.021 41.8027 978.879 48.0371 971.496 48.0371H967.928V49.5957H971.578C982.734 49.5957 989.666 43.4844 989.666 31.8359C989.666 22.2793 984.334 14.9785 973.26 14.9785H952.793V15.7988L958.781 18.0137V71.0059L952.793 73.1797V74ZM1037.16 70.9648V18.0137L1043.27 15.7988V14.9785H1025.14V15.7988L1031.26 18.0137V22.0332L1004.76 62.1875V18.0137L1010.87 15.7988V14.9785H992.742V15.7988L998.771 18.0137V71.0059L992.742 73.1797V74H1010.87V73.1797L1004.76 70.9648V64.7715L1031.26 24.6172V71.0059L1025.23 73.1797V74H1043.36V73.1797L1037.16 70.9648ZM1062.02 74.9844C1071.98 74.9844 1078.88 68.3809 1078.88 58.7012C1078.88 49.8828 1073.67 43.9766 1066.08 42.1719C1073.26 39.916 1077.48 34.748 1077.48 27.9805C1077.48 20.1055 1072.35 14.0352 1063.58 14.0352C1057.71 14.0352 1053.81 16.0449 1050.98 17.7266L1050.21 32.5742H1050.74C1052.58 25.7656 1055.66 15.5527 1063.41 15.5527C1068.46 15.5527 1071.21 21.0078 1071.21 27.9805C1071.21 36.5527 1066.53 40.3262 1058.45 42.8691V44.0586C1066.9 45.4941 1072.85 49.3496 1072.85 59.7676C1072.85 67.6016 1069.03 73.4668 1062.3 73.4668C1055.09 73.4668 1051.72 64.3203 1049.55 56.3633H1048.93L1049.71 71.1289C1051.89 73.0156 1057.22 74.9844 1062.02 74.9844ZM1128.13 70.9648V18.0137L1134.25 15.7988V14.9785H1116.12V15.7988L1122.23 18.0137V22.0332L1095.73 62.1875V18.0137L1101.84 15.7988V14.9785H1083.71V15.7988L1089.74 18.0137V71.0059L1083.71 73.1797V74H1101.84V73.1797L1095.73 70.9648V64.7715L1122.23 24.6172V71.0059L1116.2 73.1797V74H1134.33V73.1797L1128.13 70.9648ZM1161.77 74.9844C1165.83 74.9844 1170.18 74.3691 1176.9 70.0625L1177.8 55.625H1177.19C1174.36 66.7812 1170.83 73.4668 1162.05 73.4668C1150.98 73.4668 1144.83 61.5723 1144.83 44.5508C1144.83 28.0625 1150.57 15.5938 1161.48 15.5938C1171.69 15.5938 1174.52 22.9355 1177.19 33.3945H1177.8L1176.9 18.957C1170.18 14.6094 1165.83 14.0352 1162.1 14.0352C1147.25 14.0352 1138.1 26.873 1138.1 44.5508C1138.1 62.1465 1147.54 74.9844 1161.77 74.9844ZM2.91211 166H21.1641V165.18L15.2168 162.965V106.035H14.8066L3.9375 114.033V114.566H9.22852V162.965L2.91211 165.18V166ZM42.041 106.035C32.4844 106.035 25.3477 114.607 25.3477 126.707C25.3477 137.617 31.418 144.918 39.5801 144.918C44.584 144.918 48.3984 142.129 51.0234 137.986C48.8906 149.594 43.1484 159.027 31.7051 166.082L32.1152 166.984C50.9004 159.355 58.6523 144.303 58.6523 128.307C58.6523 115.469 51.9258 106.035 42.041 106.035ZM41.959 107.553C48.8496 107.553 52.0488 116.289 52.0488 126.707C52.0488 129.578 51.8438 132.654 51.3926 135.402C49.1777 139.873 45.7734 142.088 41.959 142.088C35.4785 142.088 31.9102 135.977 31.9102 125.436C31.9102 114.689 35.6836 107.553 41.959 107.553ZM85.4355 133.844C93.2285 131.383 96.4277 125.518 96.4277 119.693C96.4277 111.49 90.5215 106.035 82.1543 106.035C73.541 106.035 67.6348 112.064 67.6348 120.76C67.6348 127.281 70.5059 131.957 78.0117 136.305C69.8086 138.561 65.7891 145.123 65.7891 152.26C65.7891 161.201 72.4336 166.984 82.0723 166.984C91.4238 166.984 98.4375 161.365 98.4375 151.275C98.4375 144.59 95.6895 139.381 85.4355 133.844ZM73.2539 119.037C73.2539 112.105 76.4941 107.553 82.4004 107.553C88.1426 107.553 91.2598 112.188 91.2598 119.365C91.2598 124.779 89.4961 129.988 84.4512 133.311C77.0684 129.25 73.2539 125.723 73.2539 119.037ZM82.0312 165.467C75.0586 165.467 70.998 160.463 70.998 152.465C70.998 145.943 73.2949 140.078 79.1602 136.961C81.7852 138.314 92.9824 142.744 92.9824 152.998C92.9824 160.668 88.8398 165.467 82.0312 165.467ZM124.975 133.844C132.768 131.383 135.967 125.518 135.967 119.693C135.967 111.49 130.061 106.035 121.693 106.035C113.08 106.035 107.174 112.064 107.174 120.76C107.174 127.281 110.045 131.957 117.551 136.305C109.348 138.561 105.328 145.123 105.328 152.26C105.328 161.201 111.973 166.984 121.611 166.984C130.963 166.984 137.977 161.365 137.977 151.275C137.977 144.59 135.229 139.381 124.975 133.844ZM112.793 119.037C112.793 112.105 116.033 107.553 121.939 107.553C127.682 107.553 130.799 112.188 130.799 119.365C130.799 124.779 129.035 129.988 123.99 133.311C116.607 129.25 112.793 125.723 112.793 119.037ZM121.57 165.467C114.598 165.467 110.537 160.463 110.537 152.465C110.537 145.943 112.834 140.078 118.699 136.961C121.324 138.314 132.521 142.744 132.521 152.998C132.521 160.668 128.379 165.467 121.57 165.467ZM145.441 144.836H158.812V143.4H145.441V144.836ZM165.744 166H183.996V165.18L178.049 162.965V106.035H177.639L166.77 114.033V114.566H172.061V162.965L165.744 165.18V166ZM204.873 106.035C195.316 106.035 188.18 114.607 188.18 126.707C188.18 137.617 194.25 144.918 202.412 144.918C207.416 144.918 211.23 142.129 213.855 137.986C211.723 149.594 205.98 159.027 194.537 166.082L194.947 166.984C213.732 159.355 221.484 144.303 221.484 128.307C221.484 115.469 214.758 106.035 204.873 106.035ZM204.791 107.553C211.682 107.553 214.881 116.289 214.881 126.707C214.881 129.578 214.676 132.654 214.225 135.402C212.01 139.873 208.605 142.088 204.791 142.088C198.311 142.088 194.742 135.977 194.742 125.436C194.742 114.689 198.516 107.553 204.791 107.553ZM244.822 106.035C235.266 106.035 228.129 114.607 228.129 126.707C228.129 137.617 234.199 144.918 242.361 144.918C247.365 144.918 251.18 142.129 253.805 137.986C251.672 149.594 245.93 159.027 234.486 166.082L234.896 166.984C253.682 159.355 261.434 144.303 261.434 128.307C261.434 115.469 254.707 106.035 244.822 106.035ZM244.74 107.553C251.631 107.553 254.83 116.289 254.83 126.707C254.83 129.578 254.625 132.654 254.174 135.402C251.959 139.873 248.555 142.088 244.74 142.088C238.26 142.088 234.691 135.977 234.691 125.436C234.691 114.689 238.465 107.553 244.74 107.553ZM281.777 166.984C291.744 166.984 298.635 160.381 298.635 150.701C298.635 141.924 293.467 136.059 286.002 134.213V134.131C293.18 131.793 297.24 126.625 297.24 119.98C297.24 112.105 292.113 106.035 283.336 106.035C277.471 106.035 273.574 108.045 270.744 109.727L269.965 124.574H270.498C272.344 117.766 275.42 107.553 283.172 107.553C288.217 107.553 290.965 113.008 290.965 119.98C290.965 128.553 286.289 132.326 278.209 134.869V136.059C286.658 137.494 292.605 141.35 292.605 151.768C292.605 159.602 288.791 165.467 282.064 165.467C274.805 165.467 271.482 156.32 269.309 148.363H268.693L269.473 163.129C271.646 165.016 276.896 166.984 281.777 166.984ZM322.711 166H341.701V165.18L334.688 162.965V108.496H350.314L355.359 121.375H355.646V106.979H322.711V107.799L328.699 110.014V163.006L322.711 165.18V166ZM380.625 166.984C394.283 166.984 403.389 154.803 403.389 136.592C403.389 118.299 394.283 106.035 380.625 106.035C367.008 106.035 357.902 118.258 357.902 136.592C357.902 154.844 367.008 166.984 380.625 166.984ZM380.625 165.467C370.986 165.467 364.588 153.9 364.588 136.592C364.588 119.201 370.986 107.594 380.625 107.594C390.346 107.594 396.744 119.242 396.744 136.592C396.744 153.859 390.346 165.467 380.625 165.467ZM404.004 178.838H404.332L409.5 166H448.875L454.043 178.838H454.33V164.482H447.562V110.014L453.592 107.799V106.979H412.043V107.799L418.934 110.014C418.975 129.496 418.975 156.361 407.613 164.482H404.004V178.838ZM410.197 164.482C421.025 154.803 420.492 127.445 420.574 108.496H441.615V164.482H410.197ZM481.688 166.984C495.346 166.984 504.451 154.803 504.451 136.592C504.451 118.299 495.346 106.035 481.688 106.035C468.07 106.035 458.965 118.258 458.965 136.592C458.965 154.844 468.07 166.984 481.688 166.984ZM481.688 165.467C472.049 165.467 465.65 153.9 465.65 136.592C465.65 119.201 472.049 107.594 481.688 107.594C491.408 107.594 497.807 119.242 497.807 136.592C497.807 153.859 491.408 165.467 481.688 165.467ZM508.266 166H527.42C539.725 166 547.025 161.037 547.025 150.127C547.025 142.58 542.842 136.387 534.803 135.238V135.074C541.365 133.229 545.098 127.732 545.098 120.842C545.098 113.5 540.34 106.979 529.02 106.979H508.266V107.799L514.336 110.014V162.965L508.266 165.18V166ZM520.324 134.664V108.537H527.461C534.844 108.537 538.494 113.295 538.494 121.375C538.494 128.635 535.418 134.664 528.281 134.664H520.324ZM520.324 164.441V136.223H528.568C536.689 136.223 540.34 141.596 540.34 150.127C540.34 158.74 536.484 164.441 528.199 164.441H520.324ZM608.631 162.965L589.887 132.654L604.283 113.459L612.773 113.336H613.225L613.266 106.979H612.486C607.195 106.979 605.227 109.439 601.658 114.115L586.318 134.131H582.299V110.014L588.779 107.799V106.979H569.871V107.799L576.311 110.014V163.006L569.871 165.18V166H588.779V165.18L582.299 162.965V135.771H584.924L603.463 166H614.783V164.77L608.631 162.965ZM660.311 162.965L643.166 106.979H634.84V107.799L638.08 111.9L622.986 162.965L616.588 165.18V166H632.051V165.18L624.463 162.965L629.385 146.189H648.99L653.953 162.965L648.211 165.18V166H666.422V165.18L660.311 162.965ZM629.836 144.631L639.146 113.008L648.539 144.631H629.836ZM707.725 162.965L688.98 132.654L703.377 113.459L711.867 113.336H712.318L712.359 106.979H711.58C706.289 106.979 704.32 109.439 700.752 114.115L685.412 134.131H681.393V110.014L687.873 107.799V106.979H668.965V107.799L675.404 110.014V163.006L668.965 165.18V166H687.873V165.18L681.393 162.965V135.771H684.018L702.557 166H713.877V164.77L707.725 162.965ZM735.41 166H754.4V165.18L747.387 162.965V108.496H763.014L768.059 121.375H768.346V106.979H735.41V107.799L741.398 110.014V163.006L735.41 165.18V166ZM777.902 166.984C789.838 166.984 789.51 128.717 789.51 108.496H811.535V163.006L805.506 165.18V166H823.635V165.18L817.441 162.965V110.014L823.553 107.799V106.979H781.02V107.799L787.91 110.014C787.91 127.199 787.951 165.467 778.107 165.467C775.77 165.467 773.678 159.479 772.611 156.197H772.037L771.914 164.934C773.227 166.164 774.867 166.984 777.902 166.984ZM869.572 162.965L852.428 106.979H844.102V107.799L847.342 111.9L832.248 162.965L825.85 165.18V166H841.312V165.18L833.725 162.965L838.646 146.189H858.252L863.215 162.965L857.473 165.18V166H875.684V165.18L869.572 162.965ZM839.098 144.631L848.408 113.008L857.801 144.631H839.098ZM878.227 166H897.381C909.686 166 916.986 161.037 916.986 150.127C916.986 142.58 912.803 136.387 904.764 135.238V135.074C911.326 133.229 915.059 127.732 915.059 120.842C915.059 113.5 910.301 106.979 898.98 106.979H878.227V107.799L884.297 110.014V162.965L878.227 165.18V166ZM890.285 134.664V108.537H897.422C904.805 108.537 908.455 113.295 908.455 121.375C908.455 128.635 905.379 134.664 898.242 134.664H890.285ZM890.285 164.441V136.223H898.529C906.65 136.223 910.301 141.596 910.301 150.127C910.301 158.74 906.445 164.441 898.16 164.441H890.285ZM921.867 166H939.996V165.18L933.885 162.965V136.551H960.299V163.006L954.27 165.18V166H972.398V165.18L966.287 162.965V110.014L972.398 107.799V106.979H954.27V107.799L960.299 110.014V134.992H933.885V110.014L939.996 107.799V106.979H921.867V107.799L927.896 110.014V163.006L921.867 165.18V166ZM1018.29 162.965L1001.15 106.979H992.824V107.799L996.064 111.9L980.971 162.965L974.572 165.18V166H990.035V165.18L982.447 162.965L987.369 146.189H1006.97L1011.94 162.965L1006.2 165.18V166H1024.41V165.18L1018.29 162.965ZM987.82 144.631L997.131 113.008L1006.52 144.631H987.82ZM1070.43 166V165.18L1064.4 163.006V110.014L1070.43 107.799V106.979H1049.06C1038.68 106.979 1033.06 112.803 1033.06 121.58C1033.06 131.383 1039.05 136.387 1046.19 137.781V137.986C1044.63 138.396 1043.03 138.725 1042.17 138.684L1031.01 162.678L1026.46 165.18L1026.42 166H1036.34L1048.56 138.109C1049.84 138.314 1051.15 138.396 1052.34 138.396H1055.82V136.838H1052.13C1043.44 136.838 1039.75 131.465 1039.75 121.826C1039.75 113.951 1042.99 108.537 1050.98 108.537H1058.41V162.965L1052.54 165.18V166H1070.43ZM1.96875 258H20.0977V257.18L13.9863 254.965V200.496H40.4824V255.006L34.4531 257.18V258H52.582V257.18L46.3887 254.965V202.014L52.5 199.799V198.979H1.96875V199.799L7.99805 202.014V255.006L1.96875 257.18V258ZM56.5195 258H75.2227V257.18L68.4961 254.965V200.537H74.8945C82.0723 200.537 86.748 205.049 86.748 215.836C86.748 225.803 82.6055 232.037 75.2227 232.037H71.6543V233.596H75.3047C86.4609 233.596 93.3926 227.484 93.3926 215.836C93.3926 206.279 88.0605 198.979 76.9863 198.979H56.5195V199.799L62.5078 202.014V255.006L56.5195 257.18V258ZM140.889 254.965V202.014L147 199.799V198.979H128.871V199.799L134.982 202.014V206.033L108.486 246.188V202.014L114.598 199.799V198.979H96.4688V199.799L102.498 202.014V255.006L96.4688 257.18V258H114.598V257.18L108.486 254.965V248.771L134.982 208.617V255.006L128.953 257.18V258H147.082V257.18L140.889 254.965ZM175.752 258H193.594V257.18L187.646 254.965V202.014L193.594 199.799V198.979H175.752V199.799L181.658 202.014V228.633C179.074 231.996 175.219 232.693 171.773 232.693C166.072 232.693 161.191 229.453 161.191 220.143V202.014L167.098 199.799V198.979H149.297V199.799L155.244 202.014V220.84C155.244 231.668 162.135 235.975 168.656 235.975C173.332 235.975 178.295 234.498 181.658 230.355V255.006L175.752 257.18V258ZM241.951 254.965V202.014L248.062 199.799V198.979H229.934V199.799L236.045 202.014V206.033L209.549 246.188V202.014L215.66 199.799V198.979H197.531V199.799L203.561 202.014V255.006L197.531 257.18V258H215.66V257.18L209.549 254.965V248.771L236.045 208.617V255.006L230.016 257.18V258H248.145V257.18L241.951 254.965ZM252.082 258H270.211V257.18L264.1 254.965V228.551H290.514V255.006L284.484 257.18V258H302.613V257.18L296.502 254.965V202.014L302.613 199.799V198.979H284.484V199.799L290.514 202.014V226.992H264.1V202.014L270.211 199.799V198.979H252.082V199.799L258.111 202.014V255.006L252.082 257.18V258ZM348.51 254.965L331.365 198.979H323.039V199.799L326.279 203.9L311.186 254.965L304.787 257.18V258H320.25V257.18L312.662 254.965L317.584 238.189H337.189L342.152 254.965L336.41 257.18V258H354.621V257.18L348.51 254.965ZM318.035 236.631L327.346 205.008L336.738 236.631H318.035ZM398.918 258.984C412.576 258.984 421.682 246.803 421.682 228.592C421.682 210.299 412.576 198.035 398.918 198.035C385.301 198.035 376.195 210.258 376.195 228.592C376.195 246.844 385.301 258.984 398.918 258.984ZM398.918 257.467C389.279 257.467 382.881 245.9 382.881 228.592C382.881 211.201 389.279 199.594 398.918 199.594C408.639 199.594 415.037 211.242 415.037 228.592C415.037 245.859 408.639 257.467 398.918 257.467ZM464.256 254.965L445.512 224.654L459.908 205.459L468.398 205.336H468.85L468.891 198.979H468.111C462.82 198.979 460.852 201.439 457.283 206.115L441.943 226.131H437.924V202.014L444.404 199.799V198.979H425.496V199.799L431.936 202.014V255.006L425.496 257.18V258H444.404V257.18L437.924 254.965V227.771H440.549L459.088 258H470.408V256.77L464.256 254.965ZM512.736 254.965L493.992 224.654L508.389 205.459L516.879 205.336H517.33L517.371 198.979H516.592C511.301 198.979 509.332 201.439 505.764 206.115L490.424 226.131H486.404V202.014L492.885 199.799V198.979H473.977V199.799L480.416 202.014V255.006L473.977 257.18V258H492.885V257.18L486.404 254.965V227.771H489.029L507.568 258H518.889V256.77L512.736 254.965ZM528.979 258.984C534.475 258.533 538.494 256.359 544.523 241.922L563.227 202.014L569.83 199.84V198.979H554.736V199.84L561.34 202.014L547.559 231.504L533.49 202.014L539.232 199.84V198.979H520.529V199.84L526.887 202.014L544.4 237.984L540.34 247.213C536.566 248.32 532.588 248.689 528.773 248.156L528.117 248.525L528.979 258.984ZM572.086 258H590.215V257.18L584.104 254.965V200.496H610.6V255.006L604.57 257.18V258H622.699V257.18L616.506 254.965V202.014L622.617 199.799V198.979H572.086V199.799L578.115 202.014V255.006L572.086 257.18V258ZM668.596 254.965L651.451 198.979H643.125V199.799L646.365 203.9L631.271 254.965L624.873 257.18V258H640.336V257.18L632.748 254.965L637.67 238.189H657.275L662.238 254.965L656.496 257.18V258H674.707V257.18L668.596 254.965ZM638.121 236.631L647.432 205.008L656.824 236.631H638.121ZM728.273 270.838H728.561V256.482H721.711V202.014L727.904 199.799V198.979H709.734V199.799L715.805 202.014V256.482H689.268V202.014L695.42 199.799V198.979H677.25V199.799L683.279 202.014V255.006L677.25 257.18V258H723.064L728.273 270.838ZM776.549 254.965V202.014L782.66 199.799V198.979H764.531V199.799L770.643 202.014V206.033L744.146 246.188V202.014L750.258 199.799V198.979H732.129V199.799L738.158 202.014V255.006L732.129 257.18V258H750.258V257.18L744.146 254.965V248.771L770.643 208.617V255.006L764.613 257.18V258H782.742V257.18L776.549 254.965ZM831.1 254.965V202.014L837.211 199.799V198.979H819.082V199.799L825.193 202.014V206.033L798.697 246.188V202.014L804.809 199.799V198.979H786.68V199.799L792.709 202.014V255.006L786.68 257.18V258H804.809V257.18L798.697 254.965V248.771L825.193 208.617V255.006L819.164 257.18V258H837.293V257.18L831.1 254.965ZM868.793 258H887.701V257.18L881.262 254.965V200.537H891.639L896.109 211.898H896.438V198.979H860.057V211.898H860.426L864.814 200.537H875.273V254.965L868.793 257.18V258ZM901.277 258H937.576L939.422 243.604L939.094 243.521L932.203 256.441H913.336V228.51H924.164L927.691 236.18H928.266V219.199H927.691L924.164 226.951H913.336V200.537H929.865L934.91 213.375H935.197V198.979H901.318V199.799L907.348 202.014V255.006L901.277 257.18V258ZM942.211 258H960.914V257.18L954.188 254.965V200.537H960.586C967.764 200.537 972.439 205.049 972.439 215.836C972.439 225.803 968.297 232.037 960.914 232.037H957.346V233.596H960.996C972.152 233.596 979.084 227.484 979.084 215.836C979.084 206.279 973.752 198.979 962.678 198.979H942.211V199.799L948.199 202.014V255.006L942.211 257.18V258ZM982.16 258H1000.86V257.18L994.137 254.965V200.537H1000.54C1007.71 200.537 1012.39 205.049 1012.39 215.836C1012.39 225.803 1008.25 232.037 1000.86 232.037H997.295V233.596H1000.95C1012.1 233.596 1019.03 227.484 1019.03 215.836C1019.03 206.279 1013.7 198.979 1002.63 198.979H982.16V199.799L988.148 202.014V255.006L982.16 257.18V258ZM1066.53 254.965V202.014L1072.64 199.799V198.979H1054.51V199.799L1060.62 202.014V206.033L1034.13 246.188V202.014L1040.24 199.799V198.979H1022.11V199.799L1028.14 202.014V255.006L1022.11 257.18V258H1040.24V257.18L1034.13 254.965V248.771L1060.62 208.617V255.006L1054.59 257.18V258H1072.72V257.18L1066.53 254.965ZM1086.26 258H1105.17V257.18L1098.73 254.965V200.537H1109.1L1113.57 211.898H1113.9V198.979H1077.52V211.898H1077.89L1082.28 200.537H1092.74V254.965L1086.26 257.18V258ZM1138.92 258.984C1152.58 258.984 1161.69 246.803 1161.69 228.592C1161.69 210.299 1152.58 198.035 1138.92 198.035C1125.3 198.035 1116.2 210.258 1116.2 228.592C1116.2 246.844 1125.3 258.984 1138.92 258.984ZM1138.92 257.467C1129.28 257.467 1122.88 245.9 1122.88 228.592C1122.88 211.201 1129.28 199.594 1138.92 199.594C1148.64 199.594 1155.04 211.242 1155.04 228.592C1155.04 245.859 1148.64 257.467 1138.92 257.467ZM1165.5 258H1184.2V257.18L1177.48 254.965V200.537H1183.88C1191.05 200.537 1195.73 205.049 1195.73 215.836C1195.73 225.803 1191.59 232.037 1184.2 232.037H1180.63V233.596H1184.29C1195.44 233.596 1202.37 227.484 1202.37 215.836C1202.37 206.279 1197.04 198.979 1185.97 198.979H1165.5V199.799L1171.49 202.014V255.006L1165.5 257.18V258ZM1249.87 254.965V202.014L1255.98 199.799V198.979H1237.85V199.799L1243.96 202.014V206.033L1217.47 246.188V202.014L1223.58 199.799V198.979H1205.45V199.799L1211.48 202.014V255.006L1205.45 257.18V258H1223.58V257.18L1217.47 254.965V248.771L1243.96 208.617V255.006L1237.93 257.18V258H1256.06V257.18L1249.87 254.965ZM1285.22 194.795C1290.02 194.795 1292.32 189.545 1292.4 184.828L1291.95 184.623C1291.42 188.027 1289.37 190.16 1285.22 190.16C1281.12 190.16 1279.11 188.027 1278.58 184.623L1278.13 184.828C1278.21 189.709 1280.59 194.795 1285.22 194.795ZM1304.42 254.965V202.014L1310.53 199.799V198.979H1292.4V199.799L1298.51 202.014V206.033L1272.02 246.188V202.014L1278.13 199.799V198.979H1260V199.799L1266.03 202.014V255.006L1260 257.18V258H1278.13V257.18L1272.02 254.965V248.771L1298.51 208.617V255.006L1292.48 257.18V258H1310.61V257.18L1304.42 254.965ZM43.9277 346.965L26.7832 290.979H18.457V291.799L21.6973 295.9L6.60352 346.965L0.205078 349.18V350H15.668V349.18L8.08008 346.965L13.002 330.189H32.6074L37.5703 346.965L31.8281 349.18V350H50.0391V349.18L43.9277 346.965ZM13.4531 328.631L22.7637 297.008L32.1562 328.631H13.4531ZM67.3066 350.984C77.2734 350.984 84.1641 344.381 84.1641 334.701C84.1641 325.883 78.9551 319.977 71.3672 318.172C78.5449 315.916 82.7695 310.748 82.7695 303.98C82.7695 296.105 77.6426 290.035 68.8652 290.035C63 290.035 59.1035 292.045 56.2734 293.727L55.4941 308.574H56.0273C57.873 301.766 60.9492 291.553 68.7012 291.553C73.7461 291.553 76.4941 297.008 76.4941 303.98C76.4941 312.553 71.8184 316.326 63.7383 318.869V320.059C72.1875 321.494 78.1348 325.35 78.1348 335.768C78.1348 343.602 74.3203 349.467 67.5938 349.467C60.375 349.467 57.0117 340.32 54.8379 332.363H54.2227L55.002 347.129C57.1758 349.016 62.5078 350.984 67.3066 350.984ZM89.0039 350H125.303L127.148 335.604L126.82 335.521L119.93 348.441H101.062V320.51H111.891L115.418 328.18H115.992V311.199H115.418L111.891 318.951H101.062V292.537H117.592L122.637 305.375H122.924V290.979H89.0449V291.799L95.0742 294.014V347.006L89.0039 349.18V350ZM129.938 350H148.641V349.18L141.914 346.965V292.537H148.312C155.49 292.537 160.166 297.049 160.166 307.836C160.166 317.803 156.023 324.037 148.641 324.037H145.072V325.596H148.723C159.879 325.596 166.811 319.484 166.811 307.836C166.811 298.279 161.479 290.979 150.404 290.979H129.938V291.799L135.926 294.014V347.006L129.938 349.18V350ZM170.01 350H189.041C201.346 350 208.646 345.037 208.646 334.127C208.646 323.012 200.32 318.664 190.189 318.664H181.945V292.496H198.311L203.396 305.375H203.643V290.979H169.887V291.799L175.957 294.014V347.047L170.01 349.18V350ZM181.945 348.482V320.223H190.189C198.311 320.223 202.002 325.596 202.002 334.127C202.002 342.74 198.105 348.482 189.82 348.482H181.945ZM255.486 346.965L238.342 290.979H230.016V291.799L233.256 295.9L218.162 346.965L211.764 349.18V350H227.227V349.18L219.639 346.965L224.561 330.189H244.166L249.129 346.965L243.387 349.18V350H261.598V349.18L255.486 346.965ZM225.012 328.631L234.322 297.008L243.715 328.631H225.012ZM289.365 286.795C294.164 286.795 296.461 281.545 296.543 276.828L296.092 276.623C295.559 280.027 293.508 282.16 289.365 282.16C285.264 282.16 283.254 280.027 282.721 276.623L282.27 276.828C282.352 281.709 284.73 286.795 289.365 286.795ZM308.561 346.965V294.014L314.672 291.799V290.979H296.543V291.799L302.654 294.014V298.033L276.158 338.188V294.014L282.27 291.799V290.979H264.141V291.799L270.17 294.014V347.006L264.141 349.18V350H282.27V349.18L276.158 346.965V340.771L302.654 300.617V347.006L296.625 349.18V350H314.754V349.18L308.561 346.965ZM317.461 362.838H317.789L322.957 350H362.332L367.5 362.838H367.787V348.482H361.02V294.014L367.049 291.799V290.979H325.5V291.799L332.391 294.014C332.432 313.496 332.432 340.361 321.07 348.482H317.461V362.838ZM323.654 348.482C334.482 338.803 333.949 311.445 334.031 292.496H355.072V348.482H323.654ZM431.607 346.965L412.863 316.654L427.26 297.459L435.75 297.336H436.201L436.242 290.979H435.463C430.172 290.979 428.203 293.439 424.635 298.115L409.295 318.131H407.326V294.014L413.807 291.799V290.979H394.898V291.799L401.338 294.014V318.131H399.451L384.111 298.115C380.543 293.439 378.574 290.979 373.283 290.979H372.504L372.545 297.336H372.996L381.486 297.459L395.883 316.654L377.139 346.965L370.986 348.77V350H382.307L400.846 319.771H401.338V347.006L394.898 349.18V350H413.807V349.18L407.326 346.965V319.771H407.9L426.439 350H437.76V348.77L431.607 346.965ZM483.287 346.965L466.143 290.979H457.816V291.799L461.057 295.9L445.963 346.965L439.564 349.18V350H455.027V349.18L447.439 346.965L452.361 330.189H471.967L476.93 346.965L471.188 349.18V350H489.398V349.18L483.287 346.965ZM452.812 328.631L462.123 297.008L471.516 328.631H452.812ZM491.941 350H510.07V349.18L503.959 346.965V320.551H530.373V347.006L524.344 349.18V350H542.473V349.18L536.361 346.965V294.014L542.473 291.799V290.979H524.344V291.799L530.373 294.014V318.992H503.959V294.014L510.07 291.799V290.979H491.941V291.799L497.971 294.014V347.006L491.941 349.18V350ZM588.369 346.965L571.225 290.979H562.898V291.799L566.139 295.9L551.045 346.965L544.646 349.18V350H560.109V349.18L552.521 346.965L557.443 330.189H577.049L582.012 346.965L576.27 349.18V350H594.48V349.18L588.369 346.965ZM557.895 328.631L567.205 297.008L576.598 328.631H557.895Z" fill="white"></path> </svg> 