<?xml version="1.0" encoding="UTF-8"?> <svg xmlns="http://www.w3.org/2000/svg" width="1780" height="330" viewBox="0 0 1780 330" fill="none"> <g filter="url(#filter0_b)"> <path d="M0.046875 114H33.5625C56.7949 114 71.0137 96.8613 71.0137 68.2334C71.0137 39.7324 56.7314 22.6572 34.3877 22.6572H0.046875V23.9268L9.37793 27.2275V109.366L0.046875 112.73V114ZM18.6455 111.588V25.0693H33.1182C51.2725 25.0693 60.6035 40.0498 60.6035 69.0586C60.6035 96.0996 51.9072 111.588 32.2295 111.588H18.6455ZM136.077 109.303L109.544 22.6572H96.6582V23.9268L101.673 30.2744L78.3135 109.303L68.4111 112.73V114H92.3418V112.73L80.5986 109.303L88.2158 83.3408H118.558L126.238 109.303L117.352 112.73V114H145.535V112.73L136.077 109.303ZM88.9141 80.9287L103.323 31.9883L117.859 80.9287H88.9141ZM179.876 16.1826C187.303 16.1826 190.857 8.05762 190.984 0.757812L190.286 0.44043C189.461 5.70898 186.287 9.00977 179.876 9.00977C173.528 9.00977 170.418 5.70898 169.593 0.44043L168.895 0.757812C169.021 8.31152 172.703 16.1826 179.876 16.1826ZM180.384 115.523C190.984 115.523 198.602 111.969 207.044 103.59V72.3594H187.43V73.0576L198.348 78.3262V100.416C198.348 106.764 189.144 113.175 182.542 113.175C162.674 113.175 153.406 94.8936 153.406 68.4873C153.406 45.8262 160.516 23.5459 179.622 23.5459C195.11 23.5459 199.808 35.416 203.743 51.1582H204.695L203.362 28.8145C196.253 24.498 188.636 21.1973 181.146 21.1973C156.644 21.1973 142.996 41.4463 142.996 68.4238C142.996 95.7188 157.215 115.523 180.384 115.523ZM216.375 114H268.172L270.901 91.7197L270.394 91.5928L259.856 111.588H234.91V27.3545L245.384 23.9268V22.6572H216.375V23.9268L225.643 27.3545V109.366L216.375 112.73V114ZM275.281 114H303.211V112.73L293.88 109.303V27.3545L303.211 23.9268V22.6572H275.281V23.9268L284.612 27.3545V109.366L275.281 112.73V114ZM379.446 68.4873C379.446 40.1768 365.354 21.1973 344.217 21.1973C323.143 21.1973 309.051 40.1133 309.051 68.4873C309.051 96.2266 322.635 114.889 343.138 115.523L367.576 137.613L376.907 133.36V132.599L350.691 114.889C368.147 111.461 379.446 93.6875 379.446 68.4873ZM319.397 68.4873C319.397 41.5732 329.3 23.6094 344.217 23.6094C359.261 23.6094 369.163 41.6367 369.163 68.4873C369.163 95.2109 359.261 113.175 344.217 113.175C329.3 113.175 319.397 95.2744 319.397 68.4873ZM487.103 68.4873C487.103 40.1768 473.011 21.1973 451.873 21.1973C430.799 21.1973 416.707 40.1133 416.707 68.4873C416.707 96.2266 430.291 114.889 450.794 115.523L475.232 137.613L484.563 133.36V132.599L458.348 114.889C475.804 111.461 487.103 93.6875 487.103 68.4873ZM427.054 68.4873C427.054 41.5732 436.956 23.6094 451.873 23.6094C466.917 23.6094 476.819 41.6367 476.819 68.4873C476.819 95.2109 466.917 113.175 451.873 113.175C436.956 113.175 427.054 95.2744 427.054 68.4873ZM552.229 109.303L525.696 22.6572H512.811V23.9268L517.825 30.2744L494.466 109.303L484.563 112.73V114H508.494V112.73L496.751 109.303L504.368 83.3408H534.71L542.391 109.303L533.504 112.73V114H561.688V112.73L552.229 109.303ZM505.066 80.9287L519.476 31.9883L534.012 80.9287H505.066ZM565.623 114H593.299V112.73L584.222 109.303V25.0693H595.711C608.089 25.0693 613.104 33.4482 613.104 45.6357C613.104 60.5527 607.391 68.8682 593.934 68.8682H588.221V71.2803H593.616C595.457 71.2803 597.488 71.1533 599.456 70.8359L618.372 114H633.733L633.67 112.73L626.624 108.858L609.358 71.7246C608.025 71.7881 605.55 71.2803 603.138 70.6455V70.3281C614.183 68.1699 623.45 60.4258 623.45 45.2549C623.45 31.6709 614.754 22.6572 598.694 22.6572H565.623V23.9268L574.954 27.3545V109.366L565.623 112.73V114ZM703.938 109.303L677.405 22.6572H664.52V23.9268L669.534 30.2744L646.175 109.303L636.272 112.73V114H660.203V112.73L648.46 109.303L656.077 83.3408H686.419L694.1 109.303L685.213 112.73V114H713.396V112.73L703.938 109.303ZM656.775 80.9287L671.185 31.9883L685.721 80.9287H656.775ZM717.332 114H746.976C766.019 114 777.317 106.319 777.317 89.4346C777.317 77.7549 770.843 68.1699 758.401 66.3926V66.1387C768.558 63.2822 774.334 54.7764 774.334 44.1123C774.334 32.75 766.971 22.6572 749.451 22.6572H717.332V23.9268L726.727 27.3545V109.303L717.332 112.73V114ZM735.994 65.5039V25.0693H747.039C758.465 25.0693 764.114 32.4326 764.114 44.9375C764.114 56.1729 759.354 65.5039 748.309 65.5039H735.994ZM735.994 111.588V67.916H748.753C761.321 67.916 766.971 76.2314 766.971 89.4346C766.971 102.765 761.004 111.588 748.182 111.588H735.994ZM849.808 109.303L823.274 22.6572H810.389V23.9268L815.403 30.2744L792.044 109.303L782.142 112.73V114H806.072V112.73L794.329 109.303L801.946 83.3408H832.288L839.969 109.303L831.082 112.73V114H859.266V112.73L849.808 109.303ZM802.645 80.9287L817.054 31.9883L831.59 80.9287H802.645ZM893.606 16.1826C901.033 16.1826 904.588 8.05762 904.715 0.757812L904.017 0.44043C903.191 5.70898 900.018 9.00977 893.606 9.00977C887.259 9.00977 884.148 5.70898 883.323 0.44043L882.625 0.757812C882.752 8.31152 886.434 16.1826 893.606 16.1826ZM894.114 115.523C904.715 115.523 912.332 111.969 920.774 103.59V72.3594H901.16V73.0576L912.078 78.3262V100.416C912.078 106.764 902.874 113.175 896.272 113.175C876.404 113.175 867.137 94.8936 867.137 68.4873C867.137 45.8262 874.246 23.5459 893.353 23.5459C908.841 23.5459 913.538 35.416 917.474 51.1582H918.426L917.093 28.8145C909.983 24.498 902.366 21.1973 894.876 21.1973C870.374 21.1973 856.727 41.4463 856.727 68.4238C856.727 95.7188 870.945 115.523 894.114 115.523ZM1022.84 109.303L996.312 22.6572H983.426V23.9268L988.44 30.2744L965.081 109.303L955.179 112.73V114H979.109V112.73L967.366 109.303L974.983 83.3408H1005.33L1013.01 109.303L1004.12 112.73V114H1032.3V112.73L1022.84 109.303ZM975.682 80.9287L990.091 31.9883L1004.63 80.9287H975.682ZM1038.08 114H1093.94L1095.91 92.7354L1095.4 92.6084L1085.69 111.651H1049L1093.43 24.2441L1093.3 22.6572H1041.82L1039.86 43.9219H1040.43L1050.01 25.0693H1082.13L1037.89 112.477L1038.08 114ZM1132.85 115.523C1151.51 115.523 1166.68 95.5283 1166.68 68.6143C1166.68 39.2881 1150.24 21.1973 1132.02 21.1973C1121.17 21.1973 1110.89 28.3701 1105.05 38.8438L1106 40.0498C1111.78 31.8613 1117.74 25.5771 1130.95 25.5771C1147.32 25.5771 1156.34 43.9219 1156.34 70.1377C1156.34 72.3594 1156.34 73.7559 1156.15 76.2314H1103.4C1103.4 97.8135 1114.63 115.523 1132.85 115.523ZM1133.23 112.921C1121.04 112.921 1113.43 100.226 1113.43 80.1035L1156.08 77.9453C1154.88 98.0039 1145.99 112.921 1133.23 112.921ZM1172.59 114H1200.26V112.73L1191.18 109.303V25.0693H1202.67C1215.05 25.0693 1220.07 33.4482 1220.07 45.6357C1220.07 60.5527 1214.35 68.8682 1200.9 68.8682H1195.18V71.2803H1200.58C1202.42 71.2803 1204.45 71.1533 1206.42 70.8359L1225.33 114H1240.7L1240.63 112.73L1233.59 108.858L1216.32 71.7246C1214.99 71.7881 1212.51 71.2803 1210.1 70.6455V70.3281C1221.15 68.1699 1230.41 60.4258 1230.41 45.2549C1230.41 31.6709 1221.72 22.6572 1205.66 22.6572H1172.59V23.9268L1181.92 27.3545V109.366L1172.59 112.73V114ZM1245.96 114H1275.61C1294.65 114 1305.95 106.319 1305.95 89.4346C1305.95 77.7549 1299.48 68.1699 1287.03 66.3926V66.1387C1297.19 63.2822 1302.97 54.7764 1302.97 44.1123C1302.97 32.75 1295.6 22.6572 1278.08 22.6572H1245.96V23.9268L1255.36 27.3545V109.303L1245.96 112.73V114ZM1264.63 65.5039V25.0693H1275.67C1287.1 25.0693 1292.75 32.4326 1292.75 44.9375C1292.75 56.1729 1287.99 65.5039 1276.94 65.5039H1264.63ZM1264.63 111.588V67.916H1277.39C1289.95 67.916 1295.6 76.2314 1295.6 89.4346C1295.6 102.765 1289.64 111.588 1276.81 111.588H1264.63ZM1378.44 109.303L1351.91 22.6572H1339.02V23.9268L1344.04 30.2744L1320.68 109.303L1310.77 112.73V114H1334.71V112.73L1322.96 109.303L1330.58 83.3408H1360.92L1368.6 109.303L1359.71 112.73V114H1387.9V112.73L1378.44 109.303ZM1331.28 80.9287L1345.69 31.9883L1360.22 80.9287H1331.28ZM1396.21 114H1425.35V112.73L1415.38 109.303V71.8516L1438.11 27.3545L1448.07 23.9902V22.6572H1423.51V23.9902L1435.44 27.5449L1414.37 69.1221L1394.25 27.3545L1404.02 23.9902V22.6572H1374.38V23.9902L1383.9 27.3545L1406.12 73.4385V109.366L1396.21 112.73V114ZM1478.99 115.523C1485.27 115.523 1492 114.571 1502.41 107.906L1503.81 85.5625H1502.85C1498.47 102.828 1493.02 113.175 1479.43 113.175C1462.29 113.175 1452.77 94.7666 1452.77 68.4238C1452.77 42.9062 1461.66 23.6094 1478.54 23.6094C1494.35 23.6094 1498.73 34.9717 1502.85 51.1582H1503.81L1502.41 28.8145C1492 22.0859 1485.27 21.1973 1479.5 21.1973C1456.52 21.1973 1442.36 41.0654 1442.36 68.4238C1442.36 95.6553 1456.96 115.523 1478.99 115.523ZM1577 109.303L1550.46 22.6572H1537.58V23.9268L1542.59 30.2744L1519.23 109.303L1509.33 112.73V114H1533.26V112.73L1521.52 109.303L1529.13 83.3408H1559.48L1567.16 109.303L1558.27 112.73V114H1586.45V112.73L1577 109.303ZM1529.83 80.9287L1544.24 31.9883L1558.78 80.9287H1529.83ZM1653.23 115.079L1655.77 114V28.0527L1666.56 23.8633V22.6572H1642.76V23.8633L1653.55 28.0527V99.1465L1606.7 22.6572H1590.39V23.9268L1601.05 27.3545V108.604L1590.39 112.73V114H1613.94V112.73L1603.21 108.604V34.5273L1653.23 115.079ZM1669.73 114H1697.66V112.73L1688.33 109.303V27.3545L1697.66 23.9268V22.6572H1669.73V23.9268L1679.07 27.3545V109.366L1669.73 112.73V114ZM1766.6 115.079L1769.14 114V28.0527L1779.93 23.8633V22.6572H1756.13V23.8633L1766.92 28.0527V99.1465L1720.07 22.6572H1703.76V23.9268L1714.42 27.3545V108.604L1703.76 112.73V114H1727.31V112.73L1716.58 108.604V34.5273L1766.6 115.079ZM14.0117 202.802C17.249 202.802 19.6611 200.58 19.6611 197.279C19.6611 194.042 17.249 191.693 14.0117 191.693C10.7109 191.693 8.29883 194.042 8.29883 197.279C8.29883 200.58 10.7109 202.802 14.0117 202.802ZM0.046875 301H27.9766V299.73L18.6455 296.303V214.354L27.9766 210.927V209.657H0.046875V210.927L9.37793 214.354V296.366L0.046875 299.73V301ZM96.9121 302.079L99.4512 301V215.053L110.242 210.863V209.657H86.4385V210.863L97.2295 215.053V286.146L50.3838 209.657H34.0703V210.927L44.7344 214.354V295.604L34.0703 299.73V301H57.6201V299.73L46.8926 295.604V221.527L96.9121 302.079ZM116.399 301H172.259L174.227 279.735L173.719 279.608L164.007 298.651H127.317L171.751 211.244L171.624 209.657H120.145L118.177 230.922H118.748L128.333 212.069H160.452L116.209 299.477L116.399 301ZM194.158 202.802C197.396 202.802 199.808 200.58 199.808 197.279C199.808 194.042 197.396 191.693 194.158 191.693C190.857 191.693 188.445 194.042 188.445 197.279C188.445 200.58 190.857 202.802 194.158 202.802ZM180.193 301H208.123V299.73L198.792 296.303V214.354L208.123 210.927V209.657H180.193V210.927L189.524 214.354V296.366L180.193 299.73V301ZM214.217 301H243.86C262.903 301 274.202 293.319 274.202 276.435C274.202 264.755 267.728 255.17 255.286 253.393V253.139C265.442 250.282 271.219 241.776 271.219 231.112C271.219 219.75 263.855 209.657 246.336 209.657H214.217V210.927L223.611 214.354V296.303L214.217 299.73V301ZM232.879 252.504V212.069H243.924C255.35 212.069 260.999 219.433 260.999 231.938C260.999 243.173 256.238 252.504 245.193 252.504H232.879ZM232.879 298.588V254.916H245.638C258.206 254.916 263.855 263.231 263.855 276.435C263.855 289.765 257.889 298.588 245.066 298.588H232.879ZM346.692 296.303L320.159 209.657H307.273V210.927L312.288 217.274L288.929 296.303L279.026 299.73V301H302.957V299.73L291.214 296.303L298.831 270.341H329.173L336.854 296.303L327.967 299.73V301H356.15V299.73L346.692 296.303ZM299.529 267.929L313.938 218.988L328.475 267.929H299.529ZM363.26 301H392.522V299.73L382.557 296.303V212.069H398.616L405.535 229.652H406.043V209.657H349.739V229.652H350.311L357.103 212.069H373.289V296.303L363.26 299.73V301ZM427.498 202.802C430.735 202.802 433.147 200.58 433.147 197.279C433.147 194.042 430.735 191.693 427.498 191.693C424.197 191.693 421.785 194.042 421.785 197.279C421.785 200.58 424.197 202.802 427.498 202.802ZM413.533 301H441.463V299.73L432.132 296.303V214.354L441.463 210.927V209.657H413.533V210.927L422.864 214.354V296.366L413.533 299.73V301ZM506.463 302.523C525.125 302.523 540.296 282.528 540.296 255.614C540.296 226.288 523.855 208.197 505.638 208.197C494.783 208.197 484.5 215.37 478.66 225.844L479.612 227.05C485.389 218.861 491.355 212.577 504.559 212.577C520.936 212.577 529.949 230.922 529.949 257.138C529.949 259.359 529.949 260.756 529.759 263.231H477.01C477.01 284.813 488.245 302.523 506.463 302.523ZM506.844 299.921C494.656 299.921 487.039 287.226 487.039 267.104L529.695 264.945C528.489 285.004 519.603 299.921 506.844 299.921ZM546.199 301H573.875V299.73L564.798 296.303V212.069H576.287C588.665 212.069 593.68 220.448 593.68 232.636C593.68 247.553 587.967 255.868 574.51 255.868H568.797V258.28H574.192C576.033 258.28 578.064 258.153 580.032 257.836L598.948 301H614.31L614.246 299.73L607.2 295.858L589.935 258.725C588.602 258.788 586.126 258.28 583.714 257.646V257.328C594.759 255.17 604.026 247.426 604.026 232.255C604.026 218.671 595.33 209.657 579.271 209.657H546.199V210.927L555.53 214.354V296.366L546.199 299.73V301ZM684.515 296.303L657.981 209.657H645.096V210.927L650.11 217.274L626.751 296.303L616.849 299.73V301H640.779V299.73L629.036 296.303L636.653 270.341H666.995L674.676 296.303L665.789 299.73V301H693.973V299.73L684.515 296.303ZM637.352 267.929L651.761 218.988L666.297 267.929H637.352ZM699.749 301H755.608L757.576 279.735L757.068 279.608L747.356 298.651H710.667L755.101 211.244L754.974 209.657H703.494L701.526 230.922H702.098L711.683 212.069H743.802L699.559 299.477L699.749 301ZM777.508 202.802C780.745 202.802 783.157 200.58 783.157 197.279C783.157 194.042 780.745 191.693 777.508 191.693C774.207 191.693 771.795 194.042 771.795 197.279C771.795 200.58 774.207 202.802 777.508 202.802ZM763.543 301H791.473V299.73L782.142 296.303V214.354L791.473 210.927V209.657H763.543V210.927L772.874 214.354V296.366L763.543 299.73V301ZM897.415 255.487C897.415 227.177 883.323 208.197 862.186 208.197C841.111 208.197 827.02 227.113 827.02 255.487C827.02 283.227 840.604 301.889 861.106 302.523L885.545 324.613L894.876 320.36V319.599L868.66 301.889C886.116 298.461 897.415 280.688 897.415 255.487ZM837.366 255.487C837.366 228.573 847.269 210.609 862.186 210.609C877.229 210.609 887.132 228.637 887.132 255.487C887.132 282.211 877.229 300.175 862.186 300.175C847.269 300.175 837.366 282.274 837.366 255.487ZM939.246 302.523C957.972 302.523 965.589 289.511 965.589 269.706V215.053L976.634 210.863V209.657H952.322V210.863L963.431 215.053V270.722C963.431 286.654 957.4 300.175 941.658 300.175C928.772 300.175 920.076 289.638 920.076 270.722V214.354L929.534 210.927V209.657H901.478V210.927L910.809 214.354V271.61C910.809 291.859 923.06 302.523 939.246 302.523ZM979.871 301H1007.55V299.73L998.47 296.303V212.069H1009.96C1022.34 212.069 1027.35 220.448 1027.35 232.636C1027.35 247.553 1021.64 255.868 1008.18 255.868H1002.47V258.28H1007.86C1009.71 258.28 1011.74 258.153 1013.7 257.836L1032.62 301H1047.98L1047.92 299.73L1040.87 295.858L1023.61 258.725C1022.27 258.788 1019.8 258.28 1017.39 257.646V257.328C1028.43 255.17 1037.7 247.426 1037.7 232.255C1037.7 218.671 1029 209.657 1012.94 209.657H979.871V210.927L989.202 214.354V296.366L979.871 299.73V301ZM1090.32 302.523C1109.05 302.523 1116.66 289.511 1116.66 269.706V215.053L1127.71 210.863V209.657H1103.4V210.863L1114.5 215.053V270.722C1114.5 286.654 1108.47 300.175 1092.73 300.175C1079.85 300.175 1071.15 289.638 1071.15 270.722V214.354L1080.61 210.927V209.657H1052.55V210.927L1061.88 214.354V271.61C1061.88 291.859 1074.13 302.523 1090.32 302.523ZM1130.95 301H1182.74L1185.47 278.72L1184.96 278.593L1174.43 298.588H1149.48V214.354L1159.95 210.927V209.657H1130.95V210.927L1140.21 214.354V296.366L1130.95 299.73V301ZM1226.92 302.523C1245.65 302.523 1253.26 289.511 1253.26 269.706V215.053L1264.31 210.863V209.657H1240V210.863L1251.11 215.053V270.722C1251.11 286.654 1245.08 300.175 1229.33 300.175C1216.45 300.175 1207.75 289.638 1207.75 270.722V214.354L1217.21 210.927V209.657H1189.15V210.927L1198.48 214.354V271.61C1198.48 291.859 1210.74 302.523 1226.92 302.523ZM1316.8 278.466C1316.8 263.93 1305.95 256.249 1296.43 250.155L1292.87 247.87C1284.24 242.348 1279.04 238.031 1279.04 228.002C1279.04 217.338 1284.56 210.609 1292.3 210.609C1303.86 210.609 1309.31 219.306 1314.14 237.523H1314.84L1313.44 215.814C1307.66 211.562 1299.98 208.197 1293.38 208.197C1279.67 208.197 1269.58 216.068 1269.58 230.287C1269.58 244.062 1279.92 250.663 1287.8 255.805L1290.91 257.836C1299.48 263.422 1307.22 268.5 1307.22 281.068C1307.22 293.192 1301.32 300.111 1291.22 300.111C1281.32 300.111 1274.4 292.685 1269.45 273.261H1268.75L1269.9 295.097C1274.72 298.334 1282.15 302.143 1289.89 302.523L1286.59 310.268L1286.72 311.156C1288.3 311.981 1292.75 312.997 1292.75 318.646C1292.75 323.217 1290.27 327.787 1285 329.247V329.945C1293.06 329.247 1299.98 324.042 1299.98 317.377C1299.98 310.521 1293.13 308.427 1289.89 307.538L1291.54 302.523C1304.68 302.333 1316.8 295.478 1316.8 278.466ZM1361.24 302.523C1379.96 302.523 1387.58 289.511 1387.58 269.706V215.053L1398.63 210.863V209.657H1374.31V210.863L1385.42 215.053V270.722C1385.42 286.654 1379.39 300.175 1363.65 300.175C1350.76 300.175 1342.07 289.638 1342.07 270.722V214.354L1351.53 210.927V209.657H1323.47V210.927L1332.8 214.354V271.61C1332.8 291.859 1345.05 302.523 1361.24 302.523ZM1464.71 302.079L1467.24 301V215.053L1478.04 210.863V209.657H1454.23V210.863L1465.02 215.053V286.146L1418.18 209.657H1401.86V210.927L1412.53 214.354V295.604L1401.86 299.73V301H1425.41V299.73L1414.69 295.604V221.527L1464.71 302.079ZM1481.21 301H1514.72C1537.96 301 1552.18 283.861 1552.18 255.233C1552.18 226.732 1537.89 209.657 1515.55 209.657H1481.21V210.927L1490.54 214.228V296.366L1481.21 299.73V301ZM1499.81 298.588V212.069H1514.28C1532.43 212.069 1541.77 227.05 1541.77 256.059C1541.77 283.1 1533.07 298.588 1513.39 298.588H1499.81ZM1617.24 296.303L1590.71 209.657H1577.82V210.927L1582.83 217.274L1559.48 296.303L1549.57 299.73V301H1573.5V299.73L1561.76 296.303L1569.38 270.341H1599.72L1607.4 296.303L1598.51 299.73V301H1626.7V299.73L1617.24 296.303ZM1570.08 267.929L1584.49 218.988L1599.02 267.929H1570.08Z" fill="white"></path> </g> <defs> <filter id="filter0_b" x="-3.95312" y="-3.55957" width="1787.88" height="337.505" filterUnits="userSpaceOnUse" color-interpolation-filters="sRGB"> <feFlood flood-opacity="0" result="BackgroundImageFix"></feFlood> <feGaussianBlur in="BackgroundImage" stdDeviation="2"></feGaussianBlur> <feComposite in2="SourceAlpha" operator="in" result="effect1_backgroundBlur"></feComposite> <feBlend mode="normal" in="SourceGraphic" in2="effect1_backgroundBlur" result="shape"></feBlend> </filter> </defs> </svg> 