<?xml version="1.0" encoding="UTF-8"?> <svg xmlns="http://www.w3.org/2000/svg" width="310" height="61" viewBox="0 0 310 61" fill="none"> <path d="M23.7012 60.9844C27.7617 60.9844 32.1094 60.3691 38.8359 56.0625L39.7383 41.625H39.123C36.293 52.7812 32.7656 59.4668 23.9883 59.4668C12.9141 59.4668 6.76172 47.5723 6.76172 30.5508C6.76172 14.0625 12.5039 1.59375 23.4141 1.59375C33.627 1.59375 36.457 8.93555 39.123 19.3945H39.7383L38.8359 4.95703C32.1094 0.609375 27.7617 0.0351562 24.0293 0.0351562C9.18164 0.0351562 0.0351562 12.873 0.0351562 30.5508C0.0351562 48.1465 9.46875 60.9844 23.7012 60.9844ZM87.0293 56.9648L69.8848 0.978516H61.5586V1.79883L64.7988 5.90039L49.7051 56.9648L43.3066 59.1797V60H58.7695V59.1797L51.1816 56.9648L56.1035 40.1895H75.709L80.6719 56.9648L74.9297 59.1797V60H93.1406V59.1797L87.0293 56.9648ZM56.5547 38.6309L65.8652 7.00781L75.2578 38.6309H56.5547ZM95.6836 60H114.387V59.1797L107.66 56.9648V2.53711H114.059C121.236 2.53711 125.912 7.04883 125.912 17.8359C125.912 27.8027 121.77 34.0371 114.387 34.0371H110.818V35.5957H114.469C125.625 35.5957 132.557 29.4844 132.557 17.8359C132.557 8.2793 127.225 0.978516 116.15 0.978516H95.6836V1.79883L101.672 4.01367V57.0059L95.6836 59.1797V60ZM169.389 56.9648L152.244 0.978516H143.918V1.79883L147.158 5.90039L132.064 56.9648L125.666 59.1797V60H141.129V59.1797L133.541 56.9648L138.463 40.1895H158.068L163.031 56.9648L157.289 59.1797V60H175.5V59.1797L169.389 56.9648ZM138.914 38.6309L148.225 7.00781L157.617 38.6309H138.914ZM178.043 60H214.342L216.188 45.6035L215.859 45.5215L208.969 58.4414H190.102V30.5098H200.93L204.457 38.1797H205.031V21.1992H204.457L200.93 28.9512H190.102V2.53711H206.631L211.676 15.375H211.963V0.978516H178.084V1.79883L184.113 4.01367V57.0059L178.043 59.1797V60ZM218.977 60H238.131C250.436 60 257.736 55.0371 257.736 44.127C257.736 36.5801 253.553 30.3867 245.514 29.2383V29.0742C252.076 27.2285 255.809 21.7324 255.809 14.8418C255.809 7.5 251.051 0.978516 239.73 0.978516H218.977V1.79883L225.047 4.01367V56.9648L218.977 59.1797V60ZM231.035 28.6641V2.53711H238.172C245.555 2.53711 249.205 7.29492 249.205 15.375C249.205 22.6348 246.129 28.6641 238.992 28.6641H231.035ZM231.035 58.4414V30.2227H239.279C247.4 30.2227 251.051 35.5957 251.051 44.127C251.051 52.7402 247.195 58.4414 238.91 58.4414H231.035ZM286.406 60.9844C300.064 60.9844 309.17 48.8027 309.17 30.5918C309.17 12.2988 300.064 0.0351562 286.406 0.0351562C272.789 0.0351562 263.684 12.2578 263.684 30.5918C263.684 48.8438 272.789 60.9844 286.406 60.9844ZM286.406 59.4668C276.768 59.4668 270.369 47.9004 270.369 30.5918C270.369 13.2012 276.768 1.59375 286.406 1.59375C296.127 1.59375 302.525 13.2422 302.525 30.5918C302.525 47.8594 296.127 59.4668 286.406 59.4668Z" fill="black"></path> </svg> 