<?xml version="1.0" encoding="UTF-8"?> <svg xmlns="http://www.w3.org/2000/svg" width="896" height="271" viewBox="0 0 896 271" fill="none"> <path d="M0.96875 74H19.959V73.1797L12.9453 70.9648V16.4961H28.5723L33.6172 29.375H33.9043V14.9785H0.96875V15.7988L6.95703 18.0137V71.0059L0.96875 73.1797V74ZM38.7031 74H75.002L76.8477 59.6035L76.5195 59.5215L69.6289 72.4414H50.7617V44.5098H61.5898L65.1172 52.1797H65.6914V35.1992H65.1172L61.5898 42.9512H50.7617V16.5371H67.291L72.3359 29.375H72.623V14.9785H38.7441V15.7988L44.7734 18.0137V71.0059L38.7031 73.1797V74ZM104.861 10.7949C109.66 10.7949 111.957 5.54492 112.039 0.828125L111.588 0.623047C111.055 4.02734 109.004 6.16016 104.861 6.16016C100.76 6.16016 98.75 4.02734 98.2168 0.623047L97.7656 0.828125C97.8477 5.70898 100.227 10.7949 104.861 10.7949ZM124.057 70.9648V18.0137L130.168 15.7988V14.9785H112.039V15.7988L118.15 18.0137V22.0332L91.6543 62.1875V18.0137L97.7656 15.7988V14.9785H79.6367V15.7988L85.666 18.0137V71.0059L79.6367 73.1797V74H97.7656V73.1797L91.6543 70.9648V64.7715L118.15 24.6172V71.0059L112.121 73.1797V74H130.25V73.1797L124.057 70.9648ZM132.957 86.8379H133.285L138.453 74H177.828L182.996 86.8379H183.283V72.4824H176.516V18.0137L182.545 15.7988V14.9785H140.996V15.7988L147.887 18.0137C147.928 37.4961 147.928 64.3613 136.566 72.4824H132.957V86.8379ZM139.15 72.4824C149.979 62.8027 149.445 35.4453 149.527 16.4961H170.568V72.4824H139.15ZM228.811 70.9648L211.666 14.9785H203.34V15.7988L206.58 19.9004L191.486 70.9648L185.088 73.1797V74H200.551V73.1797L192.963 70.9648L197.885 54.1895H217.49L222.453 70.9648L216.711 73.1797V74H234.922V73.1797L228.811 70.9648ZM198.336 52.6309L207.646 21.0078L217.039 52.6309H198.336ZM237.465 74H256.168V73.1797L249.441 70.9648V16.5371H255.84C263.018 16.5371 267.693 21.0488 267.693 31.8359C267.693 41.8027 263.551 48.0371 256.168 48.0371H252.6V49.5957H256.25C267.406 49.5957 274.338 43.4844 274.338 31.8359C274.338 22.2793 269.006 14.9785 257.932 14.9785H237.465V15.7988L243.453 18.0137V71.0059L237.465 73.1797V74ZM337.338 70.9648L320.193 14.9785H311.867V15.7988L315.107 19.9004L300.014 70.9648L293.615 73.1797V74H309.078V73.1797L301.49 70.9648L306.412 54.1895H326.018L330.98 70.9648L325.238 73.1797V74H343.449V73.1797L337.338 70.9648ZM306.863 52.6309L316.174 21.0078L325.566 52.6309H306.863ZM350.75 74.9844C362.686 74.9844 362.357 36.7168 362.357 16.4961H384.383V71.0059L378.354 73.1797V74H396.482V73.1797L390.289 70.9648V18.0137L396.4 15.7988V14.9785H353.867V15.7988L360.758 18.0137C360.758 35.1992 360.799 73.4668 350.955 73.4668C348.617 73.4668 346.525 67.4785 345.459 64.1973H344.885L344.762 72.9336C346.074 74.1641 347.715 74.9844 350.75 74.9844ZM444.881 70.9648V18.0137L450.992 15.7988V14.9785H432.863V15.7988L438.975 18.0137V22.0332L412.479 62.1875V18.0137L418.59 15.7988V14.9785H400.461V15.7988L406.49 18.0137V71.0059L400.461 73.1797V74H418.59V73.1797L412.479 70.9648V64.7715L438.975 24.6172V71.0059L432.945 73.1797V74H451.074V73.1797L444.881 70.9648ZM455.012 74H491.311L493.156 59.6035L492.828 59.5215L485.938 72.4414H467.07V44.5098H477.898L481.426 52.1797H482V35.1992H481.426L477.898 42.9512H467.07V16.5371H483.6L488.645 29.375H488.932V14.9785H455.053V15.7988L461.082 18.0137V71.0059L455.012 73.1797V74ZM495.945 74H515.1C527.404 74 534.705 69.0371 534.705 58.127C534.705 50.5801 530.521 44.3867 522.482 43.2383V43.0742C529.045 41.2285 532.777 35.7324 532.777 28.8418C532.777 21.5 528.02 14.9785 516.699 14.9785H495.945V15.7988L502.016 18.0137V70.9648L495.945 73.1797V74ZM508.004 42.6641V16.5371H515.141C522.523 16.5371 526.174 21.2949 526.174 29.375C526.174 36.6348 523.098 42.6641 515.961 42.6641H508.004ZM508.004 72.4414V44.2227H516.248C524.369 44.2227 528.02 49.5957 528.02 58.127C528.02 66.7402 524.164 72.4414 515.879 72.4414H508.004ZM45.3887 162.965V110.014L51.5 107.799V106.979H33.3711V107.799L39.4824 110.014V114.033L12.9863 154.188V110.014L19.0977 107.799V106.979H0.96875V107.799L6.99805 110.014V163.006L0.96875 165.18V166H19.0977V165.18L12.9863 162.965V156.771L39.4824 116.617V163.006L33.4531 165.18V166H51.582V165.18L45.3887 162.965ZM112.244 162.965L93.5 132.654L107.896 113.459L116.387 113.336H116.838L116.879 106.979H116.1C110.809 106.979 108.84 109.439 105.271 114.115L89.9316 134.131H85.9121V110.014L92.3926 107.799V106.979H73.4844V107.799L79.9238 110.014V163.006L73.4844 165.18V166H92.3926V165.18L85.9121 162.965V135.771H88.5371L107.076 166H118.396V164.77L112.244 162.965ZM163.924 162.965L146.779 106.979H138.453V107.799L141.693 111.9L126.6 162.965L120.201 165.18V166H135.664V165.18L128.076 162.965L132.998 146.189H152.604L157.566 162.965L151.824 165.18V166H170.035V165.18L163.924 162.965ZM133.449 144.631L142.76 113.008L152.152 144.631H133.449ZM172.578 166H191.281V165.18L184.555 162.965V108.537H190.953C198.131 108.537 202.807 113.049 202.807 123.836C202.807 133.803 198.664 140.037 191.281 140.037H187.713V141.596H191.363C202.52 141.596 209.451 135.484 209.451 123.836C209.451 114.279 204.119 106.979 193.045 106.979H172.578V107.799L178.566 110.014V163.006L172.578 165.18V166ZM246.283 162.965L229.139 106.979H220.812V107.799L224.053 111.9L208.959 162.965L202.561 165.18V166H218.023V165.18L210.436 162.965L215.357 146.189H234.963L239.926 162.965L234.184 165.18V166H252.395V165.18L246.283 162.965ZM215.809 144.631L225.119 113.008L234.512 144.631H215.809ZM255.061 166H274.092C286.396 166 293.697 161.037 293.697 150.127C293.697 139.012 285.371 134.664 275.24 134.664H266.996V108.496H283.361L288.447 121.375H288.693V106.979H254.938V107.799L261.008 110.014V163.047L255.061 165.18V166ZM266.996 164.482V136.223H275.24C283.361 136.223 287.053 141.596 287.053 150.127C287.053 158.74 283.156 164.482 274.871 164.482H266.996ZM340.537 162.965L323.393 106.979H315.066V107.799L318.307 111.9L303.213 162.965L296.814 165.18V166H312.277V165.18L304.689 162.965L309.611 146.189H329.217L334.18 162.965L328.438 165.18V166H346.648V165.18L340.537 162.965ZM310.062 144.631L319.373 113.008L328.766 144.631H310.062ZM390.617 162.965L374.826 133.434L388.812 110.014L395.211 107.84V106.979H380.691V107.84L387.09 110.014L374.088 132.039L362.604 110.014L368.674 107.84V106.979H350.176V107.84L355.508 110.014L369.945 136.961L355.139 162.965L348.781 165.139V166H363.178V165.139L356.82 162.965L370.766 138.396L383.604 162.965L377.574 165.139V166H395.99V165.139L390.617 162.965ZM417.318 166.984C421.379 166.984 425.727 166.369 432.453 162.062L433.355 147.625H432.74C429.91 158.781 426.383 165.467 417.605 165.467C406.531 165.467 400.379 153.572 400.379 136.551C400.379 120.062 406.121 107.594 417.031 107.594C427.244 107.594 430.074 114.936 432.74 125.395H433.355L432.453 110.957C425.727 106.609 421.379 106.035 417.646 106.035C402.799 106.035 393.652 118.873 393.652 136.551C393.652 154.146 403.086 166.984 417.318 166.984ZM477.447 162.965L458.703 132.654L473.1 113.459L481.59 113.336H482.041L482.082 106.979H481.303C476.012 106.979 474.043 109.439 470.475 114.115L455.135 134.131H451.115V110.014L457.596 107.799V106.979H438.688V107.799L445.127 110.014V163.006L438.688 165.18V166H457.596V165.18L451.115 162.965V135.771H453.74L472.279 166H483.6V164.77L477.447 162.965ZM531.588 162.965V110.014L537.699 107.799V106.979H519.57V107.799L525.682 110.014V114.033L499.186 154.188V110.014L505.297 107.799V106.979H487.168V107.799L493.197 110.014V163.006L487.168 165.18V166H505.297V165.18L499.186 162.965V156.771L525.682 116.617V163.006L519.652 165.18V166H537.781V165.18L531.588 162.965ZM566.943 102.795C571.742 102.795 574.039 97.5449 574.121 92.8281L573.67 92.623C573.137 96.0273 571.086 98.1602 566.943 98.1602C562.842 98.1602 560.832 96.0273 560.299 92.623L559.848 92.8281C559.93 97.709 562.309 102.795 566.943 102.795ZM586.139 162.965V110.014L592.25 107.799V106.979H574.121V107.799L580.232 110.014V114.033L553.736 154.188V110.014L559.848 107.799V106.979H541.719V107.799L547.748 110.014V163.006L541.719 165.18V166H559.848V165.18L553.736 162.965V156.771L580.232 116.617V163.006L574.203 165.18V166H592.332V165.18L586.139 162.965ZM614.234 166H633.389C645.693 166 652.994 161.037 652.994 150.127C652.994 142.58 648.811 136.387 640.771 135.238V135.074C647.334 133.229 651.066 127.732 651.066 120.842C651.066 113.5 646.309 106.979 634.988 106.979H614.234V107.799L620.305 110.014V162.965L614.234 165.18V166ZM626.293 134.664V108.537H633.43C640.812 108.537 644.463 113.295 644.463 121.375C644.463 128.635 641.387 134.664 634.25 134.664H626.293ZM626.293 164.441V136.223H634.537C642.658 136.223 646.309 141.596 646.309 150.127C646.309 158.74 642.453 164.441 634.168 164.441H626.293ZM681.664 166.984C695.322 166.984 704.428 154.803 704.428 136.592C704.428 118.299 695.322 106.035 681.664 106.035C668.047 106.035 658.941 118.258 658.941 136.592C658.941 154.844 668.047 166.984 681.664 166.984ZM681.664 165.467C672.025 165.467 665.627 153.9 665.627 136.592C665.627 119.201 672.025 107.594 681.664 107.594C691.385 107.594 697.783 119.242 697.783 136.592C697.783 153.859 691.385 165.467 681.664 165.467ZM708.242 166H726.371V165.18L720.26 162.965V108.496H746.756V163.006L740.727 165.18V166H758.855V165.18L752.662 162.965V110.014L758.773 107.799V106.979H708.242V107.799L714.271 110.014V163.006L708.242 165.18V166ZM762.793 166H781.496V165.18L774.77 162.965V108.537H781.168C788.346 108.537 793.021 113.049 793.021 123.836C793.021 133.803 788.879 140.037 781.496 140.037H777.928V141.596H781.578C792.734 141.596 799.666 135.484 799.666 123.836C799.666 114.279 794.334 106.979 783.26 106.979H762.793V107.799L768.781 110.014V163.006L762.793 165.18V166ZM826.531 166.984C840.189 166.984 849.295 154.803 849.295 136.592C849.295 118.299 840.189 106.035 826.531 106.035C812.914 106.035 803.809 118.258 803.809 136.592C803.809 154.844 812.914 166.984 826.531 166.984ZM826.531 165.467C816.893 165.467 810.494 153.9 810.494 136.592C810.494 119.201 816.893 107.594 826.531 107.594C836.252 107.594 842.65 119.242 842.65 136.592C842.65 153.859 836.252 165.467 826.531 165.467ZM879.072 166.984C883.133 166.984 887.48 166.369 894.207 162.062L895.109 147.625H894.494C891.664 158.781 888.137 165.467 879.359 165.467C868.285 165.467 862.133 153.572 862.133 136.551C862.133 120.062 867.875 107.594 878.785 107.594C888.998 107.594 891.828 114.936 894.494 125.395H895.109L894.207 110.957C887.48 106.609 883.133 106.035 879.4 106.035C864.553 106.035 855.406 118.873 855.406 136.551C855.406 154.146 864.84 166.984 879.072 166.984ZM0.96875 258H20.123C32.4277 258 39.7285 253.037 39.7285 242.127C39.7285 234.58 35.5449 228.387 27.5059 227.238V227.074C34.0684 225.229 37.8008 219.732 37.8008 212.842C37.8008 205.5 33.043 198.979 21.7227 198.979H0.96875V199.799L7.03906 202.014V254.965L0.96875 257.18V258ZM13.0273 226.664V200.537H20.1641C27.5469 200.537 31.1973 205.295 31.1973 213.375C31.1973 220.635 28.1211 226.664 20.9844 226.664H13.0273ZM13.0273 256.441V228.223H21.2715C29.3926 228.223 33.043 233.596 33.043 242.127C33.043 250.74 29.1875 256.441 20.9023 256.441H13.0273ZM63.5176 258H81.7695V257.18L75.8223 254.965V198.035H75.4121L64.543 206.033V206.566H69.834V254.965L63.5176 257.18V258ZM102.646 198.035C93.0898 198.035 85.9531 206.607 85.9531 218.707C85.9531 229.617 92.0234 236.918 100.186 236.918C105.189 236.918 109.004 234.129 111.629 229.986C109.496 241.594 103.754 251.027 92.3105 258.082L92.7207 258.984C111.506 251.355 119.258 236.303 119.258 220.307C119.258 207.469 112.531 198.035 102.646 198.035ZM102.564 199.553C109.455 199.553 112.654 208.289 112.654 218.707C112.654 221.578 112.449 224.654 111.998 227.402C109.783 231.873 106.379 234.088 102.564 234.088C96.084 234.088 92.5156 227.977 92.5156 217.436C92.5156 206.689 96.2891 199.553 102.564 199.553ZM129.184 258H135.787C140.791 236.918 148.338 218.133 155.721 201.275L155.393 198.979H125.656V203.859H152.521C142.514 224.244 133.777 240.855 129.184 257.18V258ZM178.443 258.984C190.625 258.984 197.885 247.705 197.885 228.592C197.885 209.396 190.625 198.035 178.443 198.035C166.262 198.035 159.043 209.438 159.043 228.592C159.043 247.664 166.262 258.984 178.443 258.984ZM178.443 257.467C169.994 257.467 165.646 247.541 165.646 228.592C165.646 209.561 169.994 199.594 178.443 199.594C186.893 199.594 191.281 209.561 191.281 228.592C191.281 247.541 186.893 257.467 178.443 257.467ZM204.98 236.836H218.352V235.4H204.98V236.836ZM245.463 225.844C253.256 223.383 256.455 217.518 256.455 211.693C256.455 203.49 250.549 198.035 242.182 198.035C233.568 198.035 227.662 204.064 227.662 212.76C227.662 219.281 230.533 223.957 238.039 228.305C229.836 230.561 225.816 237.123 225.816 244.26C225.816 253.201 232.461 258.984 242.1 258.984C251.451 258.984 258.465 253.365 258.465 243.275C258.465 236.59 255.717 231.381 245.463 225.844ZM233.281 211.037C233.281 204.105 236.521 199.553 242.428 199.553C248.17 199.553 251.287 204.188 251.287 211.365C251.287 216.779 249.523 221.988 244.479 225.311C237.096 221.25 233.281 217.723 233.281 211.037ZM242.059 257.467C235.086 257.467 231.025 252.463 231.025 244.465C231.025 237.943 233.322 232.078 239.188 228.961C241.812 230.314 253.01 234.744 253.01 244.998C253.01 252.668 248.867 257.467 242.059 257.467ZM284.346 258.984C296.527 258.984 303.787 247.705 303.787 228.592C303.787 209.396 296.527 198.035 284.346 198.035C272.164 198.035 264.945 209.438 264.945 228.592C264.945 247.664 272.164 258.984 284.346 258.984ZM284.346 257.467C275.896 257.467 271.549 247.541 271.549 228.592C271.549 209.561 275.896 199.594 284.346 199.594C292.795 199.594 297.184 209.561 297.184 228.592C297.184 247.541 292.795 257.467 284.346 257.467ZM310.883 236.836H324.254V235.4H310.883V236.836ZM330.242 258H366.541L368.387 243.604L368.059 243.521L361.168 256.441H342.301V228.51H353.129L356.656 236.18H357.23V219.199H356.656L353.129 226.951H342.301V200.537H358.83L363.875 213.375H364.162V198.979H330.283V199.799L336.312 202.014V255.006L330.242 257.18V258ZM389.141 258H408.131V257.18L401.117 254.965V200.496H416.744L421.789 213.375H422.076V198.979H389.141V199.799L395.129 202.014V255.006L389.141 257.18V258ZM447.055 258.984C460.713 258.984 469.818 246.803 469.818 228.592C469.818 210.299 460.713 198.035 447.055 198.035C433.438 198.035 424.332 210.258 424.332 228.592C424.332 246.844 433.438 258.984 447.055 258.984ZM447.055 257.467C437.416 257.467 431.018 245.9 431.018 228.592C431.018 211.201 437.416 199.594 447.055 199.594C456.775 199.594 463.174 211.242 463.174 228.592C463.174 245.859 456.775 257.467 447.055 257.467ZM470.434 270.838H470.762L475.93 258H515.305L520.473 270.838H520.76V256.482H513.992V202.014L520.021 199.799V198.979H478.473V199.799L485.363 202.014C485.404 221.496 485.404 248.361 474.043 256.482H470.434V270.838ZM476.627 256.482C487.455 246.803 486.922 219.445 487.004 200.496H508.045V256.482H476.627ZM524.328 258H543.4C555.705 258 563.006 253.037 563.006 242.127C563.006 231.012 554.639 226.664 544.549 226.664H536.305V202.014L542.334 199.799V198.979H524.328V199.799L530.316 202.014V255.047L524.328 257.18V258ZM565.877 258H583.924V257.18L577.895 254.965V202.014L583.924 199.799V198.979H565.877V199.799L571.906 202.014V255.006L565.877 257.18V258ZM536.305 256.482V228.223H544.549C552.67 228.223 556.361 233.596 556.361 242.127C556.361 250.74 552.465 256.482 544.18 256.482H536.305Z" fill="white"></path> </svg> 