<?xml version="1.0" encoding="UTF-8"?> <svg xmlns="http://www.w3.org/2000/svg" width="1817" height="651" viewBox="0 0 1817 651" fill="none"> <g filter="url(#filter0_b)"> <path d="M60.3516 100.664L37.793 58.4766L57.7734 25.0195L66.9141 21.9141V20.6836H46.1719V21.9141L55.3125 25.0195L36.7383 56.4844L20.332 25.0195L29.0039 21.9141V20.6836H2.57812V21.9141L10.1953 25.0195L30.8203 63.5156L9.66797 100.664L0.585938 103.77V105H21.1523V103.77L12.0703 100.664L31.9922 65.5664L50.332 100.664L41.7188 103.77V105H68.0273V103.77L60.3516 100.664ZM71.4844 105H97.2656V103.828L88.6523 100.664V25.0195L97.2656 21.8555V20.6836H71.4844V21.8555L80.0977 25.0195V100.723L71.4844 103.828V105ZM160.43 100.664L137.871 58.4766L157.852 25.0195L166.992 21.9141V20.6836H146.25V21.9141L155.391 25.0195L136.816 56.4844L120.41 25.0195L129.082 21.9141V20.6836H102.656V21.9141L110.273 25.0195L130.898 63.5156L109.746 100.664L100.664 103.77V105H121.23V103.77L112.148 100.664L132.07 65.5664L150.41 100.664L141.797 103.77V105H168.105V103.77L160.43 100.664ZM174.492 74.7656H193.594V72.7148H174.492V74.7656ZM259.688 100.664L237.129 58.4766L257.109 25.0195L266.25 21.9141V20.6836H245.508V21.9141L254.648 25.0195L236.074 56.4844L219.668 25.0195L228.34 21.9141V20.6836H201.914V21.9141L209.531 25.0195L230.156 63.5156L209.004 100.664L199.922 103.77V105H220.488V103.77L211.406 100.664L231.328 65.5664L249.668 100.664L241.055 103.77V105H267.363V103.77L259.688 100.664ZM328.359 100.664L305.801 58.4766L325.781 25.0195L334.922 21.9141V20.6836H314.18V21.9141L323.32 25.0195L304.746 56.4844L288.34 25.0195L297.012 21.9141V20.6836H270.586V21.9141L278.203 25.0195L298.828 63.5156L277.676 100.664L268.594 103.77V105H289.16V103.77L280.078 100.664L300 65.5664L318.34 100.664L309.727 103.77V105H336.035V103.77L328.359 100.664ZM391.641 106.406C408.867 106.406 422.871 87.9492 422.871 63.1055C422.871 36.0352 407.695 19.3359 390.879 19.3359C380.859 19.3359 371.367 25.957 365.977 35.625L366.855 36.7383C372.188 29.1797 377.695 23.3789 389.883 23.3789C405 23.3789 413.32 40.3125 413.32 64.5117C413.32 66.5625 413.32 67.8516 413.145 70.1367H364.453C364.453 90.0586 374.824 106.406 391.641 106.406ZM391.992 104.004C380.742 104.004 373.711 92.2852 373.711 73.7109L413.086 71.7188C411.973 90.2344 403.77 104.004 391.992 104.004ZM451.758 106.406C464.062 106.406 475.547 100.137 475.547 84.1992C475.547 70.7812 465.527 63.6914 456.738 58.0664L453.457 55.957C445.488 50.8594 440.684 46.875 440.684 37.6172C440.684 27.7734 445.781 21.5625 452.93 21.5625C463.594 21.5625 468.633 29.5898 473.086 46.4062H473.73L472.441 26.3672C467.109 22.4414 460.02 19.3359 453.926 19.3359C441.27 19.3359 431.953 26.6016 431.953 39.7266C431.953 52.4414 441.504 58.5352 448.77 63.2812L451.641 65.1562C459.551 70.3125 466.699 75 466.699 86.6016C466.699 97.793 461.25 104.18 451.934 104.18C442.793 104.18 436.406 97.3242 431.836 79.3945H431.191L432.246 99.5508C436.934 102.656 444.199 106.406 451.758 106.406ZM482.344 105H507.891V103.828L499.512 100.664V22.9102H510.117C521.543 22.9102 526.172 30.6445 526.172 41.8945C526.172 55.6641 520.898 63.3398 508.477 63.3398H503.203V65.5664H508.184C509.883 65.5664 511.758 65.4492 513.574 65.1562L531.035 105H545.215L545.156 103.828L538.652 100.254L522.715 65.9766C521.484 66.0352 519.199 65.5664 516.973 64.9805V64.6875C527.168 62.6953 535.723 55.5469 535.723 41.543C535.723 29.0039 527.695 20.6836 512.871 20.6836H482.344V21.8555L490.957 25.0195V100.723L482.344 103.828V105ZM550.078 105H597.891L600.41 84.4336L599.941 84.3164L590.215 102.773H567.188V25.0195L576.855 21.8555V20.6836H550.078V21.8555L558.633 25.0195V100.723L550.078 103.828V105ZM631.992 106.406C649.219 106.406 663.223 87.9492 663.223 63.1055C663.223 36.0352 648.047 19.3359 631.23 19.3359C621.211 19.3359 611.719 25.957 606.328 35.625L607.207 36.7383C612.539 29.1797 618.047 23.3789 630.234 23.3789C645.352 23.3789 653.672 40.3125 653.672 64.5117C653.672 66.5625 653.672 67.8516 653.496 70.1367H604.805C604.805 90.0586 615.176 106.406 631.992 106.406ZM632.344 104.004C621.094 104.004 614.062 92.2852 614.062 73.7109L653.438 71.7188C652.324 90.2344 644.121 104.004 632.344 104.004ZM668.672 105H694.219V103.828L685.84 100.664V22.9102H696.445C707.871 22.9102 712.5 30.6445 712.5 41.8945C712.5 55.6641 707.227 63.3398 694.805 63.3398H689.531V65.5664H694.512C696.211 65.5664 698.086 65.4492 699.902 65.1562L717.363 105H731.543L731.484 103.828L724.98 100.254L709.043 65.9766C707.812 66.0352 705.527 65.5664 703.301 64.9805V64.6875C713.496 62.6953 722.051 55.5469 722.051 41.543C722.051 29.0039 714.023 20.6836 699.199 20.6836H668.672V21.8555L677.285 25.0195V100.723L668.672 103.828V105ZM736.406 105H767.344C788.789 105 801.914 89.1797 801.914 62.7539C801.914 36.4453 788.73 20.6836 768.105 20.6836H736.406V21.8555L745.02 24.9023V100.723L736.406 103.828V105ZM753.574 102.773V22.9102H766.934C783.691 22.9102 792.305 36.7383 792.305 63.5156C792.305 88.4766 784.277 102.773 766.113 102.773H753.574ZM837.773 106.406C855 106.406 869.004 87.9492 869.004 63.1055C869.004 36.0352 853.828 19.3359 837.012 19.3359C826.992 19.3359 817.5 25.957 812.109 35.625L812.988 36.7383C818.32 29.1797 823.828 23.3789 836.016 23.3789C851.133 23.3789 859.453 40.3125 859.453 64.5117C859.453 66.5625 859.453 67.8516 859.277 70.1367H810.586C810.586 90.0586 820.957 106.406 837.773 106.406ZM838.125 104.004C826.875 104.004 819.844 92.2852 819.844 73.7109L859.219 71.7188C858.105 90.2344 849.902 104.004 838.125 104.004ZM968.379 62.9883C968.379 36.8555 955.371 19.3359 935.859 19.3359C916.406 19.3359 903.398 36.7969 903.398 62.9883C903.398 88.5938 915.938 105.82 934.863 106.406L957.422 126.797L966.035 122.871V122.168L941.836 105.82C957.949 102.656 968.379 86.25 968.379 62.9883ZM912.949 62.9883C912.949 38.1445 922.09 21.5625 935.859 21.5625C949.746 21.5625 958.887 38.2031 958.887 62.9883C958.887 87.6562 949.746 104.238 935.859 104.238C922.09 104.238 912.949 87.7148 912.949 62.9883ZM1028.5 100.664L1004 20.6836H992.109V21.8555L996.738 27.7148L975.176 100.664L966.035 103.828V105H988.125V103.828L977.285 100.664L984.316 76.6992H1012.32L1019.41 100.664L1011.21 103.828V105H1037.23V103.828L1028.5 100.664ZM984.961 74.4727L998.262 29.2969L1011.68 74.4727H984.961ZM1040.86 105H1066.41V103.828L1058.03 100.664V22.9102H1068.63C1080.06 22.9102 1084.69 30.6445 1084.69 41.8945C1084.69 55.6641 1079.41 63.3398 1066.99 63.3398H1061.72V65.5664H1066.7C1068.4 65.5664 1070.27 65.4492 1072.09 65.1562L1089.55 105H1103.73L1103.67 103.828L1097.17 100.254L1081.23 65.9766C1080 66.0352 1077.71 65.5664 1075.49 64.9805V64.6875C1085.68 62.6953 1094.24 55.5469 1094.24 41.543C1094.24 29.0039 1086.21 20.6836 1071.39 20.6836H1040.86V21.8555L1049.47 25.0195V100.723L1040.86 103.828V105ZM1168.54 100.664L1144.04 20.6836H1132.15V21.8555L1136.78 27.7148L1115.21 100.664L1106.07 103.828V105H1128.16V103.828L1117.32 100.664L1124.36 76.6992H1152.36L1159.45 100.664L1151.25 103.828V105H1177.27V103.828L1168.54 100.664ZM1125 74.4727L1138.3 29.2969L1151.72 74.4727H1125ZM1180.9 105H1208.26C1225.84 105 1236.27 97.9102 1236.27 82.3242C1236.27 71.543 1230.29 62.6953 1218.81 61.0547V60.8203C1228.18 58.1836 1233.52 50.332 1233.52 40.4883C1233.52 30 1226.72 20.6836 1210.55 20.6836H1180.9V21.8555L1189.57 25.0195V100.664L1180.9 103.828V105ZM1198.12 60.2344V22.9102H1208.32C1218.87 22.9102 1224.08 29.707 1224.08 41.25C1224.08 51.6211 1219.69 60.2344 1209.49 60.2344H1198.12ZM1198.12 102.773V62.4609H1209.9C1221.5 62.4609 1226.72 70.1367 1226.72 82.3242C1226.72 94.6289 1221.21 102.773 1209.38 102.773H1198.12ZM1303.18 100.664L1278.69 20.6836H1266.8V21.8555L1271.43 27.7148L1249.86 100.664L1240.72 103.828V105H1262.81V103.828L1251.97 100.664L1259 76.6992H1287.01L1294.1 100.664L1285.9 103.828V105H1311.91V103.828L1303.18 100.664ZM1259.65 74.4727L1272.95 29.2969L1286.37 74.4727H1259.65ZM1343.61 14.707C1350.47 14.707 1353.75 7.20703 1353.87 0.46875L1353.22 0.175781C1352.46 5.03906 1349.53 8.08594 1343.61 8.08594C1337.75 8.08594 1334.88 5.03906 1334.12 0.175781L1333.48 0.46875C1333.59 7.44141 1336.99 14.707 1343.61 14.707ZM1344.08 106.406C1353.87 106.406 1360.9 103.125 1368.69 95.3906V66.5625H1350.59V67.207L1360.66 72.0703V92.4609C1360.66 98.3203 1352.17 104.238 1346.07 104.238C1327.73 104.238 1319.18 87.3633 1319.18 62.9883C1319.18 42.0703 1325.74 21.5039 1343.38 21.5039C1357.68 21.5039 1362.01 32.4609 1365.64 46.9922H1366.52L1365.29 26.3672C1358.73 22.3828 1351.7 19.3359 1344.79 19.3359C1322.17 19.3359 1309.57 38.0273 1309.57 62.9297C1309.57 88.125 1322.7 106.406 1344.08 106.406ZM1377.3 105H1408.24C1429.69 105 1442.81 89.1797 1442.81 62.7539C1442.81 36.4453 1429.63 20.6836 1409 20.6836H1377.3V21.8555L1385.92 24.9023V100.723L1377.3 103.828V105ZM1394.47 102.773V22.9102H1407.83C1424.59 22.9102 1433.2 36.7383 1433.2 63.5156C1433.2 88.4766 1425.18 102.773 1407.01 102.773H1394.47ZM1502.87 100.664L1478.38 20.6836H1466.48V21.8555L1471.11 27.7148L1449.55 100.664L1440.41 103.828V105H1462.5V103.828L1451.66 100.664L1458.69 76.6992H1486.7L1493.79 100.664L1485.59 103.828V105H1511.6V103.828L1502.87 100.664ZM1459.34 74.4727L1472.64 29.2969L1486.05 74.4727H1459.34ZM1517.64 123.105C1521.91 119.941 1527.6 114.082 1527.6 105.352C1527.6 98.6719 1524.79 96.0352 1522.73 94.4531L1517.11 101.895C1520.86 104.004 1521.8 107.227 1521.8 110.273C1521.8 114.785 1518.81 119.648 1517.05 122.285L1517.64 123.105ZM1595.04 106.406C1614.55 106.406 1627.56 89.0039 1627.56 62.9883C1627.56 36.8555 1614.55 19.3359 1595.04 19.3359C1575.59 19.3359 1562.58 36.7969 1562.58 62.9883C1562.58 89.0625 1575.59 106.406 1595.04 106.406ZM1595.04 104.238C1581.27 104.238 1572.13 87.7148 1572.13 62.9883C1572.13 38.1445 1581.27 21.5625 1595.04 21.5625C1608.93 21.5625 1618.07 38.2031 1618.07 62.9883C1618.07 87.6562 1608.93 104.238 1595.04 104.238ZM38.1445 279.406C43.9453 279.406 50.1562 278.527 59.7656 272.375L61.0547 251.75H60.1758C56.1328 267.688 51.0938 277.238 38.5547 277.238C22.7344 277.238 13.9453 260.246 13.9453 235.93C13.9453 212.375 22.1484 194.562 37.7344 194.562C52.3242 194.562 56.3672 205.051 60.1758 219.992H61.0547L59.7656 199.367C50.1562 193.156 43.9453 192.336 38.6133 192.336C17.4023 192.336 4.33594 210.676 4.33594 235.93C4.33594 261.066 17.8125 279.406 38.1445 279.406ZM95.0391 186.652C98.0859 186.652 100.137 184.426 100.137 181.555C100.137 178.684 98.0859 176.574 95.0391 176.574C92.2266 176.574 90 178.625 90 181.555C90 184.484 92.2266 186.652 95.0391 186.652ZM109.395 186.652C112.324 186.652 114.434 184.484 114.434 181.555C114.434 178.625 112.266 176.574 109.395 176.574C106.465 176.574 104.297 178.625 104.297 181.555C104.297 184.484 106.465 186.652 109.395 186.652ZM102.891 279.406C120.176 279.406 127.207 267.395 127.207 249.113V198.664L137.402 194.797V193.684H114.961V194.797L125.215 198.664V250.051C125.215 264.758 119.648 277.238 105.117 277.238C93.2227 277.238 85.1953 267.512 85.1953 250.051V198.02L93.9258 194.855V193.684H68.0273V194.855L76.6406 198.02V250.871C76.6406 269.562 87.9492 279.406 102.891 279.406ZM140.391 278H162.832V276.828L152.637 273.02V202.941L180.762 269.504H183.457L211.699 203.586V273.664L202.793 276.828V278H229.16V276.828L220.254 273.664V198.02L229.16 194.855V193.684H213.574L185.215 259.953L157.617 193.684H140.449V194.855L150.527 198.02V273.02L140.391 276.828V278ZM234.844 278H282.656L285.176 257.434L284.707 257.316L274.98 275.773H251.953V198.02L261.621 194.855V193.684H234.844V194.855L243.398 198.02V273.723L234.844 276.828V278ZM316.758 279.406C333.984 279.406 347.988 260.949 347.988 236.105C347.988 209.035 332.812 192.336 315.996 192.336C305.977 192.336 296.484 198.957 291.094 208.625L291.973 209.738C297.305 202.18 302.812 196.379 315 196.379C330.117 196.379 338.438 213.312 338.438 237.512C338.438 239.562 338.438 240.852 338.262 243.137H289.57C289.57 263.059 299.941 279.406 316.758 279.406ZM317.109 277.004C305.859 277.004 298.828 265.285 298.828 246.711L338.203 244.719C337.09 263.234 328.887 277.004 317.109 277.004ZM353.438 278H384.375C405.82 278 418.945 262.18 418.945 235.754C418.945 209.445 405.762 193.684 385.137 193.684H353.438V194.855L362.051 197.902V273.723L353.438 276.828V278ZM370.605 275.773V195.91H383.965C400.723 195.91 409.336 209.738 409.336 236.516C409.336 261.477 401.309 275.773 383.145 275.773H370.605ZM454.805 279.406C472.031 279.406 486.035 260.949 486.035 236.105C486.035 209.035 470.859 192.336 454.043 192.336C444.023 192.336 434.531 198.957 429.141 208.625L430.02 209.738C435.352 202.18 440.859 196.379 453.047 196.379C468.164 196.379 476.484 213.312 476.484 237.512C476.484 239.562 476.484 240.852 476.309 243.137H427.617C427.617 263.059 437.988 279.406 454.805 279.406ZM455.156 277.004C443.906 277.004 436.875 265.285 436.875 246.711L476.25 244.719C475.137 263.234 466.934 277.004 455.156 277.004ZM549.492 278.996L551.836 278V198.664L561.797 194.797V193.684H539.824V194.797L549.785 198.664V264.289L506.543 193.684H491.484V194.855L501.328 198.02V273.02L491.484 276.828V278H513.223V276.828L503.32 273.02V204.641L549.492 278.996ZM591.445 278H622.383C643.828 278 656.953 262.18 656.953 235.754C656.953 209.445 643.77 193.684 623.145 193.684H591.445V194.855L600.059 197.902V273.723L591.445 276.828V278ZM608.613 275.773V195.91H621.973C638.73 195.91 647.344 209.738 647.344 236.516C647.344 261.477 639.316 275.773 621.152 275.773H608.613ZM730.605 235.988C730.605 209.855 717.598 192.336 698.086 192.336C678.633 192.336 665.625 209.797 665.625 235.988C665.625 261.594 678.164 278.82 697.09 279.406L719.648 299.797L728.262 295.871V295.168L704.062 278.82C720.176 275.656 730.605 259.25 730.605 235.988ZM675.176 235.988C675.176 211.145 684.316 194.562 698.086 194.562C711.973 194.562 721.113 211.203 721.113 235.988C721.113 260.656 711.973 277.238 698.086 277.238C684.316 277.238 675.176 260.715 675.176 235.988ZM736.055 278H758.496V276.828L748.301 273.02V202.941L776.426 269.504H779.121L807.363 203.586V273.664L798.457 276.828V278H824.824V276.828L815.918 273.664V198.02L824.824 194.855V193.684H809.238L780.879 259.953L753.281 193.684H736.113V194.855L746.191 198.02V273.02L736.055 276.828V278ZM860.039 278H865.02L888.75 198.02L897.832 194.855V193.684H875.977V194.855L886.582 198.02L865.488 268.449L845.918 198.02L855.41 194.855V193.684H827.812V194.855L836.484 198.02L860.039 278ZM903.75 247.766H922.852V245.715H903.75V247.766ZM931.406 278H962.344C983.789 278 996.914 262.18 996.914 235.754C996.914 209.445 983.73 193.684 963.105 193.684H931.406V194.855L940.02 197.902V273.723L931.406 276.828V278ZM948.574 275.773V195.91H961.934C978.691 195.91 987.305 209.738 987.305 236.516C987.305 261.477 979.277 275.773 961.113 275.773H948.574ZM1032.77 279.406C1050 279.406 1064 260.949 1064 236.105C1064 209.035 1048.83 192.336 1032.01 192.336C1021.99 192.336 1012.5 198.957 1007.11 208.625L1007.99 209.738C1013.32 202.18 1018.83 196.379 1031.02 196.379C1046.13 196.379 1054.45 213.312 1054.45 237.512C1054.45 239.562 1054.45 240.852 1054.28 243.137H1005.59C1005.59 263.059 1015.96 279.406 1032.77 279.406ZM1033.12 277.004C1021.88 277.004 1014.84 265.285 1014.84 246.711L1054.22 244.719C1053.11 263.234 1044.9 277.004 1033.12 277.004ZM62.7539 446.664L38.2617 366.684H26.3672V367.855L30.9961 373.715L9.43359 446.664L0.292969 449.828V451H22.3828V449.828L11.543 446.664L18.5742 422.699H46.582L53.6719 446.664L45.4688 449.828V451H71.4844V449.828L62.7539 446.664ZM19.2188 420.473L32.5195 375.297L45.9375 420.473H19.2188ZM76.8164 451H128.379L130.195 431.371L129.727 431.254L120.762 448.832H86.8945L127.91 368.148L127.793 366.684H80.2734L78.457 386.312H78.9844L87.832 368.91H117.48L76.6406 449.594L76.8164 451ZM164.297 452.406C181.523 452.406 195.527 433.949 195.527 409.105C195.527 382.035 180.352 365.336 163.535 365.336C153.516 365.336 144.023 371.957 138.633 381.625L139.512 382.738C144.844 375.18 150.352 369.379 162.539 369.379C177.656 369.379 185.977 386.312 185.977 410.512C185.977 412.562 185.977 413.852 185.801 416.137H137.109C137.109 436.059 147.48 452.406 164.297 452.406ZM164.648 450.004C153.398 450.004 146.367 438.285 146.367 419.711L185.742 417.719C184.629 436.234 176.426 450.004 164.648 450.004ZM200.977 451H226.523V449.828L218.145 446.664V368.91H228.75C240.176 368.91 244.805 376.645 244.805 387.895C244.805 401.664 239.531 409.34 227.109 409.34H221.836V411.566H226.816C228.516 411.566 230.391 411.449 232.207 411.156L249.668 451H263.848L263.789 449.828L257.285 446.254L241.348 411.977C240.117 412.035 237.832 411.566 235.605 410.98V410.688C245.801 408.695 254.355 401.547 254.355 387.543C254.355 375.004 246.328 366.684 231.504 366.684H200.977V367.855L209.59 371.02V446.723L200.977 449.828V451ZM268.711 451H296.074C313.652 451 324.082 443.91 324.082 428.324C324.082 417.543 318.105 408.695 306.621 407.055V406.82C315.996 404.184 321.328 396.332 321.328 386.488C321.328 376 314.531 366.684 298.359 366.684H268.711V367.855L277.383 371.02V446.664L268.711 449.828V451ZM285.938 406.234V368.91H296.133C306.68 368.91 311.895 375.707 311.895 387.25C311.895 397.621 307.5 406.234 297.305 406.234H285.938ZM285.938 448.773V408.461H297.715C309.316 408.461 314.531 416.137 314.531 428.324C314.531 440.629 309.023 448.773 297.188 448.773H285.938ZM390.996 446.664L366.504 366.684H354.609V367.855L359.238 373.715L337.676 446.664L328.535 449.828V451H350.625V449.828L339.785 446.664L346.816 422.699H374.824L381.914 446.664L373.711 449.828V451H399.727V449.828L390.996 446.664ZM347.461 420.473L360.762 375.297L374.18 420.473H347.461ZM407.402 451H434.297V449.828L425.098 446.664V412.094L446.074 371.02L455.273 367.914V366.684H432.598V367.914L443.613 371.195L424.16 409.574L405.586 371.02L414.609 367.914V366.684H387.246V367.914L396.035 371.02L416.543 413.559V446.723L407.402 449.828V451ZM483.809 452.406C489.609 452.406 495.82 451.527 505.43 445.375L506.719 424.75H505.84C501.797 440.688 496.758 450.238 484.219 450.238C468.398 450.238 459.609 433.246 459.609 408.93C459.609 385.375 467.812 367.562 483.398 367.562C497.988 367.562 502.031 378.051 505.84 392.992H506.719L505.43 372.367C495.82 366.156 489.609 365.336 484.277 365.336C463.066 365.336 450 383.676 450 408.93C450 434.066 463.477 452.406 483.809 452.406ZM574.277 446.664L549.785 366.684H537.891V367.855L542.52 373.715L520.957 446.664L511.816 449.828V451H533.906V449.828L523.066 446.664L530.098 422.699H558.105L565.195 446.664L556.992 449.828V451H583.008V449.828L574.277 446.664ZM530.742 420.473L544.043 375.297L557.461 420.473H530.742ZM644.648 451.996L646.992 451V371.664L656.953 367.797V366.684H634.98V367.797L644.941 371.664V437.289L601.699 366.684H586.641V367.855L596.484 371.02V446.02L586.641 449.828V451H608.379V449.828L598.477 446.02V377.641L644.648 451.996ZM659.883 451H707.695L710.215 430.434L709.746 430.316L700.02 448.773H676.992V371.02L686.66 367.855V366.684H659.883V367.855L668.438 371.02V446.723L659.883 449.828V451ZM714.258 451H740.039V449.828L731.426 446.664V371.02L740.039 367.855V366.684H714.258V367.855L722.871 371.02V446.723L714.258 449.828V451ZM800.859 451H805.84L829.57 371.02L838.652 367.855V366.684H816.797V367.855L827.402 371.02L806.309 441.449L786.738 371.02L796.23 367.855V366.684H768.633V367.855L777.305 371.02L800.859 451ZM861.094 452.406C878.32 452.406 892.324 433.949 892.324 409.105C892.324 382.035 877.148 365.336 860.332 365.336C850.312 365.336 840.82 371.957 835.43 381.625L836.309 382.738C841.641 375.18 847.148 369.379 859.336 369.379C874.453 369.379 882.773 386.312 882.773 410.512C882.773 412.562 882.773 413.852 882.598 416.137H833.906C833.906 436.059 844.277 452.406 861.094 452.406ZM861.445 450.004C850.195 450.004 843.164 438.285 843.164 419.711L882.539 417.719C881.426 436.234 873.223 450.004 861.445 450.004ZM925.195 451H977.051L979.688 430.434L979.219 430.316L969.375 448.773H942.422V408.871H957.891L962.93 419.828H963.75V395.57H962.93L957.891 406.645H942.422V368.91H966.035L973.242 387.25H973.652V366.684H925.254V367.855L933.867 371.02V446.723L925.195 449.828V451ZM983.672 451H1009.22V449.828L1000.84 446.664V368.91H1011.45C1022.87 368.91 1027.5 376.645 1027.5 387.895C1027.5 401.664 1022.23 409.34 1009.8 409.34H1004.53V411.566H1009.51C1011.21 411.566 1013.09 411.449 1014.9 411.156L1032.36 451H1046.54L1046.48 449.828L1039.98 446.254L1024.04 411.977C1022.81 412.035 1020.53 411.566 1018.3 410.98V410.688C1028.5 408.695 1037.05 401.547 1037.05 387.543C1037.05 375.004 1029.02 366.684 1014.2 366.684H983.672V367.855L992.285 371.02V446.723L983.672 449.828V451ZM1051.41 451H1073.85V449.828L1063.65 446.02V375.941L1091.78 442.504H1094.47L1122.71 376.586V446.664L1113.81 449.828V451H1140.18V449.828L1131.27 446.664V371.02L1140.18 367.855V366.684H1124.59L1096.23 432.953L1068.63 366.684H1051.46V367.855L1061.54 371.02V446.02L1051.41 449.828V451ZM1172.81 452.406C1190.04 452.406 1204.04 433.949 1204.04 409.105C1204.04 382.035 1188.87 365.336 1172.05 365.336C1162.03 365.336 1152.54 371.957 1147.15 381.625L1148.03 382.738C1153.36 375.18 1158.87 369.379 1171.05 369.379C1186.17 369.379 1194.49 386.312 1194.49 410.512C1194.49 412.562 1194.49 413.852 1194.32 416.137H1145.62C1145.62 436.059 1156 452.406 1172.81 452.406ZM1173.16 450.004C1161.91 450.004 1154.88 438.285 1154.88 419.711L1194.26 417.719C1193.14 436.234 1184.94 450.004 1173.16 450.004ZM1267.5 451.996L1269.84 451V371.664L1279.8 367.797V366.684H1257.83V367.797L1267.79 371.664V437.289L1224.55 366.684H1209.49V367.855L1219.34 371.02V446.02L1209.49 449.828V451H1231.23V449.828L1221.33 446.02V377.641L1267.5 451.996ZM1295.62 360.355C1298.61 360.355 1300.84 358.305 1300.84 355.258C1300.84 352.27 1298.61 350.102 1295.62 350.102C1292.58 350.102 1290.35 352.27 1290.35 355.258C1290.35 358.305 1292.58 360.355 1295.62 360.355ZM1282.73 451H1308.52V449.828L1299.9 446.664V371.02L1308.52 367.855V366.684H1282.73V367.855L1291.35 371.02V446.723L1282.73 449.828V451ZM1368.52 452.406C1385.74 452.406 1399.75 433.949 1399.75 409.105C1399.75 382.035 1384.57 365.336 1367.75 365.336C1357.73 365.336 1348.24 371.957 1342.85 381.625L1343.73 382.738C1349.06 375.18 1354.57 369.379 1366.76 369.379C1381.88 369.379 1390.2 386.312 1390.2 410.512C1390.2 412.562 1390.2 413.852 1390.02 416.137H1341.33C1341.33 436.059 1351.7 452.406 1368.52 452.406ZM1368.87 450.004C1357.62 450.004 1350.59 438.285 1350.59 419.711L1389.96 417.719C1388.85 436.234 1380.64 450.004 1368.87 450.004ZM1405.2 451H1431.09V449.828L1422.36 446.664V408.93H1460.1V446.723L1451.48 449.828V451H1477.38V449.828L1468.65 446.664V371.02L1477.38 367.855V366.684H1451.48V367.855L1460.1 371.02V406.703H1422.36V371.02L1431.09 367.855V366.684H1405.2V367.855L1413.81 371.02V446.723L1405.2 449.828V451ZM1542.95 446.664L1518.46 366.684H1506.56V367.855L1511.19 373.715L1489.63 446.664L1480.49 449.828V451H1502.58V449.828L1491.74 446.664L1498.77 422.699H1526.78L1533.87 446.664L1525.66 449.828V451H1551.68V449.828L1542.95 446.664ZM1499.41 420.473L1512.71 375.297L1526.13 420.473H1499.41ZM1555.31 451H1603.12L1605.64 430.434L1605.18 430.316L1595.45 448.773H1572.42V371.02L1582.09 367.855V366.684H1555.31V367.855L1563.87 371.02V446.723L1555.31 449.828V451ZM1622.58 360.355C1625.57 360.355 1627.79 358.305 1627.79 355.258C1627.79 352.27 1625.57 350.102 1622.58 350.102C1619.53 350.102 1617.3 352.27 1617.3 355.258C1617.3 358.305 1619.53 360.355 1622.58 360.355ZM1609.69 451H1635.47V449.828L1626.86 446.664V371.02L1635.47 367.855V366.684H1609.69V367.855L1618.3 371.02V446.723L1609.69 449.828V451ZM1699.1 451.996L1701.45 451V371.664L1711.41 367.797V366.684H1689.43V367.797L1699.39 371.664V437.289L1656.15 366.684H1641.09V367.855L1650.94 371.02V446.02L1641.09 449.828V451H1662.83V449.828L1652.93 446.02V377.641L1699.1 451.996ZM1727.23 360.355C1730.21 360.355 1732.44 358.305 1732.44 355.258C1732.44 352.27 1730.21 350.102 1727.23 350.102C1724.18 350.102 1721.95 352.27 1721.95 355.258C1721.95 358.305 1724.18 360.355 1727.23 360.355ZM1714.34 451H1740.12V449.828L1731.5 446.664V371.02L1740.12 367.855V366.684H1714.34V367.855L1722.95 371.02V446.723L1714.34 449.828V451ZM1803.75 451.996L1806.09 451V371.664L1816.05 367.797V366.684H1794.08V367.797L1804.04 371.664V437.289L1760.8 366.684H1745.74V367.855L1755.59 371.02V446.02L1745.74 449.828V451H1767.48V449.828L1757.58 446.02V377.641L1803.75 451.996ZM24.4922 625.406C36.7969 625.406 48.2812 619.137 48.2812 603.199C48.2812 589.781 38.2617 582.691 29.4727 577.066L26.1914 574.957C18.2227 569.859 13.418 565.875 13.418 556.617C13.418 546.773 18.5156 540.562 25.6641 540.562C36.3281 540.562 41.3672 548.59 45.8203 565.406H46.4648L45.1758 545.367C39.8438 541.441 32.7539 538.336 26.6602 538.336C14.0039 538.336 4.6875 545.602 4.6875 558.727C4.6875 571.441 14.2383 577.535 21.5039 582.281L24.375 584.156C32.2852 589.312 39.4336 594 39.4336 605.602C39.4336 616.793 33.9844 623.18 24.668 623.18C15.5273 623.18 9.14062 616.324 4.57031 598.395H3.92578L4.98047 618.551C9.66797 621.656 16.9336 625.406 24.4922 625.406ZM109.629 619.664L85.1367 539.684H73.2422V540.855L77.8711 546.715L56.3086 619.664L47.168 622.828V624H69.2578V622.828L58.418 619.664L65.4492 595.699H93.457L100.547 619.664L92.3438 622.828V624H118.359V622.828L109.629 619.664ZM66.0938 593.473L79.3945 548.297L92.8125 593.473H66.0938ZM126.035 624H152.93V622.828L143.73 619.664V585.094L164.707 544.02L173.906 540.914V539.684H151.23V540.914L162.246 544.195L142.793 582.574L124.219 544.02L133.242 540.914V539.684H105.879V540.914L114.668 544.02L135.176 586.559V619.723L126.035 622.828V624ZM259.922 624.996L262.266 624V544.664L272.227 540.797V539.684H250.254V540.797L260.215 544.664V610.289L216.973 539.684H201.914V540.855L211.758 544.02V619.02L201.914 622.828V624H223.652V622.828L213.75 619.02V550.641L259.922 624.996ZM288.047 533.355C291.035 533.355 293.262 531.305 293.262 528.258C293.262 525.27 291.035 523.102 288.047 523.102C285 523.102 282.773 525.27 282.773 528.258C282.773 531.305 285 533.355 288.047 533.355ZM275.156 624H300.938V622.828L292.324 619.664V544.02L300.938 540.855V539.684H275.156V540.855L283.77 544.02V619.723L275.156 622.828V624ZM328.242 625.406C340.547 625.406 352.031 619.137 352.031 603.199C352.031 589.781 342.012 582.691 333.223 577.066L329.941 574.957C321.973 569.859 317.168 565.875 317.168 556.617C317.168 546.773 322.266 540.562 329.414 540.562C340.078 540.562 345.117 548.59 349.57 565.406H350.215L348.926 545.367C343.594 541.441 336.504 538.336 330.41 538.336C317.754 538.336 308.438 545.602 308.438 558.727C308.438 571.441 317.988 577.535 325.254 582.281L328.125 584.156C336.035 589.312 343.184 594 343.184 605.602C343.184 616.793 337.734 623.18 328.418 623.18C319.277 623.18 312.891 616.324 308.32 598.395H307.676L308.73 618.551C313.418 621.656 320.684 625.406 328.242 625.406ZM358.828 624H386.191C403.77 624 414.199 616.91 414.199 601.324C414.199 590.543 408.223 581.695 396.738 580.055V579.82C406.113 577.184 411.445 569.332 411.445 559.488C411.445 549 404.648 539.684 388.477 539.684H358.828V540.855L367.5 544.02V619.664L358.828 622.828V624ZM376.055 579.234V541.91H386.25C396.797 541.91 402.012 548.707 402.012 560.25C402.012 570.621 397.617 579.234 387.422 579.234H376.055ZM376.055 621.773V581.461H387.832C399.434 581.461 404.648 589.137 404.648 601.324C404.648 613.629 399.141 621.773 387.305 621.773H376.055ZM449.883 625.406C467.109 625.406 481.113 606.949 481.113 582.105C481.113 555.035 465.938 538.336 449.121 538.336C439.102 538.336 429.609 544.957 424.219 554.625L425.098 555.738C430.43 548.18 435.938 542.379 448.125 542.379C463.242 542.379 471.562 559.312 471.562 583.512C471.562 585.562 471.562 586.852 471.387 589.137H422.695C422.695 609.059 433.066 625.406 449.883 625.406ZM450.234 623.004C438.984 623.004 431.953 611.285 431.953 592.711L471.328 590.719C470.215 609.234 462.012 623.004 450.234 623.004ZM497.93 624H524.941V622.828L515.742 619.664V541.91H530.566L536.953 558.141H537.422V539.684H485.449V558.141H485.977L492.246 541.91H507.188V619.664L497.93 622.828V624ZM557.227 533.355C560.215 533.355 562.441 531.305 562.441 528.258C562.441 525.27 560.215 523.102 557.227 523.102C554.18 523.102 551.953 525.27 551.953 528.258C551.953 531.305 554.18 533.355 557.227 533.355ZM544.336 624H570.117V622.828L561.504 619.664V544.02L570.117 540.855V539.684H544.336V540.855L552.949 544.02V619.723L544.336 622.828V624ZM633.75 624.996L636.094 624V544.664L646.055 540.797V539.684H624.082V540.797L634.043 544.664V610.289L590.801 539.684H575.742V540.855L585.586 544.02V619.02L575.742 622.828V624H597.48V622.828L587.578 619.02V550.641L633.75 624.996ZM661.875 533.355C664.863 533.355 667.09 531.305 667.09 528.258C667.09 525.27 664.863 523.102 661.875 523.102C658.828 523.102 656.602 525.27 656.602 528.258C656.602 531.305 658.828 533.355 661.875 533.355ZM648.984 624H674.766V622.828L666.152 619.664V544.02L674.766 540.855V539.684H648.984V540.855L657.598 544.02V619.723L648.984 622.828V624ZM738.398 624.996L740.742 624V544.664L750.703 540.797V539.684H728.73V540.797L738.691 544.664V610.289L695.449 539.684H680.391V540.855L690.234 544.02V619.02L680.391 622.828V624H702.129V622.828L692.227 619.02V550.641L738.398 624.996ZM780.352 624H811.289C832.734 624 845.859 608.18 845.859 581.754C845.859 555.445 832.676 539.684 812.051 539.684H780.352V540.855L788.965 543.902V619.723L780.352 622.828V624ZM797.52 621.773V541.91H810.879C827.637 541.91 836.25 555.738 836.25 582.516C836.25 607.477 828.223 621.773 810.059 621.773H797.52ZM881.719 625.406C898.945 625.406 912.949 606.949 912.949 582.105C912.949 555.035 897.773 538.336 880.957 538.336C870.938 538.336 861.445 544.957 856.055 554.625L856.934 555.738C862.266 548.18 867.773 542.379 879.961 542.379C895.078 542.379 903.398 559.312 903.398 583.512C903.398 585.562 903.398 586.852 903.223 589.137H854.531C854.531 609.059 864.902 625.406 881.719 625.406ZM882.07 623.004C870.82 623.004 863.789 611.285 863.789 592.711L903.164 590.719C902.051 609.234 893.848 623.004 882.07 623.004ZM928.652 624H955.547V622.828L946.348 619.664V585.094L967.324 544.02L976.523 540.914V539.684H953.848V540.914L964.863 544.195L945.41 582.574L926.836 544.02L935.859 540.914V539.684H908.496V540.914L917.285 544.02L937.793 586.559V619.723L928.652 622.828V624ZM991.758 533.355C994.746 533.355 996.973 531.305 996.973 528.258C996.973 525.27 994.746 523.102 991.758 523.102C988.711 523.102 986.484 525.27 986.484 528.258C986.484 531.305 988.711 533.355 991.758 533.355ZM978.867 624H1004.65V622.828L996.035 619.664V544.02L1004.65 540.855V539.684H978.867V540.855L987.48 544.02V619.723L978.867 622.828V624ZM1055.74 603.199C1055.74 589.781 1045.72 582.691 1036.93 577.066L1033.65 574.957C1025.68 569.859 1020.88 565.875 1020.88 556.617C1020.88 546.773 1025.98 540.562 1033.12 540.562C1043.79 540.562 1048.83 548.59 1053.28 565.406H1053.93L1052.64 545.367C1047.3 541.441 1040.21 538.336 1034.12 538.336C1021.46 538.336 1012.15 545.602 1012.15 558.727C1012.15 571.441 1021.7 577.535 1028.96 582.281L1031.84 584.156C1039.75 589.312 1046.89 594 1046.89 605.602C1046.89 616.793 1041.45 623.18 1032.13 623.18C1022.99 623.18 1016.6 616.324 1012.03 598.395H1011.39L1012.44 618.551C1016.89 621.539 1023.75 625.055 1030.9 625.406L1027.85 632.555L1027.97 633.375C1029.43 634.137 1033.54 635.074 1033.54 640.289C1033.54 644.508 1031.25 648.727 1026.39 650.074V650.719C1033.83 650.074 1040.21 645.27 1040.21 639.117C1040.21 632.789 1033.89 630.855 1030.9 630.035L1032.42 625.406C1044.55 625.23 1055.74 618.902 1055.74 603.199ZM1062.54 624H1084.98V622.828L1074.79 619.02V548.941L1102.91 615.504H1105.61L1133.85 549.586V619.664L1124.94 622.828V624H1151.31V622.828L1142.4 619.664V544.02L1151.31 540.855V539.684H1135.72L1107.36 605.953L1079.77 539.684H1062.6V540.855L1072.68 544.02V619.02L1062.54 622.828V624ZM1183.95 625.406C1201.17 625.406 1215.18 606.949 1215.18 582.105C1215.18 555.035 1200 538.336 1183.18 538.336C1173.16 538.336 1163.67 544.957 1158.28 554.625L1159.16 555.738C1164.49 548.18 1170 542.379 1182.19 542.379C1197.3 542.379 1205.62 559.312 1205.62 583.512C1205.62 585.562 1205.62 586.852 1205.45 589.137H1156.76C1156.76 609.059 1167.13 625.406 1183.95 625.406ZM1184.3 623.004C1173.05 623.004 1166.02 611.285 1166.02 592.711L1205.39 590.719C1204.28 609.234 1196.07 623.004 1184.3 623.004ZM1244.06 625.406C1256.37 625.406 1267.85 619.137 1267.85 603.199C1267.85 589.781 1257.83 582.691 1249.04 577.066L1245.76 574.957C1237.79 569.859 1232.99 565.875 1232.99 556.617C1232.99 546.773 1238.09 540.562 1245.23 540.562C1255.9 540.562 1260.94 548.59 1265.39 565.406H1266.04L1264.75 545.367C1259.41 541.441 1252.32 538.336 1246.23 538.336C1233.57 538.336 1224.26 545.602 1224.26 558.727C1224.26 571.441 1233.81 577.535 1241.07 582.281L1243.95 584.156C1251.86 589.312 1259 594 1259 605.602C1259 616.793 1253.55 623.18 1244.24 623.18C1235.1 623.18 1228.71 616.324 1224.14 598.395H1223.5L1224.55 618.551C1229.24 621.656 1236.5 625.406 1244.06 625.406ZM1287.54 533.355C1290.53 533.355 1292.75 531.305 1292.75 528.258C1292.75 525.27 1290.53 523.102 1287.54 523.102C1284.49 523.102 1282.27 525.27 1282.27 528.258C1282.27 531.305 1284.49 533.355 1287.54 533.355ZM1274.65 624H1300.43V622.828L1291.82 619.664V544.02L1300.43 540.855V539.684H1274.65V540.855L1283.26 544.02V619.723L1274.65 622.828V624Z" fill="white"></path> </g> <defs> <filter id="filter0_b" x="-3.70703" y="-3.82422" width="1823.76" height="658.543" filterUnits="userSpaceOnUse" color-interpolation-filters="sRGB"> <feFlood flood-opacity="0" result="BackgroundImageFix"></feFlood> <feGaussianBlur in="BackgroundImage" stdDeviation="2"></feGaussianBlur> <feComposite in2="SourceAlpha" operator="in" result="effect1_backgroundBlur"></feComposite> <feBlend mode="normal" in="SourceGraphic" in2="effect1_backgroundBlur" result="shape"></feBlend> </filter> </defs> </svg> 