<?xml version="1.0" encoding="UTF-8"?> <svg xmlns="http://www.w3.org/2000/svg" width="1077" height="336" viewBox="0 0 1077 336" fill="none"> <path d="M1.96875 60H17.6777V59.1797L10.541 56.5137V7.45898L30.2285 54.0527H32.1152L51.8848 7.91016V56.9648L45.6504 59.1797V60H64.1074V59.1797L57.873 56.9648V4.01367L64.1074 1.79883V0.978516H53.1973L33.3457 47.3672L14.0273 0.978516H2.00977V1.79883L9.06445 4.01367V56.5137L1.96875 59.1797V60ZM110.045 56.9648L92.9004 0.978516H84.5742V1.79883L87.8145 5.90039L72.7207 56.9648L66.3223 59.1797V60H81.7852V59.1797L74.1973 56.9648L79.1191 40.1895H98.7246L103.688 56.9648L97.9453 59.1797V60H116.156V59.1797L110.045 56.9648ZM79.5703 38.6309L88.8809 7.00781L98.2734 38.6309H79.5703ZM138.182 60.9844C142.242 60.9844 146.59 60.3691 153.316 56.0625L154.219 41.625H153.604C150.773 52.7812 147.246 59.4668 138.469 59.4668C127.395 59.4668 121.242 47.5723 121.242 30.5508C121.242 14.0625 126.984 1.59375 137.895 1.59375C148.107 1.59375 150.938 8.93555 153.604 19.3945H154.219L153.316 4.95703C146.59 0.609375 142.242 0.0351562 138.51 0.0351562C123.662 0.0351562 114.516 12.873 114.516 30.5508C114.516 48.1465 123.949 60.9844 138.182 60.9844ZM184.283 60.9844C188.344 60.9844 192.691 60.3691 199.418 56.0625L200.32 41.625H199.705C196.875 52.7812 193.348 59.4668 184.57 59.4668C173.496 59.4668 167.344 47.5723 167.344 30.5508C167.344 14.0625 173.086 1.59375 183.996 1.59375C194.209 1.59375 197.039 8.93555 199.705 19.3945H200.32L199.418 4.95703C192.691 0.609375 188.344 0.0351562 184.611 0.0351562C169.764 0.0351562 160.617 12.873 160.617 30.5508C160.617 48.1465 170.051 60.9844 184.283 60.9844ZM229.441 60.9844C243.1 60.9844 252.205 48.8027 252.205 30.5918C252.205 12.2988 243.1 0.0351562 229.441 0.0351562C215.824 0.0351562 206.719 12.2578 206.719 30.5918C206.719 48.8438 215.824 60.9844 229.441 60.9844ZM229.441 59.4668C219.803 59.4668 213.404 47.9004 213.404 30.5918C213.404 13.2012 219.803 1.59375 229.441 1.59375C239.162 1.59375 245.561 13.2422 245.561 30.5918C245.561 47.8594 239.162 59.4668 229.441 59.4668ZM256.02 60H275.174C287.479 60 294.779 55.0371 294.779 44.127C294.779 36.5801 290.596 30.3867 282.557 29.2383V29.0742C289.119 27.2285 292.852 21.7324 292.852 14.8418C292.852 7.5 288.094 0.978516 276.773 0.978516H256.02V1.79883L262.09 4.01367V56.9648L256.02 59.1797V60ZM268.078 28.6641V2.53711H275.215C282.598 2.53711 286.248 7.29492 286.248 15.375C286.248 22.6348 283.172 28.6641 276.035 28.6641H268.078ZM268.078 58.4414V30.2227H276.322C284.443 30.2227 288.094 35.5957 288.094 44.127C288.094 52.7402 284.238 58.4414 275.953 58.4414H268.078ZM341.619 56.9648L324.475 0.978516H316.148V1.79883L319.389 5.90039L304.295 56.9648L297.896 59.1797V60H313.359V59.1797L305.771 56.9648L310.693 40.1895H330.299L335.262 56.9648L329.52 59.1797V60H347.73V59.1797L341.619 56.9648ZM311.145 38.6309L320.455 7.00781L329.848 38.6309H311.145ZM393.75 60V59.1797L387.721 57.0059V4.01367L393.75 1.79883V0.978516H372.381C362.004 0.978516 356.385 6.80273 356.385 15.5801C356.385 25.3828 362.373 30.3867 369.51 31.7812V31.9863C367.951 32.3965 366.352 32.7246 365.49 32.6836L354.334 56.6777L349.781 59.1797L349.74 60H359.666L371.889 32.1094C373.16 32.3145 374.473 32.3965 375.662 32.3965H379.148V30.8379H375.457C366.762 30.8379 363.07 25.4648 363.07 15.8262C363.07 7.95117 366.311 2.53711 374.309 2.53711H381.732V56.9648L375.867 59.1797V60H393.75ZM414.422 72.8379H414.75L419.918 60H459.293L464.461 72.8379H464.748V58.4824H457.98V4.01367L464.01 1.79883V0.978516H422.461V1.79883L429.352 4.01367C429.393 23.4961 429.393 50.3613 418.031 58.4824H414.422V72.8379ZM420.615 58.4824C431.443 48.8027 430.91 21.4453 430.992 2.49609H452.033V58.4824H420.615ZM468.316 60H504.615L506.461 45.6035L506.133 45.5215L499.242 58.4414H480.375V30.5098H491.203L494.73 38.1797H495.305V21.1992H494.73L491.203 28.9512H480.375V2.53711H496.904L501.949 15.375H502.236V0.978516H468.357V1.79883L474.387 4.01367V57.0059L468.316 59.1797V60ZM509.25 60H527.379V59.1797L521.268 56.9648V2.49609H547.764V57.0059L541.734 59.1797V60H559.863V59.1797L553.67 56.9648V4.01367L559.781 1.79883V0.978516H509.25V1.79883L515.279 4.01367V57.0059L509.25 59.1797V60ZM586.359 60.9844C600.018 60.9844 609.123 48.8027 609.123 30.5918C609.123 12.2988 600.018 0.0351562 586.359 0.0351562C572.742 0.0351562 563.637 12.2578 563.637 30.5918C563.637 48.8438 572.742 60.9844 586.359 60.9844ZM586.359 59.4668C576.721 59.4668 570.322 47.9004 570.322 30.5918C570.322 13.2012 576.721 1.59375 586.359 1.59375C596.08 1.59375 602.479 13.2422 602.479 30.5918C602.479 47.8594 596.08 59.4668 586.359 59.4668ZM612.938 60H631.641V59.1797L624.914 56.9648V2.53711H631.312C638.49 2.53711 643.166 7.04883 643.166 17.8359C643.166 27.8027 639.023 34.0371 631.641 34.0371H628.072V35.5957H631.723C642.879 35.5957 649.811 29.4844 649.811 17.8359C649.811 8.2793 644.479 0.978516 633.404 0.978516H612.938V1.79883L618.926 4.01367V57.0059L612.938 59.1797V60ZM662.484 60H681.393V59.1797L674.953 56.9648V2.53711H685.33L689.801 13.8984H690.129V0.978516H653.748V13.8984H654.117L658.506 2.53711H668.965V56.9648L662.484 59.1797V60ZM728.971 56.9648L711.826 0.978516H703.5V1.79883L706.74 5.90039L691.646 56.9648L685.248 59.1797V60H700.711V59.1797L693.123 56.9648L698.045 40.1895H717.65L722.613 56.9648L716.871 59.1797V60H735.082V59.1797L728.971 56.9648ZM698.496 38.6309L707.807 7.00781L717.199 38.6309H698.496ZM788.648 72.8379H788.936V58.4824H782.086V4.01367L788.279 1.79883V0.978516H770.109V1.79883L776.18 4.01367V58.4824H749.643V4.01367L755.795 1.79883V0.978516H737.625V1.79883L743.654 4.01367V57.0059L737.625 59.1797V60H783.439L788.648 72.8379ZM836.924 56.9648V4.01367L843.035 1.79883V0.978516H824.906V1.79883L831.018 4.01367V8.0332L804.521 48.1875V4.01367L810.633 1.79883V0.978516H792.504V1.79883L798.533 4.01367V57.0059L792.504 59.1797V60H810.633V59.1797L804.521 56.9648V50.7715L831.018 10.6172V57.0059L824.988 59.1797V60H843.117V59.1797L836.924 56.9648ZM890.531 60V59.1797L884.502 57.0059V4.01367L890.531 1.79883V0.978516H869.162C858.785 0.978516 853.166 6.80273 853.166 15.5801C853.166 25.3828 859.154 30.3867 866.291 31.7812V31.9863C864.732 32.3965 863.133 32.7246 862.271 32.6836L851.115 56.6777L846.562 59.1797L846.521 60H856.447L868.67 32.1094C869.941 32.3145 871.254 32.3965 872.443 32.3965H875.93V30.8379H872.238C863.543 30.8379 859.852 25.4648 859.852 15.8262C859.852 7.95117 863.092 2.53711 871.09 2.53711H878.514V56.9648L872.648 59.1797V60H890.531ZM43.9277 148.965L26.7832 92.9785H18.457V93.7988L21.6973 97.9004L6.60352 148.965L0.205078 151.18V152H15.668V151.18L8.08008 148.965L13.002 132.189H32.6074L37.5703 148.965L31.8281 151.18V152H50.0391V151.18L43.9277 148.965ZM13.4531 130.631L22.7637 99.0078L32.1562 130.631H13.4531ZM67.3066 152.984C77.2734 152.984 84.1641 146.381 84.1641 136.701C84.1641 127.883 78.9551 121.977 71.3672 120.172C78.5449 117.916 82.7695 112.748 82.7695 105.98C82.7695 98.1055 77.6426 92.0352 68.8652 92.0352C63 92.0352 59.1035 94.0449 56.2734 95.7266L55.4941 110.574H56.0273C57.873 103.766 60.9492 93.5527 68.7012 93.5527C73.7461 93.5527 76.4941 99.0078 76.4941 105.98C76.4941 114.553 71.8184 118.326 63.7383 120.869V122.059C72.1875 123.494 78.1348 127.35 78.1348 137.768C78.1348 145.602 74.3203 151.467 67.5938 151.467C60.375 151.467 57.0117 142.32 54.8379 134.363H54.2227L55.002 149.129C57.1758 151.016 62.5078 152.984 67.3066 152.984ZM89.0039 152H125.303L127.148 137.604L126.82 137.521L119.93 150.441H101.062V122.51H111.891L115.418 130.18H115.992V113.199H115.418L111.891 120.951H101.062V94.5371H117.592L122.637 107.375H122.924V92.9785H89.0449V93.7988L95.0742 96.0137V149.006L89.0039 151.18V152ZM129.938 152H148.641V151.18L141.914 148.965V94.5371H148.312C155.49 94.5371 160.166 99.0488 160.166 109.836C160.166 119.803 156.023 126.037 148.641 126.037H145.072V127.596H148.723C159.879 127.596 166.811 121.484 166.811 109.836C166.811 100.279 161.479 92.9785 150.404 92.9785H129.938V93.7988L135.926 96.0137V149.006L129.938 151.18V152ZM170.01 152H189.041C201.346 152 208.646 147.037 208.646 136.127C208.646 125.012 200.32 120.664 190.189 120.664H181.945V94.4961H198.311L203.396 107.375H203.643V92.9785H169.887V93.7988L175.957 96.0137V149.047L170.01 151.18V152ZM181.945 150.482V122.223H190.189C198.311 122.223 202.002 127.596 202.002 136.127C202.002 144.74 198.105 150.482 189.82 150.482H181.945ZM255.486 148.965L238.342 92.9785H230.016V93.7988L233.256 97.9004L218.162 148.965L211.764 151.18V152H227.227V151.18L219.639 148.965L224.561 132.189H244.166L249.129 148.965L243.387 151.18V152H261.598V151.18L255.486 148.965ZM225.012 130.631L234.322 99.0078L243.715 130.631H225.012ZM289.365 88.7949C294.164 88.7949 296.461 83.5449 296.543 78.8281L296.092 78.623C295.559 82.0273 293.508 84.1602 289.365 84.1602C285.264 84.1602 283.254 82.0273 282.721 78.623L282.27 78.8281C282.352 83.709 284.73 88.7949 289.365 88.7949ZM308.561 148.965V96.0137L314.672 93.7988V92.9785H296.543V93.7988L302.654 96.0137V100.033L276.158 140.188V96.0137L282.27 93.7988V92.9785H264.141V93.7988L270.17 96.0137V149.006L264.141 151.18V152H282.27V151.18L276.158 148.965V142.771L302.654 102.617V149.006L296.625 151.18V152H314.754V151.18L308.561 148.965ZM317.461 164.838H317.789L322.957 152H362.332L367.5 164.838H367.787V150.482H361.02V96.0137L367.049 93.7988V92.9785H325.5V93.7988L332.391 96.0137C332.432 115.496 332.432 142.361 321.07 150.482H317.461V164.838ZM323.654 150.482C334.482 140.803 333.949 113.445 334.031 94.4961H355.072V150.482H323.654ZM431.607 148.965L412.863 118.654L427.26 99.459L435.75 99.3359H436.201L436.242 92.9785H435.463C430.172 92.9785 428.203 95.4395 424.635 100.115L409.295 120.131H407.326V96.0137L413.807 93.7988V92.9785H394.898V93.7988L401.338 96.0137V120.131H399.451L384.111 100.115C380.543 95.4395 378.574 92.9785 373.283 92.9785H372.504L372.545 99.3359H372.996L381.486 99.459L395.883 118.654L377.139 148.965L370.986 150.77V152H382.307L400.846 121.771H401.338V149.006L394.898 151.18V152H413.807V151.18L407.326 148.965V121.771H407.9L426.439 152H437.76V150.77L431.607 148.965ZM483.287 148.965L466.143 92.9785H457.816V93.7988L461.057 97.9004L445.963 148.965L439.564 151.18V152H455.027V151.18L447.439 148.965L452.361 132.189H471.967L476.93 148.965L471.188 151.18V152H489.398V151.18L483.287 148.965ZM452.812 130.631L462.123 99.0078L471.516 130.631H452.812ZM491.941 152H510.07V151.18L503.959 148.965V122.551H530.373V149.006L524.344 151.18V152H542.473V151.18L536.361 148.965V96.0137L542.473 93.7988V92.9785H524.344V93.7988L530.373 96.0137V120.992H503.959V96.0137L510.07 93.7988V92.9785H491.941V93.7988L497.971 96.0137V149.006L491.941 151.18V152ZM597.434 164.838H597.721V150.482H590.871V96.0137L597.064 93.7988V92.9785H578.895V93.7988L584.965 96.0137V150.482H558.428V96.0137L564.58 93.7988V92.9785H546.41V93.7988L552.439 96.0137V149.006L546.41 151.18V152H592.225L597.434 164.838ZM601.289 152H637.588L639.434 137.604L639.105 137.521L632.215 150.441H613.348V122.51H624.176L627.703 130.18H628.277V113.199H627.703L624.176 120.951H613.348V94.5371H629.877L634.922 107.375H635.209V92.9785H601.33V93.7988L607.359 96.0137V149.006L601.289 151.18V152ZM642.223 152H661.377C673.682 152 680.982 147.037 680.982 136.127C680.982 128.58 676.799 122.387 668.76 121.238V121.074C675.322 119.229 679.055 113.732 679.055 106.842C679.055 99.5 674.297 92.9785 662.977 92.9785H642.223V93.7988L648.293 96.0137V148.965L642.223 151.18V152ZM654.281 120.664V94.5371H661.418C668.801 94.5371 672.451 99.2949 672.451 107.375C672.451 114.635 669.375 120.664 662.238 120.664H654.281ZM654.281 150.441V122.223H662.525C670.646 122.223 674.297 127.596 674.297 136.127C674.297 144.74 670.441 150.441 662.156 150.441H654.281ZM26.7012 244.984C30.7617 244.984 35.1094 244.369 41.8359 240.062L42.7383 225.625H42.123C39.293 236.781 35.7656 243.467 26.9883 243.467C15.9141 243.467 9.76172 231.572 9.76172 214.551C9.76172 198.062 15.5039 185.594 26.4141 185.594C36.627 185.594 39.457 192.936 42.123 203.395H42.7383L41.8359 188.957C35.1094 184.609 30.7617 184.035 27.0293 184.035C12.1816 184.035 3.03516 196.873 3.03516 214.551C3.03516 232.146 12.4688 244.984 26.7012 244.984ZM75.6328 244H94.541V243.18L88.1016 240.965V186.537H98.4785L102.949 197.898H103.277V184.979H66.8965V197.898H67.2656L71.6543 186.537H82.1133V240.965L75.6328 243.18V244ZM108.117 244H144.416L146.262 229.604L145.934 229.521L139.043 242.441H120.176V214.51H131.004L134.531 222.18H135.105V205.199H134.531L131.004 212.951H120.176V186.537H136.705L141.75 199.375H142.037V184.979H108.158V185.799L114.188 188.014V241.006L108.117 243.18V244ZM149.051 244H167.754V243.18L161.027 240.965V186.537H167.426C174.604 186.537 179.279 191.049 179.279 201.836C179.279 211.803 175.137 218.037 167.754 218.037H164.186V219.596H167.836C178.992 219.596 185.924 213.484 185.924 201.836C185.924 192.279 180.592 184.979 169.518 184.979H149.051V185.799L155.039 188.014V241.006L149.051 243.18V244ZM189 244H207.703V243.18L200.977 240.965V186.537H207.375C214.553 186.537 219.229 191.049 219.229 201.836C219.229 211.803 215.086 218.037 207.703 218.037H204.135V219.596H207.785C218.941 219.596 225.873 213.484 225.873 201.836C225.873 192.279 220.541 184.979 209.467 184.979H189V185.799L194.988 188.014V241.006L189 243.18V244ZM273.369 240.965V188.014L279.48 185.799V184.979H261.352V185.799L267.463 188.014V192.033L240.967 232.188V188.014L247.078 185.799V184.979H228.949V185.799L234.979 188.014V241.006L228.949 243.18V244H247.078V243.18L240.967 240.965V234.771L267.463 194.617V241.006L261.434 243.18V244H279.562V243.18L273.369 240.965ZM293.098 244H312.006V243.18L305.566 240.965V186.537H315.943L320.414 197.898H320.742V184.979H284.361V197.898H284.73L289.119 186.537H299.578V240.965L293.098 243.18V244ZM345.762 244.984C359.42 244.984 368.525 232.803 368.525 214.592C368.525 196.299 359.42 184.035 345.762 184.035C332.145 184.035 323.039 196.258 323.039 214.592C323.039 232.844 332.145 244.984 345.762 244.984ZM345.762 243.467C336.123 243.467 329.725 231.9 329.725 214.592C329.725 197.201 336.123 185.594 345.762 185.594C355.482 185.594 361.881 197.242 361.881 214.592C361.881 231.859 355.482 243.467 345.762 243.467ZM372.34 244H391.043V243.18L384.316 240.965V186.537H390.715C397.893 186.537 402.568 191.049 402.568 201.836C402.568 211.803 398.426 218.037 391.043 218.037H387.475V219.596H391.125C402.281 219.596 409.213 213.484 409.213 201.836C409.213 192.279 403.881 184.979 392.807 184.979H372.34V185.799L378.328 188.014V241.006L372.34 243.18V244ZM456.709 240.965V188.014L462.82 185.799V184.979H444.691V185.799L450.803 188.014V192.033L424.307 232.188V188.014L430.418 185.799V184.979H412.289V185.799L418.318 188.014V241.006L412.289 243.18V244H430.418V243.18L424.307 240.965V234.771L450.803 194.617V241.006L444.773 243.18V244H462.902V243.18L456.709 240.965ZM511.26 240.965V188.014L517.371 185.799V184.979H499.242V185.799L505.354 188.014V192.033L478.857 232.188V188.014L484.969 185.799V184.979H466.84V185.799L472.869 188.014V241.006L466.84 243.18V244H484.969V243.18L478.857 240.965V234.771L505.354 194.617V241.006L499.324 243.18V244H517.453V243.18L511.26 240.965ZM564.088 244.984C568.148 244.984 572.496 244.369 579.223 240.062L580.125 225.625H579.51C576.68 236.781 573.152 243.467 564.375 243.467C553.301 243.467 547.148 231.572 547.148 214.551C547.148 198.062 552.891 185.594 563.801 185.594C574.014 185.594 576.844 192.936 579.51 203.395H580.125L579.223 188.957C572.496 184.609 568.148 184.035 564.416 184.035C549.568 184.035 540.422 196.873 540.422 214.551C540.422 232.146 549.855 244.984 564.088 244.984ZM609.246 244.984C622.904 244.984 632.01 232.803 632.01 214.592C632.01 196.299 622.904 184.035 609.246 184.035C595.629 184.035 586.523 196.258 586.523 214.592C586.523 232.844 595.629 244.984 609.246 244.984ZM609.246 243.467C599.607 243.467 593.209 231.9 593.209 214.592C593.209 197.201 599.607 185.594 609.246 185.594C618.967 185.594 625.365 197.242 625.365 214.592C625.365 231.859 618.967 243.467 609.246 243.467ZM635.824 244H654.979C667.283 244 674.584 239.037 674.584 228.127C674.584 220.58 670.4 214.387 662.361 213.238V213.074C668.924 211.229 672.656 205.732 672.656 198.842C672.656 191.5 667.898 184.979 656.578 184.979H635.824V185.799L641.895 188.014V240.965L635.824 243.18V244ZM647.883 212.664V186.537H655.02C662.402 186.537 666.053 191.295 666.053 199.375C666.053 206.635 662.977 212.664 655.84 212.664H647.883ZM647.883 242.441V214.223H656.127C664.248 214.223 667.898 219.596 667.898 228.127C667.898 236.74 664.043 242.441 655.758 242.441H647.883ZM679.465 244H698.168V243.18L691.441 240.965V186.537H697.84C705.018 186.537 709.693 191.049 709.693 201.836C709.693 211.803 705.551 218.037 698.168 218.037H694.6V219.596H698.25C709.406 219.596 716.338 213.484 716.338 201.836C716.338 192.279 711.006 184.979 699.932 184.979H679.465V185.799L685.453 188.014V241.006L679.465 243.18V244ZM719.414 244H755.713L757.559 229.604L757.23 229.521L750.34 242.441H731.473V214.51H742.301L745.828 222.18H746.402V205.199H745.828L742.301 212.951H731.473V186.537H748.002L753.047 199.375H753.334V184.979H719.455V185.799L725.484 188.014V241.006L719.414 243.18V244ZM760.348 244H776.057V243.18L768.92 240.514V191.459L788.607 238.053H790.494L810.264 191.91V240.965L804.029 243.18V244H822.486V243.18L816.252 240.965V188.014L822.486 185.799V184.979H811.576L791.725 231.367L772.406 184.979H760.389V185.799L767.443 188.014V240.514L760.348 243.18V244ZM826.465 244H862.764L864.609 229.604L864.281 229.521L857.391 242.441H838.523V214.51H849.352L852.879 222.18H853.453V205.199H852.879L849.352 212.951H838.523V186.537H855.053L860.098 199.375H860.385V184.979H826.506V185.799L832.535 188.014V241.006L826.465 243.18V244ZM867.398 244H885.527V243.18L879.416 240.965V214.551H905.83V241.006L899.801 243.18V244H917.93V243.18L911.818 240.965V188.014L917.93 185.799V184.979H899.801V185.799L905.83 188.014V212.992H879.416V188.014L885.527 185.799V184.979H867.398V185.799L873.428 188.014V241.006L867.398 243.18V244ZM921.867 244H939.996V243.18L933.885 240.965V214.551H960.299V241.006L954.27 243.18V244H972.398V243.18L966.287 240.965V188.014L972.398 185.799V184.979H954.27V185.799L960.299 188.014V212.992H933.885V188.014L939.996 185.799V184.979H921.867V185.799L927.896 188.014V241.006L921.867 243.18V244ZM998.895 244.984C1012.55 244.984 1021.66 232.803 1021.66 214.592C1021.66 196.299 1012.55 184.035 998.895 184.035C985.277 184.035 976.172 196.258 976.172 214.592C976.172 232.844 985.277 244.984 998.895 244.984ZM998.895 243.467C989.256 243.467 982.857 231.9 982.857 214.592C982.857 197.201 989.256 185.594 998.895 185.594C1008.62 185.594 1015.01 197.242 1015.01 214.592C1015.01 231.859 1008.62 243.467 998.895 243.467ZM1050.7 180.795C1055.5 180.795 1057.79 175.545 1057.88 170.828L1057.42 170.623C1056.89 174.027 1054.84 176.16 1050.7 176.16C1046.6 176.16 1044.59 174.027 1044.05 170.623L1043.6 170.828C1043.68 175.709 1046.06 180.795 1050.7 180.795ZM1069.89 240.965V188.014L1076 185.799V184.979H1057.88V185.799L1063.99 188.014V192.033L1037.49 232.188V188.014L1043.6 185.799V184.979H1025.47V185.799L1031.5 188.014V241.006L1025.47 243.18V244H1043.6V243.18L1037.49 240.965V234.771L1063.99 194.617V241.006L1057.96 243.18V244H1076.09V243.18L1069.89 240.965ZM43.9277 332.965L26.7832 276.979H18.457V277.799L21.6973 281.9L6.60352 332.965L0.205078 335.18V336H15.668V335.18L8.08008 332.965L13.002 316.189H32.6074L37.5703 332.965L31.8281 335.18V336H50.0391V335.18L43.9277 332.965ZM13.4531 314.631L22.7637 283.008L32.1562 314.631H13.4531ZM52.582 336H71.2852V335.18L64.5586 332.965V278.537H70.957C78.1348 278.537 82.8105 283.049 82.8105 293.836C82.8105 303.803 78.668 310.037 71.2852 310.037H67.7168V311.596H71.3672C82.5234 311.596 89.4551 305.484 89.4551 293.836C89.4551 284.279 84.123 276.979 73.0488 276.979H52.582V277.799L58.5703 280.014V333.006L52.582 335.18V336ZM92.5312 336H108.24V335.18L101.104 332.514V283.459L120.791 330.053H122.678L142.447 283.91V332.965L136.213 335.18V336H154.67V335.18L148.436 332.965V280.014L154.67 277.799V276.979H143.76L123.908 323.367L104.59 276.979H92.5723V277.799L99.627 280.014V332.514L92.5312 335.18V336ZM158.648 336H194.947L196.793 321.604L196.465 321.521L189.574 334.441H170.707V306.51H181.535L185.062 314.18H185.637V297.199H185.062L181.535 304.951H170.707V278.537H187.236L192.281 291.375H192.568V276.979H158.689V277.799L164.719 280.014V333.006L158.648 335.18V336ZM199.582 336H217.711V335.18L211.6 332.965V306.551H238.014V333.006L231.984 335.18V336H250.113V335.18L244.002 332.965V280.014L250.113 277.799V276.979H231.984V277.799L238.014 280.014V304.992H211.6V280.014L217.711 277.799V276.979H199.582V277.799L205.611 280.014V333.006L199.582 335.18V336ZM298.471 332.965V280.014L304.582 277.799V276.979H286.453V277.799L292.564 280.014V284.033L266.068 324.188V280.014L272.18 277.799V276.979H254.051V277.799L260.08 280.014V333.006L254.051 335.18V336H272.18V335.18L266.068 332.965V326.771L292.564 286.617V333.006L286.535 335.18V336H304.664V335.18L298.471 332.965ZM353.021 332.965V280.014L359.133 277.799V276.979H341.004V277.799L347.115 280.014V284.033L320.619 324.188V280.014L326.73 277.799V276.979H308.602V277.799L314.631 280.014V333.006L308.602 335.18V336H326.73V335.18L320.619 332.965V326.771L347.115 286.617V333.006L341.086 335.18V336H359.215V335.18L353.021 332.965ZM381.117 336H400.271C412.576 336 419.877 331.037 419.877 320.127C419.877 312.58 415.693 306.387 407.654 305.238V305.074C414.217 303.229 417.949 297.732 417.949 290.842C417.949 283.5 413.191 276.979 401.871 276.979H381.117V277.799L387.188 280.014V332.965L381.117 335.18V336ZM393.176 304.664V278.537H400.312C407.695 278.537 411.346 283.295 411.346 291.375C411.346 298.635 408.27 304.664 401.133 304.664H393.176ZM393.176 334.441V306.223H401.42C409.541 306.223 413.191 311.596 413.191 320.127C413.191 328.74 409.336 334.441 401.051 334.441H393.176ZM483 332.965L467.209 303.434L481.195 280.014L487.594 277.84V276.979H473.074V277.84L479.473 280.014L466.471 302.039L454.986 280.014L461.057 277.84V276.979H442.559V277.84L447.891 280.014L462.328 306.961L447.521 332.965L441.164 335.139V336H455.561V335.139L449.203 332.965L463.148 308.396L475.986 332.965L469.957 335.139V336H488.373V335.139L483 332.965ZM531.07 332.965L515.279 303.434L529.266 280.014L535.664 277.84V276.979H521.145V277.84L527.543 280.014L514.541 302.039L503.057 280.014L509.127 277.84V276.979H490.629V277.84L495.961 280.014L510.398 306.961L495.592 332.965L489.234 335.139V336H503.631V335.139L497.273 332.965L511.219 308.396L524.057 332.965L518.027 335.139V336H536.443V335.139L531.07 332.965ZM555.27 336H574.424C586.729 336 594.029 331.037 594.029 320.127C594.029 312.58 589.846 306.387 581.807 305.238V305.074C588.369 303.229 592.102 297.732 592.102 290.842C592.102 283.5 587.344 276.979 576.023 276.979H555.27V277.799L561.34 280.014V332.965L555.27 335.18V336ZM567.328 304.664V278.537H574.465C581.848 278.537 585.498 283.295 585.498 291.375C585.498 298.635 582.422 304.664 575.285 304.664H567.328ZM567.328 334.441V306.223H575.572C583.693 306.223 587.344 311.596 587.344 320.127C587.344 328.74 583.488 334.441 575.203 334.441H567.328ZM598.91 336H635.209L637.055 321.604L636.727 321.521L629.836 334.441H610.969V306.51H621.797L625.324 314.18H625.898V297.199H625.324L621.797 304.951H610.969V278.537H627.498L632.543 291.375H632.83V276.979H598.951V277.799L604.98 280.014V333.006L598.91 335.18V336ZM678.604 332.965L659.859 302.654L674.256 283.459L682.746 283.336H683.197L683.238 276.979H682.459C677.168 276.979 675.199 279.439 671.631 284.115L656.291 304.131H652.271V280.014L658.752 277.799V276.979H639.844V277.799L646.283 280.014V333.006L639.844 335.18V336H658.752V335.18L652.271 332.965V305.771H654.896L673.436 336H684.756V334.77L678.604 332.965ZM688.324 336H724.623L726.469 321.604L726.141 321.521L719.25 334.441H700.383V306.51H711.211L714.738 314.18H715.312V297.199H714.738L711.211 304.951H700.383V278.537H716.912L721.957 291.375H722.244V276.979H688.365V277.799L694.395 280.014V333.006L688.324 335.18V336Z" fill="white"></path> </svg> 