<?xml version="1.0" encoding="UTF-8"?> <svg xmlns="http://www.w3.org/2000/svg" width="593" height="165" viewBox="0 0 593 165" fill="none"> <path d="M0.96875 60H20.123C32.4277 60 39.7285 55.0371 39.7285 44.127C39.7285 36.5801 35.5449 30.3867 27.5059 29.2383V29.0742C34.0684 27.2285 37.8008 21.7324 37.8008 14.8418C37.8008 7.5 33.043 0.978516 21.7227 0.978516H0.96875V1.79883L7.03906 4.01367V56.9648L0.96875 59.1797V60ZM13.0273 28.6641V2.53711H20.1641C27.5469 2.53711 31.1973 7.29492 31.1973 15.375C31.1973 22.6348 28.1211 28.6641 20.9844 28.6641H13.0273ZM13.0273 58.4414V30.2227H21.2715C29.3926 30.2227 33.043 35.5957 33.043 44.127C33.043 52.7402 29.1875 58.4414 20.9023 58.4414H13.0273ZM44.6094 60H80.9082L82.7539 45.6035L82.4258 45.5215L75.5352 58.4414H56.668V30.5098H67.4961L71.0234 38.1797H71.5977V21.1992H71.0234L67.4961 28.9512H56.668V2.53711H73.1973L78.2422 15.375H78.5293V0.978516H44.6504V1.79883L50.6797 4.01367V57.0059L44.6094 59.1797V60ZM90.3008 60.9844C102.236 60.9844 101.908 22.7168 101.908 2.49609H123.934V57.0059L117.904 59.1797V60H136.033V59.1797L129.84 56.9648V4.01367L135.951 1.79883V0.978516H93.418V1.79883L100.309 4.01367C100.309 21.1992 100.35 59.4668 90.5059 59.4668C88.168 59.4668 86.0762 53.4785 85.0098 50.1973H84.4355L84.3125 58.9336C85.625 60.1641 87.2656 60.9844 90.3008 60.9844ZM184.432 56.9648V4.01367L190.543 1.79883V0.978516H172.414V1.79883L178.525 4.01367V8.0332L152.029 48.1875V4.01367L158.141 1.79883V0.978516H140.012V1.79883L146.041 4.01367V57.0059L140.012 59.1797V60H158.141V59.1797L152.029 56.9648V50.7715L178.525 10.6172V57.0059L172.496 59.1797V60H190.625V59.1797L184.432 56.9648ZM233.322 56.9648L214.578 26.6543L228.975 7.45898L237.465 7.33594H237.916L237.957 0.978516H237.178C231.887 0.978516 229.918 3.43945 226.35 8.11523L211.01 28.1309H206.99V4.01367L213.471 1.79883V0.978516H194.562V1.79883L201.002 4.01367V57.0059L194.562 59.1797V60H213.471V59.1797L206.99 56.9648V29.7715H209.615L228.154 60H239.475V58.7695L233.322 56.9648ZM260.434 60.9844C274.092 60.9844 283.197 48.8027 283.197 30.5918C283.197 12.2988 274.092 0.0351562 260.434 0.0351562C246.816 0.0351562 237.711 12.2578 237.711 30.5918C237.711 48.8438 246.816 60.9844 260.434 60.9844ZM260.434 59.4668C250.795 59.4668 244.396 47.9004 244.396 30.5918C244.396 13.2012 250.795 1.59375 260.434 1.59375C270.154 1.59375 276.553 13.2422 276.553 30.5918C276.553 47.8594 270.154 59.4668 260.434 59.4668ZM287.012 60H323.311L325.156 45.6035L324.828 45.5215L317.938 58.4414H299.07V30.5098H309.898L313.426 38.1797H314V21.1992H313.426L309.898 28.9512H299.07V2.53711H315.6L320.645 15.375H320.932V0.978516H287.053V1.79883L293.082 4.01367V57.0059L287.012 59.1797V60ZM24.7578 152.984C38.416 152.984 47.5215 140.803 47.5215 122.592C47.5215 104.299 38.416 92.0352 24.7578 92.0352C11.1406 92.0352 2.03516 104.258 2.03516 122.592C2.03516 140.844 11.1406 152.984 24.7578 152.984ZM24.7578 151.467C15.1191 151.467 8.7207 139.9 8.7207 122.592C8.7207 105.201 15.1191 93.5938 24.7578 93.5938C34.4785 93.5938 40.877 105.242 40.877 122.592C40.877 139.859 34.4785 151.467 24.7578 151.467ZM77.2988 152.984C81.3594 152.984 85.707 152.369 92.4336 148.062L93.3359 133.625H92.7207C89.8906 144.781 86.3633 151.467 77.5859 151.467C66.5117 151.467 60.3594 139.572 60.3594 122.551C60.3594 106.062 66.1016 93.5938 77.0117 93.5938C87.2246 93.5938 90.0547 100.936 92.7207 111.395H93.3359L92.4336 96.957C85.707 92.6094 81.3594 92.0352 77.627 92.0352C62.7793 92.0352 53.6328 104.873 53.6328 122.551C53.6328 140.146 63.0664 152.984 77.2988 152.984ZM98.668 152H117.822C130.127 152 137.428 147.037 137.428 136.127C137.428 128.58 133.244 122.387 125.205 121.238V121.074C131.768 119.229 135.5 113.732 135.5 106.842C135.5 99.5 130.742 92.9785 119.422 92.9785H98.668V93.7988L104.738 96.0137V148.965L98.668 151.18V152ZM110.727 120.664V94.5371H117.863C125.246 94.5371 128.896 99.2949 128.896 107.375C128.896 114.635 125.82 120.664 118.684 120.664H110.727ZM110.727 150.441V122.223H118.971C127.092 122.223 130.742 127.596 130.742 136.127C130.742 144.74 126.887 150.441 118.602 150.441H110.727ZM166.098 152.984C179.756 152.984 188.861 140.803 188.861 122.592C188.861 104.299 179.756 92.0352 166.098 92.0352C152.48 92.0352 143.375 104.258 143.375 122.592C143.375 140.844 152.48 152.984 166.098 152.984ZM166.098 151.467C156.459 151.467 150.061 139.9 150.061 122.592C150.061 105.201 156.459 93.5938 166.098 93.5938C175.818 93.5938 182.217 105.242 182.217 122.592C182.217 139.859 175.818 151.467 166.098 151.467ZM192.799 152H211.83C224.135 152 231.436 147.037 231.436 136.127C231.436 125.012 223.109 120.664 212.979 120.664H204.734V94.4961H221.1L226.186 107.375H226.432V92.9785H192.676V93.7988L198.746 96.0137V149.047L192.799 151.18V152ZM204.734 150.482V122.223H212.979C221.1 122.223 224.791 127.596 224.791 136.127C224.791 144.74 220.895 150.482 212.609 150.482H204.734ZM260.105 152.984C273.764 152.984 282.869 140.803 282.869 122.592C282.869 104.299 273.764 92.0352 260.105 92.0352C246.488 92.0352 237.383 104.258 237.383 122.592C237.383 140.844 246.488 152.984 260.105 152.984ZM260.105 151.467C250.467 151.467 244.068 139.9 244.068 122.592C244.068 105.201 250.467 93.5938 260.105 93.5938C269.826 93.5938 276.225 105.242 276.225 122.592C276.225 139.859 269.826 151.467 260.105 151.467ZM342.178 148.965L323.434 118.654L337.83 99.459L346.32 99.3359H346.771L346.812 92.9785H346.033C340.742 92.9785 338.773 95.4395 335.205 100.115L319.865 120.131H317.896V96.0137L324.377 93.7988V92.9785H305.469V93.7988L311.908 96.0137V120.131H310.021L294.682 100.115C291.113 95.4395 289.145 92.9785 283.854 92.9785H283.074L283.115 99.3359H283.566L292.057 99.459L306.453 118.654L287.709 148.965L281.557 150.77V152H292.877L311.416 121.771H311.908V149.006L305.469 151.18V152H324.377V151.18L317.896 148.965V121.771H318.471L337.01 152H348.33V150.77L342.178 148.965ZM350.668 164.838H350.996L356.164 152H395.539L400.707 164.838H400.994V150.482H394.227V96.0137L400.256 93.7988V92.9785H358.707V93.7988L365.598 96.0137C365.639 115.496 365.639 142.361 354.277 150.482H350.668V164.838ZM356.861 150.482C367.689 140.803 367.156 113.445 367.238 94.4961H388.279V150.482H356.861ZM404.562 152H440.861L442.707 137.604L442.379 137.521L435.488 150.441H416.621V122.51H427.449L430.977 130.18H431.551V113.199H430.977L427.449 120.951H416.621V94.5371H433.15L438.195 107.375H438.482V92.9785H404.604V93.7988L410.633 96.0137V149.006L404.562 151.18V152ZM445.496 152H463.625V151.18L457.514 148.965V122.551H483.928V149.006L477.898 151.18V152H496.027V151.18L489.916 148.965V96.0137L496.027 93.7988V92.9785H477.898V93.7988L483.928 96.0137V120.992H457.514V96.0137L463.625 93.7988V92.9785H445.496V93.7988L451.525 96.0137V149.006L445.496 151.18V152ZM544.385 148.965V96.0137L550.496 93.7988V92.9785H532.367V93.7988L538.479 96.0137V100.033L511.982 140.188V96.0137L518.094 93.7988V92.9785H499.965V93.7988L505.994 96.0137V149.006L499.965 151.18V152H518.094V151.18L511.982 148.965V142.771L538.479 102.617V149.006L532.449 151.18V152H550.578V151.18L544.385 148.965ZM554.516 152H590.814L592.66 137.604L592.332 137.521L585.441 150.441H566.574V122.51H577.402L580.93 130.18H581.504V113.199H580.93L577.402 120.951H566.574V94.5371H583.104L588.148 107.375H588.436V92.9785H554.557V93.7988L560.586 96.0137V149.006L554.516 151.18V152Z" fill="white"></path> </svg> 