<?xml version="1.0" encoding="UTF-8"?> <svg xmlns="http://www.w3.org/2000/svg" width="233" height="61" viewBox="0 0 233 61" fill="none"> <path d="M6.72656 60.9844C18.6621 60.9844 18.334 22.7168 18.334 2.49609H40.3594V57.0059L34.3301 59.1797V60H52.459V59.1797L46.2656 56.9648V4.01367L52.377 1.79883V0.978516H9.84375V1.79883L16.7344 4.01367C16.7344 21.1992 16.7754 59.4668 6.93164 59.4668C4.59375 59.4668 2.50195 53.4785 1.43555 50.1973H0.861328L0.738281 58.9336C2.05078 60.1641 3.69141 60.9844 6.72656 60.9844ZM56.4375 60H92.7363L94.582 45.6035L94.2539 45.5215L87.3633 58.4414H68.4961V30.5098H79.3242L82.8516 38.1797H83.4258V21.1992H82.8516L79.3242 28.9512H68.4961V2.53711H85.0254L90.0703 15.375H90.3574V0.978516H56.4785V1.79883L62.5078 4.01367V57.0059L56.4375 59.1797V60ZM97.3711 60H116.525C128.83 60 136.131 55.0371 136.131 44.127C136.131 36.5801 131.947 30.3867 123.908 29.2383V29.0742C130.471 27.2285 134.203 21.7324 134.203 14.8418C134.203 7.5 129.445 0.978516 118.125 0.978516H97.3711V1.79883L103.441 4.01367V56.9648L97.3711 59.1797V60ZM109.43 28.6641V2.53711H116.566C123.949 2.53711 127.6 7.29492 127.6 15.375C127.6 22.6348 124.523 28.6641 117.387 28.6641H109.43ZM109.43 58.4414V30.2227H117.674C125.795 30.2227 129.445 35.5957 129.445 44.127C129.445 52.7402 125.59 58.4414 117.305 58.4414H109.43ZM141.012 60H177.311L179.156 45.6035L178.828 45.5215L171.938 58.4414H153.07V30.5098H163.898L167.426 38.1797H168V21.1992H167.426L163.898 28.9512H153.07V2.53711H169.6L174.645 15.375H174.932V0.978516H141.053V1.79883L147.082 4.01367V57.0059L141.012 59.1797V60ZM181.945 60H200.074V59.1797L193.963 56.9648V30.5508H220.377V57.0059L214.348 59.1797V60H232.477V59.1797L226.365 56.9648V4.01367L232.477 1.79883V0.978516H214.348V1.79883L220.377 4.01367V28.9922H193.963V4.01367L200.074 1.79883V0.978516H181.945V1.79883L187.975 4.01367V57.0059L181.945 59.1797V60Z" fill="black"></path> </svg> 