<?xml version="1.0" encoding="UTF-8"?> <svg xmlns="http://www.w3.org/2000/svg" width="1769" height="623" viewBox="0 0 1769 623" fill="none"> <g filter="url(#filter0_b)"> <path d="M62.7539 97.6641L38.2617 17.6836H26.3672V18.8555L30.9961 24.7148L9.43359 97.6641L0.292969 100.828V102H22.3828V100.828L11.543 97.6641L18.5742 73.6992H46.582L53.6719 97.6641L45.4688 100.828V102H71.4844V100.828L62.7539 97.6641ZM19.2188 71.4727L32.5195 26.2969L45.9375 71.4727H19.2188ZM76.8164 102H128.379L130.195 82.3711L129.727 82.2539L120.762 99.832H86.8945L127.91 19.1484L127.793 17.6836H80.2734L78.457 37.3125H78.9844L87.832 19.9102H117.48L76.6406 100.594L76.8164 102ZM164.297 103.406C181.523 103.406 195.527 84.9492 195.527 60.1055C195.527 33.0352 180.352 16.3359 163.535 16.3359C153.516 16.3359 144.023 22.957 138.633 32.625L139.512 33.7383C144.844 26.1797 150.352 20.3789 162.539 20.3789C177.656 20.3789 185.977 37.3125 185.977 61.5117C185.977 63.5625 185.977 64.8516 185.801 67.1367H137.109C137.109 87.0586 147.48 103.406 164.297 103.406ZM164.648 101.004C153.398 101.004 146.367 89.2852 146.367 70.7109L185.742 68.7188C184.629 87.2344 176.426 101.004 164.648 101.004ZM200.977 102H226.523V100.828L218.145 97.6641V19.9102H228.75C240.176 19.9102 244.805 27.6445 244.805 38.8945C244.805 52.6641 239.531 60.3398 227.109 60.3398H221.836V62.5664H226.816C228.516 62.5664 230.391 62.4492 232.207 62.1562L249.668 102H263.848L263.789 100.828L257.285 97.2539L241.348 62.9766C240.117 63.0352 237.832 62.5664 235.605 61.9805V61.6875C245.801 59.6953 254.355 52.5469 254.355 38.543C254.355 26.0039 246.328 17.6836 231.504 17.6836H200.977V18.8555L209.59 22.0195V97.7227L200.977 100.828V102ZM268.711 102H296.074C313.652 102 324.082 94.9102 324.082 79.3242C324.082 68.543 318.105 59.6953 306.621 58.0547V57.8203C315.996 55.1836 321.328 47.332 321.328 37.4883C321.328 27 314.531 17.6836 298.359 17.6836H268.711V18.8555L277.383 22.0195V97.6641L268.711 100.828V102ZM285.938 57.2344V19.9102H296.133C306.68 19.9102 311.895 26.707 311.895 38.25C311.895 48.6211 307.5 57.2344 297.305 57.2344H285.938ZM285.938 99.7734V59.4609H297.715C309.316 59.4609 314.531 67.1367 314.531 79.3242C314.531 91.6289 309.023 99.7734 297.188 99.7734H285.938ZM390.996 97.6641L366.504 17.6836H354.609V18.8555L359.238 24.7148L337.676 97.6641L328.535 100.828V102H350.625V100.828L339.785 97.6641L346.816 73.6992H374.824L381.914 97.6641L373.711 100.828V102H399.727V100.828L390.996 97.6641ZM347.461 71.4727L360.762 26.2969L374.18 71.4727H347.461ZM407.402 102H434.297V100.828L425.098 97.6641V63.0938L446.074 22.0195L455.273 18.9141V17.6836H432.598V18.9141L443.613 22.1953L424.16 60.5742L405.586 22.0195L414.609 18.9141V17.6836H387.246V18.9141L396.035 22.0195L416.543 64.5586V97.7227L407.402 100.828V102ZM483.809 103.406C489.609 103.406 495.82 102.527 505.43 96.375L506.719 75.75H505.84C501.797 91.6875 496.758 101.238 484.219 101.238C468.398 101.238 459.609 84.2461 459.609 59.9297C459.609 36.375 467.812 18.5625 483.398 18.5625C497.988 18.5625 502.031 29.0508 505.84 43.9922H506.719L505.43 23.3672C495.82 17.1562 489.609 16.3359 484.277 16.3359C463.066 16.3359 450 34.6758 450 59.9297C450 85.0664 463.477 103.406 483.809 103.406ZM574.277 97.6641L549.785 17.6836H537.891V18.8555L542.52 24.7148L520.957 97.6641L511.816 100.828V102H533.906V100.828L523.066 97.6641L530.098 73.6992H558.105L565.195 97.6641L556.992 100.828V102H583.008V100.828L574.277 97.6641ZM530.742 71.4727L544.043 26.2969L557.461 71.4727H530.742ZM644.648 102.996L646.992 102V22.6641L656.953 18.7969V17.6836H634.98V18.7969L644.941 22.6641V88.2891L601.699 17.6836H586.641V18.8555L596.484 22.0195V97.0195L586.641 100.828V102H608.379V100.828L598.477 97.0195V28.6406L644.648 102.996ZM744.141 97.6641L721.582 55.4766L741.562 22.0195L750.703 18.9141V17.6836H729.961V18.9141L739.102 22.0195L720.527 53.4844L704.121 22.0195L712.793 18.9141V17.6836H686.367V18.9141L693.984 22.0195L714.609 60.5156L693.457 97.6641L684.375 100.77V102H704.941V100.77L695.859 97.6641L715.781 62.5664L734.121 97.6641L725.508 100.77V102H751.816V100.77L744.141 97.6641ZM815.918 97.6641L791.426 17.6836H779.531V18.8555L784.16 24.7148L762.598 97.6641L753.457 100.828V102H775.547V100.828L764.707 97.6641L771.738 73.6992H799.746L806.836 97.6641L798.633 100.828V102H824.648V100.828L815.918 97.6641ZM772.383 71.4727L785.684 26.2969L799.102 71.4727H772.383ZM828.281 102H876.094L878.613 81.4336L878.145 81.3164L868.418 99.7734H845.391V22.0195L855.059 18.8555V17.6836H828.281V18.8555L836.836 22.0195V97.7227L828.281 100.828V102ZM947.988 59.9883C947.988 33.8555 934.98 16.3359 915.469 16.3359C896.016 16.3359 883.008 33.7969 883.008 59.9883C883.008 85.5938 895.547 102.82 914.473 103.406L937.031 123.797L945.645 119.871V119.168L921.445 102.82C937.559 99.6562 947.988 83.25 947.988 59.9883ZM892.559 59.9883C892.559 35.1445 901.699 18.5625 915.469 18.5625C929.355 18.5625 938.496 35.2031 938.496 59.9883C938.496 84.6562 929.355 101.238 915.469 101.238C901.699 101.238 892.559 84.7148 892.559 59.9883ZM1016.19 103.406C1021.99 103.406 1028.2 102.527 1037.81 96.375L1039.1 75.75H1038.22C1034.18 91.6875 1029.14 101.238 1016.6 101.238C1000.78 101.238 991.992 84.2461 991.992 59.9297C991.992 36.375 1000.2 18.5625 1015.78 18.5625C1030.37 18.5625 1034.41 29.0508 1038.22 43.9922H1039.1L1037.81 23.3672C1028.2 17.1562 1021.99 16.3359 1016.66 16.3359C995.449 16.3359 982.383 34.6758 982.383 59.9297C982.383 85.0664 995.859 103.406 1016.19 103.406ZM1073.09 10.6523C1076.13 10.6523 1078.18 8.42578 1078.18 5.55469C1078.18 2.68359 1076.13 0.574219 1073.09 0.574219C1070.27 0.574219 1068.05 2.625 1068.05 5.55469C1068.05 8.48438 1070.27 10.6523 1073.09 10.6523ZM1087.44 10.6523C1090.37 10.6523 1092.48 8.48438 1092.48 5.55469C1092.48 2.625 1090.31 0.574219 1087.44 0.574219C1084.51 0.574219 1082.34 2.625 1082.34 5.55469C1082.34 8.48438 1084.51 10.6523 1087.44 10.6523ZM1080.94 103.406C1098.22 103.406 1105.25 91.3945 1105.25 73.1133V22.6641L1115.45 18.7969V17.6836H1093.01V18.7969L1103.26 22.6641V74.0508C1103.26 88.7578 1097.7 101.238 1083.16 101.238C1071.27 101.238 1063.24 91.5117 1063.24 74.0508V22.0195L1071.97 18.8555V17.6836H1046.07V18.8555L1054.69 22.0195V74.8711C1054.69 93.5625 1066 103.406 1080.94 103.406ZM1118.44 102H1140.88V100.828L1130.68 97.0195V26.9414L1158.81 93.5039H1161.5L1189.75 27.5859V97.6641L1180.84 100.828V102H1207.21V100.828L1198.3 97.6641V22.0195L1207.21 18.8555V17.6836H1191.62L1163.26 83.9531L1135.66 17.6836H1118.5V18.8555L1128.57 22.0195V97.0195L1118.44 100.828V102ZM1212.89 102H1238.79V100.828L1230.06 97.6641V59.9297H1267.79V97.7227L1259.18 100.828V102H1285.08V100.828L1276.35 97.6641V22.0195L1285.08 18.8555V17.6836H1259.18V18.8555L1267.79 22.0195V57.7031H1230.06V22.0195L1238.79 18.8555V17.6836H1212.89V18.8555L1221.5 22.0195V97.7227L1212.89 100.828V102ZM1324.92 103.406C1342.21 103.406 1349.24 91.3945 1349.24 73.1133V22.6641L1359.43 18.7969V17.6836H1336.99V18.7969L1347.25 22.6641V74.0508C1347.25 88.7578 1341.68 101.238 1327.15 101.238C1315.25 101.238 1307.23 91.5117 1307.23 74.0508V22.0195L1315.96 18.8555V17.6836H1290.06V18.8555L1298.67 22.0195V74.8711C1298.67 93.5625 1309.98 103.406 1324.92 103.406ZM1362.42 102H1387.97V100.828L1379.59 97.6641V19.9102H1390.2C1401.62 19.9102 1406.25 27.6445 1406.25 38.8945C1406.25 52.6641 1400.98 60.3398 1388.55 60.3398H1383.28V62.5664H1388.26C1389.96 62.5664 1391.84 62.4492 1393.65 62.1562L1411.11 102H1425.29L1425.23 100.828L1418.73 97.2539L1402.79 62.9766C1401.56 63.0352 1399.28 62.5664 1397.05 61.9805V61.6875C1407.25 59.6953 1415.8 52.5469 1415.8 38.543C1415.8 26.0039 1407.77 17.6836 1392.95 17.6836H1362.42V18.8555L1371.04 22.0195V97.7227L1362.42 100.828V102ZM1443.05 11.3555C1446.04 11.3555 1448.26 9.30469 1448.26 6.25781C1448.26 3.26953 1446.04 1.10156 1443.05 1.10156C1440 1.10156 1437.77 3.26953 1437.77 6.25781C1437.77 9.30469 1440 11.3555 1443.05 11.3555ZM1430.16 102H1455.94V100.828L1447.32 97.6641V22.0195L1455.94 18.8555V17.6836H1430.16V18.8555L1438.77 22.0195V97.7227L1430.16 100.828V102ZM1479.2 102H1506.09V100.828L1496.89 97.6641V63.0938L1517.87 22.0195L1527.07 18.9141V17.6836H1504.39V18.9141L1515.41 22.1953L1495.96 60.5742L1477.38 22.0195L1486.41 18.9141V17.6836H1459.04V18.9141L1467.83 22.0195L1488.34 64.5586V97.7227L1479.2 100.828V102ZM1550.33 102H1577.23V100.828L1568.03 97.6641V63.0938L1589 22.0195L1598.2 18.9141V17.6836H1575.53V18.9141L1586.54 22.1953L1567.09 60.5742L1548.52 22.0195L1557.54 18.9141V17.6836H1530.18V18.9141L1538.96 22.0195L1559.47 64.5586V97.7227L1550.33 100.828V102ZM1620.12 103.406C1637.34 103.406 1651.35 84.9492 1651.35 60.1055C1651.35 33.0352 1636.17 16.3359 1619.36 16.3359C1609.34 16.3359 1599.84 22.957 1594.45 32.625L1595.33 33.7383C1600.66 26.1797 1606.17 20.3789 1618.36 20.3789C1633.48 20.3789 1641.8 37.3125 1641.8 61.5117C1641.8 63.5625 1641.8 64.8516 1641.62 67.1367H1592.93C1592.93 87.0586 1603.3 103.406 1620.12 103.406ZM1620.47 101.004C1609.22 101.004 1602.19 89.2852 1602.19 70.7109L1641.56 68.7188C1640.45 87.2344 1632.25 101.004 1620.47 101.004ZM1668.16 102H1695.18V100.828L1685.98 97.6641V19.9102H1700.8L1707.19 36.1406H1707.66V17.6836H1655.68V36.1406H1656.21L1662.48 19.9102H1677.42V97.6641L1668.16 100.828V102ZM1727.46 11.3555C1730.45 11.3555 1732.68 9.30469 1732.68 6.25781C1732.68 3.26953 1730.45 1.10156 1727.46 1.10156C1724.41 1.10156 1722.19 3.26953 1722.19 6.25781C1722.19 9.30469 1724.41 11.3555 1727.46 11.3555ZM1714.57 102H1740.35V100.828L1731.74 97.6641V22.0195L1740.35 18.8555V17.6836H1714.57V18.8555L1723.18 22.0195V97.7227L1714.57 100.828V102ZM2.8125 275H33.75C55.1953 275 68.3203 259.18 68.3203 232.754C68.3203 206.445 55.1367 190.684 34.5117 190.684H2.8125V191.855L11.4258 194.902V270.723L2.8125 273.828V275ZM19.9805 272.773V192.91H33.3398C50.0977 192.91 58.7109 206.738 58.7109 233.516C58.7109 258.477 50.6836 272.773 32.5195 272.773H19.9805ZM102.188 183.652C105.234 183.652 107.285 181.426 107.285 178.555C107.285 175.684 105.234 173.574 102.188 173.574C99.375 173.574 97.1484 175.625 97.1484 178.555C97.1484 181.484 99.375 183.652 102.188 183.652ZM116.543 183.652C119.473 183.652 121.582 181.484 121.582 178.555C121.582 175.625 119.414 173.574 116.543 173.574C113.613 173.574 111.445 175.625 111.445 178.555C111.445 181.484 113.613 183.652 116.543 183.652ZM109.453 276.406C128.965 276.406 141.973 259.004 141.973 232.988C141.973 206.855 128.965 189.336 109.453 189.336C90 189.336 76.9922 206.797 76.9922 232.988C76.9922 259.062 90 276.406 109.453 276.406ZM109.453 274.238C95.6836 274.238 86.543 257.715 86.543 232.988C86.543 208.145 95.6836 191.562 109.453 191.562C123.34 191.562 132.48 208.203 132.48 232.988C132.48 257.656 123.34 274.238 109.453 274.238ZM170.508 275H175.488L199.219 195.02L208.301 191.855V190.684H186.445V191.855L197.051 195.02L175.957 265.449L156.387 195.02L165.879 191.855V190.684H138.281V191.855L146.953 195.02L170.508 275ZM211.289 275H236.836V273.828L228.457 270.664V192.91H239.062C250.488 192.91 255.117 200.645 255.117 211.895C255.117 225.664 249.844 233.34 237.422 233.34H232.148V235.566H237.129C238.828 235.566 240.703 235.449 242.52 235.156L259.98 275H274.16L274.102 273.828L267.598 270.254L251.66 235.977C250.43 236.035 248.145 235.566 245.918 234.98V234.688C256.113 232.695 264.668 225.547 264.668 211.543C264.668 199.004 256.641 190.684 241.816 190.684H211.289V191.855L219.902 195.02V270.723L211.289 273.828V275ZM305.391 183.652C308.438 183.652 310.488 181.426 310.488 178.555C310.488 175.684 308.438 173.574 305.391 173.574C302.578 173.574 300.352 175.625 300.352 178.555C300.352 181.484 302.578 183.652 305.391 183.652ZM319.746 183.652C322.676 183.652 324.785 181.484 324.785 178.555C324.785 175.625 322.617 173.574 319.746 173.574C316.816 173.574 314.648 175.625 314.648 178.555C314.648 181.484 316.816 183.652 319.746 183.652ZM313.242 276.406C330.527 276.406 337.559 264.395 337.559 246.113V195.664L347.754 191.797V190.684H325.312V191.797L335.566 195.664V247.051C335.566 261.758 330 274.238 315.469 274.238C303.574 274.238 295.547 264.512 295.547 247.051V195.02L304.277 191.855V190.684H278.379V191.855L286.992 195.02V247.871C286.992 266.562 298.301 276.406 313.242 276.406ZM408.75 275.996L411.094 275V195.664L421.055 191.797V190.684H399.082V191.797L409.043 195.664V261.289L365.801 190.684H350.742V191.855L360.586 195.02V270.02L350.742 273.828V275H372.48V273.828L362.578 270.02V201.641L408.75 275.996ZM423.984 275H454.922C476.367 275 489.492 259.18 489.492 232.754C489.492 206.445 476.309 190.684 455.684 190.684H423.984V191.855L432.598 194.902V270.723L423.984 273.828V275ZM441.152 272.773V192.91H454.512C471.27 192.91 479.883 206.738 479.883 233.516C479.883 258.477 471.855 272.773 453.691 272.773H441.152ZM525.352 276.406C542.578 276.406 556.582 257.949 556.582 233.105C556.582 206.035 541.406 189.336 524.59 189.336C514.57 189.336 505.078 195.957 499.688 205.625L500.566 206.738C505.898 199.18 511.406 193.379 523.594 193.379C538.711 193.379 547.031 210.312 547.031 234.512C547.031 236.562 547.031 237.852 546.855 240.137H498.164C498.164 260.059 508.535 276.406 525.352 276.406ZM525.703 274.004C514.453 274.004 507.422 262.285 507.422 243.711L546.797 241.719C545.684 260.234 537.48 274.004 525.703 274.004ZM606.797 298.379L608.086 297.441C603.164 285.957 597.598 267.5 597.598 240.488C597.598 213.477 603.164 194.551 608.086 183.301L606.797 182.422C599.883 192.969 590.977 212.305 590.977 240.488C590.977 268.672 599.824 287.422 606.797 298.379ZM613.418 275H639.492V273.828L630.996 270.664V189.336H630.41L614.883 200.762V201.523H622.441V270.664L613.418 273.828V275ZM669.316 189.336C655.664 189.336 645.469 201.582 645.469 218.867C645.469 234.453 654.141 244.883 665.801 244.883C672.949 244.883 678.398 240.898 682.148 234.98C679.102 251.562 670.898 265.039 654.551 275.117L655.137 276.406C681.973 265.508 693.047 244.004 693.047 221.152C693.047 202.812 683.438 189.336 669.316 189.336ZM669.199 191.504C679.043 191.504 683.613 203.984 683.613 218.867C683.613 222.969 683.32 227.363 682.676 231.289C679.512 237.676 674.648 240.84 669.199 240.84C659.941 240.84 654.844 232.109 654.844 217.051C654.844 201.699 660.234 191.504 669.199 191.504ZM702.48 275H728.555V273.828L720.059 270.664V189.336H719.473L703.945 200.762V201.523H711.504V270.664L702.48 273.828V275ZM763.301 229.062C774.434 225.547 779.004 217.168 779.004 208.848C779.004 197.129 770.566 189.336 758.613 189.336C746.309 189.336 737.871 197.949 737.871 210.371C737.871 219.688 741.973 226.367 752.695 232.578C740.977 235.801 735.234 245.176 735.234 255.371C735.234 268.145 744.727 276.406 758.496 276.406C771.855 276.406 781.875 268.379 781.875 253.965C781.875 244.414 777.949 236.973 763.301 229.062ZM745.898 207.91C745.898 198.008 750.527 191.504 758.965 191.504C767.168 191.504 771.621 198.125 771.621 208.379C771.621 216.113 769.102 223.555 761.895 228.301C751.348 222.5 745.898 217.461 745.898 207.91ZM758.438 274.238C748.477 274.238 742.676 267.09 742.676 255.664C742.676 246.348 745.957 237.969 754.336 233.516C758.086 235.449 774.082 241.777 774.082 256.426C774.082 267.383 768.164 274.238 758.438 274.238ZM792.539 244.766H811.641V242.715H792.539V244.766ZM821.543 275H847.617V273.828L839.121 270.664V189.336H838.535L823.008 200.762V201.523H830.566V270.664L821.543 273.828V275ZM877.441 189.336C863.789 189.336 853.594 201.582 853.594 218.867C853.594 234.453 862.266 244.883 873.926 244.883C881.074 244.883 886.523 240.898 890.273 234.98C887.227 251.562 879.023 265.039 862.676 275.117L863.262 276.406C890.098 265.508 901.172 244.004 901.172 221.152C901.172 202.812 891.562 189.336 877.441 189.336ZM877.324 191.504C887.168 191.504 891.738 203.984 891.738 218.867C891.738 222.969 891.445 227.363 890.801 231.289C887.637 237.676 882.773 240.84 877.324 240.84C868.066 240.84 862.969 232.109 862.969 217.051C862.969 201.699 868.359 191.504 877.324 191.504ZM909.199 275H949.336L952.031 253.262L951.621 253.145L942.48 268.086H913.887C938.086 245 951.035 228.887 951.035 211.191C951.035 198.125 943.828 189.336 929.297 189.336C923.438 189.336 917.988 191.27 911.602 195.195L910.43 214.648H911.309C912.305 210.781 917.285 191.504 928.652 191.504C936.855 191.504 941.777 199.121 941.777 211.309C941.777 227.305 930.762 245.762 908.848 271.777L909.199 275ZM989.473 276.406C1006.88 276.406 1017.25 260.293 1017.25 232.988C1017.25 205.566 1006.88 189.336 989.473 189.336C972.07 189.336 961.758 205.625 961.758 232.988C961.758 260.234 972.07 276.406 989.473 276.406ZM989.473 274.238C977.402 274.238 971.191 260.059 971.191 232.988C971.191 205.801 977.402 191.562 989.473 191.562C1001.54 191.562 1007.81 205.801 1007.81 232.988C1007.81 260.059 1001.54 274.238 989.473 274.238ZM1027.38 244.766H1046.48V242.715H1027.38V244.766ZM1090.37 276.406C1096.17 276.406 1102.38 275.527 1111.99 269.375L1113.28 248.75H1112.4C1108.36 264.688 1103.32 274.238 1090.78 274.238C1074.96 274.238 1066.17 257.246 1066.17 232.93C1066.17 209.375 1074.38 191.562 1089.96 191.562C1104.55 191.562 1108.59 202.051 1112.4 216.992H1113.28L1111.99 196.367C1102.38 190.156 1096.17 189.336 1090.84 189.336C1069.63 189.336 1056.56 207.676 1056.56 232.93C1056.56 258.066 1070.04 276.406 1090.37 276.406ZM1133.79 184.355C1136.78 184.355 1139 182.305 1139 179.258C1139 176.27 1136.78 174.102 1133.79 174.102C1130.74 174.102 1128.52 176.27 1128.52 179.258C1128.52 182.305 1130.74 184.355 1133.79 184.355ZM1120.9 275H1146.68V273.828L1138.07 270.664V195.02L1146.68 191.855V190.684H1120.9V191.855L1129.51 195.02V270.723L1120.9 273.828V275ZM1190.86 184.355C1193.85 184.355 1196.07 182.305 1196.07 179.258C1196.07 176.27 1193.85 174.102 1190.86 174.102C1187.81 174.102 1185.59 176.27 1185.59 179.258C1185.59 182.305 1187.81 184.355 1190.86 184.355ZM1177.97 275H1203.75V273.828L1195.14 270.664V195.02L1203.75 191.855V190.684H1177.97V191.855L1186.58 195.02V270.723L1177.97 273.828V275ZM1209.38 275H1257.19L1259.71 254.434L1259.24 254.316L1249.51 272.773H1226.48V195.02L1236.15 191.855V190.684H1209.38V191.855L1217.93 195.02V270.723L1209.38 273.828V275ZM1263.75 275H1311.56L1314.08 254.434L1313.61 254.316L1303.89 272.773H1280.86V195.02L1290.53 191.855V190.684H1263.75V191.855L1272.3 195.02V270.723L1263.75 273.828V275ZM1345.66 276.406C1362.89 276.406 1376.89 257.949 1376.89 233.105C1376.89 206.035 1361.72 189.336 1344.9 189.336C1334.88 189.336 1325.39 195.957 1320 205.625L1320.88 206.738C1326.21 199.18 1331.72 193.379 1343.91 193.379C1359.02 193.379 1367.34 210.312 1367.34 234.512C1367.34 236.562 1367.34 237.852 1367.17 240.137H1318.48C1318.48 260.059 1328.85 276.406 1345.66 276.406ZM1346.02 274.004C1334.77 274.004 1327.73 262.285 1327.73 243.711L1367.11 241.719C1366 260.234 1357.79 274.004 1346.02 274.004ZM1382.34 275H1407.89V273.828L1399.51 270.664V192.91H1410.12C1421.54 192.91 1426.17 200.645 1426.17 211.895C1426.17 225.664 1420.9 233.34 1408.48 233.34H1403.2V235.566H1408.18C1409.88 235.566 1411.76 235.449 1413.57 235.156L1431.04 275H1445.21L1445.16 273.828L1438.65 270.254L1422.71 235.977C1421.48 236.035 1419.2 235.566 1416.97 234.98V234.688C1427.17 232.695 1435.72 225.547 1435.72 211.543C1435.72 199.004 1427.7 190.684 1412.87 190.684H1382.34V191.855L1390.96 195.02V270.723L1382.34 273.828V275ZM1449.73 298.379C1456.7 287.422 1465.55 268.672 1465.55 240.488C1465.55 212.305 1456.64 192.969 1449.73 182.422L1448.44 183.301C1453.36 194.551 1458.93 213.477 1458.93 240.488C1458.93 267.5 1453.36 285.957 1448.44 297.441L1449.73 298.379ZM69.3164 405.988C69.3164 379.855 56.3086 362.336 36.7969 362.336C17.3438 362.336 4.33594 379.797 4.33594 405.988C4.33594 431.594 16.875 448.82 35.8008 449.406L58.3594 469.797L66.9727 465.871V465.168L42.7734 448.82C58.8867 445.656 69.3164 429.25 69.3164 405.988ZM13.8867 405.988C13.8867 381.145 23.0273 364.562 36.7969 364.562C50.6836 364.562 59.8242 381.203 59.8242 405.988C59.8242 430.656 50.6836 447.238 36.7969 447.238C23.0273 447.238 13.8867 430.715 13.8867 405.988ZM129.434 443.664L104.941 363.684H93.0469V364.855L97.6758 370.715L76.1133 443.664L66.9727 446.828V448H89.0625V446.828L78.2227 443.664L85.2539 419.699H113.262L120.352 443.664L112.148 446.828V448H138.164V446.828L129.434 443.664ZM85.8984 417.473L99.1992 372.297L112.617 417.473H85.8984ZM141.797 448H167.344V446.828L158.965 443.664V365.91H169.57C180.996 365.91 185.625 373.645 185.625 384.895C185.625 398.664 180.352 406.34 167.93 406.34H162.656V408.566H167.637C169.336 408.566 171.211 408.449 173.027 408.156L190.488 448H204.668L204.609 446.828L198.105 443.254L182.168 408.977C180.938 409.035 178.652 408.566 176.426 407.98V407.688C186.621 405.695 195.176 398.547 195.176 384.543C195.176 372.004 187.148 363.684 172.324 363.684H141.797V364.855L150.41 368.02V443.723L141.797 446.828V448ZM269.473 443.664L244.98 363.684H233.086V364.855L237.715 370.715L216.152 443.664L207.012 446.828V448H229.102V446.828L218.262 443.664L225.293 419.699H253.301L260.391 443.664L252.188 446.828V448H278.203V446.828L269.473 443.664ZM225.938 417.473L239.238 372.297L252.656 417.473H225.938ZM281.836 448H309.199C326.777 448 337.207 440.91 337.207 425.324C337.207 414.543 331.23 405.695 319.746 404.055V403.82C329.121 401.184 334.453 393.332 334.453 383.488C334.453 373 327.656 363.684 311.484 363.684H281.836V364.855L290.508 368.02V443.664L281.836 446.828V448ZM299.062 403.234V365.91H309.258C319.805 365.91 325.02 372.707 325.02 384.25C325.02 394.621 320.625 403.234 310.43 403.234H299.062ZM299.062 445.773V405.461H310.84C322.441 405.461 327.656 413.137 327.656 425.324C327.656 437.629 322.148 445.773 310.312 445.773H299.062ZM404.121 443.664L379.629 363.684H367.734V364.855L372.363 370.715L350.801 443.664L341.66 446.828V448H363.75V446.828L352.91 443.664L359.941 419.699H387.949L395.039 443.664L386.836 446.828V448H412.852V446.828L404.121 443.664ZM360.586 417.473L373.887 372.297L387.305 417.473H360.586ZM444.551 357.707C451.406 357.707 454.688 350.207 454.805 343.469L454.16 343.176C453.398 348.039 450.469 351.086 444.551 351.086C438.691 351.086 435.82 348.039 435.059 343.176L434.414 343.469C434.531 350.441 437.93 357.707 444.551 357.707ZM445.02 449.406C454.805 449.406 461.836 446.125 469.629 438.391V409.562H451.523V410.207L461.602 415.07V435.461C461.602 441.32 453.105 447.238 447.012 447.238C428.672 447.238 420.117 430.363 420.117 405.988C420.117 385.07 426.68 364.504 444.316 364.504C458.613 364.504 462.949 375.461 466.582 389.992H467.461L466.23 369.367C459.668 365.383 452.637 362.336 445.723 362.336C423.105 362.336 410.508 381.027 410.508 405.93C410.508 431.125 423.633 449.406 445.02 449.406ZM533.438 448H538.418L562.148 368.02L571.23 364.855V363.684H549.375V364.855L559.98 368.02L538.887 438.449L519.316 368.02L528.809 364.855V363.684H501.211V364.855L509.883 368.02L533.438 448ZM593.672 449.406C610.898 449.406 624.902 430.949 624.902 406.105C624.902 379.035 609.727 362.336 592.91 362.336C582.891 362.336 573.398 368.957 568.008 378.625L568.887 379.738C574.219 372.18 579.727 366.379 591.914 366.379C607.031 366.379 615.352 383.312 615.352 407.512C615.352 409.562 615.352 410.852 615.176 413.137H566.484C566.484 433.059 576.855 449.406 593.672 449.406ZM594.023 447.004C582.773 447.004 575.742 435.285 575.742 416.711L615.117 414.719C614.004 433.234 605.801 447.004 594.023 447.004ZM659.473 448H711.035L712.852 428.371L712.383 428.254L703.418 445.832H669.551L710.566 365.148L710.449 363.684H662.93L661.113 383.312H661.641L670.488 365.91H700.137L659.297 446.594L659.473 448ZM746.953 449.406C764.18 449.406 778.184 430.949 778.184 406.105C778.184 379.035 763.008 362.336 746.191 362.336C736.172 362.336 726.68 368.957 721.289 378.625L722.168 379.738C727.5 372.18 733.008 366.379 745.195 366.379C760.312 366.379 768.633 383.312 768.633 407.512C768.633 409.562 768.633 410.852 768.457 413.137H719.766C719.766 433.059 730.137 449.406 746.953 449.406ZM747.305 447.004C736.055 447.004 729.023 435.285 729.023 416.711L768.398 414.719C767.285 433.234 759.082 447.004 747.305 447.004ZM841.641 448.996L843.984 448V368.664L853.945 364.797V363.684H831.973V364.797L841.934 368.664V434.289L798.691 363.684H783.633V364.855L793.477 368.02V443.02L783.633 446.828V448H805.371V446.828L795.469 443.02V374.641L841.641 448.996ZM889.98 449.406C899.766 449.406 906.797 446.125 914.59 438.391V409.562H896.484V410.207L906.562 415.07V435.461C906.562 441.32 898.066 447.238 891.973 447.238C873.633 447.238 865.078 430.363 865.078 405.988C865.078 385.07 871.641 364.504 889.277 364.504C903.574 364.504 907.91 375.461 911.543 389.992H912.422L911.191 369.367C904.629 365.383 897.598 362.336 890.684 362.336C868.066 362.336 855.469 381.027 855.469 405.93C855.469 431.125 868.594 449.406 889.98 449.406ZM951.914 449.406C969.141 449.406 983.145 430.949 983.145 406.105C983.145 379.035 967.969 362.336 951.152 362.336C941.133 362.336 931.641 368.957 926.25 378.625L927.129 379.738C932.461 372.18 937.969 366.379 950.156 366.379C965.273 366.379 973.594 383.312 973.594 407.512C973.594 409.562 973.594 410.852 973.418 413.137H924.727C924.727 433.059 935.098 449.406 951.914 449.406ZM952.266 447.004C941.016 447.004 933.984 435.285 933.984 416.711L973.359 414.719C972.246 433.234 964.043 447.004 952.266 447.004ZM987.949 448H1039.51L1041.33 428.371L1040.86 428.254L1031.89 445.832H998.027L1039.04 365.148L1038.93 363.684H991.406L989.59 383.312H990.117L998.965 365.91H1028.61L987.773 446.594L987.949 448ZM1081.05 449.406C1098.34 449.406 1105.37 437.395 1105.37 419.113V368.664L1115.57 364.797V363.684H1093.12V364.797L1103.38 368.664V420.051C1103.38 434.758 1097.81 447.238 1083.28 447.238C1071.39 447.238 1063.36 437.512 1063.36 420.051V368.02L1072.09 364.855V363.684H1046.19V364.855L1054.8 368.02V420.871C1054.8 439.562 1066.11 449.406 1081.05 449.406ZM1118.55 448H1144.1V446.828L1135.72 443.664V365.91H1146.33C1157.75 365.91 1162.38 373.645 1162.38 384.895C1162.38 398.664 1157.11 406.34 1144.69 406.34H1139.41V408.566H1144.39C1146.09 408.566 1147.97 408.449 1149.79 408.156L1167.25 448H1181.43L1181.37 446.828L1174.86 443.254L1158.93 408.977C1157.7 409.035 1155.41 408.566 1153.18 407.98V407.688C1163.38 405.695 1171.93 398.547 1171.93 384.543C1171.93 372.004 1163.91 363.684 1149.08 363.684H1118.55V364.855L1127.17 368.02V443.723L1118.55 446.828V448ZM1240.66 449.406C1257.89 449.406 1271.89 430.949 1271.89 406.105C1271.89 379.035 1256.72 362.336 1239.9 362.336C1229.88 362.336 1220.39 368.957 1215 378.625L1215.88 379.738C1221.21 372.18 1226.72 366.379 1238.91 366.379C1254.02 366.379 1262.34 383.312 1262.34 407.512C1262.34 409.562 1262.34 410.852 1262.17 413.137H1213.48C1213.48 433.059 1223.85 449.406 1240.66 449.406ZM1241.02 447.004C1229.77 447.004 1222.73 435.285 1222.73 416.711L1262.11 414.719C1261 433.234 1252.79 447.004 1241.02 447.004ZM1288.71 448H1315.72V446.828L1306.52 443.664V365.91H1321.35L1327.73 382.141H1328.2V363.684H1276.23V382.141H1276.76L1283.03 365.91H1297.97V443.664L1288.71 446.828V448ZM1335.12 448H1360.66V446.828L1352.29 443.664V365.91H1362.89C1374.32 365.91 1378.95 373.645 1378.95 384.895C1378.95 398.664 1373.67 406.34 1361.25 406.34H1355.98V408.566H1360.96C1362.66 408.566 1364.53 408.449 1366.35 408.156L1383.81 448H1397.99L1397.93 446.828L1391.43 443.254L1375.49 408.977C1374.26 409.035 1371.97 408.566 1369.75 407.98V407.688C1379.94 405.695 1388.5 398.547 1388.5 384.543C1388.5 372.004 1380.47 363.684 1365.64 363.684H1335.12V364.855L1343.73 368.02V443.723L1335.12 446.828V448ZM1462.79 443.664L1438.3 363.684H1426.41V364.855L1431.04 370.715L1409.47 443.664L1400.33 446.828V448H1422.42V446.828L1411.58 443.664L1418.61 419.699H1446.62L1453.71 443.664L1445.51 446.828V448H1471.52V446.828L1462.79 443.664ZM1419.26 417.473L1432.56 372.297L1445.98 417.473H1419.26ZM1475.16 448H1502.93V446.828L1492.32 443.664V406.398H1507.15L1512.13 417.355H1512.89V393.098H1512.13L1507.15 404.172H1492.32V365.91H1514.65L1521.86 384.25H1522.27V363.684H1475.16V364.855L1483.77 368.02V443.723L1475.16 446.828V448ZM1529.41 448H1555.2V446.828L1546.58 443.664V368.02L1555.2 364.855V363.684H1529.41V364.855L1538.03 368.02V443.723L1529.41 446.828V448ZM1618.83 448.996L1621.17 448V368.664L1631.13 364.797V363.684H1609.16V364.797L1619.12 368.664V434.289L1575.88 363.684H1560.82V364.855L1570.66 368.02V443.02L1560.82 446.828V448H1582.56V446.828L1572.66 443.02V374.641L1618.83 448.996ZM1634.06 448H1665C1686.45 448 1699.57 432.18 1699.57 405.754C1699.57 379.445 1686.39 363.684 1665.76 363.684H1634.06V364.855L1642.68 367.902V443.723L1634.06 446.828V448ZM1651.23 445.773V365.91H1664.59C1681.35 365.91 1689.96 379.738 1689.96 406.516C1689.96 431.477 1681.93 445.773 1663.77 445.773H1651.23ZM1759.63 443.664L1735.14 363.684H1723.24V364.855L1727.87 370.715L1706.31 443.664L1697.17 446.828V448H1719.26V446.828L1708.42 443.664L1715.45 419.699H1743.46L1750.55 443.664L1742.34 446.828V448H1768.36V446.828L1759.63 443.664ZM1716.09 417.473L1729.39 372.297L1742.81 417.473H1716.09ZM2.8125 621H28.7109V619.828L19.9805 616.664V578.93H57.7148V616.723L49.1016 619.828V621H75V619.828L66.2695 616.664V541.02L75 537.855V536.684H49.1016V537.855L57.7148 541.02V576.703H19.9805V541.02L28.7109 537.855V536.684H2.8125V537.855L11.4258 541.02V616.723L2.8125 619.828V621ZM107.578 622.406C124.805 622.406 138.809 603.949 138.809 579.105C138.809 552.035 123.633 535.336 106.816 535.336C96.7969 535.336 87.3047 541.957 81.9141 551.625L82.793 552.738C88.125 545.18 93.6328 539.379 105.82 539.379C120.938 539.379 129.258 556.312 129.258 580.512C129.258 582.562 129.258 583.852 129.082 586.137H80.3906C80.3906 606.059 90.7617 622.406 107.578 622.406ZM107.93 620.004C96.6797 620.004 89.6484 608.285 89.6484 589.711L129.023 587.719C127.91 606.234 119.707 620.004 107.93 620.004ZM144.258 621H169.805V619.828L161.426 616.664V538.91H172.031C183.457 538.91 188.086 546.645 188.086 557.895C188.086 571.664 182.812 579.34 170.391 579.34H165.117V581.566H170.098C171.797 581.566 173.672 581.449 175.488 581.156L192.949 621H207.129L207.07 619.828L200.566 616.254L184.629 581.977C183.398 582.035 181.113 581.566 178.887 580.98V580.688C189.082 578.695 197.637 571.547 197.637 557.543C197.637 545.004 189.609 536.684 174.785 536.684H144.258V537.855L152.871 541.02V616.723L144.258 619.828V621ZM211.992 621H239.355C256.934 621 267.363 613.91 267.363 598.324C267.363 587.543 261.387 578.695 249.902 577.055V576.82C259.277 574.184 264.609 566.332 264.609 556.488C264.609 546 257.812 536.684 241.641 536.684H211.992V537.855L220.664 541.02V616.664L211.992 619.828V621ZM229.219 576.234V538.91H239.414C249.961 538.91 255.176 545.707 255.176 557.25C255.176 567.621 250.781 576.234 240.586 576.234H229.219ZM229.219 618.773V578.461H240.996C252.598 578.461 257.812 586.137 257.812 598.324C257.812 610.629 252.305 618.773 240.469 618.773H229.219ZM287.227 530.355C290.215 530.355 292.441 528.305 292.441 525.258C292.441 522.27 290.215 520.102 287.227 520.102C284.18 520.102 281.953 522.27 281.953 525.258C281.953 528.305 284.18 530.355 287.227 530.355ZM274.336 621H300.117V619.828L291.504 616.664V541.02L300.117 537.855V536.684H274.336V537.855L282.949 541.02V616.723L274.336 619.828V621ZM308.672 590.766H327.773V588.715H308.672V590.766ZM336.328 621H367.266C388.711 621 401.836 605.18 401.836 578.754C401.836 552.445 388.652 536.684 368.027 536.684H336.328V537.855L344.941 540.902V616.723L336.328 619.828V621ZM353.496 618.773V538.91H366.855C383.613 538.91 392.227 552.738 392.227 579.516C392.227 604.477 384.199 618.773 366.035 618.773H353.496ZM420.117 530.355C423.105 530.355 425.332 528.305 425.332 525.258C425.332 522.27 423.105 520.102 420.117 520.102C417.07 520.102 414.844 522.27 414.844 525.258C414.844 528.305 417.07 530.355 420.117 530.355ZM407.227 621H433.008V619.828L424.395 616.664V541.02L433.008 537.855V536.684H407.227V537.855L415.84 541.02V616.723L407.227 619.828V621ZM438.633 621H465.352V619.828L455.742 616.664V538.91H464.883C475.137 538.91 481.816 545.355 481.816 560.766C481.816 575.004 475.898 583.91 465.352 583.91H460.254V586.137H465.469C481.406 586.137 491.309 577.406 491.309 560.766C491.309 547.113 483.691 536.684 467.871 536.684H438.633V537.855L447.188 541.02V616.723L438.633 619.828V621ZM495.703 621H543.516L546.035 600.434L545.566 600.316L535.84 618.773H512.812V541.02L522.48 537.855V536.684H495.703V537.855L504.258 541.02V616.723L495.703 619.828V621ZM582.891 622.406C602.402 622.406 615.41 605.004 615.41 578.988C615.41 552.855 602.402 535.336 582.891 535.336C563.438 535.336 550.43 552.797 550.43 578.988C550.43 605.062 563.438 622.406 582.891 622.406ZM582.891 620.238C569.121 620.238 559.98 603.715 559.98 578.988C559.98 554.145 569.121 537.562 582.891 537.562C596.777 537.562 605.918 554.203 605.918 578.988C605.918 603.656 596.777 620.238 582.891 620.238ZM620.859 621H643.301V619.828L633.105 616.02V545.941L661.23 612.504H663.926L692.168 546.586V616.664L683.262 619.828V621H709.629V619.828L700.723 616.664V541.02L709.629 537.855V536.684H694.043L665.684 602.953L638.086 536.684H620.918V537.855L630.996 541.02V616.02L620.859 619.828V621ZM775.254 616.664L750.762 536.684H738.867V537.855L743.496 543.715L721.934 616.664L712.793 619.828V621H734.883V619.828L724.043 616.664L731.074 592.699H759.082L766.172 616.664L757.969 619.828V621H783.984V619.828L775.254 616.664ZM731.719 590.473L745.02 545.297L758.438 590.473H731.719ZM790.547 621H817.559V619.828L808.359 616.664V538.91H823.184L829.57 555.141H830.039V536.684H778.066V555.141H778.594L784.863 538.91H799.805V616.664L790.547 619.828V621ZM849.844 530.355C852.832 530.355 855.059 528.305 855.059 525.258C855.059 522.27 852.832 520.102 849.844 520.102C846.797 520.102 844.57 522.27 844.57 525.258C844.57 528.305 846.797 530.355 849.844 530.355ZM836.953 621H862.734V619.828L854.121 616.664V541.02L862.734 537.855V536.684H836.953V537.855L845.566 541.02V616.723L836.953 619.828V621ZM868.359 621H894.141V619.828L885.527 616.664V541.02L894.141 537.855V536.684H868.359V537.855L876.973 541.02V616.723L868.359 619.828V621ZM915.527 621H931.055V619.242L922.91 616.664L895.723 572.953L920.273 541.02L928.77 537.855V536.684H904.395V537.855L916.992 541.488L889.043 577.816L915.527 621ZM961.875 621H984.316V619.828L974.121 616.02V545.941L1002.25 612.504H1004.94L1033.18 546.586V616.664L1024.28 619.828V621H1050.64V619.828L1041.74 616.664V541.02L1050.64 537.855V536.684H1035.06L1006.7 602.953L979.102 536.684H961.934V537.855L972.012 541.02V616.02L961.875 619.828V621ZM1082.7 529.652C1085.74 529.652 1087.79 527.426 1087.79 524.555C1087.79 521.684 1085.74 519.574 1082.7 519.574C1079.88 519.574 1077.66 521.625 1077.66 524.555C1077.66 527.484 1079.88 529.652 1082.7 529.652ZM1097.05 529.652C1099.98 529.652 1102.09 527.484 1102.09 524.555C1102.09 521.625 1099.92 519.574 1097.05 519.574C1094.12 519.574 1091.95 521.625 1091.95 524.555C1091.95 527.484 1094.12 529.652 1097.05 529.652ZM1090.55 622.406C1107.83 622.406 1114.86 610.395 1114.86 592.113V541.664L1125.06 537.797V536.684H1102.62V537.797L1112.87 541.664V593.051C1112.87 607.758 1107.3 620.238 1092.77 620.238C1080.88 620.238 1072.85 610.512 1072.85 593.051V541.02L1081.58 537.855V536.684H1055.68V537.855L1064.3 541.02V593.871C1064.3 612.562 1075.61 622.406 1090.55 622.406ZM1128.05 621H1155.41C1172.99 621 1183.42 613.91 1183.42 598.324C1183.42 587.543 1177.44 578.695 1165.96 577.055V576.82C1175.33 574.184 1180.66 566.332 1180.66 556.488C1180.66 546 1173.87 536.684 1157.7 536.684H1128.05V537.855L1136.72 541.02V616.664L1128.05 619.828V621ZM1145.27 576.234V538.91H1155.47C1166.02 538.91 1171.23 545.707 1171.23 557.25C1171.23 567.621 1166.84 576.234 1156.64 576.234H1145.27ZM1145.27 618.773V578.461H1157.05C1168.65 578.461 1173.87 586.137 1173.87 598.324C1173.87 610.629 1168.36 618.773 1156.52 618.773H1145.27ZM1250.33 616.664L1225.84 536.684H1213.95V537.855L1218.57 543.715L1197.01 616.664L1187.87 619.828V621H1209.96V619.828L1199.12 616.664L1206.15 592.699H1234.16L1241.25 616.664L1233.05 619.828V621H1259.06V619.828L1250.33 616.664ZM1206.8 590.473L1220.1 545.297L1233.52 590.473H1206.8ZM1262.7 621H1288.24V619.828L1279.86 616.664V538.91H1290.47C1301.89 538.91 1306.52 546.645 1306.52 557.895C1306.52 571.664 1301.25 579.34 1288.83 579.34H1283.55V581.566H1288.54C1290.23 581.566 1292.11 581.449 1293.93 581.156L1311.39 621H1325.57L1325.51 619.828L1319 616.254L1303.07 581.977C1301.84 582.035 1299.55 581.566 1297.32 580.98V580.688C1307.52 578.695 1316.07 571.547 1316.07 557.543C1316.07 545.004 1308.05 536.684 1293.22 536.684H1262.7V537.855L1271.31 541.02V616.723L1262.7 619.828V621ZM1343.32 530.355C1346.31 530.355 1348.54 528.305 1348.54 525.258C1348.54 522.27 1346.31 520.102 1343.32 520.102C1340.27 520.102 1338.05 522.27 1338.05 525.258C1338.05 528.305 1340.27 530.355 1343.32 530.355ZM1330.43 621H1356.21V619.828L1347.6 616.664V541.02L1356.21 537.855V536.684H1330.43V537.855L1339.04 541.02V616.723L1330.43 619.828V621ZM1363.54 621H1415.1L1416.91 601.371L1416.45 601.254L1407.48 618.832H1373.61L1414.63 538.148L1414.51 536.684H1366.99L1365.18 556.312H1365.7L1374.55 538.91H1404.2L1363.36 619.594L1363.54 621ZM1451.02 622.406C1468.24 622.406 1482.25 603.949 1482.25 579.105C1482.25 552.035 1467.07 535.336 1450.25 535.336C1440.23 535.336 1430.74 541.957 1425.35 551.625L1426.23 552.738C1431.56 545.18 1437.07 539.379 1449.26 539.379C1464.38 539.379 1472.7 556.312 1472.7 580.512C1472.7 582.562 1472.7 583.852 1472.52 586.137H1423.83C1423.83 606.059 1434.2 622.406 1451.02 622.406ZM1451.37 620.004C1440.12 620.004 1433.09 608.285 1433.09 589.711L1472.46 587.719C1471.35 606.234 1463.14 620.004 1451.37 620.004Z" fill="white"></path> </g> <defs> <filter id="filter0_b" x="-3.70703" y="-3.42578" width="1776.07" height="629.832" filterUnits="userSpaceOnUse" color-interpolation-filters="sRGB"> <feFlood flood-opacity="0" result="BackgroundImageFix"></feFlood> <feGaussianBlur in="BackgroundImage" stdDeviation="2"></feGaussianBlur> <feComposite in2="SourceAlpha" operator="in" result="effect1_backgroundBlur"></feComposite> <feBlend mode="normal" in="SourceGraphic" in2="effect1_backgroundBlur" result="shape"></feBlend> </filter> </defs> </svg> 