<?xml version="1.0" encoding="UTF-8"?> <svg xmlns="http://www.w3.org/2000/svg" width="1733" height="607" viewBox="0 0 1733 607" fill="none"> <g filter="url(#filter0_b)"> <path d="M60.3516 81.6641L37.793 39.4766L57.7734 6.01953L66.9141 2.91406V1.68359H46.1719V2.91406L55.3125 6.01953L36.7383 37.4844L20.332 6.01953L29.0039 2.91406V1.68359H2.57812V2.91406L10.1953 6.01953L30.8203 44.5156L9.66797 81.6641L0.585938 84.7695V86H21.1523V84.7695L12.0703 81.6641L31.9922 46.5664L50.332 81.6641L41.7188 84.7695V86H68.0273V84.7695L60.3516 81.6641ZM129.023 81.6641L106.465 39.4766L126.445 6.01953L135.586 2.91406V1.68359H114.844V2.91406L123.984 6.01953L105.41 37.4844L89.0039 6.01953L97.6758 2.91406V1.68359H71.25V2.91406L78.8672 6.01953L99.4922 44.5156L78.3398 81.6641L69.2578 84.7695V86H89.8242V84.7695L80.7422 81.6641L100.664 46.5664L119.004 81.6641L110.391 84.7695V86H136.699V84.7695L129.023 81.6641ZM192.305 87.4062C209.531 87.4062 223.535 68.9492 223.535 44.1055C223.535 17.0352 208.359 0.335938 191.543 0.335938C181.523 0.335938 172.031 6.95703 166.641 16.625L167.52 17.7383C172.852 10.1797 178.359 4.37891 190.547 4.37891C205.664 4.37891 213.984 21.3125 213.984 45.5117C213.984 47.5625 213.984 48.8516 213.809 51.1367H165.117C165.117 71.0586 175.488 87.4062 192.305 87.4062ZM192.656 85.0039C181.406 85.0039 174.375 73.2852 174.375 54.7109L213.75 52.7188C212.637 71.2344 204.434 85.0039 192.656 85.0039ZM252.422 87.4062C264.727 87.4062 276.211 81.1367 276.211 65.1992C276.211 51.7812 266.191 44.6914 257.402 39.0664L254.121 36.957C246.152 31.8594 241.348 27.875 241.348 18.6172C241.348 8.77344 246.445 2.5625 253.594 2.5625C264.258 2.5625 269.297 10.5898 273.75 27.4062H274.395L273.105 7.36719C267.773 3.44141 260.684 0.335938 254.59 0.335938C241.934 0.335938 232.617 7.60156 232.617 20.7266C232.617 33.4414 242.168 39.5352 249.434 44.2812L252.305 46.1562C260.215 51.3125 267.363 56 267.363 67.6016C267.363 78.793 261.914 85.1797 252.598 85.1797C243.457 85.1797 237.07 78.3242 232.5 60.3945H231.855L232.91 80.5508C237.598 83.6562 244.863 87.4062 252.422 87.4062ZM283.008 86H308.555V84.8281L300.176 81.6641V3.91016H310.781C322.207 3.91016 326.836 11.6445 326.836 22.8945C326.836 36.6641 321.562 44.3398 309.141 44.3398H303.867V46.5664H308.848C310.547 46.5664 312.422 46.4492 314.238 46.1562L331.699 86H345.879L345.82 84.8281L339.316 81.2539L323.379 46.9766C322.148 47.0352 319.863 46.5664 317.637 45.9805V45.6875C327.832 43.6953 336.387 36.5469 336.387 22.543C336.387 10.0039 328.359 1.68359 313.535 1.68359H283.008V2.85547L291.621 6.01953V81.7227L283.008 84.8281V86ZM350.742 86H381.68C403.125 86 416.25 70.1797 416.25 43.7539C416.25 17.4453 403.066 1.68359 382.441 1.68359H350.742V2.85547L359.355 5.90234V81.7227L350.742 84.8281V86ZM367.91 83.7734V3.91016H381.27C398.027 3.91016 406.641 17.7383 406.641 44.5156C406.641 69.4766 398.613 83.7734 380.449 83.7734H367.91ZM452.109 87.4062C469.336 87.4062 483.34 68.9492 483.34 44.1055C483.34 17.0352 468.164 0.335938 451.348 0.335938C441.328 0.335938 431.836 6.95703 426.445 16.625L427.324 17.7383C432.656 10.1797 438.164 4.37891 450.352 4.37891C465.469 4.37891 473.789 21.3125 473.789 45.5117C473.789 47.5625 473.789 48.8516 473.613 51.1367H424.922C424.922 71.0586 435.293 87.4062 452.109 87.4062ZM452.461 85.0039C441.211 85.0039 434.18 73.2852 434.18 54.7109L473.555 52.7188C472.441 71.2344 464.238 85.0039 452.461 85.0039ZM576.152 81.6641L551.66 1.68359H539.766V2.85547L544.395 8.71484L522.832 81.6641L513.691 84.8281V86H535.781V84.8281L524.941 81.6641L531.973 57.6992H559.98L567.07 81.6641L558.867 84.8281V86H584.883V84.8281L576.152 81.6641ZM532.617 55.4727L545.918 10.2969L559.336 55.4727H532.617ZM590.215 86H641.777L643.594 66.3711L643.125 66.2539L634.16 83.832H600.293L641.309 3.14844L641.191 1.68359H593.672L591.855 21.3125H592.383L601.23 3.91016H630.879L590.039 84.5938L590.215 86ZM677.695 87.4062C694.922 87.4062 708.926 68.9492 708.926 44.1055C708.926 17.0352 693.75 0.335938 676.934 0.335938C666.914 0.335938 657.422 6.95703 652.031 16.625L652.91 17.7383C658.242 10.1797 663.75 4.37891 675.938 4.37891C691.055 4.37891 699.375 21.3125 699.375 45.5117C699.375 47.5625 699.375 48.8516 699.199 51.1367H650.508C650.508 71.0586 660.879 87.4062 677.695 87.4062ZM678.047 85.0039C666.797 85.0039 659.766 73.2852 659.766 54.7109L699.141 52.7188C698.027 71.2344 689.824 85.0039 678.047 85.0039ZM714.375 86H739.922V84.8281L731.543 81.6641V3.91016H742.148C753.574 3.91016 758.203 11.6445 758.203 22.8945C758.203 36.6641 752.93 44.3398 740.508 44.3398H735.234V46.5664H740.215C741.914 46.5664 743.789 46.4492 745.605 46.1562L763.066 86H777.246L777.188 84.8281L770.684 81.2539L754.746 46.9766C753.516 47.0352 751.23 46.5664 749.004 45.9805V45.6875C759.199 43.6953 767.754 36.5469 767.754 22.543C767.754 10.0039 759.727 1.68359 744.902 1.68359H714.375V2.85547L722.988 6.01953V81.7227L714.375 84.8281V86ZM782.109 86H809.473C827.051 86 837.48 78.9102 837.48 63.3242C837.48 52.543 831.504 43.6953 820.02 42.0547V41.8203C829.395 39.1836 834.727 31.332 834.727 21.4883C834.727 11 827.93 1.68359 811.758 1.68359H782.109V2.85547L790.781 6.01953V81.6641L782.109 84.8281V86ZM799.336 41.2344V3.91016H809.531C820.078 3.91016 825.293 10.707 825.293 22.25C825.293 32.6211 820.898 41.2344 810.703 41.2344H799.336ZM799.336 83.7734V43.4609H811.113C822.715 43.4609 827.93 51.1367 827.93 63.3242C827.93 75.6289 822.422 83.7734 810.586 83.7734H799.336ZM904.395 81.6641L879.902 1.68359H868.008V2.85547L872.637 8.71484L851.074 81.6641L841.934 84.8281V86H864.023V84.8281L853.184 81.6641L860.215 57.6992H888.223L895.312 81.6641L887.109 84.8281V86H913.125V84.8281L904.395 81.6641ZM860.859 55.4727L874.16 10.2969L887.578 55.4727H860.859ZM920.801 86H947.695V84.8281L938.496 81.6641V47.0938L959.473 6.01953L968.672 2.91406V1.68359H945.996V2.91406L957.012 6.19531L937.559 44.5742L918.984 6.01953L928.008 2.91406V1.68359H900.645V2.91406L909.434 6.01953L929.941 48.5586V81.7227L920.801 84.8281V86ZM997.207 87.4062C1003.01 87.4062 1009.22 86.5273 1018.83 80.375L1020.12 59.75H1019.24C1015.2 75.6875 1010.16 85.2383 997.617 85.2383C981.797 85.2383 973.008 68.2461 973.008 43.9297C973.008 20.375 981.211 2.5625 996.797 2.5625C1011.39 2.5625 1015.43 13.0508 1019.24 27.9922H1020.12L1018.83 7.36719C1009.22 1.15625 1003.01 0.335938 997.676 0.335938C976.465 0.335938 963.398 18.6758 963.398 43.9297C963.398 69.0664 976.875 87.4062 997.207 87.4062ZM1087.68 81.6641L1063.18 1.68359H1051.29V2.85547L1055.92 8.71484L1034.36 81.6641L1025.21 84.8281V86H1047.3V84.8281L1036.46 81.6641L1043.5 57.6992H1071.5L1078.59 81.6641L1070.39 84.8281V86H1096.41V84.8281L1087.68 81.6641ZM1044.14 55.4727L1057.44 10.2969L1070.86 55.4727H1044.14ZM1158.05 86.9961L1160.39 86V6.66406L1170.35 2.79688V1.68359H1148.38V2.79688L1158.34 6.66406V72.2891L1115.1 1.68359H1100.04V2.85547L1109.88 6.01953V81.0195L1100.04 84.8281V86H1121.78V84.8281L1111.88 81.0195V12.6406L1158.05 86.9961ZM1173.28 86H1221.09L1223.61 65.4336L1223.14 65.3164L1213.42 83.7734H1190.39V6.01953L1200.06 2.85547V1.68359H1173.28V2.85547L1181.84 6.01953V81.7227L1173.28 84.8281V86ZM1227.66 86H1253.44V84.8281L1244.82 81.6641V6.01953L1253.44 2.85547V1.68359H1227.66V2.85547L1236.27 6.01953V81.7227L1227.66 84.8281V86ZM1259.06 86H1306.88L1309.39 65.4336L1308.93 65.3164L1299.2 83.7734H1276.17V6.01953L1285.84 2.85547V1.68359H1259.06V2.85547L1267.62 6.01953V81.7227L1259.06 84.8281V86ZM1373.96 81.6641L1349.47 1.68359H1337.58V2.85547L1342.21 8.71484L1320.64 81.6641L1311.5 84.8281V86H1333.59V84.8281L1322.75 81.6641L1329.79 57.6992H1357.79L1364.88 81.6641L1356.68 84.8281V86H1382.7V84.8281L1373.96 81.6641ZM1330.43 55.4727L1343.73 10.2969L1357.15 55.4727H1330.43ZM1386.33 86H1411.88V84.8281L1403.5 81.6641V3.91016H1414.1C1425.53 3.91016 1430.16 11.6445 1430.16 22.8945C1430.16 36.6641 1424.88 44.3398 1412.46 44.3398H1407.19V46.5664H1412.17C1413.87 46.5664 1415.74 46.4492 1417.56 46.1562L1435.02 86H1449.2L1449.14 84.8281L1442.64 81.2539L1426.7 46.9766C1425.47 47.0352 1423.18 46.5664 1420.96 45.9805V45.6875C1431.15 43.6953 1439.71 36.5469 1439.71 22.543C1439.71 10.0039 1431.68 1.68359 1416.86 1.68359H1386.33V2.85547L1394.94 6.01953V81.7227L1386.33 84.8281V86ZM1454.06 86H1479.84V84.8281L1471.23 81.6641V6.01953L1479.84 2.85547V1.68359H1454.06V2.85547L1462.68 6.01953V81.7227L1454.06 84.8281V86ZM1543.48 86.9961L1545.82 86V6.66406L1555.78 2.79688V1.68359H1533.81V2.79688L1543.77 6.66406V72.2891L1500.53 1.68359H1485.47V2.85547L1495.31 6.01953V81.0195L1485.47 84.8281V86H1507.21V84.8281L1497.3 81.0195V12.6406L1543.48 86.9961ZM2.8125 259H25.2539V257.828L15.0586 254.02V183.941L43.1836 250.504H45.8789L74.1211 184.586V254.664L65.2148 257.828V259H91.582V257.828L82.6758 254.664V179.02L91.582 175.855V174.684H75.9961L47.6367 240.953L20.0391 174.684H2.87109V175.855L12.9492 179.02V254.02L2.8125 257.828V259ZM123.633 167.652C126.68 167.652 128.73 165.426 128.73 162.555C128.73 159.684 126.68 157.574 123.633 157.574C120.82 157.574 118.594 159.625 118.594 162.555C118.594 165.484 120.82 167.652 123.633 167.652ZM137.988 167.652C140.918 167.652 143.027 165.484 143.027 162.555C143.027 159.625 140.859 157.574 137.988 157.574C135.059 157.574 132.891 159.625 132.891 162.555C132.891 165.484 135.059 167.652 137.988 167.652ZM131.484 260.406C148.77 260.406 155.801 248.395 155.801 230.113V179.664L165.996 175.797V174.684H143.555V175.797L153.809 179.664V231.051C153.809 245.758 148.242 258.238 133.711 258.238C121.816 258.238 113.789 248.512 113.789 231.051V179.02L122.52 175.855V174.684H96.6211V175.855L105.234 179.02V231.871C105.234 250.562 116.543 260.406 131.484 260.406ZM219.199 254.664L194.707 174.684H182.812V175.855L187.441 181.715L165.879 254.664L156.738 257.828V259H178.828V257.828L167.988 254.664L175.02 230.699H203.027L210.117 254.664L201.914 257.828V259H227.93V257.828L219.199 254.664ZM175.664 228.473L188.965 183.297L202.383 228.473H175.664ZM251.719 260.406C264.023 260.406 275.508 254.137 275.508 238.199C275.508 224.781 265.488 217.691 256.699 212.066L253.418 209.957C245.449 204.859 240.645 200.875 240.645 191.617C240.645 181.773 245.742 175.562 252.891 175.562C263.555 175.562 268.594 183.59 273.047 200.406H273.691L272.402 180.367C267.07 176.441 259.98 173.336 253.887 173.336C241.23 173.336 231.914 180.602 231.914 193.727C231.914 206.441 241.465 212.535 248.73 217.281L251.602 219.156C259.512 224.312 266.66 229 266.66 240.602C266.66 251.793 261.211 258.18 251.895 258.18C242.754 258.18 236.367 251.324 231.797 233.395H231.152L232.207 253.551C236.895 256.656 244.16 260.406 251.719 260.406ZM295.195 168.355C298.184 168.355 300.41 166.305 300.41 163.258C300.41 160.27 298.184 158.102 295.195 158.102C292.148 158.102 289.922 160.27 289.922 163.258C289.922 166.305 292.148 168.355 295.195 168.355ZM282.305 259H308.086V257.828L299.473 254.664V179.02L308.086 175.855V174.684H282.305V175.855L290.918 179.02V254.723L282.305 257.828V259ZM313.711 259H339.258V257.828L330.879 254.664V176.91H341.484C352.91 176.91 357.539 184.645 357.539 195.895C357.539 209.664 352.266 217.34 339.844 217.34H334.57V219.566H339.551C341.25 219.566 343.125 219.449 344.941 219.156L362.402 259H376.582L376.523 257.828L370.02 254.254L354.082 219.977C352.852 220.035 350.566 219.566 348.34 218.98V218.688C358.535 216.695 367.09 209.547 367.09 195.543C367.09 183.004 359.062 174.684 344.238 174.684H313.711V175.855L322.324 179.02V254.723L313.711 257.828V259ZM407.109 259H458.965L461.602 238.434L461.133 238.316L451.289 256.773H424.336V216.871H439.805L444.844 227.828H445.664V203.57H444.844L439.805 214.645H424.336V176.91H447.949L455.156 195.25H455.566V174.684H407.168V175.855L415.781 179.02V254.723L407.109 257.828V259ZM465.586 259H491.133V257.828L482.754 254.664V176.91H493.359C504.785 176.91 509.414 184.645 509.414 195.895C509.414 209.664 504.141 217.34 491.719 217.34H486.445V219.566H491.426C493.125 219.566 495 219.449 496.816 219.156L514.277 259H528.457L528.398 257.828L521.895 254.254L505.957 219.977C504.727 220.035 502.441 219.566 500.215 218.98V218.688C510.41 216.695 518.965 209.547 518.965 195.543C518.965 183.004 510.938 174.684 496.113 174.684H465.586V175.855L474.199 179.02V254.723L465.586 257.828V259ZM533.32 259H555.762V257.828L545.566 254.02V183.941L573.691 250.504H576.387L604.629 184.586V254.664L595.723 257.828V259H622.09V257.828L613.184 254.664V179.02L622.09 175.855V174.684H606.504L578.145 240.953L550.547 174.684H533.379V175.855L543.457 179.02V254.02L533.32 257.828V259ZM654.727 260.406C671.953 260.406 685.957 241.949 685.957 217.105C685.957 190.035 670.781 173.336 653.965 173.336C643.945 173.336 634.453 179.957 629.062 189.625L629.941 190.738C635.273 183.18 640.781 177.379 652.969 177.379C668.086 177.379 676.406 194.312 676.406 218.512C676.406 220.562 676.406 221.852 676.23 224.137H627.539C627.539 244.059 637.91 260.406 654.727 260.406ZM655.078 258.004C643.828 258.004 636.797 246.285 636.797 227.711L676.172 225.719C675.059 244.234 666.855 258.004 655.078 258.004ZM749.414 259.996L751.758 259V179.664L761.719 175.797V174.684H739.746V175.797L749.707 179.664V245.289L706.465 174.684H691.406V175.855L701.25 179.02V254.02L691.406 257.828V259H713.145V257.828L703.242 254.02V185.641L749.414 259.996ZM777.539 168.355C780.527 168.355 782.754 166.305 782.754 163.258C782.754 160.27 780.527 158.102 777.539 158.102C774.492 158.102 772.266 160.27 772.266 163.258C772.266 166.305 774.492 168.355 777.539 168.355ZM764.648 259H790.43V257.828L781.816 254.664V179.02L790.43 175.855V174.684H764.648V175.855L773.262 179.02V254.723L764.648 257.828V259ZM817.734 260.406C830.039 260.406 841.523 254.137 841.523 238.199C841.523 224.781 831.504 217.691 822.715 212.066L819.434 209.957C811.465 204.859 806.66 200.875 806.66 191.617C806.66 181.773 811.758 175.562 818.906 175.562C829.57 175.562 834.609 183.59 839.062 200.406H839.707L838.418 180.367C833.086 176.441 825.996 173.336 819.902 173.336C807.246 173.336 797.93 180.602 797.93 193.727C797.93 206.441 807.48 212.535 814.746 217.281L817.617 219.156C825.527 224.312 832.676 229 832.676 240.602C832.676 251.793 827.227 258.18 817.91 258.18C808.77 258.18 802.383 251.324 797.812 233.395H797.168L798.223 253.551C802.91 256.656 810.176 260.406 817.734 260.406ZM862.031 259H889.043V257.828L879.844 254.664V176.91H894.668L901.055 193.141H901.523V174.684H849.551V193.141H850.078L856.348 176.91H871.289V254.664L862.031 257.828V259ZM957.012 254.664L932.52 174.684H920.625V175.855L925.254 181.715L903.691 254.664L894.551 257.828V259H916.641V257.828L905.801 254.664L912.832 230.699H940.84L947.93 254.664L939.727 257.828V259H965.742V257.828L957.012 254.664ZM913.477 228.473L926.777 183.297L940.195 228.473H913.477ZM1027.38 259.996L1029.73 259V179.664L1039.69 175.797V174.684H1017.71V175.797L1027.68 179.664V245.289L984.434 174.684H969.375V175.855L979.219 179.02V254.02L969.375 257.828V259H991.113V257.828L981.211 254.02V185.641L1027.38 259.996ZM1098.05 260.406C1115.27 260.406 1129.28 241.949 1129.28 217.105C1129.28 190.035 1114.1 173.336 1097.29 173.336C1087.27 173.336 1077.77 179.957 1072.38 189.625L1073.26 190.738C1078.59 183.18 1084.1 177.379 1096.29 177.379C1111.41 177.379 1119.73 194.312 1119.73 218.512C1119.73 220.562 1119.73 221.852 1119.55 224.137H1070.86C1070.86 244.059 1081.23 260.406 1098.05 260.406ZM1098.4 258.004C1087.15 258.004 1080.12 246.285 1080.12 227.711L1119.49 225.719C1118.38 244.234 1110.18 258.004 1098.4 258.004ZM1134.73 259H1160.27V257.828L1151.89 254.664V176.91H1162.5C1173.93 176.91 1178.55 184.645 1178.55 195.895C1178.55 209.664 1173.28 217.34 1160.86 217.34H1155.59V219.566H1160.57C1162.27 219.566 1164.14 219.449 1165.96 219.156L1183.42 259H1197.6L1197.54 257.828L1191.04 254.254L1175.1 219.977C1173.87 220.035 1171.58 219.566 1169.36 218.98V218.688C1179.55 216.695 1188.11 209.547 1188.11 195.543C1188.11 183.004 1180.08 174.684 1165.25 174.684H1134.73V175.855L1143.34 179.02V254.723L1134.73 257.828V259ZM1262.4 254.664L1237.91 174.684H1226.02V175.855L1230.64 181.715L1209.08 254.664L1199.94 257.828V259H1222.03V257.828L1211.19 254.664L1218.22 230.699H1246.23L1253.32 254.664L1245.12 257.828V259H1271.13V257.828L1262.4 254.664ZM1218.87 228.473L1232.17 183.297L1245.59 228.473H1218.87ZM1276.46 259H1328.03L1329.84 239.371L1329.38 239.254L1320.41 256.832H1286.54L1327.56 176.148L1327.44 174.684H1279.92L1278.11 194.312H1278.63L1287.48 176.91H1317.13L1276.29 257.594L1276.46 259ZM1348.24 168.355C1351.23 168.355 1353.46 166.305 1353.46 163.258C1353.46 160.27 1351.23 158.102 1348.24 158.102C1345.2 158.102 1342.97 160.27 1342.97 163.258C1342.97 166.305 1345.2 168.355 1348.24 168.355ZM1335.35 259H1361.13V257.828L1352.52 254.664V179.02L1361.13 175.855V174.684H1335.35V175.855L1343.96 179.02V254.723L1335.35 257.828V259ZM1388.44 260.406C1400.74 260.406 1412.23 254.137 1412.23 238.199C1412.23 224.781 1402.21 217.691 1393.42 212.066L1390.14 209.957C1382.17 204.859 1377.36 200.875 1377.36 191.617C1377.36 181.773 1382.46 175.562 1389.61 175.562C1400.27 175.562 1405.31 183.59 1409.77 200.406H1410.41L1409.12 180.367C1403.79 176.441 1396.7 173.336 1390.61 173.336C1377.95 173.336 1368.63 180.602 1368.63 193.727C1368.63 206.441 1378.18 212.535 1385.45 217.281L1388.32 219.156C1396.23 224.312 1403.38 229 1403.38 240.602C1403.38 251.793 1397.93 258.18 1388.61 258.18C1379.47 258.18 1373.09 251.324 1368.52 233.395H1367.87L1368.93 253.551C1373.61 256.656 1380.88 260.406 1388.44 260.406ZM1431.91 168.355C1434.9 168.355 1437.13 166.305 1437.13 163.258C1437.13 160.27 1434.9 158.102 1431.91 158.102C1428.87 158.102 1426.64 160.27 1426.64 163.258C1426.64 166.305 1428.87 168.355 1431.91 168.355ZM1419.02 259H1444.8V257.828L1436.19 254.664V179.02L1444.8 175.855V174.684H1419.02V175.855L1427.64 179.02V254.723L1419.02 257.828V259ZM1508.44 259.996L1510.78 259V179.664L1520.74 175.797V174.684H1498.77V175.797L1508.73 179.664V245.289L1465.49 174.684H1450.43V175.855L1460.27 179.02V254.02L1450.43 257.828V259H1472.17V257.828L1462.27 254.02V185.641L1508.44 259.996ZM1523.67 259H1554.61C1576.05 259 1589.18 243.18 1589.18 216.754C1589.18 190.445 1576 174.684 1555.37 174.684H1523.67V175.855L1532.29 178.902V254.723L1523.67 257.828V259ZM1540.84 256.773V176.91H1554.2C1570.96 176.91 1579.57 190.738 1579.57 217.516C1579.57 242.477 1571.54 256.773 1553.38 256.773H1540.84ZM1625.04 260.406C1642.27 260.406 1656.27 241.949 1656.27 217.105C1656.27 190.035 1641.09 173.336 1624.28 173.336C1614.26 173.336 1604.77 179.957 1599.38 189.625L1600.25 190.738C1605.59 183.18 1611.09 177.379 1623.28 177.379C1638.4 177.379 1646.72 194.312 1646.72 218.512C1646.72 220.562 1646.72 221.852 1646.54 224.137H1597.85C1597.85 244.059 1608.22 260.406 1625.04 260.406ZM1625.39 258.004C1614.14 258.004 1607.11 246.285 1607.11 227.711L1646.48 225.719C1645.37 244.234 1637.17 258.004 1625.39 258.004ZM1719.73 259.996L1722.07 259V179.664L1732.03 175.797V174.684H1710.06V175.797L1720.02 179.664V245.289L1676.78 174.684H1661.72V175.855L1671.56 179.02V254.02L1661.72 257.828V259H1683.46V257.828L1673.55 254.02V185.641L1719.73 259.996ZM2.8125 432H33.75C55.1953 432 68.3203 416.18 68.3203 389.754C68.3203 363.445 55.1367 347.684 34.5117 347.684H2.8125V348.855L11.4258 351.902V427.723L2.8125 430.828V432ZM19.9805 429.773V349.91H33.3398C50.0977 349.91 58.7109 363.738 58.7109 390.516C58.7109 415.477 50.6836 429.773 32.5195 429.773H19.9805ZM73.7109 432H125.566L128.203 411.434L127.734 411.316L117.891 429.773H90.9375V389.871H106.406L111.445 400.828H112.266V376.57H111.445L106.406 387.645H90.9375V349.91H114.551L121.758 368.25H122.168V347.684H73.7695V348.855L82.3828 352.02V427.723L73.7109 430.828V432ZM132.188 432H158.906V430.828L149.297 427.664V349.91H158.438C168.691 349.91 175.371 356.355 175.371 371.766C175.371 386.004 169.453 394.91 158.906 394.91H153.809V397.137H159.023C174.961 397.137 184.863 388.406 184.863 371.766C184.863 358.113 177.246 347.684 161.426 347.684H132.188V348.855L140.742 352.02V427.723L132.188 430.828V432ZM223.242 433.406C242.754 433.406 255.762 416.004 255.762 389.988C255.762 363.855 242.754 346.336 223.242 346.336C203.789 346.336 190.781 363.797 190.781 389.988C190.781 416.062 203.789 433.406 223.242 433.406ZM223.242 431.238C209.473 431.238 200.332 414.715 200.332 389.988C200.332 365.145 209.473 348.562 223.242 348.562C237.129 348.562 246.27 365.203 246.27 389.988C246.27 414.656 237.129 431.238 223.242 431.238ZM261.211 432H286.758V430.828L278.379 427.664V349.91H288.984C300.41 349.91 305.039 357.645 305.039 368.895C305.039 382.664 299.766 390.34 287.344 390.34H282.07V392.566H287.051C288.75 392.566 290.625 392.449 292.441 392.156L309.902 432H324.082L324.023 430.828L317.52 427.254L301.582 392.977C300.352 393.035 298.066 392.566 295.84 391.98V391.688C306.035 389.695 314.59 382.547 314.59 368.543C314.59 356.004 306.562 347.684 291.738 347.684H261.211V348.855L269.824 352.02V427.723L261.211 430.828V432ZM342.656 432H369.668V430.828L360.469 427.664V349.91H375.293L381.68 366.141H382.148V347.684H330.176V366.141H330.703L336.973 349.91H351.914V427.664L342.656 430.828V432ZM437.637 427.664L413.145 347.684H401.25V348.855L405.879 354.715L384.316 427.664L375.176 430.828V432H397.266V430.828L386.426 427.664L393.457 403.699H421.465L428.555 427.664L420.352 430.828V432H446.367V430.828L437.637 427.664ZM394.102 401.473L407.402 356.297L420.82 401.473H394.102ZM470.156 433.406C482.461 433.406 493.945 427.137 493.945 411.199C493.945 397.781 483.926 390.691 475.137 385.066L471.855 382.957C463.887 377.859 459.082 373.875 459.082 364.617C459.082 354.773 464.18 348.562 471.328 348.562C481.992 348.562 487.031 356.59 491.484 373.406H492.129L490.84 353.367C485.508 349.441 478.418 346.336 472.324 346.336C459.668 346.336 450.352 353.602 450.352 366.727C450.352 379.441 459.902 385.535 467.168 390.281L470.039 392.156C477.949 397.312 485.098 402 485.098 413.602C485.098 424.793 479.648 431.18 470.332 431.18C461.191 431.18 454.805 424.324 450.234 406.395H449.59L450.645 426.551C455.332 429.656 462.598 433.406 470.156 433.406ZM513.633 341.355C516.621 341.355 518.848 339.305 518.848 336.258C518.848 333.27 516.621 331.102 513.633 331.102C510.586 331.102 508.359 333.27 508.359 336.258C508.359 339.305 510.586 341.355 513.633 341.355ZM500.742 432H526.523V430.828L517.91 427.664V352.02L526.523 348.855V347.684H500.742V348.855L509.355 352.02V427.723L500.742 430.828V432ZM549.785 432H576.68V430.828L567.48 427.664V393.094L588.457 352.02L597.656 348.914V347.684H574.98V348.914L585.996 352.195L566.543 390.574L547.969 352.02L556.992 348.914V347.684H529.629V348.914L538.418 352.02L558.926 394.559V427.723L549.785 430.828V432ZM645.293 427.664L620.801 347.684H608.906V348.855L613.535 354.715L591.973 427.664L582.832 430.828V432H604.922V430.828L594.082 427.664L601.113 403.699H629.121L636.211 427.664L628.008 430.828V432H654.023V430.828L645.293 427.664ZM601.758 401.473L615.059 356.297L628.477 401.473H601.758ZM677.812 433.406C690.117 433.406 701.602 427.137 701.602 411.199C701.602 397.781 691.582 390.691 682.793 385.066L679.512 382.957C671.543 377.859 666.738 373.875 666.738 364.617C666.738 354.773 671.836 348.562 678.984 348.562C689.648 348.562 694.688 356.59 699.141 373.406H699.785L698.496 353.367C693.164 349.441 686.074 346.336 679.98 346.336C667.324 346.336 658.008 353.602 658.008 366.727C658.008 379.441 667.559 385.535 674.824 390.281L677.695 392.156C685.605 397.312 692.754 402 692.754 413.602C692.754 424.793 687.305 431.18 677.988 431.18C668.848 431.18 662.461 424.324 657.891 406.395H657.246L658.301 426.551C662.988 429.656 670.254 433.406 677.812 433.406ZM708.398 432H734.18V430.828L725.566 427.664V352.02L734.18 348.855V347.684H708.398V348.855L717.012 352.02V427.723L708.398 430.828V432ZM797.812 432.996L800.156 432V352.664L810.117 348.797V347.684H788.145V348.797L798.105 352.664V418.289L754.863 347.684H739.805V348.855L749.648 352.02V427.02L739.805 430.828V432H761.543V430.828L751.641 427.02V358.641L797.812 432.996ZM813.047 432H838.828V430.828L830.215 427.664V352.02L838.828 348.855V347.684H813.047V348.855L821.66 352.02V427.723L813.047 430.828V432ZM902.461 432.996L904.805 432V352.664L914.766 348.797V347.684H892.793V348.797L902.754 352.664V418.289L859.512 347.684H844.453V348.855L854.297 352.02V427.02L844.453 430.828V432H866.191V430.828L856.289 427.02V358.641L902.461 432.996ZM973.125 433.406C990.352 433.406 1004.36 414.949 1004.36 390.105C1004.36 363.035 989.18 346.336 972.363 346.336C962.344 346.336 952.852 352.957 947.461 362.625L948.34 363.738C953.672 356.18 959.18 350.379 971.367 350.379C986.484 350.379 994.805 367.312 994.805 391.512C994.805 393.562 994.805 394.852 994.629 397.137H945.938C945.938 417.059 956.309 433.406 973.125 433.406ZM973.477 431.004C962.227 431.004 955.195 419.285 955.195 400.711L994.57 398.719C993.457 417.234 985.254 431.004 973.477 431.004ZM1033.24 433.406C1045.55 433.406 1057.03 427.137 1057.03 411.199C1057.03 397.781 1047.01 390.691 1038.22 385.066L1034.94 382.957C1026.97 377.859 1022.17 373.875 1022.17 364.617C1022.17 354.773 1027.27 348.562 1034.41 348.562C1045.08 348.562 1050.12 356.59 1054.57 373.406H1055.21L1053.93 353.367C1048.59 349.441 1041.5 346.336 1035.41 346.336C1022.75 346.336 1013.44 353.602 1013.44 366.727C1013.44 379.441 1022.99 385.535 1030.25 390.281L1033.12 392.156C1041.04 397.312 1048.18 402 1048.18 413.602C1048.18 424.793 1042.73 431.18 1033.42 431.18C1024.28 431.18 1017.89 424.324 1013.32 406.395H1012.68L1013.73 426.551C1018.42 429.656 1025.68 433.406 1033.24 433.406ZM1118.38 427.664L1093.89 347.684H1081.99V348.855L1086.62 354.715L1065.06 427.664L1055.92 430.828V432H1078.01V430.828L1067.17 427.664L1074.2 403.699H1102.21L1109.3 427.664L1101.09 430.828V432H1127.11V430.828L1118.38 427.664ZM1074.84 401.473L1088.14 356.297L1101.56 401.473H1074.84ZM1150.9 433.406C1163.2 433.406 1174.69 427.137 1174.69 411.199C1174.69 397.781 1164.67 390.691 1155.88 385.066L1152.6 382.957C1144.63 377.859 1139.82 373.875 1139.82 364.617C1139.82 354.773 1144.92 348.562 1152.07 348.562C1162.73 348.562 1167.77 356.59 1172.23 373.406H1172.87L1171.58 353.367C1166.25 349.441 1159.16 346.336 1153.07 346.336C1140.41 346.336 1131.09 353.602 1131.09 366.727C1131.09 379.441 1140.64 385.535 1147.91 390.281L1150.78 392.156C1158.69 397.312 1165.84 402 1165.84 413.602C1165.84 424.793 1160.39 431.18 1151.07 431.18C1141.93 431.18 1135.55 424.324 1130.98 406.395H1130.33L1131.39 426.551C1136.07 429.656 1143.34 433.406 1150.9 433.406ZM2.8125 605H25.2539V603.828L15.0586 600.02V529.941L43.1836 596.504H45.8789L74.1211 530.586V600.664L65.2148 603.828V605H91.582V603.828L82.6758 600.664V525.02L91.582 521.855V520.684H75.9961L47.6367 586.953L20.0391 520.684H2.87109V521.855L12.9492 525.02V600.02L2.8125 603.828V605ZM124.219 606.406C141.445 606.406 155.449 587.949 155.449 563.105C155.449 536.035 140.273 519.336 123.457 519.336C113.438 519.336 103.945 525.957 98.5547 535.625L99.4336 536.738C104.766 529.18 110.273 523.379 122.461 523.379C137.578 523.379 145.898 540.312 145.898 564.512C145.898 566.562 145.898 567.852 145.723 570.137H97.0312C97.0312 590.059 107.402 606.406 124.219 606.406ZM124.57 604.004C113.32 604.004 106.289 592.285 106.289 573.711L145.664 571.719C144.551 590.234 136.348 604.004 124.57 604.004ZM160.898 605H186.445V603.828L178.066 600.664V522.91H188.672C200.098 522.91 204.727 530.645 204.727 541.895C204.727 555.664 199.453 563.34 187.031 563.34H181.758V565.566H186.738C188.438 565.566 190.312 565.449 192.129 565.156L209.59 605H223.77L223.711 603.828L217.207 600.254L201.27 565.977C200.039 566.035 197.754 565.566 195.527 564.98V564.688C205.723 562.695 214.277 555.547 214.277 541.543C214.277 529.004 206.25 520.684 191.426 520.684H160.898V521.855L169.512 525.02V600.723L160.898 603.828V605ZM228.633 605H254.531V603.828L245.801 600.664V562.93H283.535V600.723L274.922 603.828V605H300.82V603.828L292.09 600.664V525.02L300.82 521.855V520.684H274.922V521.855L283.535 525.02V560.703H245.801V525.02L254.531 521.855V520.684H228.633V521.855L237.246 525.02V600.723L228.633 603.828V605ZM333.398 606.406C350.625 606.406 364.629 587.949 364.629 563.105C364.629 536.035 349.453 519.336 332.637 519.336C322.617 519.336 313.125 525.957 307.734 535.625L308.613 536.738C313.945 529.18 319.453 523.379 331.641 523.379C346.758 523.379 355.078 540.312 355.078 564.512C355.078 566.562 355.078 567.852 354.902 570.137H306.211C306.211 590.059 316.582 606.406 333.398 606.406ZM333.75 604.004C322.5 604.004 315.469 592.285 315.469 573.711L354.844 571.719C353.73 590.234 345.527 604.004 333.75 604.004ZM370.078 605H417.891L420.41 584.434L419.941 584.316L410.215 602.773H387.188V525.02L396.855 521.855V520.684H370.078V521.855L378.633 525.02V600.723L370.078 603.828V605ZM451.992 606.406C469.219 606.406 483.223 587.949 483.223 563.105C483.223 536.035 468.047 519.336 451.23 519.336C441.211 519.336 431.719 525.957 426.328 535.625L427.207 536.738C432.539 529.18 438.047 523.379 450.234 523.379C465.352 523.379 473.672 540.312 473.672 564.512C473.672 566.562 473.672 567.852 473.496 570.137H424.805C424.805 590.059 435.176 606.406 451.992 606.406ZM452.344 604.004C441.094 604.004 434.062 592.285 434.062 573.711L473.438 571.719C472.324 590.234 464.121 604.004 452.344 604.004ZM488.672 605H536.484L539.004 584.434L538.535 584.316L528.809 602.773H505.781V525.02L515.449 521.855V520.684H488.672V521.855L497.227 525.02V600.723L488.672 603.828V605ZM570.586 606.406C587.812 606.406 601.816 587.949 601.816 563.105C601.816 536.035 586.641 519.336 569.824 519.336C559.805 519.336 550.312 525.957 544.922 535.625L545.801 536.738C551.133 529.18 556.641 523.379 568.828 523.379C583.945 523.379 592.266 540.312 592.266 564.512C592.266 566.562 592.266 567.852 592.09 570.137H543.398C543.398 590.059 553.77 606.406 570.586 606.406ZM570.938 604.004C559.688 604.004 552.656 592.285 552.656 573.711L592.031 571.719C590.918 590.234 582.715 604.004 570.938 604.004ZM607.266 605H632.812V603.828L624.434 600.664V522.91H635.039C646.465 522.91 651.094 530.645 651.094 541.895C651.094 555.664 645.82 563.34 633.398 563.34H628.125V565.566H633.105C634.805 565.566 636.68 565.449 638.496 565.156L655.957 605H670.137L670.078 603.828L663.574 600.254L647.637 565.977C646.406 566.035 644.121 565.566 641.895 564.98V564.688C652.09 562.695 660.645 555.547 660.645 541.543C660.645 529.004 652.617 520.684 637.793 520.684H607.266V521.855L615.879 525.02V600.723L607.266 603.828V605ZM687.891 514.355C690.879 514.355 693.105 512.305 693.105 509.258C693.105 506.27 690.879 504.102 687.891 504.102C684.844 504.102 682.617 506.27 682.617 509.258C682.617 512.305 684.844 514.355 687.891 514.355ZM675 605H700.781V603.828L692.168 600.664V525.02L700.781 521.855V520.684H675V521.855L683.613 525.02V600.723L675 603.828V605ZM761.602 605H766.582L790.312 525.02L799.395 521.855V520.684H777.539V521.855L788.145 525.02L767.051 595.449L747.48 525.02L756.973 521.855V520.684H729.375V521.855L738.047 525.02L761.602 605ZM821.836 606.406C839.062 606.406 853.066 587.949 853.066 563.105C853.066 536.035 837.891 519.336 821.074 519.336C811.055 519.336 801.562 525.957 796.172 535.625L797.051 536.738C802.383 529.18 807.891 523.379 820.078 523.379C835.195 523.379 843.516 540.312 843.516 564.512C843.516 566.562 843.516 567.852 843.34 570.137H794.648C794.648 590.059 805.02 606.406 821.836 606.406ZM822.188 604.004C810.938 604.004 803.906 592.285 803.906 573.711L843.281 571.719C842.168 590.234 833.965 604.004 822.188 604.004ZM907.617 606.406C919.922 606.406 931.406 600.137 931.406 584.199C931.406 570.781 921.387 563.691 912.598 558.066L909.316 555.957C901.348 550.859 896.543 546.875 896.543 537.617C896.543 527.773 901.641 521.562 908.789 521.562C919.453 521.562 924.492 529.59 928.945 546.406H929.59L928.301 526.367C922.969 522.441 915.879 519.336 909.785 519.336C897.129 519.336 887.812 526.602 887.812 539.727C887.812 552.441 897.363 558.535 904.629 563.281L907.5 565.156C915.41 570.312 922.559 575 922.559 586.602C922.559 597.793 917.109 604.18 907.793 604.18C898.652 604.18 892.266 597.324 887.695 579.395H887.051L888.105 599.551C892.793 602.656 900.059 606.406 907.617 606.406ZM951.914 605H978.926V603.828L969.727 600.664V522.91H984.551L990.938 539.141H991.406V520.684H939.434V539.141H939.961L946.23 522.91H961.172V600.664L951.914 603.828V605ZM1046.89 600.664L1022.4 520.684H1010.51V521.855L1015.14 527.715L993.574 600.664L984.434 603.828V605H1006.52V603.828L995.684 600.664L1002.71 576.699H1030.72L1037.81 600.664L1029.61 603.828V605H1055.62V603.828L1046.89 600.664ZM1003.36 574.473L1016.66 529.297L1030.08 574.473H1003.36ZM1062.19 605H1089.2V603.828L1080 600.664V522.91H1094.82L1101.21 539.141H1101.68V520.684H1049.71V539.141H1050.23L1056.5 522.91H1071.45V600.664L1062.19 603.828V605ZM1121.48 514.355C1124.47 514.355 1126.7 512.305 1126.7 509.258C1126.7 506.27 1124.47 504.102 1121.48 504.102C1118.44 504.102 1116.21 506.27 1116.21 509.258C1116.21 512.305 1118.44 514.355 1121.48 514.355ZM1108.59 605H1134.38V603.828L1125.76 600.664V525.02L1134.38 521.855V520.684H1108.59V521.855L1117.21 525.02V600.723L1108.59 603.828V605ZM1161.68 606.406C1173.98 606.406 1185.47 600.137 1185.47 584.199C1185.47 570.781 1175.45 563.691 1166.66 558.066L1163.38 555.957C1155.41 550.859 1150.61 546.875 1150.61 537.617C1150.61 527.773 1155.7 521.562 1162.85 521.562C1173.52 521.562 1178.55 529.59 1183.01 546.406H1183.65L1182.36 526.367C1177.03 522.441 1169.94 519.336 1163.85 519.336C1151.19 519.336 1141.88 526.602 1141.88 539.727C1141.88 552.441 1151.43 558.535 1158.69 563.281L1161.56 565.156C1169.47 570.312 1176.62 575 1176.62 586.602C1176.62 597.793 1171.17 604.18 1161.86 604.18C1152.71 604.18 1146.33 597.324 1141.76 579.395H1141.11L1142.17 599.551C1146.86 602.656 1154.12 606.406 1161.68 606.406ZM1205.98 605H1232.99V603.828L1223.79 600.664V522.91H1238.61L1245 539.141H1245.47V520.684H1193.5V539.141H1194.02L1200.29 522.91H1215.23V600.664L1205.98 603.828V605ZM1265.27 514.355C1268.26 514.355 1270.49 512.305 1270.49 509.258C1270.49 506.27 1268.26 504.102 1265.27 504.102C1262.23 504.102 1260 506.27 1260 509.258C1260 512.305 1262.23 514.355 1265.27 514.355ZM1252.38 605H1278.16V603.828L1269.55 600.664V525.02L1278.16 521.855V520.684H1252.38V521.855L1261 525.02V600.723L1252.38 603.828V605ZM1283.79 605H1309.57V603.828L1300.96 600.664V525.02L1309.57 521.855V520.684H1283.79V521.855L1292.4 525.02V600.723L1283.79 603.828V605ZM1330.96 605H1346.48V603.242L1338.34 600.664L1311.15 556.953L1335.7 525.02L1344.2 521.855V520.684H1319.82V521.855L1332.42 525.488L1304.47 561.816L1330.96 605ZM1411.58 600.664L1387.09 520.684H1375.2V521.855L1379.82 527.715L1358.26 600.664L1349.12 603.828V605H1371.21V603.828L1360.37 600.664L1367.4 576.699H1395.41L1402.5 600.664L1394.3 603.828V605H1420.31V603.828L1411.58 600.664ZM1368.05 574.473L1381.35 529.297L1394.77 574.473H1368.05ZM1444.1 606.406C1456.41 606.406 1467.89 600.137 1467.89 584.199C1467.89 570.781 1457.87 563.691 1449.08 558.066L1445.8 555.957C1437.83 550.859 1433.03 546.875 1433.03 537.617C1433.03 527.773 1438.12 521.562 1445.27 521.562C1455.94 521.562 1460.98 529.59 1465.43 546.406H1466.07L1464.79 526.367C1459.45 522.441 1452.36 519.336 1446.27 519.336C1433.61 519.336 1424.3 526.602 1424.3 539.727C1424.3 552.441 1433.85 558.535 1441.11 563.281L1443.98 565.156C1451.89 570.312 1459.04 575 1459.04 586.602C1459.04 597.793 1453.59 604.18 1444.28 604.18C1435.14 604.18 1428.75 597.324 1424.18 579.395H1423.54L1424.59 599.551C1429.28 602.656 1436.54 606.406 1444.1 606.406ZM1474.69 605H1500.47V603.828L1491.86 600.664V525.02L1500.47 521.855V520.684H1474.69V521.855L1483.3 525.02V600.723L1474.69 603.828V605Z" fill="white"></path> </g> <defs> <filter id="filter0_b" x="-3.41406" y="-3.66406" width="1739.45" height="614.07" filterUnits="userSpaceOnUse" color-interpolation-filters="sRGB"> <feFlood flood-opacity="0" result="BackgroundImageFix"></feFlood> <feGaussianBlur in="BackgroundImage" stdDeviation="2"></feGaussianBlur> <feComposite in2="SourceAlpha" operator="in" result="effect1_backgroundBlur"></feComposite> <feBlend mode="normal" in="SourceGraphic" in2="effect1_backgroundBlur" result="shape"></feBlend> </filter> </defs> </svg> 