<svg width="12" height="4" viewBox="0 0 12 4" fill="none" xmlns="http://www.w3.org/2000/svg">
<path fill-rule="evenodd" clip-rule="evenodd" d="M0.358752 0.352501C0.410739 0.241606 0.501647 0.157323 0.611544 0.118133C0.721441 0.0789425 0.841358 0.0880425 0.945002 0.143438L5.99988 2.85L11.0539 0.142501C11.1053 0.114358 11.1614 0.0973981 11.219 0.0925991C11.2765 0.0878001 11.3344 0.0952569 11.3893 0.11454C11.4441 0.133822 11.4949 0.164549 11.5386 0.204949C11.5823 0.245349 11.6182 0.294623 11.644 0.34993C11.6699 0.405237 11.6853 0.465483 11.6893 0.527194C11.6934 0.588906 11.686 0.650862 11.6675 0.709492C11.6491 0.768121 11.62 0.822264 11.582 0.868799C11.544 0.915334 11.4977 0.95334 11.4459 0.980626L6.19588 3.79313C6.13504 3.82579 6.06793 3.8428 5.99988 3.8428C5.93183 3.8428 5.86472 3.82579 5.80388 3.79313L0.553877 0.980626C0.450375 0.924926 0.371711 0.827524 0.335134 0.709778C0.298556 0.592031 0.30705 0.463548 0.358752 0.352501Z" fill="black"/>
</svg>
